<?xml version="1.0" encoding="utf-8"?>
<!-- Generator: Adobe Illustrator 25.1.0, SVG Export Plug-In . SVG Version: 6.00 Build 0)  -->
<svg version="1.1" id="Layer_1" xmlns="http://www.w3.org/2000/svg" xmlns:xlink="http://www.w3.org/1999/xlink" x="0px" y="0px"
	 viewBox="0 0 77.1 82.2" style="enable-background:new 0 0 77.1 82.2;" xml:space="preserve">
<style type="text/css">
	.st0{fill:#F3714A;}
	.st1{fill:#F15D3D;}
	.st2{fill:#FBB988;}
	.st3{fill:#F388B2;}
	.st4{fill:#EE7DAA;}
	.st5{fill:#FACDD9;}
	.st6{fill:#93479B;}
	.st7{fill:#823C89;}
	.st8{fill:#B688BD;}
	.st9{fill:#60A353;}
	.st10{fill:#559746;}
	.st11{fill:#C4D1B3;}
	.st12{fill:#EF4043;}
	.st13{fill:#E22E34;}
	.st14{fill:#F5928C;}
	.st15{fill:#F1D54B;}
	.st16{fill:#F0C622;}
	.st17{fill:#ECE3CA;}
	.st18{fill:#4F8ECB;}
	.st19{fill:#367FB8;}
	.st20{fill:#7DBBE6;}
</style>
<g>
	<path class="st0" d="M28.1,32.4C33.5,24,30.3,4.7,49.8,4.7c23.9,0,31.5,33.9,9.7,57.7S4.4,79.9,4.7,60C5.1,39.7,20,45.1,28.1,32.4z
		"/>
	<path class="st1" d="M59.5,62.5C46.1,77.1,28.3,80.3,16.7,76c11.8,0,25.6-5.3,36.8-17.5C66.6,44.2,70.4,26.7,67,13.3
		C75.6,25,74.5,46.1,59.5,62.5z"/>
	<path class="st2" d="M8.1,59.3c-0.5-4.2,1.2-10.1,4.7-12.5c2-0.5,5.4-0.3,5.9,2.5C14.4,49.7,8.1,59.3,8.1,59.3z"/>
	<path class="st2" d="M35.5,22.6c0.7-4.8,2.1-10.6,8.6-14.4c2-0.5,3,1.9,3.4,4.7C43.3,13.3,35.5,22.6,35.5,22.6z"/>
</g>
</svg>
