<?xml version="1.0" encoding="utf-8"?>
<!-- Generator: Adobe Illustrator 25.1.0, SVG Export Plug-In . SVG Version: 6.00 Build 0)  -->
<svg version="1.1" id="Layer_1" xmlns="http://www.w3.org/2000/svg" xmlns:xlink="http://www.w3.org/1999/xlink" x="0px" y="0px"
	 viewBox="0 0 444 157" style="enable-background:new 0 0 444 157;" xml:space="preserve">
<style type="text/css">
	.st0{fill:none;stroke:#F388B1;stroke-width:2;stroke-miterlimit:10;}
	.st1{fill:#F172A6;}
	.st2{fill:none;stroke:#F388B1;stroke-miterlimit:10;}
	.st3{fill:#F388B1;}
	.st4{fill:none;stroke:#F172A6;stroke-miterlimit:10;}
	.st5{fill:#4F8ECB;}
	.st6{fill:#2F79B1;}
	.st7{fill:#367FB8;}
	.st8{fill:#7DBBE6;}
	.st9{fill:#F1D54B;}
	.st10{fill:#EEBB24;}
	.st11{fill:#F0C622;}
	.st12{fill:#EEE1B8;}
	.st13{fill:#93479B;}
	.st14{fill:#823C89;}
	.st15{fill:#B688BD;}
</style>
<g>
	<path class="st0" d="M61.9,62.4c-0.2-0.5-0.3-1-0.5-1.4c-0.3-0.5-0.6-1.1-0.9-1.5c-0.5-0.6-1-1.2-1.6-1.7c-1.3,0.7-2.7,1.3-4.1,1.9
		c-0.4,0.2-0.8,0.3-1.2,0.5c-1.8,0.7-4,1.1-6.7,1.1c-4.6,0-8.3-1.3-11.1-3.9c-0.2-0.2-0.5-0.4-0.7-0.6c-0.5-0.5-1-1.1-1.4-1.7
		c-0.6-0.9-1.2-1.9-1.6-3c-0.9-2.3-1.4-5.1-1.4-8.3c0-2.4,0.2-4.6,0.7-6.5c0.6-2.4,1.6-4.5,3-6.1c0-0.1,0.1-0.1,0.2-0.2
		c1.5-1.7,3.3-2.9,5.5-3.6c1.7-0.6,3.7-0.9,5.9-0.9c0.5,0,0.9,0,1.4,0c2,0.1,3.7,0.5,5.2,1.1c1.9,0.8,3.7,1.7,5.3,2.8
		c1.1-0.7,2.1-1.7,2.9-2.9c0.8-1.2,1.2-2.7,1.2-4.3c0-2-0.7-3.7-2.1-5.2c-0.7-0.8-1.6-1.5-2.8-2.2c0,0,0,0,0,0
		c-1.1-0.6-2.3-1.2-3.6-1.6c-2.8-0.9-6.1-1.3-10-1.3c-4.2,0-8.1,0.7-11.7,2c-3.7,1.3-6.8,3.3-9.6,6c-2.7,2.6-4.9,5.9-6.4,9.7
		c-1.3,3.2-2.1,6.8-2.3,10.8c0,0.8-0.1,1.6-0.1,2.4c0,0.6,0,1.1,0,1.7c0,1.3,0.1,2.6,0.3,3.9c0.4,3.1,1.1,5.9,2.1,8.4
		c0.6,1.4,1.3,2.8,2,4c0.6,1,1.2,1.9,1.9,2.7c0.6,0.8,1.3,1.6,2.1,2.3c0.2,0.2,0.4,0.4,0.6,0.6c2.8,2.5,6.1,4.4,9.9,5.6
		c0.6,0.2,1.3,0.4,1.9,0.5c1.4,0.4,2.7,0.6,4.1,0.8c1.7,0.3,3.4,0.4,5.2,0.4h0c0.3,0,0.5,0,0.8,0c6,0,10.4-0.9,13.3-2.7
		c2.9-1.8,4.4-4,4.4-6.7C62.3,64.3,62.2,63.3,61.9,62.4z"/>
	<path class="st0" d="M114.1,50c-0.4-1-0.8-1.9-1.3-2.8c-0.6-1-1.3-1.8-2.1-2.6c-0.1-0.1-0.3-0.3-0.4-0.4c-2.8-2.6-6.7-4.8-11.6-6.6
		c-0.7-0.3-1.5-0.5-2.2-0.8l-1.7-0.5l-3.4-1.1c-0.1,0-0.2,0-0.2-0.1c-1.6-0.5-2.7-1-3.5-1.6c-0.8-0.6-1.2-1.4-1.2-2.4
		c0-1.2,0.7-2.2,2-3c1.3-0.8,3.5-1.2,6.3-1.2c2.6,0,5,0.3,7.2,0.9c0.2,0,0.4,0.1,0.6,0.2c1.1,0.3,2.1,0.7,3,1c1,0.4,1.9,0.9,2.6,1.3
		c1.1-0.8,2-1.8,2.8-3c0.5-0.8,0.8-1.7,1-2.6v0c0.1-0.5,0.1-1,0.1-1.6c0-0.7-0.1-1.3-0.2-1.9c-0.2-0.9-0.6-1.7-1.2-2.4
		c-1-1.2-2.3-2.3-4-3.1c-1.7-0.8-3.7-1.4-6.1-1.8c-0.1,0-0.2,0-0.3,0c-1.5-0.2-3.1-0.4-4.7-0.5c-0.9-0.1-1.8-0.1-2.7-0.1
		c-1.2,0-2.3,0-3.4,0.1h0c-6,0.4-10.7,2-14.3,4.8c-3,2.4-5,5.3-5.8,8.8c-0.3,1.3-0.5,2.7-0.5,4.2v0.1c0,1.2,0.1,2.4,0.3,3.5
		c0.2,1.3,0.6,2.5,1.1,3.6c0.9,2,2.2,3.6,3.9,5c0.7,0.6,1.5,1.1,2.3,1.7c0.9,0.6,1.9,1.1,3,1.6h0c0.2,0.1,0.5,0.2,0.7,0.3
		c0.9,0.4,1.9,0.8,2.9,1.2c1.5,0.6,3.1,1.2,4.8,1.7l4,1.4c1.9,0.6,3.3,1.3,4.3,2c0.3,0.2,0.6,0.4,0.8,0.7c0.5,0.6,0.8,1.3,0.8,2.2
		c0,0.5-0.1,1-0.3,1.5v0c-0.3,0.7-0.8,1.3-1.6,1.8c-0.7,0.5-1.6,0.9-2.7,1.1h0c-1.1,0.2-2.4,0.3-3.9,0.3c-0.8,0-1.6,0-2.4-0.1h0
		c-2.2-0.2-4.2-0.7-6.1-1.4c-2.6-1-4.8-2.2-6.6-3.7c-1.3,0.7-2.5,1.7-3.6,3c-1.1,1.3-1.6,2.9-1.6,4.8c0,1.8,0.5,3.4,1.6,4.8
		c0.6,0.8,1.3,1.5,2.2,2.1c0.7,0.5,1.4,1,2.2,1.3c0.3,0.2,0.7,0.3,1,0.5h0c1.1,0.5,2.3,0.9,3.6,1.2c0.6,0.2,1.3,0.3,2,0.4
		c2.5,0.5,5.3,0.7,8.2,0.7c5.4,0,9.9-0.7,13.6-2.1h0c2-0.8,3.8-1.7,5.3-2.9c1-0.7,1.8-1.5,2.5-2.4l0,0c2.6-3,3.9-6.6,3.9-10.8
		C115.1,54,114.7,51.9,114.1,50z"/>
	<path class="st0" d="M168,55c-0.1-1.3-0.3-2.5-0.6-3.7c-0.7-2.8-2.2-5.2-4.2-7.2c-1-1-2.2-1.9-3.6-2.7c-0.9-0.6-1.8-1.1-2.8-1.6
		c-1-0.5-2.1-1-3.2-1.5c-1.3-0.6-2.8-1.1-4.3-1.6l-5.1-1.6c-1.7-0.5-2.9-1.1-3.8-1.7c-0.4-0.2-0.6-0.5-0.8-0.9
		c-0.3-0.4-0.4-0.9-0.4-1.5c0-1.2,0.7-2.2,2-3c1.4-0.8,3.5-1.2,6.4-1.2c0.2,0,0.3,0,0.5,0c2.6,0,5.1,0.4,7.3,1
		c2.4,0.7,4.3,1.5,5.7,2.3c1.1-0.8,2-1.8,2.8-3c0.8-1.2,1.2-2.6,1.2-4.3c0-1.7-0.5-3.1-1.4-4.4c-0.4-0.5-0.8-0.9-1.2-1.3
		c-0.8-0.7-1.7-1.2-2.7-1.8c0,0,0,0,0,0c-1.2-0.5-2.5-1-4-1.3c-0.7-0.2-1.4-0.3-2.1-0.4c-2.4-0.4-4.9-0.6-7.7-0.6
		c-7.6,0-13.4,1.6-17.6,4.9c-4.2,3.3-6.3,7.6-6.3,13.1c0,2,0.2,3.8,0.7,5.4c0.2,0.6,0.4,1.2,0.7,1.8c0.2,0.5,0.5,0.9,0.7,1.3
		c0.5,0.9,1.1,1.7,1.8,2.4c0.4,0.5,0.9,0.9,1.4,1.3c1.7,1.4,3.6,2.6,6,3.6c1.5,0.7,3.2,1.3,5,2h0c0.9,0.3,1.8,0.6,2.7,1l0.8,0.3
		l3.2,1.1c0.1,0,0.2,0.1,0.3,0.1c1.7,0.6,3.1,1.2,4.1,1.9c1,0.7,1.5,1.7,1.5,2.9c0,1.3-0.6,2.4-1.9,3.4c-1.3,1-3.5,1.4-6.6,1.4
		c-3.1,0-5.9-0.5-8.5-1.5c-0.1,0-0.2-0.1-0.3-0.1c-1.1-0.4-2.1-0.9-3.1-1.4c-1-0.5-1.9-1.1-2.8-1.8c-0.2-0.1-0.3-0.2-0.5-0.4
		c-1.3,0.7-2.5,1.7-3.5,3c0,0,0,0.1-0.1,0.1c-1,1.3-1.6,2.9-1.6,4.7v0c0,1.1,0.2,2.1,0.6,3.1c0.2,0.6,0.6,1.1,1,1.6
		c1.1,1.4,2.5,2.5,4.4,3.5c1.8,0.9,4,1.6,6.5,2.1c0.1,0,0.1,0,0.2,0c1.5,0.3,3.2,0.5,4.8,0.6c1.1,0.1,2.2,0.1,3.4,0.1
		c0.7,0,1.3,0,1.9,0h0c7.4-0.2,13.1-1.9,17-5c3.6-2.9,5.7-6.5,6.3-10.8c0.1-0.8,0.2-1.6,0.2-2.4C168,55.9,168,55.4,168,55z"/>
	<path class="st0" d="M240.5,62.2c-0.4-1.2-0.8-2.2-1.2-2.9h-24.6l18.5-22.4l0,0l3.3-4c0.9-1.1,1.7-2.3,2.4-3.5
		c0.2-0.3,0.3-0.6,0.5-1c0.6-1.2,0.9-2.5,1-3.7c0-0.3,0.1-0.7,0.1-1c0-3.9-1.4-6.9-4.2-9.2h-35.9c-0.4,0-0.8,0-1.2,0.1
		c-1.3,0.2-2.3,0.7-3.2,1.5c-0.4,0.3-0.6,0.8-0.9,1.2v0c-0.6,1-0.8,2.4-0.8,4.2c0,1.3,0.2,2.6,0.6,3.8c0.4,1.2,0.8,2.2,1.2,2.9h23.7
		l-20.5,24.4l-1.6,1.9c-1.2,1.4-2.2,3-3,4.6c0,0.1-0.1,0.2-0.1,0.3c-0.7,1.5-1.1,3-1.1,4.4c0,0.1,0,0.1,0,0.2c0,2,0.4,3.8,1.1,5.3
		c0.7,1.5,1.6,2.8,2.7,3.7H235c0.8,0,1.5-0.1,2.2-0.3c0.8-0.3,1.6-0.7,2.2-1.3c0.1-0.1,0.3-0.3,0.4-0.4v0c0.9-1.1,1.3-2.8,1.3-4.9
		C241.1,64.7,240.9,63.4,240.5,62.2z"/>
	<path class="st0" d="M276.3,53.9l9.5-1.4c2.2-0.3,3.9-1.1,5.1-2.2c1.2-1.2,1.8-2.8,1.8-5c0-0.8,0-1.6-0.1-2.4
		c-0.1-1.1-0.3-2.2-0.6-3.2c-0.2-0.9-0.5-1.7-0.9-2.5c-0.1-0.2-0.2-0.5-0.3-0.7c-1.1-2.2-2.5-4.1-4.4-5.8c-1.4-1.3-3-2.3-4.8-3.2
		c-0.8-0.4-1.6-0.7-2.4-1c-0.5-0.2-0.9-0.3-1.4-0.5c-1.5-0.4-3-0.7-4.6-0.9c-1-0.1-2.1-0.2-3.3-0.2c-3,0-6,0.5-8.8,1.4
		c-2.9,0.9-5.5,2.4-7.7,4.3c-2.2,2-4.1,4.4-5.4,7.5c-0.7,1.6-1.2,3.3-1.6,5.1c-0.3,1.4-0.4,2.8-0.5,4.4c0,0.5,0,0.9,0,1.4
		c0,0.9,0,1.8,0.1,2.6v0c0.2,3.2,0.9,6.1,2,8.6c0.6,1.4,1.3,2.7,2.1,3.8c0.6,1,1.3,1.8,2.1,2.6c0.5,0.5,1,1,1.5,1.5
		c0.2,0.2,0.5,0.4,0.7,0.6c2.2,1.8,4.8,3.2,7.7,4.1c2.1,0.7,4.2,1.1,6.5,1.4c1.3,0.1,2.6,0.2,4,0.2c0.4,0,0.7,0,1.1,0
		c1.9,0,3.9-0.2,6.1-0.5c0.3,0,0.5-0.1,0.8-0.1c2.3-0.4,4.3-1.1,6.2-2.1c2.1-1.1,3.4-2.7,3.9-4.7c0.1-0.5,0.2-1.1,0.2-1.7
		c0-0.7-0.1-1.4-0.3-2.1c-0.2-0.5-0.4-1-0.7-1.5c-0.2-0.4-0.5-0.8-0.8-1.1c-0.5-0.6-1.1-1.2-1.8-1.6c-1.5,0.9-3.4,1.7-5.7,2.3
		c-2.3,0.7-4.8,1-7.5,1c-2.8,0-5.3-0.5-7.5-1.6c0,0-0.1,0-0.1-0.1c-1-0.5-1.9-1.2-2.6-1.9c-0.7-0.8-1.3-1.7-1.6-2.8l7.3-1.1
		L276.3,53.9z M262.5,40.4c0.2-0.3,0.4-0.6,0.6-0.8c0.7-0.8,1.6-1.5,2.7-2c0.5-0.2,1-0.4,1.5-0.5c0.8-0.2,1.6-0.3,2.5-0.3
		c2.4,0,4.2,0.6,5.4,1.9c1.2,1.3,1.9,2.6,2.1,3.8l-16.4,2.7c0.1-1,0.3-2,0.6-3C261.8,41.6,262.1,41,262.5,40.4L262.5,40.4z"/>
	<path class="st0" d="M342.8,31.6c-0.6-0.7-1.3-1.4-2.1-2c-0.1-0.1-0.3-0.2-0.4-0.3c-0.8-0.7-1.8-1.2-2.8-1.8
		c-3.6-1.8-8.1-2.7-13.5-2.7c-1.9,0-3.6,0.1-5.3,0.3c-2,0.2-3.9,0.6-5.7,1.1c-1,0.3-1.9,0.6-2.7,0.9l0,0c-2.1,0.8-3.9,1.7-5.5,2.8
		c-1.3,0.9-2.2,1.8-3,2.9c0,0,0,0,0,0.1c-0.7,1.1-1.1,2.5-1.1,4.2v28.8c0,1.6,0.2,2.9,0.6,3.9c0.4,1,1,1.8,1.8,2.4
		c0.3,0.3,0.7,0.5,1.1,0.7c0.5,0.2,1.1,0.4,1.7,0.5c0.9,0.2,2,0.3,3.2,0.3c0.2,0,0.4,0,0.6,0c1.5,0,2.9-0.1,4.3-0.3
		c0.4-0.1,0.8-0.1,1.1-0.2h0c0.8-0.1,1.4-0.3,1.9-0.4V39.6c0.9-0.6,2-1.1,3.2-1.4c0.8-0.2,1.6-0.3,2.4-0.4c0.5,0,0.9-0.1,1.4-0.1
		c1.2,0,2.3,0.2,3.2,0.6c0.5,0.2,1,0.5,1.4,0.8c0.5,0.4,0.8,0.9,1.1,1.5c0.4,0.8,0.6,1.8,0.6,2.9v22.7c0,1.6,0.2,2.9,0.6,3.9
		c0.4,1,1,1.8,1.8,2.4c0.8,0.6,1.7,1,2.8,1.2c0.5,0.1,1,0.1,1.5,0.2c0.7,0.1,1.5,0.1,2.3,0.1c1.1,0,2.1,0,3.1-0.1
		c0.4,0,0.8-0.1,1.2-0.1c1.4-0.2,2.4-0.4,3-0.6V42.9C346.5,38.3,345.3,34.6,342.8,31.6z"/>
	<path class="st1" d="M144.6,74.5l23.3-15.8c-0.5,4.3-2.7,7.9-6.3,10.8C157.6,72.6,152,74.3,144.6,74.5z"/>
	<path class="st1" d="M240.4,23.7c0,0.3,0,0.7-0.1,1l-41.1,27.9l20.5-24.4h-6.9l20.3-13.8h3.1C239,16.8,240.4,19.9,240.4,23.7z"/>
	<path class="st1" d="M167.4,51.3l-33.2,22.5c-2.5-0.5-4.6-1.2-6.5-2.1c-1.9-0.9-3.4-2.1-4.4-3.5c-0.4-0.5-0.7-1-1-1.6l10.9-7.4
		c0.1,0,0.2,0.1,0.3,0.1c2.6,1,5.4,1.5,8.5,1.5c3.1,0,5.3-0.5,6.6-1.4c1.3-1,1.9-2.1,1.9-3.4c0-1.3-0.5-2.3-1.5-2.9
		c-1-0.6-2.3-1.3-4.1-1.9l14.6-9.9c1.3,0.9,2.5,1.8,3.6,2.7C165.3,46.1,166.7,48.5,167.4,51.3z"/>
	<path class="st1" d="M221.7,14.5l-20.3,13.8h-5.4c-0.5-0.7-0.9-1.7-1.2-2.9c-0.4-1.2-0.6-2.5-0.6-3.8c0-1.7,0.3-3.1,0.8-4.2v0
		l4.1-2.8c0.4-0.1,0.8-0.1,1.2-0.1H221.7z"/>
	<line class="st2" x1="227.7" y1="14.5" x2="207.4" y2="28.2"/>
	<line class="st2" x1="168" y1="55" x2="139.3" y2="74.5"/>
	<line class="st2" x1="238.8" y1="29.4" x2="194.5" y2="59.5"/>
	<path class="st1" d="M115.1,56.3c0,4.2-1.3,7.9-3.9,10.8l0,0l-7.8,5.3h0c-3.7,1.4-8.2,2.1-13.6,2.1c-3,0-5.7-0.2-8.2-0.7
		c-0.7-0.1-1.3-0.3-2-0.4L114.1,50C114.7,51.9,115.1,54,115.1,56.3z"/>
	<path class="st3" d="M127,55.7c0.2,0.1,0.3,0.2,0.5,0.4l-4.1,2.8c0,0,0-0.1,0.1-0.1C124.5,57.4,125.7,56.4,127,55.7z"/>
	<path class="st1" d="M149.3,36.8c1.5,0.5,3,1,4.3,1.6L138,48.9h0c-1.8-0.7-3.4-1.3-5-2c-2.3-1-4.3-2.2-6-3.6
		c-0.5-0.4-0.9-0.8-1.4-1.3l13.9-9.4c0.2,0.3,0.5,0.6,0.8,0.9c0.8,0.6,2.1,1.2,3.8,1.7L149.3,36.8z"/>
	<path class="st1" d="M165,23c0,1.7-0.4,3.1-1.2,4.3c-0.8,1.2-1.7,2.2-2.8,3c-1.4-0.9-3.3-1.7-5.7-2.3c-2.2-0.6-4.7-1-7.3-1
		l14.2-9.7c0.5,0.4,0.9,0.8,1.2,1.3C164.5,19.8,165,21.3,165,23z"/>
	<path class="st1" d="M61.9,62.4c0.2,0.9,0.4,1.9,0.4,2.9c0,2.6-1.5,4.9-4.4,6.7c-2.9,1.8-7.4,2.7-13.3,2.7c-0.3,0-0.5,0-0.8,0
		L61.9,62.4z"/>
	<path class="st1" d="M80.6,59.4c1.9,0.8,3.9,1.2,6.1,1.4l-14.1,9.6c-0.9-0.6-1.6-1.3-2.2-2.1c-1-1.4-1.6-3-1.6-4.8
		c0-1.9,0.5-3.4,1.6-4.8c1.1-1.3,2.3-2.3,3.6-3C75.8,57.1,78,58.4,80.6,59.4z"/>
	<path class="st1" d="M110.2,44.1c0.2,0.1,0.3,0.3,0.4,0.4l-13.7,9.3c-0.2-0.3-0.5-0.5-0.8-0.7c-1-0.7-2.5-1.3-4.3-2l-4-1.4
		c-1.7-0.6-3.3-1.1-4.8-1.7l15.6-10.6C103.5,39.4,107.4,41.5,110.2,44.1z"/>
	<path class="st1" d="M155.5,14.1l-33,22.4c-0.5-1.6-0.7-3.4-0.7-5.4c0-5.5,2.1-9.8,6.3-13.1c4.2-3.3,10.1-4.9,17.6-4.9
		c2.8,0,5.3,0.2,7.7,0.6C154.1,13.8,154.8,14,155.5,14.1z"/>
	<polyline class="st2" points="112.7,47.2 97.3,57.7 97.3,57.7 93,60.6 93,60.6 75.9,72.2 75.9,72.2 	"/>
	<line class="st2" x1="159.5" y1="15.5" x2="123.9" y2="39.6"/>
	<line class="st2" x1="156.8" y1="39.8" x2="141.6" y2="50.1"/>
	<line class="st2" x1="130.2" y1="57.8" x2="121.8" y2="63.6"/>
	<path class="st1" d="M54.8,59.7L34.4,73.5c-0.6-0.2-1.3-0.3-1.9-0.5c-3.8-1.2-7.1-3.1-9.9-5.6c-0.2-0.2-0.4-0.4-0.6-0.6l13.8-9.4
		c2.8,2.6,6.5,3.9,11.1,3.9c2.6,0,4.9-0.4,6.7-1.1C54,60,54.4,59.8,54.8,59.7z"/>
	<path class="st1" d="M111.8,21l-9.9,6.7c-2.2-0.6-4.6-0.9-7.2-0.9c-2.9,0-5,0.4-6.3,1.2c-1.3,0.8-2,1.8-2,3c0,1,0.4,1.8,1.2,2.4
		c0.8,0.6,2,1.1,3.5,1.6L76.4,45c-0.8-0.5-1.6-1.1-2.3-1.7c-1.7-1.4-3-3.1-3.9-5c-0.5-1.1-0.9-2.2-1.1-3.6l31-21c0.1,0,0.2,0,0.3,0
		c2.4,0.4,4.4,1,6.1,1.8c1.7,0.8,3,1.8,4,3.1C111.1,19.3,111.5,20.1,111.8,21z"/>
	<path class="st1" d="M30.8,43.8c0,3.2,0.5,5.9,1.4,8.3L18,61.7c-0.8-1.2-1.4-2.6-2-4c-1-2.5-1.8-5.3-2.1-8.4l17.7-12
		C31,39.3,30.8,41.4,30.8,43.8z"/>
	<path class="st1" d="M60,18c1.4,1.5,2.1,3.2,2.1,5.2c0,1.7-0.4,3.1-1.2,4.3c-0.8,1.2-1.8,2.2-2.9,2.9c-1.7-1.1-3.4-2-5.3-2.8
		c-1.5-0.6-3.3-1-5.2-1.1L60,18z"/>
	<path class="st1" d="M89.4,13.3L69.3,26.9c0.8-3.5,2.8-6.5,5.8-8.8C78.7,15.3,83.4,13.7,89.4,13.3z"/>
	<line class="st2" x1="33.8" y1="55" x2="19.9" y2="64.5"/>
	<polyline class="st2" points="68.8,31.3 95.4,13.2 95.7,13 	"/>
	<path class="st1" d="M53.6,14.2L13.5,41.4c0.2-4,1-7.6,2.3-10.8c1.6-3.8,3.7-7,6.4-9.7c2.7-2.6,5.9-4.6,9.6-6c3.6-1.4,7.6-2,11.7-2
		C47.5,13,50.8,13.4,53.6,14.2z"/>
	<polyline class="st2" points="57.2,15.8 40.2,27.4 34.5,31.2 13.5,45.5 	"/>
	<line class="st2" x1="60.5" y1="59.5" x2="38.5" y2="74.3"/>
	<polyline class="st2" points="105.4,28.9 111.9,24.6 111.9,24.6 	"/>
	<polyline class="st2" points="94.6,36.3 79.4,46.6 79.4,46.6 	"/>
	<path class="st3" d="M315,73.3l1.9-1.3v0.9C316.5,73.1,315.9,73.2,315,73.3z"/>
	<path class="st1" d="M346.5,52v15.2l-9.6,6.5c-0.5,0-1-0.1-1.5-0.2c-1.1-0.2-2.1-0.6-2.8-1.2c-0.8-0.6-1.4-1.4-1.8-2.4
		c-0.4-1-0.6-2.3-0.6-3.9v-3.1L346.5,52z"/>
	<path class="st3" d="M280.5,73.9l10-6.8c-0.5,2-1.7,3.6-3.9,4.7C284.8,72.8,282.8,73.5,280.5,73.9z"/>
	<path class="st1" d="M300.6,60.2l16.4-11.1v15.2L304.1,73c-0.4-0.2-0.8-0.4-1.1-0.7c-0.8-0.6-1.4-1.4-1.8-2.4
		c-0.4-1-0.6-2.3-0.6-3.9V60.2z"/>
	<path class="st1" d="M346.5,42.9v1.4l-16.3,11.1V43.4c0-1.1-0.2-2.1-0.6-2.9l13.1-8.9C345.3,34.6,346.5,38.3,346.5,42.9z"/>
	<line class="st2" x1="346.5" y1="48.3" x2="330.2" y2="59.4"/>
	<line class="st2" x1="316.9" y1="68.4" x2="309" y2="73.8"/>
	<line class="st2" x1="346.5" y1="70.8" x2="342.4" y2="73.7"/>
	<path class="st1" d="M288.9,60.6l-20.3,13.8c-2.3-0.2-4.5-0.7-6.5-1.4c-2.9-0.9-5.5-2.3-7.7-4.1l12-8.1c0,0,0.1,0,0.1,0.1
		c2.2,1,4.7,1.6,7.5,1.6c2.6,0,5.1-0.3,7.5-1c2.3-0.7,4.2-1.5,5.7-2.3C287.7,59.4,288.3,60,288.9,60.6z"/>
	<path class="st1" d="M292.6,42.9c0.1,0.8,0.1,1.6,0.1,2.4c0,2.2-0.6,3.8-1.8,5c-1.2,1.2-2.9,1.9-5.1,2.2l-9.5,1.4L292.6,42.9z"/>
	<path class="st1" d="M337.5,27.6l-15,10.1l-5.6,3.8l-16.4,11.1V37.4l18-12.2c1.7-0.2,3.5-0.3,5.3-0.3
		C329.4,24.9,333.9,25.8,337.5,27.6z"/>
	<path class="st1" d="M240.5,62.2c0.4,1.2,0.6,2.5,0.6,3.8c0,2.2-0.4,3.8-1.3,4.9v0l-2.6,1.7c-0.7,0.2-1.4,0.3-2.2,0.3h-20.7
		l20.3-13.7h4.7C239.7,60,240.1,61,240.5,62.2z"/>
	<path class="st1" d="M290.7,36.4l-40.8,27.7c-0.8-1.2-1.5-2.5-2.1-3.8c-1.1-2.5-1.8-5.4-2-8.6v0l16.6-11.2
		c-0.4,0.6-0.7,1.2-0.9,1.8c-0.4,1-0.6,2-0.6,3l16.4-2.7c-0.2-1.3-0.9-2.6-2.1-3.8c-1.2-1.3-3-1.9-5.4-1.9c-0.9,0-1.7,0.1-2.5,0.3
		l14.2-9.6c1.8,0.9,3.4,1.9,4.8,3.2C288.2,32.3,289.6,34.2,290.7,36.4z"/>
	<line class="st4" x1="291.9" y1="39.6" x2="269.4" y2="54.9"/>
	<polyline class="st2" points="310.2,27.2 310.2,27.2 301.8,33 	"/>
	<line class="st2" x1="263.7" y1="58.8" x2="252" y2="66.7"/>
	<path class="st1" d="M233.2,36.9l-18.5,22.4h8L202.4,73h-5.2c-1.1-0.9-2-2.1-2.7-3.7c-0.7-1.5-1.1-3.3-1.1-5.3c0-0.1,0-0.1,0-0.2
		L233.2,36.9z"/>
	<path class="st1" d="M273.1,25.1l-26.8,18.2c0.3-1.9,0.9-3.6,1.6-5.1c1.4-3.1,3.2-5.5,5.4-7.5c2.2-2,4.8-3.4,7.7-4.3
		c2.9-0.9,5.8-1.4,8.8-1.4C271,24.9,272,24.9,273.1,25.1z"/>
	<line class="st2" x1="228.6" y1="59.3" x2="208.4" y2="73"/>
	<line class="st2" x1="277.7" y1="26" x2="245.8" y2="47.6"/>
	<line class="st2" x1="340.3" y1="29.3" x2="327.2" y2="38.2"/>
	<line class="st2" x1="316.9" y1="45.2" x2="300.6" y2="56.3"/>
	<line class="st2" x1="290.4" y1="63.2" x2="273.7" y2="74.5"/>
</g>
<g>
	<path class="st0" d="M68.9,110.9c-0.2-0.6-0.6-1.1-1-1.6c-1.1-1.1-2.5-1.6-4.5-1.6H47.1c-0.5,0-1,0-1.5,0.2h0
		c-1,0.2-1.9,0.7-2.6,1.4c-0.2,0.2-0.5,0.5-0.7,0.9c-0.6,1-0.9,2.4-0.9,4.1c0,1.3,0.2,2.5,0.5,3.7c0.4,1.1,0.7,2.1,1.1,2.8h10.3v9
		c-0.5,0.3-1.2,0.5-2.1,0.8h0c-0.1,0-0.3,0.1-0.4,0.1c-1.1,0.3-2.3,0.4-3.8,0.4c-0.6,0-1.2,0-1.8-0.1c-1.5-0.1-3-0.4-4.3-0.9
		c-0.1,0-0.1,0-0.2-0.1c-1.9-0.7-3.5-1.7-4.9-3c-1.5-1.4-2.6-3.1-3.5-5.3c-0.1-0.3-0.2-0.6-0.3-1c-0.3-1-0.5-2-0.7-3
		c-0.2-1.1-0.2-2.2-0.2-3.5V114c0-5.5,1.6-9.7,4.7-12.8c3.2-3.1,7.5-4.6,12.8-4.6c2.5,0,4.8,0.3,6.9,1c0.4,0.1,0.8,0.3,1.2,0.4
		c0.8,0.3,1.5,0.6,2.2,0.9c1.1,0.5,2.1,1,3,1.5c0.3,0.2,0.5,0.3,0.8,0.5c1.1-0.7,2-1.7,2.9-2.9c0-0.1,0.1-0.1,0.1-0.2
		c0.8-1.2,1.1-2.6,1.1-4.2v-0.1c0-1.1-0.3-2.2-0.8-3.1c-0.8-1.7-2.4-3.1-4.6-4.4c-2.1-1.2-4.7-2-7.7-2.5h0c-1.5-0.2-3.1-0.4-4.8-0.4
		c-0.6,0-1.3,0-2,0c-1.4,0-2.9,0.1-4.3,0.2c-2.7,0.3-5.4,0.9-8.1,1.7c-4,1.3-7.6,3.2-10.7,5.8c-3.1,2.6-5.6,5.9-7.5,9.8
		c-0.1,0.2-0.2,0.5-0.3,0.8c-0.7,1.6-1.3,3.3-1.7,5.2c-0.3,1.3-0.5,2.7-0.6,4.1v0c-0.1,1.2-0.2,2.4-0.2,3.7c0,3.9,0.5,7.4,1.6,10.5
		v0c0.3,0.9,0.6,1.8,1,2.6c0,0.1,0.1,0.2,0.1,0.2c0.4,0.9,0.9,1.8,1.4,2.6c1.5,2.5,3.4,4.8,5.6,6.6c1.1,0.9,2.2,1.7,3.4,2.5
		c1.1,0.7,2.2,1.2,3.4,1.8c1.1,0.5,2.2,1,3.4,1.3c0.1,0,0.2,0.1,0.3,0.1c4,1.2,8.4,1.9,13,1.9c1.7,0,3.5-0.1,5.2-0.3
		c0.6-0.1,1.2-0.1,1.7-0.2c1.1-0.2,2.2-0.4,3.3-0.6c1.6-0.4,3.1-0.8,4.4-1.2c0.2-0.1,0.5-0.2,0.7-0.3l0,0c1-0.4,1.9-0.8,2.6-1.2
		c1.5-0.9,2.7-1.8,3.4-2.8c0,0,0,0,0-0.1l0,0c0.7-1,1-2.4,1-4.3v-19.6C69.4,112.7,69.3,111.7,68.9,110.9z"/>
	<path class="st0" d="M120.9,105.8c-0.2-0.4-0.3-0.9-0.5-1.3c-0.2-0.5-0.5-1-0.8-1.5c-0.5-0.8-1.2-1.6-1.9-2.4
		c-0.6-0.6-1.2-1.2-1.9-1.7c-2-1.4-4.5-2.5-7.3-3.2c-1.5-0.4-3.1-0.6-4.8-0.8h0c-1.5-0.2-3.1-0.2-4.7-0.2c-0.1,0-0.2,0-0.3,0h0
		c-2.1,0-4.3,0.2-6.6,0.5c-0.1,0-0.1,0-0.2,0c-2.5,0.3-4.7,0.8-6.6,1.5c-1.7,0.7-2.9,1.6-3.7,2.5c-0.8,1-1.2,2.2-1.2,3.8
		c0,0.1,0,0.1,0,0.2c0,1.2,0.2,2.3,0.7,3.4l0.1,0.3c0.4,0.9,1,1.6,1.6,2.2c0.2,0.2,0.4,0.3,0.6,0.5c1.9-0.8,3.9-1.4,6.2-1.9
		s4.7-0.8,7.1-0.8c3.1,0,5.4,0.4,7.1,1.2c0.6,0.3,1,0.6,1.4,1c0.7,0.8,1,1.7,1,2.9c0,0,0,0,0,0v0.7L105,113l-6.4,0.7l-5,0.5
		c-5.5,0.6-9.6,2-12.2,4.4c-2.5,2.2-3.8,5.4-3.9,9.4c0,0.3,0,0.5,0,0.8c0,1,0.1,1.8,0.2,2.7c0.2,1.1,0.5,2.1,0.8,3.1
		c0.2,0.4,0.3,0.8,0.5,1.1c1.1,2,2.6,3.6,4.5,4.9c1.5,1,3.1,1.7,5,2.3h0c0.6,0.2,1.3,0.4,2,0.5c0.8,0.2,1.6,0.3,2.5,0.5
		c1.7,0.3,3.4,0.4,5.3,0.5c0.5,0,0.9,0,1.4,0c7.6,0,13.4-1.2,17.6-3.8c1.3-0.8,2.4-1.7,3.3-2.7c0.9-1,1.4-2.4,1.4-4.1v-21.5
		C122,109.9,121.7,107.7,120.9,105.8z M106.3,131.3c-0.3,0.2-0.8,0.4-1.3,0.5h0c-0.5,0.1-1,0.3-1.6,0.4c-1.3,0.2-2.5,0.3-3.6,0.3
		c-2.4,0-4.1-0.4-5.1-1.2c-1-0.8-1.5-1.8-1.5-3.1c0-1.3,0.6-2.3,1.7-2.9c1.2-0.6,2.6-1,4.4-1.1l6.9-0.6V131.3z"/>
	<path class="st0" d="M164.4,99.7c-0.4-1.2-1-2.1-1.9-2.8c-0.1-0.1-0.2-0.2-0.3-0.2c-0.9-0.6-2-1.1-3.3-1.4c-1.2-0.3-2.5-0.4-4-0.4
		c-1.9,0-3.7,0.1-5.6,0.4c-1.9,0.3-3.7,0.7-5.4,1.2c-1.7,0.5-3.4,1.1-4.9,1.8c-1.5,0.7-2.8,1.4-3.8,2.3c-1,0.8-1.8,1.8-2.3,2.8
		c-0.5,1-0.8,2.3-0.8,3.8V136c0,0.3,0,0.5,0,0.8c0.1,1.2,0.3,2.3,0.6,3.1c0.1,0.1,0.1,0.3,0.2,0.4c0.4,0.8,0.9,1.5,1.6,2
		c0.2,0.1,0.3,0.2,0.5,0.3h0c0.7,0.4,1.5,0.7,2.4,0.8c1.1,0.2,2.4,0.3,3.8,0.3c1.5,0,2.9-0.1,4.3-0.3c1.4-0.2,2.4-0.4,3-0.6v-32.8
		c0.5-0.2,1-0.4,1.5-0.6h0c0.5-0.2,1-0.3,1.5-0.4c1.2-0.3,2.5-0.6,3.8-0.8c1.3-0.2,2.7-0.5,4.1-0.6c1.4-0.1,2.8-0.2,4.1-0.2
		c0.4-0.7,0.7-1.5,1-2.4c0.3-0.9,0.4-1.8,0.4-2.6C164.8,101.4,164.7,100.5,164.4,99.7z"/>
	<path class="st0" d="M215.6,84.2c-0.1-0.3-0.2-0.7-0.3-1c-0.3-0.8-0.8-1.5-1.3-2c-0.1-0.1-0.3-0.3-0.4-0.4c-0.8-0.6-1.7-1-2.8-1.2
		s-2.4-0.3-3.8-0.3c-1.5,0-2.9,0.1-4.3,0.3c-1.4,0.2-2.4,0.4-3.1,0.6v15.6c-0.2-0.1-0.5-0.2-0.8-0.3h0c-0.6-0.2-1.3-0.4-2.1-0.5
		c-0.9-0.2-1.7-0.3-2.6-0.3c-0.4,0-0.8,0-1.1,0c-3.5,0-6.8,0.5-9.9,1.5c-3,1-5.7,2.5-8,4.6c-2.3,2-4,4.6-5.3,7.7
		c-0.4,1.1-0.8,2.2-1.1,3.5c-0.3,1.4-0.6,2.9-0.7,4.5v0c-0.1,1-0.1,2-0.1,3c0,0.2,0,0.5,0,0.7c0.1,3.6,0.7,6.8,1.8,9.6
		c0.5,1.2,1,2.3,1.6,3.3c0.5,0.9,1.1,1.7,1.7,2.5c0.6,0.7,1.2,1.4,1.9,2c0.1,0.1,0.3,0.3,0.4,0.4c2.2,2,4.9,3.5,8,4.6
		c1.8,0.6,3.6,1.1,5.6,1.3c1.7,0.2,3.5,0.4,5.4,0.4h0.1c2.1,0,4-0.1,5.9-0.4h0c1.5-0.2,3-0.5,4.3-1c3-0.9,5.3-2,7.2-3.2
		c2.6-1.6,4-3.8,4.2-6.5v0c0-0.2,0-0.5,0-0.7V87.1C215.8,86,215.7,85,215.6,84.2z M199.6,129.9c-0.5,0.5-1.2,0.9-2.2,1.2
		c-0.9,0.4-2,0.5-3.1,0.5c-2.7,0-4.9-0.7-6.5-2.1c-0.3-0.3-0.7-0.6-1-0.9c-0.4-0.5-0.8-1-1.1-1.6c-0.5-0.9-0.8-1.8-1-2.9
		c-0.3-1.3-0.4-2.8-0.4-4.4c0-4,0.9-7,2.8-9c1.9-2,4.5-3,8-3c1.8,0,3.3,0.4,4.6,1.2V129.9z"/>
	<path class="st0" d="M270.9,114.8c0-1.2-0.1-2.3-0.3-3.4c-0.3-1.5-0.7-3-1.4-4.4c-1.1-2.5-2.7-4.6-4.7-6.4c-0.1,0-0.1-0.1-0.1-0.1
		c-0.8-0.7-1.7-1.3-2.6-1.9c-1-0.7-2.2-1.2-3.4-1.8c-0.4-0.2-0.7-0.3-1.1-0.4c-2.8-1-5.9-1.5-9.3-1.5c-3,0-6,0.5-8.8,1.4
		c-2.9,0.9-5.4,2.4-7.7,4.3c-2.2,2-4,4.5-5.4,7.5c-1.4,3-2.1,6.7-2.1,10.9c0,0.4,0,0.8,0,1.2c0,1.3,0.1,2.6,0.3,3.8
		c0.2,1.1,0.4,2.2,0.7,3.2c0.3,1.1,0.6,2.1,1,3c1.3,3.1,3.1,5.7,5.4,7.8c0.1,0.1,0.1,0.1,0.2,0.2c0.7,0.6,1.5,1.2,2.3,1.7
		c0.9,0.6,1.8,1.2,2.8,1.6c1.1,0.5,2.2,1,3.4,1.4c3.2,1,6.8,1.6,10.5,1.6c1.4,0,2.9-0.1,4.4-0.2c0.9-0.1,1.8-0.2,2.8-0.3
		c2.6-0.4,4.9-1.1,6.9-2.2c0.1,0,0.1-0.1,0.2-0.1h0c0.5-0.3,0.9-0.6,1.3-0.9l0.1-0.1c1.6-1.3,2.4-3.1,2.4-5.4c0-0.1,0-0.2,0-0.3
		c0-1.2-0.4-2.3-1-3.3c-0.7-1.1-1.6-2-2.6-2.7c-1.5,0.9-3.4,1.7-5.7,2.4c-2.3,0.7-4.8,1-7.5,1c-0.5,0-1,0-1.6-0.1
		c-1.5-0.1-2.8-0.4-4.1-0.8c-0.7-0.2-1.3-0.5-1.9-0.7c-0.5-0.2-0.9-0.5-1.3-0.8c-1.5-1-2.5-2.3-3-4l11.5-1.7h0l6.9-1h0l5.4-0.8
		c0.5-0.1,1-0.2,1.5-0.3c1.5-0.4,2.7-1,3.6-1.9c0.4-0.3,0.7-0.7,0.9-1.2v0c0.6-1,0.9-2.3,0.9-3.8C270.9,115.1,270.9,115,270.9,114.8
		z M243.8,114.4l-4.7,0.8c0-0.5,0.1-0.9,0.2-1.3v0c0.1-0.6,0.3-1.1,0.4-1.7c0.4-1,0.9-1.9,1.6-2.7c0.7-0.8,1.6-1.5,2.7-2
		c1.1-0.5,2.5-0.8,4-0.8c0.5,0,1.1,0,1.5,0.1c1.4,0.2,2.5,0.6,3.4,1.4h0c0.2,0.1,0.3,0.3,0.5,0.4c1.2,1.3,1.9,2.6,2.1,3.8
		L243.8,114.4z"/>
	<path class="st0" d="M323.5,105.6c-0.4-1-0.9-1.8-1.4-2.7c-0.6-0.9-1.3-1.8-2.2-2.6c-0.3-0.3-0.6-0.6-1-0.8
		c-3.3-2.7-7.8-4.2-13.4-4.6c-1.1-0.1-2.2-0.1-3.3-0.1c-0.6,0-1.2,0-1.7,0c-2.3,0.1-4.4,0.3-6.4,0.7c-1,0.2-1.9,0.4-2.8,0.7
		c-3.3,1-6,2.2-8.2,3.7c-1.3,0.9-2.3,1.9-3,3c-0.5,0.8-0.9,1.7-1,2.8c-0.1,0.4-0.1,0.9-0.1,1.4V136c0,1.6,0.2,2.9,0.6,3.9
		c0.4,1,1,1.8,1.8,2.4c0.8,0.6,1.7,1,2.8,1.1c1.1,0.2,2.4,0.3,3.8,0.3c0.7,0,1.3,0,2-0.1c0.8,0,1.5-0.1,2.3-0.2
		c1.4-0.2,2.4-0.4,3-0.6v-33.4c0.9-0.6,2-1.1,3.2-1.4s2.5-0.5,3.8-0.5c1.9,0,3.4,0.5,4.6,1.4c0.1,0,0.1,0.1,0.2,0.2
		c0.8,0.7,1.3,1.8,1.4,3.1c0.1,0.3,0.1,0.7,0.1,1.1V136c0,0.8,0.1,1.6,0.2,2.2c0.1,0.6,0.2,1.2,0.5,1.7c0.4,1,1,1.8,1.8,2.4
		c0.8,0.6,1.7,1,2.8,1.1c1.1,0.2,2.4,0.3,3.8,0.3c1.5,0,2.9-0.1,4.3-0.3c0.9-0.1,1.6-0.2,2.2-0.4c0.3-0.1,0.6-0.1,0.9-0.2v-30.1
		C324.8,110.1,324.3,107.7,323.5,105.6z"/>
	<path class="st1" d="M53.4,129.1l16-10.9v15.2L53.9,144c-0.6,0.1-1.1,0.2-1.7,0.2c-1.8,0.2-3.5,0.3-5.2,0.3c-4.6,0-8.9-0.6-13-1.9
		c-0.1,0-0.2-0.1-0.3-0.1l17.7-12h0L53.4,129.1z"/>
	<path class="st1" d="M93.6,114.2l5-0.5L77.4,128c0.1-4,1.5-7.2,3.9-9.4C84,116.3,88.1,114.8,93.6,114.2z"/>
	<path class="st1" d="M115.7,99.1c0.7,0.5,1.4,1.1,1.9,1.7l-12.5,8.5c-0.4-0.4-0.8-0.8-1.4-1c-1.6-0.8-4-1.2-7.1-1.2
		c-2.4,0-4.8,0.3-7.1,0.8s-4.4,1.1-6.2,1.9c-0.2-0.1-0.4-0.3-0.6-0.5L103.6,95h0c1.7,0.2,3.3,0.5,4.8,0.8
		C111.3,96.6,113.7,97.6,115.7,99.1z"/>
	<path class="st3" d="M62.8,100.8c-0.3-0.2-0.5-0.3-0.8-0.5l3.8-2.6c0,0.1-0.1,0.1-0.1,0.2C64.9,99.2,63.9,100.1,62.8,100.8z"/>
	<path class="st1" d="M35.9,126.9c1.4,1.3,3.1,2.3,4.9,3l-14,9.5c-1.2-0.7-2.3-1.6-3.4-2.5c-2.2-1.9-4-4.1-5.6-6.6l14.2-9.6
		c0.1,0.3,0.2,0.6,0.3,1C33.2,123.8,34.4,125.6,35.9,126.9z"/>
	<path class="st1" d="M53.4,121.4v-0.7H43.1c-0.4-0.7-0.8-1.6-1.1-2.8c-0.4-1.2-0.5-2.4-0.5-3.7l9.6-6.5h12.3c1.9,0,3.4,0.5,4.5,1.6
		c0.4,0.4,0.8,1,1,1.6L53.4,121.4z"/>
	<path class="st1" d="M91.8,95.3c0.1,0,0.1,0,0.2,0l-11.7,7.9c0-1.6,0.4-2.9,1.2-3.8c0.8-1,2-1.8,3.7-2.5
		C87.1,96.1,89.3,95.6,91.8,95.3z"/>
	<polyline class="st2" points="81,106.7 98.6,94.8 98.6,94.8 	"/>
	<line class="st2" x1="45.3" y1="130.9" x2="30.2" y2="141.2"/>
	<line class="st2" x1="69.4" y1="114.6" x2="53.4" y2="125.5"/>
	<polyline class="st2" points="77.6,131.5 105,113 106.2,112.2 119.6,103.1 	"/>
	<polyline class="st2" points="68.4,137.8 68.4,137.8 62.4,141.8 62.4,141.9 	"/>
	<path class="st1" d="M66.2,90.4l-10.6,7.2c-2.1-0.6-4.4-1-6.9-1c-5.4,0-9.7,1.5-12.8,4.6c-3.2,3.1-4.7,7.3-4.7,12.8v0.2l-15.7,10.7
		c-1-3.1-1.6-6.7-1.6-10.5c0-1.3,0.1-2.5,0.2-3.7v0l39.9-27.1h0c3,0.5,5.6,1.3,7.7,2.5C63.8,87.2,65.4,88.7,66.2,90.4z"/>
	<path class="st1" d="M34.8,85c2.6-0.8,5.3-1.4,8.1-1.7l-26.6,18c0.1-0.3,0.2-0.5,0.3-0.8c1.9-3.9,4.4-7.2,7.5-9.8
		C27.2,88.2,30.8,86.3,34.8,85z"/>
	<line class="st2" x1="49.1" y1="83.1" x2="14.6" y2="106.5"/>
	<polyline class="st2" points="42.4,110.2 45.7,107.9 45.7,107.9 	"/>
	<line class="st2" x1="66.9" y1="93.5" x2="59" y2="98.9"/>
	<line class="st2" x1="31.3" y1="117.7" x2="16.5" y2="127.7"/>
	<path class="st1" d="M278.8,135.9l16.3-11.1V140l-5.3,3.6c-0.7,0-1.3,0.1-2,0.1c-1.4,0-2.7-0.1-3.8-0.3c-1.1-0.2-2.1-0.6-2.8-1.1
		c-0.8-0.6-1.4-1.4-1.8-2.4C279,138.9,278.8,137.6,278.8,135.9L278.8,135.9z"/>
	<path class="st1" d="M324.8,112.8v7.2L308.4,131v-15.2l15-10.2C324.3,107.7,324.8,110.1,324.8,112.8z"/>
	<path class="st1" d="M324.8,127.3v15.2l-0.9,0.6c-0.6,0.1-1.3,0.2-2.2,0.4c-1.4,0.2-2.8,0.3-4.3,0.3c-1.4,0-2.7-0.1-3.8-0.3
		c-1.1-0.2-2.1-0.6-2.8-1.1c-0.8-0.6-1.4-1.4-1.8-2.4c-0.2-0.5-0.4-1-0.5-1.7L324.8,127.3z"/>
	<path class="st1" d="M267.9,131.6c0.6,1.1,1,2.2,1,3.3l-13.7,9.3c-1.5,0.2-3,0.2-4.4,0.2c-3.8,0-7.3-0.5-10.5-1.6
		c-1.2-0.4-2.3-0.9-3.4-1.4l13.7-9.3c0.5,0,1,0.1,1.6,0.1c2.6,0,5.1-0.3,7.5-1c2.3-0.7,4.2-1.5,5.7-2.4
		C266.3,129.6,267.1,130.5,267.9,131.6z"/>
	<path class="st3" d="M265.5,122.1l4.6-3.1c-0.3,0.4-0.6,0.8-0.9,1.2C268.2,121,266.9,121.7,265.5,122.1z"/>
	<path class="st1" d="M319.8,100.4l-12.9,8.8c-0.1-0.1-0.1-0.1-0.2-0.2c-1.1-0.9-2.6-1.4-4.6-1.4c-1.3,0-2.5,0.2-3.8,0.5
		s-2.3,0.8-3.2,1.4v7.6l-16.3,11.1V113l26.7-18.1c5.6,0.4,10.1,2,13.4,4.6C319.2,99.8,319.5,100.1,319.8,100.4z"/>
	<line class="st2" x1="322" y1="102.9" x2="308.3" y2="112.2"/>
	<line class="st2" x1="295.1" y1="121.2" x2="278.8" y2="132.3"/>
	<polyline class="st2" points="266.5,140.6 266.4,140.7 265.1,141.6 265.1,141.6 	"/>
	<line class="st2" x1="324.8" y1="123.6" x2="308.4" y2="134.7"/>
	<path class="st3" d="M200.1,144.1l15.7-10.7c-0.2,2.7-1.6,4.8-4.2,6.5c-1.9,1.2-4.3,2.3-7.2,3.2
		C203.1,143.5,201.6,143.8,200.1,144.1z"/>
	<path class="st1" d="M269.2,107c0.6,1.4,1.1,2.9,1.4,4.4l-18.9,12.8h0l-11.5,1.7c0.6,1.7,1.6,3,3,4l-11.8,8
		c-2.3-2.1-4.1-4.7-5.4-7.8c-0.4-1-0.8-2-1-3l18.8-12.7l11.7-1.9c-0.2-1.3-0.9-2.6-2.1-3.8c-0.1-0.2-0.3-0.3-0.5-0.4l11.4-7.8
		c0,0,0.1,0.1,0.1,0.1C266.5,102.4,268.1,104.5,269.2,107z"/>
	<path class="st1" d="M291.2,96.2c0.9-0.3,1.9-0.5,2.8-0.7l-15.1,10.2c0.1-1.1,0.5-2.1,1-2.8c0.7-1.1,1.8-2.1,3-3
		C285.1,98.4,287.9,97.2,291.2,96.2z"/>
	<path class="st1" d="M215.8,110.5v15.2l-27.2,18.4c-2-0.3-3.9-0.7-5.6-1.3c-3.1-1.1-5.8-2.6-8-4.6l12.7-8.6
		c1.7,1.4,3.8,2.1,6.5,2.1c1.2,0,2.2-0.2,3.1-0.5c0.9-0.3,1.7-0.8,2.2-1.2v-8.4L215.8,110.5z"/>
	<path class="st1" d="M257.3,96.3c0.4,0.1,0.8,0.3,1.1,0.4L224,120.1c0-0.4,0-0.8,0-1.2c0-4.2,0.7-7.9,2.1-10.9
		c1.4-3,3.2-5.5,5.4-7.5c2.2-2,4.8-3.4,7.7-4.3c2.9-0.9,5.8-1.4,8.8-1.4C251.4,94.8,254.5,95.3,257.3,96.3z"/>
	<polyline class="st2" points="224.4,123.9 239.3,113.8 239.3,113.8 	"/>
	<line class="st2" x1="261.8" y1="98.5" x2="249.6" y2="106.8"/>
	<line class="st2" x1="215.8" y1="129.7" x2="194.1" y2="144.5"/>
	<line class="st2" x1="246.5" y1="131.4" x2="234" y2="139.9"/>
	<line class="st2" x1="300.4" y1="94.8" x2="278.8" y2="109.5"/>
	<polyline class="st2" points="270.9,114.8 258.6,123.2 258.6,123.2 	"/>
	<path class="st1" d="M134.9,142.6l13.5-9.1v9.4c-0.6,0.2-1.6,0.4-3,0.6c-1.4,0.2-2.8,0.3-4.3,0.3c-1.4,0-2.7-0.1-3.8-0.3
		C136.4,143.3,135.6,143,134.9,142.6z"/>
	<path class="st1" d="M215.8,87.6v15.2l-16.2,11v-5.1c-1.3-0.8-2.8-1.2-4.6-1.2c-3.5,0-6.1,1-8,3c-1.8,2-2.8,5-2.8,9
		c0,1.6,0.1,3.1,0.4,4.4l-13.6,9.2c-0.6-1-1.2-2.1-1.6-3.3c-1.1-2.8-1.7-6-1.8-9.6L215.8,87.6z"/>
	<path class="st1" d="M98.3,144.5l23.7-16.1v5.5c0,1.7-0.5,3-1.4,4.1c-0.9,1.1-2,2-3.3,2.7c-4.2,2.5-10,3.8-17.6,3.8
		C99.2,144.5,98.8,144.5,98.3,144.5z"/>
	<path class="st1" d="M132,121.6l16.3-11.1v15.2L132,136.8c0-0.2,0-0.5,0-0.8V121.6z"/>
	<path class="st1" d="M164.4,99.7c0.3,0.8,0.4,1.8,0.4,2.8c0,0.9-0.1,1.8-0.4,2.6c-0.2,0.9-0.6,1.7-1,2.4c-1.3,0-2.7,0.1-4.1,0.2
		c-1.4,0.1-2.8,0.3-4.1,0.6c-1.3,0.3-2.6,0.5-3.8,0.8c-0.5,0.1-1,0.3-1.5,0.4L164.4,99.7z"/>
	<path class="st1" d="M192.8,94.8c0.4,0,0.8,0,1.1,0l-25.4,17.2c0.3-1.2,0.7-2.4,1.1-3.5c1.3-3.1,3.1-5.7,5.3-7.7
		c2.3-2.1,4.9-3.6,8-4.6C186,95.3,189.2,94.8,192.8,94.8z"/>
	<path class="st1" d="M213.5,80.8c0.1,0.1,0.3,0.2,0.4,0.4L199.5,91V80.4c0.6-0.2,1.7-0.4,3.1-0.6c1.4-0.2,2.8-0.3,4.3-0.3
		c1.4,0,2.7,0.1,3.8,0.3S212.8,80.3,213.5,80.8z"/>
	<polyline class="st2" points="167.8,116.6 167.8,116.6 198.6,95.6 198.7,95.6 199.5,95.1 215.6,84.2 	"/>
	<line class="st2" x1="148.4" y1="129.8" x2="132.8" y2="140.3"/>
	<path class="st1" d="M122,112.4v7.9L106.3,131v-7.3l-6.9,0.6c-1.8,0.1-3.3,0.5-4.4,1.1c-1.2,0.6-1.7,1.6-1.7,2.9
		c0,1.3,0.5,2.3,1.5,3.1c1,0.8,2.7,1.2,5.1,1.2c1.1,0,2.3-0.1,3.6-0.3c0.6-0.1,1.1-0.2,1.6-0.4L88.6,143h0c-1.9-0.6-3.6-1.4-5-2.3
		c-2-1.3-3.5-2.9-4.5-4.9c-0.2-0.4-0.4-0.7-0.5-1.1l42.5-28.8C121.7,107.7,122,109.9,122,112.4z"/>
	<path class="st1" d="M154.8,94.9c1.5,0,2.8,0.1,4,0.4L132,113.5v-6.3c0-1.5,0.3-2.7,0.8-3.8c0.5-1.1,1.3-2,2.3-2.8
		c1-0.8,2.3-1.6,3.8-2.3c1.5-0.7,3.1-1.3,4.9-1.8c1.7-0.5,3.5-0.9,5.4-1.2C151.1,95,152.9,94.9,154.8,94.9z"/>
	<line class="st2" x1="122" y1="124.3" x2="93" y2="144"/>
	<line class="st2" x1="162.4" y1="96.9" x2="132" y2="117.5"/>
	<line class="st2" x1="215.8" y1="106.5" x2="199.6" y2="117.5"/>
	<line class="st2" x1="185.7" y1="126.9" x2="172.8" y2="135.7"/>
</g>
<g>
	<path class="st5" d="M348.6,130l-1.1-1c-10.4-9.9-10.8-26.4-0.9-36.8l6.3-6.6c9.9-10.4,26.4-10.8,36.8-0.9l1.1,1
		c10.4,9.9,10.8,26.4,0.9,36.8l-6.3,6.6C375.4,139.5,358.9,139.9,348.6,130z"/>
	<path class="st6" d="M391.9,122.4l-6.3,6.6c-6.4,6.7-15.5,9.2-23.9,7.6c7.1-0.2,14-3.1,19.3-8.6l6.8-7.1c9.8-10.3,10.2-26,1.5-36.8
		c0.2,0.2,0.4,0.4,0.6,0.6l1.1,1C401.5,95.6,401.9,112,391.9,122.4z"/>
	<path class="st7" d="M387.9,120.8l-6.8,7.1c-5.3,5.5-12.2,8.4-19.3,8.6l0,0c0,0,10.1-3.7,14.2-7.9l8.2-8.6c7.5-7.8,9.4-18.9,6-28.4
		c-1.4-3.9-3.7-7.5-6.9-10.6c-0.7-0.6-1.3-1.2-2-1.7c3.1,1.2,6,3,8.5,5.4l0.7,0.7C398.1,96,397.3,111,387.9,120.8z"/>
	<path class="st5" d="M381.3,81l10.5,8.4c0,0,19.4-8.5,18.7-9.7c-0.7-1.2-3.5,0.3-4.9-0.8c-2.2-1.6-0.3-4-2.1-5.9
		c-2.5-2.5-4.5,0.4-6.9-1.1c-2.3-1.5-1.1-3.6-2.9-5.1s-3.6,1.4-5.1,0.3c-1.5-1.1-0.4-5.1-2.4-5.1C384.2,61.9,381.3,81,381.3,81z"/>
	<path class="st5" d="M357.9,133.5l-10.5-8.4c0,0-19.4,8.5-18.7,9.7c0.7,1.2,3.5-0.3,4.9,0.8c2.2,1.6,0.3,4,2.1,5.9
		c2.5,2.5,4.5-0.4,6.9,1.1c2.3,1.5,1.1,3.6,2.9,5.1c1.8,1.5,3.6-1.4,5.1-0.3c1.5,1.1,0.4,5.1,2.4,5.1
		C355,152.6,357.9,133.5,357.9,133.5z"/>
	<path class="st8" d="M359.9,87.5c0,0-2,1.9-5.6,5.9c-6.3,7-8.1,23.5-0.9,32.1l1,0.9c3.3,4.3,1.8,5.3-3,1l-1-0.9
		c-9.3-8.8-9.6-23.5-0.8-32.7l5.6-5.4C359,85.1,363.3,83.9,359.9,87.5z"/>
</g>
<g>
	<path class="st9" d="M360.8,120.3l0.3-1.5c2.7-14.2,16.5-23.6,30.7-20.8l9.1,1.7c14.2,2.7,23.6,16.5,20.8,30.7l-0.3,1.5
		c-2.7,14.2-16.5,23.6-30.7,20.8l-9.1-1.7C367.4,148.3,358.1,134.5,360.8,120.3z"/>
	<path class="st10" d="M391,152.9l-9.1-1.7c-9.2-1.8-16.3-8.1-19.5-16.1c4.1,5.9,10.3,10.2,17.9,11.6l9.7,1.9
		c14.1,2.7,27.7-5.6,32-18.8c0,0.3-0.1,0.6-0.1,0.8l-0.3,1.5C418.9,146.3,405.2,155.7,391,152.9z"/>
	<path class="st11" d="M390.1,148.7l-9.7-1.9c-7.5-1.4-13.8-5.8-17.9-11.6l0,0c0,0,8.6,6.5,14.5,7.7l11.8,2.2
		c10.7,2.1,21.2-2.3,27.4-10.5c2.5-3.3,4.4-7.3,5.2-11.6c0.2-0.9,0.3-1.8,0.4-2.7c0.7,3.3,0.7,6.7,0.1,10.2l-0.2,0.9
		C416.7,143.7,403.6,151.2,390.1,148.7z"/>
	<path class="st9" d="M420.3,121.3l-1.4,13.5c0,0,17.8,11.9,18.5,10.6c0.7-1.3-2.1-2.8-2-4.6c0.2-2.8,3.3-2.5,3.8-5
		c0.8-3.5-2.8-3.6-2.8-6.4s2.5-2.9,2.7-5.3c0.2-2.4-3.1-2.3-3-4.2c0.1-1.9,4.1-3.2,3.1-4.8C438,113.3,420.3,121.3,420.3,121.3z"/>
	<path class="st9" d="M363,130.1l1.4-13.5c0,0-17.8-11.9-18.5-10.6c-0.7,1.3,2.1,2.8,2,4.6c-0.2,2.8-3.3,2.5-3.8,5
		c-0.8,3.5,2.8,3.6,2.8,6.4s-2.5,2.9-2.7,5.3c-0.2,2.4,3.1,2.3,3,4.2c-0.1,1.9-4.1,3.2-3.1,4.8C345.2,138.1,363,130.1,363,130.1z"/>
	<path class="st12" d="M403,106.7c0,0-2.7-0.7-8.1-1.5c-9.3-1.5-24.4,6-27.7,16.8l-0.3,1.3c-1.8,5.1-3.5,4.4-2.5-2l0.3-1.3
		c2.4-12.7,14.7-21,27.3-18.6l7.7,1.8C404.6,104.6,408,107.6,403,106.7z"/>
</g>
<g>
	<path class="st13" d="M372.3,129.8c5.1-0.1,12.2-6.9,17.7,1.3c6.7,10-5.3,22.7-21.4,20.3c-16.1-2.4-22.8-18.2-14.4-23.6
		C362.8,122.3,364.8,130,372.3,129.8z"/>
	<path class="st14" d="M368.6,151.4c-9.9-1.5-16.3-8-17.7-14.1c3.3,4.9,9.4,9.2,17.7,10.5c9.7,1.4,18.1-1.9,22.7-7.1
		C388.8,147.6,379.7,153.1,368.6,151.4z"/>
	<path class="st15" d="M355.5,129c1.6-1.4,4.6-2.3,6.6-1.6c0.8,0.7,1.7,2.2,0.6,3.2C361.3,129,355.5,129,355.5,129z"/>
	<path class="st15" d="M378.6,130.2c2.2-1.1,5-2.1,8.5-0.5c0.8,0.7,0.1,1.8-1,2.8C384.6,130.8,378.6,130.2,378.6,130.2z"/>
</g>
</svg>
