<?xml version="1.0" encoding="utf-8"?>
<!-- Generator: Adobe Illustrator 25.1.0, SVG Export Plug-In . SVG Version: 6.00 Build 0)  -->
<svg version="1.1" id="Layer_1" xmlns="http://www.w3.org/2000/svg" xmlns:xlink="http://www.w3.org/1999/xlink" x="0px" y="0px"
	 viewBox="0 0 555.6 573.8" style="enable-background:new 0 0 555.6 573.8;" xml:space="preserve">
<style type="text/css">
	.st0{fill:url(#SVGID_1_);}
	.st1{fill:#EF4043;}
	.st2{fill:#93479B;}
	.st3{fill:#60A353;}
	.st4{fill:#4F8ECB;}
	.st5{fill:#DD203C;}
	.st6{fill:#783C88;}
	.st7{fill:#459547;}
	.st8{fill:#147CB6;}
	.st9{opacity:0.34;}
	.st10{fill:#FFFFFF;}
	.st11{fill:#F49EC4;}
	.st12{fill:#DD6E9C;}
	.st13{fill:#F1D54B;}
	.st14{fill:#EEBD3D;}
	.st15{fill:#F3714A;}
	.st16{fill:#F388B2;}
</style>
<g>
	<g>
		<path class="st1" d="M493.3,240.3h1.6c5.8,0,11.4,2.8,16.4,8c2.5,2.6,4.9,5.8,7,9.6c1.1,1.9,2.1,3.9,3,6.1
			c0.5,1.1,0.9,2.2,1.4,3.3c0.4,1.1,0.8,2.3,1.2,3.5c1.6,4.8,3,10.2,3.9,15.9c0.5,2.9,0.9,5.9,1.2,8.9c0.3,3.1,0.4,6.2,0.6,9.5
			c0.3,13-0.9,27.3-4.5,41.9c-0.7,3.1-1.6,6.3-2.4,9.4l-1.3,4.7l-0.6,2.3l-0.7,2.3c-6.2-20.3-14.1-39-23.2-56.6
			c-9.1-17.5-19.3-33.8-30.3-48.9c1.9-3.1,4-5.8,6.1-8.3c2.1-2.4,4.2-4.6,6.5-6.3C483.5,242.3,488.3,240.3,493.3,240.3z"/>
	</g>
	<g>
		<path class="st2" d="M466.4,260.4c11,15.1,21.2,31.4,30.3,48.9c9.1,17.5,17,36.3,23.2,56.6c-4.4,15-10,29.9-16.8,44.4
			c-6.8,14.6-14.8,28.8-24.3,42.4c1.5-27-2.2-52-8.5-74.9l-1.2-4.3c-0.4-1.4-0.9-2.8-1.3-4.2c-0.9-2.8-1.8-5.6-2.7-8.3l-0.7-2
			l-0.8-2.1l-1.5-4.1c-1-2.7-2.1-5.3-3.2-8c-4.5-10.5-9.3-20.6-14.8-30.2C450.2,293.4,457.5,274.1,466.4,260.4z"/>
	</g>
	<g>
		<path class="st3" d="M444.2,314.6c5.4,9.7,10.3,19.7,14.8,30.2c1.1,2.6,2.1,5.3,3.2,8l1.5,4.1l0.8,2.1l0.7,2
			c0.9,2.7,1.8,5.5,2.7,8.3c0.4,1.4,0.9,2.8,1.3,4.2l1.2,4.3c6.3,22.9,10,48,8.5,74.9c-9.5,13.6-20.6,26.5-33.2,38.1
			c-12.6,11.6-26.8,21.9-42.1,30.2c7.1-12.2,12.8-24.4,16.6-36.8c2.1-6.1,3.5-12.4,4.9-18.4c0.4-1.5,0.6-3,0.8-4.6l0.7-4.5
			c0.4-3,0.9-5.9,1.1-9c0.3-3,0.5-6,0.6-8.9c0.1-1.4,0.1-2.9,0.1-4.4l0-4.4c0.1-5.7-0.4-11.5-0.9-17c-0.1-1.4-0.3-2.8-0.5-4.2
			l-0.6-4.1l-0.6-4.1l-0.3-2l-0.4-2c-1.1-5.4-2.2-10.6-3.7-15.8l1.6-3.1l0.8-1.6l0.7-1.6l2.9-6.5c0.9-2.2,1.8-4.4,2.7-6.6
			c0.4-1.1,0.9-2.2,1.3-3.3l1.2-3.4c3.4-9,6-18.5,8.4-28.1C442,322.6,443.2,318.6,444.2,314.6z"/>
	</g>
	<g>
		<path class="st1" d="M403.5,520.9c-15.3,8.3-31.6,14.7-48.2,18.9c-16.6,4.3-33.4,6.5-49.9,7.2l4.1-2.8c1.4-1,2.7-2,4.1-3
			c2.7-2,5.3-4.1,7.9-6.1l1.9-1.5l1.9-1.6l3.7-3.3c2.4-2.2,4.8-4.3,7.1-6.6c2.3-2.3,4.5-4.6,6.6-6.9l3.2-3.4c1-1.2,2-2.4,3-3.6
			c2-2.4,3.9-4.8,5.7-7.2c0.9-1.2,1.8-2.5,2.6-3.7l2.5-3.8c3.3-4.9,6.2-10.2,8.8-15.2l1-1.9l0.9-2l1.7-3.9l1.6-3.8l0.8-1.9l0.7-2
			c0.9-2.6,1.7-5.2,2.5-7.8l0.6-1.9l0.5-2l0.9-3.9l0.8-3.8l0.4-1.9l0.3-2c0.4-2.6,0.7-5.1,0.9-7.6c15.9-13.1,29.2-30.6,39.5-50.9
			c1.5,5.2,2.6,10.3,3.7,15.8l0.4,2l0.3,2l0.6,4.1l0.6,4.1c0.2,1.4,0.4,2.8,0.5,4.2c0.5,5.5,1,11.3,0.9,17l0,4.4c0,1.5,0,3-0.1,4.4
			c-0.2,2.9-0.4,5.8-0.6,8.8c-0.2,3-0.7,5.9-1.1,9l-0.7,4.5c-0.3,1.5-0.5,3.1-0.8,4.6c-1.3,6-2.8,12.3-4.8,18.4
			C416.3,496.5,410.6,508.7,403.5,520.9z"/>
	</g>
	<g>
		<path class="st2" d="M305.5,547l-6.2,0.2c-2.1,0-4.1,0.2-6.2,0.1l-12.3-0.3l-12.3-0.9c-4.1-0.4-8.1-1-12.2-1.5
			c-16.3-2.4-32.3-6.2-47.9-11.5c13.1-3,25.6-7.4,37.2-12.2c2.9-1.3,5.8-2.6,8.6-3.9l4.2-2l4.1-2.2c2.7-1.5,5.4-2.9,8-4.4
			c2.6-1.5,5.2-3.2,7.7-4.8c5-3.1,9.8-6.7,14.4-10.2c2.3-1.7,4.5-3.6,6.7-5.5c2.2-1.9,4.3-3.7,6.3-5.6c2-1.9,4-4,5.9-5.9l2.8-3
			c0.9-1,1.8-1.9,2.7-3c1.7-2.1,3.4-4.2,5-6.2c0.8-1,1.6-2,2.4-3.1l2.2-3.2c10.3-2.1,20.2-5.3,29.4-9.6c9.2-4.4,17.8-9.8,25.7-16.4
			c-0.3,2.5-0.6,5-0.9,7.6l-0.3,2l-0.4,1.9l-0.8,3.8l-0.9,3.9l-0.5,2l-0.6,1.9c-0.8,2.5-1.6,5.1-2.5,7.8l-0.7,2l-0.8,1.9l-1.6,3.8
			l-1.7,3.9l-0.9,2l-1,1.9c-2.6,5-5.4,10.3-8.8,15.2l-2.5,3.8c-0.9,1.2-1.7,2.6-2.6,3.7c-1.8,2.4-3.7,4.8-5.7,7.2
			c-1,1.2-2,2.5-3,3.6l-3.2,3.4c-2.1,2.3-4.4,4.6-6.6,6.9c-2.3,2.2-4.7,4.4-7.1,6.6l-3.7,3.3l-1.9,1.6l-1.9,1.5
			c-2.6,2-5.2,4.1-7.9,6.1c-1.3,1-2.7,2.1-4.1,3L305.5,547z"/>
	</g>
	<g>
		<path class="st4" d="M208.5,533c-31.1-10.6-60.2-26.9-85.4-48c13.4,1.7,26.4,2.4,39.2,1.9c6.3-0.1,12.6-0.8,18.7-1.4l2.3-0.3
			l2.3-0.3l4.5-0.7l4.5-0.8l2.2-0.4l2.2-0.5c23.5-5,44.5-13.4,62.3-24.9c10.9,2,22,3.1,33.2,3.2c11.1-0.1,22-1,32.3-3.1l-2.2,3.2
			c-0.8,1-1.6,2-2.4,3.1c-1.6,2.1-3.3,4.1-5,6.2c-0.9,1.1-1.8,2-2.7,3l-2.8,3c-1.9,2-3.9,4-5.9,5.9c-2.1,1.9-4.2,3.7-6.3,5.6
			c-2.2,1.8-4.4,3.8-6.7,5.5c-4.6,3.5-9.4,7.1-14.4,10.2c-2.5,1.6-5.1,3.3-7.7,4.8c-2.6,1.5-5.3,3-8,4.4l-4.1,2.2l-4.2,2
			c-2.8,1.3-5.7,2.6-8.6,3.9C234.1,525.6,221.6,530,208.5,533z"/>
	</g>
	<g>
		<path class="st1" d="M123.1,485.1c-25.2-21-46.5-46.7-62.5-75.4c3,1.6,5.9,3.1,8.9,4.6c2.9,1.5,6,2.8,9,4.1
			c5.9,2.7,12.1,4.9,18,7.1c12.1,4.1,23.9,7.2,35.8,9c23.5,3.9,46.4,3.3,67.1-0.8c18.9,11.7,40,19.8,61.8,23.9
			c-17.8,11.5-38.8,19.9-62.3,24.9l-2.2,0.5l-2.2,0.4l-4.5,0.8l-4.5,0.7l-2.3,0.3l-2.3,0.3c-6.1,0.7-12.4,1.3-18.7,1.4
			C149.5,487.5,136.5,486.7,123.1,485.1z"/>
	</g>
	<g>
		<path class="st2" d="M60.6,409.7c-16-28.7-26.7-60.4-31.3-92.9c2.1,2.6,4.4,5.1,6.7,7.5c2.3,2.4,4.5,4.8,6.8,7.1
			c2.4,2.3,4.7,4.5,7.1,6.7l3.5,3.2l3.7,3.1c2.4,2,4.9,4,7.3,6c2.5,1.9,5,3.7,7.5,5.5l3.7,2.6c1.2,0.9,2.6,1.7,3.9,2.5
			c2.6,1.6,5.1,3.2,7.7,4.7c10.4,6,20.8,11,31.4,14.8c5.2,2,10.6,3.6,15.8,5c1.3,0.4,2.6,0.7,3.9,1l4,0.9c2.6,0.6,5.1,1.1,7.8,1.5
			c6.7,8.9,14.3,17.1,22.5,24.6c8.3,7.5,17.2,14.2,26.7,20.1c-20.6,4.1-43.5,4.7-67.1,0.8c-11.9-1.8-23.7-5-35.8-9
			c-5.9-2.1-12.1-4.4-18-7.1c-3-1.3-6-2.7-9-4.1C66.5,412.9,63.6,411.3,60.6,409.7z"/>
	</g>
	<g>
		<path class="st3" d="M29.3,316.8l-0.8-6.1c-0.2-2-0.6-4.1-0.7-6.1c-0.3-4.1-0.7-8.2-0.9-12.3l-0.3-12.3c0-4.1,0.2-8.3,0.3-12.5
			c0.8-16.7,3.2-33.3,7.4-49.5c2.2,6.5,4.3,12.8,7,18.9l1.9,4.5c0.6,1.5,1.3,3,2,4.4c1.4,2.9,2.9,5.8,4.3,8.6
			c6.1,11.3,12.8,21.6,20.4,30.9l2.8,3.5c0.5,0.6,0.9,1.1,1.4,1.7l1.5,1.7c2,2.2,3.9,4.4,5.9,6.5c1.9,2.1,4.1,4.1,6.1,6.1
			c2.1,2,4.1,3.9,6.2,5.8c2.2,1.8,4.3,3.6,6.4,5.4l3.2,2.6l3.3,2.4c2.2,1.6,4.4,3.1,6.6,4.6c2.3,1.5,4.6,2.9,6.8,4.2
			c6.2,21.3,16.4,41.5,29.9,59.2c-2.7-0.4-5.2-1-7.8-1.5l-4-0.9c-1.3-0.3-2.7-0.6-3.9-1c-5.2-1.5-10.6-3-15.8-5
			c-10.7-3.8-21-8.8-31.4-14.8c-2.5-1.5-5.1-3.1-7.7-4.7c-1.3-0.8-2.6-1.6-3.9-2.5l-3.7-2.6c-2.5-1.8-5-3.6-7.5-5.5
			c-2.4-1.9-4.9-3.9-7.3-6l-3.7-3.1l-3.5-3.2c-2.4-2.2-4.7-4.4-7.1-6.7c-2.3-2.3-4.5-4.7-6.8-7.1C33.7,321.9,31.4,319.4,29.3,316.8z
			"/>
	</g>
	<g>
		<path class="st1" d="M34.3,218.1c8.3-32.4,23.4-63.1,43.9-89.4l-0.5,5l-0.3,5.1c-0.2,3.4-0.4,6.6-0.4,10c0,3.3,0,6.6,0.1,9.8
			l0.1,2.4l0.2,2.4l0.3,4.8l0.4,4.7c0.1,1.6,0.4,3.2,0.6,4.7c0.4,3.1,0.9,6.2,1.4,9.2c1.2,6.1,2.4,12,4.1,17.8
			c1.5,5.7,3.5,11.4,5.5,16.7c1,2.7,2.2,5.4,3.3,7.9l1.7,3.8l1.9,3.8c4.9,9.9,11,19.1,17.3,27.2l-0.3,4.1c-0.1,1.4-0.3,2.7-0.2,4.1
			l-0.1,4.1c0,1.4-0.1,2.7,0,4.1l0.2,8.4l0.6,8.3c1.1,11.1,3.2,22,6.3,32.7c-2.2-1.4-4.5-2.7-6.8-4.2c-2.2-1.5-4.4-3-6.6-4.6
			l-3.3-2.4l-3.2-2.6c-2.1-1.7-4.3-3.5-6.4-5.4c-2.1-1.9-4.1-3.8-6.2-5.8c-2.1-2-4.2-4-6.1-6.1c-2-2.1-3.9-4.3-5.9-6.5l-1.5-1.7
			c-0.5-0.6-0.9-1.1-1.4-1.7l-2.8-3.5c-7.6-9.3-14.3-19.6-20.4-30.9c-1.5-2.8-2.9-5.7-4.3-8.6c-0.7-1.5-1.4-3-2-4.4l-1.9-4.5
			C38.6,230.9,36.5,224.6,34.3,218.1z"/>
	</g>
	<g>
		<path class="st2" d="M78.2,128.6c20.5-26.4,46.3-48.5,75.6-64.7c-1.6,3-3.2,6-4.8,9c-1.5,3-2.9,6.1-4.3,9l-2,4.5
			c-0.6,1.5-1.2,3.1-1.8,4.6c-1.2,3.1-2.3,6-3.3,9c-4.1,12.1-6.9,24.2-8.6,36c-1.6,11.9-2.1,23.5-1.5,34.6
			c0.7,11.2,2.4,21.8,5.1,31.9c-10.5,19-16.9,40-18.9,61.6c-6.4-8.1-12.4-17.3-17.3-27.2l-1.9-3.8l-1.7-3.8
			c-1.1-2.6-2.3-5.3-3.3-7.9c-2-5.4-4-11-5.5-16.7c-1.7-5.8-2.9-11.7-4.1-17.8c-0.5-3-0.9-6.1-1.4-9.2c-0.2-1.6-0.4-3.2-0.6-4.7
			l-0.4-4.7l-0.3-4.8l-0.2-2.4l-0.1-2.4c-0.1-3.2-0.1-6.5-0.1-9.8c0-3.3,0.2-6.6,0.4-10l0.3-5.1L78.2,128.6z"/>
	</g>
	<g>
		<path class="st4" d="M153.7,63.9c29.2-16.2,62-26.3,95.2-29.4c-1.4,1-2.7,2.1-4,3.1l-3.9,3.2c-2.6,2.1-5.1,4.3-7.5,6.6
			c-2.4,2.3-4.8,4.5-7.1,6.8c-2.3,2.3-4.5,4.7-6.7,7.1c-1.1,1.2-2.1,2.3-3.2,3.5l-3,3.7c-2,2.5-3.9,4.8-5.8,7.3
			c-1.8,2.5-3.6,5-5.3,7.5l-1.3,1.9l-1.2,1.9l-2.4,3.8c-1.6,2.5-3.1,5-4.4,7.7c-1.4,2.6-2.7,5.2-4,7.7c-2.4,5.3-4.7,10.4-6.6,15.7
			c-2,5.2-3.5,10.5-4.9,15.7c-0.7,2.6-1.2,5.3-1.7,7.8c-0.3,1.3-0.5,2.6-0.7,3.9l-0.6,3.9c-17.1,13.3-31.5,30.2-42,49.1
			c-2.7-10-4.4-20.7-5.1-31.9c-0.6-11.1-0.1-22.7,1.5-34.6c1.7-11.8,4.5-23.9,8.6-36c1-3,2.2-6,3.3-9c0.6-1.5,1.2-3.1,1.8-4.6l2-4.5
			c1.4-3,2.7-6.1,4.3-9C150.5,69.9,152.1,66.9,153.7,63.9z"/>
	</g>
	<g>
		<path class="st1" d="M249,34.5l6.2-0.5c2.1-0.1,4.2-0.4,6.2-0.4l6.2-0.2l3.1-0.1l1.6,0l1.6,0c8.5,0.1,17,0.6,25.4,1.6
			c16.9,2,33.6,6,49.7,11.8c-27.2,5.6-51.2,16.1-70.7,29.9c-9.8,6.8-18.5,14.6-26.2,22.6c-1.9,2.1-3.8,4.1-5.6,6.1
			c-0.9,1-1.8,2.1-2.6,3.2l-2.5,3.2l-2.4,3.2c-0.8,1-1.5,2.2-2.3,3.3c-1.5,2.2-2.9,4.4-4.3,6.5c-20.9,5.4-40.7,15.2-57.8,28.5
			l0.6-3.9c0.2-1.3,0.5-2.6,0.7-3.9c0.5-2.6,1.1-5.2,1.7-7.8c1.4-5.1,2.9-10.5,4.9-15.7c1.9-5.3,4.1-10.4,6.6-15.7
			c1.3-2.6,2.6-5.1,4-7.7c1.4-2.6,2.9-5.2,4.4-7.7l2.4-3.8l1.2-1.9l1.3-1.9c1.7-2.5,3.5-5,5.3-7.5c1.8-2.5,3.8-4.9,5.8-7.3l3-3.7
			c1-1.2,2.1-2.3,3.2-3.5c2.2-2.3,4.4-4.7,6.7-7.1c2.3-2.2,4.7-4.5,7.1-6.8c2.4-2.3,4.9-4.4,7.5-6.6l3.9-3.2
			C246.3,36.6,247.6,35.5,249,34.5z"/>
	</g>
	<g>
		<path class="st2" d="M349.1,46.8c16.1,5.8,31.4,13.5,45.7,22.8c7.2,4.6,14,9.7,20.6,15c1.6,1.4,3.2,2.8,4.8,4.2
			c1.6,1.4,3.3,2.7,4.8,4.2l4.6,4.4c0.8,0.7,1.5,1.5,2.3,2.2l2.2,2.3c-13.4-3.4-26.6-5.5-39.5-6.1c-12.9-0.6-25.3,0.1-37.1,1.9
			c-11.8,1.8-23,5-33.2,9.1c-5.1,2-10.1,4.4-14.7,6.8c-2.4,1.3-4.6,2.6-6.9,4l-1.6,1l-1.6,1.1l-3.2,2.2c-5.2-1-10.4-1.5-15.7-1.8
			c-1.3-0.1-2.6-0.1-4-0.1l-4-0.1l-8.1,0.2c-10.9,0.5-21.6,2.1-32.1,4.8c1.4-2.2,2.8-4.3,4.3-6.5c0.8-1.1,1.5-2.2,2.3-3.3l2.4-3.2
			l2.5-3.2c0.9-1.1,1.7-2.2,2.6-3.2c1.8-2,3.6-4.1,5.6-6.1c7.7-8,16.5-15.8,26.2-22.6C297.9,62.9,321.9,52.4,349.1,46.8z"/>
	</g>
	<g>
		<path class="st3" d="M434.2,102c11.8,12.2,22.3,25.8,31.2,40.3c8.8,14.6,15.9,30.2,21.3,46.4c-10.5-9-21.6-16.6-32.9-22.8
			c-11.3-6.2-22.7-11.1-34.2-14.5c-11.5-3.4-22.8-5.5-33.9-6.4c-11.1-0.8-21.8-0.4-31.9,1.2c-8.5-6.2-17.7-11.4-27.4-15.5
			c-9.7-4-19.8-7-30.1-8.8l3.2-2.2l1.6-1.1l1.6-1c2.2-1.3,4.5-2.7,6.9-4c4.7-2.4,9.6-4.8,14.7-6.8c10.3-4.1,21.5-7.3,33.2-9.1
			c11.8-1.9,24.2-2.6,37.1-1.9C407.5,96.5,420.8,98.5,434.2,102z"/>
	</g>
	<g>
		<path class="st1" d="M486.6,188.7l1,3l0.9,3.1l1.7,6.2c0.6,2,1,4.1,1.5,6.2l1.4,6.2l1.1,6.3c0.3,2.1,0.8,4.2,1,6.3l0.8,6.3
			l0.4,3.2c0.1,1.1,0.2,2.1,0.3,3.2c0.3,4.2,0.7,8.5,0.8,12.7l0.2,6.4c0,2.1-0.1,4.3-0.1,6.5c-0.1,2.2-0.1,4.4-0.2,6.5l-0.5,6.4
			l-0.3,3.2l-0.4,3.2l-0.8,6.4c-1.4-3.2-2.8-6.3-4.3-9.4c-1.5-3.1-3.1-6.1-4.7-9c-1.5-2.9-3.3-5.8-5-8.7c-0.9-1.4-1.7-2.8-2.6-4.2
			l-2.8-4l-2.8-3.9c-0.9-1.3-1.9-2.5-2.9-3.8c-2-2.5-4-4.9-6-7.2c-2-2.3-4.2-4.6-6.3-6.8c-2-2.2-4.3-4.3-6.5-6.3
			c-4.3-4.1-9-7.8-13.5-11.3c-2.4-1.7-4.7-3.3-7-4.9c-1.1-0.8-2.4-1.5-3.6-2.3l-3.6-2.1c-9.6-5.6-19.3-9.9-29.1-12.9
			c-4.9-9.3-11-17.9-17.9-25.9c-3.4-4-7.2-7.7-11-11.3c-1-0.9-2-1.7-3-2.6c-1-0.8-1.9-1.8-3-2.6l-3.1-2.4c-0.5-0.4-1-0.8-1.6-1.2
			l-1.6-1.1c10.1-1.5,20.8-2,31.9-1.2c11,0.9,22.4,3,33.9,6.4c11.5,3.4,22.9,8.3,34.2,14.5C465,172.1,476.1,179.7,486.6,188.7z"/>
	</g>
	<g>
		<path class="st2" d="M495.4,290c-2.5,16.9-6.9,33.1-12.7,48.7c-1.4,3.9-3,7.7-4.6,11.6c-0.8,1.9-1.7,3.8-2.5,5.7l-2.6,5.6
			c-1.9,3.7-3.7,7.4-5.7,11l-3.1,5.4l-1.5,2.7l-1.6,2.6c-0.2-13.5-1.5-26.6-3.8-39.1c-2.4-12.5-5.7-24.5-10-35.6
			c-1.1-2.8-2.2-5.5-3.4-8.2c-1.2-2.7-2.5-5.3-3.8-7.9l-1-1.9l-1-1.9l-2.1-3.7c-0.7-1.2-1.4-2.4-2.1-3.6l-2.3-3.5
			c-1.5-2.3-3-4.5-4.7-6.7c-1.7-2.2-3.2-4.3-5-6.2c-1.8-2-3.5-3.9-5.2-5.8c-1.8-1.9-3.7-3.7-5.5-5.5c-0.7-21.1-6.4-41.7-16.3-60.3
			c9.8,3,19.5,7.3,29.1,12.9l3.6,2.1c1.2,0.7,2.4,1.5,3.6,2.3c2.3,1.6,4.6,3.2,7,4.9c4.5,3.5,9.2,7.2,13.5,11.3
			c2.2,2,4.4,4.1,6.5,6.3c2.1,2.2,4.2,4.4,6.3,6.8c2,2.3,4,4.8,6,7.2c1,1.2,1.9,2.5,2.9,3.8l2.8,3.9l2.8,4c0.9,1.4,1.7,2.8,2.6,4.2
			c1.7,2.8,3.5,5.7,5,8.7c1.6,2.9,3.2,6,4.7,9C492.6,283.7,494,286.8,495.4,290z"/>
	</g>
	<g>
		<path class="st4" d="M461.1,383.3c-8.6,14.1-18.6,27.4-29.8,39.7c-11.3,12.3-24,23.5-38.1,33.4c1.4-3.2,2.8-6.3,4-9.5
			c1.2-3.2,2.3-6.4,3.4-9.5c2-6.4,3.7-12.6,5-18.9c2.6-12.5,4.1-24.8,4.3-36.8c0.2-12-0.6-23.6-2.4-34.6
			c-1.8-11.1-4.7-21.6-8.3-31.4c4.3-10.1,7.6-20.5,9.7-30.9l0.7-3.9c0.2-1.3,0.5-2.6,0.6-3.9c0.3-2.6,0.7-5.2,0.9-7.7l0.3-3.8
			l0.1-3.8c0.2-2.5,0-5.2-0.1-7.8c1.8,1.8,3.7,3.6,5.5,5.5c1.7,1.8,3.5,3.8,5.2,5.8c1.7,2,3.3,4.1,5,6.2c1.7,2.2,3.2,4.4,4.7,6.7
			l2.3,3.5c0.7,1.2,1.4,2.4,2.1,3.6l2.1,3.7l1,1.9l1,1.9c1.3,2.6,2.5,5.2,3.8,7.9c1.1,2.7,2.3,5.4,3.4,8.2
			c4.3,11.1,7.6,23.1,10,35.6C459.6,356.7,460.9,369.7,461.1,383.3z"/>
	</g>
	<g>
		<path class="st1" d="M393.1,456.3c-14,9.9-29.7,18.2-46.6,24.3c-4.2,1.6-8.6,2.8-12.9,4.1c-2.1,0.7-4.4,1.1-6.6,1.7
			c-2.2,0.5-4.4,1.1-6.7,1.5l-6.8,1.2l-3.4,0.5l-3.4,0.4l-6.9,0.7c-2.3,0.2-4.6,0.2-6.9,0.3c12.6-7.6,23.4-16.5,32.3-26.3
			c8.9-9.8,15.9-20.3,21.4-30.9l2-4c0.6-1.3,1.3-2.6,1.8-4c1.1-2.7,2.2-5.4,3.2-8c1-2.7,1.8-5.5,2.7-8.1c0.4-1.3,0.8-2.7,1.1-4l1-4
			c2.5-10.8,3.8-21.4,4.1-31.7c7.6-7.6,14.6-16.1,20.8-25.3c1.6-2.2,3-4.6,4.5-7c0.8-1.2,1.4-2.4,2.1-3.6l2.1-3.6
			c1.3-2.5,2.6-4.9,3.8-7.4l1.7-3.7l0.9-1.9l0.8-1.9c3.6,9.8,6.5,20.4,8.3,31.4c1.8,11,2.6,22.6,2.4,34.6c-0.2,12-1.6,24.2-4.3,36.8
			c-1.3,6.3-3,12.5-5,18.9c-1.1,3.1-2.2,6.3-3.4,9.5C395.9,450,394.5,453.1,393.1,456.3z"/>
	</g>
	<g>
		<path class="st2" d="M292.9,491l-3.5,0.1c-1.2,0-2.3,0.1-3.5,0l-7-0.2l-1.7-0.1l-1.7-0.1l-3.5-0.3l-3.4-0.3l-1.7-0.2l-1.7-0.2
			l-6.8-1c-1.1-0.2-2.3-0.4-3.4-0.6l-3.3-0.7c-4.5-0.9-8.8-2.1-13.1-3.3c-8.6-2.6-16.9-5.6-24.9-9.2c-4-1.7-7.9-3.7-11.8-5.7
			c-2-1-3.8-2.1-5.7-3.1c-1.9-1.1-3.8-2.1-5.6-3.3c13.9,0,27.5-1.3,40.2-4.1c12.8-2.8,24.7-6.9,35.3-12.4c1.3-0.7,2.6-1.4,3.9-2.1
			c1.3-0.7,2.5-1.4,3.8-2.2c2.5-1.6,4.9-3.1,7.1-4.8c2.3-1.7,4.5-3.5,6.5-5.2c2.1-1.9,4-3.8,5.9-5.6c7.5-7.7,13.3-16.1,17.6-24.8
			l3.4-1c1.1-0.3,2.3-0.8,3.4-1.2l1.7-0.6c0.6-0.2,1.1-0.4,1.7-0.7l3.4-1.5c0.6-0.2,1.1-0.5,1.7-0.7l1.7-0.8l3.3-1.7l3.3-1.9
			c1.1-0.6,2.2-1.2,3.3-1.9c8.7-5.4,17-12,24.6-19.5c-0.3,10.3-1.6,21-4.1,31.7l-1,4c-0.4,1.4-0.7,2.7-1.1,4
			c-0.8,2.7-1.7,5.4-2.7,8.1c-1,2.6-2.1,5.3-3.2,8c-0.6,1.4-1.2,2.7-1.8,4l-2,4c-5.4,10.6-12.5,21.1-21.4,30.9
			C316.3,474.4,305.5,483.3,292.9,491z"/>
	</g>
	<g>
		<path class="st3" d="M190.7,462.6c-14.6-9-28.2-19.4-40.2-31.3l-4.5-4.5l-4.3-4.6c-2.9-3-5.6-6.3-8.3-9.5
			c-5.3-6.5-10.5-13.3-15.1-20.4c25,11.7,50.3,17.7,74.2,18.6c23.9,1,46.3-3.1,64.1-12c4.6,1.6,9.2,3.1,13.8,3.9
			c2.3,0.6,4.6,0.8,6.9,1.2c1.1,0.1,2.3,0.2,3.4,0.3l1.7,0.2c0.6,0.1,1.1,0,1.7,0.1c8.9,0.3,18.1-0.6,27.1-3.3
			c-4.3,8.7-10.1,17.1-17.6,24.8c-1.9,1.9-3.8,3.7-5.9,5.6c-2.1,1.7-4.2,3.5-6.5,5.2c-2.3,1.7-4.7,3.2-7.1,4.8
			c-1.2,0.8-2.5,1.5-3.8,2.2c-1.3,0.7-2.6,1.4-3.9,2.1c-10.6,5.5-22.6,9.7-35.3,12.4C218.2,461.2,204.6,462.6,190.7,462.6z"/>
	</g>
	<g>
		<path class="st1" d="M118.2,392.3c-4.7-7-8.9-14.5-12.9-22.1l-2.8-5.8c-0.5-1-0.9-1.9-1.4-2.9l-1.3-3c-0.8-2-1.7-4-2.5-6l-2.3-6.1
			l-1.1-3.1l-1-3.1l-2-6.3l-1.7-6.4l-0.8-3.2l-0.7-3.3l-1.3-6.6l-1-6.7l-0.5-3.4l-0.3-3.4c-0.2-2.3-0.4-4.5-0.6-6.8
			c7.9,12.3,17.1,22.6,26.9,31.3c9.8,8.7,20.2,15.7,30.7,21.2c21.1,11.1,43.1,16.7,63.7,17.7c3.6,4,7.5,7.6,11.5,11.1l3.1,2.5
			c0.5,0.4,1,0.9,1.5,1.3l1.6,1.2l3.1,2.4l3.2,2.2c8.6,6,17.8,10.6,27,14.1c-17.8,8.9-40.2,13-64.1,12
			C168.5,410,143.2,404,118.2,392.3z"/>
	</g>
	<g>
		<path class="st2" d="M84.2,293.9L84,287c0-1.2-0.1-2.3-0.1-3.5L84,280l0.1-3.6l0.1-1.8l0.2-1.8l0.7-7.1c1.2-9.4,3.2-18.7,5.9-27.6
			c2.8-8.8,6.1-17.4,10-25.5c4-8.1,8.4-15.8,13.4-23.1c-0.9,14.2-0.1,28,2.3,41c2.4,13,6.5,25.2,12,35.7c0.7,1.3,1.4,2.6,2.1,3.9
			c0.7,1.3,1.5,2.5,2.3,3.7c0.8,1.2,1.6,2.4,2.4,3.6c0.8,1.2,1.7,2.3,2.6,3.4c0.9,1.1,1.7,2.2,2.6,3.2c0.9,1.1,1.9,2.1,2.8,3.1
			c0.9,1,1.9,2,2.8,3c0.9,1,2,1.9,2.9,2.8c7.8,7.4,16.4,13.2,25.2,17.8c2.9,9.5,6.9,19,12.3,28l2,3.4l2.2,3.3l1.1,1.7
			c0.4,0.5,0.8,1.1,1.2,1.6l2.3,3.2c3.2,4.2,6.6,8.4,10.3,12.2c-20.6-1-42.6-6.5-63.7-17.7c-10.6-5.6-21-12.6-30.7-21.2
			C101.3,316.6,92.1,306.2,84.2,293.9z"/>
	</g>
	<g>
		<path class="st4" d="M114.3,189.4c9.9-14.6,21.4-27.7,34.4-39.1l2.4-2.2l2.5-2.1c1.7-1.4,3.3-2.8,5-4.1c3.4-2.6,6.8-5.3,10.4-7.7
			c3.5-2.5,7.2-4.8,10.9-7.1c1.9-1.1,3.8-2.2,5.6-3.3l2.8-1.6l2.9-1.5c-14.7,24-22.8,49.1-25.3,72.8c-1.2,11.9-1,23.4,0.6,34.2
			c1.6,10.8,4.7,20.8,9.1,29.3c-1.6,4.3-3,8.6-3.8,12.9c-0.8,4.3-1.4,8.5-1.4,12.6c0,0.5-0.1,1,0,1.6l0.1,1.7c0.1,1.1,0,2.3,0.1,3.4
			c0.3,2.3,0.3,4.6,0.8,7c0.6,4.7,1.8,9.4,3,14.2c-8.8-4.6-17.4-10.4-25.2-17.8c-1-0.9-2-1.9-2.9-2.8c-0.9-1-1.9-2-2.8-3
			c-0.9-1-1.9-2.1-2.8-3.1c-0.9-1-1.7-2.1-2.6-3.2c-0.9-1.1-1.8-2.2-2.6-3.4c-0.8-1.2-1.6-2.4-2.4-3.6c-0.8-1.2-1.6-2.5-2.3-3.7
			c-0.7-1.3-1.4-2.6-2.1-3.9c-5.6-10.6-9.6-22.7-12-35.7C114.2,217.4,113.5,203.6,114.3,189.4z"/>
	</g>
	<g>
		<path class="st1" d="M191.3,120.9c7.7-4.1,15.8-7.6,24.1-10.7c2.1-0.7,4.2-1.5,6.3-2.2l6.4-1.9c2.1-0.7,4.3-1.2,6.5-1.7
			c2.2-0.5,4.4-1.1,6.6-1.5l6.7-1.3l6.8-1c2.3-0.4,4.6-0.5,6.9-0.7c2.3-0.2,4.6-0.4,7-0.5l7-0.2c2.3,0,4.7,0.1,7,0.2
			c2.3,0,4.7,0.3,7,0.4c2.3,0.1,4.7,0.4,7,0.7c-1.7,0.7-3.4,1.4-5.1,2.1c-1.7,0.8-3.3,1.5-4.9,2.3c-3.2,1.5-6.4,3.3-9.4,5
			c-3,1.8-6,3.7-8.8,5.6c-2.8,1.9-5.5,4-8.1,6.1c-10.3,8.4-18.8,17.8-25.6,27.6c-13.6,19.7-20.9,41-23.2,61.1
			c-16.2,12.8-29.2,29.7-35.8,47c-4.4-8.6-7.5-18.6-9.1-29.3c-1.6-10.8-1.8-22.3-0.6-34.2C168.5,170,176.6,144.9,191.3,120.9z"/>
	</g>
	<g>
		<path class="st2" d="M296.5,100.6c9.3,1.2,18.5,3.2,27.5,5.9c9,2.8,17.7,6.4,26,10.7c16.7,8.6,31.9,20,44.6,33.7
			c-28.2-9.2-56.2-8.8-79-1.6c-11.4,3.6-21.5,8.9-30,15.2c-4.3,3.3-8.1,6.6-11.5,10.4c-1.7,1.9-3.3,3.6-4.8,5.6
			c-0.8,1-1.5,1.9-2.2,2.9c-0.7,0.9-1.4,2-2.1,3c-18.2,2.4-37.5,11.2-53.6,24c2.3-20.1,9.6-41.4,23.2-61.1
			c6.8-9.8,15.2-19.2,25.6-27.6c2.6-2,5.3-4.1,8.1-6.1c2.8-1.9,5.8-3.8,8.8-5.6c3-1.7,6.2-3.5,9.4-5c1.6-0.8,3.3-1.6,4.9-2.3
			C293.1,101.9,294.8,101.3,296.5,100.6z"/>
	</g>
	<g>
		<path class="st3" d="M394.7,150.8c12.8,13.7,23.2,29.5,30.7,46.8c7.4,17.3,11.8,35.8,12.9,54.5c-8-12.5-17.4-23.2-27.6-31.9
			c-10.2-8.7-21.2-15.2-32.3-19.7c-11.1-4.5-22.3-6.9-32.9-7.4c-10.6-0.5-20.7,0.9-29.7,3.8c-7.5-4.6-15.7-7.9-24.3-9.7
			c-4.3-0.9-8.7-1.4-13.1-1.5c-1.1,0-2.2-0.1-3.3-0.1c-1.1,0-2.2,0.1-3.3,0.1c-1.1,0-2.2,0.2-3.4,0.3c-0.6,0-1.1,0.1-1.7,0.1
			l-1.7,0.3c0.7-1,1.4-2.1,2.1-3c0.7-1,1.4-1.9,2.2-2.9c1.5-2,3.1-3.8,4.8-5.6c3.4-3.7,7.3-7.1,11.5-10.4c8.5-6.4,18.6-11.6,30-15.2
			C338.5,142,366.4,141.7,394.7,150.8z"/>
	</g>
	<g>
		<path class="st1" d="M438.2,252.2c0.2,2.3,0.2,4.7,0.3,7c0,1.2,0.1,2.3,0,3.5l-0.1,3.6l-0.1,3.6l-0.3,3.6l-0.3,3.6
			c-0.1,1.2-0.3,2.4-0.4,3.6c-1.2,9.6-3.3,19.1-6.3,28.3c-6,18.4-15.6,35.6-28.1,50.3c1.5-7.4,2.5-14.7,2.8-21.9
			c0.2-3.6,0.1-7.1,0-10.6c-0.1-1.7-0.2-3.5-0.3-5.2c-0.1-1.7-0.3-3.4-0.5-5.1c-0.2-1.7-0.5-3.3-0.7-5c-0.3-1.6-0.6-3.3-1-4.9
			l-0.5-2.4l-0.6-2.4c-0.4-1.6-0.8-3.1-1.3-4.6c-0.5-1.5-1-3-1.5-4.5l-0.8-2.2l-0.9-2.2c-0.6-1.4-1.2-2.8-1.8-4.2
			c-0.7-1.4-1.3-2.7-2-4.1l-1-2l-1.1-1.9c-0.7-1.3-1.5-2.5-2.2-3.7c-0.8-1.2-1.6-2.4-2.4-3.6l-1.2-1.7l-1.3-1.7
			c-0.9-1.1-1.7-2.2-2.6-3.2c-0.9-1.1-1.9-2.1-2.8-3.1c-0.9-1-1.8-2-2.8-2.9c-1-1-2-1.9-2.9-2.8c-7.8-7.2-16.5-12.5-25.3-15.9
			c-5.5-16.6-17.3-31.2-32.3-40.5c8.9-2.9,19.1-4.3,29.7-3.8c10.6,0.5,21.8,2.9,32.9,7.4c11,4.5,22.1,11,32.3,19.7
			C420.9,228.9,430.3,239.7,438.2,252.2z"/>
	</g>
	<g>
		<path class="st2" d="M403,359.2c-12.4,14.7-27.7,27-44.8,36.1c-17.1,9.1-36,14.8-55.2,16.7c1.6-1.1,3.1-2.2,4.6-3.3l2.2-1.7
			l2.2-1.7c1.4-1.2,2.8-2.3,4.2-3.5c1.4-1.2,2.7-2.5,4-3.7l1.9-1.8l1.9-1.9c1.2-1.3,2.4-2.6,3.6-3.8c1.2-1.3,2.3-2.7,3.4-4l1.6-2
			l1.5-2.1c4.1-5.4,7.5-11.1,10.4-16.7c2.9-5.7,5.1-11.4,6.9-17.2c1.7-5.8,2.9-11.4,3.4-17l0.2-2.1c0.1-0.7,0.1-1.4,0.1-2.1
			c0.1-1.4,0.1-2.7,0.2-4.1c0-2.8,0-5.4-0.3-8c-0.4-5.2-1.4-10.3-2.8-14.9c-0.7-2.4-1.5-4.6-2.4-6.8c-0.9-2.2-1.9-4.3-3-6.3
			c3.2-7.6,5-15.7,5.1-24c0-0.5,0.1-1,0-1.6l-0.1-1.7c0-1.1,0-2.2-0.1-3.3c-0.1-1.1-0.1-2.2-0.3-3.3l-0.4-3.3
			c-0.7-4.3-1.7-8.6-3.2-12.7c8.8,3.4,17.4,8.7,25.3,15.9c1,0.9,1.9,1.8,2.9,2.8c1,1,1.9,1.9,2.8,2.9c0.9,1,1.9,2,2.8,3.1
			c0.9,1,1.7,2.1,2.6,3.2l1.3,1.7l1.2,1.7c0.8,1.2,1.6,2.4,2.4,3.6c0.8,1.2,1.5,2.5,2.2,3.7l1.1,1.9l1,2c0.7,1.3,1.4,2.7,2,4.1
			c0.6,1.4,1.2,2.8,1.8,4.2l0.9,2.2l0.8,2.2c0.5,1.5,1,3,1.5,4.5c0.4,1.5,0.9,3.1,1.3,4.6l0.6,2.4l0.5,2.4c0.3,1.6,0.7,3.2,1,4.9
			c0.3,1.6,0.5,3.3,0.7,5c0.2,1.7,0.4,3.4,0.5,5.1c0.1,1.7,0.3,3.5,0.3,5.2c0.1,3.5,0.2,7,0,10.6C405.5,344.5,404.5,351.8,403,359.2
			z"/>
	</g>
	<g>
		<path class="st4" d="M303.1,412l-7.2,0.6c-2.4,0.1-4.8,0.2-7.2,0.2c-2.4,0-5-0.1-7.4-0.1c-2.5-0.1-5-0.3-7.5-0.6
			c-10.1-1-20.4-3.3-30.3-6.9c-9.9-3.6-19.6-8.5-28.4-14.6c-8.8-6.1-16.7-13.4-23.5-21.4c7.4,3.3,15.1,5.6,22.6,7.1
			c7.5,1.5,14.9,2.2,21.9,1.9c7.1-0.2,13.8-1.2,20.1-2.9c6.3-1.7,12.1-4.1,17.3-6.9c5.3-2.8,10-6.2,14.3-9.7
			c4.3-3.7,8.1-7.4,11.4-11.6c6.6-8.1,11.1-17.1,13.6-25.8c7.6-3.2,14.6-7.9,20.4-13.7c5.9-5.8,10.6-12.8,13.8-20.3
			c1,2,2.1,4.1,3,6.3c0.9,2.2,1.7,4.5,2.4,6.8c1.3,4.7,2.4,9.7,2.8,14.9c0.3,2.7,0.3,5.2,0.3,8c0,1.3-0.1,2.7-0.2,4.1
			c0,0.7-0.1,1.4-0.1,2.1l-0.2,2.1c-0.6,5.6-1.7,11.2-3.4,17c-1.7,5.7-4,11.5-6.9,17.2c-2.9,5.6-6.3,11.3-10.4,16.7l-1.5,2.1l-1.6,2
			c-1.1,1.3-2.2,2.6-3.4,4c-1.2,1.3-2.4,2.6-3.6,3.8l-1.9,1.9l-1.9,1.8c-1.3,1.2-2.6,2.5-4,3.7c-1.4,1.2-2.8,2.3-4.2,3.5l-2.2,1.7
			l-2.2,1.7C306.2,409.8,304.7,410.9,303.1,412z"/>
	</g>
	<g>
		<path class="st1" d="M191.5,369.2c-6.8-8-12.5-16.8-17-25.9c-4.5-9.1-8-18.5-10.4-28c-2.4-9.5-3.8-19-4.4-28.4
			c-0.1-2.3-0.2-4.7-0.3-7c0-2.3,0-4.7,0-7l0.2-4.4c0.1-1.9,0.2-3.5,0.5-5.2c0.3-3.4,0.9-6.8,1.8-10.1c0.1,1.3,0.3,2.5,0.5,3.8
			c0.2,1.2,0.4,2.5,0.7,3.7c0.3,1.2,0.6,2.4,0.9,3.6l0.1,0.4c0,0.1,0.1,0.2,0,0.2l0.1,0.2l0.3,0.9l0.5,1.8c0.4,1.2,0.8,2.4,1.2,3.6
			c0.4,0.9,0.8,1.6,1.3,2.4c0.9,1.5,1.8,3.1,2.7,4.6l1.4,2.2l1.4,2.2c1,1.5,1.9,2.9,2.9,4.3c2.1,2.8,4,5.5,6.2,8.1
			c2.1,2.6,4.4,5.1,6.7,7.4c1.1,1.2,2.4,2.3,3.5,3.4c1.2,1.1,2.4,2.2,3.6,3.2c2.4,2.1,4.9,4,7.4,5.8c2.6,1.8,5.1,3.4,7.7,4.9
			c10.4,5.9,21.3,9,31.3,9.3c10.1,0.3,19.1-2.3,26.1-6.9c2.8,1.4,5.8,2.5,9.1,3.2c3.4,0.7,6.9,1,10.9,1c8.3-0.1,16.5-1.8,24-5
			c-2.5,8.8-7,17.8-13.6,25.8c-3.3,4.1-7.1,7.9-11.4,11.6c-4.2,3.5-9,6.9-14.3,9.7c-5.3,2.8-11.1,5.1-17.3,6.9
			c-6.3,1.7-13,2.7-20.1,2.9c-7.1,0.2-14.5-0.4-21.9-1.9C206.6,374.8,198.9,372.5,191.5,369.2z"/>
	</g>
	<g>
		<path class="st2" d="M161.9,253.1c1.7-6.7,4.3-13.1,7.6-19.1c0.8-1.5,1.7-3,2.6-4.5c0.9-1.4,2-3,2.8-4.2c0.9-1.3,1.8-2.4,2.6-3.6
			c0.9-1.2,1.8-2.3,2.7-3.5c7.4-9,15.7-16.2,24.9-22.3c4.6-3,9.5-5.8,14.7-8.2c5.2-2.4,10.7-4.4,16.5-6c5.8-1.6,12-2.7,18.5-3.1
			c3.2-0.3,6.6-0.3,9.9-0.2c1.7,0.1,3.4,0.2,5.2,0.4c1.7,0.2,3.4,0.4,5.1,0.7c-2.5,0.5-4.9,1.1-7.3,1.8c-1.2,0.4-2.4,0.7-3.5,1.1
			c-1.1,0.4-2.2,0.9-3.3,1.3c-1.1,0.5-2.2,0.9-3.2,1.4c-1,0.5-2,1-3,1.5c-2,1-3.8,2.2-5.6,3.3c-7.1,4.7-12.8,10.2-17.3,16
			c-4.5,5.8-7.9,11.8-10.3,17.9c-2.5,6.1-4,12.2-4.8,18.1c-0.2,1.5-0.3,3-0.3,4.4c0,1.5-0.1,2.9,0,4.3c0.1,1.4,0.2,2.8,0.4,4.1
			c0.2,1.3,0.5,2.6,0.8,3.8c1.3,4.8,3.8,8.9,7,11.9c0.8,0.7,1.6,1.4,2.5,2c0.4,0.3,0.9,0.5,1.3,0.7c0.1,0.1,0.2,0.1,0.3,0.2l0.3,0.4
			l0.6,0.7c0.9,1,1.8,1.9,2.7,2.8c0.9,0.9,1.8,1.8,2.7,2.6c3.7,3.4,7.7,6.2,11.6,8.5c1.3,8.2,4.1,15.4,7.9,21.1
			c3.8,5.6,8.4,9.8,14,12.5c-7.1,4.6-16.1,7.2-26.1,6.9c-10-0.3-21-3.4-31.3-9.3c-2.6-1.4-5.1-3.1-7.7-4.9c-2.5-1.8-5-3.7-7.4-5.8
			c-1.2-1-2.4-2.1-3.6-3.2c-1.2-1.1-2.4-2.2-3.5-3.4c-2.3-2.3-4.6-4.8-6.7-7.4c-2.2-2.6-4.2-5.3-6.2-8.1c-1-1.4-1.9-2.8-2.9-4.3
			l-1.4-2.2l-1.4-2.2c-0.9-1.5-1.8-3-2.7-4.6c-0.4-0.8-0.8-1.5-1.3-2.4c-0.4-1.2-0.8-2.4-1.2-3.6l-0.5-1.8l-0.3-0.9l-0.1-0.2
			c0.1-0.1,0-0.1,0-0.2l-0.1-0.4c-0.3-1.2-0.6-2.4-0.9-3.6c-0.3-1.2-0.5-2.4-0.7-3.7C162.3,255.6,162,254.4,161.9,253.1z"/>
	</g>
	<g>
		<path class="st3" d="M246.8,288.6c-1-0.6-2-1.2-3-1.8c-1-0.6-2-1.3-2.9-2c-1-0.7-1.9-1.5-2.9-2.2c-0.9-0.8-1.9-1.6-2.8-2.4
			c-1-0.8-1.8-1.7-2.7-2.6c-0.9-0.9-1.8-1.8-2.7-2.8L229,274l-0.3-0.4c-0.1-0.1-0.2-0.1-0.3-0.2c-0.4-0.2-0.9-0.5-1.3-0.7
			c-0.9-0.6-1.7-1.3-2.5-2c-3.2-3-5.7-7.1-7-11.9c-0.3-1.2-0.6-2.5-0.8-3.8c-0.2-1.4-0.3-2.7-0.4-4.1c-0.1-1.4,0-2.8,0-4.3
			c0.1-1.5,0.2-2.9,0.3-4.4c0.7-5.9,2.3-12.1,4.8-18.1c2.5-6.1,5.8-12.1,10.3-17.9c4.5-5.8,10.1-11.3,17.3-16
			c1.8-1.2,3.6-2.3,5.6-3.3c1-0.5,2-1,3-1.5c1-0.5,2.1-0.9,3.2-1.4c1.1-0.4,2.2-0.9,3.3-1.3c1.2-0.4,2.3-0.8,3.5-1.1
			c2.4-0.8,4.8-1.3,7.3-1.8c7.2,1.2,14.1,3.3,20.8,6.1l3.5,1.6c1.1,0.5,2.2,1,3.3,1.6c1.1,0.6,2.2,1.1,3.3,1.7l3.4,1.9
			c4.5,2.6,9,5.6,13.6,9.2c4.6,3.6,9.2,7.9,13.6,13c4.4,5.2,8.6,11.2,11.9,18.5c2.4,5.1,4.2,10.9,5.3,16.9c1.1,6,1.3,12.2,0.8,18.3
			c-0.6,6.1-2,12-4.1,17.4c-2.1,5.5-4.9,10.5-8.1,15c4.1-14.3,3-29.2-2.1-40.7c-2.5-5.7-6-10.6-9.7-14.4c-3.8-3.8-7.9-6.6-12-8.7
			c-8.2-4-16.2-5.1-23.6-5c-7.4,0.1-14.3,1.4-20.7,3.3c-3.5,1.4-6.6,3.4-9,5.7c-2.4,2.3-4.1,5-5.6,7.8c-2.8,5.6-3.9,11.7-3.8,17.6
			c-2.2,1.1-4.6,2.7-6.6,4.5c-1,0.9-1.9,1.8-2.5,2.6c-0.2,0.2-0.3,0.4-0.4,0.6c-0.2,0.2-0.3,0.4-0.3,0.5c0,0,0,0,0,0l0,0
			c0,0,0,0,0,0l0,0c0,0,0,0,0,0c0,0,0-0.1,0-0.2l0,0l0,0.2l0,0.4c0,0.3,0,0.6,0,0.8C245.8,280.1,246.1,284.5,246.8,288.6z"/>
	</g>
	<g>
		<path class="st1" d="M255.7,266.4c0-5.9,1.1-12,3.8-17.6c1.4-2.8,3.1-5.5,5.6-7.8c2.4-2.3,5.4-4.3,9-5.7
			c6.4-1.9,13.4-3.2,20.7-3.3c7.3-0.1,15.3,1,23.6,5c4.1,2,8.2,4.8,12,8.7c3.8,3.8,7.2,8.7,9.7,14.4c5.2,11.5,6.3,26.3,2.1,40.7
			c-4.4,6-9.6,11.1-15.4,15.1c-5.8,4-12.2,7-18.8,8.9c-6.7,1.9-13.6,2.6-20.3,2c-6.7-0.5-13.2-1.1-18.6-3.7
			c-5.4-2.5-9.7-7-13.1-10.4c-1.8-1.7-3.2-3.4-4.6-5.2c-1.2-1.7-2.4-3.4-3.3-5.1c-3.7-6.7-4.9-12.7-5-17.6
			c4.9,3.1,10.1,5.8,15.6,7.5c5.4,1.7,11.2,2.3,16.3,1.5c2.6-0.4,4.9-1.2,7-2.2c2.1-1,3.9-2.3,5.4-3.8c1.5-1.4,2.6-3.1,3.5-4.8
			c0.8-1.7,1.4-3.4,1.6-5.1c0.3-1.7,0.3-3.4,0-4.9c-0.2-1.6-0.7-3-1.4-4.3c-1.4-2.6-3.6-4.5-6.2-5.3l-0.1,0c0,0,0,0,0,0l0,0l0.1,0
			l0.1,0c0.1,0,0,0,0,0c0,0,0.1,0,0,0l-0.1,0l-0.2,0l-0.2,0l-0.3,0c-0.1,0-0.3,0-0.4,0.1l-0.5,0.1c-0.3,0.1-0.8,0.2-1.2,0.3
			c-0.2,0.1-0.6,0.2-0.8,0.3l-0.4,0.2l-0.2,0.1l-0.3,0.1c-0.7,0.3-1.2,0.5-2,0.9c-0.3,0.2-0.7,0.3-1,0.5c-0.4,0.2-0.8,0.4-1.1,0.6
			c-0.4,0.2-0.7,0.4-1.1,0.7c-0.4,0.3-0.8,0.5-1.2,0.8c-0.4,0.3-0.7,0.5-1.2,0.9c-0.5,0.3-0.9,0.6-1.3,1c-0.4,0.3-1,0.9-0.9,0.7
			c0,0,0,0,0,0c-0.1-0.1-0.6-0.6-1.4-1.2c-0.8-0.6-2-1.4-3.4-2.2l-1.1-0.6l-1.2-0.6l-0.6-0.3l-0.7-0.3l-1.2-0.5c0,0,0,0,0,0
			c0,0,0,0,0,0c0,0,0,0,0,0c0,0-0.2,0-0.4,0c-0.4,0-1.1,0.1-1.9,0.4C257.9,265.4,256.8,265.8,255.7,266.4z"/>
	</g>
	<g>
		<path class="st2" d="M278.5,265.5c0.8-0.4,1.3-0.6,2-0.9l0.3-0.1l0.2-0.1l0.4-0.2c0.2-0.1,0.6-0.2,0.8-0.3c0.4-0.1,1-0.3,1.2-0.3
			l0.5-0.1c0.1,0,0.3,0,0.4-0.1l0.3,0l0.2,0l0.2,0l0.1,0c0.1,0,0,0,0,0c0,0,0,0,0,0l-0.1,0l-0.1,0l0,0c0,0,0,0,0,0l0.1,0
			c2.6,0.8,4.8,2.7,6.2,5.3c0.7,1.3,1.2,2.8,1.4,4.3c0.2,1.6,0.2,3.2,0,4.9c-0.3,1.7-0.8,3.4-1.6,5.1c-0.8,1.7-2,3.3-3.5,4.8
			c-1.5,1.4-3.3,2.8-5.4,3.8c-2.1,1-4.5,1.8-7,2.2c-5.1,0.8-10.8,0.2-16.3-1.5c-5.5-1.7-10.7-4.3-15.6-7.5c-0.2-6.5,1.6-11.5,3.9-15
			c2.4-3.6,5.5-5.8,9.1-7l1.5-0.5c5.6-1.8,11.7-0.9,17.7,0.3c3,0.6,6.1,1.2,8.8,1.1c0.7,0,1.3-0.1,1.9-0.2c0.6-0.1,1.2-0.3,1.7-0.5
			c0.3-0.1,0.5-0.2,0.7-0.4c0.2-0.1,0.4-0.3,0.6-0.5l0.3-0.2l-0.4,0.5c-0.2,0.2-0.3,0.4-0.5,0.6c-0.2,0.2-0.3,0.5-0.4,0.6
			c-1.1,1.6-1.7,2.8-2,3.6c-0.3,0.8-0.2,1-0.2,0.6c0-0.4-0.1-1.2-0.4-2.1c-0.3-1-0.8-1.9-1.2-2.3c-0.4-0.5-0.6-0.6-0.4-0.5
			c0.2,0.1,0.7,0.4,1,0.4c0.4,0.1,0.3,0-0.5,0.1c-0.8,0.1-2.5,0.4-4.9,1.5C279.2,265.1,278.8,265.3,278.5,265.5z"/>
	</g>
</g>
<g>
	<g>
		<path class="st5" d="M524.7,347.1c-0.7,3.1-1.6,6.2-2.4,9.4l-1.3,4.7l-0.7,2.3l-0.7,2.3c-6.2-20.3-14.1-39.1-23.2-56.6
			c-0.6-1.1-1.1-2.2-1.7-3.3c-0.1-0.1-0.1-0.2-0.2-0.3c0,0,0,0,0,0c1-7.7,1.5-15.2,1.5-22.3v0l0.4-2.8l0.3-3.2l0.5-6.5
			c0.2-2.1,0.2-4.3,0.2-6.5c0-2.2,0.2-4.4,0.1-6.5l-0.2-6.4c0-3.6-0.3-7.3-0.6-10.9c5.1,0.6,9.8,3.3,14.2,7.8c2.5,2.6,4.9,5.8,7,9.6
			c1.1,1.9,2.1,3.9,3,6.1c0.5,1.1,0.9,2.2,1.4,3.3c0.4,1.2,0.8,2.3,1.2,3.5c1.5,4.8,3,10.2,3.9,15.9c0.5,2.9,0.9,5.9,1.2,8.9
			c0.3,3.1,0.4,6.2,0.6,9.5C529.5,318.2,528.3,332.5,524.7,347.1z"/>
	</g>
	<g>
		<path class="st6" d="M519.6,365.8c-4.4,15-10,29.9-16.8,44.4c-6.8,14.6-14.8,28.8-24.3,42.4c0.2-4.1,0.3-8.1,0.3-12.1c0-1,0-2,0-3
			c0-0.4,0-0.8,0-1.1c0-0.8,0-1.6-0.1-2.4c0-0.6,0-1.2-0.1-1.7c0-1.1-0.1-2.2-0.2-3.4c0-0.1,0-0.2,0-0.3c0-0.8-0.1-1.7-0.2-2.5
			c0-0.3,0-0.6-0.1-0.9c0-0.1,0-0.2,0-0.2c-0.1-0.8-0.1-1.7-0.2-2.5c0-0.1,0-0.3,0-0.4c0-0.6-0.1-1.2-0.2-1.8c0-0.2,0-0.4-0.1-0.6
			c-0.1-1.2-0.2-2.4-0.4-3.6c-0.1-0.7-0.2-1.3-0.2-2c-0.1-0.7-0.2-1.3-0.2-2c-0.1-0.5-0.1-1-0.2-1.4c-0.1-0.8-0.2-1.7-0.3-2.5
			c-0.1-0.5-0.1-1-0.2-1.4c-0.1-0.5-0.2-1.1-0.3-1.6c-0.1-0.5-0.2-1.1-0.3-1.6c-0.2-1.2-0.4-2.4-0.6-3.6c-0.2-1.4-0.5-2.8-0.8-4.2
			c-0.1-0.8-0.3-1.6-0.5-2.4c-0.2-0.9-0.4-1.8-0.6-2.7c-0.2-0.9-0.4-1.8-0.6-2.7c-0.2-0.7-0.3-1.5-0.5-2.2c-0.3-1.1-0.5-2.1-0.8-3.2
			c5.8-13.2,10.7-26.7,14.7-40.2l0.8-2.4l0.7-2.4l1.3-4.8c0.9-3.2,1.8-6.5,2.5-9.7c1.5-5.8,2.5-11.5,3.3-17.2
			c0.1,0.1,0.1,0.2,0.2,0.3c0.6,1.1,1.1,2.2,1.7,3.3C505.5,326.8,513.4,345.6,519.6,365.8z"/>
	</g>
	<g>
		<path class="st7" d="M478.8,440.6c0,4-0.1,8-0.3,12.1c-9.5,13.6-20.6,26.5-33.2,38.1c-12.6,11.6-26.8,21.9-42.1,30.1c0,0,0,0,0,0
			c0.9-1.5,1.8-3,2.6-4.6c0.8-1.5,1.7-3,2.5-4.6c0.4-0.8,0.8-1.5,1.2-2.3c0.4-0.8,0.8-1.5,1.1-2.3c0.4-0.8,0.7-1.5,1.1-2.3
			c0.4-0.8,0.7-1.5,1.1-2.3c0.3-0.8,0.7-1.5,1-2.3c0.3-0.8,0.7-1.5,1-2.3l0,0c1.9-4.6,3.6-9.2,5.1-13.9c0.5-1.5,1-3,1.5-4.6
			c0.2-0.8,0.4-1.5,0.7-2.3c0.2-0.6,0.3-1.2,0.5-1.8c0.1-0.4,0.2-0.9,0.3-1.3c0-0.1,0.1-0.2,0.1-0.4c0.1-0.4,0.2-0.7,0.3-1.1
			c0.2-0.8,0.4-1.5,0.6-2.3c0.2-0.8,0.3-1.5,0.5-2.3c0.2-0.8,0.3-1.5,0.5-2.3c0.3-1.5,0.6-3,0.8-4.6l0.7-4.5
			c0.2-1.1,0.3-2.1,0.5-3.1v0c6-6.9,11.6-14,16.8-21.4c9.9-14.1,18.2-28.8,25.2-43.9c0.9-1.9,1.8-3.8,2.6-5.8c0.3,1,0.5,2.1,0.8,3.2
			c0.2,0.7,0.4,1.5,0.5,2.2c0.2,0.9,0.4,1.8,0.6,2.7c0.2,0.9,0.4,1.8,0.6,2.7c0.2,0.8,0.3,1.6,0.5,2.4c0.3,1.4,0.6,2.8,0.8,4.2
			c0.2,1.2,0.4,2.4,0.6,3.6c0.1,0.5,0.2,1.1,0.3,1.6c0.1,0.5,0.2,1.1,0.3,1.6c0.1,0.5,0.1,1,0.2,1.4c0.1,0.8,0.2,1.7,0.3,2.5
			c0.1,0.5,0.1,1,0.2,1.4c0.1,0.7,0.2,1.3,0.2,2c0.1,0.7,0.2,1.3,0.2,2c0.1,1.2,0.3,2.4,0.4,3.6c0,0.2,0,0.4,0.1,0.6
			c0.1,0.6,0.1,1.2,0.2,1.8c0,0.1,0,0.3,0,0.4c0.1,0.8,0.1,1.7,0.2,2.5c0,0.1,0,0.2,0,0.2c0,0.3,0,0.6,0.1,0.9
			c0.1,0.8,0.1,1.7,0.2,2.5c0,0.1,0,0.2,0,0.3c0.1,1.1,0.1,2.2,0.2,3.4c0,0.6,0,1.1,0.1,1.7c0,0.8,0,1.6,0.1,2.4c0,0.4,0,0.8,0,1.1
			C478.8,438.6,478.8,439.6,478.8,440.6z"/>
	</g>
	<g>
		<path class="st5" d="M426.7,453.5c-0.2,1-0.3,2.1-0.5,3.1l-0.7,4.5c-0.2,1.5-0.5,3.1-0.8,4.6c-0.2,0.8-0.3,1.5-0.5,2.3
			c-0.2,0.8-0.3,1.5-0.5,2.3c-0.2,0.8-0.4,1.5-0.6,2.3c-0.1,0.4-0.2,0.7-0.3,1.1c0,0.1-0.1,0.2-0.1,0.4c-0.1,0.4-0.2,0.9-0.3,1.3
			c-0.2,0.6-0.3,1.2-0.5,1.8c-0.2,0.8-0.4,1.5-0.7,2.3c-0.4,1.5-0.9,3.1-1.4,4.6c-1.4,4.7-3.1,9.3-5.1,13.9l0,0
			c-0.3,0.8-0.7,1.5-1,2.3c-0.3,0.8-0.7,1.5-1,2.3c-0.4,0.8-0.7,1.5-1.1,2.3c-0.4,0.8-0.7,1.5-1.1,2.3c-0.4,0.8-0.8,1.5-1.1,2.3
			c-0.4,0.8-0.8,1.5-1.2,2.3c-0.8,1.5-1.6,3.1-2.5,4.6c-0.8,1.5-1.7,3-2.6,4.5c0,0,0,0,0,0c-15.3,8.3-31.6,14.7-48.2,18.9
			c-16.6,4.3-33.4,6.5-49.9,7.2l4.1-2.8c1.4-1,2.7-2,4.1-3c2.7-2,5.3-4.1,7.9-6.1l1.9-1.5l1.9-1.6l3.7-3.3c2.4-2.2,4.8-4.3,7.1-6.6
			c2.3-2.3,4.5-4.6,6.6-7l2.1-2.3c7.2-2.9,14.2-6.3,21-10c0,0,0,0,0,0c15.8-8.6,30.5-19.2,43.5-31.2
			C415.3,465.8,421.2,459.8,426.7,453.5z"/>
	</g>
	<g>
		<path class="st6" d="M315.7,522.3c9.8-2.5,19.4-5.7,28.8-9.6l-2.1,2.3c-2.1,2.3-4.4,4.6-6.6,7c-2.3,2.2-4.7,4.4-7.1,6.6l-3.7,3.3
			l-1.9,1.6l-1.9,1.5c-2.6,2-5.2,4.1-7.9,6.1c-1.3,1-2.7,2-4.1,3l-4.1,2.8l-6.2,0.2c-2,0-4.1,0.2-6.2,0.1l-12.3-0.3l-12.3-0.9
			c-4.1-0.4-8.1-1-12.2-1.5c-16.3-2.3-32.3-6.2-47.9-11.5c0.8-0.2,1.6-0.4,2.4-0.6c0.6-0.2,1.2-0.3,1.8-0.5c0.6-0.2,1.3-0.3,1.9-0.5
			c0.7-0.2,1.4-0.4,2-0.5c0.8-0.2,1.5-0.4,2.3-0.7c0.6-0.2,1.2-0.3,1.8-0.5c1.3-0.4,2.7-0.8,4-1.2h0c0.5,0.1,1,0.1,1.5,0.2l12.7,1
			l12.7,0.3c2.1,0.1,4.2,0,6.4-0.1l6.4-0.2C281.2,529,298.6,526.7,315.7,522.3z"/>
	</g>
	<g>
		<path class="st8" d="M213.3,527.2c3.7,0.5,7.4,1,11.2,1.4c-1.3,0.4-2.7,0.8-4,1.2c-0.6,0.2-1.2,0.3-1.8,0.5
			c-0.8,0.2-1.5,0.4-2.3,0.7c-0.7,0.2-1.4,0.4-2,0.5c-0.6,0.2-1.3,0.3-1.9,0.5c-0.6,0.2-1.2,0.3-1.8,0.5c-0.8,0.2-1.6,0.4-2.4,0.6
			c-12-4.1-23.7-9-35-14.8C186.3,522.2,199.7,525.2,213.3,527.2z"/>
	</g>
</g>
<g class="st9">
	<g>
		<path class="st10" d="M392.2,84c-1.6-0.6-3.2-1.2-4.8-1.8c-15.5-5.6-31.7-9.4-48-11.3c-3.4-0.4-26-5.6-51.7-4.6
			c-36.5,1.3-72.8,13-90.1,22.2c-23.9,12.7-52.2,34.4-70.7,51.4c-20.2,18.5-38.2,51.8-45.7,69.9c-7.5,18.1-14.9,61.2-14.8,74.9
			c0.1,23.2,7,81.4,40.7,145.1c-5.7-2.1-11.7-4.2-17.3-6.8c-2.9-1.3-5.8-2.6-8.7-4c-2.8-1.4-5.7-2.9-8.6-4.4
			c-15.5-27.7-25.8-58.3-30.2-89.7l-0.8-5.9c-0.2-2-0.5-3.9-0.7-5.9c-0.3-4-0.6-7.9-0.9-11.8l-0.3-11.9c0-4,0.1-8,0.2-12.1
			c0.7-16.1,3.1-32.1,7.1-47.8c8-31.3,22.6-60.9,42.4-86.4c19.8-25.5,44.7-46.9,73-62.5c28.2-15.7,59.9-25.4,92-28.4l6-0.5
			c2-0.1,4-0.3,6-0.4l6-0.2l3-0.1l1.5,0l1.5,0c8.2,0.1,16.4,0.5,24.6,1.6c16.3,2,32.5,5.8,48,11.4C365.5,69.2,379.3,75.9,392.2,84z"
			/>
	</g>
</g>
<g class="st9">
	<g>
		<path class="st10" d="M365.9,148.2c-1.2-0.5-2.4-0.9-3.6-1.4c-11.5-4.1-23.5-7-35.6-8.4c-2.6-0.3-19.3-4.1-38.4-3.4
			c-27.1,1-54,9.6-66.9,16.5c-17.7,9.5-38.8,25.5-52.6,38.2c-15,13.7-28.4,38.5-33.9,51.9c-5.6,13.4-11,45.4-11,55.6
			c0.1,17.3,5.2,60.5,30.3,107.8c-4.2-1.5-8.7-3.1-12.9-5.1c-2.1-1-4.3-1.9-6.4-3c-2.1-1.1-4.2-2.2-6.4-3.3
			C117,373.1,109.3,350.3,106,327l-0.6-4.4c-0.2-1.5-0.4-2.9-0.5-4.4c-0.2-2.9-0.5-5.9-0.6-8.8l-0.2-8.8c0-3,0.1-6,0.2-9
			c0.5-11.9,2.3-23.9,5.3-35.5c5.9-23.3,16.8-45.3,31.5-64.2c14.7-18.9,33.2-34.8,54.2-46.4c21-11.6,44.5-18.8,68.3-21.1l4.5-0.3
			c1.5-0.1,3-0.3,4.5-0.3l4.5-0.1l2.2-0.1l1.1,0l1.1,0c6.1,0.1,12.2,0.4,18.3,1.2c12.1,1.5,24.1,4.3,35.6,8.4
			C346.1,137.2,356.3,142.2,365.9,148.2z"/>
	</g>
</g>
<g class="st9">
	<g>
		<path class="st10" d="M317.3,210.7c-0.7-0.3-1.3-0.5-2-0.8c-6.4-2.3-13.1-3.9-19.9-4.7c-1.4-0.2-10.8-2.3-21.5-1.9
			c-15.2,0.6-30.2,5.4-37.4,9.2c-9.9,5.3-21.7,14.3-29.3,21.3c-8.4,7.7-15.8,21.5-18.9,29c-3.1,7.5-6.2,25.4-6.1,31.1
			c0,9.6,2.9,33.8,16.9,60.2c-2.4-0.9-4.8-1.8-7.2-2.8c-1.2-0.5-2.4-1.1-3.6-1.7c-1.2-0.6-2.4-1.2-3.6-1.8
			c-6.4-11.5-10.7-24.2-12.5-37.2l-0.3-2.4c-0.1-0.8-0.2-1.6-0.3-2.5c-0.1-1.6-0.3-3.3-0.4-4.9l-0.1-4.9c0-1.7,0.1-3.3,0.1-5
			c0.3-6.7,1.3-13.3,2.9-19.8c3.3-13,9.4-25.3,17.6-35.8c8.2-10.6,18.6-19.5,30.3-25.9c11.7-6.5,24.8-10.5,38.2-11.8l2.5-0.2
			c0.8-0.1,1.7-0.1,2.5-0.2l2.5-0.1l1.3,0l0.6,0l0.6,0c3.4,0,6.8,0.2,10.2,0.7c6.8,0.8,13.5,2.4,19.9,4.7
			C306.2,204.5,312,207.3,317.3,210.7z"/>
	</g>
</g>
</svg>
