<?xml version="1.0" encoding="utf-8"?>
<!-- Generator: Adobe Illustrator 25.1.0, SVG Export Plug-In . SVG Version: 6.00 Build 0)  -->
<svg version="1.1" id="Layer_1" xmlns="http://www.w3.org/2000/svg" xmlns:xlink="http://www.w3.org/1999/xlink" x="0px" y="0px"
	 viewBox="0 0 612 4717.5" style="enable-background:new 0 0 612 4717.5;" xml:space="preserve">
<style type="text/css">
	.st0{fill:#F388B2;}
	.st1{fill:#F3714A;}
	.st2{fill:#60A353;}
	.st3{fill:#4F8ECB;}
	.st4{fill:#F1D54B;}
	.st5{fill:#93479B;}
	.st6{fill:#EF4043;}
	.st7{fill:#FFFFFF;stroke:#707071;stroke-width:3;}
	.st8{font-family:'OpenSans-Bold';}
	.st9{font-size:17.0083px;}
	.st10{fill:#FFFFFF;}
	.st11{fill:none;stroke:#707071;stroke-width:3;}
	.st12{font-size:19.6968px;}
</style>
<g>
	<g>
		<g>
			<g>
				<g>
					<path class="st0" d="M465.9,2364.9l-75.6,55.5c-2.3-3.1-5.1-6.1-8.6-9.1c-3.5-2.9-7.6-5.8-12.3-8.5
						c-9.4-5.5-21.2-10.3-34.6-14.8l30.2-88.8c16.2,5.5,33.7,12.2,51.4,22.4c8.8,5.1,17.7,11.1,26.1,18.3
						C450.9,2347,459,2355.4,465.9,2364.9z"/>
				</g>
				<g>
					<path class="st0" d="M207.8,3578.5l-72.2,59.8c-11.7-14.1-22.6-29.7-31.6-47.1c-9-17.3-16.2-36.6-20.1-57.2l92.2-17.2
						c1.9,10.2,5.6,20.6,11,31C192.5,3558.3,199.6,3568.6,207.8,3578.5z"/>
				</g>
				<g>
					<path class="st0" d="M253.1,1184.4l-83-43.7c8.1-15.4,16.7-29.7,25-43.3l12.3-20l12.2-19.9l80,48.9l-12.3,20.1l-12.3,19.9
						C267.1,1159.6,259.6,1172.1,253.1,1184.4z"/>
				</g>
				<g>
					<path class="st1" d="M250.4,679.8c0-3,0-6,0.2-9c0.1-3,0.4-5.9,0.7-8.8c0.7-5.7,1.6-11.4,2.9-16.7c2.5-10.8,5.9-20.6,9.7-29.7
						c3.8-9.2,8-17.5,12.3-25.5c4.3-7.9,8.8-15.4,13.2-22.6l79.8,49.4c-3.8,6.1-7.3,12.1-10.5,17.9c-3.1,5.8-5.9,11.4-8.1,16.7
						c-2.2,5.3-3.9,10.3-4.9,14.8c-1.1,4.5-1.5,8.5-1.4,12.1L250.4,679.8z"/>
				</g>
				<g>
					<path class="st2" d="M289.4,567.6c8.9-14.3,17.7-27.4,25.8-40c8.1-12.6,15.4-24.6,21-36l84.1,41.5
						c-8.2,16.7-17.3,31.3-26.1,45.1c-8.8,13.7-17.4,26.6-25,38.8L289.4,567.6z"/>
				</g>
				<g>
					<path class="st3" d="M336.1,491.6c5.6-11.4,9.4-22,10.8-30.9c0.8-4.5,0.9-8.6,0.6-12.4c-0.3-3.8-1.1-7.6-2.3-11.2l88.7-30.5
						c3.8,11.2,6.3,22.9,7.1,34.6c0.9,11.7,0.3,23.4-1.5,34.3c-1.8,11-4.6,21.3-7.9,30.8c-3.4,9.5-7.2,18.5-11.4,26.8L336.1,491.6z"
						/>
				</g>
				<g>
					<path class="st4" d="M345.2,437c-0.7-1.8-1.3-3.6-2.3-5.5c-0.9-1.9-2-3.8-3.2-5.7c-2.5-3.9-5.6-8-9.5-12.3
						c-3.8-4.3-8.3-8.7-13.2-13.1c-4.9-4.5-10.4-9.1-16.1-13.8l59.7-72.4c6.3,5.2,12.8,10.7,19.5,16.7c6.6,6,13.4,12.5,20,19.9
						c6.6,7.3,13.1,15.6,19,24.9c5.9,9.3,11.1,19.7,14.9,30.9L345.2,437z"/>
				</g>
				<g>
					<path class="st5" d="M300.9,386.5l-18.2-14.9c-3.2-2.6-6.4-5.3-9.7-8.1c-1.6-1.4-3.3-2.8-4.9-4.3l-1.2-1.1l-0.6-0.5l-0.7-0.6
						l-2.9-2.6c-7.5-7.1-14.3-14.6-20.6-22.6c-6.3-8-11.9-16.5-17-25.5l81.9-45.7c5.1,9.1,12.2,18.3,19.9,25.5l1.4,1.3l0.4,0.3
						l0.5,0.4l1,0.8c1.3,1.1,2.6,2.3,3.9,3.4c2.7,2.3,5.4,4.6,8.3,7l18.1,14.8L300.9,386.5z"/>
				</g>
				<g>
					<path class="st6" d="M225.2,306.1c-5.1-9.1-9.5-18.8-13.1-29.4c-3.6-10.6-6.1-22.2-7-34.9c-0.1-1.6-0.1-3.2-0.2-4.8l-0.1-2.4
						l0.1-2.5c0-1.7,0.1-3.3,0.2-5c0.1-1.7,0.3-3.4,0.5-5.1c0.1-1.7,0.4-3.4,0.7-5.1c0.3-1.7,0.5-3.4,0.9-5.2
						c0.4-1.7,0.8-3.5,1.2-5.2c0.4-1.7,1-3.5,1.5-5.2c4.3-13.8,12.2-26.9,21.6-37.3l69.4,63.1c-0.1,0.2-0.2,0.3-0.3,0.4
						c-0.1,0.1-0.1,0.1-0.2,0.2c0,0.1-0.1,0.1-0.1,0.2c-0.1,0.1-0.2,0.2-0.3,0.3c0,0.1-0.1,0.2-0.2,0.4c0,0.1-0.1,0.1-0.1,0.2
						c0,0.1,0,0.1-0.1,0.2c0,0.1-0.1,0.2-0.2,0.3c0,0.3-0.2,0.5-0.3,0.8c-0.4,1.1-0.7,3-0.5,5.9c0.2,3,0.9,6.7,2.3,11
						c1.4,4.2,3.4,8.8,6,13.4L225.2,306.1z"/>
				</g>
				<g>
					<path class="st1" d="M135.4,1245c2.3-19,6.9-37.6,13-55.1c6.1-17.5,13.7-34,21.8-49.3l83,43.7c-6.5,12.3-11.9,24.4-16.2,36.4
						c-4.1,12-7.1,23.9-8.5,36L135.4,1245z"/>
				</g>
				<g>
					<path class="st2" d="M219.7,1057.5c16.6-27.1,33.5-54,51.4-80.7l78,52.1c-16.9,25.2-33.2,51.3-49.3,77.6L219.7,1057.5z"/>
				</g>
				<g>
					<path class="st3" d="M271,976.8c8.9-13.4,18.1-26.7,27.8-40.1l7.4-10l7.3-9.6c3.7-4.9,7.2-9.9,10.3-15.1l80.3,48.6
						c-4.9,8.2-10.3,16-16.1,23.6l-6.9,9l-6.5,8.8c-8.7,11.9-17.2,24.4-25.7,37L271,976.8z"/>
				</g>
				<g>
					<path class="st4" d="M323.9,902c3.1-5.2,5.9-10.5,8.4-15.8c2.4-5.3,4.4-10.7,6-15.9c1.6-5.2,2.6-10.3,3.2-15.1
						c0.6-4.8,0.6-9.3,0.2-13.5l93.4-8.8c1.1,11.4,0.8,22.6-0.5,33.3c-1.3,10.7-3.5,21-6.4,30.7c-5.8,19.6-14.2,37.3-24,53.6
						L323.9,902z"/>
				</g>
				<g>
					<path class="st5" d="M341.7,841.7c-0.4-4.2-1.2-7.9-2.5-11.4c-1.2-3.5-2.8-6.6-5.4-10.4c-2.6-3.8-5.8-7.9-10.2-12.5
						c-1-1.1-2.2-2.3-3.4-3.5c-1.2-1.2-2.3-2.4-3.6-3.7l-3.9-3.8l-4.2-4.1l65.7-66.9l4.2,4.1l4.5,4.4c1.5,1.4,3,3.1,4.6,4.7
						c1.6,1.6,3.1,3.1,4.7,4.9c6.3,6.7,13,14.7,19.3,23.9l2.3,3.5l1.1,1.8c0.4,0.6,0.7,1.3,1.1,1.9c1.5,2.5,2.9,5.1,4.3,7.7
						c0.7,1.3,1.3,2.7,2,4c0.6,1.4,1.3,2.7,1.9,4.1c1.1,2.8,2.3,5.5,3.3,8.3c4,11.2,6.6,22.9,7.6,34.3L341.7,841.7z"/>
				</g>
				<g>
					<path class="st6" d="M308.5,792.2l-4.4-4.3l-2.2-2.2l-2.3-2.3l-2.3-2.4c-0.8-0.8-1.5-1.5-2.3-2.4l-4.8-5.2
						c-6.5-7.2-13.1-15.4-19.2-25c-1.5-2.5-3-5-4.4-7.6c-0.4-0.6-0.7-1.3-1.1-1.9l-1-2.1l-2-4.1l-1.9-4.1l-1.6-4.2
						c-1.1-2.8-2-5.7-2.9-8.6c-3.6-11.6-5.5-24-5.6-36.1l93.8-1.3c0.1,1.8,0.1,3.5,0.4,5.1c0.2,1.7,0.7,3.3,1.1,5
						c0.3,0.8,0.5,1.7,0.9,2.5l0.5,1.3c0.2,0.4,0.4,0.8,0.6,1.2c0.2,0.4,0.4,0.8,0.5,1.2l0.3,0.6c0.1,0.2,0.3,0.4,0.4,0.6
						c0.5,0.8,1,1.7,1.5,2.6c2.3,3.6,5.5,7.6,9.4,12.1l3.2,3.4c0.5,0.6,1.1,1.2,1.7,1.8l1.8,1.8l1.8,1.8l2,1.9l4,3.9L308.5,792.2z"
						/>
				</g>
				<g>
					<path class="st1" d="M372.4,1731.6c0.2-1.6,0.3-3.2,0.4-4.8l0.4-4.8l0.2-4.8c0.1-1.6,0.2-3.2,0.1-4.8l0-4.7
						c0-1.6-0.1-3.1-0.1-4.7c-0.1-1.6-0.1-3.1-0.2-4.7l-0.4-4.7l-0.2-2.3l-0.3-2.3l-0.5-4.6c-0.2-1.5-0.5-3-0.7-4.6
						c-0.3-1.5-0.4-3.1-0.8-4.6c-0.7-3-1.2-6-2-9l-1.1-4.5l-1.2-4l89.5-28l2.1,7.2l1.7,6.9c1.2,4.6,2.1,9.3,3.1,13.9
						c0.5,2.3,0.8,4.7,1.2,7c0.4,2.3,0.8,4.7,1.1,7l0.8,7l0.4,3.5l0.3,3.5l0.5,7c0.2,2.3,0.2,4.7,0.3,7c0.1,2.3,0.2,4.7,0.2,7l0,7
						c0,2.3-0.1,4.6-0.2,6.9l-0.3,6.9l-0.5,6.9c-0.2,2.3-0.4,4.6-0.6,6.8L372.4,1731.6z"/>
				</g>
				<g>
					<path class="st2" d="M366.2,1657.7c-3.4-10.8-8.5-21.8-15-32.9c-6.5-11.1-14.4-22.2-23-33.2l73.7-58.1
						c10.6,13.5,21,28,30.3,43.8c9.3,15.9,17.7,33.3,23.6,52.3L366.2,1657.7z"/>
				</g>
				<g>
					<path class="st3" d="M328.1,1591.6c-17.5-22.1-38.2-43.9-59.7-66.4l67.7-64.9c21.7,22.7,44.3,46.2,65.6,73.2L328.1,1591.6z"/>
				</g>
				<g>
					<path class="st4" d="M268.4,1525.2c-21.5-22.5-44.1-45.7-65.7-72.2l72.8-59.2c18,22.1,39,43.9,60.7,66.5L268.4,1525.2z"/>
				</g>
				<g>
					<path class="st5" d="M202.8,1453.1c-10.8-13.2-21.3-27.3-30.9-42.7c-9.6-15.4-18.4-32.3-25.1-50.9l88.3-31.8
						c3.9,10.9,9.5,21.9,16.4,33c6.9,11.1,15.1,22.2,24.1,33.2L202.8,1453.1z"/>
				</g>
				<g>
					<path class="st6" d="M146.7,1359.5c-3.3-9.3-6.1-19-8.2-29c-0.6-2.5-1-5-1.4-7.5c-0.5-2.6-0.7-4.8-1.1-7.1
						c-0.3-2.3-0.6-4.6-0.9-6.9l-0.7-7c-0.8-9.3-1.3-18.8-1-28.3l0-3.6c0-1.2,0.1-2.4,0.2-3.6c0.1-2.4,0.2-4.8,0.4-7.1l0.6-7.1
						c0.2-2.4,0.5-4.7,0.8-7.1l93.1,11.6c-0.2,1.5-0.4,3-0.5,4.5l-0.4,4.6c-0.1,1.5-0.1,3.1-0.2,4.6c0,0.8-0.1,1.5-0.1,2.3l0,2.3
						c-0.2,6.1,0.2,12.3,0.7,18.6l0.5,4.7c0.2,1.6,0.4,3.1,0.6,4.7c0.2,1.5,0.4,3.3,0.7,4.5c0.2,1.3,0.4,2.7,0.7,4
						c1.1,5.3,2.6,10.7,4.6,16.1L146.7,1359.5z"/>
				</g>
				<g>
					<path class="st1" d="M156.4,2258.8c-3.5-13-4.4-25.1-4.2-36.3c0.1-5.6,0.5-10.9,1.1-16.1c0.6-5.1,1.3-10.2,2.3-15
						c1.8-9.7,4.2-18.9,6.8-27.6c2.7-8.8,5.6-17.2,8.7-25.4l87.6,33.6c-2.5,6.4-4.7,12.7-6.5,18.9c-1.9,6.2-3.4,12.2-4.5,17.9
						c-0.6,2.9-0.9,5.5-1.3,8.2c-0.3,2.6-0.5,5-0.5,7.2c-0.1,4.5,0.4,8,1,10.2L156.4,2258.8z"/>
				</g>
				<g>
					<path class="st2" d="M171.1,2138.3c6.3-16.4,13.3-31.8,20.7-46.8c7.4-15,15.2-29.5,23.2-43.7l81.7,46.1
						c-7.3,13-14.4,26.1-20.8,39.1c-6.4,13-12.3,26.1-17.2,38.9L171.1,2138.3z"/>
				</g>
				<g>
					<path class="st3" d="M215,2047.8c16-28.4,32.9-55.6,49.9-82.3l79.1,50.4c-16.6,26-32.6,52-47.4,78L215,2047.8z"/>
				</g>
				<g>
					<path class="st4" d="M264.9,1965.4l25.4-39.6l6.2-9.7l5.9-9.5c1.9-3.2,3.9-6.3,5.8-9.5l2.9-4.8l2.8-4.8l81,47.3l-3.1,5.3
						l-3.2,5.3c-2.1,3.5-4.3,7-6.4,10.5c-2.1,3.5-4.3,6.9-6.5,10.4l-6.4,10l-25.3,39.4L264.9,1965.4z"/>
				</g>
				<g>
					<path class="st5" d="M313.9,1887.6c14.9-25.5,28-51.4,38.3-77.5l87.3,34.2c-12.6,32-28,62-44.6,90.6L313.9,1887.6z"/>
				</g>
				<g>
					<path class="st6" d="M352.2,1810c5.1-13.1,9.5-26.2,12.9-39.3c3.5-13.1,5.9-26.2,7.3-39.1l93.3,9.8c-2,18.2-5.3,35.9-9.8,53.1
						c-4.5,17.1-10.1,33.7-16.3,49.7L352.2,1810z"/>
				</g>
				<g>
					<path class="st1" d="M219,2660.5c2.6-3.6,5.4-7,8-10.5l4.1-5.1l2.1-2.5l2.1-2.5c5.6-6.7,11.4-13.1,17.3-19.3
						c5.9-6.2,11.8-12.3,17.9-18.2c6-5.8,12.1-11.6,18.2-17.1l63.3,69.2c-5.5,5-10.8,10-16,15c-5.2,5-10.2,10.1-15,15.3
						c-4.8,5.2-9.5,10.3-14,15.7l-1.7,2l-1.6,2l-3.3,4c-2.1,2.7-4.3,5.4-6.2,8.1L219,2660.5z"/>
				</g>
				<g>
					<path class="st2" d="M288.6,2585.3c12.1-11.1,24.3-21.7,36.2-31.9c11.8-10.2,23.2-20.1,33.7-29.9l64.2,68.4
						c-12.4,11.6-24.6,22.2-36.5,32.4c-11.8,10.2-23.3,20.2-34.2,30.2L288.6,2585.3z"/>
				</g>
				<g>
					<path class="st3" d="M358.5,2523.6c10.4-9.7,19.7-19.4,26.8-28.6c3.5-4.6,6.5-9,8.7-13.2c2.2-4.2,3.8-8.1,4.8-11.7l90.6,24.4
						c-3.1,11.4-7.5,22.1-12.7,31.7c-5.2,9.6-11,18.2-16.9,26c-6,7.8-12.2,14.9-18.4,21.4c-6.2,6.6-12.5,12.7-18.7,18.5
						L358.5,2523.6z"/>
				</g>
				<g>
					<path class="st4" d="M398.7,2470c0.1-0.5,0.3-0.9,0.4-1.4c0.1-0.5,0.2-0.9,0.3-1.4c0.1-0.5,0.2-0.9,0.3-1.4
						c0-0.5,0.1-0.9,0.2-1.4c0.1-0.5,0.2-0.9,0.2-1.4c0-0.5,0-0.9,0.1-1.4l0.1-0.7l0-0.3c0-0.1,0-0.3,0-0.5l0-2c0-1.3,0.1-2.7,0-4.1
						c-0.1-1.3-0.1-2.6-0.2-3.9c0-1.3-0.2-2.5-0.3-3.7l-0.2-1.8c0-0.3,0-0.6-0.1-0.9l-0.2-0.8c-0.2-1.1-0.4-2.3-0.6-3.4
						c-0.3-1.1-0.6-2.1-0.8-3.2l-0.2-0.8c-0.1-0.3-0.2-0.5-0.3-0.7l-0.5-1.5l-0.5-1.5l-0.6-1.4c-1.5-3.7-3.3-7-5.6-10.2l75.6-55.5
						c6.9,9.5,12.7,19.9,17,30.7l1.6,4.1c0.5,1.4,0.9,2.7,1.4,4.1l1.3,4.1c0.2,0.7,0.4,1.4,0.6,2.1l0.5,2c0.7,2.7,1.4,5.5,2,8.2
						c0.5,2.7,1,5.4,1.5,8.1l0.3,2c0.1,0.7,0.2,1.3,0.3,2l0.5,4c0.3,2.7,0.6,5.4,0.7,8l0.4,7.8c0.1,2.6,0,5.1,0,7.7l-0.1,3.8
						c0,0.3,0,0.6,0,1l-0.1,1.1l-0.1,2.2l-0.3,4.5c-0.1,1.5-0.4,3-0.5,4.5l-0.6,4.4c-0.2,1.5-0.6,2.9-0.8,4.4l-0.9,4.4l-1.1,4.3
						L398.7,2470z"/>
				</g>
				<g>
					<path class="st5" d="M334.8,2388c-6.7-2.3-13.9-4.5-21.8-7.1c-2-0.7-4-1.3-6.2-2.1l-3.1-1.1c-0.4-0.1-0.7-0.2-1.1-0.4
						c-1.8-0.6-5-1.4-8.5-2.2l-11.6-2.8c-4.2-1-8.6-2.2-13.1-3.5c-9.1-2.6-18.8-6-28.5-10.4l39.1-85.3c4.5,2,9.6,3.9,15.5,5.6
						c2.9,0.9,6.1,1.7,9.5,2.5l11.2,2.7c4.1,1,8.6,2.1,14.2,3.8l4.5,1.5l2.4,0.8c1.5,0.5,3.3,1.1,5,1.7c6.9,2.3,14.7,4.7,22.8,7.4
						L334.8,2388z"/>
				</g>
				<g>
					<path class="st6" d="M240.9,2358.4c-9.7-4.4-19.5-10.1-28.7-16.9c-9.2-6.8-17.7-14.9-25-23.7c-7.3-8.8-13.5-18.3-18.4-28
						c-1.2-2.4-2.4-4.8-3.6-7.3l-3.1-7.3c-1-2.4-1.8-4.9-2.8-7.3l-0.7-1.8c-0.1-0.3-0.3-0.8-0.4-1.1l-0.4-1.2
						c-0.5-1.6-1-3.3-1.5-4.9l90.5-24.6c0.1,0.3,0.2,0.5,0.2,0.7l0,0.2c0,0.1,0,0.1,0.1,0.3l0.4,0.9c0.5,1.2,0.9,2.5,1.4,3.7
						c0.5,1.1,1,2.3,1.5,3.5l1.6,3.3c2.2,4.2,4.6,7.9,7.3,11.1c2.7,3.2,5.5,6,8.9,8.5c3.4,2.5,7.2,4.8,11.7,6.8L240.9,2358.4z"/>
				</g>
				<g>
					<path class="st1" d="M262,3196.2c1.4-5.4,2.5-10.9,3.1-16.4c0.3-2.8,0.5-5.5,0.6-8.3l0.1-1l0-0.5c0-0.2,0-0.3,0-0.4l-0.1-1.5
						l0-1.5l0-0.7c0-0.3-0.1-0.5-0.1-0.8c-0.1-1.1-0.2-2.1-0.3-3.2c0-0.5-0.2-1.1-0.3-1.7l-0.3-1.7l-0.3-1.7
						c-0.1-0.6-0.3-1.2-0.4-1.8c-0.3-1.2-0.6-2.4-0.9-3.6l-1.2-3.8c-0.2-0.6-0.4-1.3-0.6-1.9l-0.8-2l-1.5-4l-1.8-4.2l86-37.5
						l2.8,6.6c0.9,2.3,1.8,4.6,2.6,6.9l1.3,3.5c0.4,1.2,0.8,2.4,1.2,3.7l2.3,7.4l1.9,7.7c0.3,1.3,0.6,2.6,0.9,3.9l0.7,4.1l0.7,4.1
						c0.2,1.4,0.5,2.7,0.6,4.1c0.3,2.8,0.6,5.7,0.8,8.5c0.1,0.7,0.1,1.4,0.2,2.1l0.1,2.2l0.1,4.4l0,4.4l0,1.1l0,0.9l-0.1,1.9
						c-0.2,5-0.6,10-1.1,15.1c-1.1,10-3,20-5.6,29.7L262,3196.2z"/>
				</g>
				<g>
					<path class="st2" d="M257.3,3135.4c-0.3-0.7-0.6-1.4-0.9-2.1l-1-2.1l-2-4.3l-2.3-4.4c-0.7-1.5-1.5-2.9-2.3-4.4l-2.5-4.5
						c-0.8-1.5-1.8-3-2.6-4.5c-0.9-1.5-1.7-3-2.7-4.6l-2.8-4.6c-7.5-12.3-16-25-24.7-38.3l78.5-51.4c8.5,12.9,17.3,26.2,26.2,40.6
						l3.3,5.4c1.1,1.8,2.2,3.7,3.3,5.6c1.1,1.9,2.2,3.7,3.3,5.6l3.2,5.8c1.1,1.9,2.1,3.9,3.2,5.9l3.1,6l3,6.3l1.5,3.2
						c0.5,1.1,1,2.2,1.4,3.3L257.3,3135.4z"/>
				</g>
				<g>
					<path class="st3" d="M213.5,3061.7c-8.7-13.2-17.6-27-26.2-41.7c-8.6-14.8-16.9-30.5-24-47.9l86.9-35.4
						c4.8,11.6,10.9,23.6,18.1,35.9c7.2,12.3,15.2,24.7,23.7,37.7L213.5,3061.7z"/>
				</g>
				<g>
					<path class="st4" d="M163.2,2972l-1.3-3.2c-0.4-1.1-0.8-2.2-1.2-3.3l-2.4-6.7c-0.4-1.1-0.8-2.3-1.2-3.4l-1.1-3.5
						c-0.7-2.3-1.5-4.6-2.1-7l-1.9-7.2l-0.9-3.6l-0.7-3.7l-1.4-7.5c-0.4-2.5-0.7-5.1-1.1-7.7l-0.5-3.8l-0.2-1.9l-0.1-2l-0.5-7.9
						l-0.1-2l-0.1-1l0-0.8l0-3.3l-0.1-6.5c0-8.7,0.2-17.5,0.7-26.3l93.7,5.4c-0.4,6.8-0.6,13.7-0.6,20.6l0.1,5.2l0,2.6l0,0.6l0,0.5
						l0.1,1c0.1,1.3,0.2,2.6,0.2,3.8l0,1l0.1,1l0.3,2c0.2,1.3,0.3,2.6,0.5,4l0.8,4l0.4,2l0.5,2.1l1,4.1c0.4,1.4,0.9,2.8,1.3,4.2
						l0.7,2.1c0.2,0.7,0.4,1.4,0.7,2.1l1.6,4.3c0.3,0.7,0.5,1.4,0.8,2.2l0.9,2.2L163.2,2972z"/>
				</g>
				<g>
					<path class="st5" d="M146.9,2859.7c1-17.6,3.1-35.2,6.6-52.8c3.4-17.6,8.2-35,14.3-52l88.3,31.7c-9,24.8-14,51.2-15.5,78.5
						L146.9,2859.7z"/>
				</g>
				<g>
					<path class="st6" d="M167.8,2754.9c0.8-2.1,1.5-4.3,2.3-6.4l2.5-6.3l1.3-3.1l1.3-3.1l2.7-6.2c0.9-2.1,1.9-4.1,2.9-6.1
						c1-2,1.9-4.1,2.9-6.1c2.1-4,4.1-8.1,6.3-12c4.3-7.9,9-15.6,13.7-23.1c4.9-7.4,9.9-14.8,15.2-21.8l75.2,56.1
						c-4.1,5.4-7.9,11-11.6,16.6c-3.6,5.7-7.1,11.3-10.2,17.2c-6.4,11.6-11.8,23.7-16.2,36.1L167.8,2754.9z"/>
				</g>
				<g>
					<path class="st1" d="M309.7,3753.5c-14.5-5.6-29.7-11.2-45.4-18.1c-15.7-6.8-32-14.8-48.2-25.1l50.4-79.1
						c10.2,6.5,22.1,12.5,35,18.1c12.9,5.6,27,10.9,41.7,16.6L309.7,3753.5z"/>
				</g>
				<g>
					<path class="st2" d="M216.1,3710.4l-3-1.9c-0.5-0.3-1-0.6-1.5-1l-1.5-1.1l-6-4.3l-3-2.2c-1-0.7-2-1.5-2.8-2.1l-5.1-4
						c-6.8-5.4-13.5-11-20.1-16.9c-13.1-11.8-25.7-24.5-37.5-38.7l72.2-59.8c8.2,9.9,17.6,19.5,27.8,28.6c5.1,4.6,10.4,9,15.8,13.3
						l4.1,3.2c0.7,0.6,1.3,0.9,1.9,1.4l1.8,1.3l3.5,2.5l0.9,0.6c0.3,0.2,0.6,0.4,1,0.6l1.9,1.2L216.1,3710.4z"/>
				</g>
				<g>
					<path class="st3" d="M83.9,3534.2c-1.9-10.3-3-20.8-3.1-31.4c-0.1-10.5,0.7-21,2.4-31.4c1.7-10.4,4.3-20.6,7.6-30.3
						c3.3-9.7,7.3-19,11.8-27.7l83.6,42.5c-5.3,10.4-8.7,20.5-10.4,30.6c-0.8,5-1.2,10.2-1.2,15.3c0.1,5.1,0.6,10.1,1.5,15.2
						L83.9,3534.2z"/>
				</g>
				<g>
					<path class="st4" d="M102.5,3413.4c8.9-17.5,19.5-32.9,30.3-46.8c10.9-14,22.1-26.6,33.1-38.5l69,63.6
						c-10.2,11-19.7,21.8-28.1,32.5c-8.3,10.7-15.4,21.3-20.7,31.7L102.5,3413.4z"/>
				</g>
				<g>
					<path class="st5" d="M166,3328c11-11.9,21.8-23.2,32.1-34.3c10.2-11.1,19.9-21.9,28.4-32.7l73.5,58.3
						c-10.9,13.7-22.1,26.2-33,38.1c-11,11.9-21.8,23.2-32,34.2L166,3328z"/>
				</g>
				<g>
					<path class="st6" d="M226.5,3261c8.6-10.8,16.1-21.6,22.1-32.4c6-10.8,10.5-21.6,13.4-32.4l90.7,23.9
						c-5.1,19.4-12.9,37.7-22.2,54.2c-9.2,16.5-19.7,31.4-30.6,45.1L226.5,3261z"/>
				</g>
				<g>
					<path class="st1" d="M243.3,4071.5l5.5-3.9l5.3-3.6l5.3-3.6l5.2-3.4l5.2-3.4l5.1-3.2l5.1-3.2l5.1-3.2
						c13.5-8.4,26.8-16.5,39.5-24.6l50.2,79.3c-13.7,8.6-27.1,16.8-40.2,24.9l-4.9,3l-4.8,3l-4.8,3l-4.6,3l-4.6,3l-4.4,3l-4.4,3
						l-4.1,2.9L243.3,4071.5z"/>
				</g>
				<g>
					<path class="st2" d="M324.7,4019.5c3.2-2,6.4-4,9.5-6.1c3.1-2,6.2-4,9.2-6.1c2.9-2,6-4,8.9-6.1l4.2-3c1.4-1,2.9-2,4.1-3l3.9-3
						l2-1.5l1.7-1.5l3.5-2.9c0.3-0.2,0.6-0.5,0.8-0.7l0.7-0.7l1.4-1.3l1.4-1.3l0.7-0.7l0.8-0.8l3.2-3.4l1.6-1.7l1.5-1.7l3.1-3.5
						l71.5,60.7l-4.7,5.3l-2.3,2.6l-2.4,2.6l-4.9,5.1l-1.2,1.3l-1.4,1.3l-2.9,2.7l-2.9,2.7l-1.4,1.3c-0.5,0.5-0.9,0.8-1.4,1.2
						l-5.5,4.6l-2.8,2.3l-2.7,2.1l-5.4,4.1c-1.8,1.4-3.6,2.6-5.3,3.9l-5.3,3.8c-3.5,2.5-7,4.8-10.5,7.2c-3.5,2.4-6.9,4.5-10.4,6.8
						c-3.5,2.3-6.9,4.4-10.3,6.6L324.7,4019.5z"/>
				</g>
				<g>
					<path class="st3" d="M387.1,3970.6c8.1-9.4,14.9-19.6,20.6-30.3c5.7-10.7,10.2-21.9,13-33.2l90.9,23.3c-4.8,19-12,37-21,53.9
						c-9,16.9-19.7,32.7-32,47.1L387.1,3970.6z"/>
				</g>
				<g>
					<path class="st4" d="M420.8,3907.1l1.1-4.3l0.8-4.3c0.7-2.8,0.9-5.7,1.4-8.5c0.1-0.7,0.2-1.4,0.2-2.1l0.2-2.1l0.2-2.1
						c0.1-0.7,0.1-1.4,0.1-2.1c0.1-2.8,0.3-5.7,0.1-8.4c0-1.4,0-2.8-0.1-4.2l-0.3-4.1c-0.1-0.7-0.1-1.4-0.2-2.1l-0.3-2l-0.5-4.1
						l-0.8-4l-0.4-2l-0.5-2l-1-3.9c-0.4-1.3-0.8-2.6-1.2-3.8l89.2-29.1c0.8,2.4,1.6,4.9,2.3,7.3l1.9,7.4c0.3,1.2,0.6,2.5,0.9,3.7
						l0.7,3.7l1.4,7.5l1,7.5l0.5,3.8c0.1,1.3,0.2,2.5,0.3,3.8l0.6,7.5c0.1,2.5,0.1,5,0.2,7.5c0.2,5-0.1,10-0.3,15
						c0,1.3-0.1,2.5-0.2,3.7l-0.3,3.7l-0.3,3.7c-0.1,1.2-0.2,2.5-0.4,3.7c-0.7,4.9-1.3,9.8-2.3,14.6l-1.4,7.2l-1.8,7.1L420.8,3907.1
						z"/>
				</g>
				<g>
					<path class="st5" d="M419.6,3840.7c-3.2-10.3-8.3-19.8-14.6-28.6c-6.3-8.8-14.2-16.7-23.3-23.7l57.1-74.4
						c15.7,12,30.2,26.4,42.1,43c12,16.5,21.6,35.1,27.9,54.6L419.6,3840.7z"/>
				</g>
				<g>
					<path class="st6" d="M381.7,3788.5l-3.4-2.6l-3.5-2.3c-1.2-0.8-2.3-1.6-3.5-2.4l-3.9-2.3c-1.3-0.8-2.6-1.5-3.9-2.3l-4.3-2.2
						l-4.3-2.2l-4.6-2.1c-12.3-5.7-26-11-40.4-16.6l33.6-87.6c14.7,5.7,30.2,11.6,46.3,19.1l6,2.8l6.1,3.1l6.1,3.2
						c2.1,1.1,4.2,2.4,6.2,3.6l6.2,3.6c2.1,1.3,4.2,2.7,6.3,4.1l6.2,4.2l5.9,4.5L381.7,3788.5z"/>
				</g>
				<g>
					<path class="st1" d="M261.8,4531.6c4.2-9.2,9.2-18.1,14.5-26.3c5.3-8.3,10.9-15.7,15.9-22.2l7-9.1c2.1-2.8,4.1-5.4,5.7-7.8
						c0.4-0.6,0.8-1.2,1.2-1.8c0.4-0.6,0.8-1.2,1.1-1.7c0.7-1.1,1.4-2.2,2-3.3c1.3-2.1,2.3-4.2,3.2-6.2l85.5,38.5
						c-2.3,5-4.8,10-7.5,14.6c-1.3,2.4-2.7,4.5-4.1,6.8c-0.7,1.1-1.4,2.1-2.1,3.2c-0.7,1.1-1.4,2.1-2.1,3.1
						c-2.8,4.1-5.5,7.7-8.1,11.2l-7.3,9.5c-4.5,5.9-8.3,11-11.4,15.9c-3.2,4.9-5.8,9.7-8.1,14.7L261.8,4531.6z"/>
				</g>
				<g>
					<path class="st2" d="M312.3,4453.3c1.8-4.1,3.3-8.4,4.4-13.2c1.1-4.9,1.8-10.3,2.3-16.2l0.2-4.5c0.1-1.5,0.1-3.1,0.1-4.6l0-1.2
						l0-0.6l0-0.3c0-0.3,0-0.7,0-1c0-0.3-0.1-0.6-0.1-0.9c0-0.3-0.1-0.5-0.1-0.7c-0.1-0.9-0.3-1.5-0.4-1.8c-0.1-0.4-0.2-0.6-0.5-0.9
						l78.8-50.9c4,6.2,7.4,13,9.9,20c2.5,7,4.2,14.1,5.1,20.9c0.2,1.7,0.4,3.4,0.6,5.1c0.1,1.7,0.2,3.3,0.3,5l0.1,4.8l0,1.2l0,0.9
						l0,1.8c-0.1,2.4-0.1,4.7-0.2,7.1l-0.4,7.2c-0.7,9.7-2,19.8-4.3,30.2c-2.3,10.4-5.8,21-10.4,31.2L312.3,4453.3z"/>
				</g>
				<g>
					<path class="st3" d="M318.3,4407.3c-0.2-0.4-0.6-0.9-1.3-1.6c-0.7-0.7-1.8-1.7-3.3-2.8c-3-2.2-7.4-4.8-12.9-7.4
						c-5.5-2.6-11.8-5.3-18.7-8.2c-6.9-2.8-14.4-5.8-22.3-9.1l36.6-86.4c6.5,2.8,13.5,5.5,21.1,8.6c7.6,3.1,15.6,6.4,24.2,10.6
						c8.6,4.2,17.9,9.2,27.5,16.3c4.8,3.5,9.7,7.6,14.5,12.5c4.8,4.8,9.4,10.4,13.4,16.6L318.3,4407.3z"/>
				</g>
				<g>
					<path class="st4" d="M259.7,4378.2c-7.9-3.4-16.3-7.1-24.9-11.7c-8.6-4.6-17.7-10.1-26.6-17.1c-8.9-7-17.8-15.6-25.3-25.8
						c-3.8-5.1-7.1-10.6-10.1-16.3l-1.1-2.1c-0.4-0.7-0.7-1.5-1-2.2l-2-4.5c-0.6-1.5-1.1-2.9-1.7-4.4c-0.6-1.5-1.1-2.9-1.5-4.3
						l89.1-29.5c0.1,0.5,0.3,0.8,0.4,1.2l0.4,1.1c0.2,0.3,0.3,0.6,0.4,0.9c0.1,0.2,0.1,0.3,0.2,0.5l0.3,0.5c0.7,1.3,1.4,2.5,2.2,3.6
						c1.8,2.4,4.1,4.8,7.5,7.5c3.4,2.6,7.7,5.4,12.9,8.1c5.1,2.7,11,5.4,17.5,8.2L259.7,4378.2z"/>
				</g>
				<g>
					<path class="st5" d="M165.4,4289.8c-3.8-11.5-5.8-22.5-6.8-33.2c-1-10.7-1-21-0.3-31.1c1.4-20.2,5.7-39.7,12.4-58.5l88.2,32
						c-3.9,10.6-6.3,22-7.1,33c-0.4,5.5-0.3,10.8,0.1,15.7c0.5,4.9,1.4,9.3,2.5,12.7L165.4,4289.8z"/>
				</g>
				<g>
					<path class="st6" d="M170.7,4167c6.8-18.7,16.2-36.8,28.6-53.3c6.2-8.3,13.1-16.1,20.8-23.4c1.9-1.8,3.8-3.6,5.9-5.3l3-2.6
						c1-0.8,2.1-1.8,3-2.4l5.7-4.4c0.9-0.7,1.9-1.5,2.8-2.1l2.7-1.9l54.8,76.1l-2.1,1.5c-0.7,0.5-1.2,0.9-1.9,1.4l-3.6,2.8
						c-0.7,0.5-1.1,0.9-1.6,1.3l-1.4,1.2c-1,0.8-1.9,1.7-2.8,2.5c-3.7,3.5-7.1,7.4-10.3,11.6c-6.4,8.5-11.7,18.4-15.5,29.1
						L170.7,4167z"/>
				</g>
			</g>
		</g>
	</g>
</g>
<path id="Path_38" class="st7" d="M219.2,143.2l22.7,90.9l96.6-10.5l-26.8-18.1l50-74.2l-66-44.5l-50,74.2L219.2,143.2z"/>
<text transform="matrix(0.5736 -0.8192 0.8192 0.5736 286.9077 177.391)" class="st8 st9">START</text>
<g id="Rectangle_187" transform="translate(20.184 4430.304)">
	<rect x="212" y="82.2" class="st10" width="171.1" height="107.1"/>
	<rect x="213.8" y="84" class="st11" width="167.4" height="103.4"/>
</g>
<text transform="matrix(1 0 0 1 292.8258 4573.3989)" class="st8 st12">END</text>
</svg>
