<?xml version="1.0" encoding="utf-8"?>
<!-- Generator: Adobe Illustrator 25.1.0, SVG Export Plug-In . SVG Version: 6.00 Build 0)  -->
<svg version="1.1" id="Layer_1" xmlns="http://www.w3.org/2000/svg" xmlns:xlink="http://www.w3.org/1999/xlink" x="0px" y="0px"
	 viewBox="0 0 1195.5 3156.7" style="enable-background:new 0 0 1195.5 3156.7;" xml:space="preserve">
<style type="text/css">
	.st0{fill:#60A353;}
	.st1{fill:#F388B2;}
	.st2{fill:#F3714A;}
	.st3{fill:#4F8ECB;}
	.st4{fill:#F1D54B;}
	.st5{fill:#93479B;}
	.st6{fill:#EF4043;}
	.st7{fill:#FFFFFF;}
	.st8{fill:none;stroke:#707071;stroke-width:3;}
	.st9{font-family:'OpenSans-Bold';}
	.st10{font-size:16px;}
	.st11{fill:#636466;}
	.st12{fill:none;stroke:#BDB5B3;stroke-miterlimit:10;}
	.st13{fill:#FFFFFF;stroke:#707071;stroke-width:3;}
</style>
<g>
	<g>
		<g>
			<g>
				<g>
					<path class="st0" d="M408.9,1726.8c-12.4-2.2-24.9-4.3-37.7-6.3l-9.6-1.5l-9.9-1.6c-6.6-1.1-13.2-2.3-19.9-3.5l14.4-76.4
						c6.1,1.1,12.2,2.2,18.4,3.3l9.3,1.5l9.6,1.5c12.9,2.1,25.9,4.2,39,6.5L408.9,1726.8z"/>
				</g>
				<g>
					<path class="st1" d="M331.8,1713.8c-13.3-2.5-26.8-5.4-40.4-8.9c-13.6-3.5-27.3-7.6-41-12.7l27.1-72.9
						c10.6,3.9,21.7,7.3,33.2,10.3c11.5,2.9,23.4,5.5,35.5,7.8L331.8,1713.8z"/>
				</g>
				<g>
					<g>
						<path class="st0" d="M243.8,330.6c14.8-4.4,29.3-7.3,43.7-9.3c14.3-2,28.5-3.1,42.5-3.7l3.2,77.6c-11.9,0.5-23.6,1.5-34.9,3
							c-11.3,1.6-22.3,3.8-32.3,6.8L243.8,330.6z"/>
					</g>
					<g>
						<path class="st2" d="M330,317.6c28-1.1,55.5-0.1,82.8,2.4l-7.1,77.4c-24.3-2.2-48.7-3.1-72.5-2.1L330,317.6z"/>
					</g>
					<g>
						<path class="st3" d="M412.7,320c27.3,2.5,54.3,6.4,81.5,12.3l-16.5,75.9c-23.4-5-47.8-8.6-72.1-10.8L412.7,320z"/>
					</g>
					<g>
						<path class="st4" d="M494.3,332.3c3.4,0.8,6.8,1.5,10.3,2.3c3.4,0.9,6.9,1.7,10.2,2.6c6.6,1.8,13.3,3.5,19.9,5.5l9.9,3
							l9.9,3.2l4.9,1.6l4.9,1.7c3.2,1.2,6.5,2.3,9.7,3.5L547,428.7c-2.9-1-5.7-2-8.6-3l-4.3-1.5l-4.3-1.4l-8.6-2.8l-8.7-2.6
							c-5.8-1.8-11.7-3.3-17.5-4.9c-3-0.8-5.8-1.5-8.6-2.2c-2.9-0.7-5.8-1.3-8.7-2L494.3,332.3z"/>
					</g>
					<g>
						<path class="st5" d="M573.9,355.7c12.9,4.8,25.5,9.9,37.7,15c12.2,5.1,23.8,10.1,35.3,14.7l-29,72.1
							c-12.5-5-24.7-10.3-36.4-15.2c-11.7-4.9-23.1-9.5-34.5-13.8L573.9,355.7z"/>
					</g>
					<g>
						<path class="st6" d="M646.9,385.5c11.5,4.7,22.8,8.8,34.3,12.7l8.6,2.8c2.9,0.9,5.8,1.7,8.7,2.6l4.3,1.3l2.2,0.7l2.2,0.6
							l8.8,2.4l-19.8,75.1l-9.9-2.7l-2.5-0.7l-2.5-0.7l-5-1.5c-3.3-1-6.6-1.9-9.9-3l-9.9-3.2c-13.1-4.4-26.1-9.2-38.6-14.3
							L646.9,385.5z"/>
					</g>
					<g>
						<path class="st0" d="M716,408.6l4.4,1.2l4.3,1.1c2.9,0.7,5.8,1.4,8.7,2.1l8.8,1.9c2.9,0.6,5.9,1.2,8.8,1.7
							c11.8,2.2,23.5,3.9,35,5l-7.3,77.4c-14.3-1.3-28.2-3.4-41.9-6c-3.4-0.6-6.8-1.3-10.3-2l-10.2-2.2c-3.4-0.8-6.8-1.5-10.2-2.4
							l-5.1-1.3l-5-1.3L716,408.6z"/>
					</g>
					<g>
						<path class="st2" d="M786.1,421.5c11.5,1.1,22.7,1.5,32.8,0.9c1.2-0.1,2.6-0.1,3.8-0.2l3.5-0.4l1.8-0.2c0.6,0,1.1-0.2,1.6-0.3
							l3.2-0.6l0.8-0.1l0.7-0.2l1.3-0.4l1.3-0.3l0.7-0.2c0.1,0,0.3-0.1,0.4-0.1l0.5-0.2l7.8-2.6l25.8,73.3l-10.6,3.5l-0.7,0.2
							c-0.2,0.1-0.4,0.1-0.7,0.2l-1.7,0.5l-3.4,0.9l-3.4,0.9l-1.7,0.4l-1.6,0.3l-6.4,1.2c-1.1,0.2-2.2,0.4-3.2,0.5l-3.1,0.4
							l-6.1,0.7c-2,0.2-4,0.3-5.9,0.4c-15.8,0.9-30.5,0.2-44.8-1.1L786.1,421.5z"/>
					</g>
					<g>
						<path class="st3" d="M846.2,416.7c20.6-7.3,39.5-17.6,55.6-30.9l49.6,59.8c-11.9,9.9-24.7,18.5-38.1,25.9
							c-13.4,7.4-27.2,13.5-41.3,18.5L846.2,416.7z"/>
					</g>
					<g>
						<path class="st4" d="M901.9,385.7c16.1-13.3,29.4-29.7,39.4-48.3l68.4,36.9c-7.3,13.5-15.8,26.4-25.6,38.4
							c-9.8,12-20.8,23.1-32.7,32.9L901.9,385.7z"/>
					</g>
					<g>
						<path class="st5" d="M941.3,337.4c10.1-18.7,16.9-39.6,20.7-61.5l76.6,13.3c-5,29-14.3,58.1-28.9,85.1L941.3,337.4z"/>
					</g>
					<g>
						<path class="st6" d="M962,275.9c3.8-22,4.7-44.9,3.1-68l77.5-5.5c2,28.6,1,57.8-4,86.9L962,275.9z"/>
					</g>
					<g>
						<path class="st0" d="M760.5,927.4c-13.6-6.8-26.3-14.5-38.1-22.7c-11.8-8.2-22.9-16.8-33.4-25.3l49.1-60.2
							c19.1,15.6,37.9,29.2,57,38.7L760.5,927.4z"/>
					</g>
					<g>
						<path class="st2" d="M689,879.4c-21-17.2-40.1-34.3-59.2-49.2l47.9-61.2c21.8,17.1,41.3,34.6,60.4,50.1L689,879.4z"/>
					</g>
					<g>
						<path class="st3" d="M629.8,830.2c-19-14.9-37.9-27.4-57.3-35.8l30.8-71.4c14.1,6.1,27.3,13.3,39.6,21.2
							c12.4,7.8,23.9,16.2,34.7,24.8L629.8,830.2z"/>
					</g>
					<g>
						<path class="st4" d="M572.5,794.4c-2.4-1-4.9-2-7.3-3l-7.3-2.6l-7.4-2.2l-7.6-1.8c-11.9-2.5-23.9-4.6-36.1-6.5l11.8-76.8
							c13.4,2.1,26.9,4.5,40.4,7.3l0.6,0.1l0.7,0.2l1.4,0.3l2.9,0.7l5.7,1.4c3.8,1,7.5,2.2,11.2,3.3c3.7,1.2,7.3,2.5,11,3.8
							c3.6,1.4,7.2,2.8,10.7,4.3L572.5,794.4z"/>
					</g>
					<g>
						<path class="st5" d="M506.8,778.4c-12.2-1.9-24.5-3.4-36.9-4.8c-12.4-1.4-25-2.5-37.6-3.5l6.3-77.5
							c13.2,1.1,26.4,2.3,39.8,3.8c13.3,1.5,26.7,3.2,40.2,5.2L506.8,778.4z"/>
					</g>
					<g>
						<path class="st6" d="M432.3,770.1c-25.3-2.1-51-3.6-77.1-5.5l5.5-77.5c25.6,1.8,51.6,3.4,77.9,5.6L432.3,770.1z"/>
					</g>
					<g>
						<path class="st0" d="M355.2,764.6l-9.8-0.7c-3.5-0.3-7-0.6-10.6-0.9c-7-0.7-14.1-1.5-21.2-2.6c-7.1-1-14.1-2.2-21.2-3.7
							c-3.5-0.7-7.1-1.5-10.6-2.3c-3.5-0.9-7.1-1.7-10.6-2.7l20.1-75.1c2.7,0.8,5.5,1.4,8.2,2.1c2.8,0.6,5.5,1.3,8.4,1.8
							c5.6,1.2,11.3,2.1,17.1,3c5.7,0.9,11.6,1.5,17.4,2.1c2.9,0.3,5.9,0.5,8.8,0.8l9.6,0.7L355.2,764.6z"/>
					</g>
					<g>
						<path class="st2" d="M271.2,751.7c-3.5-0.9-7.1-2-10.6-3c-3.5-1.1-7.1-2.2-10.6-3.5c-3.5-1.2-7-2.5-10.6-3.8
							c-3.5-1.4-7-2.8-10.5-4.4c-3.5-1.5-7-3.2-10.4-4.8c-3.4-1.8-6.9-3.5-10.3-5.4c-6.8-3.8-13.5-7.9-20-12.6l45-63.3
							c16.2,11.5,36.3,20,58,25.8L271.2,751.7z"/>
					</g>
					<g>
						<path class="st3" d="M188.2,714.2c-13-9.2-25.3-20.3-35.9-33.1c-5.3-6.4-10.1-13.2-14.5-20.4c-4.5-7.5-8-14.5-11.2-21.5
							l70.8-32c2.2,4.8,4.5,9.4,6.7,13c2.4,3.9,5.1,7.6,8,11.2c6,7.1,13,13.6,21.1,19.3L188.2,714.2z"/>
					</g>
					<g>
						<path class="st4" d="M101.5,554.2c-0.3-2-0.6-3.9-0.7-6.1l-0.3-3.1c-0.1-1.1-0.2-2.1-0.2-3.1l-0.5-11.7
							c0-7.8,0.1-15.7,0.9-23.6c1.5-15.8,4.8-31.7,10-47l73.5,25.3c-3.1,9.2-5.2,18.9-6.1,28.9c-0.6,5-0.6,10.1-0.6,15.2l0.3,7.7
							c0,0.7,0.1,1.2,0.1,1.8l0.2,1.7c0.1,1.1,0.3,2.3,0.4,3.6L101.5,554.2z"/>
					</g>
					<g>
						<path class="st1" d="M126.6,639.3c-3.2-6.9-5.8-13.8-8.4-20.6c-2.5-6.9-4.8-13.7-6.8-20.7c-2.1-7-4-14-5.6-21.2
							c-0.9-3.6-1.6-7.3-2.3-11c-0.4-1.9-0.7-3.8-1-5.7c-0.3-1.9-0.6-3.9-0.9-5.9l77-10.5c0.2,1.2,0.3,2.4,0.6,3.8l0.7,3.9
							c0.5,2.7,1,5.3,1.7,8c1.2,5.4,2.7,10.9,4.3,16.4c1.6,5.5,3.5,10.9,5.4,16.2c2,5.3,4,10.5,6.2,15.3L126.6,639.3z"/>
					</g>
					<g>
						<path class="st5" d="M110.7,459.6c5.2-15.3,12.5-29.9,21.2-43.3c8.7-13.4,18.9-25.6,30-36.6l54.4,55.5
							c-14.7,14.5-25.8,31.2-32.1,49.6L110.7,459.6z"/>
					</g>
					<g>
						<path class="st6" d="M161.9,379.8c2.8-2.7,5.6-5.4,8.5-8l8.8-7.4c1.5-1.3,3-2.4,4.5-3.5l4.6-3.4l2.3-1.7
							c0.4-0.3,0.7-0.6,1.2-0.9l1.4-0.9l5.6-3.7l1.4-0.9l1.4-0.8l2.8-1.6c1.9-1,3.8-2.2,5.7-3.1l5.7-2.7c0.9-0.4,1.9-0.9,2.8-1.3
							l2.8-1.2l5.6-2.3c1.9-0.8,3.7-1.4,5.6-2c1.9-0.6,3.7-1.4,5.6-1.9l5.6-1.7l22.2,74.5l-3.7,1.1c-1.2,0.4-2.4,0.8-3.6,1.3
							c-1.2,0.4-2.4,0.8-3.5,1.3l-3.3,1.4l-1.7,0.7c-0.5,0.2-1,0.5-1.6,0.8l-3.1,1.5c-1,0.5-1.9,1.1-2.9,1.6l-1.4,0.8l-0.7,0.4
							l-0.6,0.4c-0.8,0.6-1.7,1.1-2.5,1.6l-0.6,0.4c-0.2,0.2-0.5,0.4-0.8,0.6l-1.6,1.2l-3.2,2.4c-1.1,0.8-2.2,1.6-3.2,2.4l-6,5.1
							c-1.9,1.8-3.8,3.6-5.7,5.3L161.9,379.8z"/>
					</g>
					<g>
						<path class="st0" d="M661.1,1135.2c26.4,8.8,51.1,19.1,75,28.9l-29.5,71.9c-24.1-9.9-47.3-19.5-70-27L661.1,1135.2z"/>
					</g>
					<g>
						<path class="st2" d="M736.1,1164.1l17.7,7.2l4.2,1.7c1.3,0.5,2.7,1,4.1,1.6c2.7,1,5.5,2,8.2,3c11.1,3.9,22.6,7.3,34.1,10.3
							l-19.4,75.2c-13.5-3.5-26.9-7.5-40.3-12.2c-3.3-1.2-6.7-2.4-10-3.6c-1.7-0.6-3.3-1.3-5-1.9l-4.8-1.9l-18.3-7.4L736.1,1164.1z"
							/>
					</g>
					<g>
						<path class="st3" d="M804.5,1187.8c23.1,5.9,46.6,10.1,69.7,11.9l-5.8,77.5c-28.6-2.2-56.2-7.2-83.3-14.1L804.5,1187.8z"/>
					</g>
					<g>
						<path class="st4" d="M874.2,1199.7c23.1,1.8,45.9,1,66.6-3.3l15.8,76.1c-15.1,3.1-30,4.8-44.7,5.4c-7.4,0.3-14.7,0.4-21.9,0.3
							c-7.2-0.2-14.4-0.5-21.6-1L874.2,1199.7z"/>
					</g>
					<g>
						<path class="st5" d="M940.7,1196.5c10.3-2.1,20-5.2,28.9-9.1c8.8-4,16.8-8.9,23.6-14.7l50.3,59.3c-12.8,11-27.3,19.7-42,26.4
							c-14.8,6.6-30,11.3-45,14.3L940.7,1196.5z"/>
					</g>
					<g>
						<path class="st6" d="M993.3,1172.6c6.9-5.8,12.7-12.7,17.7-20.4c2.4-3.9,4.7-8,6.7-12.4c1.9-4.4,3.8-8.9,5.3-13.8l74,23.6
							c-2.3,7.5-5.3,15.1-8.6,22.5c-3.4,7.4-7.3,14.7-11.8,21.7c-4.5,7-9.5,13.8-15,20.2c-5.5,6.4-11.6,12.3-18,17.8L993.3,1172.6z"
							/>
					</g>
					<g>
						<path class="st0" d="M1023,1126c0.8-2.4,1.4-4.9,2.1-7.3c0.3-1.2,0.6-2.5,0.9-3.8l0.4-1.9l0.2-1l0.2-1.1l1.7-8.7
							c0.6-2.9,1-5.8,1.5-8.6c1.9-11.5,3.2-22.9,3.6-33.9l77.7,3.1c-0.6,14.9-2.3,29.3-4.6,43.3c-0.6,3.5-1.2,7-1.8,10.5l-2.1,10.4
							l-0.3,1.3l-0.3,1.4l-0.7,2.8c-0.5,1.9-0.9,3.8-1.4,5.7c-1.1,3.8-2,7.6-3.3,11.3L1023,1126z"/>
					</g>
					<g>
						<path class="st2" d="M1033.8,1059.7c0.5-11,0-21.6-1.4-31.5c-1.4-9.9-4-18.7-7.5-26.5l70.5-32.8c7.2,15.8,11.7,32.1,13.9,47.9
							c2.3,15.8,2.8,31.2,2.2,46L1033.8,1059.7z"/>
					</g>
					<g>
						<path class="st3" d="M1024.9,1001.7c-1.9-3.8-3.9-7.4-6.2-10.7c-2.4-3.2-5-6.3-7.9-9.1c-2.9-2.8-6.2-5.4-9.8-7.8
							c-0.9-0.6-1.8-1.2-2.8-1.8l-2.9-1.7c-2-1.1-4-2.2-6.2-3.2l33.1-70.3c3.7,1.7,7.4,3.7,11.1,5.7l5.5,3.2c1.8,1,3.6,2.3,5.4,3.5
							c7.1,4.8,14.1,10.2,20.5,16.4c6.4,6.2,12.3,13,17.5,20.2c5.1,7.3,9.5,15,13.3,22.9L1024.9,1001.7z"/>
					</g>
					<g>
						<path class="st4" d="M989.1,967.4c-8.6-4.1-18.4-7.2-29-9.7c-10.6-2.5-21.9-4.2-33.7-5.5l8.3-77.3c14,1.5,28.3,3.7,43,7
							c14.6,3.4,29.6,8.1,44.5,15.1L989.1,967.4z"/>
					</g>
					<g>
						<path class="st5" d="M926.4,952.2c-11.8-1.3-23.9-2-36.4-2.6l-38.9-1.6l3.8-77.6l38.8,1.6c13.4,0.6,27,1.5,41.1,3L926.4,952.2
							z"/>
					</g>
					<g>
						<path class="st6" d="M851.1,948c-6.7-0.3-13.6-0.7-20.8-1.3c-7.2-0.6-14.6-1.4-22.7-2.8c-2-0.4-4.1-0.8-6.2-1.2l-3.3-0.8
							c-1.1-0.3-2.1-0.5-3.3-0.8c-2.3-0.7-4.5-1.2-7-2.1l-1.8-0.6l-0.9-0.3c-0.3-0.1-0.6-0.2-0.8-0.3l-2.7-1.1
							c-3.6-1.4-7.2-2.8-10.7-4.4l-5.3-2.4c-1.8-0.8-3.4-1.7-5.1-2.5l34.6-69.6c1.2,0.6,2.4,1.2,3.6,1.8l3.6,1.6
							c2.4,1.1,4.8,2,7.2,3l1.8,0.7c0.2,0.1,0.2,0.1,0.3,0.1l0.2,0.1l0.5,0.2c0.6,0.2,1.5,0.4,2.3,0.7c0.4,0.1,0.9,0.2,1.4,0.3
							l1.5,0.4l3.4,0.6c4.7,0.8,10.2,1.4,15.9,1.9c5.7,0.5,11.8,0.8,18,1.1L851.1,948z"/>
					</g>
					<g>
						<path class="st2" d="M250.5,1692.2c-6.9-2.6-13.7-5.3-20.6-8.5c-3.4-1.5-6.8-3.2-10.2-4.9c-1.7-0.8-3.4-1.8-5.1-2.7
							c-1.7-0.9-3.4-1.8-5.1-2.8l-5-3c-1.7-1-3.3-2.1-5-3.1c-3.3-2.1-6.6-4.4-9.9-6.7c-6.5-4.8-12.9-9.9-18.9-15.7l53.6-56.3
							c3.3,3.2,7.1,6.2,11,9.1c2,1.4,4,2.9,6.2,4.2c1.1,0.7,2.1,1.4,3.2,2l3.3,2c9,5.2,19,9.6,29.6,13.6L250.5,1692.2z"/>
					</g>
					<g>
						<path class="st3" d="M170.7,1644.9c-3.1-2.8-5.9-5.9-8.8-9c-1.4-1.6-2.8-3.2-4.2-4.8l-2.1-2.4l-2-2.5
							c-1.3-1.7-2.6-3.4-3.9-5.1l-3.6-5.4c-0.6-0.9-1.2-1.8-1.8-2.7l-1.6-2.8c-1.1-1.9-2.2-3.7-3.2-5.6l-2.9-5.8
							c-0.5-1-1-1.9-1.4-2.9l-1.3-3c-0.8-2-1.7-3.9-2.5-5.9l-2.2-6.1c-0.8-2-1.3-4.1-2-6.2c-0.6-2.1-1.3-4.1-1.7-6.2l-1.5-6.2
							l-1.2-6.2l76.6-13.3l0.6,3.3l0.8,3.2c0.2,1.1,0.6,2.1,0.9,3.2c0.3,1,0.6,2.1,1,3.1l1.1,3l1.3,3l0.6,1.5c0.2,0.5,0.5,1,0.7,1.5
							l1.5,2.9c0.5,0.9,1.1,1.9,1.6,2.8l0.8,1.4c0.3,0.5,0.6,0.9,0.9,1.4l1.8,2.7l2,2.6l1,1.3l1.1,1.3l2.2,2.5
							c1.6,1.6,3.1,3.3,4.8,4.9L170.7,1644.9z"/>
					</g>
					<g>
						<path class="st4" d="M123,1556.1c-1.4-8.3-2.3-16.5-2.5-24.7l-0.1-3.1l0-3c0-2,0-4,0.1-6.1c0.2-4,0.3-8,0.7-12
							c1.4-15.8,4.6-31.1,8.9-45.8l74.4,22.3c-6.1,20.2-8.1,41-5,59L123,1556.1z"/>
					</g>
					<g>
						<path class="st5" d="M130.1,1461.5c4.5-14.7,10.1-28.8,16.9-42.3c6.8-13.6,14.8-26.5,23.9-38.8l62.3,46.4
							c-12.6,17-22.6,36.8-28.7,57.1L130.1,1461.5z"/>
					</g>
					<g>
						<path class="st6" d="M170.9,1380.4c4.6-6.1,9.4-12.1,14.7-17.9c1.3-1.5,2.7-2.9,4-4.3c1.3-1.4,2.7-2.8,4.1-4.2l4.2-4.1l4.4-4
							c1.4-1.3,3.1-2.7,4.7-4c1.6-1.3,3.2-2.7,4.9-3.9l5-3.8l5.1-3.5c6.9-4.6,14-8.6,21.2-12.2l34.4,69.7c-4.5,2.2-8.6,4.6-12.5,7.2
							l-2.9,2l-2.7,2.1c-0.9,0.7-1.8,1.4-2.7,2.2c-0.9,0.7-1.8,1.4-2.7,2.3l-2.8,2.5l-2.7,2.7c-0.9,0.9-1.8,1.8-2.7,2.8
							c-0.9,0.9-1.8,1.8-2.6,2.8c-3.5,3.8-6.8,8-10,12.2L170.9,1380.4z"/>
					</g>
					<g>
						<path class="st0" d="M243.2,1318.5c7.1-3.5,14.3-6.5,21.3-9.2c7-2.7,13.9-4.9,20.6-7c13.4-4.1,25.8-7.5,37.2-11l23.1,74.2
							c-13.4,4.1-26,7.5-37.3,11c-11.4,3.5-21.6,7.2-30.6,11.6L243.2,1318.5z"/>
					</g>
					<g>
						<path class="st2" d="M322.3,1291.3c11.3-3.5,21.5-7.2,30.2-11.7c8.8-4.4,16.2-9.5,22.8-15.7l53.2,56.7
							c-6.1,5.8-12.8,11.1-19.7,15.8c-6.9,4.8-14.1,8.9-21.2,12.5c-14.4,7.3-28.7,12.3-42.1,16.5L322.3,1291.3z"/>
					</g>
					<g>
						<path class="st3" d="M375.3,1264l0.3-0.3c0.1-0.1,0.2-0.2,0.2-0.2l0.2-0.3l0.2-0.2c0.1-0.1,0.3-0.3,0.4-0.4l0.8-0.9l1-1.2
							c0.3-0.4,0.7-0.9,1.1-1.3l1.1-1.4c0.8-1.1,1.6-2,2.4-3.2c3.3-4.4,6.7-9.4,10.1-14.5c6.9-10.3,13.9-21.2,21.2-32.2l64.8,42.9
							c-7,10.5-14,21.4-21.5,32.7c-3.8,5.6-7.7,11.3-12.1,17.3c-1.1,1.5-2.3,3.1-3.4,4.6l-1.9,2.4c-0.6,0.8-1.2,1.6-2,2.4l-2.1,2.5
							c-0.8,0.9-1.6,1.8-2.4,2.7c-0.4,0.5-0.8,0.9-1.3,1.4l-1.5,1.5l-1.5,1.5c-0.3,0.3-0.4,0.4-0.6,0.6l-0.6,0.5L375.3,1264z"/>
					</g>
					<g>
						<path class="st4" d="M414.6,1207.7c6.4-9.6,13-19.4,20.6-29.6c3.8-5.1,7.8-10.2,12.7-15.7l1.9-2.1c0.6-0.7,1.2-1.4,2-2.1
							l2.1-2.2l1.1-1.1l1.2-1.1c2.9-2.9,7.3-6.4,12-9.6l5.7-3.5c1.9-1.1,3.7-2.3,5.7-3.3l37,68.3c-1.1,0.5-2.1,1.2-3.1,1.8l-3,1.8
							c0,0,0,0,0,0c0,0,0,0,0,0c0,0-0.1,0.1-0.1,0.1c-0.1,0.1-0.2,0.1-0.4,0.3c-0.2,0.2-0.4,0.4-0.6,0.6l-0.3,0.3l-0.4,0.4l-0.8,0.9
							c-0.3,0.2-0.6,0.7-0.9,1l-1,1c-2.6,3-5.6,6.7-8.5,10.6c-5.9,7.9-11.9,16.8-18,25.9L414.6,1207.7z"/>
					</g>
					<g>
						<path class="st5" d="M479.5,1137.6c14.8-8,31-13.9,47.3-17.1c16.3-3.2,32.7-4.1,48.3-3.3l-4,77.6c-10.3-0.5-20,0.1-29.1,1.9
							c-9.1,1.8-17.5,4.9-25.5,9.2L479.5,1137.6z"/>
					</g>
					<g>
						<path class="st6" d="M575.1,1117.3c15.6,0.9,30.6,3.2,44.9,6.4c14.3,3.2,28,7.2,41.2,11.6l-24.5,73.8
							c-11.4-3.8-22.6-7.1-33.6-9.5c-11-2.4-21.7-4-32-4.6L575.1,1117.3z"/>
					</g>
				</g>
				<g>
					<path class="st0" d="M937.5,2210.7c6.6-8.8,12.4-18.1,17.5-27.8l1.9-3.6c0.6-1.2,1.2-2.5,1.8-3.7l1.8-3.7
						c0.6-1.2,1.2-2.5,1.7-3.8l3.2-7.6c1-2.6,1.9-5.2,2.8-7.8l73.4,25.5c-1.3,3.5-2.5,7-3.8,10.5l-4.3,10.3
						c-0.7,1.7-1.5,3.4-2.3,5.1l-2.4,5.1c-0.8,1.7-1.6,3.4-2.4,5l-2.6,5c-7,13.2-14.9,25.9-23.8,37.9L937.5,2210.7z"/>
				</g>
				<g>
					<path class="st2" d="M968.2,2152.6c1-2.6,1.7-5.2,2.6-7.9c0.8-2.7,1.7-5.3,2.3-8l2-8.1c0.6-2.7,1.1-5.5,1.7-8.2l0.8-4.1
						l0.6-4.2c0.4-2.8,0.9-5.5,1.2-8.3l0.8-8.4c0.1-1.4,0.3-2.8,0.4-4.2l0.2-4.2l77.6,4.4l-0.3,5.5c-0.1,1.8-0.3,3.6-0.5,5.5
						l-1.1,10.9c-0.5,3.6-1.1,7.3-1.6,10.9l-0.8,5.5l-1.1,5.4c-0.7,3.6-1.4,7.2-2.2,10.9l-2.7,10.8c-0.8,3.6-2,7.1-3.1,10.7
						c-1.1,3.5-2.1,7.1-3.4,10.6L968.2,2152.6z"/>
				</g>
				<g>
					<path class="st3" d="M980.8,2087.2l0.4-8.5l0-8.5l0-4.3c0-1.4-0.1-2.9-0.2-4.3l-0.4-8.6l-0.1-2.2l-0.2-2.2l-0.4-4.3l-0.8-8.6
						l-0.5-3.5c-0.1-0.6-0.1-1.2-0.2-1.8l-0.3-1.7c-0.2-1.1-0.4-2.3-0.7-3.4l-0.8-3.3l75.1-19.9l1.5,6.2c0.5,2,0.8,4.1,1.2,6.1
						l0.6,3.1c0.2,1,0.3,2,0.5,3l0.9,6.1l1,10.7l0.5,5.4l0.2,2.7l0.1,2.7l0.5,10.8c0.1,1.8,0.2,3.6,0.2,5.4l0,5.4l0,10.9l-0.5,10.9
						L980.8,2087.2z"/>
				</g>
				<g>
					<path class="st4" d="M976.6,2022.1c-0.2-1.1-0.6-2.1-0.9-3.2c-0.3-1-0.6-2.1-1-3.1l-1.1-3c-0.4-1-0.9-1.9-1.3-2.9
						c-1.8-3.8-3.8-7.4-6.1-10.9c-2.4-3.4-5.1-6.7-8.2-9.9c-3-3.2-6.6-6.2-10.4-9.2l47.4-61.6c6.4,5,12.8,10.4,18.7,16.5
						c5.9,6.1,11.5,12.8,16.5,20c5,7.2,9.3,15,12.9,22.9l2.6,6c0.8,2,1.5,4.1,2.3,6.1c0.8,2,1.4,4.1,2,6.1c0.6,2,1.3,4.1,1.8,6.1
						L976.6,2022.1z"/>
				</g>
				<g>
					<path class="st5" d="M947.6,1979.9c-3.8-3-8-5.8-12.5-8.4c-4.4-2.7-9.2-5.3-14.2-7.7c-9.9-4.9-20.8-9.4-32.1-13.6l27.1-72.8
						c13,4.9,26.1,10.2,39.4,16.8c6.6,3.3,13.3,6.8,19.9,10.9c6.6,4,13.2,8.4,19.7,13.4L947.6,1979.9z"/>
				</g>
				<g>
					<path class="st6" d="M888.9,1950.1c-22.6-8.4-47.1-15.8-72-23.8l23.6-74c24.4,7.8,49.6,15.4,75.5,25L888.9,1950.1z"/>
				</g>
				<g>
					<path class="st0" d="M816.8,1926.3c-25-8-50.6-16.4-76.1-26.8l29.2-72c22.5,9.1,46.1,17,70.5,24.8L816.8,1926.3z"/>
				</g>
				<g>
					<path class="st2" d="M740.8,1899.6c-25.5-10.4-51-22.5-75.4-37.7l41.1-66c19.6,12.2,41,22.5,63.5,31.7L740.8,1899.6z"/>
				</g>
				<g>
					<path class="st3" d="M665.4,1861.8c-24.3-15.2-47.5-33.4-67.9-54.5l55.9-54c15.6,16.2,33.5,30.3,53.1,42.5L665.4,1861.8z"/>
				</g>
				<g>
					<path class="st4" d="M597.5,1807.3l-6.1-6.2c-1.9-1.9-3.9-3.6-5.8-5.5c-2-1.7-4-3.5-6.1-5.2l-3.1-2.5l-1.6-1.3l-1.6-1.2
						c-8.6-6.5-17.9-12.3-27.8-17.6l36.6-68.6c13,6.9,25.7,14.9,37.8,24l2.3,1.7l2.2,1.8l4.5,3.6c2.9,2.4,5.8,4.9,8.7,7.4
						c2.8,2.6,5.6,5.2,8.4,7.9l7.5,7.6L597.5,1807.3z"/>
				</g>
				<g>
					<path class="st5" d="M545.4,1768c-19.7-10.5-41.6-18.6-64.6-25.2l21.3-74.7c26.8,7.7,53.8,17.5,79.8,31.4L545.4,1768z"/>
				</g>
				<g>
					<path class="st6" d="M480.8,1742.8c-23-6.6-47.2-11.6-72-16l13.6-76.5c26.2,4.7,52.9,10.1,79.7,17.8L480.8,1742.8z"/>
				</g>
				<g>
					<path class="st5" d="M415.6,2105.2c30.6-6.3,63.6-5.6,93.7,1.7l-17.8,75.6c-5.1-1.3-10.1-2.1-15.2-2.8
						c-5-0.6-10.1-1.1-15.1-1.1c-10.1-0.2-20.1,0.7-30.2,2.7L415.6,2105.2z"/>
				</g>
				<g>
					<path class="st1" d="M333.7,2132.1l9.8-4.4c3.3-1.4,6.7-2.6,10-3.9l10-3.8c3.4-1.2,6.8-2.2,10.2-3.4l10.2-3.3
						c1.7-0.6,3.4-1,5.1-1.5l5.2-1.4l10.3-2.7l2.6-0.7c0.9-0.2,1.9-0.4,2.8-0.6l5.7-1.2l15.3,76.2l-3.8,0.8
						c-0.6,0.1-1.2,0.2-1.9,0.4l-2.1,0.6l-8.5,2.3l-4.2,1.1c-1.4,0.4-2.8,0.7-4.2,1.2l-8.3,2.7c-2.8,0.9-5.5,1.7-8.3,2.7l-8.1,3.1
						c-2.7,1.1-5.4,2-8.1,3.1l-7.9,3.5L333.7,2132.1z"/>
				</g>
				<g>
					<path class="st6" d="M509.3,2106.9c7.6,1.7,14.9,4,22.1,6.3c7.2,2.5,14.2,5.1,21,8.1c6.9,2.9,13.4,6.1,20,9.3
						c6.4,3.3,12.8,6.7,18.9,10.3l-39,67.2c-5.1-3-10.1-5.7-15.2-8.3c-5.1-2.5-10.1-5-15.2-7.1c-5.1-2.2-10.2-4.1-15.2-5.9
						c-5.1-1.6-10.2-3.2-15.2-4.3L509.3,2106.9z"/>
				</g>
				<g>
					<path class="st0" d="M591.3,2140.9c24.6,14.3,46.8,30.2,68,46l-46.3,62.4c-20.4-15.1-40.4-29.4-60.7-41.1L591.3,2140.9z"/>
				</g>
				<g>
					<path class="st2" d="M659.3,2186.9c21.2,15.7,41.4,31.4,61.5,45.3l-44.2,63.9c-22.5-15.6-43.2-31.7-63.6-46.8L659.3,2186.9z"/>
				</g>
				<g>
					<path class="st3" d="M720.9,2232.2c10.1,7,20.1,13.5,30.1,19.3c10,5.9,20,10.9,29.9,15l-29.5,71.9c-14-5.8-27.2-12.5-39.5-19.7
						c-12.4-7.2-24.1-14.8-35.3-22.6L720.9,2232.2z"/>
				</g>
				<g>
					<path class="st4" d="M780.9,2266.5c1.2,0.6,2.5,1,3.7,1.5c1.2,0.5,2.5,1,3.7,1.4c2.5,0.8,4.9,1.7,7.4,2.4
						c4.9,1.6,9.8,2.6,14.6,3.6l3.6,0.6c1.2,0.2,2.4,0.3,3.6,0.5c2.4,0.4,4.8,0.5,7.2,0.7c4.8,0.2,9.5,0.3,14.2-0.2l6.2,77.5
						c-8.2,0.7-16.4,0.7-24.6,0.3c-4.1-0.3-8.2-0.5-12.2-1.1c-2-0.3-4-0.4-6-0.8l-6-1c-7.9-1.5-15.7-3.3-23.1-5.6
						c-3.8-1.1-7.4-2.4-11.1-3.6c-1.8-0.6-3.6-1.3-5.4-2c-1.8-0.7-3.6-1.4-5.3-2.1L780.9,2266.5z"/>
				</g>
				<g>
					<path class="st5" d="M838.9,2276.9c2.4-0.1,4.7-0.5,7.1-0.8l0.9-0.1l0.9-0.2l1.8-0.3c1.2-0.2,2.4-0.4,3.5-0.7l3.5-0.8l0.9-0.2
						c0.3-0.1,0.7-0.1,0.8-0.2l1.1-0.4c0.4-0.1,0.7-0.2,1.2-0.4l1.4-0.5l1.4-0.5l1.5-0.6c2-0.8,4.2-1.9,6.3-2.9
						c2.2-1.2,4.4-2.2,6.6-3.6c4.4-2.5,8.9-5.4,13.2-8.4l44.8,63.5c-6.3,4.3-12.7,8.6-19.5,12.4c-3.3,2-7,3.8-10.5,5.6
						c-3.7,1.8-7.3,3.5-11.4,5.2l-3,1.2l-3.2,1.2l-3.2,1.1c-1.1,0.4-2.3,0.7-3.4,1.1l-3.5,1c-0.6,0.2-1,0.3-1.6,0.4l-1.5,0.4
						l-5.9,1.4c-2,0.5-4,0.8-6,1.2l-3,0.5l-1.5,0.3l-1.5,0.2c-4.1,0.5-8.1,1.1-12.2,1.4L838.9,2276.9z"/>
				</g>
				<g>
					<path class="st6" d="M891.1,2256.4c8.7-6.2,17.1-13.2,24.9-20.9c7.8-7.7,15-16,21.6-24.8l62.4,46.3
						c-8.9,12-18.7,23.3-29.4,33.8c-10.7,10.5-22.1,20.2-34.6,29L891.1,2256.4z"/>
				</g>
				<g>
					<g>
						<path class="st0" d="M118.1,2387.3c1-3.5,1.9-7,2.9-10.4l3.3-10.3c0.6-1.7,1.1-3.4,1.7-5.1l1.8-5.1c1.2-3.4,2.4-6.8,3.7-10.1
							c2.7-6.6,5.3-13.3,8.4-19.8c1.5-3.3,3-6.5,4.5-9.8l4.9-9.6l69,35.8l-3.9,7.7c-1.3,2.6-2.4,5.3-3.6,7.9
							c-2.5,5.2-4.5,10.6-6.8,16c-1.1,2.7-2,5.4-3,8.1l-1.5,4.1c-0.5,1.3-0.9,2.7-1.3,4.1l-2.6,8.2c-0.8,2.8-1.5,5.5-2.3,8.3
							L118.1,2387.3z"/>
					</g>
					<g>
						<path class="st2" d="M149.3,2307.1l2.5-4.8l2.6-4.7l5.3-9.4c1.8-3.1,3.8-6.1,5.6-9.2c1.9-3,3.7-6.1,5.8-9.1
							c4.1-5.9,8-11.9,12.4-17.6l6.5-8.6l6.9-8.3l59.6,49.9l-5.5,6.6l-5.2,6.9c-3.6,4.5-6.7,9.4-10,14.1c-1.7,2.3-3.1,4.9-4.7,7.3
							c-1.5,2.5-3.1,4.9-4.6,7.4l-4.3,7.6l-2.1,3.8l-2,3.9L149.3,2307.1z"/>
					</g>
					<g>
						<path class="st3" d="M197,2235.6c4.5-5.6,9.5-10.8,14.3-16.2c2.4-2.7,5-5.2,7.5-7.8l7.7-7.6c2.6-2.5,5.3-4.9,8-7.3l4-3.6
							c1.4-1.2,2.6-2.4,4.1-3.6l8.4-6.8c2.8-2.3,5.6-4.6,8.5-6.7l46.9,62c-2.4,1.6-4.5,3.5-6.8,5.3l-6.7,5.4
							c-1.1,0.9-2.2,1.9-3.2,2.8l-3.2,2.9c-2.1,1.9-4.3,3.8-6.4,5.8l-6.1,6.1c-2,2-4.1,4-6,6.2c-3.8,4.3-7.8,8.4-11.4,12.9
							L197,2235.6z"/>
					</g>
					<g>
						<path class="st4" d="M259.4,2176c23-17.4,48.1-32.1,74.2-43.9l31.9,70.9c-21.1,9.5-40.9,21.2-59.3,35L259.4,2176z"/>
					</g>
					<g>
						<path class="st0" d="M747.5,2937.5c-7.6-2.9-15.3-6.5-22.7-10.7c-7.5-4.2-14.7-9.1-21.4-14.5l-4.9-4.2
							c-1.7-1.6-3.5-3.3-5.2-4.9l-2.6-2.5l-2.4-2.7c-1.6-1.8-3.2-3.6-4.7-5.5c-2.8-3.8-5.8-7.6-8.1-11.6l-1.8-3l-0.9-1.5
							c-0.3-0.5-0.5-1-0.8-1.5l-3.1-6l69.8-34.1c0.5,0.9,0.9,1.7,1.4,2.6c0.1,0.2,0.2,0.4,0.3,0.7l0.4,0.6l0.7,1.2
							c0.9,1.7,2,2.9,3,4.4c0.5,0.7,1.1,1.3,1.7,1.9l0.8,1l0.9,0.9c0.6,0.6,1.2,1.2,1.8,1.8l2.5,2.1c6.8,5.4,14.1,9.6,23.1,13.1
							L747.5,2937.5z"/>
					</g>
					<g>
						<path class="st2" d="M668.9,2869c-0.5-1-1-2-1.4-3l-1.3-3l-1.3-3c-0.4-1-0.8-2-1.1-2.9l-2.2-5.9l-1.9-5.7l-0.9-2.9l-0.8-2.8
							c-0.5-1.8-1-3.7-1.5-5.6c-0.9-3.6-1.8-7.3-2.6-10.7c-1.6-7-2.9-13.5-4.2-20l-1.9-9.2l-0.9-4.5l-1-4.3l75.8-17.1l1.1,5.2l1,5
							l2,9.8c1.3,6.3,2.5,12.5,3.8,18.1c0.6,2.9,1.3,5.5,2,8.2l1.1,3.8l0.5,1.9l0.6,1.8l1.1,3.5l1.2,3.2c0.2,0.5,0.4,1.1,0.6,1.6
							l0.7,1.5l0.6,1.5c0.2,0.5,0.4,1,0.7,1.4L668.9,2869z"/>
					</g>
					<g>
						<path class="st3" d="M646,2785.6c-2.5-11.5-5.5-21.7-9.3-30.7c-0.9-2.3-2-4.4-3-6.6c-0.5-1.1-1.1-2.1-1.6-3.1l-1.7-3.1
							l-1.8-2.9c-0.6-1-1.2-2-1.9-2.9l-2-2.7c-0.3-0.5-0.6-0.9-1-1.4l-1.1-1.3l60.5-48.8l2,2.4c0.6,0.8,1.3,1.7,1.9,2.5l3.7,5.1
							c1.3,1.7,2.3,3.5,3.5,5.3l3.3,5.3l3,5.5c1,1.8,2,3.6,2.9,5.5c1.7,3.7,3.6,7.4,5,11.1l2.3,5.6l2,5.6c1.4,3.7,2.4,7.4,3.6,11
							c0.6,1.8,1,3.6,1.5,5.4c0.5,1.8,1,3.6,1.4,5.4c0.9,3.5,1.8,7.1,2.5,10.5L646,2785.6z"/>
					</g>
					<g>
						<path class="st4" d="M622.7,2731c-5.7-7-12.5-13.3-20.6-19c-2-1.4-4-2.9-6.2-4.1l-3.3-2c-1.1-0.7-2.2-1.3-3.3-1.9l-7-3.7
							c-0.8-0.4-1.6-0.7-2.4-1.1l-2.7-1l26.4-73.1c2.1,0.8,4.2,1.6,6.4,2.5c2.2,1,4.4,2,6.5,3l10.2,5.4c1.7,0.9,3.4,1.9,5.1,2.9
							l5,3.1c3.4,1.9,6.7,4.3,10,6.6c13.1,9.2,25.6,20.5,36.3,33.6L622.7,2731z"/>
					</g>
					<g>
						<path class="st5" d="M577.3,2698.2c-3.8-1.4-8.4-2.6-13.3-3.6c-2.4-0.5-5.1-0.9-7.6-1.4c-2.7-0.4-5.3-0.8-8.1-1
							c-2.7-0.3-5.6-0.5-8.4-0.8c-2.9-0.2-5.7-0.4-8.6-0.5c-5.8-0.3-11.7-0.4-17.7-0.5l0.5-77.7c7,0,14,0.2,21.1,0.6
							c3.5,0.2,7.2,0.4,10.8,0.7c3.6,0.3,7.3,0.6,11,1.1c3.7,0.4,7.4,0.9,11.2,1.4c3.8,0.6,7.6,1.2,11.5,2.1
							c7.8,1.6,15.8,3.6,24.2,6.6L577.3,2698.2z"/>
					</g>
					<g>
						<path class="st6" d="M513.6,2690.4c-24-0.1-48.8,1.5-74,3.7l-6.8-77.4c26.4-2.3,53.4-4.1,81.2-4L513.6,2690.4z"/>
					</g>
					<g>
						<path class="st0" d="M439.6,2694.1l-19,1.8l-9.6,0.9l-4.9,0.5l-2.8,0.2l-3,0.2c-15.7,1.1-30.5,0.6-45.2-0.7l7.1-77.4
							c11.2,1,22.3,1.3,32.4,0.6l3.9-0.3l4.8-0.5l9.7-0.9l19.7-1.8L439.6,2694.1z"/>
					</g>
					<g>
						<path class="st2" d="M355.1,2697c-14.6-1.4-28.9-3.6-43.1-6.7c-14.1-3.1-28.1-7-41.9-11.7l25.5-73.4
							c21.4,7.4,44.2,12.4,66.6,14.5L355.1,2697z"/>
					</g>
					<g>
						<path class="st3" d="M270.2,2678.6c-13.8-4.8-27.3-10.4-40.6-17.1c-13.2-6.7-26.2-14.5-38.6-23.5l45.9-62.7
							c17.1,12.5,37.3,22.5,58.7,29.9L270.2,2678.6z"/>
					</g>
					<g>
						<path class="st4" d="M191,2637.9c-12.4-9.1-24.1-19.4-34.8-31.2c-10.6-11.8-20.2-25.1-27.8-39.5l68.7-36.4
							c8.9,16.9,22.7,31.9,39.8,44.4L191,2637.9z"/>
					</g>
					<g>
						<path class="st5" d="M128.5,2567.2c-7.6-14.4-13.4-30-17-45.9l-1.3-6c-0.4-2-0.7-4-1-6l-0.9-6c-0.2-1-0.3-2-0.4-2.9l-0.3-2.9
							c-0.4-3.9-0.8-7.8-0.9-11.6l-0.2-5.8c-0.1-1.9-0.2-3.8-0.1-5.7l77.7-0.7c0,1.4,0,2.7,0.1,4l0.2,4c0,2.7,0.4,5.2,0.6,7.7
							l0.2,1.9c0.1,0.6,0.1,1.3,0.2,1.9l0.6,3.6c0.2,1.2,0.3,2.4,0.6,3.6l0.7,3.5c2.2,9.4,5.5,18.3,9.9,26.8L128.5,2567.2z"/>
					</g>
					<g>
						<path class="st6" d="M106.3,2474.4l0.1-11.3l0.6-11.2c0.1-1.9,0.3-3.7,0.5-5.5l0.5-5.5c0.2-1.8,0.4-3.7,0.6-5.5l0.8-5.4
							l0.8-5.4l0.4-2.7c0.1-0.9,0.3-1.8,0.5-2.7l2-10.7c0.7-3.6,1.6-7.1,2.4-10.6l1.2-5.3l1.4-5.2l75.1,20l-1.1,4.1l-1,4.2
							c-0.6,2.8-1.3,5.6-1.9,8.4l-1.6,8.4c-0.1,0.7-0.3,1.4-0.4,2.1l-0.3,2.1l-0.6,4.2l-0.6,4.2l-0.4,4.2l-0.4,4.2
							c-0.1,1.4-0.3,2.8-0.3,4.1l-0.5,8.2l-0.1,8.1L106.3,2474.4z"/>
					</g>
					<g>
						<path class="st4" d="M910.3,3033.3c-6.3-18.2-17.6-35.2-32-48.4l52.6-57.2c23.8,21.8,42.1,49.3,52.8,80L910.3,3033.3z"/>
					</g>
					<g>
						<path class="st5" d="M878.3,2985c-3.6-3.3-7.4-6.4-11.3-9.2l-1.5-1.1l-1.5-1c-1-0.6-2-1.4-3-2l-3-1.8l-3.1-1.7
							c-8.3-4.4-17.6-7.8-28.2-10.6l20.2-75.1c14.3,3.8,29.6,9.2,44.3,16.9c1.8,1,3.6,2,5.4,3l5.4,3.2c1.8,1.1,3.4,2.2,5.1,3.3
							l2.5,1.7l2.5,1.8c6.6,4.7,12.9,9.8,18.8,15.3L878.3,2985z"/>
					</g>
					<g>
						<path class="st6" d="M826.6,2957.7c-10.7-2.9-22.7-5.2-36-8c-13.3-2.9-28-6.3-43.2-12.1l27.9-72.5c8.9,3.5,19.5,6.1,31.6,8.7
							c12,2.6,25.5,5.1,39.9,9L826.6,2957.7z"/>
					</g>
				</g>
			</g>
		</g>
	</g>
</g>
<g>
	<g id="Rectangle_186" transform="translate(820.625 2897.32)">
		<rect x="69.1" y="101" transform="matrix(0.9105 -0.4135 0.4135 0.9105 -47.3579 70.2497)" class="st7" width="139" height="87"/>
		
			<rect x="70.6" y="102.5" transform="matrix(0.9105 -0.4135 0.4135 0.9105 -47.3579 70.2497)" class="st8" width="136" height="84"/>
	</g>
	<text transform="matrix(0.9105 -0.4135 0.4135 0.9105 943.3384 3055.6821)" class="st9 st10">END</text>
</g>
<g>
	<g>
		<path class="st11" d="M766.8-81.9c7.7,0,7.7-11.9,0-11.9C759.1-93.8,759.1-81.9,766.8-81.9L766.8-81.9z"/>
	</g>
</g>
<g>
	<g>
		<rect x="3314.4" y="-361.1" class="st0" width="95" height="95"/>
	</g>
	<g>
		<rect x="3219.3" y="-361.1" class="st1" width="95" height="95"/>
	</g>
	<g>
		<g>
			<rect x="-297.2" y="-361.1" class="st0" width="95" height="95"/>
		</g>
		<g>
			<rect x="-392.2" y="-361.1" class="st2" width="95" height="95"/>
		</g>
		<g>
			<rect x="-487.2" y="-361.1" class="st3" width="95" height="95"/>
		</g>
		<g>
			<rect x="-582.3" y="-361.1" class="st4" width="95" height="95"/>
		</g>
		<g>
			<rect x="-677.3" y="-361.1" class="st5" width="95" height="95"/>
		</g>
		<g>
			<rect x="-772.4" y="-361.1" class="st6" width="95" height="95"/>
		</g>
		<g>
			<rect x="-867.4" y="-361.1" class="st0" width="95" height="95"/>
		</g>
		<g>
			<rect x="-962.4" y="-361.1" class="st2" width="95" height="95"/>
		</g>
		<g>
			<rect x="-1057.5" y="-361.1" class="st3" width="95" height="95"/>
		</g>
		<g>
			<rect x="-1152.5" y="-361.1" class="st4" width="95" height="95"/>
		</g>
		<g>
			<rect x="-1247.6" y="-361.1" class="st5" width="95" height="95"/>
		</g>
		<g>
			<rect x="-1342.6" y="-361.1" class="st6" width="95" height="95"/>
		</g>
		<g>
			<rect x="938.4" y="-361.1" class="st0" width="95" height="95"/>
		</g>
		<g>
			<rect x="843.3" y="-361.1" class="st2" width="95" height="95"/>
		</g>
		<g>
			<rect x="748.3" y="-361.1" class="st3" width="95" height="95"/>
		</g>
		<g>
			<rect x="653.2" y="-361.1" class="st4" width="95" height="95"/>
		</g>
		<g>
			<rect x="558.2" y="-361.1" class="st5" width="95" height="95"/>
		</g>
		<g>
			<rect x="463.2" y="-361.1" class="st6" width="95" height="95"/>
		</g>
		<g>
			<rect x="368.1" y="-361.1" class="st0" width="95" height="95"/>
		</g>
		<g>
			<rect x="273.1" y="-361.1" class="st2" width="95" height="95"/>
		</g>
		<g>
			<rect x="178" y="-361.1" class="st3" width="95" height="95"/>
		</g>
		<g>
			<rect x="-12" y="-361.1" class="st4" width="95" height="95"/>
		</g>
		<g>
			<rect x="83" y="-361.1" class="st1" width="95" height="95"/>
		</g>
		<g>
			<rect x="-107.1" y="-361.1" class="st5" width="95" height="95"/>
		</g>
		<g>
			<rect x="-202.1" y="-361.1" class="st6" width="95" height="95"/>
		</g>
		<g>
			<rect x="2078.8" y="-361.1" class="st0" width="95" height="95"/>
		</g>
		<g>
			<rect x="1983.8" y="-361.1" class="st2" width="95" height="95"/>
		</g>
		<g>
			<rect x="1888.8" y="-361.1" class="st3" width="95" height="95"/>
		</g>
		<g>
			<rect x="1793.7" y="-361.1" class="st4" width="95" height="95"/>
		</g>
		<g>
			<rect x="1698.7" y="-361.1" class="st5" width="95" height="95"/>
		</g>
		<g>
			<rect x="1603.6" y="-361.1" class="st6" width="95" height="95"/>
		</g>
		<g>
			<rect x="1508.6" y="-361.1" class="st0" width="95" height="95"/>
		</g>
		<g>
			<rect x="1413.6" y="-361.1" class="st2" width="95" height="95"/>
		</g>
		<g>
			<rect x="1318.5" y="-361.1" class="st3" width="95" height="95"/>
		</g>
		<g>
			<rect x="1223.5" y="-361.1" class="st4" width="95" height="95"/>
		</g>
		<g>
			<rect x="1128.4" y="-361.1" class="st5" width="95" height="95"/>
		</g>
		<g>
			<rect x="1033.4" y="-361.1" class="st6" width="95" height="95"/>
		</g>
		<g>
			<rect x="3124.3" y="-361.1" class="st2" width="95" height="95"/>
		</g>
		<g>
			<rect x="3029.2" y="-361.1" class="st3" width="95" height="95"/>
		</g>
		<g>
			<rect x="2934.2" y="-361.1" class="st4" width="95" height="95"/>
		</g>
		<g>
			<rect x="2839.2" y="-361.1" class="st5" width="95" height="95"/>
		</g>
		<g>
			<rect x="2744.1" y="-361.1" class="st6" width="95" height="95"/>
		</g>
		<g>
			<rect x="2649.1" y="-361.1" class="st0" width="95" height="95"/>
		</g>
		<g>
			<rect x="2554" y="-361.1" class="st2" width="95" height="95"/>
		</g>
		<g>
			<rect x="2459" y="-361.1" class="st3" width="95" height="95"/>
		</g>
		<g>
			<rect x="2364" y="-361.1" class="st4" width="95" height="95"/>
		</g>
		<g>
			<rect x="2268.9" y="-361.1" class="st5" width="95" height="95"/>
		</g>
		<g>
			<rect x="2173.9" y="-361.1" class="st6" width="95" height="95"/>
		</g>
	</g>
	<g>
		<rect x="4454.8" y="-361.1" class="st0" width="95" height="95"/>
	</g>
	<g>
		<rect x="4359.8" y="-361.1" class="st2" width="95" height="95"/>
	</g>
	<g>
		<rect x="4264.8" y="-361.1" class="st3" width="95" height="95"/>
	</g>
	<g>
		<rect x="4169.7" y="-361.1" class="st4" width="95" height="95"/>
	</g>
	<g>
		<rect x="4074.7" y="-361.1" class="st5" width="95" height="95"/>
	</g>
	<g>
		<rect x="3979.6" y="-361.1" class="st6" width="95" height="95"/>
	</g>
	<g>
		<rect x="3884.6" y="-361.1" class="st0" width="95" height="95"/>
	</g>
	<g>
		<rect x="3789.6" y="-361.1" class="st2" width="95" height="95"/>
	</g>
	<g>
		<rect x="3694.5" y="-361.1" class="st3" width="95" height="95"/>
	</g>
	<g>
		<rect x="3599.5" y="-361.1" class="st4" width="95" height="95"/>
	</g>
	<g>
		<rect x="3504.4" y="-361.1" class="st5" width="95" height="95"/>
	</g>
	<g>
		<rect x="3409.4" y="-361.1" class="st6" width="95" height="95"/>
	</g>
	<g>
		<rect x="5215.2" y="-361.1" class="st5" width="95" height="95"/>
	</g>
	<g>
		<rect x="5310.2" y="-361.1" class="st1" width="95" height="95"/>
	</g>
	<g>
		<rect x="5120.1" y="-361.1" class="st6" width="95" height="95"/>
	</g>
	<g>
		<rect x="5025.1" y="-361.1" class="st0" width="95" height="95"/>
	</g>
	<g>
		<rect x="4930" y="-361.1" class="st2" width="95" height="95"/>
	</g>
	<g>
		<rect x="4835" y="-361.1" class="st3" width="95" height="95"/>
	</g>
	<g>
		<rect x="4740" y="-361.1" class="st4" width="95" height="95"/>
	</g>
	<g>
		<rect x="4644.9" y="-361.1" class="st5" width="95" height="95"/>
	</g>
	<g>
		<rect x="4549.9" y="-361.1" class="st6" width="95" height="95"/>
	</g>
	<g>
		<g>
			<rect x="5690.4" y="-361.1" class="st0" width="95" height="95"/>
		</g>
		<g>
			<rect x="5595.3" y="-361.1" class="st2" width="95" height="95"/>
		</g>
		<g>
			<rect x="5500.3" y="-361.1" class="st3" width="95" height="95"/>
		</g>
		<g>
			<rect x="5405.2" y="-361.1" class="st4" width="95" height="95"/>
		</g>
		<g>
			<rect x="6830.8" y="-361.1" class="st0" width="95" height="95"/>
		</g>
		<g>
			<rect x="6735.8" y="-361.1" class="st2" width="95" height="95"/>
		</g>
		<g>
			<rect x="6640.8" y="-361.1" class="st3" width="95" height="95"/>
		</g>
		<g>
			<rect x="6545.7" y="-361.1" class="st4" width="95" height="95"/>
		</g>
		<g>
			<rect x="6450.7" y="-361.1" class="st5" width="95" height="95"/>
		</g>
		<g>
			<rect x="6355.6" y="-361.1" class="st6" width="95" height="95"/>
		</g>
		<g>
			<rect x="6260.6" y="-361.1" class="st0" width="95" height="95"/>
		</g>
		<g>
			<rect x="6165.6" y="-361.1" class="st2" width="95" height="95"/>
		</g>
		<g>
			<rect x="6070.5" y="-361.1" class="st3" width="95" height="95"/>
		</g>
		<g>
			<rect x="5975.5" y="-361.1" class="st4" width="95" height="95"/>
		</g>
		<g>
			<rect x="5880.4" y="-361.1" class="st5" width="95" height="95"/>
		</g>
		<g>
			<rect x="5785.4" y="-361.1" class="st6" width="95" height="95"/>
		</g>
		<g>
			<rect x="7116" y="-361.1" class="st4" width="95" height="95"/>
		</g>
		<g>
			<rect x="7020.9" y="-361.1" class="st5" width="95" height="95"/>
		</g>
		<g>
			<rect x="6925.9" y="-361.1" class="st6" width="95" height="95"/>
		</g>
	</g>
</g>
<path class="st12" d="M2591.6,1841.8"/>
<path id="Path_34" class="st13" d="M940.9,192.9L1006,249l66.9-59l-29.7,0.6l-1.8-82l-73,1.6l1.8,82L940.9,192.9z"/>
<text transform="matrix(-4.062802e-03 -1 1 -4.062802e-03 1009.8869 182.6413)" class="st9 st10">START</text>
</svg>
