<?xml version="1.0" encoding="utf-8"?>
<!-- Generator: Adobe Illustrator 25.1.0, SVG Export Plug-In . SVG Version: 6.00 Build 0)  -->
<svg version="1.1" id="Layer_1" xmlns="http://www.w3.org/2000/svg" xmlns:xlink="http://www.w3.org/1999/xlink" x="0px" y="0px"
	 viewBox="0 0 157.4 157.2" style="enable-background:new 0 0 157.4 157.2;" xml:space="preserve">
<style type="text/css">
	.st0{fill:#FFFFFF;stroke:#EF4043;stroke-width:2.0698;stroke-miterlimit:10;}
	.st1{fill:#EF4043;}
	.st2{opacity:0.37;fill:#A7A9AC;}
	.st3{fill:#CA242F;}
	.st4{opacity:0.3;fill:#FFFFFF;}
</style>
<g>
	<path class="st0" d="M152.6,78.3c0,40.8-33.1,73.9-73.8,73.9S4.9,119.1,4.9,78.3c0-11.8,2.8-22.9,7.7-32.8
		c2.8-5.7,6.4-11,10.5-15.7C36.6,14.2,56.5,4.4,78.7,4.4C119.5,4.4,152.6,37.5,152.6,78.3z"/>
	<path class="st1" d="M79.1,72.3c0,2-0.1,4-0.4,5.9c-2.6-21.9-22.8-30.1-39-30.5C26.2,47.3,14.5,53.1,8,56.9
		c3.4-11,10.9-22.5,15.1-27.2c3.8-1.1,7.7-1.6,11.8-1.6C59.3,28.1,79.1,47.9,79.1,72.3z"/>
	<path class="st1" d="M74.8,73.7c1.4,1.4,2.7,2.9,3.9,4.5c-17.3-13.6-37.4-5.2-49.1,6c-9.8,9.3-14,21.7-15.9,29
		C8.3,103,5.5,89.5,5.1,83.2c1.9-3.4,4.3-6.6,7.2-9.5C29.6,56.5,57.6,56.5,74.8,73.7z"/>
	<path class="st1" d="M72.8,77.4c2,0.1,4,0.4,5.9,0.8c-22,1.2-31.5,20.8-33,36.9c-1.3,13.5,3.8,25.5,7.2,32.3
		c-10.7-4.1-21.7-12.4-26.2-16.8c-0.8-3.8-1.1-7.8-0.8-11.9C27.4,94.2,48.5,75.8,72.8,77.4z"/>
	<path class="st1" d="M74,81.8c1.5-1.3,3.1-2.5,4.7-3.6c-14.7,16.4-7.6,37,2.8,49.4c8.6,10.4,20.7,15.4,27.9,17.7
		C98.9,150,85.3,152,78.9,152c-3.3-2.1-6.3-4.7-9-7.8C53.8,125.8,55.6,97.9,74,81.8z"/>
	<path class="st1" d="M77.9,84.7c0.1-2,0.3-4,0.6-5.9c1.9,21.9,21.7,30.9,37.9,31.9c13.5,0.9,25.4-4.5,32.1-8.2
		c-3.8,10.9-11.7,22.1-16.1,26.7c-3.8,0.9-7.8,1.3-11.9,1.2C96.1,129.5,77.1,109,77.9,84.7z"/>
	<path class="st1" d="M82.3,83.4c-1.4-1.5-2.6-3-3.7-4.6c16.8,14.2,37.2,6.5,49.3-4.2c10.2-8.9,14.7-21.2,16.9-28.4
		c5,10.4,7.3,23.9,7.5,30.2c-2,3.3-4.6,6.4-7.5,9.2C126.9,102.2,98.9,101.2,82.3,83.4z"/>
	<path class="st1" d="M83.9,79.2c-2,0-4-0.2-5.9-0.5c21.9-2.4,30.4-22.4,31-38.6c0.5-13.5-5.1-25.3-8.9-31.9
		c10.9,3.6,22.4,11.2,27,15.4c1,3.8,1.5,7.7,1.5,11.8C128.3,60,108.3,79.5,83.9,79.2z"/>
	<path class="st1" d="M82.5,74.9c-1.4,1.4-2.9,2.7-4.5,3.8c13.8-17.2,5.6-37.3-5.3-49.2c-9.2-9.9-21.5-14.2-28.8-16.2
		c10.2-5.2,23.8-7.9,30-8.2c3.4,2,6.5,4.4,9.4,7.3C100.4,29.9,100,57.9,82.5,74.9z"/>
	<path class="st2" d="M152.6,78.3c0,40.8-33.1,73.9-73.8,73.9c-25,0-47.1-12.4-60.4-31.4c13.1,11.7,30.3,18.9,49.3,18.9
		c40.8,0,73.8-33.1,73.8-73.9c0-15.8-5-30.5-13.4-42.5C143.1,36.8,152.6,56.4,152.6,78.3z"/>
	<path class="st3" d="M152.3,76.4c-2,3.3-4.6,6.4-7.6,9.2c-2.5,2.3-5.1,4.2-7.9,5.9c3-8,4.6-16.7,4.6-25.7c0-3.1-0.2-6.1-0.6-9.1
		c1.8-3.9,3.1-7.6,3.9-10.5C149.8,56.5,152.1,70,152.3,76.4z"/>
	<path class="st3" d="M148.5,102.5c-0.2,0.5-0.4,1-0.6,1.5c-0.4,1-0.8,2-1.3,3c-0.2,0.4-0.4,0.8-0.6,1.2c-2.9,6.1-6.6,12-9.9,16.2
		c0,0,0,0,0,0.1c-1.4,1.9-2.7,3.4-3.8,4.6c-0.1,0-0.2,0-0.3,0.1c-3.7,0.9-7.6,1.3-11.6,1.1c-4.6-0.2-9-1-13.1-2.5
		c7.3-4.7,13.8-10.7,19.1-17.7C135.8,108.8,143.6,105.2,148.5,102.5z"/>
	<path class="st3" d="M148.5,102.5c-0.2,0.5-0.4,1-0.6,1.5c-0.4,1-0.8,2-1.3,3c-0.2,0.4-0.4,0.8-0.6,1.2c-2.6,5.9-5.9,11.3-9.9,16.2
		c0,0,0,0,0,0.1c-1.3,1.6-2.6,3.1-4.1,4.6c-3.7,0.9-7.6,1.3-11.6,1.1c-4.6-0.2-9-1-13.1-2.5c7.3-4.7,13.8-10.7,19.1-17.7
		C135.8,108.8,143.6,105.2,148.5,102.5z"/>
	<path class="st3" d="M109.4,145.3C98.9,150,85.2,152,78.9,152c-3.3-2.1-6.3-4.7-9-7.8c-1.3-1.4-2.4-3-3.5-4.5c0.4,0,0.8,0,1.1,0
		c8,0,15.7-1.3,22.9-3.6C97.3,140.9,104.5,143.7,109.4,145.3z"/>
	<path class="st3" d="M109.4,145.3C98.9,150,85.2,152,78.9,152c-3.3-2.1-6.3-4.7-9-7.8c-1.3-1.4-2.4-3-3.5-4.5c0.4,0,0.8,0,1.1,0
		c8,0,15.7-1.3,22.9-3.6C97.3,140.9,104.5,143.7,109.4,145.3z"/>
	<path class="st3" d="M52.9,147.4c-10.7-4.1-21.7-12.4-26.2-16.8c-0.2-1.2-0.5-2.4-0.6-3.7c6.8,4.6,14.4,8.1,22.5,10.3
		C49.9,141.2,51.5,144.7,52.9,147.4z"/>
	<path class="st4" d="M130.7,47c-11.3-12.2-27.4-19.8-45.2-19.8c-18.5,0-35.2,8.2-46.5,21.1c-3.5,4-6.4,8.4-8.8,13.1
		c-4.1,8.3-6.4,17.6-6.4,27.4c0,12,3.5,23.3,9.4,32.8c-10.2-11-16.4-25.7-16.4-41.9c0-9.9,2.3-19.1,6.4-27.4
		c2.4-4.8,5.3-9.2,8.8-13.1c11.3-12.9,27.9-21.1,46.5-21.1C100.5,18.1,119.8,29.6,130.7,47z"/>
</g>
</svg>
