<?xml version="1.0" encoding="utf-8"?>
<!-- Generator: Adobe Illustrator 25.1.0, SVG Export Plug-In . SVG Version: 6.00 Build 0)  -->
<svg version="1.1" id="Layer_1" xmlns="http://www.w3.org/2000/svg" xmlns:xlink="http://www.w3.org/1999/xlink" x="0px" y="0px"
	 viewBox="0 0 214.2 168.6" style="enable-background:new 0 0 214.2 168.6;" xml:space="preserve">
<style type="text/css">
	.st0{fill:#F1D54B;}
	.st1{fill:#EEBB24;}
	.st2{fill:#F0C622;}
	.st3{fill:#ECE3CA;}
	.st4{fill:#F3714A;}
	.st5{fill:#F0533C;}
	.st6{fill:#F15D3D;}
	.st7{fill:#FBB988;}
	.st8{fill:#EF4043;}
	.st9{fill:#CD292E;}
	.st10{fill:#E22E34;}
	.st11{fill:#F5928C;}
	.st12{fill:#60A353;}
	.st13{fill:#4E8944;}
	.st14{fill:#559746;}
	.st15{fill:#C4D1B3;}
	.st16{fill:#4F8ECB;}
	.st17{fill:#2F79B1;}
	.st18{fill:#367FB8;}
	.st19{fill:#7DBBE6;}
	.st20{fill:#93479B;}
	.st21{fill:#733379;}
	.st22{fill:#823C89;}
	.st23{fill:#B688BD;}
	.st24{fill:#F388B2;}
	.st25{fill:#E2699C;}
	.st26{fill:#EE7DAA;}
	.st27{fill:#F8BDD0;}
</style>
<g>
	<path class="st0" d="M48,113.3l-1.4-2.8C33,83.3,44,50.3,71.2,36.7l17.3-8.6c27.2-13.6,60.2-2.5,73.7,24.7l1.4,2.8
		c13.6,27.2,2.5,60.2-24.7,73.7l-17.3,8.6C94.5,151.5,61.5,140.5,48,113.3z"/>
	<path class="st1" d="M139.7,129.4l-17.3,8.6c-17.5,8.7-37.4,7.3-53-2.1c14.2,4.6,30.2,3.9,44.6-3.3l18.6-9.3
		c26.8-13.4,39-44.5,29.5-72.1c0.3,0.5,0.6,1,0.8,1.6l1.4,2.8C177.9,82.8,166.9,115.8,139.7,129.4z"/>
	<path class="st2" d="M132.8,123.3l-18.6,9.3c-14.4,7.2-30.4,7.9-44.6,3.3l0,0c0,0,22.7-0.1,33.9-5.6l22.5-11.2
		c20.5-10.2,32.3-30.8,32.3-52.3c0-8.8-2-17.6-6.2-26c-0.8-1.7-1.8-3.3-2.8-4.9c5.3,4.6,9.7,10.3,13,16.9l0.9,1.8
		C170.8,81.3,158.6,110.5,132.8,123.3z"/>
	<path class="st0" d="M148.3,39.3L163,63.6c0,0,44.8-2.9,44.2-5.9c-0.5-3-7.1-2-9.2-5.1c-3.2-4.8,2.3-8.3,0-13.3
		c-3.1-6.8-9.3-2.5-12.9-7.1c-3.6-4.6,0.4-8-2.2-12.2s-8.1,0.2-10.4-3.1s2.8-10.5-1.1-12S148.3,39.3,148.3,39.3z"/>
	<path class="st0" d="M64,126.9l-14.7-24.2c0,0-44.8,2.9-44.2,5.9s7.1,2,9.2,5.1c3.2,4.8-2.3,8.3,0,13.3c3.1,6.8,9.3,2.5,12.9,7.1
		s-0.4,8,2.2,12.2s8.1-0.2,10.4,3.1c2.3,3.3-2.8,10.5,1.1,12S64,126.9,64,126.9z"/>
	<path class="st3" d="M101,36.9c0,0-5.3,2.3-15.4,7.7c-17.5,9.3-33,41-24.8,63.3l1.3,2.5c3.4,10.9-0.3,11.9-6.8-0.1l-1.3-2.5
		c-12.1-24.2-2.2-53.6,22-65.7L91,35.4C100.9,31.5,110.4,32.2,101,36.9z"/>
</g>
</svg>
