<svg id="Layer_1" data-name="Layer 1" xmlns="http://www.w3.org/2000/svg" viewBox="0 0 782.79 93.97"><defs><style>.cls-1,.cls-3,.cls-5{fill:none;stroke-miterlimit:10;}.cls-1,.cls-3{stroke:#f388b1;}.cls-1{stroke-width:2px;}.cls-2{fill:#f172a6;}.cls-4{fill:#f388b1;}.cls-5{stroke:#f172a6;}.cls-6{fill:#4f8ecb;}.cls-7{fill:#2f79b1;}.cls-8{fill:#367fb8;}.cls-9{fill:#7dbbe6;}.cls-10{fill:#f1d54b;}.cls-11{fill:#eebb24;}.cls-12{fill:#f0c622;}.cls-13{fill:#eee1b8;}.cls-14{fill:#93479b;}.cls-15{fill:#823c89;}.cls-16{fill:#b688bd;}</style></defs><path class="cls-1" d="M56.93,62.42A9.65,9.65,0,0,0,56.38,61a8.71,8.71,0,0,0-.93-1.52,9.62,9.62,0,0,0-1.62-1.7,42.4,42.4,0,0,1-4.08,1.93l-1.16.47a18.5,18.5,0,0,1-6.68,1.06q-6.85,0-11.11-3.88c-.23-.2-.45-.42-.67-.64A12.61,12.61,0,0,1,28.78,55a14.51,14.51,0,0,1-1.61-3,22.13,22.13,0,0,1-1.41-8.27,26.24,26.24,0,0,1,.74-6.48,15.32,15.32,0,0,1,3-6.12c.05-.07.11-.13.16-.19a12.44,12.44,0,0,1,5.47-3.63A18.14,18.14,0,0,1,41,26.5c.47,0,.92,0,1.36,0a16.4,16.4,0,0,1,5.23,1.12A31,31,0,0,1,53,30.45a10.45,10.45,0,0,0,2.89-2.89A7.78,7.78,0,0,0,55,18a11.94,11.94,0,0,0-2.75-2.17h0a17.07,17.07,0,0,0-3.64-1.58,33.9,33.9,0,0,0-10-1.29,33.54,33.54,0,0,0-11.73,2,27,27,0,0,0-9.57,6,28.17,28.17,0,0,0-6.44,9.66A32.8,32.8,0,0,0,8.53,41.41c0,.78-.07,1.58-.07,2.4q0,.86,0,1.68c0,1.34.14,2.62.29,3.86a30.68,30.68,0,0,0,2.13,8.35,30.3,30.3,0,0,0,2.05,4,24.53,24.53,0,0,0,1.94,2.74A21.18,21.18,0,0,0,17,66.72c.2.21.41.4.62.59a27.1,27.1,0,0,0,9.9,5.63c.63.2,1.27.39,1.91.55a35.1,35.1,0,0,0,4.13.83,37.28,37.28,0,0,0,5.23.42h0c.28,0,.55,0,.83,0q8.94,0,13.32-2.74t4.37-6.68A11.23,11.23,0,0,0,56.93,62.42Z"/><path class="cls-1" d="M109.06,50a13.87,13.87,0,0,0-1.33-2.77,14.07,14.07,0,0,0-2.08-2.63l-.44-.42a34.37,34.37,0,0,0-11.64-6.59c-.73-.26-1.48-.51-2.25-.76l-1.68-.54-3.41-1.09L86,35.08a12.29,12.29,0,0,1-3.52-1.61,2.76,2.76,0,0,1-1.25-2.35,3.5,3.5,0,0,1,2-3q2-1.2,6.35-1.2a28.93,28.93,0,0,1,7.22.86l.57.15a30.12,30.12,0,0,1,3.05,1,16.37,16.37,0,0,1,2.62,1.32,12,12,0,0,0,2.79-3,7.07,7.07,0,0,0,1-2.65h0A9.31,9.31,0,0,0,107,23a7.64,7.64,0,0,0-.24-1.94,6.71,6.71,0,0,0-1.2-2.44,10.59,10.59,0,0,0-4-3.07,22.88,22.88,0,0,0-6.11-1.78l-.31,0a40.37,40.37,0,0,0-4.71-.47c-.87-.05-1.76-.07-2.67-.07-1.17,0-2.28,0-3.37.12h0q-8.94.64-14.26,4.79a15.49,15.49,0,0,0-5.81,8.83,18.06,18.06,0,0,0-.48,4.24v.14a19.73,19.73,0,0,0,.3,3.46,13.49,13.49,0,0,0,1.09,3.56,15,15,0,0,0,3.89,5A20.92,20.92,0,0,0,71.39,45a24.66,24.66,0,0,0,3,1.62h0l.7.31c.93.4,1.91.8,2.92,1.2q2.25.87,4.77,1.73l4,1.35a20.12,20.12,0,0,1,4.33,2,3.32,3.32,0,0,1,1.54,2.93,3.54,3.54,0,0,1-.35,1.54h0a5,5,0,0,1-1.58,1.82A6.63,6.63,0,0,1,88,60.58h0a19,19,0,0,1-3.89.34,23.32,23.32,0,0,1-2.39-.12h0a21.47,21.47,0,0,1-6.11-1.42A26,26,0,0,1,69,55.73a12.33,12.33,0,0,0-3.56,3,7.19,7.19,0,0,0-1.63,4.75,7.62,7.62,0,0,0,1.58,4.76,10.48,10.48,0,0,0,2.19,2.11,13.17,13.17,0,0,0,2.24,1.35c.33.16.67.32,1,.47h0a24.24,24.24,0,0,0,3.61,1.21c.64.16,1.3.31,2,.44a44.13,44.13,0,0,0,8.22.72A38.34,38.34,0,0,0,98.3,72.46h0a19.53,19.53,0,0,0,5.31-2.94,17.23,17.23,0,0,0,2.51-2.37h0a15.84,15.84,0,0,0,3.93-10.84A18.87,18.87,0,0,0,109.06,50Z"/><path class="cls-1" d="M163,55a18.41,18.41,0,0,0-.56-3.67,14.44,14.44,0,0,0-4.25-7.18,26.14,26.14,0,0,0-3.57-2.72,30.33,30.33,0,0,0-2.83-1.6c-1-.52-2.07-1-3.2-1.47q-2-.84-4.29-1.56l-5.1-1.63a13.18,13.18,0,0,1-3.75-1.69,3,3,0,0,1-.82-.85,2.66,2.66,0,0,1-.43-1.5,3.51,3.51,0,0,1,2-3c1.35-.8,3.46-1.2,6.35-1.2H143a27.93,27.93,0,0,1,7.3,1A22.13,22.13,0,0,1,156,30.25a12.16,12.16,0,0,0,2.78-3A7.72,7.72,0,0,0,160,23a6.94,6.94,0,0,0-1.45-4.38,9.12,9.12,0,0,0-1.25-1.32,12,12,0,0,0-2.73-1.75l-.05,0a20.39,20.39,0,0,0-4-1.35c-.66-.16-1.36-.29-2.08-.41a47.51,47.51,0,0,0-7.69-.58q-11.34,0-17.64,4.91a15.71,15.71,0,0,0-6.3,13.07,18.12,18.12,0,0,0,.73,5.39,11.59,11.59,0,0,0,.67,1.77,13.1,13.1,0,0,0,.72,1.33A14.4,14.4,0,0,0,120.73,42a15,15,0,0,0,1.35,1.29,23.51,23.51,0,0,0,6,3.6c1.55.67,3.2,1.32,5,2h0q1.31.48,2.7,1l.83.28,3.21,1.07.27.1a19.35,19.35,0,0,1,4.06,1.87,3.29,3.29,0,0,1,1.53,2.93,4.15,4.15,0,0,1-1.92,3.37q-1.92,1.44-6.63,1.44a22.88,22.88,0,0,1-8.51-1.54l-.27-.11a28.17,28.17,0,0,1-3.07-1.44,20.56,20.56,0,0,1-2.78-1.75l-.47-.35a12.3,12.3,0,0,0-3.55,3l-.07.09a7.21,7.21,0,0,0-1.57,4.66v.05a7.77,7.77,0,0,0,.63,3.1,8.06,8.06,0,0,0,1,1.61,12.15,12.15,0,0,0,4.42,3.46,25.74,25.74,0,0,0,6.47,2.09l.17,0a40.39,40.39,0,0,0,4.85.61c1.09.07,2.21.11,3.36.11.66,0,1.3,0,1.93,0h0q11.07-.34,17-5a15.87,15.87,0,0,0,6.28-10.79A17.4,17.4,0,0,0,163,56.3C163,55.85,163,55.42,163,55Z"/><path class="cls-2" d="M139.59,74.53l23.28-15.8a15.87,15.87,0,0,1-6.28,10.79Q150.66,74.17,139.59,74.53Z"/><path class="cls-2" d="M162.43,51.32l-33.16,22.5a25.74,25.74,0,0,1-6.47-2.09,12.15,12.15,0,0,1-4.42-3.46,8.06,8.06,0,0,1-1-1.61l10.88-7.39.27.11a22.88,22.88,0,0,0,8.51,1.54q4.71,0,6.63-1.44a4.15,4.15,0,0,0,1.92-3.37,3.29,3.29,0,0,0-1.53-2.93A19.35,19.35,0,0,0,140,51.31l14.57-9.89a26.14,26.14,0,0,1,3.57,2.72A14.44,14.44,0,0,1,162.43,51.32Z"/><line class="cls-3" x1="162.99" y1="54.99" x2="134.29" y2="74.46"/><path class="cls-2" d="M110.07,56.3a15.84,15.84,0,0,1-3.93,10.84h0l-7.82,5.31h0a38.34,38.34,0,0,1-13.61,2.11,44.13,44.13,0,0,1-8.22-.72c-.68-.13-1.34-.28-2-.44L109.06,50A18.87,18.87,0,0,1,110.07,56.3Z"/><path class="cls-4" d="M122,55.73l.47.35-4.09,2.77.07-.09A12.3,12.3,0,0,1,122,55.73Z"/><path class="cls-2" d="M144.29,36.79q2.28.72,4.29,1.56L133,48.9h0c-1.78-.65-3.43-1.3-5-2a23.51,23.51,0,0,1-6-3.6A15,15,0,0,1,120.73,42l13.89-9.42a3,3,0,0,0,.82.85,13.18,13.18,0,0,0,3.75,1.69Z"/><path class="cls-2" d="M160,23a7.72,7.72,0,0,1-1.16,4.28,12.16,12.16,0,0,1-2.78,3,22.13,22.13,0,0,0-5.68-2.35,27.93,27.93,0,0,0-7.3-1l14.22-9.65a9.12,9.12,0,0,1,1.25,1.32A6.94,6.94,0,0,1,160,23Z"/><path class="cls-2" d="M56.93,62.42a11.23,11.23,0,0,1,.36,2.92q0,3.94-4.37,6.68T39.6,74.76c-.28,0-.55,0-.83,0Z"/><path class="cls-2" d="M75.6,59.38a21.47,21.47,0,0,0,6.11,1.42L67.6,70.38a10.48,10.48,0,0,1-2.19-2.11,7.62,7.62,0,0,1-1.58-4.76,7.19,7.19,0,0,1,1.63-4.75,12.33,12.33,0,0,1,3.56-3A26,26,0,0,0,75.6,59.38Z"/><path class="cls-2" d="M105.21,44.14l.44.42L91.92,53.88a3.36,3.36,0,0,0-.79-.7,20.12,20.12,0,0,0-4.33-2l-4-1.35Q80.24,49,78,48.13L93.57,37.55A34.37,34.37,0,0,1,105.21,44.14Z"/><path class="cls-2" d="M150.5,14.13l-33,22.38a18.12,18.12,0,0,1-.73-5.39,15.71,15.71,0,0,1,6.3-13.07q6.3-4.91,17.64-4.91a47.51,47.51,0,0,1,7.69.58C149.14,13.84,149.84,14,150.5,14.13Z"/><polyline class="cls-3" points="107.73 47.19 92.32 57.65 92.32 57.66 88.01 60.58 88 60.58 70.88 72.2 70.87 72.2"/><line class="cls-3" x1="154.48" y1="15.48" x2="118.91" y2="39.61"/><line class="cls-3" x1="151.78" y1="39.82" x2="136.56" y2="50.14"/><line class="cls-3" x1="125.23" y1="57.83" x2="116.79" y2="63.56"/><path class="cls-2" d="M49.75,59.68,29.4,73.49c-.64-.16-1.28-.35-1.91-.55a27.1,27.1,0,0,1-9.9-5.63c-.21-.19-.42-.38-.62-.59L30.8,57.33q4.26,3.89,11.11,3.88a18.5,18.5,0,0,0,6.68-1.06Z"/><path class="cls-2" d="M106.75,21l-9.94,6.74a28.93,28.93,0,0,0-7.22-.86q-4.32,0-6.35,1.2a3.5,3.5,0,0,0-2,3,2.76,2.76,0,0,0,1.25,2.35A12.29,12.29,0,0,0,86,35.08L71.39,45a20.92,20.92,0,0,1-2.28-1.67,15,15,0,0,1-3.89-5,13.49,13.49,0,0,1-1.09-3.56l31-21,.31,0a22.88,22.88,0,0,1,6.11,1.78,10.59,10.59,0,0,1,4,3.07A6.71,6.71,0,0,1,106.75,21Z"/><path class="cls-2" d="M25.76,43.81a22.13,22.13,0,0,0,1.41,8.27L13,61.72a30.3,30.3,0,0,1-2.05-4,30.68,30.68,0,0,1-2.13-8.35l17.72-12A26.24,26.24,0,0,0,25.76,43.81Z"/><path class="cls-2" d="M55,18a7.78,7.78,0,0,1,.86,9.56A10.45,10.45,0,0,1,53,30.45a31,31,0,0,0-5.33-2.79,16.4,16.4,0,0,0-5.23-1.12Z"/><path class="cls-2" d="M84.38,13.26,64.31,26.88a15.49,15.49,0,0,1,5.81-8.83Q75.44,13.9,84.38,13.26Z"/><line class="cls-3" x1="28.78" y1="55.04" x2="14.9" y2="64.46"/><polyline class="cls-3" points="63.83 31.26 90.43 13.21 90.74 13"/><path class="cls-2" d="M48.58,14.24l-40,27.17a32.8,32.8,0,0,1,2.28-10.82,28.17,28.17,0,0,1,6.44-9.66,27,27,0,0,1,9.57-6,33.54,33.54,0,0,1,11.73-2A33.9,33.9,0,0,1,48.58,14.24Z"/><polyline class="cls-3" points="52.22 15.82 35.17 27.39 29.54 31.21 8.49 45.49"/><line class="cls-3" x1="55.45" y1="59.45" x2="33.53" y2="74.32"/><polyline class="cls-3" points="100.43 28.93 106.85 24.58 106.85 24.57"/><polyline class="cls-3" points="89.64 36.25 74.37 46.62 74.36 46.62"/><path class="cls-1" d="M239.51,62.17a12.31,12.31,0,0,0-1.25-2.89H213.65l18.52-22.35h0l3.3-4a21.08,21.08,0,0,0,2.35-3.51c.17-.31.33-.63.48-.95a11.25,11.25,0,0,0,1.05-3.73,8.89,8.89,0,0,0,.06-1,11.32,11.32,0,0,0-4.23-9.23H199.33a7.27,7.27,0,0,0-1.16.09A5.64,5.64,0,0,0,195,16.12a4.11,4.11,0,0,0-.88,1.23h0a9,9,0,0,0-.81,4.15,12.84,12.84,0,0,0,.58,3.84,12.74,12.74,0,0,0,1.25,2.89h23.65L198.27,52.63l-1.63,1.94a24.66,24.66,0,0,0-3,4.62c0,.1-.1.2-.14.3a10.62,10.62,0,0,0-1.1,4.41,1.21,1.21,0,0,0,0,.19,12.49,12.49,0,0,0,1.06,5.29A10,10,0,0,0,196.16,73H234a7,7,0,0,0,2.2-.33,5.45,5.45,0,0,0,2.18-1.3,4.09,4.09,0,0,0,.39-.44h0A8,8,0,0,0,240.09,66,12.53,12.53,0,0,0,239.51,62.17Z"/><path class="cls-1" d="M275.33,53.88l9.46-1.42a9.17,9.17,0,0,0,5.1-2.21,6.58,6.58,0,0,0,1.82-5,18.83,18.83,0,0,0-.14-2.39,17.2,17.2,0,0,0-.63-3.24,16.35,16.35,0,0,0-.91-2.54c-.1-.23-.21-.45-.32-.67a18.54,18.54,0,0,0-4.39-5.77,20.82,20.82,0,0,0-4.8-3.2,24.94,24.94,0,0,0-2.41-1c-.45-.17-.91-.32-1.38-.46a24.44,24.44,0,0,0-4.64-.9A29,29,0,0,0,260,26.26a21.81,21.81,0,0,0-7.69,4.33,21.5,21.5,0,0,0-5.43,7.5,21.73,21.73,0,0,0-1.57,5.14,28.39,28.39,0,0,0-.47,4.37c0,.46,0,.93,0,1.4,0,.9,0,1.76.1,2.61h0a26.28,26.28,0,0,0,2,8.63,23.36,23.36,0,0,0,2.07,3.83A19.12,19.12,0,0,0,251,66.72a18.05,18.05,0,0,0,1.53,1.5l.74.62A23.71,23.71,0,0,0,261,73a31.33,31.33,0,0,0,6.55,1.38,36.92,36.92,0,0,0,4,.21l1.12,0a46.19,46.19,0,0,0,6.08-.55l.77-.13a20.82,20.82,0,0,0,6.16-2.08,6.92,6.92,0,0,0,3.85-4.71,8,8,0,0,0,.18-1.73,6.69,6.69,0,0,0-.34-2.13,7.8,7.8,0,0,0-.72-1.52,8.3,8.3,0,0,0-.78-1.1A7.75,7.75,0,0,0,286,59a23.78,23.78,0,0,1-5.72,2.35,26.93,26.93,0,0,1-7.45,1,17.08,17.08,0,0,1-7.5-1.58l-.12-.06a8.61,8.61,0,0,1-2.58-1.92A7.52,7.52,0,0,1,261.05,56l7.35-1.1ZM261.46,40.37a6.43,6.43,0,0,1,.64-.84,8.07,8.07,0,0,1,2.74-2,8.47,8.47,0,0,1,1.52-.51,11.15,11.15,0,0,1,2.47-.26,7.11,7.11,0,0,1,5.39,1.92,7.34,7.34,0,0,1,2.11,3.85l-16.44,2.69a11.06,11.06,0,0,1,.63-3,7.61,7.61,0,0,1,.94-1.84Z"/><path class="cls-1" d="M341.75,31.62a17,17,0,0,0-2.07-2,3.79,3.79,0,0,0-.4-.3,17.43,17.43,0,0,0-2.78-1.75q-5.36-2.71-13.55-2.71a43.37,43.37,0,0,0-5.32.31A34.41,34.41,0,0,0,312,26.31c-1,.28-1.86.58-2.72.91h0a24.6,24.6,0,0,0-5.47,2.83,11.66,11.66,0,0,0-3,2.91l-.05.07a7.39,7.39,0,0,0-1.11,4.23V66.11a10.1,10.1,0,0,0,.63,3.89A5.57,5.57,0,0,0,302,72.36a5.64,5.64,0,0,0,1.15.66,7.15,7.15,0,0,0,1.68.49,21.22,21.22,0,0,0,3.16.28h.64a31.38,31.38,0,0,0,4.28-.29l1.12-.17h0a16.65,16.65,0,0,0,1.9-.4V39.58a9.51,9.51,0,0,1,3.22-1.44,15,15,0,0,1,2.38-.41,13.31,13.31,0,0,1,1.41-.07,8.22,8.22,0,0,1,3.21.57,5.3,5.3,0,0,1,1.36.82,4,4,0,0,1,1.11,1.47,6.66,6.66,0,0,1,.57,2.9V66.11a10.1,10.1,0,0,0,.63,3.89,5.55,5.55,0,0,0,1.77,2.36,6.43,6.43,0,0,0,2.84,1.15c.47.08,1,.14,1.48.19.72.07,1.5.1,2.32.1q1.59,0,3.12-.15l1.16-.14a22.57,22.57,0,0,0,3-.57V42.85A16.61,16.61,0,0,0,341.75,31.62Z"/><path class="cls-2" d="M239.42,23.72a8.89,8.89,0,0,1-.06,1L198.27,52.63l20.48-24.39h-6.94l20.26-13.75h3.12A11.32,11.32,0,0,1,239.42,23.72Z"/><path class="cls-2" d="M220.71,14.49,200.45,28.24H195.1a12.74,12.74,0,0,1-1.25-2.89,12.84,12.84,0,0,1-.58-3.84,9,9,0,0,1,.81-4.15h0l4.09-2.77a7.27,7.27,0,0,1,1.16-.09Z"/><line class="cls-3" x1="226.67" y1="14.49" x2="206.41" y2="28.24"/><line class="cls-3" x1="237.83" y1="29.43" x2="193.52" y2="59.49"/><path class="cls-4" d="M314,73.34l1.9-1.29v.89A16.65,16.65,0,0,1,314,73.34Z"/><path class="cls-2" d="M345.54,52v15.2l-9.62,6.53c-.52,0-1-.11-1.48-.19a6.43,6.43,0,0,1-2.84-1.15A5.55,5.55,0,0,1,329.83,70a10.1,10.1,0,0,1-.63-3.89V63.05Z"/><path class="cls-4" d="M279.5,73.86l10-6.79a6.92,6.92,0,0,1-3.85,4.71A20.82,20.82,0,0,1,279.5,73.86Z"/><path class="cls-2" d="M299.59,60.23l16.35-11.09v15.2L303.15,73a5.64,5.64,0,0,1-1.15-.66A5.57,5.57,0,0,1,300.22,70a10.1,10.1,0,0,1-.63-3.89Z"/><path class="cls-2" d="M345.54,42.85v1.41L329.2,55.34V43.42a6.66,6.66,0,0,0-.57-2.9l13.12-8.9A16.61,16.61,0,0,1,345.54,42.85Z"/><line class="cls-3" x1="345.54" y1="48.31" x2="329.2" y2="59.4"/><line class="cls-3" x1="315.94" y1="68.39" x2="307.99" y2="73.79"/><line class="cls-3" x1="345.54" y1="70.81" x2="341.36" y2="73.65"/><path class="cls-2" d="M287.85,60.59l-20.3,13.77A31.33,31.33,0,0,1,261,73a23.71,23.71,0,0,1-7.72-4.14l12-8.12.12.06a17.08,17.08,0,0,0,7.5,1.58,26.93,26.93,0,0,0,7.45-1A23.78,23.78,0,0,0,286,59,7.75,7.75,0,0,1,287.85,60.59Z"/><path class="cls-2" d="M291.57,42.86a18.83,18.83,0,0,1,.14,2.39,6.58,6.58,0,0,1-1.82,5,9.17,9.17,0,0,1-5.1,2.21l-9.46,1.42Z"/><path class="cls-2" d="M336.5,27.58l-15,10.15-5.6,3.8L299.59,52.62V37.42l18-12.24a43.37,43.37,0,0,1,5.32-.31Q331.16,24.87,336.5,27.58Z"/><path class="cls-2" d="M239.51,62.17a12.53,12.53,0,0,1,.58,3.84A8,8,0,0,1,238.8,71h0l-2.57,1.74A7,7,0,0,1,234,73H213.34L233.6,59.28h4.66A12.31,12.31,0,0,1,239.51,62.17Z"/><path class="cls-2" d="M289.71,36.41,248.94,64.08a23.36,23.36,0,0,1-2.07-3.83,26.28,26.28,0,0,1-2-8.63h0l16.56-11.23a7.61,7.61,0,0,0-.94,1.84,11.06,11.06,0,0,0-.63,3l16.44-2.69a7.34,7.34,0,0,0-2.11-3.85,7.11,7.11,0,0,0-5.39-1.92,11.15,11.15,0,0,0-2.47.26l14.16-9.61a20.82,20.82,0,0,1,4.8,3.2A18.54,18.54,0,0,1,289.71,36.41Z"/><line class="cls-5" x1="290.94" y1="39.62" x2="268.4" y2="54.92"/><polyline class="cls-3" points="309.23 27.22 309.2 27.23 300.75 32.97"/><line class="cls-3" x1="262.67" y1="58.8" x2="251.01" y2="66.72"/><path class="cls-2" d="M232.17,36.93,213.65,59.28h8L201.37,73h-5.21a10,10,0,0,1-2.69-3.65,12.49,12.49,0,0,1-1.06-5.29,1.21,1.21,0,0,1,0-.19Z"/><path class="cls-2" d="M272.09,25.05,245.3,43.23a21.73,21.73,0,0,1,1.57-5.14,21.5,21.5,0,0,1,5.43-7.5A21.81,21.81,0,0,1,260,26.26a29,29,0,0,1,12.1-1.21Z"/><line class="cls-3" x1="227.61" y1="59.28" x2="207.35" y2="73.03"/><line class="cls-3" x1="276.73" y1="25.95" x2="244.83" y2="47.6"/><line class="cls-3" x1="339.28" y1="29.33" x2="326.16" y2="38.23"/><line class="cls-3" x1="315.94" y1="45.17" x2="299.59" y2="56.26"/><line class="cls-3" x1="289.35" y1="63.21" x2="272.65" y2="74.54"/><rect class="cls-6" x="693.41" y="20.64" width="46.39" height="53.02" rx="22.54" transform="translate(230.56 -481.53) rotate(43.64)"/><path class="cls-7" d="M736.4,60.21,730.92,66a22.53,22.53,0,0,1-20.71,6.55A24.09,24.09,0,0,0,726.94,65l5.88-6.17A24.22,24.22,0,0,0,734.16,27c.18.16.36.32.53.49l.95.9A22.54,22.54,0,0,1,736.4,60.21Z"/><path class="cls-8" d="M732.9,58.84,727,65a24.15,24.15,0,0,1-16.74,7.49h0S719,69.3,722.57,65.6l7.11-7.46a23.9,23.9,0,0,0-.8-33.82c-.57-.54-1.15-1.05-1.75-1.52a22.69,22.69,0,0,1,7.37,4.7l.6.57A24.23,24.23,0,0,1,732.9,58.84Z"/><path class="cls-6" d="M727.16,24.29l9.06,7.3s16.86-7.35,16.25-8.43-3,.23-4.26-.69c-1.91-1.41-.27-3.51-1.84-5.11-2.15-2.2-3.93.32-6-.95s-.94-3.13-2.55-4.41-3.1,1.19-4.44.25-.39-4.43-2.08-4.47S727.16,24.29,727.16,24.29Z"/><path class="cls-6" d="M706.85,69.8l-9.06-7.3s-16.86,7.35-16.24,8.42,3-.22,4.25.7c1.91,1.41.27,3.51,1.84,5.11,2.15,2.19,3.94-.32,6,1s.94,3.13,2.55,4.41,3.11-1.19,4.45-.25.38,4.43,2.07,4.47S706.85,69.8,706.85,69.8Z"/><path class="cls-9" d="M708.59,30s-1.71,1.62-4.87,5.12c-5.46,6-7,20.39-.77,27.85l.84.8c2.85,3.73,1.55,4.61-2.62.89l-.84-.8a20.08,20.08,0,0,1-.67-28.39l4.9-4.67C707.81,27.85,711.59,26.81,708.59,30Z"/><rect class="cls-10" x="712.4" y="36.02" width="46.79" height="53.48" rx="22.74" transform="translate(935.71 -648.13) rotate(100.83)"/><path class="cls-11" d="M735.54,86.68l-7.85-1.5a22.72,22.72,0,0,1-16.88-14A24.3,24.3,0,0,0,726.3,81.29l8.44,1.62a24.44,24.44,0,0,0,27.78-16.3c0,.24-.08.48-.13.72l-.24,1.29A22.74,22.74,0,0,1,735.54,86.68Z"/><path class="cls-12" d="M734.8,83l-8.45-1.62a24.33,24.33,0,0,1-15.49-10.09h0s7.49,5.67,12.56,6.64l10.2,2a24.12,24.12,0,0,0,28.24-19.17,22.93,22.93,0,0,0,.33-2.31,22.74,22.74,0,0,1,0,8.82l-.16.82A24.44,24.44,0,0,1,734.8,83Z"/><path class="cls-10" d="M761,59.22l-1.24,11.67s15.45,10.28,16,9.17-1.83-2.44-1.74-4c.16-2.39,2.83-2.15,3.33-4.36.69-3-2.42-3.15-2.45-5.57s2.14-2.51,2.35-4.56-2.71-2-2.64-3.64,3.53-2.74,2.65-4.2S761,59.22,761,59.22Z"/><path class="cls-10" d="M711.27,66.88l1.23-11.67s-15.45-10.28-16-9.17,1.84,2.44,1.74,4c-.15,2.39-2.83,2.14-3.33,4.35-.68,3,2.42,3.16,2.46,5.57s-2.15,2.51-2.35,4.57,2.71,2,2.64,3.64S694.1,70.9,695,72.35,711.27,66.88,711.27,66.88Z"/><path class="cls-13" d="M746,46.57s-2.31-.57-7-1.33c-8.11-1.33-21.12,5.2-24,14.57L714.75,61c-1.61,4.45-3.07,3.83-2.19-1.73l.22-1.15A20.25,20.25,0,0,1,736.48,42l6.63,1.6C747.36,44.76,750.3,47.4,746,46.57Z"/><path class="cls-14" d="M719.4,66.66c4.39-.11,10.59-6,15.35,1.12,5.82,8.66-4.62,19.69-18.57,17.6s-19.77-15.73-12.47-20.47S712.83,66.81,719.4,66.66Z"/><path class="cls-15" d="M716.18,85.38c-8.59-1.28-14.1-6.95-15.36-12.23a22.23,22.23,0,0,0,15.32,9.08c8.38,1.25,15.66-1.64,19.69-6.11C733.7,82.05,725.77,86.82,716.18,85.38Z"/><path class="cls-16" d="M704.78,66c1.39-1.2,4-2,5.68-1.37.68.6,1.45,1.89.52,2.76C709.79,65.93,704.78,66,704.78,66Z"/><path class="cls-16" d="M724.79,66.93c1.92-.91,4.35-1.82,7.33-.39.67.6,0,1.53-.88,2.4C730,67.52,724.79,66.93,724.79,66.93Z"/><path class="cls-1" d="M431.63,40.71a4.57,4.57,0,0,0-1-1.55,6,6,0,0,0-4.47-1.59H409.88a6.22,6.22,0,0,0-1.46.16h0a5.09,5.09,0,0,0-2.62,1.38,4,4,0,0,0-.66.85,8,8,0,0,0-.92,4.15,12.16,12.16,0,0,0,.53,3.65,15.72,15.72,0,0,0,1.1,2.79h10.29v9a8.92,8.92,0,0,1-2.06.76h0l-.43.11a16.28,16.28,0,0,1-3.75.38c-.62,0-1.22,0-1.82-.08a17.76,17.76,0,0,1-4.33-.93l-.17-.06a14.21,14.21,0,0,1-4.93-3,14.67,14.67,0,0,1-3.51-5.29c-.12-.31-.24-.63-.34-1a18.41,18.41,0,0,1-.7-3,25.16,25.16,0,0,1-.25-3.47v-.17q0-8.18,4.75-12.79c3.18-3.07,7.45-4.61,12.84-4.61a23.35,23.35,0,0,1,6.88,1c.42.13.84.27,1.24.43.77.3,1.49.6,2.18.89,1.11.5,2.12,1,3,1.48l.81.47a10.38,10.38,0,0,0,2.88-2.88.86.86,0,0,0,.1-.16,7.54,7.54,0,0,0,1.15-4.17V23.3a7.25,7.25,0,0,0-.75-3.13,10.46,10.46,0,0,0-4.58-4.37,23.65,23.65,0,0,0-7.74-2.47h0a40.26,40.26,0,0,0-4.76-.43c-.64,0-1.29,0-2,0a40.76,40.76,0,0,0-12.35,1.93,31.32,31.32,0,0,0-10.67,5.81,28.93,28.93,0,0,0-7.5,9.76c-.12.25-.24.51-.35.77a27.43,27.43,0,0,0-1.69,5.19,32.67,32.67,0,0,0-.63,4.09h0c-.11,1.19-.17,2.42-.17,3.69a33.49,33.49,0,0,0,1.57,10.55h0a24,24,0,0,0,1,2.61c0,.08.07.16.12.24a29.22,29.22,0,0,0,1.37,2.61,26.39,26.39,0,0,0,5.57,6.62,27.1,27.1,0,0,0,3.42,2.48A26.78,26.78,0,0,0,393,71a29,29,0,0,0,3.45,1.33l.3.1a43.66,43.66,0,0,0,13,1.87,49,49,0,0,0,5.24-.29c.59-.06,1.16-.14,1.73-.22,1.14-.16,2.24-.36,3.31-.59a38.5,38.5,0,0,0,4.43-1.25l.74-.28h0a20.11,20.11,0,0,0,2.6-1.2,10.9,10.9,0,0,0,3.36-2.79.26.26,0,0,0,.05-.09h0a7.56,7.56,0,0,0,1-4.31V43.63A7.08,7.08,0,0,0,431.63,40.71Z"/><path class="cls-1" d="M483.67,35.62a13.08,13.08,0,0,0-.54-1.27,15,15,0,0,0-.83-1.47,14.82,14.82,0,0,0-1.89-2.36,15.49,15.49,0,0,0-1.94-1.65,21.36,21.36,0,0,0-7.31-3.22,35.73,35.73,0,0,0-4.76-.82h0a44.24,44.24,0,0,0-4.7-.24h-.36a56.07,56.07,0,0,0-6.62.45l-.18,0a29.2,29.2,0,0,0-6.59,1.54,9.43,9.43,0,0,0-3.7,2.55,6,6,0,0,0-1.19,3.8,1.15,1.15,0,0,0,0,.19,8.27,8.27,0,0,0,.72,3.37l.15.33A7.3,7.3,0,0,0,445.46,39a4.6,4.6,0,0,0,.56.45,37.44,37.44,0,0,1,6.25-1.92,32.88,32.88,0,0,1,7.11-.77,16.52,16.52,0,0,1,7.07,1.2,4.46,4.46,0,0,1,1.41,1,4.17,4.17,0,0,1,1,2.93v.69l-1.2.13-6.37.68-5,.54q-8.26.87-12.21,4.42-3.71,3.34-3.92,9.39c0,.26,0,.53,0,.8a16.83,16.83,0,0,0,.21,2.71,13.27,13.27,0,0,0,.85,3.09,11.38,11.38,0,0,0,.52,1.12,13.28,13.28,0,0,0,4.52,4.91,20.45,20.45,0,0,0,5,2.34h0q1,.3,2,.54c.8.19,1.62.35,2.48.48a41.5,41.5,0,0,0,5.31.46l1.39,0q11.34,0,17.59-3.75a13.92,13.92,0,0,0,3.32-2.74,5.92,5.92,0,0,0,1.39-4.08V42.18A18.38,18.38,0,0,0,483.67,35.62ZM469,61.12a5.52,5.52,0,0,1-1.32.55h0a12.82,12.82,0,0,1-1.6.36,21.11,21.11,0,0,1-3.61.34q-3.56,0-5-1.2a3.83,3.83,0,0,1-1.49-3.12,3.11,3.11,0,0,1,1.73-2.89A10.72,10.72,0,0,1,462.08,54l6.92-.58Z"/><path class="cls-1" d="M527.12,29.46a5.56,5.56,0,0,0-1.94-2.76l-.33-.23a10,10,0,0,0-3.29-1.36,17.6,17.6,0,0,0-4-.42,35.94,35.94,0,0,0-5.57.43,41.87,41.87,0,0,0-5.39,1.2,40.45,40.45,0,0,0-4.85,1.78,17,17,0,0,0-3.8,2.26,8.86,8.86,0,0,0-2.35,2.84,8.09,8.09,0,0,0-.82,3.79V65.83c0,.27,0,.52,0,.77a9.56,9.56,0,0,0,.6,3.13,2.69,2.69,0,0,0,.19.38,5.25,5.25,0,0,0,1.59,2,4.53,4.53,0,0,0,.46.3h0a6.42,6.42,0,0,0,2.37.85,21.76,21.76,0,0,0,3.8.29,29.72,29.72,0,0,0,4.27-.29,22.46,22.46,0,0,0,3-.57V39.88a12.92,12.92,0,0,1,1.51-.58h0c.47-.16,1-.3,1.51-.43,1.18-.29,2.45-.56,3.8-.82s2.72-.45,4.13-.58,2.79-.19,4.13-.19a11.33,11.33,0,0,0,1-2.35,9.19,9.19,0,0,0,.39-2.65A8.8,8.8,0,0,0,527.12,29.46Z"/><path class="cls-1" d="M578.3,14a7.94,7.94,0,0,0-.29-1,5.4,5.4,0,0,0-1.31-2,2.93,2.93,0,0,0-.42-.37,6.55,6.55,0,0,0-2.84-1.15,22.86,22.86,0,0,0-3.8-.29,28,28,0,0,0-4.32.34,26,26,0,0,0-3.08.62V25.75a6.79,6.79,0,0,0-.84-.3h0a16.24,16.24,0,0,0-2.13-.52,20.23,20.23,0,0,0-2.61-.31c-.37,0-.76,0-1.14,0a31.66,31.66,0,0,0-9.85,1.49,22,22,0,0,0-8,4.57,21,21,0,0,0-5.33,7.74,22.85,22.85,0,0,0-1.12,3.48,28.21,28.21,0,0,0-.69,4.51h0q-.12,1.45-.12,3c0,.24,0,.49,0,.73a27.59,27.59,0,0,0,1.76,9.61,22.92,22.92,0,0,0,1.61,3.3,20.21,20.21,0,0,0,1.71,2.48,19.1,19.1,0,0,0,1.87,2,4.72,4.72,0,0,0,.41.37,22.63,22.63,0,0,0,8,4.63,30.6,30.6,0,0,0,5.64,1.35,38.93,38.93,0,0,0,5.41.38H557a39.93,39.93,0,0,0,5.86-.41h0a27.36,27.36,0,0,0,4.32-1,29.49,29.49,0,0,0,7.22-3.22,8.21,8.21,0,0,0,4.18-6.47h0a5.85,5.85,0,0,0,0-.73V16.9A13.14,13.14,0,0,0,578.3,14Zm-16,45.7a7.16,7.16,0,0,1-2.17,1.2,8.55,8.55,0,0,1-3.12.53,9.81,9.81,0,0,1-6.55-2.09,7.67,7.67,0,0,1-1-.94,8.7,8.7,0,0,1-1.1-1.64,11.62,11.62,0,0,1-1.05-2.93,19.87,19.87,0,0,1-.44-4.42q0-6,2.78-9t8-3a8.8,8.8,0,0,1,4.62,1.15Z"/><path class="cls-1" d="M633.66,44.65a20,20,0,0,0-.32-3.42,19,19,0,0,0-6.07-10.87l-.14-.12a19.56,19.56,0,0,0-2.58-1.91,22.47,22.47,0,0,0-3.38-1.76c-.36-.15-.73-.3-1.11-.44a26.79,26.79,0,0,0-9.27-1.54,28.68,28.68,0,0,0-8.85,1.4,21.07,21.07,0,0,0-13.12,11.82,26.29,26.29,0,0,0-2.06,10.91c0,.4,0,.79,0,1.18a33.09,33.09,0,0,0,.33,3.83,24.29,24.29,0,0,0,.67,3.21,22.77,22.77,0,0,0,6.48,10.8l.23.21a23.64,23.64,0,0,0,5.06,3.37,25,25,0,0,0,3.4,1.39,34,34,0,0,0,10.53,1.58c1.41,0,2.89-.08,4.44-.23.9-.09,1.82-.21,2.77-.35a21.29,21.29,0,0,0,6.92-2.21l.21-.12h0a8.36,8.36,0,0,0,1.31-.89l.1-.07a6.63,6.63,0,0,0,2.41-5.36c0-.1,0-.21,0-.31a7,7,0,0,0-1-3.34,8.08,8.08,0,0,0-2.6-2.69,23.39,23.39,0,0,1-5.72,2.35,26.56,26.56,0,0,1-7.45,1q-.8,0-1.56-.06a16.33,16.33,0,0,1-4.06-.78,13.23,13.23,0,0,1-1.87-.74,10.13,10.13,0,0,1-1.29-.75,7.76,7.76,0,0,1-3-4L614.48,54h0l6.88-1h0l5.36-.8a12.55,12.55,0,0,0,1.46-.3A8.23,8.23,0,0,0,631.84,50a5.2,5.2,0,0,0,.94-1.19h0a7.47,7.47,0,0,0,.89-3.8C633.67,44.86,633.67,44.76,633.66,44.65Zm-27.11-.45-4.7.77a10.17,10.17,0,0,1,.17-1.35h0a12.5,12.5,0,0,1,.45-1.67,7.91,7.91,0,0,1,4.33-4.66,9.56,9.56,0,0,1,4-.77,9.46,9.46,0,0,1,1.54.11A6.4,6.4,0,0,1,615.69,38h0a4.81,4.81,0,0,1,.47.44,7.3,7.3,0,0,1,2.12,3.84Z"/><path class="cls-1" d="M686.2,35.44a15,15,0,0,0-3.62-5.25c-.3-.29-.62-.57-1-.84q-4.92-4-13.39-4.64-1.61-.12-3.33-.12c-.58,0-1.16,0-1.73,0a40.39,40.39,0,0,0-6.43.72c-1,.2-1.93.43-2.85.7a27.73,27.73,0,0,0-8.22,3.74,11.78,11.78,0,0,0-3,3,6.49,6.49,0,0,0-1,2.83,9,9,0,0,0-.1,1.4V65.83a10.21,10.21,0,0,0,.62,3.9A5.6,5.6,0,0,0,644,72.08a6.43,6.43,0,0,0,2.84,1.15,21.72,21.72,0,0,0,3.79.29c.67,0,1.34,0,2-.06s1.54-.12,2.29-.23a22.46,22.46,0,0,0,3-.57V39.3a9.6,9.6,0,0,1,3.22-1.44,15.22,15.22,0,0,1,3.8-.48,6.92,6.92,0,0,1,4.56,1.39,1.07,1.07,0,0,1,.19.18A4.75,4.75,0,0,1,671.08,42a6.71,6.71,0,0,1,.08,1.12V65.83a13.61,13.61,0,0,0,.16,2.22,7.08,7.08,0,0,0,.46,1.68,5.6,5.6,0,0,0,1.78,2.35,6.39,6.39,0,0,0,2.83,1.15,21.92,21.92,0,0,0,3.8.29,29.77,29.77,0,0,0,4.28-.29c.86-.12,1.58-.24,2.15-.36.35-.07.64-.14.88-.21V42.57A18.53,18.53,0,0,0,686.2,35.44Z"/><path class="cls-2" d="M416.13,58.94l16.05-10.89v15.2L416.66,73.78c-.57.08-1.14.16-1.73.22a49,49,0,0,1-5.24.29,43.66,43.66,0,0,1-13-1.87l-.3-.1,17.65-12h0Z"/><path class="cls-2" d="M456.31,44l5-.54L440.18,57.82q.21-6,3.92-9.39Q448,44.88,456.31,44Z"/><path class="cls-2" d="M478.47,28.87a15.49,15.49,0,0,1,1.94,1.65L467.86,39a4.46,4.46,0,0,0-1.41-1,16.52,16.52,0,0,0-7.07-1.2,32.88,32.88,0,0,0-7.11.77A37.44,37.44,0,0,0,446,39.49a4.6,4.6,0,0,1-.56-.45l20.93-14.21h0a35.73,35.73,0,0,1,4.76.82A21.36,21.36,0,0,1,478.47,28.87Z"/><path class="cls-4" d="M425.55,30.65l-.81-.47,3.79-2.57a.86.86,0,0,1-.1.16A10.38,10.38,0,0,1,425.55,30.65Z"/><path class="cls-2" d="M398.63,56.75a14.21,14.21,0,0,0,4.93,3l-14,9.47a27.1,27.1,0,0,1-3.42-2.48,26.39,26.39,0,0,1-5.57-6.62l14.17-9.62c.1.32.22.64.34,1A14.67,14.67,0,0,0,398.63,56.75Z"/><path class="cls-2" d="M416.13,51.23v-.68H405.84a15.72,15.72,0,0,1-1.1-2.79,12.16,12.16,0,0,1-.53-3.65l9.64-6.54h12.28a6,6,0,0,1,4.47,1.59,4.57,4.57,0,0,1,1,1.55Z"/><path class="cls-2" d="M454.53,25.07l.18,0L443.05,33a6,6,0,0,1,1.19-3.8,9.43,9.43,0,0,1,3.7-2.55A29.2,29.2,0,0,1,454.53,25.07Z"/><polyline class="cls-3" points="443.76 36.52 461.33 24.6 461.34 24.6"/><line class="cls-3" x1="408.06" y1="60.75" x2="392.96" y2="70.99"/><line class="cls-3" x1="432.18" y1="44.38" x2="416.13" y2="55.27"/><polyline class="cls-3" points="440.37 61.33 467.7 42.79 468.9 41.97 482.3 32.88"/><polyline class="cls-3" points="431.18 67.56 431.17 67.57 425.16 71.65 425.14 71.66"/><path class="cls-2" d="M428.93,20.17,418.3,27.38a23.35,23.35,0,0,0-6.88-1c-5.39,0-9.66,1.54-12.84,4.61s-4.75,7.34-4.75,12.79V44L378.09,54.66a33.49,33.49,0,0,1-1.57-10.55c0-1.27.06-2.5.17-3.69h0L416.6,13.33h0a23.65,23.65,0,0,1,7.74,2.47A10.46,10.46,0,0,1,428.93,20.17Z"/><path class="cls-2" d="M397.53,14.79a40.68,40.68,0,0,1,8.07-1.7L379,31.13c.11-.26.23-.52.35-.77a28.93,28.93,0,0,1,7.5-9.76A31.32,31.32,0,0,1,397.53,14.79Z"/><line class="cls-3" x1="411.84" y1="12.9" x2="377.32" y2="36.32"/><polyline class="cls-3" points="405.13 39.96 408.41 37.73 408.42 37.73"/><line class="cls-3" x1="429.68" y1="23.3" x2="421.72" y2="28.7"/><line class="cls-3" x1="394.08" y1="47.46" x2="379.24" y2="57.52"/><path class="cls-2" d="M641.55,65.74l16.34-11.09v15.2l-5.32,3.61c-.65,0-1.32.06-2,.06a21.72,21.72,0,0,1-3.79-.29A6.43,6.43,0,0,1,644,72.08a5.6,5.6,0,0,1-1.78-2.35,10.21,10.21,0,0,1-.62-3.9Z"/><path class="cls-2" d="M687.5,42.57v7.19L671.16,60.85V45.65l15-10.21A18.53,18.53,0,0,1,687.5,42.57Z"/><path class="cls-2" d="M687.5,57.07v15.2l-.88.6c-.57.12-1.29.24-2.15.36a29.77,29.77,0,0,1-4.28.29,21.92,21.92,0,0,1-3.8-.29,6.39,6.39,0,0,1-2.83-1.15,5.6,5.6,0,0,1-1.78-2.35,7.08,7.08,0,0,1-.46-1.68Z"/><path class="cls-2" d="M630.59,61.41a7,7,0,0,1,1,3.34l-13.72,9.31c-1.55.15-3,.23-4.44.23A34,34,0,0,1,603,72.71a25,25,0,0,1-3.4-1.39L613.26,62q.76.06,1.56.06a26.56,26.56,0,0,0,7.45-1A23.39,23.39,0,0,0,628,58.72,8.08,8.08,0,0,1,630.59,61.41Z"/><path class="cls-4" d="M628.2,51.88l4.58-3.1a5.2,5.2,0,0,1-.94,1.19A8.23,8.23,0,0,1,628.2,51.88Z"/><path class="cls-2" d="M682.58,30.19,669.66,39a1.07,1.07,0,0,0-.19-.18,6.92,6.92,0,0,0-4.56-1.39,15.22,15.22,0,0,0-3.8.48,9.6,9.6,0,0,0-3.22,1.44v7.64L641.55,58V42.82l26.69-18.11q8.46.64,13.39,4.64C682,29.62,682.28,29.9,682.58,30.19Z"/><line class="cls-3" x1="684.76" y1="32.75" x2="671.08" y2="42.03"/><line class="cls-3" x1="657.89" y1="50.98" x2="641.55" y2="62.07"/><polyline class="cls-3" points="629.24 70.42 629.14 70.49 627.83 71.38 627.82 71.38"/><line class="cls-3" x1="687.5" y1="53.4" x2="671.16" y2="64.49"/><path class="cls-4" d="M562.82,73.88l15.72-10.67a8.21,8.21,0,0,1-4.18,6.47,29.49,29.49,0,0,1-7.22,3.22A27.36,27.36,0,0,1,562.82,73.88Z"/><path class="cls-2" d="M632,36.8a18.65,18.65,0,0,1,1.36,4.43L614.49,54h0L603,55.74a7.76,7.76,0,0,0,3,4l-11.78,8a22.77,22.77,0,0,1-6.48-10.8L606.55,44.2l11.74-1.92a7.3,7.3,0,0,0-2.12-3.84,4.81,4.81,0,0,0-.47-.44l11.43-7.76.14.12A18.83,18.83,0,0,1,632,36.8Z"/><path class="cls-2" d="M653.9,26c.92-.27,1.87-.5,2.85-.7l-15.1,10.25a6.49,6.49,0,0,1,1-2.83,11.78,11.78,0,0,1,3-3A27.73,27.73,0,0,1,653.9,26Z"/><path class="cls-2" d="M578.58,40.27v15.2L551.4,73.91a30.6,30.6,0,0,1-5.64-1.35,22.63,22.63,0,0,1-8-4.63l12.7-8.61a9.81,9.81,0,0,0,6.55,2.09,8.55,8.55,0,0,0,3.12-.53,7.16,7.16,0,0,0,2.17-1.2v-8.4Z"/><path class="cls-2" d="M620.06,26.13c.38.14.75.29,1.11.44L586.78,49.9c0-.39,0-.78,0-1.18a26.29,26.29,0,0,1,2.06-10.91A21.07,21.07,0,0,1,601.94,26a28.68,28.68,0,0,1,8.85-1.4A26.79,26.79,0,0,1,620.06,26.13Z"/><polyline class="cls-3" points="587.11 53.73 602.02 43.62 602.02 43.61"/><line class="cls-3" x1="624.55" y1="28.33" x2="612.33" y2="36.62"/><line class="cls-3" x1="578.58" y1="59.52" x2="556.81" y2="74.29"/><line class="cls-3" x1="609.2" y1="61.24" x2="596.75" y2="69.69"/><line class="cls-3" x1="663.18" y1="24.62" x2="641.55" y2="39.3"/><polyline class="cls-3" points="633.66 44.65 621.38 52.98 621.37 52.98"/><path class="cls-2" d="M497.63,72.38l13.47-9.14v9.42a22.46,22.46,0,0,1-3,.57,29.72,29.72,0,0,1-4.27.29,21.76,21.76,0,0,1-3.8-.29A6.42,6.42,0,0,1,497.63,72.38Z"/><path class="cls-2" d="M578.58,17.45V32.66l-16.24,11V38.53a8.8,8.8,0,0,0-4.62-1.15q-5.19,0-8,3t-2.78,9a19.87,19.87,0,0,0,.44,4.42L533.81,63a22.92,22.92,0,0,1-1.61-3.3,27.59,27.59,0,0,1-1.76-9.61Z"/><path class="cls-2" d="M461.07,74.27,484.76,58.2v5.52a5.92,5.92,0,0,1-1.39,4.08,13.92,13.92,0,0,1-3.32,2.74q-6.24,3.75-17.59,3.75Z"/><path class="cls-2" d="M494.76,51.41,511.1,40.33v15.2L494.78,66.6c0-.25,0-.5,0-.77Z"/><path class="cls-2" d="M527.12,29.46a8.8,8.8,0,0,1,.42,2.82,9.19,9.19,0,0,1-.39,2.65,11.33,11.33,0,0,1-1,2.35c-1.34,0-2.72.07-4.13.19s-2.79.33-4.13.58-2.62.53-3.8.82c-.55.13-1,.27-1.51.43Z"/><path class="cls-2" d="M555.51,24.59c.38,0,.77,0,1.14,0L531.23,41.87a22.85,22.85,0,0,1,1.12-3.48,21,21,0,0,1,5.33-7.74,22,22,0,0,1,8-4.57A31.66,31.66,0,0,1,555.51,24.59Z"/><path class="cls-2" d="M576.28,10.65a2.93,2.93,0,0,1,.42.37l-14.46,9.81V10.17a26,26,0,0,1,3.08-.62,28,28,0,0,1,4.32-.34,22.86,22.86,0,0,1,3.8.29A6.55,6.55,0,0,1,576.28,10.65Z"/><polyline class="cls-3" points="530.54 46.39 530.54 46.38 561.39 25.45 561.4 25.45 562.24 24.87 578.3 13.98"/><line class="cls-3" x1="511.1" y1="59.57" x2="495.57" y2="70.11"/><path class="cls-2" d="M484.76,42.18v7.9L469,60.77V53.43l-6.92.58a10.72,10.72,0,0,0-4.43,1.15,3.11,3.11,0,0,0-1.73,2.89,3.83,3.83,0,0,0,1.49,3.12q1.5,1.2,5,1.2a21.11,21.11,0,0,0,3.61-.34,12.82,12.82,0,0,0,1.6-.36L451.3,72.79h0a20.45,20.45,0,0,1-5-2.34,13.28,13.28,0,0,1-4.52-4.91,11.38,11.38,0,0,1-.52-1.12l42.45-28.8A18.38,18.38,0,0,1,484.76,42.18Z"/><path class="cls-2" d="M517.54,24.69a17.6,17.6,0,0,1,4,.42L494.76,43.3V37a8.09,8.09,0,0,1,.82-3.79,8.86,8.86,0,0,1,2.35-2.84,17,17,0,0,1,3.8-2.26,40.45,40.45,0,0,1,4.85-1.78,41.87,41.87,0,0,1,5.39-1.2A35.94,35.94,0,0,1,517.54,24.69Z"/><line class="cls-3" x1="484.76" y1="54.13" x2="455.76" y2="73.81"/><line class="cls-3" x1="525.18" y1="26.7" x2="494.76" y2="47.35"/><line class="cls-3" x1="578.58" y1="36.29" x2="562.34" y2="47.31"/><line class="cls-3" x1="548.45" y1="56.74" x2="535.52" y2="65.51"/></svg>