<svg id="Layer_1" data-name="Layer 1" xmlns="http://www.w3.org/2000/svg" viewBox="0 0 1195.52 9391.87"><defs><style>.cls-1{fill:#60a353;}.cls-2{fill:#f388b2;}.cls-3{fill:#f3714a;}.cls-4{fill:#4f8ecb;}.cls-5{fill:#f1d54b;}.cls-6{fill:#93479b;}.cls-7{fill:#ef4043;}.cls-12,.cls-8{fill:#fff;}.cls-9{fill:none;stroke-width:3px;}.cls-12,.cls-9{stroke:#707071;}.cls-10,.cls-11,.cls-13{isolation:isolate;}.cls-11{font-size:18.8px;letter-spacing:0.05em;}.cls-11,.cls-13{font-family:OpenSans-Bold, Open Sans;font-weight:700;}.cls-12{stroke-width:3px;}.cls-13{font-size:18.8px;letter-spacing:0.05em;}</style></defs><path class="cls-1" d="M30,6160.23l-1.59-5c-.53-1.66-1-3.37-1.46-5.05-.93-3.38-1.92-6.73-2.78-10.16l-2.45-10.31c-.43-1.71-.76-3.47-1.1-5.21l-1-5.25a309.35,309.35,0,0,1-5.16-42.77l-.29-5.42-.08-5.43c0-3.63-.13-7.25,0-10.88l.4-10.87.12-2.72.22-2.71.46-5.42c.51-7.24,1.62-14.39,2.61-21.55.56-3.57,1.28-7.09,1.93-10.64l1-5.3c.35-1.77.81-3.5,1.21-5.24l132.46,30.37c-.23,1-.53,2-.72,3l-.56,3c-.35,2-.81,4-1.12,6.08-.5,4.06-1.23,8.1-1.45,12.16l-.28,3.05-.14,1.52,0,1.53-.23,6.09c-.06,2,0,4.08,0,6.12v3.05l.2,3.07a173.88,173.88,0,0,0,3,24.62l.59,3.1c.2,1,.38,2.06.65,3.1l1.48,6.21c.51,2.07,1.16,4.14,1.71,6.22.3,1,.55,2.08.89,3.12l1,3.11Z"/><path class="cls-2" d="M22,5990.33l2.52-10.45c.93-3.44,2-6.83,3-10.25l1.51-5.11c.5-1.72,1.12-3.35,1.68-5l3.48-10c.56-1.68,1.22-3.29,1.87-4.91l1.95-4.87,2-4.85c.66-1.62,1.3-3.25,2-4.81l4.31-9.43,2.18-4.71,2.33-4.57a446.79,446.79,0,0,1,42.59-67.86l108.49,81.85c-23.11,30.6-40.13,63-47.4,95.36Z"/><path class="cls-1" d="M650.83,3848.91a122,122,0,0,1-22.07-27c-1.49-2.5-3-5-4.22-7.65l-1.93-3.92c-.6-1.33-1.16-2.67-1.73-4s-1.12-2.69-1.64-4l-1.42-4.14c-.48-1.38-.88-2.79-1.39-4.16l-1.22-4.21-1.42-6.12-.71-3.07c-.23-1-.49-2.07-.64-2.95l-1.66-9.44c-.41-2.85-.78-5.67-1.14-8.51l-.27-2.12-.2-2-.39-4c-1-10.7-1.34-20.63-1.56-29.53s-.36-16.91-.65-24.08l-.25-5.21-.34-4.78-.08-1.18-.12-1.08-.22-2.17c-.08-.7-.13-1.47-.22-2.13l-.28-1.94,134.59-18.83.59,4.29c.18,1.42.3,2.74.45,4.12l.41,4.09.2,2.05.15,1.95.55,7.78.35,7.36c.39,9.6.52,18.34.73,26.24s.5,14.72,1,20.73l.2,2.21.1,1.11.14,1,.52,4,.33,1.77.15.85,0,.33v.12h0Z"/><path class="cls-3" d="M605.06,3679.41l-.36-2.61-.45-2.32-.21-1.16-.1-.58-.14-.51c-.18-.67-.34-1.35-.5-2l-.23-1c-.09-.35-.22-.73-.33-1.1l-.66-2.22c-.22-.73-.5-1.4-.73-2.11s-.46-1.42-.75-2.06-.54-1.32-.79-2-.59-1.25-.87-1.89c-.52-1.3-1.22-2.43-1.79-3.65-.32-.58-.68-1.13-1-1.71l-.48-.87-.54-.81-1-1.65c-.4-.53-.78-1.06-1.15-1.59a58.1,58.1,0,0,0-5.15-6.13l-.7-.76-.77-.73c-.53-.48-1-1-1.54-1.48-1.11-.95-2.15-2-3.38-2.9s-2.47-1.91-3.71-2.89l-2-1.41-1-.71-1.09-.69c-2.81-1.89-6-3.68-9.31-5.47l63.55-120.13c6.66,3.57,13.33,7.37,20,11.74l2.48,1.61,2.48,1.71c1.65,1.15,3.29,2.28,4.93,3.46,3.26,2.45,6.52,4.85,9.72,7.52s6.35,5.39,9.47,8.19c1.56,1.42,3.08,2.93,4.6,4.4l2.28,2.22,2.22,2.33a194,194,0,0,1,16.68,19.87l3.78,5.32c1.22,1.81,2.39,3.65,3.57,5.48l1.75,2.76,1.64,2.81c1.09,1.88,2.19,3.76,3.23,5.66,2,3.83,4,7.66,5.76,11.56.88,2,1.81,3.89,2.62,5.85l2.37,5.9c.81,2,1.48,3.93,2.17,5.91s1.4,3.95,2,5.92l1.78,5.92c.29,1,.59,2,.86,3l.78,3.1,1.51,6.22.37,1.56.29,1.51.58,3,1.12,6,.84,5.8Z"/><path class="cls-4" d="M564.24,3624.36c-1.7-.87-3.39-1.77-5.21-2.61s-3.65-1.68-5.5-2.53c-3.82-1.63-7.75-3.25-11.94-4.75-8.28-3-17.28-5.79-26.7-8.32s-19.3-4.84-29.49-7S464.71,3595,454,3593l24.32-133.71c11.52,2.09,23.28,4.34,35.25,6.87s24.15,5.34,36.61,8.69,25.15,7.18,38.13,12c6.47,2.33,13,5,19.62,7.82,3.31,1.49,6.6,2.92,9.93,4.56s6.65,3.28,10,5Z"/><path class="cls-5" d="M454,3593c-21.52-3.92-43.95-7.6-67.16-11.91s-47.19-9.23-72-16l36.14-131c18.91,5.21,39.32,9.48,60.66,13.44s43.6,7.62,66.65,11.81Z"/><path class="cls-6" d="M314.82,3565.09c-12.38-3.41-25-7.35-37.74-12-3.19-1.15-6.41-2.43-9.59-3.66l-9.38-3.87c-6.18-2.68-12.33-5.41-18.35-8.35q-18.1-8.74-35.27-19t-33.37-22.06l79.83-110c7.52,5.44,15.29,10.61,23.3,15.4s16.22,9.19,24.54,13.21c4.16,2,8.37,3.89,12.57,5.72l6.33,2.62c2.1.8,4.13,1.62,6.28,2.39q12.78,4.66,27,8.57Z"/><path class="cls-7" d="M171.12,3496.15a418.82,418.82,0,0,1-60.78-53.55,361.86,361.86,0,0,1-26.64-32.15,326.35,326.35,0,0,1-23.19-36.19L179.7,3309a212,212,0,0,0,30.18,41.1A284.16,284.16,0,0,0,251,3386.17Z"/><path class="cls-1" d="M60.51,3374.26a288.78,288.78,0,0,1-18.3-40.6,259.43,259.43,0,0,1-11.74-44.55,241.12,241.12,0,0,1-3.24-46.79,273.4,273.4,0,0,1,5-45.11l133.35,26.23a137.32,137.32,0,0,0-2.51,22.32,105.21,105.21,0,0,0,1.41,20.89c2.37,13.88,7.51,28.16,15.2,42.33Z"/><path class="cls-3" d="M32.25,3197.21a305,305,0,0,1,11.5-42l1.77-5.05c.6-1.68,1.27-3.3,1.9-5l1.93-4.93c.64-1.65,1.3-3.29,2-4.88l4.19-9.63,4.48-9.41a407.88,407.88,0,0,1,20-35.89c7.23-11.51,15-22.52,23.2-33.17l107.59,83c-5.61,7.31-10.92,14.81-15.74,22.49s-9.18,15.51-13.08,23.4a207.49,207.49,0,0,0-10,23.77,167.25,167.25,0,0,0-6.47,23.47Z"/><path class="cls-4" d="M103.27,3047.29c8.17-10.67,16.87-20.85,26-30.65s18.63-19.25,28.7-28.19,20.55-17.51,31.56-25.6a374.07,374.07,0,0,1,34.85-22.64l67.46,118a238.81,238.81,0,0,0-22.1,14.36c-7.23,5.33-14.32,11.09-21.17,17.2s-13.46,12.64-19.76,19.41-12.35,13.83-17.94,21.15Z"/><path class="cls-5" d="M224.37,2940.21l4.59-2.61c.37-.22.78-.44,1.23-.67l1.3-.67,2.6-1.34,5.22-2.66c1.74-.85,3.46-1.8,5.25-2.55q5.33-2.37,10.69-4.65c1.78-.81,3.59-1.43,5.4-2.11l5.43-2c1.81-.65,3.62-1.34,5.44-1.94l5.47-1.68,5.48-1.64,2.74-.81,2.74-.68,11-2.67c3.64-.74,7.27-1.42,10.92-2.1s7.24-1.19,10.85-1.71,7.24-1,10.78-1.33l10.69-1,10.53-.55c3.54-.23,7-.2,10.42-.26s6.93-.13,10.3,0l10.18.25,10,.53L385.25,3041c-18.66-1.18-36.14-.56-51.67,2.21l-5.76,1.09q-2.76.7-5.54,1.36l-1.39.32-1.32.42-2.65.81-2.67.78c-.86.28-1.69.63-2.54.94l-2.55.93a26.21,26.21,0,0,0-2.52,1c-1.62.73-3.24,1.44-4.88,2.13-.85.31-1.58.79-2.38,1.17l-2.35,1.21-1.18.58-.59.3a4.54,4.54,0,0,0-.64.34l-2.79,1.6Z"/><path class="cls-6" d="M393.59,2905.39c1.66.1,3.34.18,5,.31l4.91.41c3.26.29,6.57.53,9.79.88,6.42.72,12.89,1.41,19.15,2.33,12.67,1.69,24.95,3.83,37.06,6.11,24.14,4.64,47.41,10.09,70,15.75L506.55,3063c-21.35-5.35-42.23-10.2-62.57-14.11-10.14-1.91-20.19-3.66-30-5-4.94-.73-9.74-1.21-14.57-1.77-2.41-.27-4.75-.42-7.13-.64l-3.55-.31c-1.18-.09-2.33-.13-3.5-.2Z"/><path class="cls-7" d="M539.47,2931.18c22.61,5.65,44.63,11.48,66.21,17,10.82,2.79,21.47,5.44,32.09,8s21.1,5,31.48,7.23l-28.71,132.84c-11.77-2.52-23.28-5.24-34.74-8s-22.71-5.6-33.83-8.46c-22.3-5.72-44.08-11.48-65.42-16.81Z"/><path class="cls-1" d="M113.9,4461.28a268.68,268.68,0,0,1,32.38-84.46,252,252,0,0,1,27.43-37.57c2.55-3,5.27-5.76,7.94-8.61s5.49-5.56,8.38-8.19c5.67-5.37,11.67-10.37,17.81-15.16L291,4414.81a113.3,113.3,0,0,0-28,31.65,133.22,133.22,0,0,0-15.91,41.88Z"/><path class="cls-3" d="M207.84,4307.29a254.15,254.15,0,0,1,39-24.81c6.78-3.56,13.7-6.64,20.64-9.58s14-5.45,21-7.68a307.39,307.39,0,0,1,42.39-10.34,348.67,348.67,0,0,1,41.88-4.52l6.62,135.74a213.85,213.85,0,0,0-25.64,2.74,173.1,173.1,0,0,0-23.57,5.73c-3.75,1.17-7.33,2.55-10.87,4s-6.93,3-10.17,4.72A118.81,118.81,0,0,0,291,4414.81Z"/><path class="cls-4" d="M372.82,4250.36a435,435,0,0,1,80.27,3.89,587.84,587.84,0,0,1,75.19,15.57L492.5,4400.93a450,450,0,0,0-57.79-12,299.24,299.24,0,0,0-55.27-2.81Z"/><path class="cls-5" d="M528.28,4269.82c12.12,3.34,24.11,6.91,35.87,10.82,5.92,1.9,11.72,4,17.56,6,2.92,1,5.79,2.1,8.68,3.15s5.79,2.09,8.64,3.21c5.72,2.21,11.45,4.38,17.09,6.7l8.16,3.28c1.82.72,3.61,1.46,5.57,2.14a233.4,233.4,0,0,0,25.27,7.51l-32,132.06a363.64,363.64,0,0,1-39.82-11.91c-3.38-1.2-6.84-2.58-10.28-3.95l-7.6-3.06c-4.83-2-9.69-3.83-14.54-5.7-2.42-1-4.86-1.81-7.28-2.71s-4.86-1.8-7.29-2.65c-4.87-1.67-9.72-3.42-14.59-5-9.73-3.25-19.46-6.13-29.17-8.81Z"/><path class="cls-6" d="M655.12,4312.63a417.28,417.28,0,0,0,57.55,9.34,588.89,588.89,0,0,0,60.81,2.64l.95,135.9a727.61,727.61,0,0,1-74.9-3.27,549.33,549.33,0,0,1-76.46-12.55Z"/><path class="cls-7" d="M773.48,4324.61c20.43-.15,40.91-1.28,61.1-3.42a524,524,0,0,0,59.34-9.62l29.77,132.6A660.36,660.36,0,0,1,849,4456.33q-37.28,4-74.53,4.18Z"/><path class="cls-1" d="M893.92,4311.57A353.67,353.67,0,0,0,948.35,4295a226.45,226.45,0,0,0,23.49-11A139.31,139.31,0,0,0,991,4271.63l83.85,106.95a274.52,274.52,0,0,1-37.71,24.67,361.55,361.55,0,0,1-38,17.85,487.8,487.8,0,0,1-75.42,23.07Z"/><path class="cls-3" d="M991,4271.63a79.27,79.27,0,0,0,13-12.5q.52-.75,1.08-1.47c.18-.24.39-.48.56-.71l.45-.72.48-.7.25-.34.12-.17.21-.34,1.73-2.87c1.15-1.93,2.36-3.8,3.48-5.76l3.29-5.9a271.66,271.66,0,0,0,11.86-24.59c1.87-4.17,3.42-8.5,5.1-12.77.82-2.15,1.51-4.34,2.28-6.51s1.53-4.33,2.17-6.55l129.55,41.05c-1,3.22-2.06,6.4-3.17,9.58s-2.16,6.37-3.35,9.51c-2.43,6.29-4.76,12.6-7.48,18.78-5.2,12.45-11.19,24.62-17.66,36.59l-5,8.92c-1.7,3-3.53,5.87-5.29,8.8l-2.68,4.38-.35.57-.47.71-.94,1.41-1.9,2.83-1.91,2.81c-.65.91-1.32,1.79-2,2.69l-4,5.31-4.17,5c-.71.83-1.41,1.68-2.12,2.48l-2.15,2.37c-1.45,1.56-2.89,3.15-4.36,4.67l-4.43,4.42c-.75.73-1.49,1.48-2.24,2.18l-2.26,2.07L1084,4371l-4.6,3.86-2.31,1.92-2.32,1.81Z"/><path class="cls-4" d="M1037,4189.73l2-6.59c.64-2.21,1.2-4.44,1.82-6.65l.9-3.33c.29-1.11.53-2.23.79-3.35l1.58-6.7,1.32-6.74.67-3.37.54-3.38,1.08-6.76.83-6.76c.13-1.12.31-2.25.4-3.37l.29-3.38c.17-2.25.43-4.5.56-6.74.18-4.48.53-9,.48-13.4l0-3.34c0-1.11,0-2.22,0-3.32l-.18-6.61c0-1.11-.09-2.2-.17-3.28l-.23-3.26c-.16-2.18-.25-4.37-.54-6.5l135.22-13.56c.43,3.5.63,7,.88,10.44l.35,5.21c.13,1.73.23,3.47.27,5.2l.29,10.37c.06,1.73.06,3.45,0,5.17l0,5.16c0,6.89-.42,13.7-.76,20.54-.2,3.41-.55,6.79-.83,10.19l-.45,5.09c-.15,1.69-.39,3.37-.59,5.05l-1.26,10.1c-.49,3.35-1,6.68-1.58,10l-.81,5-1,5-2,9.92-2.29,9.84c-.39,1.64-.76,3.28-1.17,4.91l-1.31,4.87c-.89,3.25-1.74,6.5-2.67,9.73l-3,9.65Z"/><path class="cls-5" d="M1015.28,3994.66c-.59-.71-1.1-1.5-1.76-2.16l-1.87-2-1.86-2.07-.92-1c-.31-.35-.66-.64-1-1q-2-1.92-4-3.88c-.34-.34-.6-.64-1-1l-1.21-1.07-2.43-2.17a226.7,226.7,0,0,0-20.57-16.05,259,259,0,0,0-47.3-25.64l52.68-125.28a394.7,394.7,0,0,1,71.9,39.13,361.69,361.69,0,0,1,33,25.72l3.91,3.5,2,1.74c.65.58,1.36,1.3,2,2l8.17,8c.67.67,1.37,1.32,2,2l1.93,2.11,3.84,4.24,3.82,4.25c1.29,1.4,2.42,2.93,3.64,4.4Z"/><path class="cls-2" d="M1049.17,4082.9l-.71-6.43c-.29-2.12-.66-4.21-1-6.32L1047,4067l-.63-3.09c-.44-2-.79-4.14-1.26-6.17-1-4-1.92-8.08-3.2-11.93-1.07-4-2.56-7.67-3.85-11.48-.72-1.85-1.53-3.65-2.27-5.48-.38-.91-.73-1.84-1.13-2.74l-1.28-2.63-1.25-2.63c-.43-.87-.8-1.79-1.3-2.6-.93-1.68-1.86-3.36-2.76-5.05-.24-.42-.45-.85-.69-1.26l-.77-1.2-1.51-2.41-1.49-2.42c-.47-.82-1.08-1.53-1.61-2.31-1.09-1.52-2.16-3.06-3.22-4.6s-2.36-2.88-3.51-4.34l105-86.32,7.11,8.92c2.21,3.07,4.4,6.17,6.58,9.26,1.07,1.56,2.22,3.08,3.21,4.69l3,4.78,3,4.8,1.49,2.41c.47.81.91,1.63,1.37,2.45l5.39,9.85c.93,1.64,1.69,3.32,2.51,5l2.41,5,2.39,5c.75,1.69,1.44,3.39,2.16,5.09,1.4,3.4,2.86,6.8,4.18,10.23,2.46,6.87,5,13.75,7,20.71,2.21,6.93,3.85,13.9,5.58,20.88.8,3.48,1.45,7,2.16,10.47l1,5.24.83,5.23c.54,3.49,1.11,7,1.58,10.48l1.17,10.45Z"/><path class="cls-6" d="M931.38,3936.56a393.25,393.25,0,0,0-54.93-18c-19.49-5-40-9-61.68-12.87l24-133.78c22.88,4.1,46.89,8.74,71.31,15a529.85,529.85,0,0,1,74,24.45Z"/><path class="cls-7" d="M814.77,3905.65l-33.62-6c-11.59-2.1-23.65-4.4-36.42-7.32-6.42-1.5-13-3.15-19.88-5.09s-14.08-4.28-21.64-7.15l-2.85-1.11c-.94-.36-1.89-.74-2.89-1.17-2-.84-3.9-1.64-5.9-2.54l-6.06-2.86-3.29-1.7c-1.31-.69-2.72-1.41-3.94-2.11a146,146,0,0,1-27.45-19.72l94.8-98.36s0,0,0,0a.92.92,0,0,0-.2-.12l.16.09.32.18c.54.24,1.09.49,1.62.76l1.9.81c.31.14.67.28,1.05.42l1.11.43c3,1.15,6.64,2.33,10.62,3.48s8.42,2.25,13,3.33c9.31,2.13,19.5,4.1,30.2,6l33.29,5.9Z"/><path class="cls-1" d="M902.49,5298.29l-5.73-4.51c-1-.74-1.9-1.51-2.87-2.24l-2.92-2.17-5.84-4.33-6-4.15c-3.92-2.84-8-5.38-12-8.05-.49-.32-1-.69-1.48-1l-1.25-.73-2.5-1.47c-1.67-1-3.28-2.06-5-2.87s-3.42-1.77-5.12-2.68-3.53-1.57-5.27-2.39l-2.64-1.2-2.73-1c-1.83-.67-3.59-1.46-5.45-2.08s-3.75-1.2-5.61-1.82l-1.4-.47-1.45-.38-2.89-.76c-3.79-1.16-7.84-1.83-11.78-2.76l25.51-133.49c7.11,1.54,14.21,2.9,21.3,4.94l5.31,1.43,2.65.73,2.64.85,10.55,3.43c3.5,1.2,7,2.61,10.43,3.93l5.2,2,5.11,2.27c3.4,1.54,6.82,3,10.18,4.66l10,5.16c3.35,1.67,6.52,3.63,9.73,5.53l4.81,2.87,2.39,1.44c.77.47,1.39.9,2.09,1.35,5.43,3.57,10.93,7.06,16.21,10.83l8,5.58,7.81,5.78,3.9,2.9c1.29,1,2.55,2,3.82,3l7.63,6Z"/><path class="cls-3" d="M812.55,5251.24l-6.12-1c-1-.15-2-.38-3.07-.49l-3.14-.36-3.14-.38c-1-.14-2.09-.27-3.17-.33l-6.44-.49c-1.06-.11-2.17-.12-3.27-.16l-3.29-.11-3.29-.13c-1.1-.05-2.23,0-3.35,0h-6.72l-6.84.27c-1.14.06-2.27.06-3.43.15l-3.47.25c-2.33.19-4.62.29-7,.53-4.71.51-9.38.91-14.17,1.61s-9.56,1.38-14.38,2.14c-2.4.36-4.85.88-7.27,1.3s-4.85.86-7.31,1.4L676.92,5122.2c3.08-.67,6.24-1.21,9.38-1.8s6.25-1.2,9.45-1.69c6.37-1,12.71-2.07,19.22-2.86s13-1.54,19.59-2.22c3.29-.32,6.65-.51,10-.76l5-.35c1.67-.12,3.38-.15,5.06-.23l10.13-.38,10.27,0c1.72,0,3.41,0,5.15,0l5.19.18,5.2.18c1.73.07,3.46.12,5.22.27l10.5.8c1.74.12,3.51.32,5.27.53l5.3.63,5.29.65c1.76.2,3.55.55,5.32.82l10.64,1.79Z"/><path class="cls-4" d="M703.71,5255.43l-7.35,1.53c-2.45.5-4.92,1.12-7.39,1.67-4.92,1.08-9.91,2.39-14.87,3.6-10,2.61-20,5.35-30.1,8.43-20.2,6-40.67,13-61.42,20.26l-45.23-128.15c22-7.74,44.41-15.36,67.63-22.29,11.56-3.51,23.39-6.77,35.33-9.88,6-1.49,12-3,18.15-4.4,3.06-.69,6.08-1.43,9.18-2.07l9.28-1.93Z"/><path class="cls-5" d="M582.58,5290.92c-10.4,3.68-20.83,7.43-31.43,11.28l-16.73,6-8.61,3c-2.86,1-5.74,2-8.64,2.89-11.53,3.86-23.27,7.38-35.06,10.82l-8.91,2.47-4.46,1.23-4.5,1.17-9,2.32-9.09,2.18L415,5201.94l7.43-1.78,7.45-1.92,3.72-1,3.73-1,7.46-2.06c10-2.92,19.91-5.89,29.87-9.22,2.49-.8,5-1.63,7.46-2.5l7.47-2.55,15.25-5.47c10.69-3.89,21.58-7.8,32.53-11.67Z"/><path class="cls-6" d="M446.15,5334.22l-4.54,1.08-4.59,1-9.19,2-9.28,1.83-4.65.91c-1.55.3-3.12.55-4.69.83l-9.39,1.62-9.49,1.44-4.75.7c-1.59.23-3.2.41-4.8.61l-9.62,1.18c-3.22.34-6.48.63-9.72.95l-4.87.46c-1.63.14-3.28.23-4.91.35l-9.86.64-10,.37-5,.16-5.05,0c-3.37,0-6.72,0-10.1,0-6.82-.25-13.57-.33-20.49-.91l9.29-135.59c4.37.42,9,.41,13.45.61h10.34l3.5-.13,7-.25,7.1-.48c1.19-.08,2.37-.13,3.56-.24l3.59-.34,7.18-.7A500.05,500.05,0,0,0,415,5201.94Z"/><path class="cls-7" d="M291.21,5349.47l-5.16-.37c-1.72-.12-3.43-.24-5.18-.45l-10.42-1.16c-1.73-.18-3.48-.44-5.23-.71L260,5346l-5.25-.82c-1.74-.25-3.52-.67-5.28-1L238.87,5342l-10.6-2.66c-1.77-.47-3.53-.84-5.29-1.41l-5.3-1.61-5.29-1.63-2.65-.82-2.63-.95-10.53-3.86c-3.5-1.36-7-2.92-10.44-4.4l-5.19-2.28-5.13-2.54-5.11-2.57c-1.7-.88-3.42-1.69-5.07-2.68l-10-5.78c-.83-.49-1.67-1-2.48-1.48l-2.42-1.59-4.82-3.2-4.81-3.23c-1.61-1.08-3.11-2.29-4.67-3.44-3.08-2.34-6.16-4.68-9.21-7.06L213,5183.41c1.43,1.08,2.88,2.15,4.29,3.25.73.53,1.39,1.14,2.15,1.62l2.27,1.48,2.24,1.5,1.12.77c.37.25.78.45,1.17.68,1.59.89,3.16,1.81,4.72,2.74a25.75,25.75,0,0,0,2.45,1.27l2.48,1.24,2.46,1.27,2.6,1.1c1.75.71,3.42,1.54,5.21,2.22s3.62,1.3,5.42,2l1.35.51,1.42.42,2.83.86,2.82.88c.92.33,1.95.5,2.92.76l5.87,1.5,6.09,1.21c1,.19,2,.46,3.06.59l3.15.48,3.14.49c1,.17,2.09.34,3.18.43l6.46.72c1.07.15,2.18.21,3.28.28l3.31.23Z"/><path class="cls-1" d="M127.25,5288.82q-4.4-3.75-8.77-7.57c-1.43-1.29-2.94-2.5-4.3-3.86l-4.12-4-4.1-4.06c-1.35-1.35-2.76-2.71-4-4.08L94.57,5257c-1.26-1.37-2.4-2.79-3.57-4.21l-3.47-4.27-3.46-4.28c-1.13-1.44-2.18-2.92-3.27-4.38-2.15-2.94-4.34-5.86-6.42-8.83l-6-9c-2-3-3.8-6.11-5.66-9.18s-3.73-6.15-5.37-9.3l-5-9.42c-1.59-3.18-3.1-6.37-4.64-9.56-.76-1.6-1.55-3.19-2.27-4.8l-2.1-4.85c-1.36-3.24-2.83-6.46-4.09-9.73l-3.74-9.82-.92-2.46-.84-2.48-1.66-5,129-42.87,1,3.1.51,1.55.58,1.51,2.3,6.05c.76,2,1.69,3.94,2.51,5.93l1.25,3c.44,1,.93,1.91,1.38,2.87l2.76,5.73,3,5.54c.94,1.89,2.07,3.62,3.12,5.41s2.06,3.62,3.25,5.28l3.39,5.13c1.16,1.66,2.4,3.25,3.58,4.9.6.81,1.17,1.65,1.79,2.44l1.9,2.31,1.88,2.32c.63.78,1.24,1.57,1.92,2.27q2,2.17,3.95,4.38a26.67,26.67,0,0,0,2,2l1.95,1.91,1.93,1.94c.62.67,1.36,1.18,2,1.78q2.06,1.76,4.07,3.56Z"/><path class="cls-3" d="M32.05,5145.42c-2.31-6.6-4.12-13.3-6.06-20-.89-3.36-1.69-6.72-2.53-10.09l-1.22-5-1.06-5.08a372.82,372.82,0,0,1-6.33-40.88l-.9-10.3c-.28-3.43-.38-6.88-.56-10.32l-.24-5.17c-.08-1.72-.06-3.45-.09-5.17L13,5023.05l.3-10.37c.06-1.73.08-3.45.19-5.18l.35-5.19c.26-3.46.43-6.91.79-10.37l1.14-10.37,134.88,16.55-.71,6.52c-.25,2.17-.31,4.38-.49,6.57l-.24,3.28c-.08,1.1-.07,2.21-.11,3.31l-.2,6.61.07,6.64c0,1.1,0,2.21,0,3.31l.17,3.32c.13,2.22.16,4.43.36,6.64l.57,6.63a240,240,0,0,0,4.07,26.23l.66,3.24.79,3.2,1.59,6.4c1.27,4.19,2.35,8.45,3.82,12.53Z"/><path class="cls-4" d="M15.74,4981.57,16,4979l.38-2.59.77-5.18c.53-3.45,1-6.9,1.72-10.35l2-10.32c.77-3.44,1.6-6.87,2.41-10.3.42-1.71.81-3.43,1.26-5.14L26,4930l1.45-5.11c.5-1.71.95-3.41,1.54-5.11l3.37-10.16c.29-.84.56-1.69.86-2.53l1-2.52,1.93-5,1.94-5c.64-1.68,1.42-3.32,2.12-5,1.45-3.31,2.9-6.63,4.39-9.93,3.25-6.53,6.36-13.1,10.08-19.47,3.48-6.45,7.53-12.68,11.5-18.92,2.08-3.08,4.27-6.11,6.42-9.15l5.27-7.35,109.43,80.59-2.8,3.86-.58.82-.41.59-.84,1.19c-1.1,1.59-2.25,3.14-3.35,4.74-2,3.35-4.26,6.57-6.12,10.12-2,3.39-3.7,7.11-5.56,10.68l-2.45,5.62c-.4.94-.87,1.84-1.22,2.82l-1.1,2.9-1.12,2.9-.56,1.45c-.18.48-.33,1-.5,1.48l-2,6c-.36,1-.61,2-.9,3l-.87,3.05-.88,3.05c-.27,1-.49,2.08-.74,3.12l-1.48,6.24-1.22,6.35c-.46,2.1-.72,4.27-1.05,6.41l-.49,3.22-.25,1.61-.18,1.63Z"/><path class="cls-5" d="M77.84,4824.68l4.37-6.05,2.19-3c.74-1,1.47-2,2.12-3l8.09-12.12,7.39-12.11,6.65-12a193.2,193.2,0,0,0,17.53-46.53L259,4758.57l-2.6,10.89-.67,2.72c-.24.89-.51,1.76-.77,2.65l-1.58,5.28-1.6,5.27c-.54,1.75-1.06,3.53-1.69,5.2l-3.7,10.16c-.63,1.68-1.22,3.41-1.89,5.05l-2.06,4.87-4.17,9.73c-.68,1.65-1.46,3.15-2.21,4.71l-2.26,4.65-4.57,9.27c-3.23,5.91-6.46,11.87-9.77,17.7l-10.3,16.89-10.76,16.15c-.89,1.36-1.82,2.65-2.75,3.93l-2.79,3.86-5.58,7.72Z"/><path class="cls-6" d="M126.18,4729.78a25.39,25.39,0,0,0,.56-2.81l.49-2.8.52-2.79c.19-.93.23-1.87.35-2.81l.68-5.61c.1-1.89.22-3.79.35-5.68a173.28,173.28,0,0,0-.69-24.05c-.88-8.59-2.3-17.83-4.15-27.83l-1.46-7.66-1.6-8-3.39-16.87,133.32-26.37,3.3,16.44,1.73,8.64,1.72,9c2.26,12.27,4.37,25.42,5.79,39.37a310.25,310.25,0,0,1,1.18,43.81l-.74,11.27c-.37,3.75-.85,7.51-1.3,11.26-.25,1.87-.42,3.76-.75,5.61l-1,5.57-1,5.56c-.34,1.85-.66,3.71-1.12,5.51Z"/><path class="cls-7" d="M117.84,4622.86l-.86-4.38-.86-4.45-1.69-9.14c-.55-3.08-1.06-6.29-1.59-9.43-.25-1.59-.53-3.14-.77-4.76l-.69-4.89-.69-4.89-.34-2.45-.29-2.51L109,4565.91c-.33-3.37-.55-6.83-.82-10.24l-.38-5.13-.21-5.21c-.12-3.48-.28-6.95-.34-10.43l0-10.51c0-1.76,0-3.51.08-5.26l.26-5.26c.18-3.51.33-7,.57-10.52l1-10.47.52-5.24.73-5.17,1.52-10.35c.23-1.68.58-3.54.92-5.37s.64-3.65,1.05-5.47l133.17,27.06c-.22.94-.35,1.91-.54,2.87s-.37,1.87-.51,3l-.93,6.47-.48,3.23-.3,3.22-.64,6.44c-.14,2.15-.21,4.29-.33,6.44l-.18,3.22c-.06,1.07,0,2.16,0,3.24l0,6.47c0,2.18.17,4.37.24,6.55l.11,3.28.26,3.33c.19,2.24.3,4.43.53,6.69l.76,6.84.19,1.71.25,1.76.5,3.52.49,3.52c.17,1.18.4,2.42.59,3.62.42,2.45.78,4.83,1.23,7.32l1.4,7.57.75,3.89.78,3.95Z"/><path class="cls-3" d="M93.34,5843.49l2.94-3.92c1-1.3,2-2.62,3-3.86l6.1-7.55c2-2.5,4.06-5,6.14-7.5l6.3-7.24,6.31-7.23c2.2-2.44,4.53-4.92,6.79-7.37s4.59-4.77,6.89-7.16,4.65-4.63,7-6.94c9.34-9.13,18.88-17.74,28.55-26s19.5-16.13,29.47-23.67L285,5843.3q-12.15,9.18-23.5,18.87c-7.56,6.45-14.83,13-21.69,19.73-1.68,1.68-3.43,3.35-5.07,5s-3.29,3.38-4.89,5.08l-4.72,5.13-4.85,5.57-4.86,5.56c-1.58,1.87-3.06,3.78-4.61,5.66l-4.59,5.66c-.79.93-1.48,1.9-2.2,2.86l-2.15,2.88Z"/><path class="cls-4" d="M202.79,5735.05c19.91-15.12,40.35-29,61.2-42q15.66-9.69,31.62-18.76c10.66-6,21.38-11.86,32.24-17.43l62.27,120.8c-37.1,19.13-72.78,41.09-105.16,65.65Z"/><path class="cls-5" d="M327.85,5656.85a933.64,933.64,0,0,1,135.07-56.76l42.44,129.11a796.64,796.64,0,0,0-115.24,48.45Z"/><path class="cls-6" d="M462.92,5600.09c46.68-15.28,95-26.95,145.18-33.18l16.6,134.89c-39.78,4.92-80,14.48-119.34,27.4Z"/><path class="cls-7" d="M608.1,5566.91c12.54-1.55,25.21-2.68,37.94-3.53s25.63-1.14,38.58-1.08,26,.64,39.11,1.72,26.29,2.72,39.48,4.95l-22.79,134c-36.57-6.21-76-6.08-115.72-1.15Z"/><path class="cls-1" d="M763.21,5569q19.8,3.44,39.56,8.67a411.36,411.36,0,0,1,39.14,12.87l9.65,3.91c3.21,1.33,6.38,2.82,9.56,4.23l4.6,2.09,3.71,1.74,7.15,3.31c9.35,4.28,18.44,8.17,27.48,11.66l-48.94,126.78c-12.09-4.66-23.83-9.71-35.07-14.85l-8.27-3.83-4-1.87c-.72-.34-1.14-.52-1.65-.74l-1.49-.67c-2-.87-3.95-1.82-6-2.65l-6.09-2.47q-12.33-4.74-25.38-8.34t-26.8-5.86Z"/><path class="cls-3" d="M904.06,5617.45c18,7,35.85,12.3,52.1,15.05a139,139,0,0,0,22.59,2.11,93.37,93.37,0,0,0,9.5-.48,56.89,56.89,0,0,0,7.9-1.36l32.28,132a194.38,194.38,0,0,1-25.55,4.47,235.1,235.1,0,0,1-24.41,1.27,274.34,274.34,0,0,1-45-4c-28.43-4.87-54.12-12.95-78.34-22.26Z"/><path class="cls-4" d="M996.15,5632.77a37.9,37.9,0,0,0,11.1-4.48,39.56,39.56,0,0,0,4.15-3.19,41.43,41.43,0,0,0,4.06-4.35c5.49-6.69,11.14-19.06,14.77-34.66l132.28,31.17a259,259,0,0,1-14.39,43.83,212.65,212.65,0,0,1-11.32,22.37c-2.27,3.72-4.47,7.42-7.06,11.1-1.28,1.83-2.46,3.66-3.86,5.47l-4.13,5.41a177.08,177.08,0,0,1-19.14,20.41,167.49,167.49,0,0,1-74.18,38.93Z"/><path class="cls-5" d="M1030.23,5586.09c.46-1.94.85-4,1.29-6s.74-4.16,1.13-6.23.63-4.3,1-6.44l.23-1.62.16-1.59.32-3.16a214.69,214.69,0,0,0,1.15-25.54l-.27-6.46-.12-3.23-.29-3.24-.55-6.49c-.26-2.16-.59-4.33-.86-6.5-.45-4.34-1.41-8.67-2.11-13-.16-1.09-.44-2.17-.68-3.26l-.72-3.25-.72-3.26-.35-1.63-.44-1.63,131.84-33,.65,2.48.56,2.52,1.12,5,1.11,5c.37,1.68.76,3.35,1,5.06,1.18,6.82,2.54,13.58,3.35,20.5.45,3.45.93,6.89,1.32,10.35l.92,10.43.44,5.22.23,5.26.41,10.52a348.13,348.13,0,0,1-1.88,42.29l-.55,5.29-.29,2.64-.37,2.58c-.51,3.46-.94,6.87-1.55,10.36s-1.2,7-1.91,10.48-1.46,7.06-2.3,10.63Z"/><path class="cls-6" d="M1028.37,5483.57c-1.18-4.33-2.21-8.68-3.64-13-.69-2.16-1.29-4.34-2-6.49l-2.28-6.45c-.38-1.08-.73-2.16-1.14-3.23l-1.27-3.2-2.52-6.42-2.79-6.37c-.92-2.12-1.82-4.25-2.87-6.34l-3-6.31c-.48-1.06-1-2.1-1.58-3.13l-1.64-3.12c-1.11-2.07-2.12-4.18-3.3-6.23l-3.5-6.16c-.59-1-1.14-2.06-1.76-3.07l-1.87-3-3.71-6.08-3.93-6c-1.31-2-2.58-4-4-5.95l111.87-77.16c1.9,2.65,3.68,5.41,5.49,8.14l5.38,8.23,5.15,8.41,2.57,4.21c.86,1.4,1.65,2.86,2.47,4.29l4.89,8.61c1.63,2.87,3.11,5.85,4.67,8.77l2.3,4.41c.77,1.47,1.54,2.94,2.25,4.45l4.32,9c1.48,3,2.8,6.06,4.14,9.13l4,9.21,3.71,9.38,1.84,4.7c.59,1.58,1.14,3.18,1.7,4.77l3.36,9.58c1.09,3.21,2,6.48,3.06,9.72,2.09,6.46,3.76,13.11,5.51,19.72Z"/><path class="cls-7" d="M981.52,5383l-4.13-5.88-1-1.47-1.08-1.44-2.17-2.89c-1.46-1.92-2.86-3.87-4.35-5.76l-4.52-5.66-2.25-2.83-2.35-2.77-4.69-5.54c-1.58-1.83-3.24-3.61-4.85-5.42s-3.19-3.65-4.9-5.38a423.06,423.06,0,0,0-42.71-39.68l85.25-105.84a559.43,559.43,0,0,1,56.76,52.74c2.25,2.32,4.36,4.78,6.54,7.17s4.35,4.8,6.47,7.25l6.29,7.42,3.14,3.71,3,3.81,6.08,7.62c2,2.56,3.92,5.19,5.89,7.79l2.92,3.91,1.47,2,1.41,2,5.63,8Z"/><path class="cls-1" d="M913.76,6764.68A87.14,87.14,0,0,0,924.47,6749a156.34,156.34,0,0,0,9.56-21.47c5.73-15.81,10-34,12.83-52.83L1081.24,6695c-3.93,25.88-9.79,52.13-19.47,78.94a291.88,291.88,0,0,1-18.16,40.5,222,222,0,0,1-27.9,40.11Z"/><path class="cls-3" d="M946.86,6674.73a432.93,432.93,0,0,0,4.6-58.44c0-2.47,0-4.95,0-7.42l-.08-7.91-.21-16.81q-.22-16.74-.64-33.11l135.85-3.62c.32,11.73.52,23.34.68,34.83l.22,17.16.08,9.08c0,3.19,0,6.38-.06,9.57a567.77,567.77,0,0,1-6.11,76.93Z"/><path class="cls-4" d="M950.58,6551c-1.15-43.63-3.89-85.49-11.21-124.49l133.58-25a738.94,738.94,0,0,1,9.77,74.17c2,24.35,3.09,48.27,3.71,71.72Z"/><path class="cls-5" d="M939.37,6426.55a393.27,393.27,0,0,0-14.58-56c-1.59-4.4-3.08-9-4.76-13-.79-2.09-1.7-4.15-2.57-6.21s-1.81-4.11-2.72-6.16a260.19,260.19,0,0,0-12.47-23.82l117-69.21a394.92,394.92,0,0,1,19,36.35c1.41,3.12,2.85,6.21,4.16,9.38s2.69,6.28,3.91,9.48c2.63,6.44,4.69,12.6,6.93,18.87a529.4,529.4,0,0,1,19.7,75.35Z"/><path class="cls-6" d="M902.27,6321.31a237.43,237.43,0,0,0-31.55-42.15,184,184,0,0,0-38.27-31.24l70.13-116.4a318.67,318.67,0,0,1,66.84,54.23,372.79,372.79,0,0,1,49.81,66.35Z"/><path class="cls-7" d="M832.45,6247.92a136.19,136.19,0,0,0-41.86-16.87c-1.78-.39-3.58-.65-5.37-1s-3.77-.53-5.64-.83l-5.68-.59c-1.89-.09-3.78-.27-5.68-.34a143.26,143.26,0,0,0-23,.94L729,6094.28a281.21,281.21,0,0,1,44.84-1.8c3.76.16,7.52.45,11.28.69s7.48.74,11.22,1.17,7.4,1,11.16,1.64,7.57,1.33,11.32,2.14a264.56,264.56,0,0,1,43.69,13.38,279.52,279.52,0,0,1,40,20Z"/><path class="cls-1" d="M745.25,6229.21a165.52,165.52,0,0,0-23.73,4.65,226.43,226.43,0,0,0-24.65,8.32c-16.72,6.66-33.93,15.55-51.42,25.88l-69-117.1c21.51-12.67,44.58-24.83,69.95-35a363.32,363.32,0,0,1,39.71-13.34,301.67,301.67,0,0,1,42.9-8.36Z"/><path class="cls-3" d="M645.45,6268.06c-17.51,10.31-35.3,22-53.53,34.37s-36.92,25.41-56.44,38.49L459.81,6228c18.11-12.14,36.58-25,55.83-38.09s39.32-26.3,60.84-39Z"/><path class="cls-4" d="M535.48,6340.92c-19.52,13.08-39.88,26.24-61.65,38.69a525.76,525.76,0,0,1-70.13,34L354.39,6287a391.62,391.62,0,0,0,52-25.33c17.56-10,35.3-21.44,53.41-33.58Z"/><path class="cls-5" d="M403.7,6413.59a391.64,391.64,0,0,1-39.05,12.93l-5.06,1.36-5.12,1.25c-1.73.4-3.36.84-5.17,1.21l-5.39,1.12-5.4,1.09c-1.78.37-3.72.63-5.57.94l-5.62.88-2.81.42-2.93.33a211,211,0,0,1-49.73.38l-6.64-.89c-1.1-.16-2.2-.31-3.31-.49l-3.36-.66-6.71-1.38-1.67-.37-1.68-.44-3.36-.91c-2.23-.62-4.46-1.25-6.69-1.91s-4.41-1.51-6.61-2.29c-4.43-1.49-8.69-3.39-13-5.26l56.32-123.69a41.31,41.31,0,0,0,12.26,3.29,76.15,76.15,0,0,0,18.05-.33l1.3-.12,1.38-.23,2.77-.44c.94-.16,1.82-.23,2.81-.46l2.92-.61,2.93-.59c1-.18,2.07-.49,3.1-.73l3.13-.75,3.15-.86a255.18,255.18,0,0,0,25.41-8.43Z"/><path class="cls-6" d="M218.86,6420.9c-2.16-.91-4.2-2-6.26-3s-4.1-2.12-6.14-3.2-3.92-2.29-5.87-3.46-3.94-2.32-5.73-3.58l-5.48-3.76c-.9-.63-1.84-1.26-2.69-1.91l-2.56-2-5.09-4c-1.67-1.34-3.19-2.7-4.78-4.05a258,258,0,0,1-31.86-33.34c-8.94-11.08-16.57-21.91-23.59-32.42s-13.4-20.7-19.54-30.62l115.57-71.51c5.77,9.33,11.43,18.32,17,26.66s11,16,16.32,22.54a124.74,124.74,0,0,0,14.92,15.83c.57.47,1.14,1,1.69,1.45s1.09.82,1.62,1.24l.8.64a9,9,0,0,0,.78.53c.51.34,1,.69,1.52,1.05a12.59,12.59,0,0,0,1.48.91l1.43.88c.48.22.94.45,1.41.7a8.33,8.33,0,0,0,1.38.67Z"/><path class="cls-7" d="M99.27,6295.62l-17.84-29-4.34-7-4.94-8.08c-1.69-2.75-3.32-5.58-5-8.41s-3.28-5.64-4.84-8.56c-6.38-11.47-12.31-23.46-17.78-35.84-2.78-6.15-5.27-12.54-7.8-18.88-2.36-6.48-4.76-12.92-6.81-19.6l129.47-41.31c1.25,4.16,2.85,8.32,4.32,12.5,1.7,4.16,3.28,8.34,5.19,12.5,3.69,8.34,7.77,16.69,12.42,25,1.09,2.09,2.33,4.16,3.52,6.24s2.38,4.15,3.67,6.22l3.91,6.42,4.61,7.43,17.76,28.88Z"/><path class="cls-6" d="M169.86,7070a292.11,292.11,0,0,1-31.05-31.56,230.36,230.36,0,0,1-27-39.75,197.85,197.85,0,0,1-22.55-73.25,216.25,216.25,0,0,1-1.07-25.34L224,6902.7a82.2,82.2,0,0,0,.35,8.58,60.61,60.61,0,0,0,3.77,15.73,74.31,74.31,0,0,0,3.57,7.79,95.43,95.43,0,0,0,11.2,16.29,157.34,157.34,0,0,0,16.6,16.78Z"/><path class="cls-2" d="M300.13,7151.43c-21.52-10.47-43.27-21.76-65.1-34.82-10.91-6.56-21.85-13.52-32.74-21.22-5.45-3.81-10.89-7.88-16.3-12.06s-10.8-8.67-16.13-13.34l89.67-102.12q4.79,4.19,10.06,8.31c3.55,2.73,7.17,5.46,11,8.14,7.59,5.38,15.77,10.6,24.27,15.71,17.05,10.2,35.51,19.86,54.73,29.21Z"/><path class="cls-7" d="M88.16,6900.09A232.63,232.63,0,0,1,90,6875.61c1.08-7.94,2.47-15.74,4.25-23.22l.67-2.82c.21-.89.46-2,.64-2.6l1.14-4.24.57-2.12.56-2.25,1.13-4.5,1.12-4.5.28-1.13c.09-.36.25-.85.37-1.27l.77-2.63,3.17-10.48a287.12,287.12,0,0,1,17.56-41.77,238.14,238.14,0,0,1,26.07-39.6l105.46,85.72-1.57,1.9c-.52.64-1,1.36-1.46,2l-1.47,2c-.24.34-.5.67-.74,1l-.67,1.1c-.89,1.47-1.86,2.86-2.74,4.36s-1.69,3.09-2.56,4.63a153.17,153.17,0,0,0-8.71,20.8l-1.72,5.79-.44,1.44c-.08.26-.15.44-.23.77l-.23.94-.92,3.74-.92,3.75-.47,1.87-.53,2-1.07,4c-.22.76-.26,1-.38,1.53l-.3,1.32A95,95,0,0,0,224,6902.7Z"/><path class="cls-1" d="M148.33,6732.48a229.5,229.5,0,0,1,34.25-34.09,234.32,234.32,0,0,1,39.9-25.77,271,271,0,0,1,42.08-17.22l5.28-1.6c1.77-.53,3.54-1.1,5.28-1.53l10.54-2.72,10.47-2.28c1.75-.4,3.48-.69,5.21-1l5.2-.93,22.95,133.95c-2.09.4-4.25.7-6.29,1.16l-6.13,1.32-5.91,1.54c-1,.23-1.93.55-2.88.84l-2.84.86a134.49,134.49,0,0,0-20.75,8.44,98.66,98.66,0,0,0-17.11,11,93,93,0,0,0-13.79,13.77Z"/><path class="cls-3" d="M306.54,6645.34a400.43,400.43,0,0,1,40.95-4.74c13.42-.8,26.63-1,39.67-.75l9.73.29c3.23.12,6.43.32,9.64.48s6.41.39,9.59.63l4.77.36,2.38.18,2.36.25,18.81,2,4.7.52c1.56.17,3.14.32,4.67.57l9.22,1.37L443.67,6781l-7.58-1.14c-1.27-.21-2.51-.32-3.76-.46l-3.74-.39-15-1.62-1.87-.21-1.85-.14-3.7-.27c-2.47-.19-4.93-.38-7.37-.48s-4.89-.29-7.32-.37l-7.25-.22c-9.61-.18-19.05,0-28.25.52a261.16,261.16,0,0,0-26.52,3.05Z"/><path class="cls-4" d="M463,6646.51c6.14.92,12.31,1.81,18.43,2.78l18.13,3.36,9.06,1.69c3,.61,6,1.28,8.93,1.92l17.83,3.9c1.49.31,3,.66,4.42,1l4.39,1.09,8.79,2.17c5.84,1.48,11.76,2.83,17.5,4.47,11.56,3.17,23.17,6.25,34.54,9.74L566.47,6809c-10.29-3.17-20.58-5.87-30.86-8.71-5.15-1.48-10.28-2.62-15.42-3.93l-7.7-1.91-3.85-1c-1.28-.33-2.57-.63-3.85-.89l-15.36-3.35c-2.56-.56-5.12-1.15-7.67-1.67l-7.65-1.41-15.28-2.85L443.67,6781Z"/><path class="cls-5" d="M605.05,6678.66c5.69,1.71,11.44,3.36,17.1,5.13l16.94,5.4c2.82.91,5.66,1.77,8.46,2.72l8.38,2.82,16.76,5.67q33.31,11.66,65.95,24.19l-48.81,126.84c-20.55-7.93-41.08-15.42-61.64-22.62l-15.42-5.21-7.71-2.6c-2.57-.87-5.15-1.65-7.72-2.48l-15.43-4.92c-5.14-1.62-10.29-3.08-15.44-4.63Z"/><path class="cls-6" d="M738.64,6724.59c21.7,8.37,43.22,17,64.31,25.57l16,6.51,15.89,6.6c9.92,4.11,18.84,7.62,26.62,10.15l-41.75,129.33c-13.77-4.48-25.9-9.39-36.9-13.93l-15.49-6.44-15.49-6.31c-20.87-8.49-41.4-16.71-62-24.64Z"/><path class="cls-7" d="M861.43,6773.42a99.92,99.92,0,0,0,19.28,4.45c1.2.05,2.49.28,3.53.22l1.62.06c.5,0,1-.07,1.48-.08h.75l.84-.09c.57-.05,1.14-.08,1.66-.18,1.09-.12,2.09-.3,3-.49a30.87,30.87,0,0,0,10-3.91,44.18,44.18,0,0,0,10.09-8.73l102,89.86a180.08,180.08,0,0,1-41.53,35.05,166.27,166.27,0,0,1-25.65,12.7,168.22,168.22,0,0,1-27.26,8.09c-4.58.94-9.16,1.72-13.7,2.27-2.29.32-4.54.53-6.79.72l-3.38.29-3.5.16q-3.51.14-7,.23c-2.31,0-4.58-.07-6.87-.12-4.63-.06-9-.51-13.42-.89-1.12-.09-2.18-.23-3.24-.37l-3.2-.44-3.2-.44-1.59-.24-1.54-.27c-4.06-.75-8.23-1.49-12.05-2.43-1.94-.45-3.92-.89-5.81-1.38L830.4,6906l-2.77-.77-2.65-.81-5.3-1.63Z"/><path class="cls-1" d="M582,7400.55c.89-1.43,1.9-2.8,2.76-4.23s1.65-2.9,2.51-4.33,1.45-3,2.23-4.45a22.1,22.1,0,0,0,1-2.27l1-2.3a49,49,0,0,0,1.8-4.7l.88-2.38.82-2.66c.6-1.79,1-3.52,1.49-5.26.26-.87.4-1.7.61-2.55s.44-1.7.56-2.51l.48-2.46c.18-.83.24-1.6.38-2.4.29-1.61.38-3.11.59-4.65a79.26,79.26,0,0,0,.29-8.59,69,69,0,0,0-.73-7.81,66.73,66.73,0,0,0-1.76-7.36l129.73-40.49a198.15,198.15,0,0,1,6.1,25.66,203.47,203.47,0,0,1,2.51,26,216.54,216.54,0,0,1-.83,25.34c-.45,4.09-.87,8.23-1.53,12.21-.32,2-.58,4-1,6l-1.13,5.88c-.36,2-.85,3.85-1.27,5.78s-.87,3.85-1.38,5.7c-1,3.72-2,7.5-3.12,11.09-.57,1.82-1.1,3.61-1.7,5.45l-2,5.62c-1.35,3.74-2.64,7.49-4.27,11.15l-2.37,5.51c-.8,1.83-1.56,3.67-2.48,5.45-1.78,3.59-3.57,7.18-5.42,10.72s-4,6.94-6,10.39-4.31,6.68-6.49,10Z"/><path class="cls-3" d="M596.93,7329.64a58.36,58.36,0,0,0-2.87-7.33,62.06,62.06,0,0,0-4.16-7.6,82,82,0,0,0-5.6-7.94c-2.13-2.69-4.44-5.43-7.08-8.18-10.4-11-24.48-22.15-40.44-32.59l74.51-113.66c11,7.21,21.92,15,32.77,23.68,2.72,2.13,5.42,4.44,8.12,6.68s5.39,4.63,8.06,7.11c5.34,4.83,10.62,10,15.8,15.49s10.25,11.32,15.13,17.52a217.58,217.58,0,0,1,14,19.82,199.71,199.71,0,0,1,21.54,46.51Z"/><path class="cls-4" d="M536.78,7266a556.78,556.78,0,0,0-52.54-29.91c-18.74-9.52-38.37-18.67-58.52-27.76l55.87-123.88c21.15,9.54,42.6,19.5,64.25,30.5a693.64,693.64,0,0,1,65.45,37.39Z"/><path class="cls-5" d="M425.72,7208.33c-20.16-9.09-40.81-18.11-61.79-27.45s-42.28-19-63.8-29.45l59.47-122.19c19.21,9.35,39.19,18.4,59.59,27.48s41.27,18.2,62.4,27.73Z"/><path class="cls-1" d="M896.26,8000.06c8.24-20.74,16-40.88,22.5-60.12,3.22-9.6,6.07-18.95,8.34-27.85a205.18,205.18,0,0,0,4.94-25l134.84,17a340,340,0,0,1-8.12,41.65c-3.34,13.06-7.13,25.38-11.1,37.25-8,23.71-16.61,45.81-25.08,67.17Z"/><path class="cls-3" d="M932,7887.11a99.43,99.43,0,0,0,.69-20,47.26,47.26,0,0,0-3-14,45.19,45.19,0,0,0-6.75-11.59,12.8,12.8,0,0,0-1.25-1.51c-.45-.5-.89-1-1.33-1.54a17.87,17.87,0,0,0-1.49-1.55q-.78-.78-1.53-1.59a8,8,0,0,0-.83-.8l-.89-.79-1.76-1.62c-.58-.59-1.15-1-1.72-1.46s-1.12-1-1.71-1.37l83.25-107.42c1.69,1.27,3.3,2.6,4.92,3.94s3.28,2.67,4.75,4l4.52,4.1,2.25,2.07c.75.67,1.5,1.38,2.23,2.14l4.41,4.49c1.46,1.52,2.93,2.94,4.35,4.61l4.24,4.87c1.41,1.63,2.81,3.25,4.15,5a179.38,179.38,0,0,1,38.64,99.17,234.94,234.94,0,0,1-1.32,47.79Z"/><path class="cls-4" d="M910.49,7829.28a70.09,70.09,0,0,0-14.85-8.82c-1.33-.62-2.75-1.13-4.15-1.7s-2.88-1.05-4.42-1.48-3.09-.87-4.65-1.31-3.22-.78-4.93-1.08c-13.46-2.68-29.87-3-47.66-1.17L816,7678.52a339.27,339.27,0,0,1,42.39-1.77c3.64.05,7.37.26,11.06.44s7.47.51,11.26.94,7.6.89,11.41,1.41,7.68,1.2,11.57,2,7.76,1.65,11.65,2.57,7.79,2,11.7,3.29,7.8,2.55,11.68,3.93,7.75,3,11.57,4.71a205.19,205.19,0,0,1,43.41,25.81Z"/><path class="cls-5" d="M829.83,7813.72c-17.83,1.84-36.92,5.65-56.46,10.76s-39.61,11.45-59.89,18.44l-44.36-128.46c22.54-7.76,45.69-15.16,70-21.49,12.13-3.17,24.56-6.05,37.36-8.53s26-4.5,39.58-5.92Z"/><path class="cls-6" d="M713.48,7842.92c-40.64,14-82.15,30.7-125.36,47.07L540,7762.88c41.52-15.7,84.11-32.85,129.1-48.42Z"/><path class="cls-7" d="M588.12,7890c-21.62,8.18-43.72,16.3-66.65,23.9a731.58,731.58,0,0,1-72.16,20.3l-29.13-132.75a597.29,597.29,0,0,0,58.58-16.56c20.08-6.66,40.51-14.15,61.26-22Z"/><path class="cls-1" d="M449.31,7934.19c-6.36,1.4-12.86,2.68-19.45,3.85s-13.33,2.21-20.24,3.05a311.51,311.51,0,0,1-43.45,2.45c-7.62-.15-15.43-.62-23.42-1.51a218.36,218.36,0,0,1-24.52-4.24,184.51,184.51,0,0,1-49.79-19.37l67.41-118a48.92,48.92,0,0,0,13.36,5.05,84.39,84.39,0,0,0,8.94,1.54c3.27.35,6.77.57,10.47.65a174.71,174.71,0,0,0,24.33-1.45c4.34-.52,8.82-1.24,13.35-2s9.18-1.72,13.88-2.76Z"/><path class="cls-3" d="M268.44,7918.42a178.23,178.23,0,0,1-42.78-34.23,203.53,203.53,0,0,1-16.3-20.44,224.4,224.4,0,0,1-12.93-21.16,264,264,0,0,1-17.84-42.17l-1.66-5.18c-.55-1.73-1-3.43-1.53-5.15s-1-3.4-1.47-5.17l-1.36-5.4-1.34-5.41-.66-2.7-.56-2.82-2.16-11.3,134.11-22q.56,2.69,1.05,5.38l.25,1.35.37,1.41.71,2.84.69,2.85c.25,1,.58,2,.86,3s.56,2,.88,3l.94,2.9a128.06,128.06,0,0,0,8.5,20.38,90.14,90.14,0,0,0,4.76,7.82,68.88,68.88,0,0,0,4.85,6.12,49.88,49.88,0,0,0,4.88,4.57,35.79,35.79,0,0,0,5.15,3.52Z"/><path class="cls-4" d="M167.85,7757.29a217.89,217.89,0,0,1-2.49-49.6c.16-2.2.25-4.35.52-6.58l.88-6.71c.33-2.24.58-4.44,1-6.7l1.41-6.76.74-3.38.39-1.68.46-1.69q1-3.37,2-6.73c1.25-4.5,3-8.89,4.68-13.28a174.19,174.19,0,0,1,28.26-47.2,216.35,216.35,0,0,1,36-34l81.91,108.45a81.49,81.49,0,0,0-13.45,12.41c-.78,1-1.42,1.92-2.21,2.82-.53.94-1.21,1.82-1.76,2.71-.23.45-.47.89-.72,1.33a6.91,6.91,0,0,0-.71,1.3c-.19.45-.39.89-.61,1.31l-.34.64-.22.69a41.06,41.06,0,0,0-2.67,12.51,82.06,82.06,0,0,0,1,18.1Z"/><path class="cls-5" d="M241.71,7573a304.26,304.26,0,0,1,36.9-23.63c12.16-6.66,24.13-12.38,35.85-17.51,23.45-10.25,46.13-18.55,68-26.31l45.42,128.09c-20.82,7.36-40.68,14.73-58.75,22.64-9,3.94-17.5,8-25.2,12.27a168.17,168.17,0,0,0-20.31,12.9Z"/><path class="cls-6" d="M382.46,7505.57c21.91-7.76,43-15,63.29-22.42s39.54-15.1,57.26-23.5l58.06,122.87c-23.23,11-46.08,19.92-68.39,28.17s-44,15.6-64.8,23Z"/><path class="cls-7" d="M503,7459.65c17.8-8.34,33.84-17.52,47.36-27.41s24-20.53,31.65-31.69l112.3,76.54a251.94,251.94,0,0,1-29.79,35.82A286.3,286.3,0,0,1,631,7541.66c-23.06,16.87-46.73,29.95-69.91,40.86Z"/><path class="cls-5" d="M812.7,8428.33a608.39,608.39,0,0,1-4.45-76.52c0-3.19.06-6.38.14-9.56l.24-9.56.47-9.53c.16-3.18.3-6.36.57-9.52l.71-9.5c.21-3.17.59-6.31.88-9.47s.58-6.31,1-9.44l1.14-9.41,134.8,17.26-.91,7.46c-.32,2.48-.5,5-.77,7.45s-.53,5-.69,7.45l-.56,7.44c-.21,2.48-.31,5-.44,7.44l-.37,7.43-.18,7.42c-.07,2.48-.14,5-.11,7.42a473.53,473.53,0,0,0,3.42,59.07Z"/><path class="cls-6" d="M813.38,8275.82c.36-3.14.83-6.25,1.28-9.37s.88-6.24,1.37-9.35c1.05-6.18,2-12.42,3.19-18.55l1.74-9.22,1.9-9.16,1-4.58,1-4.54,2.07-9.08c5.78-24.1,12.52-47.73,20-70.71l129.23,42.07q-9.87,30.1-17,60l-1.7,7.48-.86,3.74-.77,3.74-1.56,7.47-1.4,7.47c-1,5-1.72,10-2.58,14.93l-1.09,7.47c-.36,2.48-.74,5-1,7.45Z"/><path class="cls-7" d="M847,8131.26c7.47-23,15.67-45.43,24.06-67.3s17-43.18,25.24-63.9l126.32,50.13c-8.49,21.37-16.85,42.05-24.69,62.49s-15.19,40.58-21.7,60.65Z"/><path class="cls-6" d="M990.27,1389.34c16-28.15,24.34-62.1,24.2-96.44l135.9-.51a333.13,333.13,0,0,1-2.43,42.19c-.42,3.51-.81,7-1.41,10.51s-1.07,7-1.72,10.49l-2.09,10.44c-.72,3.48-1.63,6.93-2.45,10.39-.43,1.73-.81,3.47-1.3,5.19l-1.47,5.15c-1,3.43-1.92,6.87-3.09,10.27s-2.23,6.81-3.43,10.19l-3.81,10.09a330,330,0,0,1-18.72,39.14Z"/><path class="cls-2" d="M917.1,1452.37c8.44-4.57,16.52-9.35,24.07-14.33A215,215,0,0,0,962,1422.6c1.54-1.33,3.13-2.64,4.55-4,.73-.67,1.49-1.33,2.19-2l2.08-2c.71-.66,1.37-1.34,2-2l2-2,1.81-2c.62-.67,1.22-1.33,1.75-2l1.69-2,1.54-2c1.1-1.31,1.92-2.63,2.9-3.91l1.27-1.94.64-1c.23-.35.5-.85.75-1.27l3.11-5.2,118.18,67.1-5.59,9.39c-.48.8-.9,1.53-1.44,2.38l-1.69,2.59c-1.13,1.72-2.26,3.46-3.42,5.15-2.36,3.28-4.7,6.67-7.17,9.76-1.23,1.57-2.45,3.16-3.7,4.7l-3.78,4.51c-1.26,1.52-2.55,3-3.85,4.38l-3.89,4.28-4,4.1c-1.32,1.37-2.65,2.72-4,4l-4,3.89c-1.35,1.28-2.71,2.49-4.07,3.74-2.72,2.51-5.48,4.84-8.23,7.2a352.16,352.16,0,0,1-33.69,25c-11.36,7.48-22.81,14.22-34.28,20.43Z"/><path class="cls-7" d="M1014.47,1292.9c0-1.07,0-2.15,0-3.22l-.12-3.22c-.09-2.15-.09-4.3-.31-6.44l-.48-6.43-.72-6.4a231.24,231.24,0,0,0-4.7-25.29,222.5,222.5,0,0,0-7.74-24.31L998,1211.7l-2.59-5.75c-.8-2-1.84-3.76-2.74-5.65l-1.39-2.81c-.49-.92-1-1.81-1.52-2.73l119.32-65.06c.86,1.57,1.74,3.13,2.57,4.71l2.41,4.79c1.57,3.21,3.25,6.37,4.67,9.63l4.36,9.75,4,9.88a360.27,360.27,0,0,1,12.86,40.4,368.53,368.53,0,0,1,7.72,41.47l1.17,10.48c.31,3.49.55,7,.81,10.5s.36,7,.5,10.53l.18,5.27c.06,1.76,0,3.52,0,5.28Z"/><path class="cls-1" d="M989.79,1194.76l-1.5-2.73c-.5-.91-1-1.83-1.55-2.7l-3.22-5.3c-2.3-3.41-4.5-6.89-7-10.12l-1.8-2.48c-.61-.82-1.28-1.58-1.91-2.38l-1.91-2.38c-.63-.79-1.24-1.61-1.93-2.34l-4-4.55c-1.38-1.49-2.84-2.94-4.24-4.42a176.46,176.46,0,0,0-18.24-16.17,188.14,188.14,0,0,0-20.17-13.29l66.26-118.65a320.52,320.52,0,0,1,36.53,24,311.79,311.79,0,0,1,32.59,28.85c2.5,2.62,5,5.19,7.49,7.86l7.23,8.2c1.22,1.36,2.34,2.78,3.48,4.19l3.42,4.25c1.12,1.42,2.29,2.82,3.37,4.27l3.23,4.37c4.37,5.78,8.31,11.82,12.28,17.84l5.61,9.21c1,1.53,1.82,3.1,2.69,4.67l2.6,4.7Z"/><path class="cls-3" d="M922.33,1125.9c-28.11-15.67-60.59-23-94.81-21.48l-5.64-135.78,10.59-.29c1.76-.07,3.54,0,5.31,0l5.33.09c7.09,0,14.24.63,21.36,1.08,3.57.34,7.14.76,10.71,1.15,1.78.21,3.57.39,5.35.64l5.34.83,5.34.86c1.78.29,3.56.55,5.33.94l10.63,2.21a304.33,304.33,0,0,1,81.42,31.1Z"/><path class="cls-4" d="M827.52,1104.42l-1.6,0-1.61.13-3.22.24-3.23.22-1.61.11-1.62.2-6.49.75-1.63.19c-.54.07-1.09.17-1.63.26l-3.26.53a264.89,264.89,0,0,0-26.22,5.58,323.43,323.43,0,0,0-52.34,19.54l-57.9-123A458.48,458.48,0,0,1,740,981.45a398.93,398.93,0,0,1,40.21-8.58l5.12-.81c.86-.13,1.71-.28,2.57-.4l2.59-.31,10.38-1.21,2.6-.29,2.62-.2,5.25-.39,5.25-.37,2.62-.17,2.65-.08Z"/><path class="cls-1" d="M669.25,2963.44c10.43,2.3,20.69,4.27,30.92,6.17,10.16,1.73,20.3,3.43,30.23,4.63,5,.71,9.9,1.15,14.84,1.7,2.47.28,4.88.4,7.32.62l3.65.3c1.22.11,2.43.2,3.63.24,4.8.24,9.63.57,14.34.61,2.36,0,4.76.16,7.08.12l7-.07,2.62,135.88-10,.09c-3.35,0-6.6-.11-9.91-.16-6.62-.08-13.09-.48-19.6-.83-1.63-.07-3.25-.19-4.85-.32l-4.81-.39c-3.2-.28-6.45-.47-9.6-.83-6.33-.67-12.7-1.29-18.92-2.15-12.56-1.54-24.77-3.57-36.93-5.66s-24-4.54-35.72-7.11Z"/><path class="cls-3" d="M788.25,2977.76c2.35,0,4.6-.15,6.9-.23l3.43-.15c1.15,0,2.3-.08,3.41-.19,4.48-.4,9-.65,13.37-1.28l3.3-.39c1.11-.12,2.2-.25,3.27-.45l6.45-1.06,1.61-.25,1.58-.33,3.15-.67,3.15-.65,1.58-.31,1.54-.41,6.15-1.58,1.54-.39,1.49-.47,3-.93,3-.92c.5-.15,1-.29,1.5-.46l1.46-.54L865,2964l1.47-.52,1.42-.62,2.85-1.21,2.85-1.19,1.43-.6,1.39-.68,5.56-2.7,1.4-.66c.46-.23.9-.5,1.35-.75l2.71-1.5,65.35,119.15-4.73,2.6c-.79.42-1.57.87-2.38,1.28l-2.42,1.18-9.73,4.72-2.43,1.16-2.48,1.07-5,2.1-5,2.09-2.49,1-2.52.94-10.12,3.68-2.53.91-2.55.81-5.12,1.58-5.12,1.57-2.56.78-2.57.68-10.3,2.65-2.58.65-2.58.55-5.16,1.08-5.17,1.07-2.58.52-2.58.43-10.32,1.68c-1.72.3-3.43.52-5.14.72l-5.13.62c-6.87.92-13.65,1.39-20.45,1.93-1.71.16-3.39.23-5.07.3l-5,.23c-3.37.12-6.76.34-10.08.33Z"/><path class="cls-4" d="M887.41,2953.54a198.08,198.08,0,0,0,21.07-13.38l5-3.92c1.67-1.32,3.4-2.52,5-4l4.89-4.22c.8-.72,1.66-1.36,2.43-2.14l2.37-2.28a278.36,278.36,0,0,0,35.48-41.27l110.75,78.76a412.8,412.8,0,0,1-53.1,61.48c-4.91,4.86-10.38,9.35-15.67,13.95-2.61,2.32-5.47,4.45-8.24,6.64s-5.59,4.35-8.41,6.49a332.52,332.52,0,0,1-36.23,23Z"/><path class="cls-1" d="M409.67,1575.61c47.18-10.07,93.28-16.84,137.79-23.72l20.7,134.32c-45,6.93-88.6,13.42-130,22.29Z"/><path class="cls-3" d="M547.46,1551.89c44.25-6.79,87.82-14.08,130.63-22.82l27.16,133.16c-46,9.38-91.78,17-137.09,24Z"/><path class="cls-4" d="M678.09,1529.07c42.8-8.73,84.94-18.86,125.48-31.27l39.82,129.93c-46.11,14.11-92.18,25.11-138.14,34.5Z"/><path class="cls-5" d="M803.57,1497.8c20.25-6.21,40.08-13,59.17-20.52a506.37,506.37,0,0,0,54.36-24.91L981.66,1572a641.87,641.87,0,0,1-69.08,31.75c-23.06,9.09-46.13,17-69.19,24Z"/><path class="cls-1" d="M947.2,2604.58a394.59,394.59,0,0,0-47.13-33.53c-17.12-10.53-35.19-20.4-53.81-29.56l59.91-122c22,10.84,43.77,22.66,65.25,35.87a530.52,530.52,0,0,1,63.4,45.31Z"/><path class="cls-3" d="M846.26,2541.49c-18.65-9.13-37.82-17.59-57.27-25.33-4.84-2-9.75-3.78-14.63-5.66s-9.82-3.59-14.72-5.38c-9.84-3.42-19.71-6.77-29.59-9.77l40-129.89c11.8,3.58,23.38,7.51,34.93,11.53,5.74,2.09,11.5,4.12,17.2,6.28s11.41,4.3,17.05,6.6q34,13.52,67,29.64Z"/><path class="cls-4" d="M730.05,2495.35c-9.88-3.1-19.74-5.79-29.55-8.38-4.88-1.16-9.8-2.48-14.61-3.49-2.41-.53-4.85-1.12-7.24-1.6l-7.15-1.42c-1.2-.25-2.37-.46-3.53-.65l-3.5-.6-3.5-.61-3.4-.49-3.39-.49-1.7-.25-2-.25-8.22-1c-11-1.37-22.49-2.74-34.22-4.28l17.72-134.74c10.73,1.41,21.78,2.73,33.2,4.15l8.64,1.08,2.21.28,2.5.36,5,.71,5,.74,4.87.83,4.87.85c1.63.27,3.25.56,4.82.88l9.51,1.9c3.16.64,6.23,1.37,9.35,2.05l4.67,1c1.55.36,3.06.75,4.59,1.12l9.17,2.25c12.1,3.18,24.09,6.47,35.82,10.15Z"/><path class="cls-5" d="M608,2471.81c-23.48-3.12-48.07-6.77-74-13a361.85,361.85,0,0,1-40-12A250.84,250.84,0,0,1,452,2427l69.58-116.74a115.78,115.78,0,0,0,19.36,9,229.33,229.33,0,0,0,25.06,7.45c18.13,4.38,38.39,7.54,59.81,10.36Z"/><path class="cls-6" d="M452,2427a190.78,190.78,0,0,1-41.36-32.89,164.59,164.59,0,0,1-31.32-47.72c-.93-2.19-1.84-4.38-2.73-6.59-.47-1.1-.84-2.2-1.22-3.3l-1.11-3.31q-1.11-3.32-2.16-6.65c-.67-2.25-1.25-4.58-1.85-6.87a206.17,206.17,0,0,1-4.46-25.12c-.91-7.66-1.36-14.31-1.77-20.23s-.73-11-1.13-15.25l135.32-12.65c.64,7,1,13.23,1.39,18.63s.72,10,1.16,13.62a73.69,73.69,0,0,0,1.4,8.32c.14.44.21.87.36,1.33s.35.94.5,1.42l.22.72a2.38,2.38,0,0,0,.24.68c.2.41.39.83.55,1.25a30.73,30.73,0,0,0,2.41,4.56,2,2,0,0,0,.36.53l.4.51c.27.34.5.7.74,1.07s.63.68.93,1l.43.55a2.61,2.61,0,0,0,.22.27l.28.26a55.53,55.53,0,0,0,11.78,9.09Z"/><path class="cls-7" d="M362.84,2259.08a99.76,99.76,0,0,0-1.35-9.95l-.17-.9c0-.14-.05-.31-.09-.44l-.1-.35c-.13-.47-.21-.93-.35-1.43s-.32-1-.46-1.56-.36-1-.51-1.46a34.27,34.27,0,0,0-5.68-9.94,58.58,58.58,0,0,0-11.58-10.47,137.56,137.56,0,0,0-19.65-11.36l59.53-122.17a270.89,270.89,0,0,1,39,22.85,193.67,193.67,0,0,1,38.21,35.46,170.61,170.61,0,0,1,27.79,48.83q1.16,3.29,2.27,6.57l2,6.58c.62,2.22,1.18,4.53,1.74,6.79l.41,1.71.35,1.64.67,3.27a237.81,237.81,0,0,1,3.35,23.68Z"/><path class="cls-1" d="M322.9,2211.22c-7.74-3.76-16.46-7.44-25.89-11.07s-19.49-7.21-30.05-10.93c-21.12-7.46-44.12-15.29-68.43-26l54.94-124.3c17.14,7.59,37,14.53,58.62,22.11,10.8,3.81,22.07,7.8,33.8,12.32s23.91,9.56,36.54,15.7Z"/><path class="cls-3" d="M198.53,2163.22c-6.08-2.69-12.24-5.57-18.46-8.69s-12.52-6.54-18.84-10.26a253,253,0,0,1-37.74-26.89,232.18,232.18,0,0,1-17.6-17.07A220.74,220.74,0,0,1,66,2038.93l124.54-54.41a84,84,0,0,0,22.11,30.26c.59.54,1.24,1,1.85,1.54s1.21,1,1.92,1.55c1.33,1.05,2.77,2.09,4.22,3.13,2.93,2.08,6.16,4.13,9.6,6.16s7.11,4,11,6,8,3.88,12.28,5.78Z"/><path class="cls-4" d="M66,2038.93l-1.21-2.77-1.13-2.79c-.74-1.86-1.5-3.72-2.2-5.59-1.36-3.74-2.73-7.5-3.9-11.27s-2.27-7.55-3.34-11.34-2-7.59-2.72-11.38a264.78,264.78,0,0,1-5.7-45.29,308.83,308.83,0,0,1,9.13-86.38l131.93,32.6a173.53,173.53,0,0,0-5.27,48.29c.62,15.4,3.71,29.55,9,41.51Z"/><path class="cls-5" d="M54.88,1862.12a341.9,341.9,0,0,1,12.67-40.36,354.74,354.74,0,0,1,17.29-38.28,345.63,345.63,0,0,1,48-69.43l101.38,90.51a210.41,210.41,0,0,0-29,42.11,215.26,215.26,0,0,0-18.34,48Z"/><path class="cls-6" d="M132.82,1714.05a317.82,317.82,0,0,1,30.89-30.25c1.39-1.18,2.81-2.33,4.22-3.5s2.81-2.33,4.27-3.45l4.35-3.38,4.1-3,8.16-6,8.33-5.67,4.17-2.81,4.23-2.69c2.83-1.78,5.65-3.59,8.5-5.32,5.73-3.36,11.44-6.84,17.27-9.93,11.58-6.45,23.38-12.17,35.23-17.55l55.75,123.94c-8.76,4-17.37,8.14-25.57,12.73-4.19,2.19-8.13,4.66-12.19,7-2,1.21-3.92,2.48-5.89,3.71l-2.95,1.85-2.86,2-5.72,3.88-5.55,4.07-2.75,2-2.35,1.83c-.8.6-1.56,1.25-2.34,1.89s-1.55,1.26-2.32,1.92a181.13,181.13,0,0,0-17.6,17.27Z"/><path class="cls-7" d="M266.54,1620.52l8.92-3.93c3-1.29,6-2.47,8.94-3.71,6-2.51,12-4.68,17.93-7l9-3.2,4.49-1.6,4.5-1.49,9-3,9-2.77c3-.95,6-1.81,9-2.67s6-1.75,9-2.57c6-1.6,11.94-3.26,17.89-4.72,11.91-3.06,23.75-5.73,35.55-8.29l28.45,132.89c-10.34,2.25-20.59,4.56-30.62,7.14-5.05,1.23-10,2.62-15,3.94-2.47.68-4.9,1.41-7.36,2.11s-4.91,1.41-7.31,2.17l-7.24,2.24-7.15,2.36-3.56,1.18-3.51,1.25-7,2.5c-4.57,1.79-9.25,3.45-13.72,5.35-2.24.94-4.53,1.83-6.75,2.8l-6.63,2.92Z"/><path class="cls-5" d="M963.66,2882.33l2.07-2.86,1-1.44,1-1.5,3.94-6,2-3c.66-1,1.35-2,1.87-2.91l3.38-5.58a240.36,240.36,0,0,0,11.81-23.32c.84-2,1.77-4,2.56-6l2.39-6.11c1.45-4.12,2.94-8.24,4.18-12.43a235.63,235.63,0,0,0,6.31-25.44l133.59,25a369.71,369.71,0,0,1-10,40.48c-2,6.66-4.32,13.21-6.67,19.75l-3.78,9.72c-1.28,3.23-2.71,6.41-4.07,9.61a376.12,376.12,0,0,1-18.89,37.25l-5.42,9c-.91,1.54-1.8,2.87-2.7,4.24l-2.69,4.1-5.4,8.19-1.36,2.05-1.43,2-2.9,4Z"/><path class="cls-6" d="M1006.15,2785.71c6.35-34.29,4.81-69.74-5.33-101.4l129.6-40.92a331.92,331.92,0,0,1,10.22,41.56,349.44,349.44,0,0,1,4.75,42.14l.23,5.28c.08,1.76.16,3.51.16,5.27l.08,10.53-.27,10.52c-.1,3.5-.39,7-.58,10.48a372.23,372.23,0,0,1-5.27,41.51Z"/><path class="cls-7" d="M1000.82,2684.31a177.51,177.51,0,0,0-21-44.36l-3.42-5c-1.07-1.38-2.11-2.71-3.13-4.1l-.76-1-.92-1.06-1.84-2.14-1.81-2.15c-.64-.73-1.38-1.45-2.06-2.18a210.59,210.59,0,0,0-18.73-17.66l87.62-103.89a347.28,347.28,0,0,1,30.62,29c1.25,1.34,2.5,2.63,3.74,4l3.7,4.3,3.68,4.33,1.83,2.17,1.8,2.35c2.4,3.14,4.8,6.3,7.13,9.45l6.12,9a314,314,0,0,1,37,78.08Z"/><path class="cls-5" d="M723.06,1132.2c-2.15,1-4.33,2-6.48,3.08l-6.43,3.31-3.22,1.65-1.61.82-1.59.9-6.38,3.56c-4.28,2.29-8.46,4.92-12.67,7.45l-3.16,1.9-.79.47-.4.24-.2.12-.09.06-.64.44-.66.42-.9.65c-.61.44-1.17.8-1.94,1.41-2.78,2.06-6.33,5-10,8.13s-7.76,6.69-11.89,10.32c-8.36,7.35-17.28,15.25-26.74,23.22l-87.56-103.93c7.87-6.63,15.91-13.74,24.56-21.35,4.38-3.84,8.82-7.76,13.77-11.94s10.1-8.48,16.4-13.19c1.46-1.13,3.23-2.38,4.92-3.59l2.57-1.81,2.89-1.92,2.9-1.89.36-.23.25-.15.52-.31,1-.63,4.12-2.48c5.49-3.31,10.92-6.67,16.62-9.76l8.45-4.72,2.12-1.17,2.16-1.12,4.34-2.23,8.68-4.45c2.89-1.48,5.9-2.82,8.85-4.23Z"/><path class="cls-6" d="M627.22,1200.35c-18.93,16-39.93,32.07-63.4,46.25a337.74,337.74,0,0,1-77.29,34.81L447.27,1151.3a202,202,0,0,0,46.23-21c15.32-9.25,30.47-20.67,46.16-33.89Z"/><path class="cls-7" d="M486.53,1281.41c-3.48,1-6.95,2.1-10.49,3l-5.29,1.36-2.65.66-2.68.59-5.35,1.14-2.68.57L456,1289l-1.46.26-5.85,1-5.74.83c-7.6,1-15.08,1.76-22.35,2.12s-14.49.56-21.56.45a361.37,361.37,0,0,1-41.61-2.94,395,395,0,0,1-40.21-7.21l30.67-132.39a258.11,258.11,0,0,0,26.64,4.78,226.92,226.92,0,0,0,26.14,1.87,163,163,0,0,0,23.86-1.32l2.66-.38,2.52-.45.63-.11.73-.16,1.48-.32,3-.63,1.48-.31,1.46-.38,2.94-.75c2-.45,3.9-1.09,5.85-1.66Z"/><path class="cls-1" d="M317.26,1283.51a407.77,407.77,0,0,1-77.08-26.13,371.42,371.42,0,0,1-71.33-42.49l82.45-108c27.22,20.78,61.17,36.07,96.63,44.26Z"/><path class="cls-3" d="M168.85,1214.89a325.11,325.11,0,0,1-60.77-60.2,308.66,308.66,0,0,1-42.8-75.57l126.5-49.65a172.86,172.86,0,0,0,24,42.28,189.37,189.37,0,0,0,35.56,35.11Z"/><path class="cls-4" d="M65.28,1079.12a332.3,332.3,0,0,1-20.39-82.84,366.82,366.82,0,0,1-2.41-41.4V947.2l.07-2.55.33-10.16c.16-3.37.4-6.72.61-10.08.12-1.7.19-3.31.36-5.08l.5-5.29,135.26,13.24-.32,3.17c-.11,1-.15,2.27-.23,3.39l-.43,6.88-.21,6.81,0,1.71v5a233.09,233.09,0,0,0,1.51,26.4,196.76,196.76,0,0,0,11.89,48.78Z"/><path class="cls-5" d="M44.35,914a313.47,313.47,0,0,1,7.11-42.75,273.93,273.93,0,0,1,14-42.83,250.53,250.53,0,0,1,51-77.19l97.64,94.53a109,109,0,0,0-13.31,16.58,118.64,118.64,0,0,0-10.12,19c-5.74,13.53-9.42,29-11,45.9Z"/><path class="cls-6" d="M116.45,751.27a276.36,276.36,0,0,1,72.23-53,364.86,364.86,0,0,1,78.14-29.05l33.26,131.77a230.48,230.48,0,0,0-49,18,140.58,140.58,0,0,0-37,26.84Z"/><path class="cls-7" d="M266.82,669.17a497.93,497.93,0,0,1,77.55-12.85,657.83,657.83,0,0,1,75.73-2.2L416.51,790a523,523,0,0,0-60,1.71,363,363,0,0,0-56.39,9.26Z"/><path class="cls-1" d="M420.1,654.12c24.93.64,49.57,2.55,73.95,5.45q18.29,2.16,36.39,5.07c6,1,12.06,2,18.07,3.08l17.07,3.16L540.71,804.49l-16.34-3c-5.13-.92-10.28-1.81-15.43-2.63q-15.44-2.46-30.9-4.31c-20.6-2.45-41.18-4-61.53-4.55Z"/><path class="cls-3" d="M565.58,670.88C609.22,679,651.51,686,692.3,688.77L683,824.36c-49.64-3.46-96.9-11.45-142.29-19.87Z"/><path class="cls-4" d="M692.3,688.77a492.2,492.2,0,0,0,59.71.78,340.81,340.81,0,0,0,56.15-7.43l29.35,132.7a478,478,0,0,1-78.42,10.45,630.75,630.75,0,0,1-76.09-.91Z"/><path class="cls-5" d="M808.16,682.12l1.7-.34.84-.17.64-.18,2.56-.7,2.57-.66,1.28-.32,1.25-.44c1.66-.58,3.32-1.13,5-1.67l.62-.19.61-.26,1.21-.52,2.44-1,2.44-1,2.37-1.19,2.38-1.15a21.08,21.08,0,0,0,2.37-1.2q2.31-1.35,4.65-2.64a22.27,22.27,0,0,0,2.29-1.43l2.27-1.48,2.29-1.46,2.2-1.66,2.23-1.64c.73-.56,1.51-1,2.21-1.67,1.43-1.22,2.88-2.43,4.33-3.62.37-.3.74-.58,1.09-.9l1-1,2.1-2,2.12-2c.71-.65,1.36-1.41,2.05-2.11l4.09-4.24c2.59-3.09,5.33-6,7.8-9.3l106.7,84.15c-4.34,5.73-9.27,11.2-14.06,16.7-2.51,2.7-5.1,5.35-7.66,8-1.3,1.32-2.55,2.67-3.9,4l-4.1,3.84-4.11,3.82-2.06,1.9c-.69.63-1.44,1.22-2.15,1.84l-8.73,7.25c-1.42,1.23-3,2.33-4.53,3.48l-4.6,3.41-4.63,3.38L922.55,779l-4.85,3.14c-1.63,1-3.22,2.11-4.93,3.05q-5,2.89-10.13,5.74c-1.67,1-3.44,1.8-5.19,2.67l-5.25,2.56-5.28,2.53c-1.79.78-3.6,1.51-5.4,2.26l-5.43,2.22-2.72,1.09-1.36.55-1.38.47q-5.55,1.9-11.11,3.74l-2.79.91-2.81.77-5.65,1.5-5.65,1.47-1.42.37-1.23.26-2.46.51Z"/><path class="cls-6" d="M881.21,634.09c10.24-12.79,19-28,26.69-44.3l2.72-6.25,1.38-3.11,1.25-3.21,2.54-6.42,2.32-6.57,1.17-3.28c.39-1.1.71-2.23,1.07-3.35l2.13-6.71c.69-2.24,1.28-4.55,1.94-6.82s1.33-4.53,1.86-6.86L1057.9,571c-.75,3.19-1.7,6.36-2.57,9.53s-1.75,6.35-2.72,9.52l-3,9.49c-.51,1.58-1,3.16-1.53,4.74l-1.66,4.72-3.36,9.44-3.7,9.39-1.86,4.69-2,4.66-4.09,9.32-4.45,9.25-2.25,4.62-2.42,4.57c-1.63,3-3.24,6.1-4.9,9.14l-5.3,9c-.9,1.5-1.73,3-2.69,4.5l-2.87,4.45-2.87,4.44c-1,1.48-1.9,3-2.95,4.42l-6.21,8.72-1.56,2.17L991.26,714l-3.35,4.26Z"/><path class="cls-7" d="M926.28,537.21c1.12-4.64,2.33-9.24,3.27-14,.49-2.35,1-4.68,1.49-7l1.29-7.12.66-3.56.54-3.6,1.1-7.19c.34-2.4.6-4.83.91-7.24s.65-4.82.84-7.26a454.5,454.5,0,0,0,2.14-58.75l135.84-4.13a589.52,589.52,0,0,1-2.81,77c-.26,3.2-.73,6.41-1.11,9.61s-.76,6.41-1.21,9.61l-1.47,9.61L1067,528l-.87,4.8-1.76,9.59c-.61,3.19-1.34,6.38-2,9.58-1.29,6.38-2.92,12.75-4.49,19.11Z"/><g id="Rectangle_186" data-name="Rectangle 186"><rect class="cls-8" x="827.75" y="8338.34" width="102.21" height="163.3" transform="translate(-7547.02 9240.55) rotate(-89.6)"/><rect class="cls-9" x="829.52" y="8340.11" width="98.68" height="159.77" transform="translate(-7547.02 9240.55) rotate(-89.6)"/></g><g id="END" class="cls-10"><text class="cls-11" transform="translate(855.15 8426.97) rotate(0.4)">END</text></g><polygon class="cls-8" points="1154.2 419.43 35.48 437.43 35.48 68.86 1154.2 68.86 1154.2 419.43"/><path id="Path_34" data-name="Path 34" class="cls-12" d="M933.51,422.94,1010,488.88l78.56-69.28-34.89.75L1051.6,324l-85.77,1.84,2.08,96.37Z"/><g id="START" class="cls-10"><text class="cls-13" transform="translate(1014.57 410.94) rotate(-90.23)">START</text></g></svg>