<?xml version="1.0" encoding="utf-8"?>
<!-- Generator: Adobe Illustrator 25.2.1, SVG Export Plug-In . SVG Version: 6.00 Build 0)  -->
<svg version="1.1" id="Layer_1" xmlns="http://www.w3.org/2000/svg" xmlns:xlink="http://www.w3.org/1999/xlink" x="0px" y="0px"
	 viewBox="0 0 1195.5 9391.9" style="enable-background:new 0 0 1195.5 9391.9;" xml:space="preserve">
<style type="text/css">
	.st0{fill:#60A353;}
	.st1{fill:#F388B2;}
	.st2{fill:#F3714A;}
	.st3{fill:#4F8ECB;}
	.st4{fill:#F1D54B;}
	.st5{fill:#93479B;}
	.st6{fill:#EF4043;}
	.st7{fill:#FFFFFF;}
	.st8{fill:none;stroke:#707071;stroke-width:3;}
	.st9{font-family:'OpenSans-Bold';}
	.st10{font-size:18.7971px;}
	.st11{fill:#636466;}
	.st12{fill:none;stroke:#BDB5B3;stroke-miterlimit:10;}
	.st13{fill:#FFFFFF;stroke:#707071;stroke-width:3;}
	.st14{font-size:18.797px;}
</style>
<g>
	<g>
		<g>
			<g>
				<g>
					<path class="st0" d="M91.6,5848.3c3.8-5.1,7.6-10.3,11.6-15.1l6-7.4l3-3.7l3.1-3.5l6.2-7.1c2.1-2.4,4-4.7,6.3-7.1
						c4.4-4.8,8.9-9.5,13.4-14.1c9.1-9.1,18.3-17.7,27.7-25.8c9.4-8.2,18.9-16,28.6-23.5L279,5846c-15.6,12.2-30.5,25-43.7,38.2
						c-3.3,3.3-6.5,6.6-9.5,10c-1.5,1.6-3.1,3.5-4.7,5.3l-4.8,5.5l-2.4,2.7l-2.3,2.8l-4.5,5.6c-3.1,3.7-5.8,7.5-8.6,11.2
						L91.6,5848.3z"/>
				</g>
				<g>
					<path class="st1" d="M197.4,5741c9.7-7.5,19.5-14.7,29.4-21.7c9.9-7,20-13.6,30.1-20.1c10.1-6.5,20.4-12.7,30.7-18.7
						c10.4-6,20.8-11.8,31.3-17.4l62.3,117.5c-9,4.8-18,9.8-26.8,14.9c-8.8,5.2-17.5,10.4-26.1,15.9c-8.5,5.5-17,11.1-25.2,16.8
						c-8.2,5.8-16.3,11.7-24.1,17.8L197.4,5741z"/>
				</g>
				<g>
					<g>
						<path class="st0" d="M603.9,3667.1c-0.8-3-1.9-5.7-2.9-8.3c-0.3-0.6-0.6-1.2-0.9-1.9l-0.4-0.9l-0.5-0.9l-0.9-1.8
							c-0.3-0.6-0.7-1.1-1-1.7c-0.2-0.3-0.3-0.6-0.5-0.9l-0.5-0.8c-0.4-0.5-0.7-1.1-1.1-1.7c-0.8-1-1.5-2.2-2.3-3.2
							c-0.8-1.1-1.7-2-2.6-3.1c-0.4-0.5-0.9-1-1.4-1.5c-0.5-0.5-0.9-1-1.5-1.5l-1.5-1.5l-1.6-1.5c-0.5-0.5-1.1-1-1.7-1.4
							c-0.6-0.5-1.1-1-1.8-1.4c-2.5-1.9-5.2-3.8-8.1-5.6c-3-1.8-6.1-3.6-9.5-5.4c-1.6-0.9-3.5-1.7-5.2-2.6l-2.8-1.2
							c-0.9-0.4-1.8-0.8-2.8-1.2l52-122.4c1.6,0.7,3.2,1.4,4.8,2.1l4.8,2.2c3.2,1.6,6.5,3,9.7,4.8c6.5,3.3,13,7,19.4,11
							c6.5,4.1,12.9,8.5,19.2,13.4c1.6,1.2,3.1,2.5,4.7,3.8c1.6,1.3,3.1,2.5,4.6,3.9l4.6,4.1l4.5,4.3c1.5,1.4,2.9,2.9,4.4,4.4
							c1.4,1.5,2.9,3,4.3,4.6c2.8,3.2,5.5,6.3,8.1,9.7c2.7,3.3,5.1,6.8,7.5,10.2c1.2,1.7,2.3,3.5,3.5,5.3l1.7,2.7
							c0.6,0.9,1.1,1.8,1.6,2.7l3.2,5.5l2.9,5.6l1.4,2.8l1.3,2.8l2.6,5.7c3.2,7.6,6.1,15.3,8.3,23L603.9,3667.1z"/>
					</g>
					<g>
						<path class="st2" d="M552.4,3617.2c-7.6-3.2-15.9-6.2-24.7-8.9c-8.8-2.7-18.1-5.2-27.8-7.4c-19.4-4.5-40.1-8.3-61.6-12.1
							l23-131c22.2,3.9,45.1,8.1,68.9,13.6c11.9,2.8,24,6,36.4,9.7c12.4,3.8,25,8.2,37.8,13.6L552.4,3617.2z"/>
					</g>
					<g>
						<path class="st3" d="M438.3,3588.8c-21.5-3.8-43.8-7.5-66.8-12.1c-23-4.5-46.8-9.9-71.3-17.4l39.2-127.1
							c17.9,5.5,37.4,10,57.9,14c20.5,4,41.9,7.6,64.1,11.5L438.3,3588.8z"/>
					</g>
					<g>
						<path class="st4" d="M300.2,3559.3c-3.1-0.9-6.1-1.9-9.2-2.9c-3.1-1.1-6.2-2.1-9.3-3.2c-3.1-1.1-6.2-2.2-9.3-3.5
							c-1.6-0.6-3.1-1.2-4.7-1.8l-4.6-1.9c-12.2-5-24.1-10.6-35.6-16.6c-23.1-12.1-45-26.1-65.7-42.1L243,3382
							c14.4,11.1,30,21,46.2,29.6c8.1,4.3,16.3,8.1,24.6,11.5l3.1,1.3c1,0.4,2.1,0.8,3.1,1.2c2,0.8,4.1,1.6,6.3,2.3
							c2.1,0.8,4.3,1.5,6.4,2.2c2.2,0.7,4.4,1.4,6.6,2.1L300.2,3559.3z"/>
					</g>
					<g>
						<path class="st5" d="M161.8,3487.3c-20.7-15.9-40.2-33.9-58-54.2c-8.9-10.2-17.3-21-25.2-32.4c-7.8-11.4-15.2-23.5-21.6-36.3
							l118.8-59.8c3.5,7,7.7,14,12.4,20.8c4.7,6.8,9.9,13.6,15.6,20.1c11.5,13,24.6,25.4,39.1,36.4L161.8,3487.3z"/>
					</g>
					<g>
						<path class="st6" d="M57,3364.5c-6.4-12.8-12-26.3-16.6-40.4l-1.6-5.3c-0.5-1.8-1.1-3.5-1.5-5.4c-0.9-3.6-1.9-7.3-2.7-10.9
							c-0.8-3.7-1.5-7.4-2.2-11.1c-0.7-3.7-1.2-7.5-1.7-11.3c-2-15.2-2.4-30.6-1.6-45.5c0.3-3.7,0.5-7.5,0.8-11.1l1.3-11
							c0.5-3.6,1.2-7.2,1.8-10.8l0.5-2.7l0.6-2.6l1.1-5.3l129.9,28.6l-0.6,2.9l-0.3,1.4l-0.2,1.4l-0.9,5.6c-0.2,1.9-0.4,3.7-0.7,5.5
							c-0.2,1.8-0.2,3.6-0.4,5.4c-0.4,7.2-0.1,14,0.7,20.9c0.3,1.7,0.5,3.4,0.8,5.2c0.4,1.7,0.7,3.4,1,5.2l1.3,5.2
							c0.2,0.9,0.5,1.7,0.8,2.6l0.8,2.6c2.2,7,5.1,14,8.6,21L57,3364.5z"/>
					</g>
					<g>
						<path class="st0" d="M35,3191.1c3.1-14,7.1-27.5,11.9-40.5c4.8-13,10.3-25.5,16.4-37.5l4.6-9l4.9-8.7c1.6-2.9,3.4-5.7,5.1-8.6
							l2.6-4.3l2.7-4.2c1.8-2.8,3.6-5.6,5.4-8.3l5.6-8.1c3.9-5.3,7.7-10.6,11.8-15.8l104.8,81.9c-2.8,3.5-5.5,7.2-8.1,10.9l-3.8,5.6
							c-1.3,1.8-2.4,3.8-3.7,5.6l-1.8,2.8l-1.7,2.9c-1.1,1.9-2.4,3.8-3.4,5.7l-3.2,5.8l-3,5.8c-3.9,7.8-7.3,15.6-10.2,23.4
							c-2.9,7.8-5.1,15.6-6.8,23.2L35,3191.1z"/>
					</g>
					<g>
						<path class="st2" d="M106,3046.1c4-5.2,8.2-10.2,12.4-15.2l6.5-7.4c2.2-2.5,4.4-4.8,6.6-7.2c9-9.5,18.2-18.7,28.1-27.4
							c9.8-8.7,20.1-17,30.8-24.9c10.8-7.9,22.1-15.3,33.9-22.1l66.3,115.3c-7.3,4.2-14.6,9-21.8,14.2c-7.1,5.2-14.1,10.9-20.9,16.9
							c-6.8,6-13.2,12.4-19.5,19c-1.5,1.7-3.1,3.3-4.6,5l-4.5,5.1c-2.9,3.5-5.9,7-8.6,10.6L106,3046.1z"/>
					</g>
					<g>
						<path class="st3" d="M224.4,2941.9c5.6-3.4,12.8-6.9,19.5-10.3c6.9-3,13.8-6.2,20.9-8.6c3.5-1.3,7.1-2.6,10.6-3.6
							c3.5-1.1,7.1-2.2,10.7-3.2l10.7-2.6l2.7-0.6c0.9-0.2,1.8-0.4,2.7-0.5l5.3-1l5.3-1c1.8-0.3,3.5-0.5,5.3-0.8
							c3.5-0.5,7-1,10.5-1.4c6.9-0.7,13.9-1.4,20.7-1.6c6.9-0.4,13.6-0.4,20.3-0.5c3.3,0,6.6,0.1,9.9,0.2c1.7,0,3.3,0.1,5,0.1
							l4.9,0.3l-6.9,132.8l-3.4-0.2c-1.1,0-2.2-0.1-3.4-0.1l-6.7-0.2c-4.3,0.1-8.8,0-12.9,0.3c-4.3,0.1-8.3,0.6-12.4,1l-5.9,0.8
							c-1,0.2-2,0.2-2.9,0.4l-2.8,0.6l-2.9,0.5c-0.5,0.1-1,0.2-1.4,0.3l-1.4,0.3c-1.8,0.5-3.6,0.9-5.5,1.3l-5.3,1.6
							c-1.8,0.5-3.4,1.1-5.1,1.8c-3.4,1.1-6.6,2.7-9.8,4c-3.2,1.7-6,2.9-9.9,5.3L224.4,2941.9z"/>
					</g>
					<g>
						<path class="st4" d="M389.3,2906.6c13.1,0.6,25.7,2,38.1,3.5c6.2,0.8,12.4,1.7,18.4,2.7c6.1,0.9,12,2,18,3.1
							c23.8,4.4,46.6,9.7,68.8,15.1l-31.9,129.2c-20.8-5.1-41.2-9.8-61.1-13.5c-4.9-0.9-9.9-1.8-14.8-2.5c-4.9-0.8-9.7-1.4-14.5-2.1
							c-9.5-1.2-19-2.2-28.1-2.6L389.3,2906.6z"/>
					</g>
					<g>
						<path class="st5" d="M532.7,2931c44.4,11,86.7,22.8,127.7,32l-29.1,129.8c-45.5-10.2-88.7-22.3-130.4-32.6L532.7,2931z"/>
					</g>
					<g>
						<path class="st6" d="M660.4,2963c20.5,4.6,40.6,8.5,60.3,11.4c2.5,0.4,4.9,0.7,7.4,1l7.3,0.9l7.3,0.8l3.6,0.4
							c1.2,0.1,2.4,0.2,3.6,0.3l7.2,0.6c2.4,0.2,4.7,0.3,7.1,0.4c4.7,0.3,9.4,0.3,14,0.5l-1.6,133c-6.4-0.2-12.9-0.2-19.2-0.6
							c-3.2-0.2-6.4-0.3-9.5-0.5l-9.4-0.8c-1.6-0.1-3.1-0.2-4.7-0.4l-4.6-0.5l-9.3-1l-9.2-1.2c-3.1-0.4-6.1-0.8-9.1-1.3
							c-24.2-3.5-47.6-8.1-70.3-13.3L660.4,2963z"/>
					</g>
					<g>
						<path class="st0" d="M278.8,4270.1c27.4-9.9,55.2-15.3,82.3-17.5c27.1-2.2,53.5-1.2,79.1,1.6l-14.6,132.2
							c-18.5-2-36.6-2.6-53.7-1.2c-17.1,1.4-33.1,4.7-47.5,9.9L278.8,4270.1z"/>
					</g>
					<g>
						<path class="st2" d="M440.2,4254.1c6.4,0.7,12.7,1.6,19,2.4l9.4,1.5c3.1,0.5,6.2,1.1,9.3,1.7c12.4,2.3,24.6,4.9,36.5,8
							l4.5,1.1l4.5,1.2c3,0.8,6,1.6,8.9,2.4c5.9,1.7,11.8,3.4,17.6,5.2c11.7,3.5,23.1,7.5,34.5,11.5l-45,125.2
							c-9.5-3.4-19.1-6.7-28.6-9.6c-4.8-1.5-9.5-2.8-14.3-4.2c-2.4-0.7-4.8-1.3-7.1-1.9l-3.6-1l-3.6-0.9c-9.5-2.4-19-4.5-28.4-6.2
							c-2.4-0.4-4.7-0.9-7.1-1.3l-7-1.1c-4.7-0.6-9.3-1.3-14-1.8L440.2,4254.1z"/>
					</g>
					<g>
						<path class="st3" d="M584.3,4289.1c5.6,2.1,11.3,4.1,16.9,6.3l8.4,3.2l8.3,3.3l7.2,2.9c1.8,0.7,3.7,1.4,5.6,2.1
							c0.9,0.4,2,0.7,2.9,1c1,0.3,2,0.7,3,1c2.1,0.6,4,1.3,6.2,1.9c16.8,4.9,35.7,8.5,55,10.9l-16.8,132
							c-24.7-3.2-49.6-7.7-75.3-15.1c-3.2-0.9-6.5-2-9.7-3c-1.6-0.5-3.3-1.1-4.9-1.6c-1.6-0.6-3.3-1.1-4.9-1.7
							c-3.3-1.2-6.6-2.4-10-3.8l-8.2-3.3l-7.1-2.9l-7.1-2.7c-4.8-1.9-9.5-3.6-14.3-5.3L584.3,4289.1z"/>
					</g>
					<g>
						<path class="st4" d="M697.7,4321.8c19.3,2.4,39.2,3.8,59.2,4.2c20,0.4,40.1-0.2,60.1-1.7l10.2,132.6
							c-24.3,1.9-48.5,2.5-72.8,2.1c-24.3-0.5-48.7-2.1-73.4-5.2L697.7,4321.8z"/>
					</g>
					<g>
						<path class="st5" d="M817,4324.2c19.9-1.5,39.7-4,59-7.6c19.2-3.5,38-8.1,55.5-14l41.9,126.2c-24.6,8.1-49,14.1-73.4,18.5
							c-24.4,4.5-48.6,7.5-72.9,9.4L817,4324.2z"/>
					</g>
					<g>
						<path class="st6" d="M931.5,4302.7c8.7-2.9,17.2-6.1,25.1-9.6c7.9-3.5,15.4-7.3,22.1-11.3c6.6-4,12.6-8.3,17.4-12.5
							c1.1-1.1,2.4-2.1,3.4-3.2l1.6-1.6c0.5-0.5,0.9-1,1.4-1.6l0.7-0.8l0.6-0.8l1.3-1.5c0.4-0.5,0.7-1,1.1-1.5
							c0.2-0.2,0.4-0.5,0.6-0.7l0.5-0.7l109.9,75l-1.9,2.7c-0.6,0.9-1.3,1.7-1.9,2.6l-3.9,5.2c-1.3,1.7-2.7,3.3-4.1,4.9l-2,2.4
							l-2.1,2.3l-4.2,4.6c-1.4,1.5-2.9,2.9-4.3,4.3c-2.9,2.9-5.8,5.5-8.8,8.2c-11.9,10.4-24.1,19-36.4,26.4
							c-12.3,7.5-24.7,13.7-37,19.1c-12.3,5.4-24.7,10.1-37,14.2L931.5,4302.7z"/>
					</g>
					<g>
						<path class="st0" d="M1007.2,4257l0.5-0.7l0.2-0.3c0.1-0.1,0.2-0.2,0.3-0.5l1.7-2.8c1.1-1.9,2.3-3.7,3.4-5.7
							c2.1-3.9,4.4-7.7,6.4-11.7c4.2-7.9,7.8-16.2,11.2-24.5c6.6-16.8,12-34.2,15.4-51.9l130.5,26c-5.1,25.8-12.7,51-22.4,75.4
							c-5,12.2-10.3,24.2-16.5,36c-2.9,5.9-6.3,11.7-9.5,17.5c-1.7,2.9-3.4,5.7-5.2,8.6l-2.6,4.3c-0.2,0.3-0.5,0.8-0.8,1.3l-0.9,1.4
							l-1.8,2.7L1007.2,4257z"/>
					</g>
					<g>
						<path class="st2" d="M1046.4,4158.9c7.2-35.3,7.3-71.6-0.4-103.5l129.4-31c0.4,1.7,0.9,3.4,1.2,5.1l1,5.1
							c0.7,3.4,1.4,6.8,2,10.2c1.1,6.8,2.2,13.6,2.9,20.4l0.6,5.1c0.2,1.7,0.4,3.4,0.5,5.1l0.7,10.2l0.2,2.5l0.1,2.5l0.1,5.1
							c0.1,3.4,0.2,6.8,0.2,10.1l-0.1,10.1c0,3.4-0.3,6.7-0.4,10c-0.2,6.7-0.9,13.3-1.5,19.9c-1.4,13.2-3.3,26.3-5.9,39.2
							L1046.4,4158.9z"/>
					</g>
					<g>
						<path class="st3" d="M1046,4055.5l-1.5-5.9l-1.8-5.8c-0.3-1-0.5-1.9-0.9-2.9l-1-2.8l-1-2.8c-0.3-0.9-0.6-1.9-1-2.8l-2.2-5.4
							l-0.5-1.4l-0.6-1.3l-1.3-2.6c-1.5-3.6-3.5-6.8-5.3-10.1c-1-1.6-2-3.2-3-4.8l-1.5-2.4l-1.6-2.3c-1.1-1.5-2.1-3.1-3.2-4.5
							c-1.2-1.4-2.3-2.9-3.5-4.3c-1.1-1.5-2.4-2.8-3.6-4.1l-1.8-2l-0.9-1l-1-0.9c-1.3-1.3-2.6-2.5-3.9-3.8c-0.3-0.3-0.6-0.6-1-1
							l-1.2-1.1l-2.4-2.1l87.8-99.9l3.8,3.4l1.9,1.7c0.6,0.6,1.3,1.3,2,1.9l8,7.8l2,2l1.9,2.1l3.7,4.1c2.5,2.8,5,5.5,7.3,8.4
							l6.9,8.7c2.2,2.9,4.3,6,6.5,9l3.2,4.5l2.9,4.7c1.9,3.1,3.9,6.2,5.8,9.4c3.5,6.4,7.2,12.7,10.2,19.3l2.3,4.9l1.2,2.5l1,2.5
							l4.1,9.9c0.7,1.7,1.3,3.3,1.9,5l1.8,5l1.8,5c0.6,1.7,1.1,3.4,1.6,5.1l3,10.1l2.6,10.2L1046,4055.5z"/>
					</g>
					<g>
						<path class="st4" d="M907.7,3926.1c-17.9-6-36.9-10.8-56.9-15c-10-2.1-20.3-4.1-30.8-6l-32.6-5.8l23.4-131l32.9,5.8
							c11.3,2.1,22.8,4.2,34.5,6.7c23.4,4.9,47.4,11,71.6,19L907.7,3926.1z"/>
					</g>
					<g>
						<path class="st1" d="M1000.3,3977.2c-12.8-11.3-27-21.1-42.5-29.6c-15.5-8.5-32.2-15.6-50.1-21.5l42.1-126.2
							c24.1,8,48.4,18.2,71.9,31c23.4,12.8,46,28.3,66.4,46.4L1000.3,3977.2z"/>
					</g>
					<g>
						<path class="st5" d="M787.4,3899.3c-11.2-2-22.8-4.1-35-6.8c-12.2-2.7-25.1-5.8-39.2-10.4c-7.1-2.4-14.4-5.2-22.2-8.7
							l-2.9-1.4c-1-0.5-1.9-0.9-3-1.5l-3.1-1.6c-1.2-0.6-2.3-1.2-3.5-1.9c-2.4-1.4-4.8-2.8-7.1-4.3c-2.3-1.5-4.6-3.1-6.9-4.6
							c-9-6.5-17.2-14-24.2-22.5c-7-8.5-12.9-17.9-17.3-28l121.3-56.2c0,0,0,0,0,0c0,0,0,0,0,0c0,0,0.1,0,0.1,0.1l0.6,0.3
							c0.2,0.1,0.5,0.2,0.8,0.4l0.8,0.4c2.3,1,5.3,2.2,8.7,3.4c7,2.3,15.7,4.5,25.1,6.6c9.5,2,19.7,3.9,30.3,5.8L787.4,3899.3z"/>
					</g>
					<g>
						<path class="st6" d="M623,3807.7c-2.6-5.9-4.6-12.1-6.4-18.2c-0.6-2.5-1.2-5-1.8-7.5l-0.8-3.7l-0.5-3
							c-0.6-3.6-1.3-7.3-1.7-10.6c-0.4-3.4-1-7-1.2-10.2c-0.3-3.3-0.7-6.7-0.8-9.7c-0.9-12.6-1-23.9-1.3-33.9
							c-0.2-10-0.5-18.7-1.2-25.9c-0.2-1.8-0.3-3.6-0.6-5.2l-0.3-2.4l-0.1-0.6l-0.1-0.5l-0.2-1.1l-0.4-2.1l-0.1-0.5l-0.1-0.5
							l-0.2-0.9l-0.4-1.9c-0.1-0.6-0.4-1.3-0.6-2l127.5-37.9c0.5,1.8,1.1,3.5,1.5,5.4l1.4,5.6l0.7,2.8l0.3,1.4l0.3,1.4l1,5.4
							l0.5,2.7l0.2,1.4l0.2,1.3l0.7,5.2c0.5,3.6,0.8,6.8,1.2,10.1c1.3,13.2,1.6,25.1,1.8,35.7c0.2,10.6,0.4,19.8,1,27.7
							c0.1,2.1,0.3,3.8,0.5,5.6c0.1,1.9,0.4,3.4,0.6,5.1c0.2,1.7,0.5,3.1,0.7,4.6l0.1,0.8c0,0.1,0,0,0.1,0c0,0,0,0,0,0L623,3807.7z"
							/>
					</g>
					<g>
						<path class="st0" d="M738.9,5248.3c-9.3,1.1-18.7,2.4-28.3,4.3c-4.8,0.8-9.6,1.9-14.4,2.9c-2.4,0.5-4.8,1.1-7.3,1.6
							c-2.4,0.6-4.8,1.1-7.3,1.7c-19.5,4.8-39.2,10.5-59.2,17l-40.9-126.6c22.2-7.2,45.1-13.9,68.7-19.7c2.9-0.8,5.9-1.4,8.9-2.1
							c3-0.7,5.9-1.4,9-2c6.1-1.2,12.1-2.6,18.2-3.6c12.2-2.3,24.8-4.2,37.5-5.7L738.9,5248.3z"/>
					</g>
					<g>
						<path class="st2" d="M622.6,5275.8c-10,3.2-20.1,6.6-30.2,10.1c-10.1,3.5-20.3,7.1-30.6,10.9l-15.5,5.6
							c-5.6,2-11.1,4-16.7,5.9l-8.4,2.9l-8.5,2.8c-5.6,1.9-11.4,3.6-17.1,5.4L457,5192.1c4.9-1.5,9.8-3,14.6-4.6l7.3-2.4l7.3-2.5
							c4.9-1.6,9.7-3.4,14.6-5.2l15.8-5.7c10.5-3.8,21.3-7.6,32.1-11.4c10.9-3.7,21.8-7.5,32.9-11L622.6,5275.8z"/>
					</g>
					<g>
						<path class="st3" d="M495.6,5319.4c-22.9,6.9-46.3,13.1-70.4,18c-6.1,1.2-12.1,2.4-18.2,3.4c-3.1,0.5-6.1,1.1-9.2,1.6
							l-9.3,1.4c-3.1,0.5-6.2,0.9-9.3,1.2l-9.4,1.1l-9.5,0.9l-4.8,0.4l-4.8,0.3l-9.3-132.7l3.5-0.2l3.5-0.3l7.1-0.7l7.1-0.9
							c2.4-0.3,4.7-0.6,7.1-1l7.2-1.1c2.4-0.4,4.8-0.8,7.2-1.2c4.8-0.8,9.6-1.8,14.5-2.7c19.4-4,38.9-9.1,58.4-15L495.6,5319.4z"/>
					</g>
					<g>
						<path class="st4" d="M350.7,5347.8l-9.6,0.6l-9.7,0.3l-4.9,0.2l-4.9,0c-3.3,0-6.6,0-9.9,0l-10-0.3c-1.7-0.1-3.3-0.1-5-0.2
							l-5-0.3c-3.4-0.3-6.7-0.4-10.1-0.8l-10.2-1.1c-13.6-1.8-27.3-4.1-41.1-7.7l-5.2-1.3c-1.7-0.5-3.4-1-5.2-1.5
							c-3.4-1.1-6.9-2.1-10.3-3.2c-6.8-2.5-13.7-4.8-20.4-7.9l52.4-122.3c27.3,11.8,62.3,15.7,99.7,12.9L350.7,5347.8z"/>
					</g>
					<g>
						<path class="st5" d="M189.4,5324.5l-5.1-2.2l-2.5-1.1l-2.5-1.2l-10-5c-1.7-0.8-3.3-1.8-4.9-2.7l-4.9-2.8l-4.8-2.8
							c-1.6-1-3.1-2-4.7-3.1c-3.1-2.1-6.3-4.1-9.4-6.3l-9-6.8l-2.2-1.7l-1.1-0.9l-1.1-0.9l-4.3-3.7l-4.3-3.7
							c-1.4-1.2-2.8-2.5-4.2-3.8l-8-7.9l-2-2c-0.6-0.7-1.2-1.3-1.8-2l-3.6-4c-4.9-5.3-9.3-10.9-13.8-16.4c-2.2-2.8-4.2-5.7-6.3-8.6
							c-1-1.4-2.1-2.9-3.1-4.3l-2.9-4.4c-1.9-2.9-3.9-5.9-5.8-8.8l-5.4-9l115.2-66.6l3.1,5.3c1.1,1.7,2.2,3.4,3.3,5.1l1.7,2.5
							c0.6,0.8,1.2,1.6,1.8,2.4c1.2,1.6,2.3,3.2,3.5,4.8c2.5,3,4.9,6.2,7.6,9l1.9,2.2c0.3,0.4,0.6,0.7,1,1.1l1,0.9
							c1.3,1.3,2.6,2.5,3.8,3.8c0.6,0.7,1.3,1.2,2,1.8l2,1.7l2,1.8l0.5,0.4l0.5,0.4l1.1,0.8c1.4,1.1,2.8,2.1,4.2,3.2l4.5,3
							c0.7,0.5,1.5,1,2.2,1.5l2.4,1.3l2.3,1.4c0.8,0.4,1.5,1,2.4,1.3c1.6,0.8,3.3,1.6,4.9,2.5l1.2,0.6l1.3,0.5l2.6,1.1L189.4,5324.5
							z"/>
					</g>
					<g>
						<path class="st6" d="M61.7,5208.3c-6.9-12.1-13.2-24.5-18.5-37.1l-2-4.7c-0.6-1.6-1.2-3.2-1.8-4.8c-1.2-3.2-2.4-6.4-3.6-9.6
							l-3.2-9.7c-0.5-1.6-1.1-3.2-1.6-4.8l-1.4-4.9c-3.9-13-6.8-26.2-9.3-39.4l-1.6-10c-0.3-1.7-0.5-3.3-0.7-5l-0.6-5
							c-0.9-6.7-1.4-13.4-2-20.1L148,5044c2.4,34.8,12.4,69.3,28.9,97.8L61.7,5208.3z"/>
					</g>
					<g>
						<path class="st0" d="M15.3,5053.3c-0.2-3.4-0.4-6.7-0.5-10.1l-0.2-5c-0.1-1.7-0.1-3.4-0.1-5l-0.1-10.1l0.3-10.1
							c0.1-1.7,0.1-3.4,0.2-5.1l0.3-5.1c0.2-3.4,0.4-6.7,0.8-10.1c0.7-6.7,1.4-13.5,2.5-20.2c3.9-26.9,11.2-53.7,21.9-79.7
							l122.8,51.1c-12.5,30-17.5,65.3-15.1,100.1L15.3,5053.3z"/>
					</g>
					<g>
						<path class="st2" d="M40.3,4892.8l4.2-9.7l1.1-2.4c0.4-0.8,0.8-1.6,1.2-2.4l2.4-4.8c3-6.4,6.7-12.6,10.2-18.8
							c1.9-3.1,3.8-6.1,5.7-9.2c1-1.5,1.9-3,2.9-4.6l3.1-4.5l6-8.4l4.3-5.9c11.5-15.8,21.7-31.8,29.6-47.5l118.7,60.1
							c-12.1,23.8-26,45.3-40.5,65.3l-5.5,7.5l-0.7,0.9l-0.5,0.7l-0.8,1.2l-1.7,2.3l-1.7,2.3c-0.5,0.8-1,1.6-1.5,2.5
							c-1,1.7-2.1,3.3-3.1,4.9c-1.9,3.5-3.9,6.8-5.6,10.4l-1.3,2.7c-0.2,0.4-0.5,0.9-0.7,1.3l-0.6,1.4l-2.4,5.5L40.3,4892.8z"/>
					</g>
					<g>
						<path class="st3" d="M111.1,4774.6c8-15.7,13.6-31,16.8-45.8c0.3-1.9,0.6-3.7,1-5.5c0.2-0.9,0.4-1.8,0.5-2.8l0.3-2.8l0.3-2.8
							c0.1-0.9,0.3-1.8,0.3-2.8c0.1-1.9,0.2-3.7,0.4-5.6c0.2-7.6,0-15.4-0.8-23.8l132.4-13.2c1.3,13.7,1.9,28,1.3,42.6l-0.7,11
							c-0.1,1.8-0.3,3.7-0.5,5.5l-0.6,5.5l-0.7,5.5c-0.2,1.8-0.6,3.6-0.9,5.4l-2,10.8c-0.8,3.6-1.7,7.1-2.5,10.6l-1.3,5.3
							c-0.5,1.7-1,3.4-1.5,5.2l-3.1,10.3c-1.1,3.4-2.4,6.6-3.5,9.9l-1.8,4.9l-0.9,2.5l-1,2.4l-4,9.5l-2,4.7l-2.2,4.5l-4.4,9.1
							L111.1,4774.6z"/>
					</g>
					<g>
						<path class="st4" d="M129.9,4682.8c-0.9-8.5-2.3-17.6-4.1-27.4l-1.4-7.5l-1.6-7.8l-3.3-16.4c-4.5-22.6-9-48.4-10.4-75.4
							l132.9-6.8c0.9,17.3,3.8,35.4,8,56.3l3.3,16.2l1.7,8.5l1.7,8.8c2.2,12,4.3,24.8,5.7,38.4L129.9,4682.8z"/>
					</g>
					<g>
						<path class="st5" d="M109.1,4548.3l-0.4-10.2l-0.1-2.5l0-2.6l0-5.1l0-5.1l0-2.6l0.1-2.6l0.5-10.3c0.1-3.4,0.5-6.8,0.8-10.2
							c0.3-3.4,0.6-6.8,1-10.2l1.5-10.1l0.7-5l0.2-1.3l0.2-1.3l0.5-2.7c5.2-28.4,14.9-56.6,29.6-82.8l116.1,64.9
							c-7,12.6-12.1,26.8-14.9,42l-0.3,1.4l-0.1,0.7l-0.1,0.8l-0.5,3.2l-0.9,6.4c-0.2,2.1-0.4,4.2-0.6,6.3c-0.2,2.1-0.5,4.2-0.5,6.3
							l-0.3,6.3l-0.1,1.6l0,1.6l0,3.2l0,3.2l0,1.6l0.1,1.6l0.2,6.5L109.1,4548.3z"/>
					</g>
					<g>
						<path class="st6" d="M143.9,4383.8c7.3-13.1,15.8-25.6,25.5-37.3c2.4-3,4.9-5.8,7.4-8.6l3.9-4.2l2-2.1l2-2
							c5.3-5.4,11-10.5,16.8-15.4c23.3-19.5,50-34.3,77.4-44.2l45.6,125c-14.4,5.2-26.9,12.4-37.7,21.3c-10.7,9-19.7,19.8-26.7,32.4
							L143.9,4383.8z"/>
					</g>
					<g>
						<path class="st2" d="M319,5663.1c42.2-22.3,85.9-41.5,131.2-57.2l43.5,125.7c-38.5,13.3-76.2,29.9-112.4,49L319,5663.1z"/>
					</g>
					<g>
						<path class="st3" d="M450.2,5605.9c11.3-3.9,22.7-7.7,34.3-11.1c5.7-1.8,11.6-3.4,17.4-5l8.7-2.3c2.9-0.8,5.8-1.6,8.8-2.3
							c11.7-3,23.6-5.6,35.5-8.1c12-2.4,24-4.6,36.1-6.4l19.7,131.6c-9.8,1.5-19.6,3.2-29.4,5.2c-9.8,2.1-19.6,4.2-29.3,6.7
							c-2.4,0.6-4.9,1.2-7.3,1.9l-7.3,2c-4.9,1.4-9.7,2.7-14.6,4.2c-9.7,2.9-19.4,6.1-29,9.4L450.2,5605.9z"/>
					</g>
					<g>
						<path class="st4" d="M591,5570.7c12.2-1.8,24.4-3.4,36.8-4.4l4.6-0.4l4.7-0.4l9.3-0.7c6.2-0.3,12.5-0.7,18.8-0.8
							c6.3-0.2,12.6-0.2,18.9-0.2c3.2,0,6.3,0.1,9.5,0.2l4.8,0.1l4.8,0.2c12.7,0.5,25.5,1.6,38.4,3.1l-16,132.1
							c-36.7-4.4-75.7-2.9-114.8,2.9L591,5570.7z"/>
					</g>
					<g>
						<path class="st5" d="M741.4,5567.3c25.7,3.1,51.6,8.4,77.1,16.5c12.8,4,25.4,8.8,37.8,14.3l4.7,2.1l2.3,1l1.2,0.5l0.9,0.4
							l7.2,3.4c4.7,2.2,9.2,4.2,13.7,6.2l-53,122c-5.7-2.5-11.2-5-16.6-7.5l-7.9-3.7l-0.9-0.4l-0.7-0.3l-1.5-0.7l-2.9-1.3
							c-7.9-3.4-15.9-6.6-24.4-9.2c-16.8-5.3-34.5-9-52.8-11.2L741.4,5567.3z"/>
					</g>
					<g>
						<path class="st6" d="M886.2,5611.7c9,3.9,17.9,7.5,26.7,10.6c8.8,3.1,17.5,5.8,25.9,8c4.2,1.1,8.4,2,12.5,2.8
							c4.1,0.8,8.1,1.4,11.9,1.9c3.9,0.5,7.6,0.8,11.1,0.9c3.5,0.1,6.9,0.2,10,0l7.6,132.8c-8,0.5-15.7,0.4-23.2,0.2
							c-7.6-0.3-14.9-1-22-1.8c-7.2-0.9-14.1-2-20.9-3.4c-6.8-1.3-13.5-2.8-20-4.5c-26-6.7-50-15.6-72.7-25.5L886.2,5611.7z"/>
					</g>
					<g>
						<path class="st0" d="M984.4,5635.9c3.1-0.2,6-0.5,8.6-1c2.6-0.5,4.9-1.1,7-1.8c2.1-0.7,3.9-1.5,5.5-2.3
							c0.4-0.2,0.8-0.4,1.2-0.6c0.4-0.2,0.8-0.5,1.2-0.7c0.7-0.5,1.5-0.9,2.2-1.5c0.7-0.5,1.4-1.1,2.1-1.7c0.7-0.7,1.4-1.3,2-2
							c0.7-0.7,1.3-1.6,2.1-2.3c0.3-0.5,0.7-0.9,1-1.4c0.2-0.2,0.4-0.4,0.5-0.7l0.5-0.8l1-1.5c0.3-0.6,0.7-1.1,1-1.7
							c0.2-0.3,0.4-0.5,0.5-0.8l0.5-0.9c0.3-0.6,0.7-1.2,1-1.8l1-2c0.3-0.7,0.7-1.3,1-2.1c0.6-1.5,1.3-2.9,1.9-4.5l124,48.1
							c-1.3,3.6-2.9,7.2-4.5,10.8c-0.8,1.8-1.7,3.6-2.5,5.4l-2.7,5.4l-3,5.4l-1.5,2.7c-0.5,0.9-1.1,1.8-1.6,2.7l-3.3,5.4
							c-1.2,1.8-2.4,3.6-3.6,5.4l-1.8,2.7c-0.6,0.9-1.3,1.8-2,2.6c-1.3,1.8-2.7,3.5-4,5.2c-2.9,3.4-5.7,6.9-8.9,10.1
							c-3.1,3.3-6.4,6.5-9.8,9.6c-3.5,3-7,6.1-10.8,8.8c-3.7,2.9-7.6,5.4-11.5,8c-2,1.2-4,2.4-6,3.6c-2,1.2-4.1,2.2-6.1,3.3
							c-8.2,4.2-16.6,7.8-25.1,10.5c-8.4,2.8-16.9,4.8-25.2,6.3c-8.3,1.5-16.4,2.3-24.4,2.8L984.4,5635.9z"/>
					</g>
					<g>
						<path class="st2" d="M1026.4,5603.7c2.4-6.3,4.5-13.6,6.2-21.5c0.2-1,0.4-2,0.6-3l0.5-3.1l0.6-3.1l0.5-3.2l0.5-3.2
							c0.2-1.1,0.2-2.1,0.3-3.1l0.7-6.2c0.1-1,0.2-2.1,0.2-3.1l0.2-3.1l0.2-3.1c0.1-1,0.1-2.1,0.1-3.2l0-6.3c0-1.1,0.1-2.1,0-3.2
							l-0.1-3.2l-0.2-6.4l-0.6-6.4l-0.3-3.2c-0.1-1.1-0.3-2.1-0.4-3.2l-0.8-6.4l131.6-19.7l1.3,10.1c0.2,1.7,0.5,3.4,0.6,5l0.5,5.1
							l0.9,10.2l0.4,10.2l0.2,5.1c0.1,1.7,0,3.4,0,5.1l-0.1,10.3c0,1.7-0.1,3.4-0.2,5.2l-0.3,5.2l-0.3,5.2c-0.1,1.7-0.2,3.4-0.4,5.2
							l-1.1,10.3c-0.2,1.7-0.3,3.5-0.6,5.1l-0.7,5l-0.7,5l-0.9,5.1l-0.9,5.1c-0.3,1.7-0.7,3.4-1.1,5.2c-2.9,13.8-6.8,27.9-12.3,42.3
							L1026.4,5603.7z"/>
					</g>
					<g>
						<path class="st3" d="M1034.4,5506.5c-2.6-17.1-7.2-34.2-13.3-51.2c-6.2-16.9-14.2-33.5-23.5-49.6l115-66.8
							c12.9,22.3,24.2,45.8,33.3,70.5l3.3,9.3c0.5,1.6,1.1,3.1,1.6,4.7l1.5,4.8l2.9,9.5c0.9,3.2,1.7,6.4,2.6,9.7
							c1.8,6.4,3.1,13,4.6,19.5l0.5,2.5l0.4,2.5l0.9,5l0.9,5c0.3,1.7,0.6,3.3,0.8,5L1034.4,5506.5z"/>
					</g>
					<g>
						<path class="st4" d="M997.6,5405.7c-1.1-2-2.4-4-3.6-6l-3.7-6l-3.9-5.9c-1.3-2-2.6-3.9-3.9-5.8l-4.1-5.8l-1-1.4l-1.1-1.4
							l-2.1-2.8c-1.4-1.9-2.8-3.8-4.3-5.7l-4.4-5.6l-2.2-2.8c-0.7-0.9-1.5-1.8-2.3-2.7l-4.6-5.4c-1.5-1.8-3.2-3.6-4.7-5.3
							c-1.6-1.8-3.2-3.6-4.8-5.3c-6.6-6.9-13.2-13.8-20.2-20.3l90.9-97.1c9.3,8.6,18.1,17.6,26.7,26.8c2.2,2.3,4.2,4.7,6.4,7
							c2.1,2.4,4.3,4.7,6.3,7.1l6.1,7.2c1,1.2,2.1,2.4,3.1,3.6l3,3.7l5.9,7.4c1.9,2.5,3.8,5.1,5.7,7.6l2.9,3.8l1.4,1.9l1.4,2
							l5.5,7.8c1.9,2.6,3.6,5.3,5.4,7.9l5.3,8l5,8.2c1.7,2.7,3.4,5.4,4.9,8.3L997.6,5405.7z"/>
					</g>
					<g>
						<path class="st5" d="M926.7,5317.5c-1.8-1.6-3.5-3.3-5.3-4.9l-5.4-4.7l-2.7-2.4l-2.8-2.3l-5.5-4.6c-1.8-1.5-3.7-3-5.6-4.4
							c-1.9-1.5-3.7-3-5.6-4.4l-5.7-4.3c-1-0.7-1.9-1.4-2.9-2.1l-2.9-2l-5.8-4.1l-5.9-3.9c-4.2-2.9-7.2-4.4-10.5-6.5
							c-0.8-0.5-1.7-0.9-2.5-1.4l-2.5-1.3l-2.5-1.3c-0.8-0.5-1.7-0.8-2.6-1.2c-1.7-0.8-3.5-1.6-5.2-2.4l-5.4-2.1l46.6-124.6
							c3.4,1.3,6.8,2.6,10.1,3.9l9.9,4.5c1.6,0.8,3.3,1.5,4.9,2.3l4.8,2.5l4.8,2.5c1.6,0.9,3.2,1.7,4.8,2.6
							c6.2,3.6,12.9,7.6,17.8,10.9l8,5.2l7.8,5.4c20.8,14.5,40.3,30.6,58.7,47.8L926.7,5317.5z"/>
					</g>
					<g>
						<path class="st6" d="M839.3,5257.2c-0.9-0.3-1.8-0.7-2.7-1l-2.8-0.9l-2.8-0.9c-0.9-0.3-1.8-0.7-2.8-0.9l-5.7-1.5l-1.4-0.4
							l-1.5-0.3l-2.9-0.6c-3.9-1-7.9-1.5-12-2.2c-2-0.3-4.1-0.5-6.2-0.8l-3.1-0.4l-3.2-0.2c-2.1-0.1-4.2-0.3-6.4-0.5l-6.5-0.2
							c-2.1-0.1-4.4-0.1-6.6-0.1l-3.3,0c-1.1,0-2.2,0-3.3,0.1l-6.7,0.3l-1.7,0.1l-1.7,0.1l-3.4,0.2c-4.5,0.3-9.2,0.8-13.8,1.3
							l-15-132.2c6.4-0.7,12.8-1.4,19.3-1.8l4.9-0.3l2.4-0.2l2.5-0.1l9.9-0.4c1.6-0.1,3.3-0.1,5-0.1l5,0c3.3,0,6.7,0,10.1,0.1
							l10.1,0.4c3.4,0.2,6.8,0.5,10.2,0.7l5.1,0.4l5.2,0.6c3.4,0.4,6.9,0.8,10.3,1.3c6.9,1.1,13.8,2.2,20.8,3.8l5.2,1.1l2.6,0.6
							l2.6,0.7l10.4,2.8c1.7,0.4,3.4,1,5.2,1.6l5.1,1.7l5.1,1.7c1.7,0.6,3.4,1.3,5.1,1.9L839.3,5257.2z"/>
					</g>
				</g>
				<g>
					<path class="st0" d="M996.4,6481.1l-0.2-7.5c-0.1-2.5-0.2-4.9-0.3-7.4c-0.1-2.5-0.2-5-0.4-7.4l-0.5-7.3l-0.3-3.7l-0.3-3.6
						l-0.7-7.2c-0.2-2.4-0.6-4.8-0.9-7.1l-0.4-3.6c-0.1-1.2-0.3-2.4-0.5-3.5c-0.7-4.6-1.4-9.3-2.3-13.8l-0.6-3.4
						c-0.2-1.1-0.4-2.3-0.7-3.3l-1.4-6.5l-0.4-1.6l-0.4-1.5l-0.8-3.1l-0.8-3.1c-0.1-0.5-0.3-1-0.4-1.5l-0.5-1.4l-1.8-5.7
						c-0.7-1.7-1.3-3.5-1.9-5.2l124.2-47.6c10.5,27.9,15.6,53.6,19.4,78.9c0.3,1.6,0.5,3.2,0.7,4.7l0.6,4.7c0.4,3.1,0.8,6.3,1.1,9.4
						l0.9,9.3l0.4,4.7l0.3,4.6l0.7,9.2c0.2,3.1,0.3,6.1,0.5,9.2c0.1,3.1,0.3,6.1,0.4,9.2l0.3,9.2L996.4,6481.1z"/>
				</g>
				<g>
					<path class="st2" d="M979.9,6372.6c-0.2-0.4-0.3-0.9-0.5-1.3l-0.5-1.1l-1-2.3l-0.5-1.2l-0.2-0.6c-0.1-0.2-0.2-0.3-0.2-0.5
						c-0.3-0.6-0.7-1.2-1-1.9c-0.3-0.6-0.6-1.3-0.9-1.9l-1.6-2.9c-1.1-1.9-2.2-3.9-3.3-5.8c-4.5-7.6-9.5-15-14.8-22.1
						c-5.3-7.1-10.9-13.9-16.9-20.4c-6-6.5-12.3-12.7-18.8-18.5l88.3-99.5c19.9,17.8,38.2,37.5,54.1,58.9
						c7.9,10.7,15.4,21.7,22.2,33.2c1.8,2.8,3.3,5.7,5,8.6l2.5,4.4l2.8,5.5l2.8,5.6c0.2,0.5,0.5,0.9,0.7,1.4l0.6,1.3l1.2,2.7
						l2.3,5.4l1.1,2.7c0.4,0.9,0.7,1.7,1,2.6L979.9,6372.6z"/>
				</g>
				<g>
					<path class="st3" d="M919.6,6292.3c-13.2-11.7-27.7-22.1-43-31c-15.4-8.9-31.7-16.3-48.6-22l42.8-126
						c25.1,8.6,49.4,19.5,72.4,32.8c23,13.3,44.7,28.9,64.7,46.7L919.6,6292.3z"/>
				</g>
				<g>
					<path class="st4" d="M828.1,6239.3c-8.4-2.9-17-5.3-25.6-7.3c-2.2-0.5-4.3-1-6.5-1.4c-2.2-0.4-4.3-0.9-6.5-1.3l-3.3-0.6
						c-0.5-0.1-1.1-0.2-1.6-0.3l-1.4-0.2c-1.9-0.2-3.7-0.6-5.6-0.7c-15-1.6-30-0.9-45.6,2.3l-26.7-130.3c13.9-2.9,28.3-4.7,42.8-5.5
						c14.6-0.8,29.3-0.4,43.9,1.2c3.7,0.3,7.3,0.9,10.9,1.4l2.7,0.4c0.9,0.1,1.7,0.3,2.5,0.4l4.9,0.9c3.3,0.5,6.6,1.2,9.8,1.9
						c3.3,0.6,6.5,1.4,9.8,2.1c13,3,25.7,6.7,38.3,10.9L828.1,6239.3z"/>
				</g>
				<g>
					<path class="st5" d="M732,6229.9c-15.6,3.2-31.9,8.9-48.6,16.5c-16.7,7.6-33.7,17.2-51,27.9l-70-113.1
						c20.4-12.6,42-24.9,65.7-35.7c23.6-10.8,49.4-20.1,77.2-25.8L732,6229.9z"/>
				</g>
				<g>
					<path class="st6" d="M632.3,6274.3c-17.3,10.7-34.9,22.6-53,34.9c-18.1,12.4-36.6,25.2-56,38l-73.1-111.1
						c17.6-11.6,35.5-24,54-36.7c18.5-12.7,37.7-25.7,58.1-38.3L632.3,6274.3z"/>
				</g>
				<g>
					<path class="st0" d="M523.4,6347.2c-19.4,12.8-39.7,25.5-61.5,37.4c-21.7,11.9-45,22.9-70,31.8l-44.6-125.3
						c16.7-6,33.7-13.9,50.9-23.3c17.2-9.4,34.5-20.1,52.1-31.7L523.4,6347.2z"/>
				</g>
				<g>
					<path class="st2" d="M391.8,6416.5c-12.5,4.5-25.5,8.4-38.8,11.5c-13.6,3.1-28,5.7-43.6,6.8c-15.5,1.1-32.4,0.6-49.8-2.6
						c-4.4-0.9-8.7-1.7-13-2.9l-6.5-1.8c-2.2-0.6-4.3-1.4-6.4-2.2c-2.1-0.8-4.3-1.5-6.4-2.3l-6.2-2.7c-4.2-1.7-8.1-3.9-12.1-5.9
						l63.2-117c3.8,2,7.3,3.3,11.8,4.1c4.4,0.8,9.9,1.2,16.4,0.7c6.5-0.5,14-1.7,22-3.6c8.2-2,16.5-4.4,24.9-7.4L391.8,6416.5z"/>
				</g>
				<g>
					<path class="st3" d="M208.9,6414.3c-2-1-3.9-2.2-5.8-3.3l-5.7-3.4c-1.8-1.2-3.6-2.4-5.4-3.6l-2.7-1.8c-0.9-0.6-1.8-1.2-2.6-1.9
						c-6.7-5.1-13-10.3-18.7-15.7c-11.4-10.8-20.8-21.8-29.1-32.5c-8.3-10.7-15.5-21.2-22.2-31.4c-6.7-10.2-12.8-20.1-18.8-29.7
						l113.3-69.8c5.7,9.2,11.3,18.1,16.7,26.5c5.5,8.4,10.9,16.1,16.2,23c5.3,6.8,10.4,12.6,15.1,17.1c4.7,4.4,8.9,7.6,12.7,9.5
						L208.9,6414.3z"/>
				</g>
				<g>
					<path class="st4" d="M98.1,6291l-17.3-28.2l-4.4-7.2l-4.9-8.1c-3.2-5.5-6.4-11-9.4-16.7c-6.1-11.3-11.9-23-17.2-35.2
						c-5.2-12.2-10.1-24.6-14.1-37.7l126.9-39.8c2.5,8.2,5.7,16.4,9.2,24.6c3.5,8.2,7.6,16.4,12,24.6c2.2,4.1,4.6,8.2,6.9,12.3
						l3.7,6.1l2,3.3l2.3,3.6l17.5,28.5L98.1,6291z"/>
				</g>
				<g>
					<path class="st5" d="M30.8,6158c-4-13-7.5-26.3-10-40c-2.5-13.7-4.3-27.6-4.9-41.7l-0.3-5.3l-0.1-5.3c0-3.5-0.1-7.1-0.1-10.6
						c0.3-7.1,0.4-14.1,1.1-21.2l0.5-5.3l0.2-2.6l0.3-2.6l1.4-10.5c0.1-0.9,0.2-1.7,0.4-2.6l0.5-2.6l1-5.2l1-5.2
						c0.2-0.9,0.3-1.7,0.5-2.6l0.6-2.5l129.8,29l-0.4,1.5c-0.1,0.5-0.2,1-0.3,1.5l-0.6,3l-0.6,3l-0.3,1.5c-0.1,0.5-0.1,1-0.2,1.5
						l-0.8,6l-0.2,1.5l-0.1,1.5l-0.3,3c-0.5,4-0.5,8-0.7,12c0,2,0,4,0,6l0,3l0.2,3c0.3,8.1,1.4,16.2,2.9,24.3
						c1.4,8.1,3.6,16.3,6.1,24.5L30.8,6158z"/>
				</g>
				<g>
					<path class="st6" d="M23,5992.3c6.2-27.3,15.7-53.3,27.5-77.3c11.9-24,25.9-46.2,41.1-66.7l107,79.1
						c-11.2,15.1-20.9,30.6-28.6,46.3c-0.5,1-1,2-1.4,3l-1.3,3c-0.9,2-1.9,3.9-2.7,5.9l-2.4,6l-1.2,3c-0.4,1-0.7,2-1,3l-2.1,6
						c-0.4,1-0.6,2-0.9,3l-0.9,3l-0.9,3l-0.4,1.5l-0.3,1.5l-1.4,6L23,5992.3z"/>
				</g>
				<g>
					<path class="st5" d="M956.3,6706.5c1.7-3.5,3.6-6.7,5.3-10.6l1.3-2.8c0.2-0.5,0.4-0.9,0.6-1.4l0.6-1.5l2.5-6
						c3.1-8.3,6.2-16.8,8.7-25.9c2.7-9,5-18.4,7.2-27.9c0.5-2.4,1-4.8,1.5-7.2c0.5-2.4,1-4.8,1.5-7.2l1.3-7.3l0.7-3.7l0.6-3.7
						l131.3,21.6c-3.9,24.1-9.2,48.3-16.3,72.8c-3.5,12.2-7.8,24.6-12.5,37l-3.8,9.4l-1,2.3c-0.3,0.8-0.7,1.6-1.1,2.4l-2.2,4.8
						c-2.8,6.3-6.2,12.8-9.6,19.1L956.3,6706.5z"/>
				</g>
				<g>
					<path class="st6" d="M988.1,6601.3c3.2-19.7,5.5-39.7,6.9-59.8c1.4-20.1,1.9-40.3,1.4-60.3l133-3.1c0.6,24.4,0,48.5-1.7,72.6
						c-1.7,24.1-4.4,48.1-8.4,72.2L988.1,6601.3z"/>
				</g>
				<g>
					<path class="st5" d="M1007.8,1351.3c9.3-31.6,10.6-66.7,3.9-99.9l130.4-26.2l1.9,10.1l1.5,10.2c0.6,3.4,0.9,6.8,1.3,10.2
						l0.6,5.1c0.2,1.7,0.3,3.4,0.4,5.1c1.2,13.6,1.4,27.4,0.8,41.1l-0.2,5.1l-0.1,2.6l-0.2,2.6l-0.8,10.3
						c-0.8,6.8-1.5,13.7-2.7,20.5l-0.8,5.1c-0.3,1.7-0.6,3.4-1,5.1c-0.7,3.4-1.3,6.8-2.1,10.2l-2.5,10.1c-0.8,3.4-1.9,6.7-2.8,10.1
						L1007.8,1351.3z"/>
				</g>
				<g>
					<path class="st1" d="M958.6,1427.2c6.5-5.2,12.3-10.5,17.3-15.8c2.4-2.7,4.8-5.3,6.7-7.9c1.1-1.3,1.9-2.6,2.9-3.9
						c0.5-0.6,0.8-1.3,1.3-1.9c0.4-0.7,0.8-1.2,1.4-2.1c8.3-13.6,15-28.5,19.6-44.3l127.7,37.4c-7.8,26.7-19.2,52.7-34.1,76.9
						c-0.8,1.4-2,3.2-3.1,4.9c-1.1,1.7-2.2,3.4-3.3,5c-2.3,3.2-4.6,6.5-7,9.5c-4.7,6.2-9.7,11.9-14.8,17.4
						c-10.2,10.9-20.9,20.4-31.7,29.1L958.6,1427.2z"/>
				</g>
				<g>
					<path class="st6" d="M1011.7,1251.4c-1.7-8.3-3.8-16.5-6.4-24.4c-2.7-7.9-5.7-15.7-9.2-23.2c-3.6-7.4-7.6-14.6-11.9-21.5
						c-4.4-6.8-9.3-13.3-14.4-19.4l101-86.6c9.2,10.8,17.7,22.1,25.3,33.9c7.6,11.8,14.3,24.1,20.4,36.6c5.9,12.6,11,25.5,15.4,38.5
						c4.3,13.1,7.7,26.4,10.5,39.9L1011.7,1251.4z"/>
				</g>
				<g>
					<path class="st0" d="M969.7,1163l-3.9-4.5l-4.2-4.4c-1.4-1.5-2.9-2.8-4.3-4.2l-2.2-2.1c-0.7-0.7-1.5-1.3-2.3-2
						c-6-5.4-12.4-10.2-19-14.6l-2.5-1.6c-0.8-0.6-1.7-1.1-2.5-1.6l-5.1-3c-1.7-1-3.5-1.8-5.3-2.8c-0.9-0.5-1.7-1-2.6-1.4l-2.7-1.3
						l-2.7-1.3c-0.4-0.2-0.9-0.4-1.3-0.6l-1.4-0.6l-5.5-2.3l-5.6-2c-0.9-0.3-1.9-0.7-2.8-1l-2.9-0.9l39.5-127l5.1,1.6
						c1.7,0.5,3.4,1.2,5,1.7c3.3,1.2,6.7,2.4,10,3.7l9.9,4.1l2.5,1c0.8,0.4,1.6,0.7,2.4,1.1l4.8,2.3l4.8,2.3
						c1.6,0.8,3.2,1.6,4.7,2.4c3.1,1.7,6.3,3.3,9.4,5l9.2,5.4c1.5,0.9,3,1.9,4.5,2.8l4.5,2.9c11.8,7.9,23.2,16.4,33.7,25.9
						c1.3,1.2,2.7,2.3,4,3.5l3.8,3.6c2.5,2.4,5.2,4.8,7.6,7.4l7.3,7.6l7,8L969.7,1163z"/>
				</g>
				<g>
					<path class="st2" d="M890.8,1110.9l-2.9-0.9l-1.4-0.5l-1.5-0.4l-5.8-1.5c-2-0.5-3.9-0.8-5.9-1.2l-3-0.6l-3-0.5
						c-8-1.5-16.2-2-24.5-2.4l-6.2-0.1l-1.6,0l-1.6,0.1l-3.2,0.1l-3.2,0.1c-0.5,0-1,0-1.6,0l-1.6,0.1l-6.4,0.5l-1.6,0.1l-1.6,0.2
						l-3.2,0.4l-3.2,0.4c-1.1,0.1-2.1,0.2-3.2,0.4l-6.4,1c-1.1,0.2-2.1,0.3-3.2,0.5l-3.2,0.7l-26-130.5l4.9-1c1.6-0.3,3.3-0.6,5-0.9
						l10-1.6c1.7-0.3,3.3-0.5,5-0.7l5.1-0.6l5.1-0.6l2.5-0.3l2.6-0.2l10.2-0.7l2.6-0.2l2.6-0.1l5.2-0.1l5.2-0.1l2.6-0.1l2.6,0
						l10.4,0.2c13.9,0.6,27.8,1.7,41.7,4.1l5.2,0.8l5.2,1.1c3.5,0.7,6.9,1.4,10.3,2.2l10.3,2.6l2.6,0.7l2.5,0.8l5.1,1.6
						L890.8,1110.9z"/>
				</g>
				<g>
					<path class="st3" d="M792.1,1107.3c-17.2,3.5-34.5,8.7-51.6,15.6c-17.1,7-34.1,15.5-50.7,25.3l-67.5-114.6
						c21.6-12.7,44.4-24.2,68.3-34c24-9.7,49.2-17.5,75.5-22.8L792.1,1107.3z"/>
				</g>
				<g>
					<path class="st0" d="M778.2,2979.2c1.2,0,2.3,0,3.5,0l3.4,0l3.4,0c1.1,0,2.3,0,3.4-0.1c4.5-0.2,9-0.3,13.4-0.8
						c8.9-0.6,17.4-1.9,25.8-3.4c4.1-0.9,8.3-1.6,12.3-2.8c2-0.5,4.1-1,6.1-1.6l5.9-1.8c1-0.3,2-0.6,3-0.9l2.9-1.1l5.8-2.1l5.6-2.4
						l2.8-1.2l2.7-1.3l56.8,120.3l-4.7,2.3l-4.8,2.1l-9.7,4.1c-3.3,1.2-6.6,2.4-9.8,3.6l-4.9,1.8c-1.6,0.6-3.3,1.1-5,1.6l-10,3.1
						c-3.3,1-6.7,1.8-10,2.6c-6.7,1.8-13.4,3.1-20.1,4.5c-13.4,2.4-26.8,4.3-40.1,5.3c-6.7,0.6-13.2,0.8-19.8,1.1
						c-1.6,0.1-3.3,0.1-4.9,0.1l-4.9,0l-4.9,0c-1.6,0-3.3,0-4.9,0L778.2,2979.2z"/>
				</g>
				<g>
					<path class="st2" d="M878.3,2959.8c14.7-7,28.5-15.7,41.4-26.7c12.9-10.9,25-23.7,36.3-38l104.7,82
						c-16.1,20.6-34.5,40.3-55.5,57.9c-20.9,17.7-44.7,33-70.1,45.1L878.3,2959.8z"/>
				</g>
				<g>
					<path class="st3" d="M955.9,2895.1c1.4-1.8,2.8-3.5,4.2-5.4l4-5.6c1.3-1.9,2.7-3.7,4-5.6l3.9-5.9l3.9-5.9l3.3-5.5
						c1.2-1.8,2.1-3.7,3.2-5.6l1.6-2.8l1.5-2.9c2-3.8,3.8-7.7,5.6-11.6l2.5-5.9c0.9-2,1.6-4,2.4-6c3.1-8.1,5.8-16.3,7.9-24.6
						l128.7,33.5c-3.4,13.1-7.6,26-12.4,38.7c-1.3,3.1-2.4,6.3-3.8,9.4l-4,9.3c-2.9,6.2-5.7,12.3-8.9,18.3l-2.3,4.5l-2.5,4.5
						c-1.7,3-3.3,6-5.1,8.9l-5.3,8.7l-5.3,8l-5.3,8c-1.8,2.6-3.7,5.3-5.6,7.9l-5.7,7.9c-1.9,2.6-4,5.2-6,7.7L955.9,2895.1z"/>
				</g>
				<g>
					<g>
						<path class="st0" d="M483.8,1563.3c22.4-3.7,44.6-7,66.3-10.4c10.9-1.7,21.7-3.4,32.3-5.1c10.7-1.7,21.5-3.5,32.1-5.4
							l22.7,131.1c-11.2,1.9-22.3,3.8-33.5,5.6c-11.2,1.8-22.3,3.6-33.4,5.3c-22.1,3.4-43.8,6.7-65.1,10.2L483.8,1563.3z"/>
					</g>
					<g>
						<path class="st2" d="M614.6,1542.4c42.6-7.4,84.6-15.7,125.8-25.8l31.7,129.2c-45,11.1-90,20-134.8,27.7L614.6,1542.4z"/>
					</g>
					<g>
						<path class="st3" d="M740.4,1516.6c41-10.1,81.3-21.9,119-36.4l48,124.1c-22.5,8.7-45.1,16.3-67.6,23.1
							c-22.5,6.8-45.1,12.9-67.6,18.4L740.4,1516.6z"/>
					</g>
					<g>
						<path class="st4" d="M859.3,1480.2c18.8-7.3,37-15.3,53.8-24.1c16.8-8.8,32.5-18.5,45.5-28.8l82.7,104.2
							c-10.9,8.6-21.9,16.3-33,23.3c-11.1,7-22.3,13.4-33.5,19.2c-22.4,11.7-45,21.6-67.5,30.3L859.3,1480.2z"/>
					</g>
					<g>
						<path class="st0" d="M870.8,2552.5c-17.8-9.5-36.2-18.4-54.9-26.7c-18.8-8.2-37.9-15.8-57.2-22.6l44.1-125.5
							c22.5,7.9,44.6,16.7,66.5,26.2c21.8,9.6,43.4,20,64.7,31.4L870.8,2552.5z"/>
					</g>
					<g>
						<path class="st2" d="M758.7,2503.3c-19.3-6.8-38.8-12.8-58-17.7l-7.2-1.8c-1.2-0.3-2.4-0.6-3.6-0.9l-3.6-0.8
							c-2.4-0.5-4.8-1.1-7.1-1.6l-7-1.4c-2.4-0.5-4.6-0.8-6.9-1.2c-2.3-0.4-4.6-0.8-6.8-1.1l-6.8-1l-8-1l16.4-132l8.5,1.1l9.7,1.4
							c3.3,0.4,6.4,1,9.6,1.6c3.2,0.6,6.4,1.1,9.4,1.7l9.3,1.8c3.1,0.6,6.1,1.3,9.1,2l4.6,1l4.5,1.1l9,2.2
							c23.7,6.1,46.6,13.2,69.2,21.1L758.7,2503.3z"/>
					</g>
					<g>
						<path class="st3" d="M643.6,2474.8c-21.6-2.7-44.6-5.3-68.6-9.3c-12-2-24.3-4.3-36.9-7.2c-12.6-2.9-25.5-6.5-38.8-11.1
							l43.8-125.6c15.4,5.4,33.8,9.4,53.5,12.7c19.8,3.3,40.9,5.7,63.3,8.5L643.6,2474.8z"/>
					</g>
					<g>
						<path class="st4" d="M499.4,2447.2c-13.3-4.6-26.9-10.3-40.7-18c-13.8-7.6-27.8-17.2-40.7-29.7l-4.8-4.8
							c-1.6-1.6-3.2-3.2-4.6-5c-1.5-1.7-3-3.5-4.5-5.3c-1.5-1.7-2.9-3.6-4.3-5.5c-1.4-1.9-2.7-3.8-4.1-5.7c-1.4-1.9-2.5-3.9-3.8-5.9
							c-1.2-2-2.4-4-3.6-6c-1.1-2.1-2.2-4.1-3.2-6.2c-1-2.1-2.2-4.1-3.1-6.3c-0.9-2.1-1.8-4.2-2.7-6.4l-1.3-3.2
							c-0.2-0.5-0.4-1.1-0.6-1.6l-0.6-1.6l-2.2-6.4c-1.4-4.2-2.6-8.8-3.7-13.2l-1.4-6.4c-0.4-2.1-0.7-4.1-1.1-6.1l131.3-21.1
							l0.4,2.1c0.1,0.6,0.3,1.1,0.4,1.7c0.3,1,0.4,1.8,0.8,2.8c0.2,0.5,0.3,1,0.5,1.5l0.1,0.4c0,0.1,0.1,0.2,0.2,0.3l0.3,0.6
							c0.2,0.4,0.4,0.9,0.5,1.3c0.2,0.4,0.4,0.8,0.6,1.2c1.6,3.1,3.6,5.8,6.6,8.8c3,3,7.4,6.1,13,9.2c5.6,3.1,12.4,6.1,20.1,8.7
							L499.4,2447.2z"/>
					</g>
					<g>
						<path class="st5" d="M368.5,2304.1c-1.3-8-2-15.3-2.5-21.8c-0.5-6.5-0.8-12.1-1.2-17c-0.4-4.9-0.7-9.1-1.2-12.3
							c-0.1-0.9-0.2-1.5-0.4-2.3l-0.2-1.1l-0.2-0.9c-0.2-1.3-0.5-2.1-0.7-3.1c-1.2-4.3-2.8-7.6-4.9-10.8c-2.2-3.2-5.1-6.5-9.6-10.1
							l84.3-102.9c6.4,5.2,12.7,11,18.6,17.5c6,6.4,11.7,13.5,16.8,21.1c10.3,15.1,18.1,32.3,22.8,49.3c1.2,4.3,2.3,8.9,3.1,13
							l0.6,3.2l0.5,3c0.3,2,0.7,4.1,0.9,5.9c1.1,7.8,1.6,14.6,2.1,20.8c0.4,6.1,0.8,11.6,1.1,16.1c0.4,4.5,0.8,8.3,1.3,11.3
							L368.5,2304.1z"/>
					</g>
					<g>
						<path class="st6" d="M347.7,2224.7c-4.4-3.6-10.2-7.4-17.2-11.2c-6.9-3.8-15-7.4-23.8-11c-17.6-7.2-37.9-14-59.6-21.8
							l44.8-125.3c20,7.2,41.8,14.4,65.3,24c11.7,4.8,23.9,10.3,36.5,17.1c12.5,6.8,25.5,14.9,38.3,25.3L347.7,2224.7z"/>
					</g>
					<g>
						<path class="st0" d="M247.1,2180.7c-21.7-7.8-45.1-16.5-69.5-29c-6.1-3.1-12.2-6.5-18.4-10.2c-6.2-3.7-12.3-7.8-18.5-12.2
							c-3.1-2.2-6.1-4.5-9.1-6.9c-3-2.5-6.1-5-9-7.6c-6-5.2-11.6-10.9-17-16.8l98.6-89.3c2.1,2.3,4.3,4.5,6.7,6.6
							c1.1,1.1,2.4,2,3.6,3.1c1.3,1,2.7,2.1,4.1,3.1c2.9,2.1,6,4.1,9.3,6.1c3.3,2,6.9,4,10.7,5.9c15.1,7.8,33.3,14.9,53.3,22
							L247.1,2180.7z"/>
					</g>
					<g>
						<path class="st2" d="M105.6,2097.9c-5.4-5.9-10.4-12.2-15.1-18.6c-4.6-6.5-9-13.2-12.9-20.1c-3.9-6.9-7.5-14-10.5-21.2
							c-3.1-7.2-5.9-14.5-8.2-21.8c-1.2-3.7-2.2-7.3-3.3-11l-1.4-5.5c-0.5-1.8-0.9-3.7-1.3-5.5c-1.7-7.4-2.9-14.8-3.8-22.1
							c-1-7.4-1.5-14.7-1.9-22c-0.3-7.3-0.4-14.5-0.1-21.7l133,4c-0.5,15.7,1.4,30.5,5.6,43.3c4.2,12.9,10.3,23.8,18.6,33
							L105.6,2097.9z"/>
					</g>
					<g>
						<path class="st3" d="M47.1,1928.3c0.9-28.7,5.8-56.3,13.8-82.7c2-6.6,4.2-13.1,6.5-19.5c2.4-6.4,4.9-12.8,7.7-19
							c5.4-12.5,11.7-24.7,18.5-36.5l114.9,67c-8.5,14.7-15.5,30.5-20.3,46.6c-4.9,16.1-7.7,32.5-8.2,48.1L47.1,1928.3z"/>
					</g>
					<g>
						<path class="st4" d="M93.6,1770.6c6.9-11.8,14.5-23.2,22.8-34.3c8.3-11,17.3-21.6,27.1-31.6c4.9-5,10-9.9,15.2-14.6
							c5.3-4.7,10.7-9.3,16.4-13.7c2.9-2.3,5.4-4.1,8.1-6.1c2.7-1.9,5.3-3.9,8-5.8c5.4-3.7,10.8-7.4,16.4-10.8l71.2,112.4
							c-3.9,2.4-7.6,5-11.4,7.5c-1.9,1.3-3.7,2.7-5.5,4c-1.8,1.3-3.8,2.7-5.2,3.9c-3.1,2.4-6.1,5-9.1,7.6c-3,2.7-5.9,5.5-8.8,8.4
							c-5.7,5.8-11.1,12.2-16.2,18.9c-5,6.7-9.7,13.8-14,21.1L93.6,1770.6z"/>
					</g>
					<g>
						<path class="st5" d="M207.5,1653.8c11-7.1,22.3-13.4,33.7-19.4l8.6-4.4c2.9-1.5,5.8-2.8,8.6-4.2c5.8-2.8,11.6-5.3,17.4-7.8
							c11.6-4.9,23.3-9.6,35-13.6c5.9-2.1,11.7-4,17.6-5.9c2.9-0.9,5.8-1.8,8.8-2.7c2.9-0.9,5.9-1.8,8.8-2.6l37.4,127.7
							c-2.4,0.7-4.8,1.4-7.2,2.2l-7.1,2.2c-4.7,1.6-9.4,3-13.9,4.7c-9.2,3.2-18.2,6.8-27,10.5c-4.3,1.9-8.7,3.8-12.9,5.8
							c-2.1,1-4.3,2-6.4,3.1l-6.2,3.2c-8.2,4.3-16.3,8.8-23.9,13.8L207.5,1653.8z"/>
					</g>
					<g>
						<path class="st6" d="M345.9,1593.1l8.8-2.5l8.7-2.4c5.8-1.6,11.6-3,17.5-4.5c11.6-2.8,23.2-5.5,34.7-7.8
							c23-4.8,45.8-8.8,68.2-12.5l21.5,131.3c-21.3,3.5-42.2,7.2-62.6,11.5c-10.2,2.1-20.2,4.4-30.2,6.8c-4.9,1.3-9.9,2.4-14.7,3.8
							l-7.3,2l-7.2,2.1L345.9,1593.1z"/>
					</g>
					<g>
						<path class="st4" d="M1004,2801.7c8.7-33.3,9.7-68.5,2.7-100.9l130-28.3c5.8,27.1,8.4,54.8,7.5,82.1l-0.1,5.1
							c-0.1,1.7-0.2,3.4-0.3,5.1l-0.3,5.1c-0.1,1.7-0.2,3.4-0.4,5.1l-1,10.2l-1.3,10.1c-2,13.5-4.6,26.8-8,39.9L1004,2801.7z"/>
					</g>
					<g>
						<path class="st5" d="M1006.7,2700.9c-1.8-8.1-4.1-16-6.8-23.7c-1.3-3.9-2.9-7.6-4.5-11.4l-2.5-5.5c-0.8-1.8-1.8-3.6-2.7-5.4
							c-3.7-7.1-7.9-14-12.5-20.6l-3.1-4.1c-0.9-1.4-2.3-2.8-3.4-4.2c-2.2-2.8-5.2-5.7-7.9-8.6l94.5-93.6
							c4.9,5.2,9.8,10.1,14.6,15.9c2.4,2.8,4.8,5.5,7.1,8.7l3.5,4.6l1.7,2.3c0.6,0.8,1.2,1.6,1.7,2.3c8.2,11.6,15.5,23.7,22,36.2
							c1.6,3.2,3.2,6.3,4.7,9.5l4.4,9.6c2.7,6.5,5.4,13,7.7,19.6c4.7,13.2,8.6,26.6,11.5,40.2L1006.7,2700.9z"/>
					</g>
					<g>
						<path class="st6" d="M963.3,2617.4l-4.5-4.4c-0.8-0.7-1.5-1.5-2.3-2.2l-2.5-2.2c-1.7-1.4-3.2-2.9-4.9-4.4l-5.2-4.3
							c-0.9-0.7-1.7-1.5-2.6-2.2l-2.8-2.1l-5.5-4.2l-5.8-4.2l-2.9-2.1l-3-2c-15.8-10.9-32.9-21.1-50.6-30.7l63.1-117.1
							c21.3,11.5,42.3,24.1,63,38.3l3.9,2.7l3.9,2.8l7.7,5.6l7.7,5.9l3.8,3c1.3,1,2.5,2.1,3.8,3.1l7.6,6.3c2.5,2.1,5,4.4,7.5,6.6
							l3.8,3.4c1.3,1.1,2.5,2.4,3.7,3.5l7.4,7.2L963.3,2617.4z"/>
					</g>
				</g>
				<g>
					<path class="st4" d="M689.7,1148.2l-6.2,3.7l-3.1,1.9l-0.8,0.5l-0.3,0.2l-0.2,0.1l-0.7,0.4c-0.2,0.2-0.4,0.3-0.7,0.4l-0.9,0.7
						l-0.9,0.6c-0.3,0.2-0.7,0.5-1,0.8l-1.1,0.8c-0.4,0.3-0.7,0.5-1.1,0.9l-2.4,1.9l-2.6,2.1l-1.3,1.1l-1.4,1.2l-2.8,2.4l-2.9,2.5
						l-12.2,10.7c-8.4,7.4-17.4,15.2-26.8,23c-9.5,7.8-19.4,15.6-29.9,23.1L513,1119.1c7.5-5.4,15.1-11.2,22.7-17.5
						c7.7-6.3,15.4-13.1,23.6-20.3l12.8-11.2l3.4-2.9l3.5-3l1.8-1.5l1.9-1.6l3.8-3.2l4.1-3.3c0.7-0.5,1.4-1.1,2.2-1.7l2.2-1.7
						c0.8-0.6,1.4-1.1,2.3-1.7l2.5-1.8l2.5-1.8c0.9-0.6,1.8-1.2,2.8-1.8l2.8-1.8l0.7-0.5l0.5-0.3l1-0.6l4-2.4l8-4.8L689.7,1148.2z"
						/>
				</g>
				<g>
					<path class="st5" d="M590.5,1227.3c-21,15-44.3,29-69.8,40.1c-12.7,5.5-26,10.3-39.6,14.2c-6.8,1.9-13.7,3.6-20.7,5.1l-2.6,0.6
						c-0.9,0.2-1.7,0.4-2.7,0.5l-5.7,1c-1.9,0.3-3.7,0.6-5.6,0.8l-2.8,0.4l-2.7,0.3l-15.7-132.1l1.4-0.2l1.3-0.2
						c0.9-0.1,1.8-0.2,2.6-0.4l2.5-0.4c0.4-0.1,0.9-0.2,1.4-0.3l1.5-0.3c3.9-0.8,7.8-1.8,11.6-2.8c7.7-2.1,15.3-4.9,22.9-8.2
						c15.2-6.6,30.2-15.4,45.3-26.2L590.5,1227.3z"/>
				</g>
				<g>
					<path class="st6" d="M438.2,1290.2c-14.7,1.8-28.7,2.2-42.5,1.9c-13.8-0.3-27.2-1.4-40.4-3.2c-26.5-3.5-52.2-9.7-77.3-18.2
						l42.8-125.9c16.9,5.7,34.5,9.9,52,12.2c8.7,1.1,17.4,1.9,25.8,2c8.4,0.2,16.6-0.1,23.9-1L438.2,1290.2z"/>
				</g>
				<g>
					<path class="st0" d="M278,1270.8c-25.1-8.5-49.4-19.5-72.7-33.2c-23.3-13.7-45.4-30.2-65.4-49.6l92.6-95.5
						c23.6,22.9,54.6,40.9,88.4,52.4L278,1270.8z"/>
				</g>
				<g>
					<path class="st2" d="M139.8,1188c-20-19.4-37.8-41.7-52.1-66.1c-14.4-24.4-25.2-50.9-32.4-77.9l128.6-34.1
						c4.2,15.9,10.4,30.8,18.5,44.6c8.1,13.8,18.1,26.5,30,38L139.8,1188z"/>
				</g>
				<g>
					<path class="st3" d="M55.3,1044c-3.6-13.5-6.2-27.1-8.1-40.6l-0.7-5.1l-0.5-5.1l-0.5-5.1l-0.3-2.5l-0.2-2.5l-0.7-10.1L44,962.9
						c-0.2-3.4-0.1-6.7-0.1-10l0-5c0-1.7,0.1-3.3,0.1-5c0.1-3.3,0.2-6.6,0.3-9.9l0.6-9.8l0.2-2.5c0.1-0.8,0.2-1.7,0.2-2.6l0.5-5.2
						c0.2-1.7,0.3-3.4,0.5-5.2l0.7-5.2l0.7-5.2l0.9-5.2c0.6-3.5,1.2-6.9,1.9-10.4L181,908.3c-0.4,1.9-0.8,3.9-1.1,5.9l-0.5,3
						l-0.4,3.1l-0.4,3.1c-0.1,1-0.2,2.1-0.3,3.1l-0.3,3.1c0,0.5-0.1,1-0.2,1.6l-0.1,1.7l-0.4,6.8c-0.1,2.2-0.1,4.5-0.2,6.7
						c0,1.1-0.1,2.2-0.1,3.3l0,3.3c0,2.2-0.1,4.4,0.1,6.6l0.2,6.6l0.4,6.5l0.1,1.6l0.2,1.6l0.3,3.2l0.3,3.2l0.4,3.1
						c1.2,8.4,2.7,16.6,4.9,24.6L55.3,1044z"/>
				</g>
				<g>
					<path class="st4" d="M50.6,881.8c2.8-13.9,6.7-28,11.9-41.8c5.1-13.8,11.5-27.5,19.2-40.5c7.6-13,16.5-25.5,26.4-36.9
						c9.9-11.5,20.8-21.9,32.3-31.2l83.8,103.3c-11.5,9.3-20.6,19.9-27.8,32.1c-7.1,12.1-12.3,26-15.4,41.6L50.6,881.8z"/>
				</g>
				<g>
					<path class="st5" d="M140.3,731.4c23-18.6,48.2-32.7,73.6-43.3c25.4-10.5,51-17.7,76.4-22.7l25.7,130.5
						c-18.2,3.6-35.4,8.5-51,15c-15.6,6.5-29.4,14.5-40.8,23.8L140.3,731.4z"/>
				</g>
				<g>
					<path class="st6" d="M290.2,665.4c25.3-5,50.4-7.8,75.2-9.1c24.8-1.3,49.3-1.2,73.5,0l-6.8,132.8c-20.1-1-40-1.1-59.5-0.1
						c-19.5,1-38.6,3.2-56.7,6.8L290.2,665.4z"/>
				</g>
				<g>
					<path class="st0" d="M439,656.3c24.2,1.2,48.2,3.6,71.9,6.9c11.9,1.6,23.7,3.5,35.4,5.6l32.9,6.1l-23.7,130.9l-32.5-6
						c-10.1-1.8-20.2-3.4-30.3-4.8c-20.2-2.8-40.4-4.8-60.5-5.8L439,656.3z"/>
				</g>
				<g>
					<path class="st2" d="M579.1,674.8c42.4,7.7,83.7,14,123.4,16l-6.8,132.9c-48.9-2.5-95.5-9.9-140.3-17.9L579.1,674.8z"/>
				</g>
				<g>
					<path class="st3" d="M702.5,690.8c19.8,1,39.3,1,58.1-0.5l7.1-0.5l7-0.8l7-0.8c2.3-0.3,4.6-0.7,6.8-1.1l6.8-1.1
						c1.1-0.2,2.3-0.4,3.4-0.6l3.3-0.7c4.3-0.9,9.4-1.8,12.3-2.7l33.7,128.7c-7.8,2.2-13.6,3.2-20.1,4.5l-4.8,1
						c-1.6,0.3-3.2,0.7-4.8,0.9l-9.6,1.5c-3.2,0.5-6.4,1-9.6,1.5l-9.6,1.1l-9.6,1.1l-9.5,0.7c-25.4,1.9-50.4,1.9-74.8,0.6
						L702.5,690.8z"/>
				</g>
				<g>
					<path class="st4" d="M814.3,682.1l2.5-0.7l1.3-0.3l1.2-0.4c1.6-0.6,3.3-1.1,5-1.7c0.8-0.2,1.6-0.6,2.4-1l2.4-1l2.4-1
						c0.8-0.4,1.6-0.8,2.4-1.2c1.6-0.8,3.2-1.5,4.7-2.3c1.5-0.9,3.1-1.8,4.6-2.6l1.2-0.6c0.4-0.2,0.7-0.5,1.1-0.7l2.2-1.5
						c1.5-1,3-1.9,4.5-3c1.5-1.1,2.9-2.2,4.4-3.2l4.3-3.6c0.7-0.6,1.5-1.1,2.1-1.8l2.1-2l2.1-1.9c0.7-0.6,1.4-1.3,2.1-2l4-4.2
						c0.3-0.4,0.7-0.7,1-1.1l1-1.1l1.9-2.3c2.7-2.9,5.1-6.2,7.6-9.4l106.3,79.9c-4.4,5.5-8.6,11.1-13.3,16.5l-3.5,4l-1.8,2
						c-0.6,0.7-1.2,1.3-1.9,2l-7.5,7.8c-1.2,1.3-2.6,2.5-3.9,3.8l-4,3.7l-4,3.7c-1.3,1.2-2.8,2.4-4.2,3.6c-2.8,2.4-5.6,4.7-8.5,7
						l-9,6.6c-2.9,2.3-6.1,4.3-9.3,6.3l-4.7,3.1c-0.8,0.5-1.6,1-2.4,1.5l-2.5,1.4c-3.3,1.9-6.6,3.7-9.9,5.6c-3.3,1.8-6.8,3.4-10.2,5
						c-1.7,0.8-3.4,1.7-5.1,2.4l-5.3,2.2l-5.3,2.2c-1.8,0.7-3.5,1.5-5.3,2c-3.6,1.2-7.2,2.4-10.8,3.6l-2.7,0.9l-2.7,0.7l-5.5,1.5
						L814.3,682.1z"/>
				</g>
				<g>
					<path class="st5" d="M884.9,631.7c1.2-1.7,2.4-3.4,3.6-5l1.8-2.5l1.7-2.7l3.4-5.3l3.2-5.5c0.5-0.9,1.1-1.8,1.6-2.8l1.5-2.9
						l3.1-5.8l2.9-6l1.4-3l1.3-3.1l2.7-6.1l2.5-6.3l1.3-3.2c0.4-1.1,0.8-2.1,1.2-3.2l2.3-6.5c0.8-2.2,1.4-4.4,2.1-6.6
						c0.7-2.2,1.5-4.4,2-6.6c1.2-4.5,2.6-8.9,3.6-13.5l129.1,32.2c-1.5,6.2-3.3,12.4-5,18.6c-0.8,3.1-1.9,6.2-2.8,9.3
						c-1,3.1-1.9,6.2-3,9.2l-3.3,9.2c-0.6,1.5-1.1,3.1-1.7,4.6l-1.8,4.6l-3.6,9.2l-4,9.1l-2,4.5l-2.2,4.5l-4.4,9
						c-1.5,3-3.1,6-4.7,8.9l-2.4,4.5c-0.8,1.5-1.7,2.9-2.6,4.4l-5.2,8.8l-5.6,8.7l-2.8,4.3l-3,4.3c-2,2.8-4,5.7-6.1,8.5L884.9,631.7
						z"/>
				</g>
				<g>
					<path class="st6" d="M928.2,535.2c9.1-36.3,12.8-75.2,11.7-113.8l133-4c0.7,25-0.1,50.1-2.6,75.1c-2.5,25-6.8,50.1-13,74.9
						L928.2,535.2z"/>
				</g>
			</g>
		</g>
	</g>
</g>
<g>
	<g id="Rectangle_186" transform="translate(820.625 2897.32)">
		
			<rect x="164.6" y="3759.6" transform="matrix(6.921728e-03 -1 1 6.921728e-03 -3627.0242 4030.3792)" class="st7" width="102.2" height="163.3"/>
		
			<rect x="166.3" y="3761.4" transform="matrix(6.921728e-03 -1 1 6.921728e-03 -3627.0242 4030.3792)" class="st8" width="98.7" height="159.8"/>
	</g>
	<text transform="matrix(1 6.920000e-03 -6.920000e-03 1 1012.5876 6745.5928)" class="st9 st10">END</text>
</g>
<polygon class="st7" points="1154.2,419.4 35.5,437.4 35.5,68.9 1154.2,68.9 "/>
<path id="Path_34" class="st13" d="M933.5,422.9l76.5,65.9l78.6-69.3l-34.9,0.8l-2.1-96.4l-85.8,1.8l2.1,96.4L933.5,422.9z"/>
<text transform="matrix(-4.060000e-03 -1 1 -4.060000e-03 1014.572 410.9385)" class="st9 st14">START</text>
</svg>
