<svg id="Layer_1" data-name="Layer 1" xmlns="http://www.w3.org/2000/svg" viewBox="0 0 1195.52 9391.87"><defs><style>.cls-1{fill:#60a353;}.cls-2{fill:#f388b2;}.cls-3{fill:#f3714a;}.cls-4{fill:#4f8ecb;}.cls-5{fill:#f1d54b;}.cls-6{fill:#93479b;}.cls-7{fill:#ef4043;}.cls-12,.cls-8{fill:#fff;}.cls-9{fill:none;stroke-width:3px;}.cls-12,.cls-9{stroke:#707071;}.cls-10,.cls-11,.cls-13{isolation:isolate;}.cls-11{font-size:18.8px;letter-spacing:0.05em;}.cls-11,.cls-13{font-family:OpenSans-Bold, Open Sans;font-weight:700;}.cls-12{stroke-width:3px;}.cls-13{font-size:18.8px;letter-spacing:0.05em;}</style></defs><path class="cls-1" d="M942.23,6646c.86-10.7,1.33-21.55,1.41-32.39,0-2.71,0-5.43,0-8.13l-.1-9.35-.26-18.67c-.39-24.71-1-48.84-2.5-72.17l151.32-9.56c1.74,27.12,2.37,53.53,2.79,79.35l.26,19.23.11,9.61q0,5.4,0,10.82c-.1,14.42-.72,28.83-1.88,43.32Z"/><path class="cls-2" d="M940.76,6505.31c-3-46.65-9.31-90.55-22.45-129.55l143.74-48.24c.65,1.78,1.2,3.55,1.74,5.33l1.65,5.34,3.27,10.68,2.86,10.68,1.42,5.35.7,2.67.62,2.67c3.37,14.22,6.32,28.44,8.6,42.51a826.85,826.85,0,0,1,9.17,83Z"/><path class="cls-1" d="M958.41,4282.07c1.07-.49,2.08-1,3.09-1.51l3-1.53,2.92-1.57,1.47-.77,1.39-.81,2.79-1.6,2.63-1.63,1.33-.81,1.23-.83,2.48-1.64c3.13-2.22,6.08-4.42,8.59-6.6.68-.53,1.19-1.09,1.81-1.62l.89-.79c.29-.27.53-.54.8-.8l1.57-1.56c.45-.51.92-1,1.39-1.52a47.57,47.57,0,0,0,4.27-5.53l.12-.15.23-.38.46-.78.94-1.55,1.89-3.1c1.31-2,2.45-4.2,3.64-6.33,2.46-4.2,4.6-8.65,6.86-13l3.14-6.72.79-1.68.72-1.72,1.46-3.42,139.66,59-2.26,5.29-1.13,2.64-1.21,2.61-4.9,10.45c-3.48,6.88-6.9,13.79-10.77,20.52-1.9,3.38-3.75,6.78-5.82,10.09l-3,5-1.52,2.49-.77,1.25-.39.64-.54.82a200.46,200.46,0,0,1-18.73,24.55l-5,5.45c-1.69,1.76-3.41,3.44-5.13,5.14-.86.84-1.72,1.71-2.59,2.52l-2.61,2.39c-1.74,1.57-3.49,3.22-5.26,4.69a262.75,262.75,0,0,1-21.43,16.52l-5.41,3.61-2.71,1.79-2.71,1.68-5.43,3.34-5.43,3.12-2.72,1.56-2.71,1.46-5.43,2.9-5.42,2.73c-1.81.9-3.62,1.81-5.42,2.63Z"/><path class="cls-3" d="M1020.36,4212.1c15.48-36.59,23.42-77.36,21.91-115.28l151.5-6.07.32,11.82-.11,11.75c0,3.92-.26,7.79-.43,11.68s-.36,7.79-.74,11.63a409.8,409.8,0,0,1-6.2,45.81,420.16,420.16,0,0,1-11,44.54c-1.15,3.64-2.2,7.32-3.44,10.93l-3.75,10.83c-1.28,3.61-2.71,7.16-4.07,10.73-.7,1.79-1.37,3.58-2.09,5.35l-2.25,5.3Z"/><path class="cls-4" d="M1042.27,4096.82a223.88,223.88,0,0,0-2.88-27.7,195.59,195.59,0,0,0-6.44-25.71c-.73-2-1.45-4-2.14-6s-1.62-3.87-2.39-5.82-1.71-3.79-2.59-5.65l-1.31-2.79c-.43-.94-1-1.78-1.45-2.67l-1.46-2.67a28.09,28.09,0,0,0-1.49-2.62c-1.07-1.67-2.13-3.37-3.16-5.07-2.3-3.2-4.45-6.51-7-9.46L1128,3905.49c5.59,6.74,10.54,13.9,15.46,21.06q3.48,5.47,6.88,11c1.17,1.83,2.17,3.72,3.22,5.6l3.1,5.65c1,1.89,2.09,3.76,3,5.68l2.78,5.75c1.83,3.85,3.72,7.68,5.28,11.59s3.29,7.8,4.77,11.72l4.21,11.83a345.61,345.61,0,0,1,12,47.74,375.35,375.35,0,0,1,5,47.64Z"/><path class="cls-5" d="M1010,4000.62l-1.8-2.3c-.62-.75-1.31-1.43-2-2.16l-1.94-2.16a23.32,23.32,0,0,0-2-2.11c-1.41-1.34-2.79-2.69-4.15-4.07-.3-.33-.79-.74-1.22-1.12l-1.3-1.17L993,3983.2a219.68,219.68,0,0,0-22.43-17,240.64,240.64,0,0,0-25-14.46q-13.14-6.59-27.53-12.05L971.88,3798a449.87,449.87,0,0,1,41.87,18.36,391.75,391.75,0,0,1,40.59,23.53,371.08,371.08,0,0,1,38,28.77l4.46,4,2.23,2c.74.68,1.46,1.29,2.27,2.09q4.73,4.56,9.39,9.18c1.59,1.52,3,3.15,4.52,4.77l4.41,4.87c1.46,1.63,3,3.24,4.36,4.91l4.11,5.1Z"/><path class="cls-6" d="M918.07,3939.7c-19.2-7.28-40-13.08-62.2-18s-45.8-8.9-71.49-13.46L811.12,3759c24.07,4.29,50.4,8.66,77.49,14.66s55.19,13.63,83.27,24.28Z"/><path class="cls-7" d="M784.38,3908.25c-6.08-1.09-12.27-2.22-18.67-3.46l-9.7-1.93c-3.32-.71-6.6-1.38-10-2.17-6.79-1.52-13.78-3.2-21.18-5.28s-15.1-4.47-23.3-7.53c-2.09-.81-4.14-1.58-6.25-2.44l-4-1.67-2.28-1-2-.94q-4.05-1.92-8-3.94t-7.82-4.33a146.93,146.93,0,0,1-28.27-21.4,130,130,0,0,1-21.75-27.74,132.58,132.58,0,0,1-7.84-15.85c-1.12-2.72-2.09-5.52-3.08-8.3s-1.76-5.66-2.59-8.5l-1.83-8q-.87-4-1.63-8l148.56-30.63s0-.05,0,0l2,.79c3,1.11,6.69,2.3,10.82,3.45s8.73,2.29,13.6,3.38c2.39.55,5,1.08,7.49,1.62l7.89,1.56c5.33,1,10.89,2.06,16.57,3.08Z"/><path class="cls-1" d="M604.14,3775.76l-.84-4.66c-.13-.76-.29-1.6-.38-2.29l-.29-2.06-.89-6.86c-.16-1.12-.26-2.16-.36-3.2l-.3-3.13-.29-3.13c-.1-1-.2-2.11-.25-3.07l-.39-5.91-.18-2.93-.13-2.79-.24-5.56-.16-5.24-.47-19.12-.13-4.18-.06-2.09-.09-1.93-.18-3.83c0-.67-.08-1.21-.12-1.8l-.12-1.73c-.29-4.74-.82-8.51-1.3-12.07-.17-.78-.32-1.56-.47-2.35l-.2-1.17a10.64,10.64,0,0,0-.25-1c-.18-.66-.34-1.33-.48-2,0-.17-.06-.33-.11-.5l-.18-.56-.34-1.12c-.39-1.54-1-2.86-1.41-4.28s-1-2.67-1.63-3.85-1.19-2.37-1.74-3.56-1.25-2.23-2-3.26L715.36,3572c2.81,4.22,5.3,8.6,7.79,13,2.33,4.43,4.68,8.89,6.68,13.41s3.88,9.07,5.69,13.63c1.61,4.55,3.29,9.15,4.58,13.7l1,3.42.5,1.71.46,1.79,1.77,7.21c.27,1.19.6,2.44.81,3.58l.67,3.48,1.29,7c1.36,8.93,2.38,17.72,2.88,25.59l.21,3c.07,1,.15,2,.18,2.93l.27,5.64.13,2.8.08,2.65.17,5.29.46,18.77.13,4.24.17,3.9.08,1.95.12,1.79.22,3.55c0,.61.09,1.12.14,1.65l.16,1.59.14,1.59c.05.53.09,1.06.17,1.51l.34,2.53,0,.34Z"/><path class="cls-3" d="M588.18,3654.49a55.54,55.54,0,0,0-10.58-11.93,92.63,92.63,0,0,0-7.78-5.79,108.47,108.47,0,0,0-9.71-5.69,181.78,181.78,0,0,0-24.6-10.44c-4.56-1.62-9.44-3.11-14.38-4.59s-10.14-2.84-15.43-4.18l36.87-147.06c7,1.75,14,3.64,21.16,5.72s14.37,4.36,21.72,6.95a332.77,332.77,0,0,1,45,19.31,260.06,260.06,0,0,1,23,13.51A241.67,241.67,0,0,1,676,3527.21a219.4,219.4,0,0,1,21.07,20.68A198.68,198.68,0,0,1,715.36,3572Z"/><path class="cls-4" d="M505.7,3611.87c-21.23-5.3-44.51-9.63-69-13.92s-50.11-8.55-76.81-14.06l30.7-148.48c22.8,4.72,47,8.77,72.33,13.21s51.79,9.25,79.61,16.19Z"/><path class="cls-5" d="M359.93,3583.89c-26.72-5.57-54.56-12.26-83.57-22.72a420.82,420.82,0,0,1-42.39-18q-20.49-10-39.75-22l79.88-128.87c8.62,5.35,17.5,10.27,26.54,14.7A269.79,269.79,0,0,0,328,3418.6c18.55,6.73,39.93,12.11,62.67,16.81Z"/><path class="cls-6" d="M194.22,3521.12a445.73,445.73,0,0,1-72.33-55.67,386.12,386.12,0,0,1-32-34.29,348.72,348.72,0,0,1-28.21-39.38l129.19-79.36a217,217,0,0,0,35.62,43.24,295.79,295.79,0,0,0,47.65,36.59Z"/><path class="cls-7" d="M61.64,3391.78a303.77,303.77,0,0,1-22.82-45,269.44,269.44,0,0,1-15-50.43,252.19,252.19,0,0,1-4.47-53.76A279.37,279.37,0,0,1,25.53,3191l148.29,31.63a126.67,126.67,0,0,0-2.88,23.53,100.34,100.34,0,0,0,1.79,21.63c2.75,14.44,8.87,29.61,18.1,44.62Z"/><path class="cls-1" d="M428,5346.3q-20.88,4.27-42.47,7.28c-14.44,1.92-29.15,3.33-44.11,4.14s-30.33.73-45.91-.08a365.58,365.58,0,0,1-47.59-5.78l28.46-148.93a213.66,213.66,0,0,0,27.61,3.33c9.66.48,19.64.5,29.87,0s20.73-1.56,31.34-3,21.4-3.32,32.24-5.54Z"/><path class="cls-3" d="M247.9,5351.86a297.23,297.23,0,0,1-48.44-13.35l-6-2.23c-2-.75-4-1.67-6-2.5l-6-2.58c-2-.86-4-1.72-5.93-2.73q-5.9-2.91-11.75-5.91c-3.85-2.15-7.67-4.38-11.49-6.61A274.38,274.38,0,0,1,109.72,5284a304.58,304.58,0,0,1-34.26-38.16l121-91.39.95,1.31c.32.43.67.82,1,1.23l2,2.46,2,2.48,2.11,2.3,2.08,2.32c.35.38.69.81,1,1.15l1,1c1.36,1.32,2.71,2.66,4,4a123.89,123.89,0,0,0,18,13.46c1.65.93,3.28,1.9,4.92,2.87s3.47,1.69,5.19,2.58a23.3,23.3,0,0,0,2.68,1.22l2.72,1.17c.92.38,1.78.83,2.74,1.17l2.87,1a145.16,145.16,0,0,0,24.56,6.72Z"/><path class="cls-4" d="M75.46,5245.85a315.27,315.27,0,0,1-26.63-41.62c-4-7.14-7.38-14.45-10.81-21.77l-4.76-11.07c-.81-1.84-1.49-3.72-2.21-5.58l-2.13-5.6c-.7-1.87-1.45-3.73-2.08-5.62l-1.9-5.65c-1.25-3.78-2.57-7.54-3.62-11.35s-2.23-7.6-3.27-11.42l-2.85-11.49a406.21,406.21,0,0,1-7.89-46.47l150.76-16.16a256.31,256.31,0,0,0,4.8,28.23l1.7,6.9,2,6.8c.6,2.29,1.42,4.48,2.14,6.71l1.11,3.33c.36,1.11.82,2.18,1.22,3.27l1.24,3.25c.42,1.08.79,2.19,1.27,3.23l2.72,6.34c2,4.11,3.85,8.28,6.06,12.17a164,164,0,0,0,14.15,22.18Z"/><path class="cls-5" d="M7.31,5068.21a412.25,412.25,0,0,1-2.15-47,381.71,381.71,0,0,1,3.67-47.26,346.24,346.24,0,0,1,9.89-47c2.1-7.8,4.75-15.54,7.41-23.25l4.42-11.5c.71-1.92,1.59-3.81,2.4-5.71l2.5-5.69L173.7,4943l-1.31,3c-.43,1-.93,2-1.29,3q-1.17,3.1-2.38,6.19c-1.41,4.24-2.93,8.44-4.08,12.86a195.19,195.19,0,0,0-5.68,27.08,232.23,232.23,0,0,0-2.2,28.28,261.41,261.41,0,0,0,1.31,28.64Z"/><path class="cls-6" d="M35.45,4880.73a314.51,314.51,0,0,1,24.28-44.1c2.41-3.52,4.9-7,7.38-10.48l5.48-7.63,4.81-6.63c.78-1.11,1.65-2.21,2.36-3.32l2.2-3.32c12-17.68,21.88-35.35,28.73-52.09l140.72,56.45c-12.26,30.08-27.58,56.54-43.91,80.66l-3.05,4.56c-1,1.55-2.09,2.94-3.13,4.42L195,4908l-3.16,4.36-1.55,2.14-.87,1.26-3.55,5A163.08,163.08,0,0,0,173.7,4943Z"/><path class="cls-7" d="M110.69,4753.16c.5-1.06.78-2.08,1.17-3.12l1.13-3.1,1.15-3.09c.39-1,.61-2,.93-3.05l1.84-6c.45-2,.92-4,1.41-6a137.44,137.44,0,0,0,3.07-23.69,171.79,171.79,0,0,0-1.36-26.17c-1.14-9.53-3-20.06-5.32-31.73l148.74-29.41c2.59,13.12,5.24,27.46,7.12,43a322.83,322.83,0,0,1,2.35,49.48,289.13,289.13,0,0,1-6.59,51.39q-1.47,6.24-3,12.47c-1.15,4.06-2.38,8.07-3.6,12.1-.63,2-1.2,4.06-1.9,6l-2.09,5.81-2.13,5.81c-.72,1.91-1.38,3.91-2.19,5.73Z"/><path class="cls-1" d="M114.71,4647.21c-2.29-11.63-5-24.51-7.54-38.37s-4.76-28.67-6.22-44.07a390.68,390.68,0,0,1-1.41-47.46l.61-12c.08-2,.31-4,.49-6l.57-6,.6-6c.21-2,.54-3.94.8-5.91l1.74-11.79,149.52,25.12-1,7c-.16,1.16-.39,2.32-.49,3.48l-.32,3.46-.35,3.46c-.1,1.16-.27,2.31-.29,3.46l-.35,6.93a238.93,238.93,0,0,0,.85,28.26c1,9.76,2.44,20,4.44,31s4.49,22.85,7.09,36Z"/><path class="cls-3" d="M104.35,4469.69a279.28,279.28,0,0,1,35.39-97.26q6.87-11.4,14.89-22.19a258.15,258.15,0,0,1,17.22-20.66,251.92,251.92,0,0,1,19.34-18.77c3.37-3,6.86-5.79,10.36-8.6s7.1-5.46,10.77-8l87.28,124a104.76,104.76,0,0,0-29.78,32.13,127.71,127.71,0,0,0-15.95,44.47Z"/><path class="cls-4" d="M212.32,4294.23c3.64-2.61,7.37-5,11.11-7.43,1.88-1.18,3.78-2.31,5.68-3.45s3.81-2.26,5.74-3.32c7.68-4.37,15.55-8.21,23.49-11.74l6-2.57c2-.82,4-1.59,6-2.38,4-1.62,8-2.95,12.07-4.39,8.07-2.64,16.18-5.1,24.27-7a330.74,330.74,0,0,1,48.23-8.12,393.19,393.19,0,0,1,46.92-1.63l-3.6,151.58a242.76,242.76,0,0,0-28.8,1,178.09,178.09,0,0,0-26.46,4.42c-16.76,4.06-31.22,10.57-43.34,19.07Z"/><path class="cls-5" d="M572.51,4275.12q19.79,6.75,39,14.28l17.55,7c3.9,1.52,8.11,3,12.63,4.38,2.19.72,4.57,1.34,6.87,2s4.71,1.29,7.18,1.86l3.67.89,3.74.84c2.47.58,5.06,1,7.59,1.59,10.25,2,20.91,3.65,31.74,4.95l-18,150.56c-28.52-3.48-57.3-8.57-87.61-17.86q-11.36-3.47-23.16-8.07l-17.64-7.06q-16.07-6.3-32.16-11.78Z"/><path class="cls-2" d="M401.8,4242.17a500.35,500.35,0,0,1,88.59,10.5q21.27,4.38,41.79,10.06c13.66,3.8,27.09,8,40.33,12.39L524,4418.76q-16.08-5.37-32.13-9.87T460,4401.21a348.73,348.73,0,0,0-61.76-7.46Z"/><path class="cls-6" d="M702.51,4313a567.59,567.59,0,0,0,66.66,3.8,610.22,610.22,0,0,0,67.29-3.7l16.75,150.7a760.78,760.78,0,0,1-84,4.62,720.24,720.24,0,0,1-84.64-4.86Z"/><path class="cls-7" d="M836.46,4313.07a501.05,501.05,0,0,0,64.78-11.31c20.68-5.12,40.39-11.71,57.17-19.69L1023.5,4419c-28.92,13.69-57.5,22.87-85.83,29.94a652.89,652.89,0,0,1-84.46,14.83Z"/><path class="cls-1" d="M291.31,5667.68q18-10.17,36.3-19.55t37.07-17.91q37.47-17.1,76.45-31l50.62,142.92a793.34,793.34,0,0,0-125.64,57.41Z"/><path class="cls-3" d="M441.13,5599.24c6.49-2.33,13-4.51,19.59-6.7s13.16-4.26,19.81-6.23c13.27-4,26.67-7.73,40.23-11.06a734.56,734.56,0,0,1,83-15.72l19.28,150.39c-43.75,5.64-88.07,16.93-131.33,32.24Z"/><path class="cls-4" d="M603.8,5559.53q21.21-2.69,42.84-4.05t43.69-.95c3.68.1,7.34.1,11,.29l11.09.51,11.13.8c3.7.26,7.44.7,11.16,1.05,14.91,1.57,29.89,3.82,44.89,6.89L749,5712.56c-39.08-8-82.25-8.27-125.94-2.64Z"/><path class="cls-5" d="M779.64,5564.07a399.88,399.88,0,0,1,88.86,29.29c5.63,2.66,10.75,5,15.87,7.33s10.12,4.44,15.1,6.48c10,4.06,19.77,7.64,29.34,10.6l-44.72,144.87c-14.57-4.5-28.51-9.62-42-15.11-6.71-2.74-13.31-5.57-19.74-8.46s-12.74-5.82-18.53-8.56A249.79,249.79,0,0,0,749,5712.56Z"/><path class="cls-6" d="M928.81,5617.77a228.61,228.61,0,0,0,27.57,6.79,127.42,127.42,0,0,0,23.66,2.17,72.91,72.91,0,0,0,9.3-.64,46.8,46.8,0,0,0,7-1.52,30.38,30.38,0,0,0,4.91-1.95,21,21,0,0,0,3.65-2.31l93.81,119.11a171.69,171.69,0,0,1-28.23,18.09,180.85,180.85,0,0,1-30.2,12.17,196.66,196.66,0,0,1-30,6.57,224,224,0,0,1-28.48,2.09,277.81,277.81,0,0,1-51.75-4.45,379.71,379.71,0,0,1-46-11.25Z"/><path class="cls-7" d="M1004.92,5620.31a30.35,30.35,0,0,0,3.45-3.35c.29-.38.62-.67.93-1.09s.61-.83.94-1.23.62-1,1-1.41c.16-.24.34-.44.5-.71l.48-.82a80,80,0,0,0,7.71-17.57,164.39,164.39,0,0,0,5.56-25.17l.51-3.49c.18-1.17.24-2.27.37-3.41l.72-6.79.36-6.84c0-1.14.18-2.28.17-3.43v-3.45l151.62,1.54-.06,6c0,2-.17,4-.26,6l-.68,12.08-1.24,12.07c-.22,2-.4,4-.68,6l-.85,5.89a313.63,313.63,0,0,1-11,48.72l-2.11,6.33c-.36,1.05-.7,2.1-1.09,3.16l-1.21,3.2-2.46,6.39-2.77,6.45c-.47,1.07-.92,2.14-1.42,3.22l-1.57,3.24c-1.06,2.17-2.07,4.31-3.21,6.48l-3.55,6.48-.9,1.62-1,1.62-2,3.24a183.42,183.42,0,0,1-42.46,48.07Z"/><path class="cls-1" d="M1027.58,5541.55c.42-36.71-9.36-75.2-27.52-111.68l136-67.09,4.91,10.22c1.62,3.42,3.08,6.94,4.62,10.41l2.28,5.23c.75,1.74,1.42,3.54,2.13,5.31l4.19,10.67,3.84,10.88c.62,1.82,1.29,3.61,1.86,5.46l1.72,5.54,1.7,5.55c.57,1.85,1.15,3.69,1.63,5.58l3,11.28c.52,1.87.95,3.78,1.37,5.7l1.27,5.73,1.26,5.73c.44,1.91.73,3.87,1.09,5.8l2,11.64,1.57,11.77c.24,2,.55,3.92.72,5.9l.53,5.95.51,5.95c.18,2,.35,4,.41,6l.48,12c.11,2,.09,4,.08,6l0,6Z"/><path class="cls-3" d="M1000.06,5429.87c-4.57-9.1-9.42-18.15-14.94-26.94l-2-3.32c-.66-1.11-1.42-2.18-2.12-3.27l-4.29-6.53-4.51-6.43-2.25-3.21-2.37-3.15-4.74-6.31-4.94-6.19c-1.61-2.08-3.34-4.09-5.06-6.1s-3.38-4.07-5.15-6c-3.57-3.93-7-7.94-10.78-11.73l-2.75-2.89-1.37-1.45-1.42-1.4-5.67-5.62,105.61-108.79,7.79,7.72,2,1.94,1.9,2,3.78,4c5.11,5.24,10,10.75,14.86,16.2,2.44,2.73,4.77,5.57,7.16,8.36s4.76,5.59,7,8.49l6.87,8.63c2.25,2.92,4.45,5.89,6.66,8.84l3.31,4.43,3.2,4.54,6.37,9.09,6.12,9.31c1,1.56,2,3.09,3,4.68l2.92,4.76c7.89,12.63,15.06,25.85,21.8,39.34Z"/><path class="cls-4" d="M925.67,5329.29c-7.69-7.35-15.53-14.59-23.78-21.31l-3.06-2.56c-1-.84-2.09-1.65-3.13-2.47l-6.26-4.94-6.4-4.73c-1.06-.78-2.11-1.6-3.2-2.36l-3.25-2.26c-2.18-1.5-4.32-3.06-6.52-4.52l-6.62-4.33-1.65-1.08c-.51-.33-.9-.53-1.36-.81l-2.64-1.55-2.61-1.58c-.88-.52-1.81-.94-2.71-1.41l-2.7-1.42c-.91-.46-1.78-1-2.73-1.36-1.87-.82-3.72-1.66-5.57-2.52s-3.84-1.46-5.74-2.23-3.9-1.37-5.87-2l46.71-144.25c4,1.33,8.06,2.57,12,4.17s8,3,11.9,4.68,7.82,3.5,11.71,5.28c2,.85,3.85,1.88,5.76,2.85l5.7,3c1.89,1,3.81,2,5.67,3l5.52,3.26,5.51,3.29c.89.54,1.88,1.12,2.7,1.64l2.31,1.51,9.24,6.05c3.07,2,6,4.18,9.07,6.27l4.51,3.16c1.5,1.06,3,2.17,4.44,3.25l8.83,6.56,8.63,6.78c1.43,1.14,2.89,2.26,4.3,3.41l4.22,3.51c11.32,9.27,22.1,19.15,32.65,29.27Z"/><path class="cls-5" d="M829.87,5263.82c-15.76-5.24-33.47-7.74-52.57-8.19-9.6-.11-19.52.3-29.69,1.17s-20.65,2.42-31.25,4.24l-26.28-149.33c14.3-2.46,28.87-4.56,43.86-5.91a458.27,458.27,0,0,1,46-1.77,369.31,369.31,0,0,1,47.95,4.05,303.4,303.4,0,0,1,48.66,11.49Z"/><path class="cls-6" d="M716.36,5261c-10.6,1.83-21.43,4.22-32.33,6.82s-22,5.7-33.11,8.93-22.41,6.85-33.74,10.57-22.8,7.73-34.35,11.81l-50.61-142.93c12.28-4.33,24.7-8.64,37.35-12.83s25.49-8.25,38.6-12.09,26.42-7.5,40.08-10.8,27.54-6.32,41.83-8.81Z"/><path class="cls-7" d="M582.83,5299.17l-17.44,6.24-17.77,6.42q-19.12,6.93-38.77,13.16c-13.08,4.16-26.38,8-39.82,11.61s-27.17,6.79-41,9.7l-30.56-148.51c10.85-2.29,21.76-4.82,32.72-7.74s21.94-6.11,32.94-9.61,22-7.21,33-11.21l17.89-6.46,18.24-6.53Z"/><path class="cls-3" d="M918.31,6375.76l-2.57-7.23-1.27-3.63c-.42-1.19-.88-2.27-1.32-3.41l-1.33-3.38-1.42-3.35c-.91-2.25-1.95-4.45-2.95-6.66a243.92,243.92,0,0,0-13.66-25.66,225.82,225.82,0,0,0-35-44.2l105.39-109a377,377,0,0,1,59,74.22,394.17,394.17,0,0,1,22,41.22c1.61,3.54,3.24,7.07,4.72,10.67l2.27,5.37,2.15,5.44c.7,1.8,1.46,3.64,2.1,5.42l1.89,5.31,3.75,10.63Z"/><path class="cls-4" d="M858.79,6278.24c-13.1-12.6-27.32-22.81-41.89-29.84a128.22,128.22,0,0,0-22.09-8.23l-1.39-.4c-.46-.12-.93-.21-1.4-.32l-2.79-.64c-.92-.26-1.86-.38-2.8-.55l-2.8-.53c-2-.28-4-.59-6-.83s-4-.48-6-.55l10.75-151.24c4.31.23,8.59.77,12.89,1.2,2.15.21,4.27.56,6.4.85s4.25.58,6.4.94l6.52,1.19c2.17.41,4.35.78,6.49,1.29l6.45,1.48c1.07.26,2.15.49,3.21.77l3.18.86a279.72,279.72,0,0,1,48.85,18.18,297.22,297.22,0,0,1,43.57,25.89,332.5,332.5,0,0,1,37.78,31.48Z"/><path class="cls-5" d="M771.69,6236.35a131.25,131.25,0,0,0-24.15.5,157.52,157.52,0,0,0-25.23,5c-17.3,4.75-35.63,12.64-54.53,22.71l-71.3-133.81c12.81-6.86,26.33-13.38,40.5-19.35a369.28,369.28,0,0,1,44.83-15.67,310.07,310.07,0,0,1,49.09-9.54,282.15,282.15,0,0,1,51.54-1Z"/><path class="cls-6" d="M667.78,6264.52c-18.92,10.08-38.37,22.29-58.37,35.62s-40.58,27.73-62.19,42.35l-85-125.58c20.25-13.7,41.06-28.29,63.13-43s45.4-29.5,71.08-43.21Z"/><path class="cls-7" d="M547.22,6342.49c-21.59,14.62-44.31,29.48-68.82,43.55-12.24,7-25,13.84-38.31,20.25s-27.16,12.42-41.69,17.7l-52.1-142.38c18.45-6.76,37.42-16.06,56.73-27.13s39-23.86,59.24-37.57Z"/><path class="cls-1" d="M398.4,6424a387,387,0,0,1-45.29,13.55,270.31,270.31,0,0,1-52.46,7,197.09,197.09,0,0,1-60.83-7.53c-1.3-.38-2.6-.73-3.89-1.14l-3.86-1.32c-2.57-.9-5.14-1.82-7.69-2.76s-5-2.12-7.5-3.21l-3.73-1.65-3.6-1.81q-3.6-1.84-7.16-3.73c-2.29-1.33-4.55-2.68-6.82-4.05l-3.37-2.06-3.21-2.16c-2.13-1.45-4.24-2.91-6.35-4.39L272,6286.26c.5.31,1,.63,1.46,1l.7.52.69.37c.45.26.89.54,1.31.83a13.5,13.5,0,0,1,1.27.61l.61.36.62.22a12.9,12.9,0,0,1,1.19.56,10.7,10.7,0,0,1,1.25.4l.61.25c.21.07.44.1.66.16a10.47,10.47,0,0,1,1.32.39c.46.11,1,.16,1.46.27a29.54,29.54,0,0,0,3.21.52,10.27,10.27,0,0,0,1.83.15c.64,0,1.28.1,1.91.17h2.17l1.08,0a7.28,7.28,0,0,0,1.14,0A120.56,120.56,0,0,0,319,6289.8a237.18,237.18,0,0,0,27.29-8.19Z"/><path class="cls-3" d="M182.64,6408.76a243.76,243.76,0,0,1-40.37-37.95,417.79,417.79,0,0,1-27.92-37.14c-8.08-11.94-15.27-23.43-22.14-34.53l-19.82-32.2L201.25,6187l19.92,32.36c6.42,10.39,12.67,20.31,18.75,29.29a271.4,271.4,0,0,0,17.52,23.51A94.57,94.57,0,0,0,272,6286.26Z"/><path class="cls-4" d="M72.39,6266.94,70,6263l-2.82-4.61c-1.9-3.13-3.82-6.23-5.65-9.46s-3.73-6.36-5.5-9.66-3.59-6.54-5.34-9.87a428.32,428.32,0,0,1-19.18-41.66,384,384,0,0,1-14.79-45.07,339.28,339.28,0,0,1-8.72-48l150.75-16.22a188.58,188.58,0,0,0,4.81,26.48,232.81,232.81,0,0,0,8.87,26.9A279,279,0,0,0,184.92,6159c1.2,2.26,2.47,4.53,3.69,6.8s2.6,4.53,3.88,6.81,2.69,4.53,4.06,6.8l2.12,3.48,2.58,4.16Z"/><path class="cls-5" d="M8,6094.67a308.32,308.32,0,0,1-1.49-49.59c.1-4.15.5-8.28.86-12.41s.69-8.27,1.31-12.36,1.08-8.21,1.75-12.28l2.28-12.14a355.88,355.88,0,0,1,32.21-90.35l135,68.93c-2.35,4.29-4.16,8.65-6.2,13-.53,1.08-.93,2.17-1.36,3.25l-1.3,3.25c-.87,2.17-1.82,4.33-2.49,6.5l-2.27,6.5-1.92,6.5c-.3,1.08-.68,2.16-.94,3.24l-.76,3.25-.79,3.24-.41,1.62c-.12.54-.2,1.09-.3,1.63q-.59,3.24-1.23,6.48c-.35,2.16-.58,4.33-.91,6.49s-.49,4.32-.68,6.48-.45,4.32-.45,6.49a157.41,157.41,0,0,0,.79,26.1Z"/><path class="cls-6" d="M44.9,5905.54c1.8-3.44,3.53-7,5.4-10.33l5.71-10,2.88-5,3-4.82,6.07-9.63c1-1.63,2.09-3.13,3.14-4.69l3.19-4.63c2.14-3.07,4.23-6.21,6.42-9.21l6.65-8.9c2.24-2.95,4.42-6,6.75-8.77L101,5821l3.47-4.26c1.16-1.4,2.36-2.74,3.55-4.11l7.13-8.18,3.57-4.09,3.87-4.19c10.33-11.15,20.92-21.47,31.7-31.24l101.82,112.35c-7.94,7.2-15.45,14.55-22.3,21.94l-2.56,2.76-2.65,3.06-5.33,6.1c-.88,1-1.79,2-2.65,3.06l-2.5,3.1-5,6.19c-1.74,2.05-3.22,4.17-4.8,6.26l-4.71,6.27c-1.54,2.1-2.93,4.24-4.41,6.34l-2.19,3.17c-.72,1.06-1.5,2.11-2.14,3.18l-4,6.41-2,3.19-1.83,3.23-3.7,6.44c-1.2,2.15-2.22,4.32-3.36,6.48Z"/><path class="cls-7" d="M154.33,5764.94A693.81,693.81,0,0,1,221.05,5712c22.88-16,46.31-30.72,70.26-44.31l74.8,131.89c-20,11.35-39.44,23.55-58,36.53a543.17,543.17,0,0,0-52,41.19Z"/><path class="cls-1" d="M591.07,7339.33a47.85,47.85,0,0,0-1.55-7.07,53.18,53.18,0,0,0-2.8-7.1,74.91,74.91,0,0,0-10.45-15.81c-2.36-2.82-5-5.72-7.94-8.64s-6.21-5.86-9.67-8.82a262.42,262.42,0,0,0-23.47-17.51l84.33-126a411.62,411.62,0,0,1,37.19,27.88C662.87,7181.49,669,7187,675,7193s12,12.38,17.7,19.26a237.11,237.11,0,0,1,16.49,22.17,218.81,218.81,0,0,1,14.31,25.37,204.54,204.54,0,0,1,11,28.17,200.61,200.61,0,0,1,6.63,29.9Z"/><path class="cls-3" d="M535.19,7274.38c-17.17-11.51-36.89-22.42-57.7-32.9s-42.85-20.57-65.46-30.68l61.84-138.43c23.52,10.52,47.49,21.45,71.8,33.69s49,25.71,73.85,42.31Z"/><path class="cls-4" d="M412,7210.8c-22.63-10.11-45.9-20.24-69.56-30.92s-47.76-21.94-72.16-34.64l70-134.47c20.44,10.65,42.17,20.82,64.53,30.93s45.47,20.17,69,30.67Z"/><path class="cls-5" d="M270.31,7145.24c-24.38-12.72-49.12-26.83-73.86-44.35-6.19-4.4-12.36-9-18.51-13.92s-12.28-10.05-18.33-15.63-12.05-11.43-17.91-17.74-11.57-13.09-17-20.32l121-91.43c8.5,11.41,22.17,23.77,38.64,35.43s35.68,22.86,56.1,33.49Z"/><path class="cls-6" d="M124.66,7033.28A225.25,225.25,0,0,1,96.15,6984a206.47,206.47,0,0,1-14.75-57.89,215.53,215.53,0,0,1-1-29.29c.1-2.39.15-4.82.34-7.16l.56-7.08c.51-4.63,1-9.3,1.78-13.8s1.56-9,2.44-13.39c.47-2.19,1-4.33,1.49-6.49l.77-3.24.64-2.37,1.28-4.76,1.27-5.07,1.26-5.07.64-2.54.89-3,145.82,41.52-.47,1.53-.51,2.06-1,4.13-1,4.13-1.19,4.38-.6,2.2-.31,1.38c-.2.92-.45,1.84-.64,2.74-.32,1.78-.73,3.57-1,5.25s-.44,3.35-.66,5q-.07,1.19-.18,2.37c-.09.8-.05,1.53-.1,2.3a61.12,61.12,0,0,0,.26,8.56,54.43,54.43,0,0,0,3.91,15.31,73.92,73.92,0,0,0,9.49,16.11Z"/><path class="cls-7" d="M93.77,6822.88c1.19-4,2.38-8,3.63-12s2.83-8,4.28-12c3.12-8,6.42-16,10.4-24a249.74,249.74,0,0,1,29.05-46,235.33,235.33,0,0,1,39.71-39.08,248.53,248.53,0,0,1,46.47-28.32l64.51,137.22a96.55,96.55,0,0,0-18.15,11,83.25,83.25,0,0,0-14.18,14,97.7,97.7,0,0,0-11.3,18c-1.72,3.33-3.19,7-4.68,10.77q-1,2.91-2.08,5.81l-1.84,6.15Z"/><path class="cls-1" d="M227.31,6661.49a286.93,286.93,0,0,1,48.4-17.49,351.28,351.28,0,0,1,47.54-9.06,424.51,424.51,0,0,1,45.81-3c15-.21,29.66.26,44.1,1.21L403,6784.43c-21.51-1.4-42.43-1.31-61.46,1s-36.06,6.81-49.69,13.25Z"/><path class="cls-3" d="M413.16,6633.15,424,6634l10.62,1.12,10.61,1.15,5.31.58,2.65.29,2.6.38,20.79,3.1,5.2.78,5.11.93,10.2,1.89c13.7,2.37,27,5.47,40.34,8.37,6.65,1.53,13.18,3.22,19.78,4.83l9.87,2.45,9.74,2.65-39.46,146.4-8.54-2.34-8.53-2.1c-5.68-1.38-11.37-2.87-17-4.18-11.32-2.42-22.67-5.11-33.88-7l-8.44-1.57-4.21-.77-4.17-.62-16.7-2.49-2.09-.32-2.06-.22-4.11-.43-8.23-.88-8.23-.91-8.11-.6Z"/><path class="cls-4" d="M576.77,6662.48c52,14,102.14,31.13,151.05,49.58L674.23,6853.9c-45.64-17.23-91.33-32.75-136.92-45Z"/><path class="cls-5" d="M727.82,6712.06c24.46,9.21,48.59,18.85,72.25,28.45l17.59,7.15,18.06,7.48,8.18,3.36c2.55,1,5.18,2.1,7.55,3l1.82.7.91.35.86.31,3.43,1.26c1.15.42,2.16.73,3.25,1.11s2.16.75,3.13,1L819.3,6910.86c-2.06-.62-4-1.27-5.88-1.92s-3.89-1.3-5.71-2l-5.47-2-1.37-.5-1.3-.5-2.61-1c-3.54-1.34-6.75-2.65-10.07-4l-9.34-3.85-17-7L743.06,6881c-23.17-9.41-46-18.52-68.83-27.11Z"/><path class="cls-6" d="M864.85,6766.24l3,.93,2.75.74c.46.12.93.27,1.36.37l1.25.28c.82.18,1.7.43,2.46.57s1.49.26,2.23.41l.56.12.5.05,1,.13c1.38.27,2.44.22,3.6.39.53,0,1,0,1.51,0,.24,0,.5.05.73.05l.65-.06c.45,0,.83,0,1.33,0s1.06-.08,1.55-.15a27.6,27.6,0,0,0,5.08-1,23.68,23.68,0,0,0,8.2-4.44,51.93,51.93,0,0,0,10.19-11.46l125.12,85.64a203.22,203.22,0,0,1-40.72,44.32,175.14,175.14,0,0,1-58.34,30.9,180.54,180.54,0,0,1-32,6.69c-2.64.32-5.25.52-7.88.75s-5.43.27-8.14.38l-4.08.11c-1.35,0-2.67,0-4-.05-2.66-.07-5.34-.13-8-.26-5.13-.4-10.39-.77-15.24-1.52l-3.71-.52-1.85-.27-1.77-.32-7.08-1.33c-2.34-.46-4.52-1-6.79-1.52l-3.36-.79c-1.1-.27-2.15-.57-3.22-.85l-6.39-1.76-6.07-1.86Z"/><path class="cls-7" d="M912.77,6753.12a115.82,115.82,0,0,0,10.65-20,201.93,201.93,0,0,0,8.78-26c5.06-18.77,8.32-39.68,10-61.06l151.14,12.06c-1.16,14.49-2.86,29.06-5.24,43.75a448.22,448.22,0,0,1-9.49,44.57,353.21,353.21,0,0,1-15.56,45.72,266.52,266.52,0,0,1-25.19,46.64Z"/><path class="cls-6" d="M728.84,7863.4c-22.65,7.39-45.68,15.56-69.27,24.09s-47.68,17.34-72.56,25.89L537.83,7770c22.91-7.88,46.26-16.4,70.24-25.07s48.54-17.41,73.94-25.7Z"/><path class="cls-2" d="M856.24,7836a266.39,266.39,0,0,0-29.66,2.84l-3.85.57c-1.28.19-2.56.37-3.87.62l-7.83,1.4c-2.62.47-5.29,1.08-7.94,1.6l-4,.81-4,.93c-21.45,4.81-43.67,11.34-66.25,18.63L682,7719.19c25.51-8.22,51.8-16,79.68-22.32l5.21-1.19,5.3-1.09c3.55-.71,7-1.48,10.65-2.14l10.83-1.93c1.79-.34,3.63-.61,5.48-.89l5.52-.82a417.18,417.18,0,0,1,45.77-4.32Z"/><path class="cls-7" d="M587,7913.38c-12.49,4.26-25.15,8.47-38.12,12.5-3.22,1-6.54,2-9.8,3l-4.92,1.48-5,1.43-10,2.83L509,7937.31c-13.72,3.51-27.74,6.78-42.39,9.44a440,440,0,0,1-45.79,5.92L410,7801.44a291.28,291.28,0,0,0,29.36-3.85c10.21-1.85,20.82-4.32,31.58-7.06l8.13-2.16,8.21-2.32,4.12-1.18,4.16-1.25c2.78-.85,5.53-1.65,8.33-2.53,11.16-3.47,22.49-7.24,33.91-11.13Z"/><path class="cls-1" d="M420.79,7952.67l-12.07.68-12.38.19c-2,.06-4.19,0-6.3-.09l-6.36-.21c-4.19-.07-8.6-.53-12.92-.87a247.74,247.74,0,0,1-53.59-10.7,216.6,216.6,0,0,1-52.3-24.83,227.21,227.21,0,0,1-43.24-37.07l112-102.15a75.75,75.75,0,0,0,14.06,12.24,64.64,64.64,0,0,0,16,7.52,96.65,96.65,0,0,0,20.61,4c2,.13,3.85.42,6,.4l3.12.11c1,0,2.05.11,3.17.05l6.56-.09,6.85-.39Z"/><path class="cls-3" d="M221.63,7879.77l-4.6-5.14c-.75-.86-1.55-1.72-2.26-2.59l-2.09-2.63c-2.78-3.51-5.57-7.05-8.26-10.61q-3.75-5.36-7.42-10.78l-1.83-2.71c-.61-.9-1.12-1.81-1.68-2.71l-3.28-5.44c-4.54-7.29-8.15-14.55-12-21.87l-.71-1.37-.63-1.36-1.27-2.73-2.5-5.46-2.49-5.46-.62-1.37c-.21-.46-.42-1-.62-1.51l-1.24-3.07a246.76,246.76,0,0,1-9-25.82l-1.86-7-.89-3.52c-.3-1.18-.52-2.47-.78-3.7q-.73-3.75-1.43-7.5c-.22-1.27-.47-2.48-.66-3.78l-.5-4q-.48-4-.89-8c-.07-.67-.15-1.32-.19-2l-.11-2.1-.17-4.18c-.09-2.81-.21-5.56-.19-8.4s.21-5.8.37-8.7l.26-4.34c.13-1.46.34-3,.51-4.44.38-3,.79-5.92,1.25-8.87s1.2-5.94,1.86-8.9,1.34-5.92,2.3-8.82l145.41,42.95c-.13.07,0,.23-.06.34s-.13.2-.13.36a1.14,1.14,0,0,1,0,.52c0,.09-.08.15-.08.26a2.56,2.56,0,0,1,0,.39,2.88,2.88,0,0,1-.08.77c0,.31.09.72.09,1.07,0,.18,0,.37,0,.55l0,.28a2.57,2.57,0,0,0,.06.35,14,14,0,0,1,.19,1.45,71.48,71.48,0,0,0,5.12,17.49l.52,1.33c.09.24.15.43.27.69l.37.79,1.46,3.14,1.44,3.16.71,1.58.35.79.39.73c2.1,3.84,4,8,6.25,11.35l1.59,2.69c.26.44.51.93.79,1.32l.85,1.2q1.68,2.41,3.29,4.86c1.16,1.45,2.31,2.86,3.42,4.33l.82,1.1c.28.36.59.63.88,1l1.73,1.9Z"/><path class="cls-4" d="M158.05,7668.92c.91-2.92,1.85-5.82,2.84-8.71.46-1.46,1-2.86,1.61-4.26l1.75-4.19a154.56,154.56,0,0,1,7.9-16.07c.36-.65.71-1.31,1.08-1.94l1.13-1.84,2.29-3.65,2.34-3.63,1.19-1.81,1.22-1.68c3.27-4.46,6.63-9,10.11-12.89,1.73-2,3.48-4.07,5.25-5.94l5.32-5.45,2.69-2.69,2.69-2.46,5.4-4.88c1.81-1.59,3.59-3,5.4-4.48l2.71-2.19c.9-.72,1.81-1.48,2.7-2.12l5.37-4,2.69-2c.9-.65,1.77-1.22,2.66-1.83A356.5,356.5,0,0,1,276,7545.87c13.48-6.81,26.59-12.66,39.42-18l58.56,139.86c-10.47,4.38-20.44,8.87-29.52,13.46A207.49,207.49,0,0,0,320.6,7695c-.42.28-.87.56-1.25.84l-1.12.84-2.26,1.65c-.4.28-.69.55-1,.81l-1,.8c-.63.53-1.36,1-1.91,1.56s-1.07,1-1.62,1.48l-.83.72-.63.68c-.43.45-.87.89-1.32,1.31s-.64.8-1,1.18a22.38,22.38,0,0,0-1.61,2l-.19.21-.09.2a2.71,2.71,0,0,1-.21.37,3.53,3.53,0,0,1-.24.34l-.14.16s0,.1-.05.15c-.09.37-.46.68-.43.93a.42.42,0,0,1-.1.17s-.11.1-.07.17a.42.42,0,0,1-.09.31Z"/><path class="cls-5" d="M315.38,7527.83c25.65-10.72,50.23-19.63,73.92-28.35s46.46-17.11,68-26l57.9,140.13c-25.19,10.4-49.85,19.47-73.6,28.19s-46.67,17.11-67.65,25.9Z"/><path class="cls-6" d="M457.29,7473.47C478.83,7464.61,499,7455.2,517,7445s33.36-21.32,44.86-32.82l107,107.4a322.84,322.84,0,0,1-37.76,32.07,412,412,0,0,1-38.91,25c-26,14.79-51.81,26.59-77,37Z"/><path class="cls-7" d="M561.82,7412.16a112.36,112.36,0,0,0,14.45-17.43,87.59,87.59,0,0,0,9.29-18.13q.42-1.18.87-2.37c.14-.41.31-.74.44-1.23l.43-1.4c.27-.93.61-1.88.85-2.79l.73-2.72a95.61,95.61,0,0,0,2-10.16,78.26,78.26,0,0,0,.68-8.89,53.67,53.67,0,0,0-.53-7.71l150.09-21.47a205.77,205.77,0,0,1,2.06,30.07,228.38,228.38,0,0,1-2.13,28.88,245.16,245.16,0,0,1-5.36,27l-1.73,6.43c-.59,2.14-1.26,4.19-1.89,6.28l-1,3.12c-.3,1-.74,2.17-1.11,3.25l-2.35,6.54a239.88,239.88,0,0,1-25.12,49.21,264.33,264.33,0,0,1-33.72,40.92Z"/><path class="cls-1" d="M1014.28,8213.65l1-3.64.87-3.72c.56-2.48,1.21-4.92,1.72-7.44l1.51-7.57.38-1.89.32-1.93.64-3.84c.95-5.09,1.54-10.34,2.29-15.53l.85-7.88.42-3.95.3-4c1-10.59,1.27-21.37,1.42-32.16l0-8.12c0-2.71-.13-5.43-.18-8.15-.08-5.42-.46-10.87-.73-16.32l151.32-9.59c.37,7.17.83,14.33,1,21.54.08,3.6.26,7.19.24,10.8l0,10.83c-.18,14.47-.64,29-1.92,43.56l-.44,5.46-.57,5.48c-.39,3.65-.76,7.3-1.19,11-1,7.32-1.9,14.63-3.22,22l-.93,5.5-.46,2.75-.55,2.76-2.21,11c-.75,3.67-1.68,7.35-2.53,11l-1.3,5.5-1.48,5.52Z"/><path class="cls-3" d="M1025.05,8087.53c-.16-2.72-.42-5.44-.61-8.17s-.41-5.45-.72-8.17l-.84-8.16-1-8.16-.52-4.07-.62-4.06-1.24-8.13c-1-5.38-1.83-10.8-3-16.14a457.42,457.42,0,0,0-17.08-62.66l143-50.51a607.13,607.13,0,0,1,22.8,83.49c1.48,7,2.63,14.08,3.89,21.13.57,3.53,1.09,7.07,1.63,10.61l.8,5.31.68,5.32,1.34,10.65,1.1,10.69c.4,3.56.68,7.13,1,10.71s.59,7.14.8,10.73Z"/><path class="cls-4" d="M999.42,7959.81l-2.72-7.5c-.92-2.49-1.93-4.92-2.88-7.38-.49-1.22-1-2.46-1.45-3.67l-1.55-3.6-1.53-3.61c-.5-1.21-1-2.4-1.58-3.56l-3.24-7-3.4-6.83c-1.1-2.32-2.33-4.47-3.51-6.68l-1.78-3.31c-.58-1.1-1.23-2.13-1.84-3.2l-1.86-3.18c-.61-1.06-1.21-2.14-1.87-3.13l-3.84-6.09-4-5.78c-.64-1-1.33-1.88-2-2.79l-2-2.72a150.4,150.4,0,0,0-16.58-18.68l103.62-110.68a301.76,301.76,0,0,1,33.83,37.81l3.63,4.88c1.21,1.63,2.42,3.26,3.52,4.9l6.74,9.86,6.28,9.94c1.07,1.66,2,3.33,3,5l2.92,5a492,492,0,0,1,37.05,81.52Z"/><path class="cls-5" d="M941.79,7861.07a81.54,81.54,0,0,0-15.6-11.77c-.59-.3-1.16-.62-1.73-1l-.43-.26c-.12-.08-.39-.17-.58-.26l-1.24-.55-2.47-1.13a21.27,21.27,0,0,0-2.48-1.11q-2.6-.95-5.14-2c-1.76-.59-3.58-1.09-5.36-1.69a140.3,140.3,0,0,0-23.53-4.61,193.29,193.29,0,0,0-27-.74l-5.79-151.51a344.54,344.54,0,0,1,48.72,1.47,292.18,292.18,0,0,1,50.74,10c4.23,1.34,8.47,2.62,12.68,4.08s8.39,3.18,12.56,4.82c2.1.77,4.13,1.79,6.18,2.7l6.15,2.83,3.06,1.43c.52.25,1,.44,1.56.75l1.65.88,6.59,3.57a231.63,231.63,0,0,1,45.07,33.34Z"/><path class="cls-1" d="M577.93,8818.22c-51.15,1.19-103.45,1.84-157-.69l7.24-151.45c47.45,2.25,96.3,1.73,146.19.56Z"/><path class="cls-3" d="M420.94,8817.53c-26.78-1.3-53.86-3.37-81.27-6.8a740.78,740.78,0,0,1-83.07-14.9l35.7-147.36a588.28,588.28,0,0,0,66.1,11.8c22.74,2.85,46.08,4.66,69.78,5.81Z"/><path class="cls-4" d="M256.6,8795.83c-14-3.39-28-7.26-42-11.81-7-2.22-14-4.71-21-7.25s-13.95-5.34-20.88-8.33-13.85-6.09-20.72-9.41l-5.14-2.54-1.31-.65-1.69-.9-3.38-1.81-3.37-1.84c-1.11-.62-2.2-1.3-3.3-2-2.19-1.34-4.4-2.65-6.55-4A199.32,199.32,0,0,1,82,8704.66l117.11-96.31a53.69,53.69,0,0,0,5.17,5.43,54.47,54.47,0,0,0,5.66,4.34c.49.33,1,.6,1.53.92.25.16.49.34.76.48l.8.41.79.44.39.22.82.41,3.36,1.65c4.5,2.18,9.08,4.29,13.78,6.27s9.49,3.87,14.33,5.71,9.8,3.53,14.85,5.13c10,3.27,20.41,6.14,31,8.71Z"/><path class="cls-5" d="M82,8704.66a215.34,215.34,0,0,1-30.49-49.79l-2.78-6.52-2.51-6.55c-.86-2.19-1.58-4.38-2.32-6.58s-1.51-4.39-2.13-6.59a257.1,257.1,0,0,1-6.51-26.43c-1.62-8.8-2.85-17.59-3.6-26.32s-1.12-17.41-1-26a297.37,297.37,0,0,1,4.72-50.56l149.24,26.78c-3,16.78-3.11,33.44-.37,47.91a106.52,106.52,0,0,0,2.54,10.35c.21.85.54,1.61.79,2.42s.51,1.62.83,2.36.59,1.54.86,2.31.65,1.45,1,2.19a63.58,63.58,0,0,0,8.89,14.71Z"/><path class="cls-6" d="M35.32,8499.32a325.79,325.79,0,0,1,32.08-93.08,348,348,0,0,1,56.17-78.46L233.65,8432a196.62,196.62,0,0,0-31.85,44.39,174,174,0,0,0-17.24,49.67Z"/><path class="cls-7" d="M123.57,8327.78A375,375,0,0,1,197,8267.9a405.14,405.14,0,0,1,40.85-22.38l5.22-2.48c1.75-.82,3.51-1.57,5.27-2.35,3.51-1.53,7-3.13,10.57-4.52l5.32-2.15,2.66-1.07c.89-.37,1.69-.65,2.54-1l10.07-3.75,51.94,142.45-7.7,2.86c-.62.24-1.32.48-1.89.71l-1.73.71-3.47,1.4c-2.33.9-4.57,1.95-6.84,2.93-1.13.51-2.28,1-3.4,1.51l-3.33,1.59a253.12,253.12,0,0,0-25.6,14A223.22,223.22,0,0,0,233.65,8432Z"/><path class="cls-1" d="M279.48,8228.23c3.33-1.28,6.75-2.43,10.16-3.6s6.82-2.35,10.25-3.48l10.4-3.24c1.74-.53,3.46-1.09,5.21-1.6l5.28-1.49c14-4.07,28.43-7.42,43-10.34a456.21,456.21,0,0,1,90.27-8.71l-.81,151.62a303.75,303.75,0,0,0-60.39,5.9c-10.18,2.06-20.41,4.38-30.67,7.39l-3.84,1.07c-1.28.37-2.56.8-3.85,1.19l-7.69,2.39-7.7,2.62c-2.56.88-5.13,1.73-7.69,2.73Z"/><path class="cls-3" d="M454.06,8195.77a427.54,427.54,0,0,1,46,2.7,433.07,433.07,0,0,1,45.39,7.73,486.56,486.56,0,0,1,85.15,28l-59.85,139.31c-39.4-17-77.78-26.09-117.54-26.13Z"/><path class="cls-4" d="M630.64,8234.21c53.51,23,99.5,52.5,140.5,75.52L697,8442c-23.61-13.27-45.05-26.26-65.8-37.93s-40.66-22.06-60.37-30.52Z"/><path class="cls-5" d="M771.14,8309.73c20.41,11.45,39.66,21.24,56.67,27.23,4.28,1.57,8.35,2.76,12.34,3.89,3.92,1,7.77,1.94,11.4,2.48a102.21,102.21,0,0,0,10.59,1.23l2.54.09,1.26.06,1.25,0c.83,0,1.67,0,2.5,0s1.65-.12,2.47-.15l9.2,151.34c-2.33.13-4.66.28-7,.36l-7,.08H863.9l-3.46-.1-6.93-.27a255.06,255.06,0,0,1-27-3.08c-8.86-1.42-17.31-3.42-25.63-5.57s-16.21-4.72-23.81-7.47a410.16,410.16,0,0,1-42.65-18.11c-13.22-6.45-25.59-13.12-37.41-19.74Z"/><path class="cls-6" d="M872.16,8344.52l1.24-.06c.22,0,.38,0,.65,0l.85-.1,3.4-.38c2.26-.28,4.57-.44,6.79-.76s4.38-.75,6.57-1.1l1.65-.25a14.06,14.06,0,0,0,1.62-.31l3.16-.72a143.88,143.88,0,0,0,24.1-7.32c1.87-.8,3.75-1.56,5.63-2.33s3.58-1.8,5.39-2.67,3.5-1.91,5.25-2.86l2.6-1.45a10.78,10.78,0,0,0,1.27-.78l1.24-.83a121,121,0,0,0,18.9-14.61l103.25,111a272.11,272.11,0,0,1-41,31.65l-2.73,1.76c-.91.59-1.82,1.17-2.77,1.7l-5.64,3.22c-3.77,2.11-7.5,4.36-11.39,6.19s-7.74,3.81-11.63,5.68c-3.93,1.7-7.89,3.35-11.85,5a294,294,0,0,1-48.31,14.76l-6.09,1.34c-1,.23-2,.41-3,.57l-3,.51-12.13,2c-4,.58-8,.94-12,1.4l-6,.64-1.51.16c-.51,0-1.14.08-1.71.12l-3.49.21Z"/><path class="cls-7" d="M962.47,8308l2.23-2.07c.37-.35.75-.68,1.11-1l1.05-1.12c1.41-1.5,2.83-3,4.27-4.45q2-2.42,4-4.79l1-1.18c.34-.41.65-.85,1-1.27l1.94-2.55a164.76,164.76,0,0,0,14.3-22.21,210,210,0,0,0,11.76-25.51,259.54,259.54,0,0,0,9.1-28.11l146.52,39a408,408,0,0,1-14.25,44,359.87,359.87,0,0,1-20,43.26,315.88,315.88,0,0,1-26.74,41.42l-3.83,5c-.64.83-1.26,1.66-1.93,2.48l-2,2.42q-4.1,4.85-8.25,9.63-4.38,4.67-8.8,9.28l-2.22,2.3-2.33,2.22-4.69,4.42Z"/><path class="cls-5" d="M897.79,8869.1a54.44,54.44,0,0,0-3.55-15.05,26.75,26.75,0,0,0-5.49-8.42,47.36,47.36,0,0,0-11.68-8.4,113.09,113.09,0,0,0-21-8.39l43.77-145.17A264.45,264.45,0,0,1,949,8703.74a211.15,211.15,0,0,1,25,15.81,188.48,188.48,0,0,1,23.87,20.83,178.63,178.63,0,0,1,35.95,54.54,193.36,193.36,0,0,1,9.76,29.58,220.25,220.25,0,0,1,5,28.66Z"/><path class="cls-6" d="M856.08,8828.84a234.17,234.17,0,0,0-27.79-6.34c-10-1.72-20.71-3-31.72-4-22.06-2-45.48-2.78-69.43-3l1.19-151.61c26.58.23,53.72,1,82,3.59,14.15,1.31,28.59,3,43.46,5.58a384.29,384.29,0,0,1,46.05,10.63Z"/><path class="cls-7" d="M727.14,8815.48c-24-.18-48.53.23-73.45.81l-75.76,1.93-3.56-151.58,75.81-1.93c25.61-.6,51.59-1,78.15-.84Z"/><path class="cls-6" d="M763,1501.23c23-6.13,45.55-12.88,67.39-20.4A621.74,621.74,0,0,0,893,1455.69l64.7,137.12a771.17,771.17,0,0,1-78,31.36c-25.94,8.94-51.84,16.65-77.69,23.55Z"/><path class="cls-2" d="M621.22,1531.86c48.28-8.53,95.78-18.37,141.77-30.63l39.1,146.49c-51.69,13.77-103.28,24.39-154.52,33.45Z"/><path class="cls-7" d="M893,1455.69c9.85-4.64,19.33-9.53,28.25-14.66,4.5-2.55,8.77-5.2,13-7.85s8.18-5.39,11.93-8.17a175,175,0,0,0,20-16.86c2.76-2.83,5.35-5.62,7.59-8.36a89.22,89.22,0,0,0,5.78-8l128,81.23a241.84,241.84,0,0,1-16.44,22.71c-5.76,7-11.77,13.54-17.87,19.71a325.15,325.15,0,0,1-37.8,32c-6.42,4.72-12.87,9-19.34,13.24s-13,8.09-19.44,11.78c-13,7.46-26,14.14-39,20.27Z"/><path class="cls-1" d="M979.61,1391.83c.2-.25.5-.8.77-1.25l.81-1.38,1.66-2.77c.27-.46.57-.91.82-1.38l.76-1.44,1.53-2.86c1.08-1.87,2-3.87,2.91-5.83l1.43-2.94,1.28-3a184.35,184.35,0,0,0,8.69-25.13,202.45,202.45,0,0,0,6.32-54.23l151.59-3a353.4,353.4,0,0,1-11.29,95.88,333.92,333.92,0,0,1-16,46.45l-2.45,5.68c-.87,1.88-1.77,3.74-2.66,5.61-1.81,3.72-3.55,7.47-5.56,11.12l-3,5.49-1.49,2.74c-.5.91-1,1.8-1.57,2.7l-3.2,5.37-1.61,2.68c-.54.91-1,1.74-1.72,2.79Z"/><path class="cls-3" d="M1006.59,1289.59a207.22,207.22,0,0,0-8.5-54.48,187.22,187.22,0,0,0-22.48-48.77l126.86-83a339,339,0,0,1,40.89,88.37,358.7,358.7,0,0,1,14.82,94.88Z"/><path class="cls-4" d="M975.61,1186.34a156.89,156.89,0,0,0-15.87-20.6,169.23,169.23,0,0,0-18.91-17.83,157.47,157.47,0,0,0-44.47-25.31l52.83-142.12a315.12,315.12,0,0,1,45.4,21.16,305.35,305.35,0,0,1,41.33,28.17,323.6,323.6,0,0,1,36.18,34.12,309.69,309.69,0,0,1,30.37,39.37Z"/><path class="cls-1" d="M25.53,3191a322.72,322.72,0,0,1,14.1-47.46,367.27,367.27,0,0,1,19.83-43.33,432.52,432.52,0,0,1,52.26-75.78l115,98.78A280.19,280.19,0,0,0,193,3172c-9.11,16.93-15.73,34.3-19.22,50.67Z"/><path class="cls-3" d="M111.72,3024.44a438,438,0,0,1,31.46-33.05,430.67,430.67,0,0,1,35-29.86,386.59,386.59,0,0,1,39.09-26.31l5.23-3,2.61-1.49c.42-.24.91-.5,1.42-.76l1.49-.78c4-2.05,8-4.11,12-6.08s8.18-3.61,12.3-5.36c2-.93,4.14-1.62,6.21-2.41l6.25-2.28,50.11,143.1-2.65,1a26.46,26.46,0,0,0-2.63,1q-2.52,1.15-5.09,2.2c-1.62.85-3.23,1.7-4.87,2.5l-.62.3a5.76,5.76,0,0,0-.67.36l-1.5.86-3,1.72a235.91,235.91,0,0,0-23.74,16,288,288,0,0,0-43.42,41.15Z"/><path class="cls-4" d="M264.82,2913.06A287.22,287.22,0,0,1,315,2900.6a332,332,0,0,1,48.52-3.85,427.68,427.68,0,0,1,45.7,2c14.72,1.41,29.08,3.3,43,5.64l-24.84,149.57c-22-3.62-43.09-5.84-62.16-5.57a182.61,182.61,0,0,0-27,2.07,135.63,135.63,0,0,0-23.29,5.73Z"/><path class="cls-1" d="M52.26,1842.09a361.58,361.58,0,0,1,39.9-87,339.69,339.69,0,0,1,62.94-74.22l100,114a188.28,188.28,0,0,0-34.67,41.1,210,210,0,0,0-23.14,50.41Z"/><path class="cls-3" d="M155.1,1680.87c1.58-1.36,3.13-2.74,4.74-4.08l4.84-4c1.61-1.33,3.3-2.61,4.95-3.91l2.49-1.93,2.31-1.71,9.28-6.77c3.13-2.19,6.29-4.31,9.44-6.46s6.36-4.18,9.57-6.21,6.4-4.09,9.67-6l9.77-5.72,9.87-5.41c13.22-7,26.6-13.48,40.08-19.23s27-10.93,40.56-15.61L362,1737.23q-15.51,5.38-30.18,11.61c-9.76,4.17-19.14,8.73-28.24,13.55l-6.76,3.69-6.58,3.86c-2.22,1.25-4.31,2.65-6.45,4s-4.29,2.66-6.33,4.11l-6.21,4.23-6,4.41-1.51,1.09-1.25,1c-.82.66-1.67,1.28-2.49,2l-2.47,2c-.82.68-1.62,1.41-2.44,2.11Z"/><path class="cls-4" d="M312.67,1593.87c13.53-4.62,27.06-8.78,40.53-12.57s26.86-7.07,40.19-10.14,26.53-5.77,39.67-8.32,26.12-4.82,39-7l25.2,149.51c-48,8.09-93.82,17.61-135.29,31.89Z"/><path class="cls-5" d="M472.1,1555.83c12.89-2.17,25.67-4.2,38.34-6.19l37.58-5.79c12.4-1.91,24.61-3.83,36.75-5.81s24.36-4,36.45-6.18l26.35,149.31q-19.2,3.39-38.29,6.5c-12.81,2.08-25.56,4.09-38.14,6l-37.34,5.76q-18.45,2.88-36.5,5.88Z"/><path class="cls-1" d="M859.51,2957.59c4.23-1.38,8.19-3.3,12.29-4.93,3.91-2,8-3.71,11.77-6l2.9-1.59,1.45-.78,1.41-.89c1.88-1.19,3.76-2.36,5.66-3.51,1-.55,1.86-1.23,2.78-1.88l2.75-1.93,2.78-1.91a15.79,15.79,0,0,0,1.36-1l1.34-1.06,5.4-4.18c1.78-1.44,3.49-3,5.26-4.52,3.57-2.89,6.87-6.36,10.33-9.55.88-.78,1.69-1.68,2.51-2.56l2.49-2.62,2.49-2.62c.83-.87,1.68-1.72,2.46-2.68l4.82-5.59,2.41-2.79,2.32-3,118.26,94.89-3.54,4.48-3.76,4.39-7.58,8.76c-1.23,1.47-2.59,2.88-3.93,4.3l-4,4.26-4,4.25c-1.35,1.41-2.68,2.83-4.14,4.19l-8.58,8.2-2.15,2.05-1.08,1-1.13,1-4.53,3.94c-3,2.6-6,5.25-9.15,7.79l-9.57,7.45-2.4,1.85c-.79.63-1.6,1.23-2.44,1.81l-5,3.51-5,3.49c-1.68,1.15-3.33,2.34-5.09,3.4l-10.44,6.49-2.62,1.61-2.69,1.5-5.4,3c-7.14,4.09-14.64,7.52-22,11.11-7.57,3.21-15.11,6.58-22.85,9.25Z"/><path class="cls-3" d="M946.49,2892.05l4.67-5.91c.79-1,1.54-2,2.28-3l2.23-3.12,4.51-6.23,4.29-6.55,2.16-3.27,1.08-1.63.54-.82.45-.75,3.63-6,3.43-6.14,3.23-6.26a224.81,224.81,0,0,0,18.46-53.25l148.38,31.14a375.55,375.55,0,0,1-31.08,89.61c-1.81,3.53-3.6,7.07-5.46,10.58l-5.81,10.41c-2,3.42-4.1,6.82-6.17,10.22l-.77,1.27-.77,1.16-1.52,2.33-3,4.65-6.13,9.27-6.57,9.16-3.29,4.57c-1.1,1.52-2.2,3-3.4,4.54l-7.06,9Z"/><path class="cls-4" d="M997.45,2789.06a211.43,211.43,0,0,0,4.33-55.58,190.39,190.39,0,0,0-10.49-52.89l142.85-50.83a341.94,341.94,0,0,1,19,95.29,361.76,361.76,0,0,1-7.33,95.15Z"/><path class="cls-5" d="M991.29,2680.59a173.32,173.32,0,0,0-10.63-24l-3.2-5.68c-1.15-1.83-2.29-3.68-3.42-5.53L970.4,2640l-.44-.66-.42-.52-.81-1-1.6-2.11a166.91,166.91,0,0,0-17.51-18.5l-5.36-4.78c-1.84-1.59-3.83-3.16-5.73-4.75-1-.79-1.89-1.59-2.9-2.38l-3-2.34-3.05-2.35c-1-.79-2-1.58-3.11-2.34l90.12-121.93c1.49,1.06,3,2.2,4.47,3.35l4.46,3.43,4.45,3.44c1.48,1.16,3,2.41,4.44,3.62,3,2.45,5.9,4.82,8.84,7.37l8.8,7.82a316.61,316.61,0,0,1,34.35,36.66l4.14,5.44,2,2.73,1,1.37.89,1.29c2.34,3.43,4.69,6.86,7,10.32l6.54,10.59c2.08,3.59,4.09,7.21,6.11,10.83a325.65,325.65,0,0,1,20.07,45.22Z"/><path class="cls-6" d="M926.42,2598.21l-6.4-4.63c-2.11-1.55-4.41-3-6.61-4.54-4.36-3.07-9.06-6-13.62-8.94l-7.06-4.33-3.54-2.16-3.62-2.11-7.25-4.21-7.4-4.1c-19.75-10.93-40.55-20.9-61.71-30.13L869.51,2394c25.16,11,50,22.86,74.47,36.38l9.18,5.09,9.14,5.31,4.57,2.67,4.54,2.77c3,1.86,6.07,3.69,9.09,5.58,6,3.91,12.08,7.67,18.08,11.85,3,2.07,6,4,9,6.2l9,6.48Z"/><path class="cls-7" d="M809.21,2533.06c-2.63-1.18-5.31-2.27-8-3.39s-5.33-2.26-8-3.34c-5.37-2.13-10.71-4.36-16.13-6.37-10.77-4.21-21.67-8-32.54-11.72s-21.81-7-32.67-10.06-21.67-5.8-32.22-8l31.88-148.23a778.71,778.71,0,0,1,81.1,22.54c13,4.44,26,9,38.78,14,6.43,2.4,12.75,5,19.12,7.55,3.18,1.29,6.33,2.64,9.49,4s6.33,2.63,9.47,4Z"/><path class="cls-1" d="M679.67,2490.14c-2.66-.61-5.23-1.06-7.85-1.6-1.3-.25-2.62-.54-3.9-.76l-3.81-.66-3.82-.66c-1.28-.23-2.47-.36-3.7-.55l-3.68-.53-1.9-.27-2.28-.29-37.79-4.71c-13.07-1.69-26.54-3.55-40.46-5.92s-28.25-5.2-43.08-9l37.28-147c9.66,2.45,20.13,4.57,31.13,6.43s22.56,3.49,34.55,5l37.43,4.66,2.43.31,2.79.39,5.7.81c1.89.29,3.84.53,5.67.85l5.52.95,5.52,1c1.84.33,3.6.7,5.41,1,3.57.73,7.22,1.39,10.72,2.19Z"/><path class="cls-3" d="M527.4,2465.24a351.22,351.22,0,0,1-46.11-14.92,241.56,241.56,0,0,1-48.87-26.69,185.9,185.9,0,0,1-45-45.9c-1.54-2.36-3-4.75-4.5-7.15s-2.95-4.81-4.21-7.31-2.59-5-3.85-7.5l-.93-1.88-.83-1.91-1.63-3.83c-1.06-2.55-2.17-5.12-3.11-7.7s-1.75-5.14-2.6-7.73l-1.24-3.88c-.41-1.29-.74-2.66-1.11-4-.7-2.67-1.42-5.42-1.93-7.93l148.06-32.64a11.25,11.25,0,0,0,.32,1.28,4.85,4.85,0,0,0,.14.58c.09.2.17.41.25.61.15.42.27.84.38,1.27s.35.7.48,1.07a25,25,0,0,0,2,3.76,6,6,0,0,1,.66.84,3.52,3.52,0,0,1,.28.46c.12.14.28.27.41.42a8,8,0,0,1,.74.91c.27.32.66.6,1,.93a25.49,25.49,0,0,0,2.16,2l.28.28.36.25.71.54.69.55a5.88,5.88,0,0,0,.75.57,91.77,91.77,0,0,0,17.63,9.36,200.65,200.65,0,0,0,26,8.29Z"/><path class="cls-4" d="M361.49,2316.92a231.11,231.11,0,0,1-4.24-27.82c-.77-8.13-1.17-15.13-1.57-20.9s-.81-10.42-1.28-13.81c-.1-1-.25-1.55-.35-2.31s-.25-1.28-.35-1.85c-.06-.26-.1-.62-.16-.8s-.12-.41-.17-.61-.07-.41-.14-.63-.15-.47-.22-.7a26.76,26.76,0,0,0-4.53-8.95,51.35,51.35,0,0,0-11.15-10l86.78-124.33a218.1,218.1,0,0,1,22.76,18.21,190.13,190.13,0,0,1,21.39,23.19,178.14,178.14,0,0,1,29.9,58.1l1.14,3.84c.36,1.29.69,2.64,1,4l1,4c.33,1.34.55,2.55.82,3.83.51,2.52,1.05,5.13,1.41,7.46s.82,4.88,1.08,7.05c1.24,9.13,1.84,17.11,2.32,23.93s.81,12.45,1.24,16.89a83.75,83.75,0,0,0,1.37,9.64Z"/><path class="cls-5" d="M337.33,2228.52a142.65,142.65,0,0,0-21.55-12c-8.7-4.05-18.68-8-29.46-12-21.62-8-46.34-16-73-26.58l56.21-140.82c10.12,4,21.07,8,32.67,12.1s23.9,8.35,36.8,13.12,26.46,10.1,40.68,16.69a293.47,293.47,0,0,1,44.44,25.16Z"/><path class="cls-6" d="M213.31,2177.94a447.76,447.76,0,0,1-41.51-18.83,287.42,287.42,0,0,1-43.38-27.52c-1.79-1.36-3.61-2.85-5.41-4.35s-3.63-2.95-5.37-4.54l-5.25-4.72-5.1-4.92a224.63,224.63,0,0,1-35-44.68,228.2,228.2,0,0,1-12.94-25l138.56-61.56a78.44,78.44,0,0,0,9.82,16.47,81.65,81.65,0,0,0,6.29,7c.58.55,1.14,1.11,1.71,1.67s1.21,1.06,1.8,1.61,1.26,1,1.87,1.57,1.24,1.06,2,1.59A138.27,138.27,0,0,0,242,2024.72a299.92,299.92,0,0,0,27.54,12.4Z"/><path class="cls-7" d="M59.34,2043.41a247.12,247.12,0,0,1-16.43-52q-2.58-13.08-3.87-26.09c-.88-8.66-1.27-17.24-1.37-25.76a325.84,325.84,0,0,1,14.59-97.45l145,44.28a174.46,174.46,0,0,0-8,51.88c.05,4.12.22,8.17.63,12.08s1,7.71,1.68,11.39a95.66,95.66,0,0,0,6.3,20.13Z"/><path class="cls-5" d="M452.21,2904.36C480,2909,506.45,2915,532,2921.23c12.75,3.12,25.32,6.33,37.66,9.52l36.58,9.45-37.66,146.87-36.82-9.51c-12.13-3.14-24-6.18-35.84-9.07-23.56-5.78-46.49-10.88-68.52-14.56Z"/><path class="cls-6" d="M606.21,2940.2c24.08,6.2,47.54,12,70.51,16.82s45.34,8.67,66.91,10.84L728.22,3118.7c-28.72-2.92-56.14-7.78-82.7-13.31s-52.1-11.93-77-18.32Z"/><path class="cls-7" d="M743.63,2967.86l4,.43,4,.32c2.66.2,5.35.46,8,.62l7.87.41,2,.1,1.94,0,3.87.09,3.87.1c1.29,0,2.54,0,3.82,0l7.59-.08c5-.25,10-.36,14.79-.85,2.43-.2,4.88-.35,7.23-.69l7.11-.86,6.95-1.14,1.74-.28c.57-.09,1.13-.23,1.69-.35l3.39-.71,3.39-.69c1.14-.2,2.2-.56,3.31-.83l6.59-1.69,6.42-2,1.61-.49c.53-.16,1-.38,1.56-.56l3.13-1.15,52,142.42-5.79,2.09c-1,.34-1.93.71-2.9,1l-2.92.91-11.69,3.6c-3.91,1.07-7.83,2-11.75,3.06-2,.48-3.93,1-5.89,1.43l-5.89,1.24c-7.87,1.77-15.69,2.95-23.53,4.21-3.91.52-7.8,1-11.7,1.44s-7.77.81-11.64,1.12c-7.76.73-15.39,1-23.05,1.3-3.79.09-7.57.1-11.35.14-1.89,0-3.8,0-5.66,0l-5.6-.12-5.61-.13-2.8-.07-2.76-.14-11-.59c-3.67-.21-7.27-.55-10.91-.83l-5.45-.44-5.37-.56Z"/><path class="cls-5" d="M896.36,1122.6l-3-1.1c-1-.36-2-.77-3-1-2.07-.61-4.12-1.25-6.17-1.91l-6.29-1.61c-.53-.13-1-.29-1.58-.4l-1.6-.32-3.2-.66c-1.07-.21-2.12-.49-3.2-.66l-3.26-.5c-2.17-.33-4.32-.77-6.54-.94s-4.39-.53-6.61-.71l-6.69-.43a215.4,215.4,0,0,0-27.4.61c-2.32.2-4.66.55-7,.8l-3.5.4-3.52.58c-2.34.41-4.69.7-7,1.16l-7.08,1.46L757.34,969.18l11.48-2.35c3.84-.75,7.76-1.31,11.64-2l5.84-.93,5.91-.72c3.95-.44,7.87-1,11.85-1.31a366.55,366.55,0,0,1,48.33-1.06l12.21.79c4.08.35,8.16.86,12.24,1.3s8.15,1.1,12.22,1.74l6.1,1c2,.34,4.06.8,6.09,1.2l6.08,1.27,3,.64c1,.22,2,.5,3,.75,4,1,8,2.05,12.06,3.12l11.94,3.68c2,.59,4,1.32,5.91,2l5.89,2.12Z"/><path class="cls-6" d="M789.61,1117.32c-2.36.41-4.73,1.12-7.1,1.69l-3.56.87-1.78.44-1.78.53-7.13,2.09-1.78.51-1.78.61-3.57,1.21c-9.52,3.07-19,7-28.48,11.1l-7.07,3.33c-2.36,1.11-4.73,2.17-7.07,3.43-4.68,2.44-9.4,4.71-14,7.41l-7,3.9c-2.32,1.33-4.61,2.77-6.92,4.15l-3.46,2.09-1.74,1-.86.52-.22.13-.07.05-.15.1c-.19.14-.38.27-.58.39l-.3.18-.43.32-.9.65-.46.31-.55.42-90.62-121.56,1.35-1,1.47-1.06,3-2.1,1.5-1,1.68-1.12,3.38-2.22.84-.55.43-.27.29-.17,1.16-.71,2.32-1.4,4.65-2.81c3.12-1.87,6.19-3.77,9.34-5.58l9.56-5.35c6.31-3.63,13-6.91,19.48-10.28,3.24-1.72,6.63-3.27,10-4.85L670.71,998c13.71-6,27.6-11.68,42.11-16.43l5.42-1.82,2.71-.9,2.76-.82,11.06-3.24,2.77-.8,2.82-.71,5.63-1.41c3.78-.91,7.49-1.94,11.35-2.67Z"/><path class="cls-7" d="M680.85,1164.79l-2.32,1.77-2.62,2.09L673,1171l-3,2.58c-4.18,3.56-8.62,7.46-13.37,11.65s-9.63,8.48-14.76,12.91-10.42,8.92-15.85,13.42c-11,9-22.59,18-35,26.69a407.3,407.3,0,0,1-39.61,24.45l-71.93-133.47a254.13,254.13,0,0,0,24.84-15.37c8.32-5.82,16.69-12.27,25.25-19.31,4.31-3.56,8.62-7.2,13.08-11.08s9-7.86,13.77-12,9.78-8.6,15.21-13.24l4.19-3.54,4.42-3.65,4.79-3.82c.76-.62,1.71-1.32,2.57-2l2.63-2Z"/><path class="cls-1" d="M551.41,1262.74a345.7,345.7,0,0,1-44.21,20,313.94,313.94,0,0,1-47.93,13.54l-1.54.32-1.67.31-3.37.6c-2.26.41-4.46.73-6.66,1s-4.41.63-6.55.86-4.35.53-6.46.7c-8.58.85-16.86,1.21-25.07,1.35a364.68,364.68,0,0,1-47.74-2.53l17.65-150.59a216.6,216.6,0,0,0,27.9,1.52c4.43-.09,8.78-.26,12.78-.68,1-.06,2-.22,2.95-.32s1.93-.23,2.84-.37,1.87-.26,2.7-.43l1.3-.22.66-.12.78-.17a176.72,176.72,0,0,0,49.71-18.33Z"/><path class="cls-3" d="M360.21,1299a408.71,408.71,0,0,1-45.79-8.06c-7.52-1.72-14.94-3.76-22.35-5.87s-14.74-4.53-22-7.14a400.46,400.46,0,0,1-42.92-18,381.86,381.86,0,0,1-41.08-23.26l82.79-127a230,230,0,0,0,24.85,14,250.32,250.32,0,0,0,27,11.3c4.62,1.67,9.33,3.12,14,4.56s9.5,2.66,14.31,3.75a257.74,257.74,0,0,0,28.83,5.09Z"/><path class="cls-4" d="M186.07,1236.66a362.53,362.53,0,0,1-38.46-28.89A331.73,331.73,0,0,1,113,1173.09a313.83,313.83,0,0,1-52.22-84.33l139.83-58.62a166.15,166.15,0,0,0,11.83,23,169.46,169.46,0,0,0,15.45,21,179.27,179.27,0,0,0,18.89,18.9,212.93,212.93,0,0,0,22.12,16.59Z"/><path class="cls-5" d="M60.74,1088.76a336.93,336.93,0,0,1-24-94.45,391,391,0,0,1-2.16-47L35,935.71c.05-1.94.17-3.84.29-5.75l.36-5.72.19-2.86c.06-1,.12-1.9.22-2.92l.58-6c.21-2,.36-4,.64-6l.8-6.09,150.21,20.59-.44,3.31c-.17,1.09-.22,2.25-.35,3.38l-.33,3.4c-.07.54-.1,1.17-.14,1.8l-.11,1.87-.24,3.73c-.09,1.25-.18,2.49-.19,3.72l-.23,7.38a238.21,238.21,0,0,0,1.3,28.64,185.57,185.57,0,0,0,13,52Z"/><path class="cls-6" d="M38.05,900.29a307.4,307.4,0,0,1,10.78-49.16,272,272,0,0,1,20.32-48.47,260,260,0,0,1,68.4-81l93.84,119.09A110.14,110.14,0,0,0,215,856.51a102.25,102.25,0,0,0-12.44,18.21,120.64,120.64,0,0,0-8.92,21.35,157.6,157.6,0,0,0-5.37,24.81Z"/><path class="cls-7" d="M137.55,721.69a291.69,291.69,0,0,1,42.67-27.89,337,337,0,0,1,44.4-19.87c29.8-10.95,59.53-17.64,88.73-21.9l21.77,150.05c-20.78,3-40.59,7.66-58.24,14.18a185.47,185.47,0,0,0-24.76,11,140.53,140.53,0,0,0-20.73,13.49Z"/><path class="cls-1" d="M313.35,652a608.08,608.08,0,0,1,86.29-6,785.4,785.4,0,0,1,83.75,4.47L467.54,801.26A636.4,636.4,0,0,0,400,797.62a457.59,457.59,0,0,0-64.84,4.46Z"/><path class="cls-3" d="M483.39,650.47q20.67,2.16,41.07,5.28,10.21,1.54,20.36,3.33c3.38.57,6.75,1.22,10.13,1.83l9.38,1.74c24.35,4.55,48.17,8.75,71.51,12.07L614.47,824.83c-26.7-3.81-52.66-8.41-78-13.14L527.22,810c-2.83-.51-5.67-1.06-8.51-1.53q-8.52-1.5-17.05-2.79-17.07-2.6-34.12-4.39Z"/><path class="cls-4" d="M635.84,674.72c23.33,3.33,46.19,5.79,68.43,6.89,1.4.1,2.79.16,4.16.19l4.13.12,8.27.26,16.3,0c5.34-.22,10.71-.33,16-.6L761,681c2.61-.21,5.28-.29,7.83-.65l14.88,150.89c-3.72.47-7.37.64-11.05.93l-11,.79c-7.32.38-14.58.56-21.87.82-7.2,0-14.43.06-21.6,0l-10.68-.32-5.34-.17c-1.78,0-3.56-.12-5.31-.24-28.24-1.4-55.68-4.42-82.37-8.22Z"/><path class="cls-5" d="M768.84,680.37c10.34-1.09,20.52-2.46,30.4-4.45l7.4-1.51,1.85-.37.45-.09.33-.09.66-.19,2.66-.72,2.67-.67c.88-.26,1.72-.6,2.59-.89l2.59-.85,1.3-.42c.43-.15.84-.35,1.26-.52,1.67-.72,3.36-1.39,5.06-2.05,1.63-.84,3.27-1.64,4.93-2.42a19.07,19.07,0,0,0,2.43-1.31l2.42-1.37c.8-.48,1.64-.84,2.42-1.38l2.36-1.57L845,658a10.36,10.36,0,0,0,1.17-.83l1.16-.87,2.32-1.71a24.12,24.12,0,0,0,2.31-1.78q2.26-1.92,4.57-3.78l4.43-4.15L966.09,754.12c-3.13,2.93-6.26,5.87-9.44,8.75s-6.66,5.59-10,8.35c-1.64,1.4-3.42,2.7-5.18,4l-5.29,3.92-2.66,2c-.88.65-1.77,1.29-2.71,1.89l-5.56,3.64-5.58,3.61c-1.86,1.2-3.85,2.25-5.77,3.38l-5.83,3.29c-1.95,1.1-3.89,2.19-5.92,3.15q-6,3-12.12,5.87c-4.14,1.75-8.31,3.46-12.48,5.14-1,.41-2.08.85-3.14,1.24l-3.19,1.09-6.39,2.15c-2.14.7-4.26,1.45-6.41,2.08l-6.5,1.75-6.5,1.7-1.63.42-.81.21-.71.15-2.79.58-11.17,2.29-5.59,1.13c-1.86.36-3.72.62-5.58.92L806,828.54c-1.86.27-3.73.61-5.58.83l-5.56.64-11.11,1.25Z"/><path class="cls-6" d="M861,644.86a170.39,170.39,0,0,0,16.86-19.16,226.28,226.28,0,0,0,14.84-23.17l3.36-6.31c.59-1,1.07-2.16,1.61-3.24l1.58-3.28,1.59-3.27,1.46-3.39c1-2.27,2-4.47,2.93-6.79,3.78-9.19,7-18.82,10.07-28.6l145.32,43.25c-4.39,14.37-9.28,28.69-15.11,42.88-1.41,3.55-3,7.08-4.55,10.61l-2.33,5.3-2.52,5.26-2.55,5.26c-.86,1.75-1.66,3.51-2.61,5.24l-5.55,10.42a374,374,0,0,1-26.08,40.58,322,322,0,0,1-33.19,37.67Z"/><path class="cls-7" d="M915.26,547.65c1.35-5,2.88-9.89,4-15,.6-2.53,1.3-5,1.83-7.59l1.64-7.69c2-10.32,3.85-20.75,5-31.36l.5-4c.17-1.33.26-2.66.39-4l.76-8,.54-8,.27-4,.16-4,.31-8.06.09-8.07,0-4-.07-4-.13-8.08,151.55-4.61.19,10.87.08,5.43,0,5.44-.13,10.88-.41,10.88-.23,5.44-.35,5.45c-.25,3.63-.47,7.25-.75,10.88l-1,10.88c-.19,1.82-.33,3.63-.55,5.44l-.66,5.44c-1.66,14.51-4.13,29-7,43.47L1069,558.47c-.76,3.61-1.73,7.22-2.59,10.83-1.69,7.22-3.85,14.41-5.85,21.6Z"/><g id="Rectangle_186" data-name="Rectangle 186"><rect class="cls-8" x="925.81" y="8797.21" width="102.21" height="163.3" transform="translate(-7908.49 9794.29) rotate(-89.6)"/><rect class="cls-9" x="927.57" y="8798.97" width="98.68" height="159.77" transform="translate(-7908.49 9794.29) rotate(-89.6)"/></g><g id="END" class="cls-10"><text class="cls-11" transform="matrix(1, 0.01, -0.01, 1, 953.14, 8885.79)">END</text></g><polygon class="cls-8" points="1154.2 419.43 35.48 437.43 35.48 68.86 1154.2 68.86 1154.2 419.43"/><path id="Path_34" data-name="Path 34" class="cls-12" d="M933.51,422.94,1010,488.88l78.56-69.28-34.89.75L1051.6,324l-85.77,1.84,2.08,96.37Z"/><g id="START" class="cls-10"><text class="cls-13" transform="translate(1014.59 410.95) rotate(-90.23)">START</text></g></svg>