<svg id="Layer_1" data-name="Layer 1" xmlns="http://www.w3.org/2000/svg" viewBox="0 0 1195.52 9391.87"><defs><style>.cls-1{fill:#60a353;}.cls-2{fill:#f388b2;}.cls-3{fill:#f3714a;}.cls-4{fill:#4f8ecb;}.cls-5{fill:#f1d54b;}.cls-6{fill:#93479b;}.cls-7{fill:#ef4043;}.cls-12,.cls-8{fill:#fff;}.cls-9{fill:none;stroke-width:3px;}.cls-12,.cls-9{stroke:#707071;}.cls-10,.cls-11,.cls-13{isolation:isolate;}.cls-11{font-size:18.8px;letter-spacing:0.05em;}.cls-11,.cls-13{font-family:OpenSans-Bold, Open Sans;font-weight:700;}.cls-12{stroke-width:3px;}.cls-13{font-size:18.8px;letter-spacing:0.05em;}</style></defs><path class="cls-1" d="M399.28,6417.6a376.39,376.39,0,0,1-40.95,12.82c-6.95,1.77-14.5,3.33-22.08,4.73-3.9.63-7.78,1.25-11.7,1.82s-8.13.88-12.19,1.28-8.45.48-12.67.67c-4.36,0-8.76,0-13.14-.09-4.53-.28-9-.53-13.58-1l-6.93-.92c-2.31-.32-4.61-.63-7-1.13-4.68-.95-9.33-1.82-14-3.19q-3.51-1-7-2c-2.31-.76-4.62-1.57-6.91-2.39-4.63-1.55-9.08-3.54-13.54-5.5-2.26-.95-4.37-2.09-6.52-3.17s-4.3-2.21-6.4-3.36l68.57-122.33a37.8,37.8,0,0,0,11.31,4,9.48,9.48,0,0,0,1.69.27c.59.06,1.17.15,1.76.25,1.24.12,2.6.14,3.9.3,1.46,0,2.9,0,4.39,0s3.19-.18,4.83-.25c1.75-.22,3.49-.4,5.24-.56s3.74-.61,5.62-.88c3.9-.76,7.81-1.51,12.19-2.63a237.34,237.34,0,0,0,25.92-8.14Z"/><path class="cls-2" d="M204.71,6416.19a193.15,193.15,0,0,1-23.15-15.42c-1.75-1.38-3.59-2.75-5.25-4.16l-4.93-4.24-2.45-2.14-2.3-2.15-4.54-4.33c-.77-.73-1.49-1.45-2.18-2.17l-2.1-2.18-4.18-4.37-3.89-4.35-1.93-2.18-1-1.09-.9-1.08c-4.87-5.78-9.44-11.54-13.65-17.19-8.44-11.32-15.78-22.3-22.64-33s-13.19-21-19.35-31l119.54-73.33c6.06,9.88,12,19.47,17.76,28.48s11.49,17.44,17,24.85c2.77,3.73,5.49,7.11,8.14,10.27l.5.61.49.54,1,1.1,1.94,2.19,1.89,2,.94,1a11.39,11.39,0,0,0,.92.92,66.2,66.2,0,0,0,12.86,10.1Z"/><path class="cls-1" d="M904.55,3928.91c-9.4-3.08-19.1-5.86-29.1-8.42s-20.33-4.84-30.92-7c-21.22-4.35-43.53-8-67.66-12.39l25.39-137.91c21.84,4,45.69,7.87,70.27,12.89,12.3,2.51,24.81,5.29,37.45,8.5s25.43,6.87,38.24,11.07Z"/><path class="cls-3" d="M776.87,3901.1c-11.59-2.15-23.53-4.44-36.38-7.52-3.17-.74-6.5-1.61-9.78-2.45s-6.7-1.82-10.19-2.89c-6.95-2.09-14.13-4.45-21.81-7.55-1.91-.75-3.9-1.62-5.83-2.45l-1.47-.63-1.5-.69-3.21-1.51c-2.41-1.1-4.92-2.47-7.37-3.77-1.22-.66-2.45-1.32-3.66-2l-3.58-2.14a140.76,140.76,0,0,1-26.22-20.37,122,122,0,0,1-27.45-41l-.79-1.92c-.26-.64-.48-1.3-.71-1.95l-1.35-3.93-.65-2a17.46,17.46,0,0,1-.65-2l-1.16-4c-.94-4.17-2-8.31-2.84-12.5l137.31-28.76h0l0,0s-.08,0,.06.06l.58.28.38.18.47.19c.63.26,1.19.53,1.88.8,2.65,1.08,6.08,2.22,9.8,3.35,1.84.57,3.89,1.11,5.9,1.67s4.19,1.09,6.45,1.61c8.84,2.13,18.8,4.08,29.15,6Z"/><path class="cls-4" d="M610.27,3777.84l-1.31-7.42c-.4-2.12-.63-4.06-.9-6.06l-.78-6c-.22-2-.38-3.8-.56-5.71s-.38-3.84-.5-5.63l-.35-5.39-.18-2.69-.12-2.57-.22-5.09c-.51-13.39-.54-24.84-1-34.56a152.09,152.09,0,0,0-2.49-23.41l-.52-2-.23-1a10.18,10.18,0,0,0-.27-1.05c-.48-1.47-.85-3-1.39-4.37a63.27,63.27,0,0,0-3.25-7.83l125.5-62.57A203.16,203.16,0,0,1,732,3619c1.5,4.13,2.66,8.22,3.89,12.34.31,1,.58,2.1.85,3.18l.8,3.25c.52,2.15,1.07,4.34,1.53,6.47a286,286,0,0,1,5.41,46.18c.62,13.64.64,25.57,1.05,35.53l.16,3.67.08,1.81.12,1.68.21,3.36c.07,1.12.2,2.05.28,3.09s.18,2.06.29,3l.37,2.72c.12.9.21,1.86.38,2.61l.22,1.21s0,0,0,0Z"/><path class="cls-5" d="M596.19,3657c-.32-.59-.62-1.18-.92-1.79s-.67-1.13-1-1.7l-.48-.86-.54-.81c-.37-.54-.68-1.11-1.06-1.64a67.76,67.76,0,0,0-4.88-6.18,80.71,80.71,0,0,0-6.13-5.9c-2.32-1.93-4.87-3.86-7.65-5.76-11.25-7.61-27.13-14.51-45.37-20.17l41.67-133.9c6.61,2.09,13.25,4.26,20,6.78,3.35,1.2,6.76,2.57,10.14,3.89l5.12,2.13c1.71.7,3.41,1.43,5.14,2.21,6.84,3,13.78,6.44,20.7,10.13s13.88,7.93,20.76,12.49A239.2,239.2,0,0,1,672,3531.32a217.43,217.43,0,0,1,19.08,18.43,207.93,207.93,0,0,1,16.84,21.3c1.29,1.87,2.5,3.79,3.73,5.7l1.83,2.88,1.72,2.93c1.13,2,2.29,3.92,3.35,5.91l3.11,6Z"/><path class="cls-6" d="M528.18,3612.23c-18.32-5.69-38.88-10.28-60.54-14.43s-44.51-7.92-68.16-12.15l24.71-138c22.36,4,45.68,7.83,69.9,12.47s49.41,10.1,75.76,18.25Z"/><path class="cls-7" d="M399.48,3585.65c-11.82-2.11-23.87-4.36-36.13-6.87s-24.73-5.27-37.44-8.51-25.62-6.91-38.76-11.36l-4.93-1.68-5-1.79c-3.3-1.16-6.64-2.5-10-3.77l-9.73-4c-3.23-1.36-6.39-2.81-9.58-4.22l58-127.7c2.16.94,4.3,1.95,6.46,2.85l6.48,2.67c2.15.8,4.22,1.66,6.44,2.43l3.29,1.19L332,3426c9,3.05,18.58,5.79,28.53,8.33s20.29,4.84,30.93,7,21.55,4.22,32.74,6.22Z"/><path class="cls-1" d="M248,3543.45q-19-8.67-37-19t-35-22.2q-17-11.94-33-25.5a395.23,395.23,0,0,1-30.73-29L213.72,3351c25.24,26.46,57.89,49.15,92.24,64.78Z"/><path class="cls-3" d="M112.25,3447.76a377.26,377.26,0,0,1-28-32.91,318.67,318.67,0,0,1-24.37-37.29,292.51,292.51,0,0,1-19.3-42,261.32,261.32,0,0,1-12.29-46.32l138.32-23.05c2.37,14,7.67,28.56,15.7,43s18.83,28.56,31.4,41.8Z"/><path class="cls-4" d="M28.3,3289.25a242.17,242.17,0,0,1-3.2-48.69,275.64,275.64,0,0,1,5.66-46.75c6.21-30.15,16.86-57.78,29.8-83.34l125,63.59c-8.15,16.09-14.3,32.55-17.47,48.23a135.82,135.82,0,0,0-2.81,22.76,102.47,102.47,0,0,0,1.36,21.15Z"/><path class="cls-5" d="M60.56,3110.47a381.33,381.33,0,0,1,21.31-36.8q11.53-17.65,24.57-34a440.21,440.21,0,0,1,58-59.81l90.87,106.81a301.36,301.36,0,0,0-39.47,40.68c-5.92,7.38-11.41,15-16.51,22.84a243.49,243.49,0,0,0-13.83,23.83Z"/><path class="cls-6" d="M164.48,2979.9a413.56,413.56,0,0,1,33.61-25.78l9-5.95c3-1.94,6.13-3.82,9.21-5.72s6.3-3.67,9.46-5.5l2.38-1.36c.81-.45,1.78-.93,2.66-1.39l5.42-2.78A249.29,249.29,0,0,1,281,2913.87a295.91,295.91,0,0,1,45.37-9.11L343.06,3044a155.07,155.07,0,0,0-23.31,4.65,108.29,108.29,0,0,0-20.35,7.95l-2.39,1.2c-.42.21-.77.36-1.23.62l-1.43.82c-1.89,1.12-3.8,2.12-5.69,3.31l-5.68,3.52-5.64,3.75a276.63,276.63,0,0,0-22,16.89Z"/><path class="cls-7" d="M326.38,2904.76a378.54,378.54,0,0,1,43.75-2.38c14.16.16,28,1,41.46,2.26s26.53,3.13,39.3,5.27,25.3,4.51,37.51,7.14l-29,137.19c-10.64-2.3-21.06-4.24-31.36-6s-20.32-3-30.18-4.07-19.32-1.45-28.53-1.58a239.05,239.05,0,0,0-26.22,1.39Z"/><path class="cls-1" d="M120,4744.41q.84-2.91,1.74-5.82l.45-1.45.23-.72.16-.72.67-2.87.7-2.86a27.11,27.11,0,0,0,.62-2.86q.48-2.85,1-5.68a154.41,154.41,0,0,0,1.62-23.16,220.81,220.81,0,0,0-2.25-26l-.53-3.55c-.19-1.19-.33-2.33-.57-3.61l-1.3-7.48-1.49-7.85-.79-4-.83-4.14,137.51-27.54.89,4.46.89,4.56,1.78,9.37,1.7,9.79c.29,1.6.53,3.36.79,5.05l.77,5.12a356.49,356.49,0,0,1,3.65,43.86A293.42,293.42,0,0,1,264.1,4743L262,4754.61c-.32,1.94-.77,3.82-1.22,5.71l-1.35,5.66-1.37,5.65-.35,1.41-.41,1.38-.81,2.74-3.33,11Z"/><path class="cls-3" d="M119.4,4641.65c-2.21-11.13-4.71-23-7-35.84s-4.3-26.36-5.68-40.39c-.31-3.53-.56-7.09-.83-10.64-.12-1.78-.3-3.53-.36-5.34l-.21-5.41-.19-5.41-.09-2.71c0-.9,0-1.81,0-2.72l.06-10.91a353.62,353.62,0,0,1,3.66-43.48l138.79,20.1a211,211,0,0,0-2.24,26.34l0,6.62c0,.55,0,1.1,0,1.65l.07,1.68.13,3.35.12,3.35c0,1.11.16,2.26.23,3.39l.52,6.84c.93,9.24,2.33,18.84,4.13,29s4.11,21.18,6.46,33Z"/><path class="cls-4" d="M108.75,4478.8l.79-5.37c.28-1.8.5-3.52.88-5.47l1.06-5.7,1.19-5.68c1.69-7.57,3.61-15.11,5.94-22.58a270.38,270.38,0,0,1,17.8-43.84,256.38,256.38,0,0,1,25.93-40.62,248.51,248.51,0,0,1,33.54-35.26l91.71,106.09a112,112,0,0,0-26.43,33.86,130.34,130.34,0,0,0-8.53,21.05c-1.17,3.68-2.1,7.49-3,11.32l-.62,2.89-.53,2.93c-.2.91-.33,2.09-.49,3.17l-.48,3.31Z"/><path class="cls-5" d="M195.88,4314.28c3-2.69,6.23-5.2,9.38-7.75l4.84-3.67,2.43-1.81,2.47-1.75c6.57-4.72,13.4-9,20.31-13a270.91,270.91,0,0,1,42.89-19.84,302.49,302.49,0,0,1,44-12.18,348,348,0,0,1,43.64-5.67l9.41,139.92a206.3,206.3,0,0,0-25.85,3.32,161.84,161.84,0,0,0-23.49,6.47,132.3,132.3,0,0,0-20.69,9.52c-3.15,1.89-6.29,3.78-9.2,5.9l-1.11.77-1.07.82-2.15,1.62c-1.37,1.15-2.81,2.21-4.13,3.42Z"/><path class="cls-6" d="M365.87,4248.61a432,432,0,0,1,83.61,3c13.48,1.7,26.67,4,39.68,6.66s25.8,5.71,38.36,9.15l-36.65,135.36c-10-2.74-19.94-5.09-29.83-7.12s-19.74-3.75-29.46-5a293,293,0,0,0-56.3-2.13Z"/><path class="cls-7" d="M527.52,4267.38q18.86,5.11,37.15,11.15c6.13,2,12.13,4.12,18.17,6.21l9,3.26c3,1.1,6,2.19,8.92,3.34l8.87,3.42c2.95,1.15,5.86,2.35,8.79,3.52l4.39,1.78,3.41,1.35c.95.36,1.82.75,2.81,1.1l2.94,1.07a253.58,253.58,0,0,0,26.12,7.54l-31.93,136.55a392.92,392.92,0,0,1-41.19-12l-5.3-1.94c-1.76-.64-3.58-1.39-5.36-2.08l-8.47-3.4c-2.49-1-5-2-7.47-3l-7.49-2.89c-2.5-1-5-1.89-7.5-2.8l-7.49-2.73c-5-1.72-10-3.52-15-5.12-10-3.33-20-6.3-30-9Z"/><path class="cls-1" d="M658.07,4311.12a438.86,438.86,0,0,0,59.43,9.14,600.35,600.35,0,0,0,62.64,2.1l2.49,140.22a741.92,741.92,0,0,1-77.45-2.63,574.34,574.34,0,0,1-79-12.28Z"/><path class="cls-3" d="M780.14,4322.36a613.84,613.84,0,0,0,62.73-4.29,498.45,498.45,0,0,0,60.42-11l33.93,136.07a639.1,639.1,0,0,1-77.47,14.1,754.11,754.11,0,0,1-77.12,5.3Z"/><path class="cls-4" d="M903.29,4307.11c19.38-4.83,37.92-10.94,54.22-18.34a189.92,189.92,0,0,0,22.28-11.92c3.25-2.12,6.41-4.23,9.15-6.4a89.07,89.07,0,0,0,7.52-6.42l97.2,101.09a228.42,228.42,0,0,1-19.09,16.38c-6.46,5-13,9.48-19.55,13.7a328.85,328.85,0,0,1-39.45,21.22c-26.29,11.91-52.41,20.25-78.35,26.76Z"/><path class="cls-5" d="M1039.46,4173.25c.61-2.27,1.08-4.58,1.64-6.86l.81-3.43c.26-1.15.45-2.3.68-3.45l1.37-6.9,1.1-6.92c.18-1.16.41-2.31.54-3.46l.42-3.46c.26-2.31.63-4.62.82-6.92l.6-6.9.15-1.73.08-1.72.17-3.44c.33-4.59.22-9.12.33-13.67l-.19-6.77c0-1.12,0-2.25-.1-3.37l-.24-3.33a201.75,201.75,0,0,0-3.28-26.08l137.72-26.43a339.72,339.72,0,0,1,5.5,43.43l.36,5.41c.1,1.8.13,3.59.19,5.38.1,3.59.22,7.18.27,10.77-.08,7.13,0,14.29-.49,21.36l-.27,5.32-.13,2.65-.22,2.65-.92,10.55c-.31,3.52-.82,7-1.23,10.49l-.66,5.24c-.21,1.75-.53,3.47-.79,5.21l-1.68,10.38-2,10.3c-.35,1.72-.67,3.44-1,5.15l-1.18,5.1c-.81,3.39-1.55,6.81-2.44,10.18Z"/><path class="cls-2" d="M996.46,4264c.53-.54,1.06-1.06,1.59-1.58s1-1,1.45-1.55c1-1,1.74-2,2.62-3,.39-.49.71-1,1.09-1.45l.55-.7.45-.71.47-.68.24-.34.12-.17.22-.36,1.78-2.94a256.41,256.41,0,0,0,13.23-24.36l3-6.34,2.75-6.47c.46-1.08.94-2.15,1.38-3.24l1.26-3.29c.82-2.2,1.73-4.37,2.51-6.59,1.51-4.46,3.15-8.88,4.45-13.41,1.47-4.48,2.61-9.05,3.86-13.59L1175.33,4208c-1.82,6.74-3.57,13.5-5.71,20.14-2,6.69-4.32,13.26-6.61,19.85-1.16,3.29-2.47,6.53-3.71,9.8l-1.89,4.88c-.65,1.63-1.36,3.23-2,4.84l-4.14,9.65-4.45,9.54a395,395,0,0,1-20.23,37.21l-2.78,4.55-.35.57-.49.74-1,1.48-2,3-2,2.93-2.07,2.8c-1.4,1.85-2.79,3.73-4.22,5.52-2.89,3.5-5.8,7.06-8.83,10.26-1.51,1.62-3,3.33-4.56,4.83l-4.63,4.6Z"/><path class="cls-6" d="M1044.36,4064.84a165.84,165.84,0,0,0-15.91-46.44c-1-1.7-1.88-3.42-2.8-5.14l-3.06-4.89a55.56,55.56,0,0,0-3.22-4.74c-1.12-1.53-2.1-3.18-3.36-4.59s-2.36-2.94-3.52-4.43l-3.78-4.18c-.64-.68-1.21-1.43-1.9-2.08l-2-1.95-2-2-1-1c-.34-.34-.81-.73-1.2-1.09l94.29-103.8c.68.62,1.33,1.17,2,1.85l2.14,2.06,4.26,4.16,4.23,4.18c1.42,1.39,2.7,2.9,4,4.35,2.66,2.94,5.35,5.87,7.94,8.86l7.43,9.26c2.52,3.06,4.7,6.33,7,9.53s4.58,6.43,6.6,9.78,4.16,6.64,6.19,10l5.63,10.24a305.39,305.39,0,0,1,29.69,85.61Z"/><path class="cls-7" d="M1000.58,3982.34c-26.19-23.85-58.38-41.19-96-53.43l43.67-133.26a440.46,440.46,0,0,1,76.38,32.83,369.48,369.48,0,0,1,70.27,50.06Z"/><path class="cls-1" d="M1033.28,5540.79l0-3.28,0-1.64-.08-1.65-.26-6.6-.06-1.64-.15-1.66-.3-3.31-.28-3.32-.13-1.66-.23-1.66-.88-6.65-.21-1.66-.3-1.66-.59-3.33-.59-3.33c-.18-1.12-.37-2.23-.65-3.34l-1.47-6.66c-.43-2.23-1.12-4.44-1.69-6.66l-.87-3.33c-.29-1.11-.56-2.22-.93-3.32-1.41-4.42-2.63-8.87-4.29-13.26-3-8.84-6.71-17.55-10.56-26.24l127.37-58.68c5.68,12.65,11.11,25.46,15.62,38.78,2.41,6.57,4.39,13.37,6.47,20.11.54,1.67,1,3.39,1.44,5.11l1.37,5.14c.88,3.44,1.87,6.83,2.6,10.34l2.31,10.45c.4,1.74.73,3.5,1,5.27l1,5.3.93,5.3.45,2.65.36,2.68,1.42,10.73.34,2.69.25,2.7.47,5.42.47,5.42.22,2.71.12,2.73.44,10.92.11,2.73v2.74l0,5.49Z"/><path class="cls-3" d="M1008.81,5434.93l-3.11-6.46-1.55-3.23-1.68-3.2-3.34-6.39-3.59-6.32-1.78-3.16c-.6-1.06-1.27-2.08-1.9-3.12l-3.8-6.24c-1.29-2.07-2.68-4.09-4-6.14s-2.63-4.12-4.09-6.11c-2.84-4-5.6-8.08-8.63-12-1.5-2-2.92-4-4.47-5.91l-4.63-5.8c-1.52-2-3.13-3.85-4.74-5.73l-4.82-5.69-5-5.55-2.49-2.78c-.84-.92-1.72-1.8-2.57-2.71l102.12-96.11c1.15,1.22,2.32,2.42,3.45,3.65l3.37,3.74,6.72,7.49,6.53,7.68c2.18,2.56,4.35,5.12,6.43,7.77l6.29,7.9c2.1,2.64,4.08,5.38,6.12,8.07,4.1,5.35,7.95,10.92,11.84,16.47,2,2.74,3.79,5.62,5.67,8.45s3.75,5.65,5.55,8.54l5.34,8.72c.88,1.46,1.79,2.9,2.64,4.38l2.54,4.46,5,8.94,4.79,9.13,2.39,4.57,2.26,4.66,4.47,9.34Z"/><path class="cls-4" d="M942.61,5338.4a406.88,406.88,0,0,0-44.08-40.47l-5.88-4.62-6-4.44-3-2.23-3.06-2.12-6.1-4.27-6.21-4.07-3.1-2c-.55-.38-.94-.58-1.37-.83l-1.27-.74-5.06-3q-2.62-1.32-5.22-2.69l63-125.29,10.33,5.4c3.36,1.94,6.69,3.93,10,5.92l2.49,1.5c.83.49,1.71,1,2.37,1.46l4.23,2.76,8.44,5.56,8.27,5.76,4.14,2.89,4,3,8.08,6,7.92,6.2a546.37,546.37,0,0,1,59.12,54.28Z"/><path class="cls-5" d="M852.27,5266.85c-1.7-1-3.53-1.71-5.31-2.52l-2.68-1.22c-.45-.2-.88-.43-1.34-.61l-1.39-.52c-1.85-.7-3.69-1.41-5.53-2.15s-3.81-1.21-5.7-1.85a158.82,158.82,0,0,0-24-5.57,197.76,197.76,0,0,0-26.07-2.36l-3.37-.12h-3.44c-2.3,0-4.56,0-6.89.05l-7,.27c-1.16,0-2.34.11-3.53.21l-3.57.26-10.26-139.86,5.18-.37c1.72-.13,3.45-.24,5.21-.3l10.51-.4c3.51-.12,7.09-.06,10.63-.09H779l5.39.17a337,337,0,0,1,43.7,4,299,299,0,0,1,44.2,10.3c3.66,1.19,7.32,2.35,11,3.62l10.82,4.16,2.7,1.06c.9.36,1.78.78,2.67,1.16l5.31,2.38c3.53,1.61,7.09,3.16,10.51,5Z"/><path class="cls-6" d="M752.42,5250.73c-4.71.25-9.58.89-14.39,1.33l-7.33,1c-1.22.17-2.43.3-3.67.5l-3.7.59c-9.85,1.48-19.9,3.52-30,5.73l-7.61,1.75c-2.54.59-5.11,1.26-7.66,1.89-5.09,1.21-10.26,2.68-15.39,4-10.33,2.9-20.69,5.9-31.17,9.25L589.37,5143c11.79-3.76,23.87-7.28,36-10.69,6.16-1.63,12.25-3.34,18.52-4.86,3.12-.77,6.21-1.57,9.36-2.3l9.48-2.18c12.72-2.79,25.59-5.39,38.85-7.4l5-.79c1.65-.26,3.35-.45,5-.68l10-1.32c6.82-.68,13.55-1.51,20.51-1.92Z"/><path class="cls-7" d="M631.49,5276.77q-15.69,4.93-31.61,10.43c-10.6,3.62-21.32,7.43-32.11,11.3l-16.28,5.88-8.5,3.06-8.84,3.14c-11.85,4.1-23.79,8.05-35.9,11.74l-41-134.11c10.25-3.13,20.5-6.52,30.74-10.06l7.68-2.72,8-2.88,16.69-6c11.21-4,22.52-8,34-12s23.15-7.81,35-11.53Z"/><path class="cls-1" d="M498.25,5322.32c-12.13,3.67-24.34,7.21-36.8,10.36-6.18,1.64-12.49,3.08-18.75,4.59-3.15.72-6.34,1.39-9.5,2.09s-6.34,1.38-9.56,2l-9.61,1.89-9.72,1.69-4.87.84-4.92.73-9.84,1.45c-6.66.8-13.24,1.72-20,2.3-3.37.3-6.7.68-10.1.91l-10.21.68-7.94-140,7.28-.48c2.43-.16,4.9-.46,7.35-.67,4.89-.39,9.88-1.13,14.83-1.7l7.5-1.11,3.75-.55,3.77-.66,7.55-1.31,7.59-1.49c2.52-.47,5.06-1,7.6-1.59l7.62-1.67c5.1-1.24,10.19-2.38,15.3-3.75,10.21-2.57,20.45-5.55,30.69-8.64Z"/><path class="cls-3" d="M344.37,5351.84c-13.71.69-27.55,1.06-41.74.41l-5.29-.19-5.36-.37c-3.58-.27-7.13-.46-10.73-.82l-10.81-1.2-2.71-.32-2.73-.41-5.45-.84-5.46-.86c-1.81-.28-3.65-.7-5.48-1-3.66-.75-7.31-1.45-11-2.26l-11-2.77-2.75-.71c-.92-.25-1.84-.54-2.76-.82l-5.5-1.68-5.5-1.7c-1.83-.56-3.66-1.28-5.49-1.93-3.65-1.34-7.3-2.63-10.93-4.07l-10.84-4.66-2.7-1.19-2.67-1.32-5.33-2.66,63.46-125.06,2.5,1.27,1.25.65,1.32.55q2.65,1.11,5.26,2.28c1.81.71,3.68,1.33,5.5,2,.93.33,1.81.73,2.78,1l2.88.87,2.87.89c.48.15.95.31,1.44.45l1.5.36,6,1.52c2.05.44,4.14.82,6.2,1.25,1,.2,2.05.46,3.12.62l3.21.48,3.21.5,1.6.26,1.65.18,6.6.74c2.21.23,4.5.32,6.75.5l3.39.26,3.46.1c9.16.46,18.72.17,28.35-.29Z"/><path class="cls-4" d="M172.15,5320.43l-5.31-2.69c-1.76-.92-3.48-2-5.22-2.94-3.45-2-6.94-4-10.33-6.11s-6.71-4.43-10-6.67c-.83-.57-1.67-1.11-2.49-1.7l-2.41-1.81-4.81-3.65-4.79-3.68c-1.58-1.24-3.07-2.59-4.61-3.89-3-2.63-6.1-5.24-9-7.94-5.7-5.57-11.61-11.22-16.55-16.93-5.27-5.64-10-11.63-14.74-17.57-4.49-6.08-9.07-12.15-13.1-18.46-2.07-3.13-4.17-6.26-6-9.47s-3.84-6.4-5.7-9.62c-3.52-6.51-7.12-13-10.2-19.67l126.39-60.76c1.79,4,3.93,7.66,5.91,11.46l3.26,5.45c1,1.87,2.23,3.57,3.39,5.31,2.22,3.57,4.76,6.78,7.15,10.14,2.61,3.11,5,6.4,7.81,9.27,2.67,3.17,5.35,5.47,7.92,8.16,1.37,1.22,2.78,2.37,4.14,3.58.7.59,1.34,1.25,2.07,1.8l2.19,1.63,2.16,1.66,1.07.84c.37.27.77.5,1.15.75,1.53,1,3,2,4.55,3s3.2,1.83,4.77,2.79c.8.45,1.56,1,2.39,1.39l2.53,1.23Z"/><path class="cls-5" d="M46.76,5187.63c-3.3-6.6-6-13.35-8.94-20.08-2.58-6.79-5.31-13.56-7.5-20.45l-1.71-5.16-.85-2.58-.76-2.59-3-10.4c-.94-3.47-1.76-7-2.64-10.46l-1.26-5.24L19,5105.4A370,370,0,0,1,12.55,5063l-.91-10.68-.53-10.72c-.21-3.57-.2-7.16-.25-10.74l0-5.37v-2.68l.07-2.69,140.22,2.5c-.66,36.1,7,73.06,22.05,104.29Z"/><path class="cls-6" d="M10.88,5020.08l.33-10.76c.16-3.59.45-7.18.69-10.77l.39-5.38.58-5.38c.42-3.59.73-7.18,1.26-10.76a373.62,373.62,0,0,1,8.45-42.87A355.59,355.59,0,0,1,36.73,4892a328.71,328.71,0,0,1,20.4-40.61l120.23,72.2a185.9,185.9,0,0,0-11,22,214.55,214.55,0,0,0-8.13,24.27,232.81,232.81,0,0,0-5.09,25.89c-.34,2.19-.5,4.44-.77,6.65l-.37,3.33-.23,3.36c-.14,2.24-.35,4.48-.45,6.73l-.19,6.76Z"/><path class="cls-7" d="M57.13,4851.39l6.16-9.76,1.56-2.43,1.67-2.38,3.36-4.75,10.22-14.22c1.48-2.07,3.06-4.13,4.45-6.21l4.14-6.22,4.16-6.22,3.77-6.21c10.09-16.55,18.16-33,23.33-48.58l133.24,43.71c-.26.93-.57,1.82-.9,2.69l-.95,2.64-1.91,5.28c-1.31,3.5-2.53,7.1-4,10.41-2.87,6.71-5.65,13.61-8.88,19.91l-4.73,9.64c-1.61,3.17-3.33,6.17-5,9.25l-5.07,9.18-5.32,8.77-5.35,8.76L205.5,4883l-5.59,8.35c-1.87,2.77-3.82,5.37-5.74,8.06l-5.78,8-2.77,3.83-1.69,2.42-1.71,2.4-.87,1.2-.79,1.27c-1.05,1.69-2.12,3.38-3.2,5.05Z"/><path class="cls-3" d="M90.3,6285.19l-18.46-30c-7-11.44-13.68-23.27-19.85-35.65s-11.94-25.16-17.05-38.45a386.34,386.34,0,0,1-13.09-41.29l136-34.33a248.59,248.59,0,0,0,8.1,25.5c3.29,8.53,7.13,17.07,11.39,25.62s9.07,17.07,14.26,25.58l18.28,29.71Z"/><path class="cls-4" d="M21.85,6139.78A322.24,322.24,0,0,1,12,6051.09a307.21,307.21,0,0,1,4.57-44.87l2.1-11c.78-3.64,1.69-7.24,2.55-10.86l1.32-5.42c.49-1.79,1-3.56,1.53-5.33L27.17,5963l133.58,42.7-1.8,6.2-.92,3.09-.73,3.1c-.47,2.06-1,4.12-1.48,6.19l-1.15,6.19a166.69,166.69,0,0,0-2.54,24.82,182.34,182.34,0,0,0,5.68,50.21Z"/><path class="cls-5" d="M27.17,5963a389.46,389.46,0,0,1,35.62-78.13c.86-1.54,1.8-3,2.72-4.46l2.77-4.4,5.56-8.78c3.88-5.63,7.73-11.34,11.7-16.88l6.09-8.14,3.05-4.06c1-1.36,2-2.71,3.09-4l6.32-7.81,3.17-3.9c1.06-1.3,2.11-2.61,3.2-3.84l107.06,90.58c-.86.95-1.63,1.92-2.41,2.89l-2.35,2.91-4.71,5.81c-.81,1-1.55,1.95-2.27,2.93l-2.21,2.95-4.42,5.9c-2.84,4-5.5,8-8.28,11.92l-3.8,6-1.9,3c-.64,1-1.31,2-1.85,3a248.66,248.66,0,0,0-22.57,49.13Z"/><path class="cls-6" d="M110.46,5818.55c4.37-5,8.66-10,13.12-15,2.36-2.55,4.71-5.13,7.08-7.63l7.17-7.38c9.6-9.69,19.42-18.77,29.39-27.43a706.35,706.35,0,0,1,61.6-47.58l79.77,115.34a565.27,565.27,0,0,0-49.36,38.07c-7.67,6.66-15,13.47-21.86,20.38l-5.05,5.2-4.85,5.22-9.95,11.39Z"/><path class="cls-7" d="M228.82,5713.53a907.17,907.17,0,0,1,132-75.24L420,5765.4a767.27,767.27,0,0,0-111.42,63.47Z"/><path class="cls-1" d="M360.78,5638.29a905.21,905.21,0,0,1,142.5-52.61l37,135.26A766.74,766.74,0,0,0,420,5765.4Z"/><path class="cls-3" d="M503.28,5585.68c12.32-3.39,24.79-6.43,37.33-9.27s25.24-5.25,38-7.41,25.71-3.95,38.76-5.34,26.19-2.45,39.47-3l6,140.1c-40.34,1.75-81.76,9-122.61,20.18Z"/><path class="cls-4" d="M656.88,5560.66c13.29-.53,26.65-.71,40.14-.3s27.05,1.34,40.69,2.84,27.32,3.7,41,6.49a416.45,416.45,0,0,1,40.93,10.69L777.2,5714a275.41,275.41,0,0,0-26.87-7q-13.83-2.79-28.22-4.46c-9.6-1.05-19.37-1.69-29.24-2s-19.9-.16-30,.22Z"/><path class="cls-5" d="M819.65,5580.38a360.73,360.73,0,0,1,40.23,15.34l5,2.23,1.22.55,1,.46,1.93.91,7.41,3.44c4.84,2.23,9.57,4.33,14.27,6.34,18.74,8,37.24,14.46,54.57,18.44l-31.42,136.67c-28.24-6.53-54-15.82-78.19-26.13-6.05-2.58-12-5.23-17.78-7.89l-8.48-3.95-2-1-1-.47-.78-.35-3-1.36A220.86,220.86,0,0,0,777.2,5714Z"/><path class="cls-6" d="M945.2,5628.09c4.32,1,8.56,1.84,12.67,2.51s8.07,1.13,11.87,1.45a105.63,105.63,0,0,0,10.74.37,75.87,75.87,0,0,0,9.27-.65,44.4,44.4,0,0,0,13.13-3.6,31.14,31.14,0,0,0,4.42-2.53,36.51,36.51,0,0,0,3.91-3.36L1111,5720.8a176.51,176.51,0,0,1-22.74,19.34,173.84,173.84,0,0,1-53,25.1,198,198,0,0,1-26.85,5.52,216.35,216.35,0,0,1-25.68,1.88c-8.32.12-16.45-.15-24.28-.81s-15.48-1.6-22.93-2.79-14.65-2.66-21.72-4.28Z"/><path class="cls-7" d="M1011.21,5622.28a40.74,40.74,0,0,0,4-4.8c.33-.5.67-1,1-1.48s.66-1.11,1-1.65c.72-1,1.33-2.39,2-3.58a104.65,104.65,0,0,0,7.3-19.17,180.46,180.46,0,0,0,5-24.79c.19-1.11.27-2.18.38-3.26l.33-3.23.34-3.23c.06-.54.14-1.07.17-1.61l.08-1.63.36-6.52.09-1.62v-4.92l140.23.87,0,5.48,0,2.75-.13,2.74-.6,11c-.14,3.66-.63,7.32-1,11l-.57,5.48c-.2,1.83-.38,3.67-.66,5.44a318.15,318.15,0,0,1-8.9,43.89,242.57,242.57,0,0,1-17.94,46.11c-2.14,3.91-4.15,7.78-6.6,11.67-1.2,1.93-2.34,3.86-3.63,5.79l-3.93,5.74A181.36,181.36,0,0,1,1111,5720.8Z"/><polygon class="cls-1" points="557.27 6663.27 566.35 6665.53 575.31 6667.98 593.23 6672.9 610.94 6678.15 619.79 6680.79 628.56 6683.56 646.06 6689.13 663.4 6694.96 672.06 6697.89 680.65 6700.92 697.81 6707.01 650.07 6838.87 634.18 6833.23 626.24 6830.42 618.3 6827.75 602.4 6822.4 586.5 6817.34 578.55 6814.82 570.6 6812.46 554.7 6807.74 538.81 6803.39 530.87 6801.21 522.93 6799.24 557.27 6663.27"/><path class="cls-3" d="M697.81,6707q34.13,12.42,67.5,25.68l16.6,6.63,16.46,6.65,16.27,6.62,8.57,3.51,8.18,3.41L777.49,6889l-8-3.33-7.65-3.14-16.2-6.58-16-6.49-16-6.37q-31.85-12.6-63.57-24.18Z"/><path class="cls-4" d="M831.39,6759.5l7.73,3.2,3.7,1.51,3.6,1.44c4.63,1.8,9.13,3.52,13.15,4.85s7.8,2.46,11.24,3.36c1.63.34,3.34.83,4.78,1,.73.13,1.51.32,2.2.42s1.35.16,2,.27a17.1,17.1,0,0,0,1.88.19c.6,0,1.22.13,1.78.16s1.07,0,1.61,0a5.23,5.23,0,0,0,.78,0l.72,0c.49,0,.95,0,1.45,0s1.11-.12,1.67-.15,1-.16,1.57-.21,1-.19,1.47-.25a28.86,28.86,0,0,0,9.71-3.68l72.31,120.16a168.17,168.17,0,0,1-26.91,13.1,170.5,170.5,0,0,1-28.54,8.11c-2.39.43-4.78.86-7.17,1.23s-4.75.65-7.12.94l-7.06.63c-2.42.15-4.88.23-7.31.32l-3.66.1c-1.22,0-2.4,0-3.6,0-2.38-.05-4.77-.12-7.15-.2s-4.64-.34-7-.53-4.64-.39-6.83-.72l-6.67-.93c-2.2-.33-4.27-.75-6.41-1.14-4.34-.76-8.28-1.75-12.36-2.7-7.87-2-15.44-4.23-22.35-6.61-7.07-2.36-13.49-4.83-19.74-7.27l-4.54-1.81-4.42-1.8-8.47-3.51Z"/><path class="cls-5" d="M902.45,6771.62a42.55,42.55,0,0,0,9.9-8.63,86.61,86.61,0,0,0,10.75-16,155,155,0,0,0,9.6-22.17,244.27,244.27,0,0,0,7.45-26.13l136.7,31.31a383.34,383.34,0,0,1-11.83,41.25,294.9,294.9,0,0,1-18.35,42.06,226.93,226.93,0,0,1-28.62,41.83,182.63,182.63,0,0,1-43.29,36.63Z"/><path class="cls-6" d="M940.15,6698.7a373.49,373.49,0,0,0,8.2-58.31c.66-10.07,1-20.24,1-30.39l-.06-8-.1-8.7-.24-17.26,140.21-2.25.25,17.79.1,8.83.07,9.53c0,13.22-.42,26.42-1.29,39.67a512.45,512.45,0,0,1-11.43,80.4Z"/><path class="cls-7" d="M948.94,6576c-.72-45.74-2.44-89.58-8.55-130.61l138.7-20.68c3.83,25.74,6.12,51.1,7.59,76s2.09,49.22,2.47,73.08Z"/><path class="cls-1" d="M940.39,6445.43a437.88,437.88,0,0,0-12.77-59l-2.16-7-1.07-3.5c-.36-1.16-.8-2.28-1.19-3.42l-2.41-6.81-1.2-3.41-1.26-3.19a257.88,257.88,0,0,0-11.43-25.05l124.26-65a399.45,399.45,0,0,1,17.67,38.71l2,5,1.73,4.85,3.43,9.72c.56,1.62,1.16,3.24,1.68,4.86l1.51,4.88,3,9.76a576.22,576.22,0,0,1,16.95,77.94Z"/><path class="cls-3" d="M906.9,6334.07A244,244,0,0,0,876.64,6289a191.31,191.31,0,0,0-37.89-34.47l78.9-115.93A331.05,331.05,0,0,1,983.36,6198a383.75,383.75,0,0,1,47.8,71.06Z"/><path class="cls-4" d="M838.75,6254.52a140.59,140.59,0,0,0-42.12-19.76c-1.79-.55-3.61-.91-5.41-1.33s-3.62-.72-5.43-1.08l-1.36-.26c-.46-.09-1-.14-1.44-.21l-2.88-.41c-1-.16-1.92-.24-2.88-.33l-2.89-.31a136.37,136.37,0,0,0-23.22,0L739.78,6091a276.15,276.15,0,0,1,46.81.11l5.84.6c1.94.2,3.89.39,5.82.69l5.79.82c1,.14,1.92.26,2.9.43l2.95.53c3.93.73,7.88,1.39,11.76,2.33s7.79,1.76,11.61,2.87a270.51,270.51,0,0,1,44.34,16.31,290.38,290.38,0,0,1,40,22.88Z"/><path class="cls-5" d="M751.12,6230.79a155.74,155.74,0,0,0-23.94,3.87,210.32,210.32,0,0,0-25,7.77c-17,6.38-34.62,15.29-52.55,25.69l-70.41-121.28c11.24-6.52,22.9-12.88,35.1-18.89s24.92-11.68,38.3-16.71a354,354,0,0,1,41.94-13,296,296,0,0,1,45.21-7.24Z"/><path class="cls-6" d="M649.64,6268.12c-18,10.4-36.25,22.39-55,35.1s-38,26.16-58.2,39.68l-78.07-116.49c18.66-12.51,37.73-25.82,57.65-39.32s40.74-27.2,63.23-40.25Z"/><path class="cls-7" d="M536.42,6342.9c-20.17,13.52-41.26,27.13-63.92,40a519.39,519.39,0,0,1-73.22,34.75l-49.15-131.34a381.51,381.51,0,0,0,53.28-25.44c18-10.2,36.28-21.9,54.94-34.41Z"/><path class="cls-6" d="M660.94,7218.44c-46.71-2.49-94.05-4.95-142.18-9l11.87-139.74c45,3.83,91.07,6.25,137.72,8.73Z"/><path class="cls-2" d="M791.3,7229.43c-9.74-1.8-19.69-3.32-29.84-4.48-5.06-.61-10.18-1.1-15.32-1.55-2.57-.22-5.15-.43-7.74-.61l-7.93-.52c-23-1.37-46.18-2.59-69.53-3.83l7.41-140c23.32,1.24,46.83,2.48,70.48,3.89l4.72.29,4.85.33q4.86.35,9.73.77c6.5.56,13,1.2,19.56,2q19.62,2.27,39.48,6Z"/><path class="cls-7" d="M518.76,7209.41c-48.13-4.14-97.08-9.68-147.29-20.09l28.69-137.27c41.37,8.62,85.49,13.8,130.47,17.62Z"/><path class="cls-1" d="M371.47,7189.32c-12.55-2.64-25.17-5.53-37.89-9s-25.48-7.18-38.35-11.68c-25.67-9-51.74-20.12-77.23-35.78l73.26-119.58c14.35,8.89,31.45,16.42,49.86,22.84,9.2,3.23,18.87,6.07,28.71,8.73s20,5,30.33,7.18Z"/><path class="cls-3" d="M218,7132.88A297.77,297.77,0,0,1,180.77,7106a258.32,258.32,0,0,1-33.6-34.34,241.34,241.34,0,0,1-26.86-41.08,254.46,254.46,0,0,1-18-44.91L236.84,6946a105.4,105.4,0,0,0,19.43,37.61c8.86,11,20.56,20.89,35,29.74Z"/><path class="cls-4" d="M102.35,6985.68a285.67,285.67,0,0,1-9.42-45.48,359.13,359.13,0,0,1-2.51-44.12c0-3.59.17-7.14.27-10.71l.17-5.34.34-5.26c.24-3.5.45-7,.73-10.5l1.11-11,.44-4.15.22-2.18.12-1.09c0-.37.16-.72.23-1.07l2-8.28,1.38-5.53c.46-1.8.88-3.6,1.45-5.43l3.27-10.89c.52-1.81,1.21-3.64,1.84-5.46l1.94-5.46,131.7,48.18-1,2.79c-.32,1-.71,1.84-1,2.85l-1.76,5.89c-.33,1-.55,2-.81,3l-.73,3c0,.09-.1.28-.07.24s0,0,0,0a1.55,1.55,0,0,1,0,.21l-.67,6.42-.48,7-.24,3.49-.09,3.42c-.05,2.27-.16,4.57-.18,6.82a219.06,219.06,0,0,0,1.43,25.83,143.8,143.8,0,0,0,4.75,23.1Z"/><path class="cls-5" d="M106,6803.72a266.16,266.16,0,0,1,20.22-43.19,239,239,0,0,1,29.62-40,230.54,230.54,0,0,1,37.83-33.08,246.79,246.79,0,0,1,42.65-23.82l56.11,128.52a106.56,106.56,0,0,0-18.49,10.29,90.23,90.23,0,0,0-14.84,13,98.2,98.2,0,0,0-12,16.23,126.74,126.74,0,0,0-9.39,20.26Z"/><path class="cls-6" d="M236.29,6663.62a288.44,288.44,0,0,1,43.9-14.9,352.69,352.69,0,0,1,43.23-8.07c14.2-1.75,28.14-2.61,41.88-2.94,6.89-.21,13.66-.13,20.44-.07l10.08.3c3.37.08,6.67.32,10,.48l-7.74,140c-2.5-.11-5-.32-7.51-.36l-7.44-.23c-4.9,0-9.82-.1-14.62.06-9.62.24-19,.82-28,1.93-18,2.25-34.4,6.35-48.09,12.3Z"/><path class="cls-7" d="M405.83,6638.42c26.61,1.44,52.23,4.94,77.53,9l18.75,3.47c3.11.61,6.28,1.12,9.35,1.8l9.22,2c6.14,1.35,12.31,2.66,18.42,4.06l18.17,4.49-34.34,136-15.86-3.93c-5.27-1.2-10.54-2.31-15.81-3.48l-7.91-1.73c-2.63-.59-5.24-1-7.87-1.5l-15.72-2.93-2-.36-1.95-.29-3.9-.57-7.79-1.16-7.79-1.17-1.95-.3-1.93-.2-3.84-.41-15.39-1.66c-1.29-.16-2.55-.26-3.82-.35l-3.79-.28-3.8-.29-3.76-.19Z"/><path class="cls-3" d="M923,7453c2.45-9.84,4.72-19.65,6.47-29.31s3.09-19.2,4-28.53c1.65-18.63,1.41-36.42-1.17-52.36l138.45-22.31c4.85,30.25,4.84,59.56,2.37,87.47-1.32,13.93-3.27,27.54-5.67,40.89s-5.41,26.32-8.63,39.15Z"/><path class="cls-4" d="M932.24,7342.82a137.49,137.49,0,0,0-5.51-22.47,106.3,106.3,0,0,0-8.82-19.56,109.63,109.63,0,0,0-28.31-32.05l86.18-110.62a257,257,0,0,1,35,32.84c1.37,1.5,2.67,3.06,4,4.63l3.9,4.72,3.74,4.86c1.25,1.63,2.49,3.25,3.66,4.94,2.37,3.34,4.73,6.69,6.92,10.16,1.1,1.73,2.23,3.44,3.29,5.2l3.11,5.29a246.39,246.39,0,0,1,20,44.24,277.43,277.43,0,0,1,11.26,45.51Z"/><path class="cls-5" d="M889.6,7268.74l-2.27-1.76-2.38-1.69c-1.54-1.17-3.25-2.22-4.87-3.35-3.38-2.16-6.82-4.3-10.51-6.28s-7.47-3.91-11.36-5.77-8-3.59-12.19-5.2c-16.71-6.58-35.28-11.58-54.72-15.26l25.87-137.82c26.47,5,53.3,12,80.11,22.55,6.69,2.59,13.38,5.52,20.05,8.56s13.31,6.43,19.89,10.1,13.12,7.56,19.57,11.72c3.2,2.17,6.43,4.25,9.58,6.56l4.74,3.43,4.67,3.59Z"/><path class="cls-6" d="M949.72,1429.48c14.46-10.45,25.95-21.79,33.13-32.2.42-.66.84-1.3,1.27-2l.32-.48a5.74,5.74,0,0,0,.35-.54l.78-1.33c1-1.78,2.12-3.52,3.15-5.31l2.93-5.47c1-1.82,1.81-3.75,2.74-5.61a191.5,191.5,0,0,0,9.15-23.53l134,41.48a330.5,330.5,0,0,1-16.23,41.77c-1.65,3.38-3.2,6.8-5,10.13l-5.36,10c-1.87,3.28-3.84,6.52-5.78,9.78l-1.46,2.43c-.22.38-.54.86-.83,1.31l-.88,1.35-3.55,5.38a249.39,249.39,0,0,1-31.6,37.16l-4.2,4-4.24,3.86-2.13,1.92-2.14,1.85-4.29,3.67c-5.75,4.74-11.55,9.32-17.4,13.55Z"/><path class="cls-2" d="M842.33,1482.66a592.43,592.43,0,0,0,57.81-24.06c18.2-8.84,35.21-18.59,49.58-29.12l82.73,113.24c-23.39,17.06-47.23,30.42-71.05,42a727.29,727.29,0,0,1-71.57,29.86Z"/><path class="cls-7" d="M1003.54,1353.06c10-32.52,11.47-69,4.18-103.3l137.17-29.16a352.5,352.5,0,0,1,7.36,87.06,341.2,341.2,0,0,1-14.75,86.88Z"/><path class="cls-1" d="M1007.72,1249.76c-7.35-34.26-23.16-66.08-45.69-89.94l102.33-95.89a313.84,313.84,0,0,1,51.32,73.62l2.48,5,1.24,2.5,1.15,2.52,4.54,10.13,4.13,10.26c.7,1.7,1.32,3.43,1.94,5.17l1.86,5.19a353.12,353.12,0,0,1,11.87,42.31Z"/><path class="cls-3" d="M962,1159.82l-4.34-4.52-4.52-4.28c-.37-.36-.74-.73-1.13-1.07l-1.17-1-2.35-2c-.78-.67-1.54-1.38-2.34-2l-2.43-1.91c-3.18-2.65-6.57-5-9.91-7.37l-5.15-3.37c-1.72-1.12-3.53-2.08-5.27-3.15a167.88,167.88,0,0,0-22.1-10.7,187.84,187.84,0,0,0-23.61-7.35L909.4,974.41a328.8,328.8,0,0,1,43.29,13.47,308.19,308.19,0,0,1,40.95,19.8c3.26,2,6.57,3.82,9.76,5.86l9.52,6.23c6.19,4.36,12.38,8.74,18.24,13.52l4.43,3.54c1.46,1.2,2.87,2.45,4.3,3.68l4.27,3.72,2.13,1.87c.7.63,1.37,1.28,2.06,1.93l8.18,7.79,7.83,8.11Z"/><path class="cls-4" d="M877.71,1111a209.48,209.48,0,0,0-24.85-3.93c-4.27-.2-8.49-.66-12.82-.61l-3.23-.07-1.62,0-1.63.05-6.53.18c-1.08,0-2.19.12-3.28.19l-3.29.24-3.3.23c-1.09,0-2.21.25-3.31.36l-6.64.77c-2.21.31-4.44.72-6.67,1.06l-3.33.52c-1.12.17-2.24.46-3.35.67l-6.71,1.37c-2.23.47-4.47,1.11-6.72,1.65s-4.48,1-6.72,1.75L736.06,980.32c3.34-1,6.81-1.8,10.23-2.68s6.84-1.75,10.31-2.5L767.07,973c1.75-.34,3.48-.74,5.25-1l5.31-.87c3.55-.56,7.08-1.17,10.65-1.66l10.77-1.27c1.81-.19,3.58-.45,5.41-.57l5.44-.4,5.45-.39c1.82-.12,3.63-.28,5.47-.31l11-.3,2.74-.06,2.77,0,5.53.1c7.37,0,14.79.64,22.19,1.12a347.14,347.14,0,0,1,44.35,7Z"/><path class="cls-1" d="M488.4,2917.05c24.55,5.17,48.06,11.08,71.09,17s45.4,11.82,67.4,17.29l-33.81,136.1c-46.69-11.6-91.24-24.17-133.73-33.17Z"/><path class="cls-3" d="M626.89,2951.31c5.47,1.33,11,2.73,16.4,4l8.16,1.94,8.09,1.84c5.42,1.27,10.73,2.35,16.1,3.53l8,1.62c2.66.54,5.32,1.09,7.94,1.56l7.9,1.48c2.63.48,5.23.89,7.85,1.35,5.24.94,10.38,1.64,15.56,2.44,10.28,1.4,20.49,2.68,30.45,3.39l-11,139.8c-13.35-1-26.35-2.59-39.22-4.36-6.38-1-12.81-1.87-19.07-3-3.14-.55-6.32-1.06-9.43-1.63l-9.33-1.74c-3.13-.57-6.19-1.2-9.26-1.82l-9.21-1.87c-6-1.33-12.18-2.59-18.15-4l-9-2-8.9-2.11c-6-1.4-11.78-2.87-17.67-4.3Z"/><path class="cls-4" d="M753.31,2974.45a324.55,324.55,0,0,0,57.45-.15l6.75-.83c1.11-.14,2.26-.23,3.35-.42l3.3-.55,3.3-.53c1.09-.19,2.21-.32,3.27-.58l6.44-1.34a187.83,187.83,0,0,0,24.66-7.25l48.4,131.62a327.13,327.13,0,0,1-42.55,12.5L857,3109.15c-1.79.4-3.57.65-5.36,1l-5.35.88-5.35.86c-1.79.29-3.56.46-5.34.69l-10.65,1.28a463.92,463.92,0,0,1-82.6.43Z"/><path class="cls-1" d="M294.77,1606.46a693,693,0,0,1,74.33-23.53q18.5-4.76,36.81-8.73c12.19-2.6,24.35-5.1,36.39-7.31L468,1704.75c-43.69,8.12-85.32,18.17-123.08,32.66Z"/><path class="cls-3" d="M442.3,1566.89c48.18-9,95.11-15.37,140-22.69l22.51,138.42c-47.35,7.68-93.08,14-136.82,22.13Z"/><path class="cls-4" d="M582.34,1544.2c45.27-7.34,89.76-15.5,133.38-25.46l31.19,136.73c-47.53,10.84-95,19.52-142.06,27.15Z"/><path class="cls-5" d="M715.72,1518.74c43.57-10,86.31-21.61,126.61-36.08l47.5,131.94c-47.72,17.12-95.37,30-142.92,40.87Z"/><path class="cls-1" d="M1003.36,2702.19a187.11,187.11,0,0,0-17.21-47.45l-3-5.44c-.48-.92-1.05-1.79-1.6-2.67l-1.63-2.64c-1-1.8-2.26-3.48-3.41-5.2l-1.74-2.57-1.6-2.08-1.56-2.08c-.26-.35-.5-.69-.78-1l-.94-1.07-3.71-4.36-4.24-4.47-1-1.12c-.37-.38-.78-.75-1.17-1.12l-2.34-2.26,97.26-101,4,3.83c.66.65,1.32,1.27,2,1.94l2,2.06,7.81,8.27c2.58,3,5.14,6,7.68,9l1.9,2.26c.63.78,1.26,1.62,1.89,2.43l3.73,4.91c1.23,1.63,2.5,3.3,3.67,4.92l3.19,4.67c2.11,3.13,4.26,6.23,6.2,9.46l3,4.81c1,1.61,2,3.21,2.89,4.86,1.84,3.28,3.7,6.56,5.5,9.86a327.07,327.07,0,0,1,30.55,83.94Z"/><path class="cls-3" d="M957.33,2616.61l-2.34-2.27c-.74-.76-1.67-1.5-2.5-2.25l-5.08-4.53-5.44-4.48c-.91-.75-1.79-1.51-2.73-2.25l-2.88-2.2c-1.92-1.47-3.8-3-5.76-4.42l-6-4.34c-1-.72-2-1.46-3-2.17l-3.13-2.12-6.24-4.25a608.91,608.91,0,0,0-54.06-31.42l64.32-124.62a750.14,750.14,0,0,1,67.1,39.07l8.25,5.61,4.12,2.81c1.38.94,2.74,2,4.11,2.94l8.2,5.93c2.72,2,5.44,4.16,8.15,6.24l4.07,3.14c1.35,1.07,2.7,2.21,4,3.31l8.08,6.68,8,7.12c1.33,1.21,2.67,2.32,4,3.62l4,3.82Z"/><path class="cls-4" d="M858.15,2549.91c-18.89-9.74-38.45-18.73-58.33-27s-40.14-15.74-60.45-22.34l43.17-133.42q36.23,11.76,71.05,26.24c23.28,9.69,46.22,20.24,68.88,31.91Z"/><path class="cls-5" d="M739.37,2500.56a607.29,607.29,0,0,0-60.5-16.42c-4.89-1-9.82-2-14.56-2.76l-3.59-.62-3.48-.51-3.47-.5-1.74-.25-2.11-.27-34.83-4.33,17.73-139.11,34.76,4.32,2.24.28,2.6.37,5.2.75,5.19.76,5.05.87c6.8,1.1,13.31,2.45,19.88,3.77a745.12,745.12,0,0,1,74.8,20.23Z"/><path class="cls-6" d="M615.09,2474.9c-24-3.08-49.23-6.61-75.91-12.68A386.57,386.57,0,0,1,498,2450.51,265.22,265.22,0,0,1,454.38,2431l69.49-121.8a127.83,127.83,0,0,0,20.38,9,246.41,246.41,0,0,0,26.2,7.37c18.92,4.33,40,7.44,62.37,10.28Z"/><path class="cls-7" d="M454.38,2431a194.68,194.68,0,0,1-43.4-33.34c-3.43-3.38-6.63-7.25-9.81-11-1.62-1.86-3.09-3.9-4.59-5.92s-2.95-4.05-4.4-6.1-2.7-4.24-4-6.38l-2-3.23-1-1.62-.89-1.66c-1.17-2.22-2.33-4.45-3.46-6.69l-1.69-3.37-1.48-3.42a147.67,147.67,0,0,1-5.35-13.78c-.78-2.31-1.53-4.63-2.27-7s-1.31-4.77-1.94-7.16a207.18,207.18,0,0,1-4.61-26.14l-.32-2.89c-.11-1-.22-2-.29-2.83l-.48-5.39-.37-5-.33-4.66c-.4-6-.74-11.07-1.16-15.22l139.54-14c.74,7.47,1.15,14.05,1.54,19.73l.56,7.82.3,3.35c0,.58.1,1,.16,1.53l.16,1.46a70.82,70.82,0,0,0,1.39,8.38c.15.42.19.84.35,1.29s.35.91.49,1.37a17.88,17.88,0,0,0,1,2.55l.22.63.32.52a9.54,9.54,0,0,1,.55,1.11c0,.09.07.19.12.28l.18.24.34.5c.22.34.39.7.6,1.06a12.14,12.14,0,0,1,.77,1,4.83,4.83,0,0,0,.76,1,24.11,24.11,0,0,0,1.85,2.05,54.83,54.83,0,0,0,12.13,9.08Z"/><path class="cls-1" d="M360.57,2258.2l-.15-1.51c-.06-.5-.1-1-.17-1.43l-.33-2.57c-.13-.73-.25-1.46-.36-2.18l-.36-1.81c0-.14-.05-.3-.08-.43l-.1-.34-.17-.68a15.12,15.12,0,0,0-.41-1.47c-.08-.26-.14-.52-.22-.77l-.26-.7-.23-.72-.28-.66a32.13,32.13,0,0,0-5.85-9.52A63,63,0,0,0,339,2222.79a156,156,0,0,0-21.15-11.55L376.81,2084a294.6,294.6,0,0,1,40.2,22.26,218.34,218.34,0,0,1,20.58,15.54,190.21,190.21,0,0,1,19.76,19.53,175.09,175.09,0,0,1,17.31,23.57,172.21,172.21,0,0,1,13.19,26.46l1.33,3.42,1.21,3.42,1.18,3.43c.37,1.15.71,2.29,1.06,3.43.68,2.3,1.37,4.56,2,7l.88,3.57.44,1.78.36,1.71c.46,2.26,1,4.59,1.35,6.8l1.05,6.47.81,6.11c.14,1,.23,2,.33,2.92l.3,2.86Z"/><path class="cls-3" d="M317.89,2211.24c-16.58-7.69-37-14.85-59.23-22.64-11.14-3.93-22.74-8-34.8-12.65s-24.5-9.73-37.32-15.85l60.34-126.59c16.61,7.94,36.52,15.15,58.32,22.8,10.93,3.85,22.36,7.84,34.29,12.29s24.37,9.4,37.32,15.38Z"/><path class="cls-4" d="M186.54,2160.1a319.23,319.23,0,0,1-39.13-21.9c-6.59-4.38-13.14-9.11-19.64-14.41l-4.88-4-4.75-4.24c-1.59-1.4-3.12-2.88-4.65-4.37s-3.08-2.94-4.55-4.49a228.32,228.32,0,0,1-16.87-19.34,232.62,232.62,0,0,1-14.49-21.15A236.56,236.56,0,0,1,65.7,2043.7a241.46,241.46,0,0,1-9.19-23.26l133-44.58a83.68,83.68,0,0,0,19.66,32.67c.52.58,1.13,1.09,1.69,1.65s1.12,1.12,1.73,1.64l1.78,1.6,1.88,1.54c2.55,2.09,5.48,4.22,8.62,6.31a179.54,179.54,0,0,0,22,12.24Z"/><path class="cls-5" d="M56.51,2020.44c-2.64-7.84-4.79-15.73-6.62-23.63s-3.16-15.8-4.22-23.67-1.67-15.69-2.05-23.48-.35-15.48-.09-23.13a326.38,326.38,0,0,1,15.73-87.76l133.49,43a186.59,186.59,0,0,0-9.07,49.81c-.6,16.17,1.43,31.36,5.79,44.31Z"/><path class="cls-6" d="M59.26,1838.77a356.79,356.79,0,0,1,36.69-79,337.07,337.07,0,0,1,56-68.34L247.53,1794A197.09,197.09,0,0,0,215,1833.9a216.36,216.36,0,0,0-22.22,47.84Z"/><path class="cls-7" d="M151.94,1691.4c5.49-5.14,11.25-10.07,17.15-14.86l4.51-3.53,2.25-1.73,2.11-1.55,8.46-6.18c2.84-2,5.74-4,8.61-5.92l4.33-2.93c1.45-1,2.92-1.87,4.38-2.8l8.8-5.54,8.92-5.24c11.93-6.85,24-13.26,36.32-18.94l4.59-2.17c1.53-.71,3.07-1.37,4.61-2l9.24-4.06c6.18-2.52,12.35-5.15,18.55-7.44l50.18,131c-4.76,1.75-9.33,3.73-14,5.6l-6.81,3c-1.13.5-2.28,1-3.4,1.5l-3.33,1.58c-8.95,4.13-17.5,8.69-25.83,13.46l-6.2,3.64-6,3.8c-1,.64-2,1.26-3,1.91l-2.93,2c-1.94,1.34-3.93,2.62-5.84,4l-5.68,4.16-1.43,1c-.46.34-.81.63-1.22,1l-2.4,1.86c-3.15,2.59-6.3,5.24-9.33,8.1Z"/><path class="cls-5" d="M861.83,2962.8l3-1.07c1-.32,1.95-.81,2.92-1.2l5.83-2.44c1.91-.87,3.77-1.85,5.67-2.74l2.85-1.36c.94-.46,1.84-1,2.77-1.52l5.53-3c1.82-1.07,3.59-2.25,5.4-3.35l2.71-1.66c.92-.53,1.76-1.21,2.64-1.81l5.27-3.66c.89-.58,1.73-1.28,2.58-1.95l2.56-2,2.57-2,1.29-1c.43-.34.84-.72,1.25-1.08l5-4.32c.83-.73,1.69-1.4,2.5-2.17l2.42-2.33,4.86-4.63c1.61-1.57,3.14-3.3,4.72-4.93s3.17-3.25,4.7-5l4.54-5.28L1052,2993.37l-6.91,8c-2.33,2.64-4.86,5.2-7.29,7.79s-4.87,5.19-7.43,7.71l-7.81,7.48-3.92,3.72c-1.31,1.24-2.73,2.41-4.09,3.61l-8.28,7.14c-.69.59-1.37,1.19-2.08,1.76l-2.17,1.71-4.35,3.39-4.36,3.38c-1.46,1.12-2.89,2.26-4.43,3.31l-9.11,6.36c-1.54,1-3,2.14-4.61,3.11l-4.73,3c-3.17,2-6.31,4-9.53,5.84l-9.81,5.43c-1.65.88-3.27,1.82-4.94,2.65l-5,2.47c-3.37,1.62-6.72,3.29-10.13,4.83l-10.33,4.37c-1.73.7-3.43,1.49-5.19,2.11l-5.25,1.92Z"/><path class="cls-6" d="M945.39,2902.31c3.11-3.41,6-7.27,8.9-10.95l2.21-2.79c.71-1,1.4-2,2.11-2.92l4.22-5.88,2.12-2.93,2-3.08,4-6.15,2-3.06,1.72-2.86c1.14-1.91,2.35-3.77,3.39-5.74s2.21-3.86,3.23-5.84l3.06-5.94,2.85-6.06c1-2,1.77-4.1,2.68-6.13a237.67,237.67,0,0,0,9-25.27l134.71,39a376.13,376.13,0,0,1-14.45,40.78c-1.44,3.31-2.8,6.66-4.34,9.92l-4.63,9.8-5,9.65c-1.67,3.2-3.49,6.34-5.24,9.5s-3.66,6.25-5.53,9.36l-2.82,4.64-2.79,4.25-5.59,8.49-2.8,4.25-3,4.18-6,8.36c-1,1.39-2,2.79-3,4.17l-3.22,4.1c-4.32,5.46-8.49,11-13.21,16.25Z"/><path class="cls-7" d="M998.93,2806.71a228.73,228.73,0,0,0,8.68-52.56,211.19,211.19,0,0,0-4.25-52l137.11-29.43a351.17,351.17,0,0,1,7.24,87.43,368.32,368.32,0,0,1-14.07,85.48Z"/><path class="cls-5" d="M773.71,1115.41a326.93,326.93,0,0,0-53.6,20.57l-1.67.78-1.64.85-3.3,1.7-6.61,3.38-13.1,7.3-12.7,7.68-.63.42-.32.21a2.18,2.18,0,0,0-.37.25c-.6.44-1.21.87-1.82,1.29l-2.21,1.68c-.35.25-.79.62-1.2,1l-1.25,1-87.77-109.37,2.18-1.73c.73-.58,1.42-1.14,2.24-1.76l4.78-3.62,5.32-3.8c.42-.3.93-.64,1.43-1l1.51-1,3-2,.76-.49.56-.34,1.06-.64,2.13-1.29,4.26-2.58,8.53-5.13c5.83-3.28,11.65-6.55,17.53-9.76l9-4.63,4.5-2.3,2.25-1.15,2.3-1.09a467.86,467.86,0,0,1,77.19-29.5Z"/><path class="cls-6" d="M673.29,1163.46c-.8.63-1.73,1.4-2.63,2.15s-1.79,1.47-2.78,2.32l-2.89,2.46-3,2.62-12.84,11.26c-8.91,7.85-18.43,16.15-28.54,24.41-20.2,16.52-42.7,32.94-67.93,46.93L484.6,1133c15.68-8.68,31.22-19.79,47.17-32.85,8-6.52,16.11-13.57,24.74-21.17L570,1067.11l3.6-3.11,3.79-3.22c1.23-1,2.61-2.19,4-3.3s2.67-2.21,4.16-3.39Z"/><path class="cls-7" d="M552.65,1255.61A327.07,327.07,0,0,1,470,1288.16c-3.68.9-7.41,1.64-11.11,2.44-1,.19-1.82.39-2.83.57l-3,.55c-2,.35-4.07.72-6.05,1-8,1.25-15.75,2-23.39,2.5a337.52,337.52,0,0,1-44.34-.18l9.55-139.91a196,196,0,0,0,25.72.14c4-.27,7.94-.64,11.46-1.2.92-.11,1.75-.28,2.6-.43l1.27-.22c.42-.07,1-.21,1.46-.31,2-.46,4-.82,6-1.31A186.77,186.77,0,0,0,484.6,1133Z"/><path class="cls-1" d="M379.19,1295a399.05,399.05,0,0,1-42.41-5.27,421.2,421.2,0,0,1-41.1-9.61,404.31,404.31,0,0,1-78.56-31.74l66.1-123.68a263.76,263.76,0,0,0,51.24,20.65,278.64,278.64,0,0,0,27.14,6.35,259.56,259.56,0,0,0,27.14,3.39Z"/><path class="cls-3" d="M217.12,1248.41a357.58,357.58,0,0,1-71.3-49.84,317.86,317.86,0,0,1-57.54-68.66l119.24-73.82a177.82,177.82,0,0,0,32.29,38.41,217.39,217.39,0,0,0,43.41,30.23Z"/><path class="cls-4" d="M88.28,1129.91a313.36,313.36,0,0,1-35.8-82.54A357.81,357.81,0,0,1,40.35,961l140.21-2.77a217.36,217.36,0,0,0,7.2,52.17,172.72,172.72,0,0,0,19.76,45.69Z"/><path class="cls-5" d="M40.35,961c-.05-7.1-.11-14.2.18-21.21l.18-5.27c.06-1.76.2-3.49.3-5.23l.33-5.23.17-2.61.09-1.3.12-1.37a315.64,315.64,0,0,1,6.75-44.34,276.4,276.4,0,0,1,14.07-44.59A257.67,257.67,0,0,1,85,787.22l117.39,76.71a125.82,125.82,0,0,0-17.13,41.55,177.73,177.73,0,0,0-3.76,24.93l-.08.81,0,.88-.11,1.76-.22,3.53c-.07,1.17-.18,2.35-.21,3.51l-.11,3.49c-.22,4.67-.14,9.25-.13,13.84Z"/><path class="cls-6" d="M85,787.22a246.82,246.82,0,0,1,30.3-37.84,269.27,269.27,0,0,1,36.07-31c25.44-18.13,52.67-31.21,79.75-40.8L277.7,809.89c-16.95,6-32.15,13.6-44.81,22.62s-22.77,19.4-30.53,31.42Z"/><path class="cls-7" d="M231.09,677.62a439.78,439.78,0,0,1,81-19.65,594.29,594.29,0,0,1,79.21-6.2l2,140.22a457.74,457.74,0,0,0-60.5,4.67,301.25,301.25,0,0,0-55.1,13.23Z"/><path class="cls-1" d="M391.31,651.77c52.1-.69,102.84,4.27,152.6,12.93L519.75,802.84c-42.3-7.39-85.05-11.42-126.45-10.85Z"/><path class="cls-3" d="M543.91,664.7c12.92,2.28,23.64,4.39,34.92,6.42s22.26,4,33.25,5.74c22,3.56,43.56,6.53,64.74,8.49L663.92,825c-25.38-2.36-50.11-5.79-74.28-9.7q-18.14-2.94-35.85-6.19c-11.72-2.11-23.94-4.49-34-6.26Z"/><path class="cls-4" d="M676.82,685.35c42.33,3.94,83,3.74,120.53-3.22L822.84,820a505,505,0,0,1-81,8,689.42,689.42,0,0,1-78-3Z"/><path class="cls-5" d="M797.35,682.13l7-1.44,3.49-.71c1.11-.23,2.47-.46,3.2-.7q2.58-.74,5.19-1.38a18.85,18.85,0,0,0,2.55-.8l2.52-.85a101.87,101.87,0,0,0,19.44-8.89c.78-.45,1.59-.84,2.36-1.33l2.29-1.52,2.31-1.49,1.17-.74,1.11-.85c1.49-1.13,3-2.23,4.52-3.32l4.39-3.67a57.72,57.72,0,0,0,4.32-3.88c1.42-1.35,2.91-2.58,4.25-4.09s2.77-2.88,4.18-4.31l4-4.64,106.93,90.73-7.48,8.58-8,8.32c-2.62,2.79-5.53,5.41-8.36,8.07s-5.66,5.33-8.73,7.81-6,5.06-9.1,7.52-6.38,4.76-9.58,7.1l-2.41,1.76-2.51,1.66-5,3.29-5.06,3.26c-1.7,1.07-3.48,2-5.23,3l-5.27,3c-1.77,1-3.49,2-5.33,2.89q-5.46,2.7-11,5.32c-1.81.91-3.7,1.66-5.58,2.45l-5.65,2.31-5.66,2.28-5.77,2-5.79,1.93c-1.93.64-3.85,1.3-5.82,1.79q-5.87,1.59-11.76,3.11c-2.08.57-3.6.82-5.34,1.2l-5.1,1.05L822.84,820Z"/><path class="cls-6" d="M875.62,637.52a178.44,178.44,0,0,0,15-20.54l1.79-2.74,1.67-2.88c1.11-1.93,2.28-3.8,3.36-5.77,2.09-4,4.31-7.91,6.22-12.11,8.07-16.46,14.46-34.56,19.57-53.31l135.46,36.29c-7.16,26.33-16.34,52.53-28.79,78.1-3,6.41-6.45,12.72-9.83,19-1.72,3.16-3.62,6.27-5.43,9.4l-2.77,4.68c-1,1.55-2,3.08-2.95,4.62a320.9,320.9,0,0,1-26.41,36Z"/><path class="cls-7" d="M923.27,540.17a400.68,400.68,0,0,0,10.79-58.3,459,459,0,0,0,2.3-60.31l140.17-4.27a598.64,598.64,0,0,1-3.06,79.71c-1.57,13.29-3.32,26.56-5.85,39.81-1.14,6.63-2.61,13.24-4,19.85-.67,3.31-1.56,6.61-2.35,9.91s-1.58,6.6-2.51,9.89Z"/><g id="Rectangle_186" data-name="Rectangle 186"><rect class="cls-8" x="951.32" y="7388.87" width="102.21" height="163.3" transform="translate(-6474.85 8421.21) rotate(-89.6)"/><rect class="cls-9" x="953.09" y="7390.63" width="98.68" height="159.77" transform="translate(-6474.85 8421.21) rotate(-89.6)"/></g><g id="END" class="cls-10"><text class="cls-11" transform="translate(978.72 7477.49) rotate(0.4)">END</text></g><polygon class="cls-8" points="1154.2 419.43 35.48 437.43 35.48 68.86 1154.2 68.86 1154.2 419.43"/><path id="Path_34" data-name="Path 34" class="cls-12" d="M933.51,422.94,1010,488.88l78.56-69.28-34.89.75L1051.6,324l-85.77,1.84,2.08,96.37Z"/><g id="START" class="cls-10"><text class="cls-13" transform="translate(1014.57 410.94) rotate(-90.23)">START</text></g></svg>