<?xml version="1.0" encoding="utf-8"?>
<!-- Generator: Adobe Illustrator 25.2.1, SVG Export Plug-In . SVG Version: 6.00 Build 0)  -->
<svg version="1.1" id="Layer_1" xmlns="http://www.w3.org/2000/svg" xmlns:xlink="http://www.w3.org/1999/xlink" x="0px" y="0px"
	 viewBox="0 0 612 4937.1" style="enable-background:new 0 0 612 4937.1;" xml:space="preserve">
<style type="text/css">
	.st0{fill:#FFFFFF;}
	.st1{fill:#F388B2;}
	.st2{fill:#F3714A;}
	.st3{fill:#60A353;}
	.st4{fill:#4F8ECB;}
	.st5{fill:#F1D54B;}
	.st6{fill:#93479B;}
	.st7{fill:#EF4043;}
	.st8{fill:#FFFFFF;stroke:#707071;stroke-width:3;}
	.st9{font-family:'OpenSans-Bold';}
	.st10{font-size:17.0083px;}
	.st11{fill:none;stroke:#707071;stroke-width:3;}
	.st12{font-size:19.6968px;}
</style>
<rect x="37.1" y="167.4" class="st0" width="526.5" height="380.3"/>
<g>
	<g>
		<g>
			<g>
				<g>
					<path class="st1" d="M228.1,2351.6l-20.2,119.1c-6.5-1.1-13.1-2.5-19.7-4.1c-3.3-0.9-6.6-1.8-9.9-2.8l-5-1.6l-2.5-0.8l-2.5-0.9
						c-13.2-4.7-26.1-10.9-38.2-18.2c-12.1-7.4-23.4-15.9-33.5-25.2c-10.1-9.3-19.1-19.2-27.1-29.4l94.9-74.7
						c4.4,5.7,9,10.7,13.8,15c4.7,4.3,9.6,8,14.7,11.1c5.1,3.1,10.4,5.6,16.2,7.7l1.1,0.4l1.1,0.3l2.2,0.7c1.5,0.5,3.1,0.9,4.6,1.3
						C221.4,2350.3,224.7,2351,228.1,2351.6z"/>
				</g>
				<g>
					<path class="st1" d="M592.8,3410.6l-118.1,25.3c-3.8-17.9-8.4-35.4-13.9-52c-5.5-16.5-11.9-32.2-19.4-46.3l106.7-56.5
						c11.4,21.5,20.1,43.3,27.3,64.9C582.6,3367.6,588.3,3389.2,592.8,3410.6z"/>
				</g>
				<g>
					<path class="st1" d="M301,1267.2l-49.8-110.1c19.6-8.9,39.1-16.9,58.4-24.5c19.3-7.6,38.4-14.8,56.7-21.9l43.7,112.6
						c-19.3,7.5-37.8,14.5-56,21.6C335.9,1252.2,318.2,1259.5,301,1267.2z"/>
				</g>
				<g>
					<path class="st2" d="M277.1,860.3c-20.1-2.7-40.7-5.5-62.2-9.4c-10.7-1.9-21.7-4.1-33-6.8c-11.3-2.7-22.8-5.9-34.9-10.1
						l39.8-114c7,2.4,14.8,4.7,23.1,6.6c8.3,2,17.1,3.7,26.2,5.4c18.1,3.2,37.4,5.9,57.2,8.6L277.1,860.3z"/>
				</g>
				<g>
					<path class="st3" d="M147,834.1c-12-4.2-24.5-9.4-37.4-16.7l-4.8-2.8l-4.9-3.1c-3.2-2-6.5-4.4-9.7-6.8
						c-1.6-1.1-3.2-2.5-4.8-3.8c-1.6-1.3-3.2-2.7-4.8-4.1c-1.6-1.5-3.2-3-4.7-4.5l-2.3-2.3c-0.8-0.8-1.5-1.6-2.3-2.4
						c-1.5-1.7-3-3.3-4.5-5c-1.5-1.7-2.8-3.6-4.2-5.4c-2.8-3.6-5.3-7.5-7.8-11.5c-1.3-1.9-2.3-4-3.4-6.1c-1.1-2.1-2.2-4.1-3.2-6.3
						c-0.9-2.1-1.9-4.3-2.7-6.4c-0.4-1.1-0.9-2.2-1.3-3.2l-1.1-3.2c-0.7-2.2-1.4-4.3-2.1-6.5c-0.6-2.2-1.1-4.3-1.7-6.5l-0.8-3.3
						c-0.2-1.1-0.5-2.2-0.7-3.2c-0.4-2.1-0.7-4.2-1-6.4l-0.5-3.2c-0.1-1.1-0.2-2.1-0.3-3.1l-0.5-6.2c-0.1-1-0.2-2.1-0.2-3.1l0-3
						l0-5.9L156,692c0,2.2,0.1,4.2,0.3,5.7c0.1,0.4,0.1,0.7,0.1,1.1c0,0.2,0.1,0.3,0.1,0.5c0,0.1,0.1,0.3,0.1,0.4
						c0.1,0.3,0.1,0.6,0.2,0.8c0.1,0.2,0.2,0.4,0.2,0.6c0,0.1,0.1,0.2,0.1,0.3c0,0.1,0.1,0.2,0.2,0.3c0.1,0.2,0.2,0.3,0.2,0.5
						c0.1,0.2,0.2,0.3,0.3,0.5c0.1,0.1,0.1,0.4,0.2,0.5c0.3,0.3,0.3,0.7,0.7,1c0.2,0.2,0.2,0.4,0.4,0.6c0.2,0.2,0.4,0.4,0.6,0.6
						c0.1,0.1,0.1,0.2,0.3,0.3c0.1,0.1,0.3,0.2,0.4,0.3c0.3,0.2,0.5,0.5,0.7,0.7c0.3,0.3,0.7,0.5,1,0.8c0.3,0.3,0.6,0.6,1.1,0.9
						c0.9,0.6,1.6,1.2,2.6,1.8c0.5,0.3,1,0.6,1.5,1l1.7,1c4.6,2.6,10.8,5.3,17.7,7.8L147,834.1z"/>
				</g>
				<g>
					<path class="st4" d="M35.3,690.2c0-1.8,0.1-4.3,0.3-6.6c0.2-2.3,0.3-4.6,0.6-6.9c0.6-4.6,1.2-9.2,2.4-13.7
						c1.9-9.1,5-17.7,8.6-25.8c7.3-16,16.8-29.5,26.5-40.4c9.8-11,20-20.1,30.1-28c10.1-7.9,20.2-14.7,30.2-20.9l63.8,102.6
						c-7.1,4.4-13.7,8.9-19.5,13.5c-5.7,4.5-10.6,9-14.2,13c-3.7,4-5.6,7.4-6.7,9.7c-0.4,1.1-0.9,2-0.9,2.8
						c-0.2,0.4-0.1,0.8-0.2,1.1c0,0.2,0,0.4,0,0.6c0,0.2-0.1,0.3,0,1L35.3,690.2z"/>
				</g>
				<g>
					<path class="st5" d="M133.8,547.8c20-12.4,39.6-22.4,58.9-31.7c19.3-9.3,38.3-17.7,57-25.8L298,600.9c-18.2,8-36,15.8-53,24
						c-16.9,8.1-33.2,16.6-47.4,25.4L133.8,547.8z"/>
				</g>
				<g>
					<path class="st6" d="M249.7,490.2c18.7-8.2,37-16,54.8-24c17.8-8,35-16,51.2-24.5l55.9,107.1c-19.5,10.2-38.8,19.1-57.7,27.6
						c-18.9,8.5-37.6,16.5-55.9,24.4L249.7,490.2z"/>
				</g>
				<g>
					<path class="st7" d="M355.7,441.8c16.2-8.4,31.3-17.3,43.8-26.5c6.2-4.6,11.8-9.2,16.2-13.6c4.4-4.4,7.7-8.6,9.8-11.9
						l103.3,62.6c-8.4,13.8-18.1,25.2-27.9,35c-9.9,9.8-19.9,18-29.9,25.3c-10,7.3-20,13.8-29.9,19.7c-9.9,5.9-19.7,11.4-29.5,16.4
						L355.7,441.8z"/>
				</g>
				<g>
					<path class="st2" d="M135.5,1223.3c18.7-14,38-26.1,57.4-37c9.7-5.4,19.5-10.5,29.3-15.4c9.8-4.9,19.6-9.5,29.3-13.9
						l49.8,110.1c-8.6,3.9-17,7.8-25.2,12c-8.2,4.1-16.3,8.4-24.2,12.7c-15.7,8.8-30.6,18.2-44.1,28.3L135.5,1223.3z"/>
				</g>
				<g>
					<path class="st3" d="M366.3,1110.8c9.1-3.5,18-7.1,26.4-10.6c2.1-0.9,4.2-1.8,6.2-2.7l3-1.3l2.9-1.3c2-0.9,3.7-1.7,5.6-2.6
						l2.6-1.3c0.8-0.4,1.7-0.8,2.4-1.3l2.3-1.2l2-1.1c0.7-0.4,1.2-0.7,1.7-1l0.8-0.5c0.1-0.1,0.2-0.2,0.3-0.2l0.3-0.2l0.5-0.4
						l0.3-0.2c0.1-0.1,0.3-0.2,0.4-0.3l1.9-1.4l1.9-1.4l1.8-1.6c4.9-4.1,9.6-8.8,13.9-14l92.7,77.4c-8.6,10.2-18.1,19.9-28.6,28.8
						l-3.9,3.3l-4.1,3.2l-4.1,3.1c-0.4,0.3-0.7,0.5-1.1,0.8l-1.3,0.9l-2.6,1.8l-1.3,0.9c-0.4,0.3-0.9,0.6-1.3,0.8l-2.4,1.5
						c-1.6,1-3.3,2-4.7,2.9l-4.6,2.6l-4.4,2.3c-1.5,0.8-2.9,1.5-4.3,2.2l-4.2,2.1c-2.7,1.3-5.5,2.7-8.1,3.8l-4,1.8l-3.9,1.7
						c-2.6,1.2-5.2,2.2-7.7,3.3c-10.2,4.3-20,8.1-29.6,11.9L366.3,1110.8z"/>
				</g>
				<g>
					<path class="st4" d="M443.4,1066.1c8.7-10.4,16-22.7,21.4-35.9c5.5-13.2,8.9-27.3,10.3-41.2l120.2,11.6
						c-1.3,13.1-3.5,25.9-6.7,38.6c-3.1,12.6-7.2,25-12.1,37c-9.9,24-23.3,46.8-40.4,67.3L443.4,1066.1z"/>
				</g>
				<g>
					<path class="st5" d="M475.1,989c0.7-7,0.8-13.9,0.4-20.7c-0.4-6.8-1.4-13.3-2.9-19.7c-1.5-6.3-3.5-12.4-6-18
						c-0.2-0.4-0.3-0.7-0.4-1.1l-0.5-1l-1-2.1c-0.6-1.4-1.4-2.7-2.2-4.1l-1.1-2l-0.9-1.4l-0.9-1.4c-0.4-0.4-0.7-0.9-1-1.3l96.8-72.2
						l3.5,4.7c1.1,1.6,2.2,3.3,3.2,4.9c1.1,1.6,2.1,3.3,3.1,4.9l2.6,4.6c1.7,3.1,3.4,6.1,4.9,9.2l2.3,4.7l1.1,2.4
						c0.4,0.8,0.7,1.6,1,2.4c5.7,12.7,10,25.9,13.1,39.2c3.1,13.3,5,26.7,5.9,40c0.8,13.3,0.6,26.6-0.7,39.7L475.1,989z"/>
				</g>
				<g>
					<path class="st6" d="M458.5,916.2c-2.7-3.6-6.1-7.1-10.4-10.6c-4.3-3.5-9.5-6.8-15.6-10c-12.1-6.4-27.3-11.7-43.9-16.1
						l30.9-116.8c11.2,3,22.5,6.4,34.1,10.6c11.5,4.2,23.3,9.2,35,15.3c11.8,6.2,23.6,13.6,35.1,22.7c11.4,9.1,22.3,20,31.6,32.6
						L458.5,916.2z"/>
				</g>
				<g>
					<path class="st7" d="M388.7,879.5c-16.6-4.4-34.7-7.8-53.3-10.9c-18.8-3-38.2-5.6-58.3-8.3l16.3-119.7
						c19.8,2.7,40.3,5.4,61.3,8.8c21,3.4,42.6,7.5,64.9,13.3L388.7,879.5z"/>
				</g>
				<g>
					<path class="st2" d="M421.7,1747.2c-1.9-3.5-4.1-6.7-6.2-10l-3.3-4.8l-1.7-2.4l-1.8-2.3c-4.6-6.3-9.6-12.1-14.9-17.8
						c-10.6-11.3-22.6-21.4-35.9-30.5l67.9-99.9c20,13.6,39,29.5,56,47.6c8.4,9.1,16.5,18.5,23.8,28.5l2.8,3.7l2.6,3.8
						c1.8,2.5,3.5,5.1,5.2,7.6c3.3,5.2,6.7,10.3,9.7,15.7L421.7,1747.2z"/>
				</g>
				<g>
					<path class="st3" d="M357.9,1679.4c-26.6-18.1-58.5-31.8-93.5-42.9l36.5-115.1c10.4,3.3,20.9,6.9,31.4,10.8
						c10.5,3.9,21.1,8.3,31.6,13c10.5,4.7,21,9.9,31.4,15.6c10.4,5.7,20.6,11.9,30.6,18.7L357.9,1679.4z"/>
				</g>
				<g>
					<path class="st4" d="M264.4,1636.5c-17.6-5.6-35.9-10.5-55-15.5c-19.2-5-39-9.9-60.2-16l34-115.9c17.5,5.1,36.7,9.9,56.5,15
						c19.9,5.1,40.4,10.7,61.2,17.3L264.4,1636.5z"/>
				</g>
				<g>
					<path class="st5" d="M149.2,1605c-10.6-3.1-21.5-6.6-33-10.9l-4.3-1.6l-4.4-1.8c-2.9-1.1-6-2.5-9-3.9c-1.5-0.6-3-1.4-4.6-2.2
						l-4.6-2.3l-4.7-2.5c-1.6-0.9-3.1-1.7-4.8-2.7l-4.8-2.9c-0.8-0.5-1.6-1-2.4-1.6l-2.5-1.6l-2.5-1.7l-1.2-0.8l-1.3-0.9l-5-3.8
						c-0.8-0.6-1.7-1.3-2.5-2l-2.5-2.1c-1.7-1.4-3.3-2.8-4.9-4.5c-1.6-1.6-3.3-3.2-4.9-4.8c-1.6-1.7-3.2-3.5-4.7-5.3
						c-0.8-0.9-1.6-1.8-2.3-2.8l-2.3-3c-1.5-2-3-4-4.4-6.1c-1.3-2.1-2.7-4.3-3.9-6.4c-0.7-1.1-1.2-2.2-1.8-3.3l-1.7-3.4l-1.6-3.4
						c-0.5-1.1-1-2.3-1.5-3.5c-0.9-2.3-1.9-4.7-2.7-7c-0.8-2.4-1.5-4.8-2.2-7.2c-0.3-1.2-0.7-2.4-1-3.6l-0.8-3.6l118.2-24.9
						c0,0,0,0.1,0,0.1c0,0.1,0,0,0,0c0,0,0,0,0,0c0,0,0.1,0,0,0c0,0-0.1,0,0,0l0,0c0,0,0,0,0,0c0,0,0,0,0,0c0,0,0,0,0,0
						c0,0,0.1,0,0,0c0,0,0,0,0,0c0,0,0.1,0.1,0.1,0.1c0.1,0.1,0.1,0.2,0.2,0.3c0.2,0.1,0.4,0.3,0.5,0.5c0.1,0.2,0.4,0.4,0.7,0.6
						c0.1,0.1,0.3,0.2,0.4,0.3c0.1,0.1,0.2,0.2,0.4,0.4c0.4,0.3,0.7,0.5,1.1,0.8l0.3,0.2l0.3,0.2l0.7,0.4l0.7,0.5
						c0.2,0.2,0.4,0.3,0.7,0.5c0.6,0.3,1.1,0.6,1.6,1c0.5,0.3,1.2,0.7,1.8,1l1.9,1l2.2,1c0.7,0.4,1.4,0.7,2.2,1.1
						c1.6,0.7,3.1,1.4,4.9,2.1l2.6,1.1l2.7,1c7.3,2.8,15.6,5.4,24.3,8L149.2,1605z"/>
				</g>
				<g>
					<path class="st6" d="M14.5,1491.7c-0.5-2.4-1-4.8-1.3-7.1c-0.3-2.3-0.6-4.6-0.8-6.9l-0.2-1.7c-0.1-0.5-0.1-1.2-0.1-1.6
						l-0.1-2.4l-0.3-4.7c-0.4-6.2-0.4-12.6-0.4-19c0.3-12.8,1.2-25.7,3.3-38.6c2.1-12.9,5.1-25.8,9.1-38.3
						c4-12.6,9.1-24.8,14.9-36.5l108.1,53.9c-3.1,6.3-5.8,12.7-7.9,19.4c-2.1,6.6-3.7,13.4-4.8,20.4c-1.1,7-1.6,14.2-1.8,21.5
						c0.1,3.7,0,7.4,0.3,11.2l0.1,2.8l0.1,1.4c0,0.3,0,0.2,0,0.3l0,0.1c0,0.2,0.1,0.4,0,0.6c0,0.2,0.1,0.2,0.1,0.3L14.5,1491.7z"/>
				</g>
				<g>
					<path class="st7" d="M38.4,1334.9l2.2-4.4l1.1-2.2l1.2-2.1c1.6-2.8,3.2-5.7,4.8-8.5l5.1-8.2c1.7-2.7,3.6-5.3,5.4-8
						c7.3-10.5,15.2-20.4,23.5-29.7c16.7-18.4,34.8-34.4,53.5-48.3l72.3,96.7c-13.6,10.1-25.7,21-36.1,32.4
						c-5.1,5.7-9.8,11.6-14,17.7c-1,1.5-2.1,3-3.1,4.5l-2.9,4.6l-2.6,4.7l-0.7,1.2l-0.6,1.2l-1.2,2.4L38.4,1334.9z"/>
				</g>
				<g>
					<path class="st2" d="M56.5,2093.3c12.8-21.9,28.6-42.3,47.1-60.2c18.4-18,39.6-33.5,62.5-45.6l56.4,106.8
						c-12.6,6.7-24.3,15.2-34.7,25.3c-10.4,10.1-19.5,21.8-27.1,34.7L56.5,2093.3z"/>
				</g>
				<g>
					<path class="st3" d="M166,1987.4c23-12.1,47.7-20.8,72.8-26c25.1-5,50.5-6.8,75.1-5.5l-6,120.6c-15.6-0.8-30.6,0.3-45,3.2
						c-14.3,3-27.9,7.8-40.6,14.4L166,1987.4z"/>
				</g>
				<g>
					<path class="st4" d="M314,1956c24.7,1.2,48.6,5.3,71.6,11.1l8.5,2.3l4.3,1.2l1.8,0.5c2.3,0.6,4.4,1,6.5,1.2
						c4.1,0.4,7.8,0.3,11.2-0.4l24.4,118.3c-16.3,3.4-33,3.9-48.9,2.2c-7.9-0.9-15.7-2.4-23.2-4.3l-14.5-4c-16-4-32-6.7-47.6-7.4
						L314,1956z"/>
				</g>
				<g>
					<path class="st5" d="M417.9,1971.8c3.4-0.7,6.6-1.9,9.8-3.8c3.2-1.9,6.5-4.4,9.7-7.9c6.4-6.8,12.3-17,16.2-29.4l114.9,37.1
						c-1,3.2-2.2,6.5-3.4,9.7l-1.9,4.8l-1,2.4l-1,2.4c-2.7,6.4-5.9,12.8-9.4,19.2c-3.5,6.3-7.5,12.5-11.8,18.6
						c-4.3,6.1-9.2,12-14.4,17.6c-10.5,11.3-23,21.6-37.2,29.8c-14.1,8.3-30,14.4-46.3,17.7L417.9,1971.8z"/>
				</g>
				<g>
					<path class="st6" d="M453.6,1930.7c1-3.1,1.9-6.3,2.7-9.6c0.3-1.7,0.8-3.3,1.1-5.1l0.5-2.6l0.4-2.6c1.1-7,1.7-14.5,1.8-22.1
						c0.3-15.2-1.3-31.3-4.4-47.5l118.6-22.7c4.5,23.3,7,47.5,6.5,72.5c-0.2,12.5-1.2,25.2-3.2,38.1l-0.8,4.8l-0.9,4.8
						c-0.6,3.2-1.3,6.5-2,9.7c-1.6,6.5-3.3,13-5.4,19.4L453.6,1930.7z"/>
				</g>
				<g>
					<path class="st7" d="M455.7,1841.1c-3.1-16.3-7.8-32.7-13.6-49c-1.5-4.1-3-8.2-4.7-12.2c-0.4-1-0.8-2.1-1.2-3l-1.2-2.8
						l-2.4-5.6c-3.4-7.3-6.9-14.5-11-21.2l104.3-60.9c6.3,10.5,11.6,21.5,16.7,32.4l3.6,8.3l1.8,4.1c0.6,1.4,1.1,2.7,1.6,4
						c2.1,5.3,4.1,10.6,6.1,16c7.7,21.6,14.1,44,18.6,67.2L455.7,1841.1z"/>
				</g>
				<g>
					<path class="st2" d="M439.4,2608.9c5.3-10.6,10.5-19.9,14.9-28.2c4.4-8.2,8-15.5,10.5-21.5c2.5-6,3.7-10.7,4.1-14.2
						c0.2-1.8,0.3-3.3,0.2-4.8c-0.1-1.5-0.2-3-0.6-4.7l118.1-25.3c1.8,8.2,2.8,16.7,3.2,25.3c0.3,8.6-0.1,17.1-1.2,25.3
						c-1.1,8.2-2.8,16.1-4.9,23.4c-2.1,7.3-4.5,14.1-7.1,20.5c-5.2,12.6-10.8,23.4-15.8,32.9c-5.1,9.5-9.7,17.8-13.4,25.2
						L439.4,2608.9z"/>
				</g>
				<g>
					<path class="st3" d="M468.6,2535.7c-0.4-1.7-0.9-3.5-1.7-5.6c-0.7-2.1-1.9-4.4-3.1-6.8l-1-1.9c-0.4-0.6-0.8-1.3-1.1-1.9
						c-0.7-1.3-1.7-2.6-2.5-4c-1.9-2.7-3.8-5.5-6.1-8.4l-1.7-2.1l-1.8-2.2c-0.6-0.7-1.2-1.4-1.8-2.2l-1.9-2.2l-1-1.1l-0.5-0.5
						l-0.4-0.4l-1.6-1.7c-1-1.2-2.1-2.1-3.2-3.1c-4.3-4-8.7-7.3-13.4-10l60.6-104.5c12.8,7.3,24.6,16.3,35,26
						c2.6,2.4,5.2,4.9,7.6,7.4l3.6,3.8l0.9,1l0.8,0.9l1.5,1.7l3.1,3.5c1,1.2,2,2.4,3,3.6l3,3.6l3,3.8c4,5,7.9,10.4,11.7,16
						c1.9,2.9,3.8,5.7,5.6,8.8c0.9,1.5,1.8,3,2.7,4.6l2.6,4.8c3.4,6.5,6.7,13.2,9.4,20.6c2.8,7.3,5.2,15.1,6.9,23.3L468.6,2535.7z"
						/>
				</g>
				<g>
					<path class="st4" d="M425.7,2481.7c-4.7-2.7-9.7-4.9-15.3-6.7c-5.6-1.7-12-3-19-3.9c-7-0.9-14.8-1.3-23-1.3
						c-8.3,0-17.1,0.3-26.5,0.8l-6.8-120.6c10.8-0.6,22.1-1.1,33.9-1c11.9,0.1,24.2,0.6,37.2,2.2c13,1.6,26.5,4.3,40.1,8.5
						c13.6,4.3,27.2,10.1,39.9,17.5L425.7,2481.7z"/>
				</g>
				<g>
					<path class="st5" d="M341.9,2470.6c-18.7,1-39.1,2.9-61.4,3.8c-11.1,0.4-22.8,0.6-34.9,0.1c-12.1-0.5-24.8-1.6-37.7-3.8
						l20.2-119.1c6.9,1.2,14.3,1.9,22.3,2.2c8,0.3,16.5,0.2,25.5-0.1c17.9-0.7,37.7-2.5,59.2-3.7L341.9,2470.6z"/>
				</g>
				<g>
					<path class="st6" d="M69.7,2387.7c-8-10.2-15.1-20.6-21.4-31.1c-7.3-12.2-13.3-25.1-17.9-38.1c-9.3-26.1-13.4-52.9-13.6-79.1
						l120.8-0.9c0.1,14.1,2.4,27.6,6.6,39.5c2.1,5.9,4.7,11.4,7.7,16.5c4.1,6.7,8.3,12.9,12.8,18.6L69.7,2387.7z"/>
				</g>
				<g>
					<path class="st7" d="M16.7,2239.4c-0.2-26.2,3.4-51.7,10.2-76.2c6.8-24.5,16.7-48,29.5-69.9l104.3,61
						c-7.5,12.8-13.4,26.8-17.4,41.1c-4,14.3-6,29-5.8,43.1L16.7,2239.4z"/>
				</g>
				<g>
					<path class="st2" d="M30.4,3147.9c-3.4-13.4-5.4-26.3-6.7-38.6l-0.5-4.6l-0.4-4.6c-0.3-3.1-0.4-6-0.6-9c-0.2-3-0.2-5.9-0.3-8.9
						c-0.1-3,0-6.3,0-9.4l0-4.7l0-2.4l0.1-2.4l0.5-9.6c0.1-3.2,0.5-6.5,0.9-9.7l0.5-4.9c0.2-1.6,0.3-3.2,0.6-4.9l1.6-9.8l0.4-2.5
						c0.2-0.8,0.4-1.6,0.5-2.5l1.1-4.9c1.3-6.6,3.4-13.1,5.3-19.7l115,36.9c-0.8,3.1-1.9,6.2-2.5,9.5l-0.6,2.4
						c-0.1,0.4-0.2,0.8-0.3,1.2l-0.2,1.3c-0.3,1.7-0.5,3.4-0.8,5.1c-0.2,0.8-0.2,1.7-0.3,2.6l-0.3,2.6c-0.2,1.8-0.5,3.5-0.5,5.4
						l-0.3,5.5l-0.1,1.4c0,0.5,0,0.9,0,1.4l0,2.8c0,1.9,0,3.7,0,5.7c0.1,2.1,0.1,4.2,0.2,6.2c0.1,2,0.2,4.1,0.4,6l0.2,3l0.3,2.9
						c0.8,7.7,2,14.8,3.5,20.9L30.4,3147.9z"/>
				</g>
				<g>
					<path class="st3" d="M33.6,2995.1c4.3-13,9.7-25.9,16.3-38.2c6.7-12.2,14.5-23.7,23.1-34.3l6.6-7.8l6.9-7.4l1.7-1.8l1.8-1.7
						l3.6-3.4l3.6-3.4l3.7-3.2l3.7-3.2l1.9-1.6l1.9-1.5l7.5-6c5.1-3.7,10.2-7.5,15.3-10.9l67.1,100.4c-3.3,2.1-6.2,4.4-9.3,6.6
						l-4.3,3.4l-1.1,0.8l-1,0.9l-2,1.7l-2,1.7l-1.9,1.8l-1.9,1.8l-0.9,0.9l-0.9,0.9c-1.1,1.2-2.3,2.4-3.4,3.6
						c-1,1.3-2.1,2.5-3.1,3.7c-4.1,5-7.6,10.2-10.6,15.6c-2.9,5.5-5.3,11.3-7.4,17.3L33.6,2995.1z"/>
				</g>
				<g>
					<path class="st4" d="M131.2,2870.6c10.3-6.9,20.7-13.1,31.2-18.5c10.4-5.5,20.8-10.6,31.2-15.1c10.3-4.5,20.6-8.8,30.8-12.6
						c10.2-3.9,20.3-7.5,30.2-10.9l39.4,114.2c-9.1,3.1-17.9,6.3-26.6,9.6c-8.7,3.3-17,6.7-25.1,10.3c-8.1,3.5-15.8,7.3-23.2,11.2
						c-7.4,3.9-14.3,8-20.7,12.3L131.2,2870.6z"/>
				</g>
				<g>
					<path class="st5" d="M254.5,2813.5c9.9-3.4,19.8-6.7,29.4-9.9l28.5-9.4c18.6-6.2,36.4-12.4,52.4-19.1l46.8,111.3
						c-21.1,8.8-41.4,15.8-61,22.4l-28.9,9.5c-9.5,3.1-18.7,6.2-27.8,9.3L254.5,2813.5z"/>
				</g>
				<g>
					<path class="st6" d="M364.8,2775.1c7.9-3.4,15.4-6.8,22.1-10.4c6.7-3.6,12.5-7.3,17-10.8c4.6-3.5,7.7-6.8,9.6-9.4
						c1.9-2.7,2.9-4.6,3.6-7.1l116.5,32c-0.6,2.1-1.3,4.2-1.9,6.3l-1,3.1c-0.4,1-0.8,2.1-1.2,3.1c-1.7,4.1-3.2,8.3-5.3,12.1
						c-1,2-2,3.9-3,5.9c-0.3,0.5-0.5,1-0.8,1.5l-0.8,1.4l-1.7,2.8c-1.1,1.8-2.3,3.7-3.5,5.5c-1.2,1.8-2.4,3.4-3.7,5.1
						c-10,13.6-21.5,24.4-32.8,33.2c-11.4,8.8-22.7,15.7-33.8,21.7c-11.1,5.9-21.9,10.9-32.5,15.4L364.8,2775.1z"/>
				</g>
				<g>
					<path class="st7" d="M417.1,2737.3c0.7-2.5,1.1-5.8,0.8-10.5l0-0.8c0-0.3-0.1-0.6-0.1-0.9c-0.1-0.6-0.2-1.3-0.2-1.9l-0.1-1
						l0-0.5l0-0.3l-0.1-0.7l-0.7-5.9c-0.8-8-1.1-16.1-0.7-24.1c0.4-8,1.3-15.9,2.8-23.5c1.4-7.6,3.4-14.9,5.6-21.7
						c4.4-13.7,9.9-25.8,15.2-36.4l108.1,54c-3.7,7.4-6.4,13.8-8.2,19.2c-1.8,5.5-2.5,9.8-2.7,13.9c-0.1,2,0,4,0.2,6.1
						c0.1,0.5,0.1,1,0.2,1.6l0.6,5l0.6,5.6c0.1,0.9,0.2,1.8,0.3,2.8l0.1,2.9l0.2,5.9c0.1,2,0.1,3.9,0,5.9l-0.2,6.1
						c-0.1,2-0.1,4-0.4,6.1c-0.2,2.1-0.5,4.2-0.7,6.3c-0.3,2.1-0.5,4.2-1,6.3c-0.4,2.1-0.9,4.2-1.3,6.4c-0.5,2.1-0.9,4.2-1.6,6.3
						L417.1,2737.3z"/>
				</g>
				<g>
					<path class="st2" d="M379.6,3525.6c17.8-4.9,34.7-10.3,49.6-16.6c3.7-1.6,7.2-3.2,10.6-4.9c3.4-1.7,6.6-3.4,9.5-5.1
						c6-3.5,11-7.1,14.9-10.5l80.2,90.3c-11.2,9.9-22.8,17.8-34.2,24.5c-5.7,3.3-11.4,6.4-17.1,9.2c-5.6,2.8-11.3,5.3-16.8,7.7
						c-22.3,9.4-43.8,16.1-64.8,21.9L379.6,3525.6z"/>
				</g>
				<g>
					<path class="st3" d="M464.3,3488.5c3.9-3.5,6.6-6.7,8.5-9.7c1.9-3,3.1-5.9,4-9.5c0.8-3.6,1.3-8.1,1-13.5c0-1.3-0.2-2.8-0.3-4.2
						l-0.3-2.2c-0.1-0.7-0.2-1.5-0.3-2.3c-0.1-0.8-0.2-1.5-0.4-2.3l-0.5-2.4c-0.1-0.7-0.4-2-0.6-3.1l-0.7-3.4l118.1-25.3l0.9,4
						c0.3,1.4,0.6,2.5,0.9,4.3l0.9,5c0.3,1.7,0.5,3.4,0.8,5.1c0.3,1.7,0.5,3.4,0.7,5.2c0.2,1.8,0.4,3.5,0.6,5.3
						c0.3,3.6,0.6,7.2,0.8,10.9c0.7,14.6-0.4,30.5-4.1,46.5c-3.7,16-10.3,32-19.1,46c-8.8,14.1-19.5,26.1-30.7,36L464.3,3488.5z"/>
				</g>
				<g>
					<path class="st4" d="M441.4,3337.6c-3.7-7-7.7-13.7-11.9-19.8c-4.2-6.1-8.7-11.8-13.4-16.8c-9.4-10.1-19.6-17.9-31-23.8
						l55.2-107.4c6.1,3.1,12,6.5,17.8,10.2c2.9,1.8,5.7,3.8,8.6,5.7c2.8,2,5.6,4,8.3,6.1c10.8,8.3,20.8,17.5,29.8,27.2
						c9,9.7,17,19.9,24.2,30.4c7.2,10.4,13.5,21.1,19.2,31.9L441.4,3337.6z"/>
				</g>
				<g>
					<path class="st5" d="M385.1,3277.1c-11.5-5.9-24.5-10-39.4-12.4c-14.9-2.5-31.5-3.2-49.4-2.9l-2.1-120.8
						c22.3-0.4,46.1,0.4,71,4.4c12.4,2,25.1,4.9,37.8,8.9c6.3,2,12.6,4.2,18.9,6.8c6.3,2.5,12.5,5.4,18.5,8.5L385.1,3277.1z"/>
				</g>
				<g>
					<path class="st6" d="M296.2,3261.9c-18,0.3-37.1,1.7-57.9,2.9c-10.4,0.6-21.3,1.1-32.8,1.3c-11.5,0.2-23.7-0.1-36.9-1.3
						l11.8-120.2c6.8,0.7,14.8,0.9,23.4,0.8c8.6-0.1,17.9-0.5,27.6-1.1c19.4-1.1,40.4-2.7,62.7-3L296.2,3261.9z"/>
				</g>
				<g>
					<path class="st7" d="M168.6,3264.7c-13.2-1.3-27.5-3.7-42.8-8.8c-7.6-2.6-15.5-5.8-23.3-10c-7.8-4.1-15.4-9.2-22.5-15.1
						c-7.1-5.8-13.5-12.4-19.1-19.4c-5.6-6.9-10.3-14.2-14.3-21.4c-4-7.2-7.2-14.4-9.8-21.5c-2.6-7-4.7-13.9-6.5-20.7l117-30
						c0.8,3,1.6,5.7,2.5,8.1c0.9,2.4,1.8,4.4,2.7,6c0.9,1.6,1.7,2.8,2.4,3.7c0.7,0.9,1.4,1.5,2.1,2.1c0.7,0.6,1.4,1.1,2.6,1.7
						c1.1,0.6,2.6,1.2,4.5,1.9c3.8,1.3,9.4,2.4,16.3,3.1L168.6,3264.7z"/>
				</g>
				<g>
					<path class="st2" d="M256.8,4038.2c-5.1-1.4-10.4-3-15.6-4.5l-7.8-2.4l-3.9-1.2l-4-1.3c-10.5-3.4-21.2-7.2-31.8-11.3
						c-5.4-2.2-10.7-4.3-16.1-6.7c-5.4-2.3-10.7-4.9-16.1-7.4c-2.7-1.3-5.4-2.7-8.1-4.1l-4-2.1l-4-2.2c-2.7-1.5-5.3-3-8-4.6l-8-4.9
						l64.6-102.1l4.9,3c1.7,1,3.4,1.9,5.1,2.9l2.6,1.5l2.7,1.4c1.8,0.9,3.5,1.9,5.4,2.8c3.7,1.7,7.4,3.6,11.3,5.2
						c3.8,1.7,7.8,3.3,11.8,4.9c8.1,3.1,16.4,6.2,25.1,8.9l3.2,1.1l3.3,1l6.6,2c4.5,1.3,8.9,2.6,13.5,3.9L256.8,4038.2z"/>
				</g>
				<g>
					<path class="st3" d="M129.5,3985.4c-21.1-13.4-41.8-30.2-59.4-50.8c-1.1-1.3-2.2-2.5-3.3-3.9l-3.1-4l-3.1-4
						c-1-1.3-2.1-2.7-3-4.1l-5.8-8.4c-1-1.4-1.8-2.9-2.7-4.3l-2.6-4.4l-2.6-4.4c-0.9-1.5-1.6-3-2.4-4.5l-4.6-9.1
						c-1.4-3.1-2.7-6.1-4.1-9.2l-2-4.6l-1.7-4.7l113-42.7l0.9,2.4l1,2.3l2,4.6c0.8,1.5,1.5,2.9,2.3,4.4c0.4,0.7,0.7,1.5,1.1,2.2
						l1.3,2.1l1.2,2.1c0.4,0.7,0.8,1.4,1.3,2.1c0.9,1.3,1.8,2.7,2.7,4c0.4,0.7,0.9,1.3,1.5,2l1.5,1.9l1.5,2c0.5,0.6,1.1,1.2,1.6,1.9
						c8.5,10,19.3,19.1,32.2,27.2L129.5,3985.4z"/>
				</g>
				<g>
					<path class="st4" d="M29,3864.9l-3.4-9.4l-2.8-9.4l-1.4-4.7c-0.4-1.6-0.8-3.1-1.2-4.7l-2.2-9.4c-0.4-1.6-0.6-3.1-0.9-4.7
						l-0.8-4.7l-0.8-4.7c-0.3-1.6-0.6-3.1-0.7-4.7l-1.2-9.3l-0.6-4.7c-0.2-1.5-0.2-3.1-0.4-4.6l-0.7-9.2c-0.1-1.5-0.3-3.1-0.3-4.6
						l-0.1-4.5l-0.2-9l0-2.3c0-0.3,0-0.9,0-1.3l0-1.4c0-1.8,0.1-3.7,0.1-5.5c0.6-14.8,3-30.3,7.9-45.6l115.1,36.8
						c-1.3,3.9-2,8.4-2.3,13.7l0,2l0,0.5c0,0.2,0,0.3,0,0.6l0,1.5l0.1,6l0.1,3c0,1,0.1,2,0.2,3l0.4,5.9c0.1,1,0.1,2,0.2,2.9l0.4,2.8
						l0.7,5.7c0.1,1,0.3,1.9,0.5,2.8l0.5,2.7l0.5,2.7c0.2,0.9,0.3,1.8,0.5,2.7l1.3,5.3c0.2,0.9,0.4,1.8,0.6,2.6l0.8,2.5l1.5,5
						c0.6,1.6,1.2,3.2,1.8,4.8L29,3864.9z"/>
				</g>
				<g>
					<path class="st5" d="M19.3,3706.6c2.4-7.6,5.5-15.2,9.1-22.4c3.6-7.3,7.7-14.2,12.3-20.7c9.1-13,19.7-24.3,30.6-33.6
						c5.5-4.7,11.1-9,16.7-12.9c5.6-3.9,11.3-7.4,16.9-10.7c5.6-3.3,11.2-6.3,16.8-9c5.6-2.8,11.2-5.3,16.7-7.7l47.7,110.9
						c-14.9,6.4-27.7,13.7-36.3,21.2c-4.4,3.7-7.6,7.3-10,10.8c-2.5,3.5-4.1,6.9-5.4,10.8L19.3,3706.6z"/>
				</g>
				<g>
					<path class="st6" d="M138.3,3589.5c22.1-9.5,43.6-16.4,64.7-22.3c21-5.9,41.6-10.7,61.8-15.2l26.3,117.9
						c-19.1,4.3-37.8,8.7-55.5,13.7c-17.7,5-34.6,10.5-49.5,16.9L138.3,3589.5z"/>
				</g>
				<g>
					<path class="st7" d="M264.8,3552c20.2-4.5,39.9-8.6,59.1-12.9c19.2-4.3,37.9-8.6,55.8-13.5l32,116.5
						c-21,5.8-41.5,10.5-61.6,14.9c-20.1,4.4-39.7,8.6-58.9,12.8L264.8,3552z"/>
				</g>
				<g>
					<path class="st2" d="M226.7,4259.9c23.5-6.2,45.4-9.6,66.3-12.6c10.5-1.5,20.7-2.8,30.6-4.1c10-1.3,19.7-2.5,29.2-3.9
						l16.9,119.6c-10.5,1.5-20.7,2.8-30.7,4.1c-10,1.3-19.8,2.5-29.2,3.9c-18.9,2.7-36.9,5.7-52.3,9.8L226.7,4259.9z"/>
				</g>
				<g>
					<path class="st3" d="M352.8,4239.3c9.5-1.3,18.7-2.8,27.6-4.4c8.9-1.6,17.4-3.4,25.6-5.4c2-0.5,4.1-1,6-1.6l5.8-1.6l5.5-1.8
						c1.8-0.6,3.5-1.3,5.3-1.9c6.9-2.6,13.1-5.4,18.4-8.4l59.8,105c-12.2,7-24.5,12.3-36.4,16.8c-3,1.1-6,2.2-8.9,3.1l-8.8,2.8
						l-8.7,2.5c-2.9,0.8-5.7,1.5-8.6,2.2c-11.4,2.8-22.6,5.1-33.5,7.1c-10.9,1.9-21.6,3.6-32,5.1L352.8,4239.3z"/>
				</g>
				<g>
					<path class="st4" d="M447,4214.3c5.3-3,9.6-6.1,13.1-9.4c3.5-3.3,6.2-6.5,8.5-10.4c2.3-3.8,4.2-8.2,5.7-13.4
						c0.4-1.3,0.8-2.6,1.1-4c0.3-1.4,0.6-2.8,0.9-4.3c0.2-1.6,0.4-3.1,0.7-4.7l0.2-1.2l0.1-1.2l0.2-2.5l120.3,10.6l-0.5,5l-0.2,2.5
						l-0.4,2.6c-0.5,3.4-1,6.9-1.6,10.3c-0.6,3.5-1.4,7-2.2,10.5c-0.7,3.5-1.8,7-2.8,10.5c-4.1,14.1-10.1,28.4-18.2,41.8
						c-8.1,13.5-18.3,25.8-29.5,36.3c-11.3,10.5-23.5,19.1-35.7,26L447,4214.3z"/>
				</g>
				<g>
					<path class="st5" d="M477.5,4163.2c0.4-3.2,0.4-6.9,0.5-10.4c0.1-0.9,0-1.8,0-2.8l-0.1-2.8l0-2.8l0-0.7l0-0.3l0-0.3l-0.1-1.1
						c-0.1-1.4-0.2-2.9-0.3-4.3c-0.2-1.3-0.4-2.6-0.6-3.9c0-0.3-0.1-0.7-0.1-1l-0.2-0.9c-0.1-0.6-0.3-1.2-0.4-1.8l-0.2-0.9
						c-0.1-0.3-0.1-0.6-0.2-0.9c-0.2-0.5-0.4-1.1-0.5-1.6c-1.4-4.3-3.1-7.8-5.4-11.3c-0.7-0.8-1.2-1.7-1.9-2.6
						c-0.8-0.8-1.5-1.7-2.2-2.6c-0.9-0.8-1.7-1.7-2.6-2.6c-0.9-0.9-2-1.7-2.9-2.6l78.5-91.8c2.8,2.5,5.6,4.9,8.3,7.5
						c2.7,2.7,5.4,5.4,8,8.2c2.6,2.9,5.1,5.9,7.6,8.9c2.4,3.1,4.7,6.4,7,9.6c9,13.2,16.1,27.9,20.8,42.8l1.7,5.6
						c0.3,0.9,0.5,1.9,0.7,2.8l0.7,2.8l1.3,5.6l0.6,2.8c0.2,0.9,0.3,1.8,0.5,2.8c0.6,3.7,1.1,7.4,1.7,11c0.3,3.6,0.6,7.2,0.9,10.8
						l0.2,2.7l0,0.7l0,0.6l0,1.2l0.1,4.8l0.1,4.8c0,1.6,0.1,3.1,0,4.8c-0.2,6.5-0.3,13-1,19.7L477.5,4163.2z"/>
				</g>
				<g>
					<path class="st6" d="M460.1,4105.2c-4.2-3.5-9.4-7.1-15.4-10.6l-2.3-1.3l-1.1-0.7c-0.4-0.2-0.8-0.4-1.2-0.6l-5-2.5l-5.3-2.4
						c-0.9-0.4-1.8-0.8-2.7-1.2l-2.8-1.2c-7.5-3.1-15.5-6.1-23.9-8.8c-8.4-2.7-17.2-5.4-26.2-7.8l32.2-116.4
						c10.3,2.8,20.9,6,31.6,9.5c10.7,3.4,21.6,7.4,32.7,12l4.2,1.8c1.4,0.6,2.8,1.2,4.2,1.8l8.4,3.9l8.5,4.3
						c0.7,0.4,1.4,0.7,2.1,1.1l2.1,1.2l4.3,2.4c11.4,6.5,23,14.2,34.2,23.8L460.1,4105.2z"/>
				</g>
				<g>
					<path class="st7" d="M374,4068.2l-3.4-0.9l-3.4-0.9l-6.9-1.8l-14.1-3.6l-29-7.1c-19.6-4.8-39.8-9.8-60.5-15.6l32.7-116.3
						c18.1,5.1,37,9.8,56.5,14.5c9.8,2.4,19.6,4.8,29.7,7.3l15.2,3.9l7.7,2l3.8,1l3.9,1.1L374,4068.2z"/>
				</g>
				<g>
					<path class="st5" d="M258.8,4618.8c-8.6-5.3-17.3-10.7-26.1-16.2c-8.8-5.6-17.7-11.2-26.8-17.3c-9-6-18.1-12.3-27.3-19.2
						c-9.2-6.9-18.5-14.3-27.8-22.7l81.1-89.5c5.6,5.1,12,10.3,19,15.4c6.9,5.2,14.4,10.3,22.1,15.5c7.7,5.2,15.8,10.3,24,15.5
						c8.2,5.2,16.6,10.3,25.2,15.6L258.8,4618.8z"/>
				</g>
				<path class="st6" d="M150.7,4543.4c-9.3-8.5-18.7-17.9-27.7-29.4l-3.4-4.4c-1.1-1.5-2.2-3.1-3.3-4.7c-1.1-1.6-2.2-3.1-3.2-4.8
					l-3.1-5.1l-1.5-2.6l-1.5-2.7c-1-1.8-1.9-3.7-2.9-5.5c-0.9-1.9-1.8-3.9-2.7-5.9l-1.3-3c-0.4-1-0.8-2-1.2-3.1
					c-1.5-4.2-3.1-8.3-4.2-12.9c-0.6-2.2-1.2-4.4-1.7-6.7c-0.4-2.3-0.9-4.6-1.3-6.9l-0.6-3.5c-0.2-1.2-0.3-2.3-0.4-3.5
					c-0.2-2.3-0.4-4.7-0.6-7l-0.1-0.9c0-0.3,0-0.5,0-0.7l0-1.3l-0.1-2.6l-0.1-5.2c0-14.1,1.3-29.1,5.3-44.8l117.1,29.8
					c-1,3.8-1.6,9-1.6,15l0,2.3l0,1.2l0,0.6c0,0.1,0,0.2,0,0.3l0,0.1c0.1,0.2,0.1,0.3,0.1,0.5c0,0.1,0,0.2,0,0.3
					c0,0.1,0.1,0.2,0.1,0.3c0,0.2,0.1,0.4,0.1,0.5c0.1,0.2,0.2,0.4,0.2,0.6c0,0.4,0.4,1,0.5,1.5c0.8,2.3,2.9,5.9,6.3,10.3
					c3.4,4.4,8.1,9.3,13.7,14.4L150.7,4543.4z"/>
				<g>
					<path class="st7" d="M95.4,4376.4l1.6-5.9c0.6-2,1.1-3.9,1.9-5.9c0.7-2,1.4-4,2.2-5.9c0.8-2,1.5-3.9,2.4-5.9
						c0.9-2,1.8-3.9,2.8-5.9l1.4-2.9c0.5-1,1.1-1.9,1.6-2.9c1.1-1.9,2.2-3.8,3.3-5.7l1.7-2.8l1.9-2.7c2.5-3.6,5-7.2,7.9-10.5
						c1.4-1.7,2.8-3.3,4.2-5c0.7-0.8,1.4-1.6,2.2-2.4l2.2-2.3c1.5-1.5,3-3,4.5-4.5c1.5-1.4,3.1-2.7,4.7-4.1c1.6-1.3,3.2-2.7,4.7-4
						l4.8-3.6c12.9-9.4,26.1-16.2,38.7-21.5c12.6-5.3,24.8-9.1,36.5-12.2l30.9,116.8c-7.7,2-14.8,4.3-20.7,6.8
						c-6,2.5-10.7,5.2-14,7.6c-3.4,2.5-5.3,4.6-6.7,6.7c-1.4,2.1-2.6,4.5-3.6,8.4L95.4,4376.4z"/>
				</g>
				<g>
					<path class="st2" d="M446.1,4831.1c0.3-7.1,0.1-14.1-0.5-21c-0.8-6.8-2-13.4-3.7-20c-1.8-6.5-4.2-12.9-7-19.3
						c-0.8-1.6-1.4-3.2-2.2-4.7l-2.5-4.7c-1.8-3.1-3.5-6.3-5.6-9.4l101.7-65.2c13.9,21.4,25.1,45.8,32.2,71.6
						c3.5,12.9,5.9,26.1,7.3,39.3c1.3,13.2,1.5,26.4,1,39.4L446.1,4831.1z"/>
				</g>
				<g>
					<path class="st3" d="M424.6,4752.1l-1.5-2.3l-1.6-2.3l-1.6-2.3l-0.8-1.2l-0.9-1.1l-3.5-4.6l-3.7-4.5c-5-6-10.5-12-16.4-17.9
						c-5.9-5.8-12.3-11.6-18.9-17.3c-6.6-5.6-13.6-11.2-20.8-16.6l72.7-96.4c8.8,6.7,17.6,13.7,26.3,21c8.7,7.4,17.3,15.2,25.7,23.5
						c8.4,8.3,16.6,17.2,24.4,26.6l5.8,7.2l5.6,7.5l1.4,1.9l1.4,1.9l2.7,3.9l2.7,3.9l2.6,4L424.6,4752.1z"/>
				</g>
				<g>
					<path class="st4" d="M354.9,4681.9c-14.5-10.9-29.9-21.4-46.1-31.8c-16.1-10.4-32.9-20.7-50.1-31.3l63.3-102.9
						c34.2,21.1,70.2,42.9,105.6,69.6L354.9,4681.9z"/>
				</g>
			</g>
		</g>
	</g>
</g>
<path id="Path_38" class="st8" d="M421.1,377.6l22.7,90.9l96.6-10.5L513.6,440l50-74.2l-66-44.5l-50,74.2L421.1,377.6z"/>
<text transform="matrix(0.5736 -0.8192 0.8192 0.5736 488.7964 411.8345)" class="st9 st10">START</text>
<g id="Rectangle_187" transform="translate(20.184 4430.304)">
	<rect x="400.6" y="373.5" class="st0" width="171.1" height="107.1"/>
	<rect x="402.5" y="375.3" class="st11" width="167.4" height="103.4"/>
</g>
<text transform="matrix(1 0 0 1 481.4929 4864.7271)" class="st9 st12">END</text>
</svg>
