<?xml version="1.0" encoding="utf-8"?>
<!-- Generator: Adobe Illustrator 25.2.1, SVG Export Plug-In . SVG Version: 6.00 Build 0)  -->
<svg version="1.1" id="Layer_1" xmlns="http://www.w3.org/2000/svg" xmlns:xlink="http://www.w3.org/1999/xlink" x="0px" y="0px"
	 viewBox="0 0 612 4937.1" style="enable-background:new 0 0 612 4937.1;" xml:space="preserve">
<style type="text/css">
	.st0{fill:#FFFFFF;}
	.st1{fill:#F76BAE;}
	.st2{fill:#FD4E29;}
	.st3{fill:#539532;}
	.st4{fill:#537BB8;}
	.st5{fill:#EEDA2C;}
	.st6{fill:#86208C;}
	.st7{fill:#FC1A22;}
	.st8{fill:#FFFFFF;stroke:#5F5655;stroke-width:3;}
	.st9{fill:#070606;}
	.st10{font-family:'OpenSans-Bold';}
	.st11{font-size:17.0083px;}
	.st12{fill:none;stroke:#5F5655;stroke-width:3;}
	.st13{font-size:19.6968px;}
</style>
<rect x="37.1" y="167.4" class="st0" width="526.5" height="380.3"/>
<g>
	<g>
		<g>
			<g>
				<g>
					<path class="st1" d="M194,2338.6l-63,105c-12.4-7.4-23.9-16.1-34.2-25.5c-10.3-9.4-19.5-19.5-27.6-29.8
						c-8.2-10.4-15.3-20.9-21.8-31.7c-7.4-12.5-13.5-25.6-18.1-38.9l115.6-40.6c2.1,6,4.7,11.5,7.7,16.6c4.1,6.7,8.4,13.1,12.9,18.7
						c4.5,5.7,9.1,10.7,13.9,15.1C183.9,2331.9,188.8,2335.5,194,2338.6z"/>
				</g>
				<g>
					<path class="st1" d="M584.9,3374.1l-118.2,32.3c-4.8-17.5-10.4-34.2-17.1-49.7c-6.7-15.5-14.4-29.6-23.1-41.7l99.2-71.9
						c15.2,21.1,26.9,43.1,36.4,65.1C571.5,3330.2,578.8,3352.2,584.9,3374.1z"/>
				</g>
				<g>
					<path class="st1" d="M378.2,1236.5l-43.9-114.3l28.5-10.9c9.3-3.6,18.4-7.2,27-10.8c8.6-3.6,16.8-7.2,23.5-10.6
						c0.9-0.4,1.6-0.8,2.4-1.3l1.1-0.6l0.6-0.3l0.5-0.3l2-1.1l1.6-1l0.4-0.2c0.1-0.1,0.2-0.1,0.3-0.2l0.5-0.4l0.3-0.2
						c0.1-0.1,0.1-0.1,0.3-0.2l0.9-0.7l1.9-1.4c0.6-0.5,1.3-0.9,1.9-1.5l77.8,94.6c-1.3,1.1-2.7,2.2-4.1,3.3l-4.2,3.2l-2.1,1.6
						c-0.3,0.2-0.8,0.6-1.2,0.9l-1.3,0.9l-2.6,1.8l-1.3,0.9l-1.2,0.8l-4.9,3.1l-4.7,2.7l-1.2,0.7l-1.1,0.6l-2.2,1.2
						c-1.5,0.8-3,1.6-4.4,2.3c-11.5,5.8-22.1,10.4-32.3,14.7c-10.2,4.2-20.1,8.1-29.9,11.9L378.2,1236.5z"/>
				</g>
				<g>
					<path class="st2" d="M170.5,891.5c-13-2.4-26.7-5.9-40.9-11.5c-14.2-5.6-29.2-13.8-42.8-25.1l-2.6-2.1l-1.3-1.1l-1.2-1.2
						c-1.6-1.5-3.3-3.1-4.9-4.7c-0.8-0.8-1.6-1.6-2.4-2.4l-2.3-2.5c-1.5-1.7-3-3.4-4.5-5.1c-1.4-1.8-2.8-3.6-4.1-5.4l-2-2.7
						c-0.7-0.9-1.3-1.8-1.9-2.8c-1.2-1.9-2.4-3.8-3.6-5.7l-1.7-2.9c-0.6-1-1-1.9-1.6-2.9c-2-3.9-4.1-7.8-5.7-11.7
						c-0.8-2-1.6-3.9-2.4-5.9c-0.4-1-0.8-2-1.1-2.9l-1-2.9l-1.9-5.8c-0.6-1.9-1-3.8-1.6-5.7l-1.4-5.7c-0.3-1-0.4-1.9-0.6-2.8
						l-0.5-2.8l120.2-23.4c1,5.2,2.4,8.9,3.7,11.4c1.3,2.5,2.5,3.9,4.6,5.6c2,1.7,5,3.7,9.9,5.5c4.7,1.9,10.9,3.6,18,4.9
						L170.5,891.5z"/>
				</g>
				<g>
					<path class="st3" d="M36.6,767.1c-0.7-3.7-1.4-7.5-1.8-11l-0.7-5.4c-0.2-1.8-0.4-3.6-0.5-5.3c-0.2-3.5-0.5-7-0.7-10.5l-0.1-6.1
						c0-2.1,0.1-4.2,0.1-6.3c0.1-2.2,0.3-4.3,0.4-6.5c0.2-2.2,0.5-4.5,0.7-6.7c0.3-2.3,0.7-4.5,1.1-6.9l0.7-3.6l0.4-1.8l0.5-1.9
						c2.4-9.9,6.1-19.5,10.9-28.5c4.8-9,10.8-17.3,17.7-24.8c3.5-3.7,7.2-7.3,11.1-10.6c2-1.7,3.8-3.1,5.6-4.5
						c1.9-1.4,3.7-2.7,5.6-4c7.4-5,14.8-9,21.9-12.4c7.1-3.3,14-6,20.6-8.2l39.1,116.1c-6.1,2-10.6,4.3-12.6,5.7
						c-0.2,0.2-0.5,0.3-0.6,0.5c-0.1,0.1-0.4,0.3-0.3,0.3c0,0,0,0,0,0c0,0,0,0,0,0c0,0,0,0,0,0c0,0,0,0,0,0c0,0,0,0,0,0c0,0,0,0,0,0
						c0,0,0,0.1,0,0.1c0,0,0,0.1,0,0.1c0,0.1,0,0.4-0.1,0.6c0,0.3,0,0.6-0.1,0.9c0,0.4,0,0.7-0.1,1.1c0,0.4,0,0.9,0,1.3
						c0,0.5,0,1,0,1.5c0.1,1.6,0.2,3.2,0.3,4.8c0,0.8,0.1,1.6,0.2,2.3l0.3,2.2c0.1,1.5,0.5,2.7,0.7,4.1L36.6,767.1z"/>
				</g>
				<g>
					<path class="st4" d="M130.1,602.1c13.2-4.4,25.6-7.3,37.4-9.7c11.8-2.3,23-4,34-5.5c21.8-2.9,42.4-4.8,62.2-7.1l13.5,121.7
						c-20.8,2.3-40.9,4.3-59.5,6.7c-9.3,1.2-18.2,2.6-26.5,4.2c-8.2,1.6-15.8,3.5-21.9,5.6L130.1,602.1z"/>
				</g>
				<g>
					<path class="st5" d="M263.6,579.9c19.7-2.2,38.7-4.6,56.6-7.8c17.9-3.2,34.6-7.3,49.6-12.6l41.1,115.4
						c-23.5,8.4-46.6,13.7-68.9,17.8c-22.3,4-43.9,6.7-64.8,9L263.6,579.9z"/>
				</g>
				<g>
					<path class="st6" d="M369.7,559.5c15-5.3,27.9-11.8,38.3-19.6c10.4-7.7,18.5-16.5,24.9-27.2l105,63.1
						c-3.7,6.1-7.6,12-11.9,17.7c-4.3,5.7-8.9,11.3-13.7,16.6c-9.7,10.5-20.3,20.1-31.5,28.4c-11.2,8.3-22.9,15.3-34.7,21.4
						c-11.8,6-23.7,11-35.4,15.1L369.7,559.5z"/>
				</g>
				<g>
					<path class="st7" d="M433,512.6c6.5-10.7,11.2-23.6,14.4-38.2c3.1-14.7,4.6-31,4.6-48h122.5c0,23.7-1.9,48.4-7.3,73.7
						c-2.7,12.6-6.3,25.4-11.1,38.1c-2.4,6.4-5.1,12.7-8.1,19c-3,6.3-6.3,12.5-10,18.5L433,512.6z"/>
				</g>
				<g>
					<path class="st2" d="M216.2,1173c39.6-20.2,79.7-36.1,118.3-50.9l43.9,114.3c-18.8,7.2-37.2,14.4-55,22
						c-17.8,7.5-35.1,15.4-51.7,23.8L216.2,1173z"/>
				</g>
				<g>
					<path class="st3" d="M427.8,1080.4c10-8.1,18.9-18.7,26.2-30.8c3.7-6,6.9-12.4,9.7-19c2.8-6.6,5-13.5,6.8-20.5l118.7,30.1
						c-3.2,12.8-7.4,25.4-12.5,37.6c-5.1,12.2-11.1,24.1-18.1,35.5c-6.9,11.4-14.8,22.4-23.6,32.8c-8.8,10.4-18.6,20.1-29.5,29
						L427.8,1080.4z"/>
				</g>
				<g>
					<path class="st4" d="M470.6,1010.1c3.5-13.9,5-28.3,4.1-41.9c-0.9-13.6-3.9-26.5-9-37.9l111.7-50.3
						c11.7,25.9,17.9,53.4,19.6,80.5c1.8,27.2-1.2,53.9-7.6,79.6L470.6,1010.1z"/>
				</g>
				<g>
					<path class="st5" d="M465.6,930.4c-0.6-1.4-1.4-2.8-2-4.2c-0.3-0.7-0.7-1.4-1.1-2l-1.1-2c-0.8-1.6-1.3-2.1-1.8-2.9l-0.4-0.6
						c-0.1-0.2-0.3-0.3-0.4-0.5c-0.3-0.3-0.5-0.7-0.8-1c-2.2-2.7-4.6-5-8.2-7.3c-3.5-2.3-8.2-4.6-13.9-6.5c-5.8-2-12.6-3.7-20.1-4.9
						l20.6-120.7c12.6,2.2,25.7,5.2,39.3,9.8c13.5,4.7,27.6,11,41.1,19.8c1.7,1,3.4,2.3,5,3.5l5,3.6c3.3,2.6,6.5,5.3,9.6,8
						c1.5,1.4,3.1,2.9,4.6,4.4c1.5,1.5,3.1,2.9,4.5,4.5c1.4,1.6,2.8,3.1,4.2,4.7l2.1,2.4c0.7,0.8,1.3,1.7,2,2.5
						c1.3,1.7,2.6,3.3,3.8,5c0.6,0.8,1.3,1.7,1.9,2.5l1.7,2.6c2.3,3.4,4.7,7.2,6.3,10.1l2.6,4.7c0.9,1.6,1.7,3.1,2.5,4.7
						c1.6,3.2,3.2,6.4,4.6,9.6L465.6,930.4z"/>
				</g>
				<g>
					<path class="st6" d="M415.8,898.3c-15-2.6-32.6-3.6-51.1-3.7c-18.6-0.1-38.2,0.6-58.5,1.3l-4.6-122.4
						c20.4-0.8,41.7-1.5,63.9-1.4c11.1,0.1,22.6,0.4,34.3,1.2c11.8,0.8,23.9,2.1,36.5,4.2L415.8,898.3z"/>
				</g>
				<g>
					<path class="st7" d="M306.2,895.9c-20.4,0.7-41.5,1.6-63.8,1.5c-11.2-0.1-22.6-0.4-34.6-1.2c-11.9-0.8-24.3-2.2-37.3-4.6
						l22.4-120.4c7.1,1.3,15,2.2,23.5,2.8c8.4,0.6,17.4,0.9,26.6,0.9c18.5,0.1,38.2-0.7,58.6-1.4L306.2,895.9z"/>
				</g>
				<g>
					<path class="st2" d="M385.5,1702.6c-11.3-10.9-24.2-20.5-38.2-29.2c-7.1-4.3-14.4-8.3-22.1-12.1c-7.6-3.8-15.6-7.3-23.8-10.7
						l46.2-113.4c10.7,4.4,21.4,9.1,32,14.4c10.6,5.3,21.2,11.1,31.6,17.4c20.7,12.7,40.8,27.7,58.9,45L385.5,1702.6z"/>
				</g>
				<g>
					<path class="st3" d="M301.4,1650.7c-2.1-0.8-4.1-1.7-6.2-2.5l-6.3-2.4c-4.3-1.5-8.5-3.1-12.9-4.6c-8.7-3-17.6-5.8-26.7-8.4
						c-18.3-5.3-37.3-10.2-57.1-15.3l30.5-118.6c19.7,5,40.2,10.3,61.1,16.4c10.5,3.1,21.1,6.4,31.7,10c5.3,1.8,10.7,3.7,16,5.7
						l8,3.1c2.7,1,5.4,2.1,8,3.2L301.4,1650.7z"/>
				</g>
				<g>
					<path class="st4" d="M192.2,1617.5c-10-2.6-20.1-5.2-30.6-8.1c-10.5-2.9-21.3-6-32.6-9.8c-11.3-3.8-23-8.2-35.6-14.2l-4.7-2.3
						l-4.8-2.6l-2.4-1.3c-0.8-0.4-1.6-1-2.5-1.4l-4.9-3c-1.6-1-3.3-2.2-5-3.3c-1.7-1.1-3.3-2.2-5-3.5c-1.7-1.3-3.4-2.5-5.1-3.8
						c-1.7-1.4-3.4-2.8-5.1-4.3l80.8-92.1c0.3,0.2,0.5,0.4,0.8,0.7c0.4,0.2,0.7,0.5,1.1,0.8c0.3,0.3,0.8,0.6,1.2,0.9
						c0.5,0.3,0.8,0.6,1.4,0.9c0.6,0.3,1.1,0.6,1.7,1c0.3,0.2,0.5,0.3,0.8,0.5l1,0.5l1.9,1l2.2,1.1c5.9,2.8,13.2,5.7,21.3,8.4
						c8.1,2.7,16.9,5.3,26.1,7.8c9.2,2.5,18.8,5,28.6,7.5L192.2,1617.5z"/>
				</g>
				<g>
					<path class="st5" d="M53.9,1559.8l-2.5-2.2l-2.5-2.4c-1.7-1.7-3.3-3.2-5-5c-1.7-1.8-3.3-3.7-4.9-5.6l-1.2-1.4
						c-0.4-0.5-0.8-1-1.2-1.5l-2.3-3.1c-3.1-4.1-5.7-8.5-8.3-12.9c-2.3-4.5-4.7-9.1-6.5-13.9c-2-4.7-3.4-9.6-4.8-14.5
						c-0.7-2.5-1.1-4.9-1.6-7.4l-0.7-3.7c-0.2-1.2-0.3-2.4-0.5-3.6c-0.3-2.3-0.6-4.7-0.8-7.1c0-0.3-0.1-0.6-0.1-0.8l0-0.6l-0.1-1.2
						l-0.1-2.4c-0.2-3.2-0.3-6.4-0.5-9.6c-0.3-12.9,0.1-25.9,1.5-39.1c1.5-13.1,3.9-26.3,7.4-39.2l118.3,31.7
						c-1.8,6.8-3.1,13.7-3.9,20.9c-0.7,7.2-1,14.6-0.8,22.1l0.3,5.7l0.1,1.4l0,0.7l0,0.4c0,0.1,0,0.1,0,0.1c0.1,0.2,0.1,0.4,0.1,0.5
						c0,0.1,0,0.2,0,0.2c0,0,0,0,0.1,0c0,0,0,0.1,0,0.1c0.1,0-0.1,0,0,0c-0.1,0,0.1,0,0,0c0.1-0.1,0,0,0,0c0,0,0,0,0,0c0,0,0,0,0,0
						c0,0,0,0,0.1,0c0.1,0,0.1,0.1,0.1,0.2c0.1,0.1,0.3,0.3,0.4,0.4c0.1,0.1,0.1,0.2,0.2,0.3c0.1,0.1,0.3,0.2,0.4,0.3L53.9,1559.8z"
						/>
				</g>
				<g>
					<path class="st6" d="M19.4,1382.6c3.4-13,8-25.6,13.4-37.9c5.4-12.2,11.7-24,18.8-35c7.1-11,14.8-21.4,23-31.2
						c8.2-9.8,16.9-18.7,25.9-27.2l84,89.2c-5.9,5.6-11.4,11.2-16.3,17.1c-4.9,5.9-9.4,11.9-13.3,18c-4,6.1-7.3,12.4-10.2,18.9
						l-1.1,2.4l-1,2.5c-0.6,1.6-1.4,3.2-1.9,4.9l-1.7,5c-0.5,1.7-0.9,3.4-1.4,5L19.4,1382.6z"/>
				</g>
				<g>
					<path class="st7" d="M100.6,1251.4c17.9-17,37-31.3,56.4-44.2c19.4-12.8,39.2-24,59-34.1l55.6,109.2
						c-16.6,8.4-32.3,17.4-47,27.1c-14.6,9.7-28.2,20.1-39.9,31.2L100.6,1251.4z"/>
				</g>
				<g>
					<path class="st2" d="M106.7,2028.8c19.1-18,41-33.2,64.7-45c23.7-11.8,49-20.1,74.6-24.5l21.4,120.6l-2.7,0.5
						c-0.9,0.2-1.8,0.3-2.7,0.5l-5.4,1.2l-5.3,1.4c-1.8,0.5-3.5,1.1-5.2,1.6c-6.9,2.3-13.6,5-20,8.2c-12.9,6.4-24.9,14.7-35.5,24.7
						L106.7,2028.8z"/>
				</g>
				<g>
					<path class="st3" d="M246,1959.3c12.8-2.2,25.6-3.7,38.4-4.2c12.7-0.5,25.4-0.3,37.9,0.6c12.5,1,24.7,2.6,36.8,4.7
						c3,0.6,6,1.2,9,1.8l4.5,0.9l4.4,1l8.8,2.1l8.7,2.4l-33,118c-32.5-9.2-64.8-11.9-94-6.6L246,1959.3z"/>
				</g>
				<g>
					<path class="st4" d="M394.3,1968.6l4.3,1.2l0.9,0.2l0.9,0.2c0.6,0.2,1.1,0.3,1.7,0.4l0.8,0.2l0.8,0.1c2.2,0.4,4.2,0.6,6.1,0.7
						c3.9,0.1,7.3-0.3,10.5-1.3c3.2-1,6.4-2.5,9.7-4.8c3.2-2.3,6.5-5.3,9.6-9.3l95.9,76.2c-9.6,12.1-21.1,23.4-34.6,32.9
						c-13.4,9.6-28.8,17.2-45,22.1c-16.3,5-33.4,7-49.9,6.5c-8.3-0.2-16.4-1.2-24.3-2.6l-3-0.5l-2.9-0.6c-1.9-0.4-3.9-0.8-5.8-1.4
						l-8.6-2.3L394.3,1968.6z"/>
				</g>
				<g>
					<path class="st5" d="M439.6,1956.2c6.2-7.8,11.6-19,15-32.1c3.4-13.1,4.9-28.1,4.6-43.8l122.4-2.9c0.5,25.1-1.6,51.2-8.5,77.6
						c-1.7,6.6-3.7,13.2-6.1,19.8c-1.1,3.3-2.5,6.6-3.8,9.9c-1.4,3.3-2.8,6.6-4.4,9.8c-3,6.5-6.5,13-10.4,19.3
						c-1.9,3.2-4,6.3-6.2,9.4c-2.2,3.1-4.4,6.2-6.9,9.2L439.6,1956.2z"/>
				</g>
				<g>
					<path class="st6" d="M459.3,1880.3c-0.4-15.7-2.6-32.1-6.3-48.6c-3.7-16.5-9-33.1-15.5-49.6l114-44.7
						c8.4,21.5,15.6,43.9,20.9,67.2c5.3,23.3,8.7,47.6,9.3,72.7L459.3,1880.3z"/>
				</g>
				<g>
					<path class="st7" d="M437.5,1782.2l-1.2-3.1l-0.6-1.5l-0.6-1.4l-2.4-5.6c-0.8-1.9-1.7-3.7-2.6-5.5c-0.9-1.8-1.7-3.7-2.6-5.5
						c-1.9-3.5-3.7-7.2-5.7-10.6c-1-1.7-2-3.5-3-5.2l-3.2-5c-4.4-6.6-8.9-13-14-18.9c-5-6-10.3-11.8-16-17.2L470,1614
						c9.1,8.6,17.7,17.9,25.7,27.6c8.1,9.6,15.4,19.9,22.3,30.3l5,7.9c1.7,2.6,3.2,5.4,4.7,8.1c3.2,5.4,6,10.9,8.9,16.4
						c1.4,2.7,2.7,5.5,4,8.3c1.3,2.8,2.7,5.5,3.8,8.4l3.6,8.4l0.9,2.1l0.8,2l1.6,4L437.5,1782.2z"/>
				</g>
				<g>
					<path class="st2" d="M461.9,2563.8c3.1-6.7,4.9-12.1,5.7-16.1c0.8-4.1,0.9-6.7,0.5-9.7c-0.3-3-1.5-6.7-3.6-11.3
						c-1.1-2.3-2.4-4.8-4.1-7.4c-1.7-2.6-3.5-5.4-5.6-8.2l98.3-73c4,5.3,7.9,11.1,11.6,17.1c3.7,6.1,7.3,12.6,10.6,19.5
						c3.2,7,6.2,14.4,8.6,22.3c2.5,7.9,4.3,16.2,5.5,24.8c1.2,8.6,1.5,17.4,1.2,26.1c-0.4,8.7-1.5,17.1-3.2,25.1
						c-3.4,16-8.7,29.8-14.1,41.7L461.9,2563.8z"/>
				</g>
				<g>
					<path class="st3" d="M454.9,2511.1l-1.6-2.1l-1.7-2.2c-1.1-1.4-2.4-2.9-3.6-4.4c-1.2-1.5-2.6-2.9-3.9-4.4l-0.5-0.6l-0.4-0.4
						l-0.8-0.8l-1.6-1.7c-4.3-4.3-8.7-7.8-13.2-10.7c-4.6-2.9-9.4-5.3-14.9-7.2c-5.5-1.9-11.5-3.4-18.4-4.4l17.7-121.2
						c13.3,1.9,27.2,5.1,41,9.9c13.8,4.8,27.5,11.4,40.2,19.4c12.7,8,24.3,17.5,34.3,27.6l3.7,3.8l1.8,1.9l0.9,1l0.8,0.9
						c2.1,2.4,4.2,4.6,6.2,7.1c2.1,2.5,4.1,4.8,6.2,7.4l3,3.8l3,4L454.9,2511.1z"/>
				</g>
				<g>
					<path class="st4" d="M394.3,2472.3c-6.9-1-14.5-1.5-22.7-1.7c-8.2-0.1-17.1,0.1-26.4,0.6c-9.3,0.5-19.1,1.2-29.4,1.9
						c-10.3,0.7-21,1.5-32.2,2l-5.3-122.4c9.2-0.4,18.8-1.1,28.9-1.8c10.1-0.7,20.6-1.5,31.7-2.1c11.1-0.6,22.6-0.9,34.8-0.7
						c12.2,0.2,25,1,38.3,3L394.3,2472.3z"/>
				</g>
				<g>
					<path class="st5" d="M283.6,2475.1c-11.2,0.5-23,0.7-35.2,0.3c-6.1-0.2-12.4-0.6-18.7-1.1c-3.2-0.3-6.4-0.6-9.7-1
						c-3.3-0.4-6.5-0.8-9.8-1.4c-13.2-2.1-26.7-5.3-40.1-10c-13.4-4.7-26.7-10.8-39-18.3l63-105c5.1,3.1,10.5,5.6,16.3,7.6
						c5.9,2,12.3,3.6,19.2,4.7c1.7,0.3,3.6,0.5,5.4,0.8c1.8,0.2,3.7,0.4,5.6,0.6c1.9,0.1,3.8,0.3,5.8,0.4c2,0.1,3.9,0.2,6,0.3
						c8.2,0.3,16.8,0.1,26-0.3L283.6,2475.1z"/>
				</g>
				<g>
					<path class="st6" d="M29.2,2317.8c-9.3-26.6-13.4-53.9-13.3-80.4c0-26.6,4-52.5,11.1-77.3l117.7,33.8
						c-4.1,14.4-6.3,29.2-6.3,43.5c0,14.3,2.2,27.9,6.4,39.8L29.2,2317.8z"/>
				</g>
				<g>
					<path class="st7" d="M27,2160c7.1-24.8,17.5-48.6,30.9-70.7c13.4-22.1,29.7-42.6,48.9-60.5l83.8,89.4
						c-10.7,10-20,21.7-27.8,34.5c-7.7,12.8-13.9,26.8-18,41.2L27,2160z"/>
				</g>
				<g>
					<path class="st2" d="M21.7,3094.5l-0.3-4.6l-0.2-4.5c0-1.5-0.1-3-0.1-4.5l0-4.8l0-9.6c0.1-3.2,0.3-6.5,0.5-9.7l0.3-4.9
						c0.1-1.6,0.3-3.3,0.5-4.9l1.1-9.9c0.4-3.3,1-6.7,1.6-10l0.8-5c0.3-1.7,0.7-3.3,1.1-5c0.8-3.3,1.5-6.7,2.3-10l2.9-10l0.7-2.5
						c0.2-0.8,0.6-1.7,0.8-2.5l1.8-5l1.8-4.9c0.6-1.7,1.3-3.3,2-4.9c5.3-13.1,12.1-25.6,19.9-37.4l102.1,67.7
						c-3.5,5.3-6.5,10.7-8.8,16.6c-0.3,0.7-0.7,1.4-0.9,2.2l-0.8,2.3l-0.8,2.3c-0.1,0.4-0.3,0.7-0.4,1.1l-0.3,1.2
						c-0.4,1.6-0.9,3.1-1.4,4.7c-0.4,1.6-0.7,3.3-1.1,4.9c-0.2,0.8-0.4,1.6-0.6,2.5l-0.4,2.6c-0.3,1.7-0.6,3.4-0.8,5.1l-0.6,5.3
						c-0.1,0.9-0.2,1.8-0.3,2.7l-0.1,2.8c-0.1,1.9-0.2,3.7-0.3,5.5l0,5.7l0,2.9c0,1,0.1,2.1,0.1,3.1l0.1,3.1l0.2,3.1L21.7,3094.5z"
						/>
				</g>
				<g>
					<path class="st3" d="M59.1,2940c3.8-5.9,8.1-11.5,12.4-17l6.7-7.9c2.3-2.6,4.6-5,7-7.5c9.5-9.8,19.5-18.6,29.8-26.5
						c10.3-7.8,20.8-14.8,31.4-21.1c10.6-6.3,21.2-11.8,31.7-16.9l53,110.4c-7.8,3.8-15.4,7.7-22.3,11.8c-7,4.2-13.5,8.5-19.5,13
						c-5.9,4.5-11.2,9.3-15.9,14.1c-4.8,4.8-8.8,9.9-12.2,15.2L59.1,2940z"/>
				</g>
				<g>
					<path class="st4" d="M178.2,2843.1c21.1-10.1,42-18.3,62.4-25.6c20.4-7.3,40.4-13.8,59.6-20.1l38.3,116.3
						c-19.6,6.4-38.5,12.6-56.5,19c-18,6.5-35.1,13.3-50.8,20.8L178.2,2843.1z"/>
				</g>
				<g>
					<path class="st5" d="M300.2,2797.4c9.6-3.2,19-6.3,28.1-9.4c4.6-1.6,9-3.2,13.5-4.8l6.5-2.4c2.2-0.8,4.3-1.6,6.4-2.5
						c8.4-3.3,16.5-6.7,23.8-10.3c7.4-3.5,13.9-7.2,19.4-10.8l67.9,102c-11.5,7.7-22.9,13.8-33.9,19.2c-11,5.3-21.8,9.9-32.4,14
						c-2.6,1-5.3,2.1-7.9,3l-7.8,2.9c-5.1,1.8-10.3,3.7-15.4,5.4c-10.1,3.5-20.1,6.8-29.9,10L300.2,2797.4z"/>
				</g>
				<g>
					<path class="st6" d="M397.9,2757.1c5.5-3.6,9.7-7.2,12.5-10.2c2.8-3.1,4.1-5.3,5-7.5c0.9-2.2,1.5-4.6,1.6-8.5
						c0-0.5,0.1-0.9,0.1-1.4c0-0.6-0.1-1.1-0.1-1.7s0-1.1,0-1.7c0-0.6-0.2-1.3-0.2-1.9c-0.1-0.6-0.1-1.3-0.2-1.9l0-0.5l0-0.2l0-0.1
						l0-0.2l0-0.4l-0.4-3c-0.3-2-0.5-4-0.6-6.1c-0.2-2-0.4-4.1-0.4-6.1l122.3-6c0,0.5,0.1,1,0.1,1.5c0,0.5,0.1,1,0.2,1.5l1,8.9
						c0.2,1.9,0.4,3.8,0.6,5.7l0.3,6l0.2,6c0,2.1-0.1,4.1-0.2,6.2l-0.3,6.2c-0.2,2.1-0.5,4.3-0.7,6.4c-0.3,2.1-0.5,4.3-0.8,6.4
						c-0.4,2.2-0.8,4.3-1.3,6.5c-0.5,2.2-0.9,4.3-1.4,6.5c-0.6,2.2-1.3,4.3-1.9,6.5l-1,3.2c-0.3,1.1-0.7,2.1-1.1,3.2
						c-0.8,2.1-1.6,4.2-2.5,6.3c-1.6,4.2-3.7,8.2-5.8,12.2c-0.5,1-1,2-1.6,3l-1.7,2.8c-1.1,1.9-2.3,3.8-3.5,5.6l-0.9,1.4
						c-0.3,0.5-0.6,0.9-0.9,1.3l-1.9,2.6c-1.3,1.7-2.6,3.5-3.8,5.2c-2.6,3.2-5.4,6.4-8.1,9.5c-11.1,11.9-22.9,21.2-34.4,28.9
						L397.9,2757.1z"/>
				</g>
				<g>
					<path class="st7" d="M415.1,2705.8c-0.9-16.4,1-33,4.7-47.9c3.7-15,8.9-28.3,14.3-39.9c5.4-11.7,10.9-21.8,15.8-30.7
						c4.9-9,9.1-16.8,12.1-23.5l111.4,50.8c-5.4,11.9-11,22-15.8,31c-4.9,9-9.1,16.8-12.3,23.7c-3.2,6.9-5.3,12.7-6.5,17.6
						c-1.2,4.9-1.6,8.8-1.4,12.8L415.1,2705.8z"/>
				</g>
				<g>
					<path class="st2" d="M405.5,3517c16.8-5.6,32.2-12,44.1-19.1c3-1.8,5.7-3.5,8.2-5.3c2.4-1.8,4.6-3.5,6.5-5.3
						c3.8-3.5,6.3-6.6,8.1-9.6l105.2,62.7c-8.7,14.6-19.5,27.1-30.8,37.4c-11.3,10.3-23.1,18.5-34.7,25.4
						c-11.6,6.9-23.2,12.5-34.5,17.3c-5.7,2.4-11.3,4.6-16.8,6.7c-5.6,2.1-11.1,4-16.6,5.8L405.5,3517z"/>
				</g>
				<g>
					<path class="st3" d="M472.4,3477.8c1.7-3,2.9-5.8,3.6-9.6c0.4-1.9,0.7-3.9,0.8-6.2c0.1-2.3,0.1-4.9-0.1-7.7
						c-0.2-2.8-0.6-5.8-1.1-9l-0.5-2.4l-0.2-1.2l-0.4-1.7l-1.4-6.8c-2-9-4.2-18-6.5-26.7l118.2-32.3c3,11,5.6,21.9,8,32.8l1.7,8.2
						l0.4,2l0.5,2.5l0.9,5.1c1.1,6.9,2,14,2.6,21.4c0.5,7.4,0.6,15.1,0.1,22.9c-0.4,7.8-1.5,16-3.2,24.1c-1.7,8.1-4.1,16.3-7.1,24.3
						c-3.1,8-6.8,15.7-11.2,23L472.4,3477.8z"/>
				</g>
				<g>
					<path class="st4" d="M426.5,3315c-4.4-6-9-11.4-13.8-16.3c-2.4-2.4-4.9-4.7-7.4-6.9c-2.5-2.1-5.1-4.2-7.7-6
						c-10.6-7.5-22.2-12.9-35.9-16.7l32.4-118.1c6.4,1.8,12.9,3.8,19.3,6.1c6.4,2.3,12.8,5,19.1,7.9c12.6,5.8,24.7,12.9,36.1,21
						c5.7,4,11.1,8.3,16.4,12.8c5.2,4.5,10.2,9.2,15,14c9.5,9.7,18,19.9,25.7,30.4L426.5,3315z"/>
				</g>
				<g>
					<path class="st5" d="M361.7,3269c-13.6-3.7-29.2-5.7-46.3-6.2c-17.1-0.6-35.7,0.3-55.6,1.5l-7.3-122.3
						c20.8-1.2,43.1-2.4,66.8-1.6c23.7,0.8,49,3.5,74.8,10.5L361.7,3269z"/>
				</g>
				<g>
					<path class="st6" d="M259.8,3264.3c-10,0.6-20.3,1.3-31.2,1.8c-10.9,0.5-22.2,0.9-34.4,0.8c-12.2-0.2-25.1-0.9-39.3-3.1
						c-7.1-1.1-14.5-2.7-22.1-4.8c-7.6-2.2-15.6-5-23.5-8.7l51.9-110.9c2.6,1.2,6.9,2.6,12.9,3.5c6,1,13.5,1.5,21.7,1.6
						c8.3,0.1,17.3-0.2,26.8-0.6c9.5-0.5,19.5-1.1,29.9-1.7L259.8,3264.3z"/>
				</g>
				<g>
					<path class="st7" d="M109.2,3250.2c-7.9-3.7-15.9-8.3-23.4-13.8c-7.5-5.5-14.5-11.9-20.7-18.7c-6.2-6.9-11.4-14.2-15.9-21.5
						c-4.5-7.4-8.1-14.7-11.1-22c-5.9-14.5-9.5-28.4-12-41.6c-2.4-13.2-3.8-25.8-4.5-38l122.3-7.2c0.2,4.1,0.6,8.1,1,11.9
						c0.3,1.9,0.4,3.8,0.7,5.6l0.4,2.7l0.5,2.6c1.3,6.9,3,12.8,4.8,17.2c0.9,2.2,1.8,3.9,2.7,5.3c0.8,1.4,1.6,2.4,2.2,3.1
						c1.3,1.5,2.3,2.2,4.9,3.5L109.2,3250.2z"/>
				</g>
				<g>
					<path class="st2" d="M235.5,4032.8c-21.2-6.5-42.9-14.3-64.7-24.2c-10.9-5-21.9-10.6-32.7-16.9c-10.8-6.5-21.6-13.6-32-21.6
						l75.2-96.6c5.7,4.4,12,8.6,18.7,12.6c6.8,3.9,14.1,7.7,21.7,11.2c15.4,7,32.1,13.1,49.9,18.6L235.5,4032.8z"/>
				</g>
				<g>
					<path class="st3" d="M106.1,3970.1c-10.4-8.2-20.4-17.2-29.8-27.2c-2.3-2.5-4.6-5.1-6.8-7.7c-1.1-1.3-2.3-2.6-3.3-3.9l-3.2-4.1
						l-3.2-4.1l-1.6-2.1c-0.5-0.7-1-1.4-1.5-2.1l-5.9-8.6c-15-23.3-25.7-49.2-31.8-74.8l119-29.2l0.6,2.7c0.2,0.9,0.5,1.7,0.8,2.6
						l1.5,5.1c0.5,1.7,1.2,3.2,1.8,4.9l0.9,2.4c0.3,0.8,0.7,1.5,1,2.3c0.7,1.5,1.4,3.1,2,4.6l2.3,4.4c0.4,0.7,0.7,1.5,1.1,2.2
						l1.3,2.1l1.3,2.1c0.4,0.7,0.8,1.4,1.3,2.1c0.9,1.3,1.9,2.7,2.8,4.1c0.2,0.3,0.4,0.7,0.7,1l0.8,1l1.5,1.9l1.5,2
						c0.5,0.7,1.1,1.2,1.6,1.9c1.1,1.2,2.2,2.5,3.3,3.8c4.6,4.9,9.8,9.6,15.4,14L106.1,3970.1z"/>
				</g>
				<g>
					<path class="st4" d="M19,3835.5c-6.2-25.6-8.6-50.9-8.7-75.2c0-7.3,0.4-15,1.3-22.6c0.9-7.7,2.4-15.6,4.5-23.4
						c2.1-7.8,4.7-15.6,8-23.2c3.3-7.6,7.2-14.9,11.5-21.8l103.6,65.3c-2.2,3.5-3.7,6.9-4.8,11c-0.5,2-1,4.2-1.3,6.7
						c-0.3,2.4-0.4,5-0.4,7.9c0,16.5,1.7,32.1,5.1,46.2L19,3835.5z"/>
				</g>
				<g>
					<path class="st5" d="M35.8,3669.3c8.7-13.8,19.2-25.9,30.3-35.9c11-10.1,22.6-18.3,34-25.2c11.5-7,22.9-12.7,34.2-17.7
						c11.3-5,22.4-9.2,33.4-13l40,115.8c-16.6,5.7-31.9,12.3-43.9,19.6c-6,3.6-11.1,7.4-15.1,11.1c-4.1,3.7-7,7.3-9.2,10.7
						L35.8,3669.3z"/>
				</g>
				<g>
					<path class="st6" d="M167.5,3577.4c21.9-7.6,43.3-13.4,64.2-18.5c20.9-5.1,41.4-9.6,61.4-13.9l25.9,119.7
						c-19.9,4.3-39.3,8.5-58.1,13.1c-18.7,4.6-36.8,9.6-53.4,15.3L167.5,3577.4z"/>
				</g>
				<g>
					<path class="st7" d="M293.2,3545c20-4.3,39.6-8.5,58.5-13c18.9-4.5,37.1-9.4,53.9-14.9l38.6,116.2
						c-21.9,7.3-43.2,12.8-64.1,17.8c-20.8,5-41.2,9.3-61.1,13.6L293.2,3545z"/>
				</g>
				<g>
					<path class="st2" d="M238.2,4256.2c23.3-5.3,45.1-8.5,66-11.3c20.9-2.8,40.7-5.2,59.6-8l18.5,121.1
						c-21.5,3.3-42.2,5.7-61.8,8.4c-19.6,2.6-38.2,5.4-54.7,9.2L238.2,4256.2z"/>
				</g>
				<g>
					<path class="st3" d="M363.8,4236.9c9.4-1.4,18.5-3,27.2-4.8c2.2-0.5,4.4-0.9,6.5-1.4l6.3-1.4l6.1-1.6c2-0.5,3.9-1.1,5.9-1.7
						c7.7-2.3,14.9-4.8,21.2-7.6c6.3-2.8,11.8-5.8,16.2-8.9l70.5,100.1c-12.3,8.6-24.9,15.4-37.2,20.8c-12.4,5.5-24.5,9.7-36.4,13.1
						c-2.9,0.8-5.9,1.7-8.8,2.5l-8.7,2.2l-8.6,2c-2.9,0.7-5.7,1.2-8.5,1.8c-11.3,2.3-22.3,4.2-33.1,5.8L363.8,4236.9z"/>
				</g>
				<g>
					<path class="st4" d="M453.1,4209.5c4.5-3.1,7.9-6.3,10.7-9.7c2.8-3.4,5-7,7-11.5c1.9-4.4,3.5-9.6,4.6-15.6
						c0.2-1.6,0.4-3.1,0.7-4.7l0.2-1.2c0-0.4,0.1-0.8,0.1-1.3l0.2-2.5c0.4-3.3,0.4-7,0.5-10.5l122.5,1.2c-0.2,6.7-0.3,13.2-1,20.1
						l-0.5,5.1c-0.1,0.9-0.2,1.7-0.3,2.6l-0.4,2.6c-0.5,3.5-1,7-1.6,10.5c-2.6,14.1-6.7,28.6-13,42.9c-6.2,14.3-14.7,28.3-24.9,40.6
						c-10.2,12.4-22.1,22.9-34.3,31.5L453.1,4209.5z"/>
				</g>
				<g>
					<path class="st5" d="M477.2,4152.7c0-1.8-0.1-3.7-0.1-5.6l0-2.8l0-0.7c0-0.2,0-0.4-0.1-0.6l-0.1-1.1c-0.1-1.4-0.2-2.9-0.3-4.3
						c-0.2-1.3-0.4-2.6-0.6-3.9c-1-5-2.3-9-4.1-12.7c-1.8-3.7-4.1-7-7.3-10.5c-0.4-0.4-0.9-0.9-1.3-1.3l-0.6-0.7
						c-0.2-0.2-0.4-0.5-0.7-0.7c-1-0.9-2-1.8-3-2.7c-1.2-0.9-2.3-1.8-3.4-2.7c-1.2-0.9-2.6-1.8-3.8-2.7l68.3-101.7
						c2.9,2,5.8,4,8.7,6.1c2.9,2.2,5.8,4.5,8.6,6.8c2.8,2.5,5.7,5,8.5,7.5c0.7,0.6,1.4,1.3,2.1,2l2,2.1l4.1,4.2
						c10.7,11.4,20.3,24.9,27.5,39.6c7.3,14.6,12.2,30.2,15,45.3c0.6,3.7,1.2,7.5,1.7,11.2c0.4,3.7,0.7,7.3,1,11l0.2,2.7l0.1,1.4
						l0,1.2l0.1,4.8c0,3.2,0.2,6.4,0.1,9.7L477.2,4152.7z"/>
				</g>
				<g>
					<path class="st6" d="M451.7,4100c-10.7-7.1-25.1-13.9-41.5-19.7c-4-1.5-8.3-2.9-12.6-4.3c-4.4-1.3-8.7-2.7-13.2-4
						c-4.4-1.3-9-2.6-13.6-3.9c-4.7-1.2-9.3-2.5-14-3.7l30.6-118.6c5.1,1.3,10.4,2.7,15.6,4.1c5.3,1.5,10.5,2.9,15.9,4.5
						c5.3,1.5,10.7,3.2,16.1,4.9c5.5,1.8,10.9,3.6,16.4,5.6c11,4,22.3,8.4,33.8,13.8c11.5,5.4,23.1,11.7,34.8,19.5L451.7,4100z"/>
				</g>
				<g>
					<path class="st7" d="M356.8,4064.5c-37.9-9.8-78.8-18.6-121.3-31.6l36.2-117c17.7,5.5,36.5,10.4,55.8,15.2
						c19.4,4.8,39.3,9.5,60,14.9L356.8,4064.5z"/>
				</g>
				<g>
					<path class="st5" d="M254,4616.8c-17.5-10.8-35.5-21.9-53.9-34.4c-9.2-6.2-18.5-12.8-27.9-20c-9.4-7.2-18.9-15.1-28.3-24.2
						l84.9-88.3c5.2,5,11.4,10.3,18.2,15.5c6.8,5.2,14.2,10.5,21.9,15.7c15.4,10.5,32.1,20.8,49.4,31.4L254,4616.8z"/>
				</g>
				<path class="st6" d="M143.9,4538.2c-9.5-9.1-19-19.5-27.9-32.3c-1.1-1.6-2.2-3.2-3.3-4.9l-3.2-5.2l-1.6-2.6
					c-0.5-0.9-1-1.9-1.5-2.8c-1-1.9-2-3.8-2.9-5.6c-0.5-0.9-0.9-1.9-1.4-2.9l-1.3-3l-1.3-3c-0.4-1-0.9-2-1.2-3.1
					c-1.5-4.3-3.1-8.5-4.2-13.1c-0.6-2.3-1.2-4.5-1.7-6.8c-0.5-2.3-0.9-4.7-1.3-7l-0.6-3.5l-0.4-3.6c-0.2-2.4-0.4-4.8-0.6-7.2l0-0.4
					l0-0.3l0-0.7l0-1.3l0-2.7l-0.1-5.3l0-2.7c0-0.9,0.1-1.8,0.1-2.7l0.3-5.5c0.8-14.8,3.4-30.7,9.1-46.9l115.5,40.7
					c-1.1,3.1-2,7.5-2.3,13l-0.1,2.1c0,0.4-0.1,0.7-0.1,1.1l0,1.2l0,2.3l0,1.2l0,0.6l0,0.3l0,0.1l0,0c0.1,0.2,0.1,0.3,0.1,0.5
					c0,0.1,0,0.2,0,0.2c0,0.1,0.1,0.2,0.1,0.2c0,0.2,0.1,0.3,0.1,0.5c0.1,0.2,0.2,0.4,0.2,0.6c0,0.4,0.4,0.9,0.4,1.4
					c0,0.1,0.1,0.3,0.2,0.4c0.1,0.2,0.2,0.3,0.2,0.5c0.1,0.2,0.1,0.3,0.2,0.5c0.1,0.2,0.1,0.3,0.2,0.5c0.2,0.4,0.4,0.8,0.6,1.1
					c0.1,0.2,0.2,0.4,0.3,0.6l0.4,0.7c0.3,0.4,0.5,0.9,0.8,1.3c0.3,0.5,0.7,1,1,1.5c2.7,4,6.9,8.8,12.2,13.9L143.9,4538.2z"/>
				<g>
					<path class="st7" d="M98.6,4362.8c0.7-2,1.5-4,2.3-6.1c0.4-1,0.7-2,1.2-3l1.4-3c1.9-4,3.7-8,6-11.8c1.1-1.9,2.3-3.9,3.4-5.8
						c1.2-1.9,2.5-3.7,3.8-5.5c1.3-1.8,2.6-3.6,3.9-5.4c1.4-1.7,2.8-3.4,4.2-5.1c1.4-1.7,2.9-3.4,4.4-5c1.5-1.6,3-3.1,4.6-4.6
						c3.1-3.2,6.3-5.8,9.5-8.6l2.4-2l2.4-1.8l4.9-3.6c1.7-1.2,3.3-2.3,5-3.3l5-3.2c13.3-8.1,26.4-13.8,38.9-18.2
						c12.6-4.5,24.6-7.7,36.3-10.4l27.5,119.4c-8.2,1.9-15.9,4-22.6,6.4c-6.7,2.4-12.3,5-16.5,7.6c-4.2,2.6-6.8,4.9-8.5,7
						c-1.7,2.1-2.9,4-4,7.1L98.6,4362.8z"/>
				</g>
				<g>
					<path class="st2" d="M445.2,4831.1c0.3-7.2,0.1-14.2-0.5-21.1c-0.8-6.8-2-13.5-3.8-20.1c-0.5-1.6-1-3.3-1.4-4.9l-1.7-4.9
						l-0.4-1.2l-0.5-1.2l-1-2.4c-0.3-0.8-0.6-1.6-1-2.4l-1.1-2.4c-2.9-6.4-6.4-12.7-10.5-19l102.6-66.9
						c7.1,10.8,13.5,22.4,19.1,34.6l2.1,4.6c0.7,1.5,1.3,3.1,1.9,4.7l1.9,4.7l0.9,2.3l0.9,2.4c1.1,3.2,2.3,6.4,3.3,9.6l2.9,9.8
						c3.6,13.1,6.1,26.6,7.6,40c1.3,13.5,1.6,26.9,1,40L445.2,4831.1z"/>
				</g>
				<g>
					<path class="st3" d="M423.2,4751.5c-4.1-6.2-8.7-12.4-13.8-18.6c-5.2-6.1-10.8-12.1-16.8-18c-6-5.9-12.5-11.7-19.3-17.4
						c-6.8-5.7-13.9-11.3-21.3-16.8l73.2-98.2c9,6.7,17.9,13.7,26.8,21.1c8.8,7.5,17.6,15.2,26.2,23.6c8.5,8.4,16.9,17.2,24.9,26.7
						c8,9.6,15.6,19.7,22.7,30.5L423.2,4751.5z"/>
				</g>
				<g>
					<path class="st4" d="M352,4680.8c-3.7-2.8-7.5-5.5-11.2-8.2c-3.8-2.7-7.7-5.4-11.6-8.1c-7.8-5.4-15.9-10.6-24.1-15.9
						c-16.4-10.5-33.5-21-51-31.8l64.2-104.3c34.5,21.3,71,43.3,107,70L352,4680.8z"/>
				</g>
			</g>
		</g>
	</g>
</g>
<g>
	<path id="Path_38" class="st8" d="M441.3,412.9l66.8,65.8l77-59.3l-32.4-1.5l4-89.4l-79.5-3.6l-4,89.4L441.3,412.9z"/>
	<text transform="matrix(6.241710e-02 -0.9981 0.9981 6.241710e-02 516.8824 406.7688)" class="st9 st10 st11">START</text>
</g>
<g id="Rectangle_187" transform="translate(20.184 4430.304)">
	<rect x="400.6" y="373.5" class="st0" width="171.1" height="107.1"/>
	<rect x="402.5" y="375.3" class="st12" width="167.4" height="103.4"/>
</g>
<text transform="matrix(1 0 0 1 481.4929 4864.7271)" class="st9 st10 st13">END</text>
</svg>
