<svg id="Layer_1" data-name="Layer 1" xmlns="http://www.w3.org/2000/svg" viewBox="0 0 612 4937.15"><defs><style>.cls-1,.cls-9{fill:#fff;}.cls-2{fill:#f388b2;}.cls-3{fill:#f3714a;}.cls-4{fill:#60a353;}.cls-5{fill:#4f8ecb;}.cls-6{fill:#f1d54b;}.cls-7{fill:#93479b;}.cls-8{fill:#ef4043;}.cls-12,.cls-9{stroke:#707071;}.cls-9{stroke-width:3px;}.cls-10,.cls-11,.cls-13{isolation:isolate;}.cls-11{font-size:17.01px;letter-spacing:0.05em;}.cls-11,.cls-13{font-family:OpenSans-Bold, Open Sans;font-weight:700;}.cls-12{fill:none;stroke-width:3px;}.cls-13{font-size:19.7px;letter-spacing:0.05em;}</style></defs><rect class="cls-1" x="37.09" y="167.45" width="526.5" height="380.34"/><path class="cls-2" d="M233.85,2352.3l-15.5,120.08a245.37,245.37,0,0,1-39.33-8.27A214.1,214.1,0,0,1,140,2448a210.82,210.82,0,0,1-35.09-23.66A234.54,234.54,0,0,1,76,2395.66l92.15-78.54a113.08,113.08,0,0,0,14,14,89.44,89.44,0,0,0,15,10.13,92.84,92.84,0,0,0,16.79,6.93A125.75,125.75,0,0,0,233.85,2352.3Z"/><path class="cls-2" d="M595.83,3425.52l-119.41,20.06-.41-2.45-.2-1.23-.05-.3-.09-.42-.18-.84-1.43-6.74c-.47-2.25-1-4.46-1.5-6.69l-.76-3.34-.82-3.31q-3.18-13.25-7.05-26a336.31,336.31,0,0,0-18.21-47.89l109.19-52.32a457.23,457.23,0,0,1,24.91,65.13q4.93,16.26,8.81,32.44c.68,2.7,1.31,5.39,1.91,8.08s1.26,5.39,1.82,8.07l1.71,8.07.22,1,.1.52.12.62.44,2.5Z"/><path class="cls-2" d="M298.13,1268.69,247.8,1158.57c19.61-9,39.21-17.12,58.58-24.79s38.54-14.92,56.95-22L407,1224.66c-19.23,7.43-37.82,14.44-56,21.65S315.24,1260.88,298.13,1268.69Z"/><path class="cls-3" d="M278.78,860.67c-20.06-2.72-40.77-5.54-62.25-9.31-10.75-1.9-21.71-4-33-6.69s-22.85-5.79-34.86-9.89l39.18-114.56c7.1,2.42,15,4.61,23.37,6.58s17.22,3.72,26.34,5.32c18.27,3.22,37.56,5.88,57.49,8.58Z"/><path class="cls-4" d="M148.68,834.78a230.22,230.22,0,0,1-37.37-16.26c-3.25-1.86-6.43-3.59-9.72-5.76l-4.87-3.16c-1.64-1.14-3.28-2.34-4.9-3.53-3.24-2.28-6.5-5-9.69-7.74-1.6-1.3-3.19-2.86-4.76-4.35s-3.14-3-4.67-4.58-3-3.31-4.52-5L66,781.87l-2.12-2.71q-2.12-2.73-4.16-5.51c-1.33-1.91-2.59-3.88-3.85-5.85A130.82,130.82,0,0,1,49,755.54c-.56-1-1-2.11-1.49-3.18l-1.39-3.21-1.34-3.23c-.45-1.08-.89-2.17-1.24-3.25q-1.12-3.25-2.16-6.53c-.34-1.1-.71-2.2-1-3.28l-.82-3.25c-.53-2.17-1-4.35-1.52-6.53s-.74-4.26-1.1-6.41-.67-4.29-.9-6.38l-.51-6.19-.22-3.1-.09-1.55,0-1.49,0-6,121.08.53c0,.54,0,1.08,0,1.61v.41a1.86,1.86,0,0,0,0,.34l.07.67c0,.45.06.9.07,1.35s.16.73.2,1.11,0,.76.14,1.05a5,5,0,0,1,.22.84c0,.14.05.28.07.43a3.27,3.27,0,0,0,.14.33,2.86,2.86,0,0,1,.19.65.51.51,0,0,0,.12.29,2,2,0,0,1,.13.25,1.07,1.07,0,0,1,.09.27.38.38,0,0,0,.11.25c.25.26.24.65.54.92a3.41,3.41,0,0,1,.28.5,2.92,2.92,0,0,1,.43.5,2.75,2.75,0,0,1,.17.29l.31.29a5.46,5.46,0,0,1,.53.64,44.14,44.14,0,0,0,9.73,7,111.62,111.62,0,0,0,18.11,7.74Z"/><path class="cls-5" d="M35.11,692c-.1-3.67.26-8.71.62-13.25.19-2.31.58-4.62.91-6.93s.68-4.62,1.22-6.88,1-4.53,1.57-6.79,1.29-4.41,2-6.61c1.31-4.44,3-8.52,4.72-12.71a160.31,160.31,0,0,1,26.35-41.1,227.86,227.86,0,0,1,30.15-28.35,336.26,336.26,0,0,1,30.25-21.16L197.05,650.9a212.8,212.8,0,0,0-19.36,13.48,108.37,108.37,0,0,0-14,13,40.62,40.62,0,0,0-6.43,9.51c-.11.53-.49,1-.52,1.48,0,.22-.19.43-.22.64a1.94,1.94,0,0,1-.12.58,1.27,1.27,0,0,0-.08.57,4.8,4.8,0,0,0-.11.57c.07.49-.13.48,0,1.86Z"/><path class="cls-6" d="M132.86,548.23c20-12.47,39.7-22.59,59.08-32s38.44-17.76,57.17-25.94l48.44,111c-18.25,8-36.11,15.87-53.09,24.06S211.28,642,197.05,650.9Z"/><path class="cls-7" d="M249.11,490.34c18.74-8.18,37.1-16.06,55-24s35.12-16.05,51.36-24.5l56,107.37c-19.57,10.17-38.88,19.14-57.89,27.66s-37.71,16.52-56,24.49Z"/><path class="cls-8" d="M355.43,441.79c16.2-8.43,31.36-17.33,43.91-26.51a140.1,140.1,0,0,0,16.24-13.63,69.57,69.57,0,0,0,9.81-11.95l103.54,62.75a188.35,188.35,0,0,1-28,35.11,259.49,259.49,0,0,1-30,25.38c-10,7.33-20,13.8-29.94,19.75s-19.79,11.38-29.57,16.47Z"/><path class="cls-3" d="M131.86,1225.87c9.34-7.16,18.86-13.73,28.45-20s19.27-12.11,29-17.62c19.47-11.07,39.11-20.8,58.73-29.79l50.29,110.14c-17.07,7.82-33.62,16-49.23,24.94-7.83,4.43-15.44,9-22.73,13.79S212,1317,205.3,1322.14Z"/><path class="cls-4" d="M363.33,1111.74c9.19-3.55,18.19-7.09,26.73-10.64s16.6-7.12,23.28-10.51c3.25-1.67,6.31-3.34,8.2-4.59.24-.15.58-.33.74-.46l.52-.37.54-.35c.06,0,.26-.2.41-.31l.46-.36c1.24-1,2.52-1.89,3.75-2.91A108.52,108.52,0,0,0,442,1067.47l91.68,79.09a230.75,230.75,0,0,1-29.18,28.49c-2.67,2.18-5.47,4.26-8.21,6.37l-1,.78c-.35.27-.65.5-1.11.82l-2.58,1.8-2.6,1.77c-.87.59-1.63,1-2.45,1.57-6.6,4.21-12.44,7.33-18.15,10.27-11.32,5.74-21.74,10.28-31.85,14.48s-19.88,8-29.51,11.75Z"/><path class="cls-5" d="M442,1067.47A137,137,0,0,0,463.94,1032a147.88,147.88,0,0,0,10.87-41.17l120.35,13.24a269.21,269.21,0,0,1-19.87,75.49,258.14,258.14,0,0,1-18.07,34.85,254.26,254.26,0,0,1-23.52,32.17Z"/><path class="cls-6" d="M474.81,990.81a128.11,128.11,0,0,0-1.91-40.55,106.19,106.19,0,0,0-5.82-18.17l-.9-2.16c-.32-.71-.69-1.38-1-2.08-.7-1.38-1.29-2.82-2.1-4.12l-1.13-2a14.43,14.43,0,0,0-1.05-1.8c-.31-.46-.62-.93-.91-1.4a10,10,0,0,0-.94-1.39l98.54-70.35c1.18,1.55,2.26,3.2,3.32,4.85l3.19,5c1.13,1.72,1.91,3.18,2.78,4.72l2.57,4.59c1.77,3.05,3.23,6.22,4.79,9.36.76,1.57,1.54,3.14,2.26,4.73l2.06,4.8a227.89,227.89,0,0,1,12.6,39.4,248.84,248.84,0,0,1,4,79.86Z"/><path class="cls-7" d="M459,917.13a56.81,56.81,0,0,0-10-10.62,92.84,92.84,0,0,0-15.21-10.06c-11.88-6.42-26.92-11.92-43.45-16.35l31.52-116.9c11.21,3,22.63,6.56,34.22,10.87a282,282,0,0,1,35.21,15.82,214.1,214.1,0,0,1,35.06,23.47,177.86,177.86,0,0,1,31.24,33.42Z"/><path class="cls-8" d="M390.32,880.1c-16.58-4.44-34.52-8-53.26-11s-38.2-5.68-58.28-8.4l16.28-120c19.91,2.7,40.45,5.43,61.55,8.88a665,665,0,0,1,65.23,13.62Z"/><path class="cls-3" d="M423.73,1751a206.34,206.34,0,0,0-62.43-69.17l69.85-98.9a333.49,333.49,0,0,1,55.28,48.88l6.18,7,5.9,7.2c2,2.38,3.85,4.87,5.71,7.35l2.8,3.72c.94,1.23,1.86,2.48,2.73,3.76l5.28,7.63c.89,1.27,1.72,2.57,2.55,3.87l2.47,3.9c3.39,5.18,6.37,10.53,9.44,15.85Z"/><path class="cls-4" d="M361.3,1681.87c-26.16-18.58-57.78-32.52-92.64-43.82l37.43-115.15a560.21,560.21,0,0,1,63.24,24.55c10.53,4.93,21,10.29,31.36,16.16S421.21,1576,431.15,1583Z"/><path class="cls-5" d="M268.66,1638.05c-17.43-5.69-35.71-10.72-54.75-15.68s-38.85-9.82-59.88-15.8l33.25-116.42c17.79,5.07,37.19,9.83,57.19,15.06s40.68,10.87,61.62,17.69Z"/><path class="cls-6" d="M154,1606.57c-10.52-3-21.37-6.32-32.71-10.39a262,262,0,0,1-35.92-15.7,183.55,183.55,0,0,1-19.44-12c-1.67-1.24-3.34-2.49-5-3.75-.83-.65-1.64-1.23-2.48-2L56,1560.64l-2.48-2.15c-.83-.73-1.65-1.41-2.48-2.24-1.65-1.59-3.29-3.21-4.9-4.84l-1.21-1.23-1.2-1.34-2.38-2.71c-1.57-1.81-3.12-3.59-4.63-5.68s-3-4.06-4.45-6.12-2.69-4.27-4-6.43a117.68,117.68,0,0,1-11.82-27.77l116.44-33.23c-.1,0,0,0,0,0l0,0,0,0c-.09,0,.07.08.15.17a.42.42,0,0,1,.11.15l0,.09.14.1a3,3,0,0,1,.47.47c0,.09.22.19.34.29l.38.32.37.34a4.62,4.62,0,0,0,.5.38c.36.25.71.52,1,.8a61.62,61.62,0,0,0,6.32,3.84,143.63,143.63,0,0,0,19.55,8.41c7.65,2.74,16.11,5.36,25,7.9Z"/><path class="cls-7" d="M16.45,1500.13l-1-3.65c-.31-1.21-.54-2.39-.8-3.59-.51-2.39-1-4.8-1.41-7.2s-.61-4.62-.87-6.94l-.37-3.47,0-.43,0-.31,0-.59-.07-1.19-.5-9.44c-.1-1.57-.13-3.16-.13-4.76l0-4.78c-.15-6.34.25-12.81.5-19.23.55-6.47,1-12.92,2-19.4.44-3.24.85-6.48,1.5-9.71s1.16-6.46,1.84-9.68l2.26-9.64c.36-1.6.84-3.19,1.28-4.78l1.37-4.77a259.84,259.84,0,0,1,14.1-37L145.4,1391.4a137.62,137.62,0,0,0-7.42,19.52l-.73,2.51c-.24.83-.51,1.66-.68,2.52l-1.2,5.1c-.37,1.71-.63,3.46-1,5.18s-.56,3.49-.8,5.26c-.58,3.49-.75,7.11-1.11,10.69-.08,3.67-.4,7.28-.26,11l0,2.79c0,.93,0,1.86.07,2.81l.3,5.66,0,.71v.55a1.53,1.53,0,0,1,.07.29,2.86,2.86,0,0,1,0,.58.25.25,0,0,1,.08.21s0,.1,0,.11h0Z"/><path class="cls-8" d="M36,1339.59a280.43,280.43,0,0,1,42.45-64.18A334.21,334.21,0,0,1,104.2,1249c8.93-8.17,18.11-15.8,27.44-23l73.49,96.22c-6.67,5.12-13,10.41-19,15.86A214,214,0,0,0,169.67,1355a159.65,159.65,0,0,0-24.27,36.4Z"/><path class="cls-3" d="M51.81,2101.18A286.42,286.42,0,0,1,97,2039.39a273.25,273.25,0,0,1,61.11-47.74l60.1,105.11a151.76,151.76,0,0,0-33.95,26.57A165.45,165.45,0,0,0,158.19,2159Z"/><path class="cls-4" d="M158.09,1991.65a270.79,270.79,0,0,1,72.23-28.43c3.13-.7,6.27-1.47,9.42-2.08l9.45-1.74c6.31-1,12.63-1.91,18.94-2.47a297.58,297.58,0,0,1,37.65-1.39l-2.88,121a179.22,179.22,0,0,0-22.81.83c-3.74.31-7.4.9-11.07,1.43l-5.42,1c-1.81.34-3.57.81-5.36,1.19a149.34,149.34,0,0,0-40.05,15.73Z"/><path class="cls-5" d="M305.78,1955.54c3.13,0,6.21.21,9.3.37s6.2.29,9.24.6l9.18.84c3,.35,6.06.76,9.08,1.14,1.51.2,3,.38,4.53.61l4.49.73c3,.51,6,1,8.94,1.53,5.88,1.19,11.82,2.29,17.58,3.74,2.89.71,5.82,1.35,8.68,2.12l8.56,2.34,2.14.59,1.07.3.45.11c.57.15,1.14.3,1.71.47,1.12.22,2.23.53,3.3.68a37.14,37.14,0,0,0,11.62.33l16.17,120a158.86,158.86,0,0,1-24.68,1.34,161.14,161.14,0,0,1-24-2.41c-3.92-.65-7.72-1.52-11.52-2.41l-9.24-2.49-6-1.65c-2-.56-4-1-6-1.47-4-1-8-1.73-12-2.57-2-.39-4-.66-6-1l-3-.5c-1-.15-2-.25-3-.39l-5.93-.75-5.89-.53c-2-.23-3.91-.26-5.86-.38s-3.9-.25-5.82-.24Z"/><path class="cls-6" d="M415.65,1972a31.25,31.25,0,0,0,10-3.06,39.36,39.36,0,0,0,9.71-6.94,54.45,54.45,0,0,0,4.76-5.23,60.4,60.4,0,0,0,4.5-6.42c.75-1.13,1.41-2.41,2.13-3.62s1.36-2.54,2-3.91a89.65,89.65,0,0,0,3.56-8.52L566,1975.7a206.58,206.58,0,0,1-8.12,19.39c-1.49,3.21-3.2,6.4-4.87,9.58s-3.54,6.33-5.51,9.45a180.43,180.43,0,0,1-12.9,18.32A175,175,0,0,1,519,2049.55a160.5,160.5,0,0,1-39.53,27.87A152.66,152.66,0,0,1,431.82,2092Z"/><path class="cls-7" d="M452.24,1934.34c1.13-3,2-6.16,2.95-9.36s1.65-6.6,2.24-10.09a154.78,154.78,0,0,0,2.39-21.76,221.69,221.69,0,0,0-3.36-47.31l119.3-20.67a342.78,342.78,0,0,1,5,73.24,274,274,0,0,1-4.26,38.36c-1.14,6.45-2.67,13-4.35,19.45s-3.72,13-6.14,19.5Z"/><path class="cls-8" d="M456.46,1845.82a319.56,319.56,0,0,0-12.88-49.08c-1.4-4.1-2.94-8.19-4.46-12.28l-2.42-6.12c-.4-1-.81-1.95-1.21-2.89l-1.2-2.8A237.59,237.59,0,0,0,423.73,1751l105.76-58.93a354.75,354.75,0,0,1,16,32.74l1.78,4.15c.59,1.39,1.21,2.8,1.7,4.1l3.14,8c2,5.36,4,10.72,5.88,16.18a437.67,437.67,0,0,1,17.74,67.92Z"/><path class="cls-3" d="M434.36,2619.1c5.3-11.54,10.75-21.59,15.59-30.54s9.08-16.8,12.2-23.55a85.34,85.34,0,0,0,6.06-16.46,29.18,29.18,0,0,0,.72-10l120.36-13.15a146.9,146.9,0,0,1,.56,25.67,156.22,156.22,0,0,1-3.6,24.45A203.74,203.74,0,0,1,572,2616c-5.38,11.56-10.8,21.43-15.56,30.24s-8.88,16.53-12,23.33Z"/><path class="cls-4" d="M468.93,2538.53a36.26,36.26,0,0,0-3.24-11c-.44-1.1-1.1-2.3-1.66-3.49l-1-1.85-.5-.94-.59-1c-1.45-2.56-3.36-5.29-5.27-8.05-1.07-1.4-2-2.8-3.19-4.22s-2.21-2.86-3.48-4.3-2.41-2.9-3.75-4.35l-2-2.19-1.63-1.69a81.22,81.22,0,0,0-13.1-11.18l67.6-100.45a202.18,202.18,0,0,1,33,27.91c1.19,1.25,2.46,2.56,3.59,3.78l3.09,3.46c2.06,2.27,4.1,4.69,6.13,7.11s4,5,6,7.47,4,5.23,5.92,7.87c3.88,5.49,7.7,11.08,11.3,17.27l1.35,2.28,1.32,2.38c.87,1.59,1.75,3.17,2.6,4.79,1.67,3.33,3.35,6.62,4.88,10.16a157.62,157.62,0,0,1,13,47.05Z"/><path class="cls-5" d="M429.55,2484.3a68.92,68.92,0,0,0-14.55-7.49,87.4,87.4,0,0,0-8.37-2.71c-3-.73-6.08-1.47-9.43-2-13.22-2.3-29.47-2.57-47.57-1.77l-5.35-121c11.1-.48,22.72-.72,34.91-.34a282.31,282.31,0,0,1,38.26,3.7c6.61,1.08,13.39,2.59,20.16,4.32a214.13,214.13,0,0,1,20.42,6.58,190.46,190.46,0,0,1,39.12,20.22Z"/><path class="cls-6" d="M349.63,2470.33c-18.17.8-38.17,2.65-60,3.79-10.92.56-22.31.92-34.2.77a315.76,315.76,0,0,1-37.11-2.51l15.5-120.08c14.34,1.91,31.13,1.85,49.57.91s38.71-2.83,60.86-3.84Z"/><path class="cls-7" d="M76,2395.66a289,289,0,0,1-22.82-30.93l-4.93-7.89c-.2-.3-.43-.72-.65-1.1l-.67-1.16-1.32-2.33c-.88-1.55-1.78-3.1-2.61-4.67-1.61-3.15-3.28-6.3-4.76-9.5l-2.18-4.81L35,2330.86l-1-2.43a236.72,236.72,0,0,1-17.16-79.2l121-5.53a116.11,116.11,0,0,0,8.14,38.58c.15.36.28.73.43,1.08l.48,1,.94,2.08c.63,1.38,1.37,2.67,2,4l2.22,3.91,3.09,4.94a168.92,168.92,0,0,0,13.06,17.76Z"/><path class="cls-8" d="M16.85,2249.23a274.69,274.69,0,0,1,7.59-77,293,293,0,0,1,27.37-71L158.19,2159a171.57,171.57,0,0,0-16.06,41.64,153.89,153.89,0,0,0-4.33,43.06Z"/><path class="cls-3" d="M34.77,3163a227.53,227.53,0,0,1-9.47-40A326.88,326.88,0,0,1,22,3086.17l-.15-4.44,0-4.71v-9.45c0-1.56.09-3.18.16-4.78l.24-4.81.26-4.81.14-2.4.25-2.44,1-9.75.28-2.44.39-2.46.8-4.92c.95-6.54,2.54-13.15,4.05-19.73l117.39,29.64c-.67,3.28-1.56,6.45-2,9.92l-.43,2.54-.22,1.27-.13,1.33-.57,5.3-.15,1.32-.06,1.38-.14,2.75-.14,2.75c-.05.91-.14,1.81-.1,2.78v8.54l.11,3.12a209,209,0,0,0,2.05,23.45,107.64,107.64,0,0,0,4.32,18.83Z"/><path class="cls-4" d="M29.44,3009a236,236,0,0,1,13.69-39A231.69,231.69,0,0,1,64.07,2934a250.69,250.69,0,0,1,56.37-56l71.46,97.75a129.55,129.55,0,0,0-29.35,28.72,111.82,111.82,0,0,0-9.4,16.2,117.36,117.36,0,0,0-6.32,18.07Z"/><path class="cls-5" d="M120.44,2877.93c5.11-3.82,10.28-7.2,15.46-10.63l7.8-4.85c1.3-.82,2.6-1.58,3.91-2.33l3.91-2.26c10.44-6,20.91-11.35,31.31-16.17s20.77-9.32,31-13.37,20.46-7.89,30.5-11.44L284.89,2931q-13.49,4.76-26.19,9.82c-8.52,3.36-16.68,6.9-24.57,10.57s-15.38,7.55-22.47,11.59l-2.64,1.52c-.89.5-1.77,1-2.59,1.54l-5.06,3.14c-3.21,2.17-6.51,4.27-9.47,6.53Z"/><path class="cls-6" d="M244.35,2816.88c10.05-3.57,20-7,29.79-10.2l28.9-9.53c18.92-6.23,37.08-12.36,53.73-18.94l44.61,112.56c-20.9,8.24-41,15-60.42,21.37l-28.59,9.43q-14.07,4.65-27.48,9.4Z"/><path class="cls-7" d="M356.77,2778.21c8.27-3.29,16.14-6.69,23.33-10.21a160.39,160.39,0,0,0,19-10.78,65.78,65.78,0,0,0,12.15-10.15,25.71,25.71,0,0,0,5-7.55l112.09,45.78c-.86,2-1.65,4.13-2.61,6.12s-2,3.95-3,5.91a128.22,128.22,0,0,1-6.58,11.3l-1.75,2.74-1.84,2.58c-1.25,1.71-2.5,3.41-3.77,5.09s-2.59,3.26-3.91,4.82l-4,4.64a186.46,186.46,0,0,1-33.87,29,278.82,278.82,0,0,1-33.52,19.2c-10.94,5.36-21.62,9.93-32.1,14.1Z"/><path class="cls-8" d="M416.22,2739.52a24.42,24.42,0,0,0,1.65-8.68c0-.49.09-.94.08-1.47s-.08-1.12-.1-1.68,0-1.13,0-1.69-.17-1.27-.23-1.9-.15-1.28-.2-1.92l0-.49,0-.24-.1-.73-.38-3c-.25-2-.48-4-.63-6s-.36-4-.41-6a165.12,165.12,0,0,1,4.57-47.17,216.09,216.09,0,0,1,14-39.47l110.07,50.42a98.34,98.34,0,0,0-6.35,17.45,43.88,43.88,0,0,0-1.34,12.86c0,.51.09,1,.11,1.53s.09,1,.16,1.55l1,8.67c.19,1.88.42,3.72.56,5.63l.26,5.87L539,2729c0,2-.09,4.07-.16,6.09l-.27,6.12c0,1-.17,2.07-.28,3.11l-.36,3.15c-.26,2.1-.52,4.2-.81,6.29-.12,1-.35,2.11-.56,3.17l-.65,3.19q-.66,3.2-1.38,6.37c-.52,2.11-1.2,4.23-1.82,6.35s-1.31,4.21-2,6.31-1.61,4.14-2.44,6.19Z"/><path class="cls-3" d="M374.5,3547c4.41-1.59,8.62-3.27,12.91-4.91l6.27-2.55c2.11-.83,4.15-1.7,6.17-2.58,8.2-3.46,16-7.12,23.29-10.91l2.73-1.43c.92-.47,1.83-.95,2.68-1.45l5.2-2.93c3.29-2,6.66-4,9.63-6.06a122.37,122.37,0,0,0,15.93-12.47l83.11,88.05a242.59,242.59,0,0,1-31.56,24.95c-5.34,3.66-10.65,6.83-16,10.05l-8,4.51c-1.33.77-2.66,1.46-4,2.15l-4,2.08q-15.88,8.23-31.51,14.8c-2.6,1.12-5.21,2.23-7.78,3.26l-7.76,3.14c-5.13,2-10.29,4-15.38,5.85Z"/><path class="cls-4" d="M459.31,3501.71a71.37,71.37,0,0,0,10.45-12.27,48.45,48.45,0,0,0,5.78-12,53.39,53.39,0,0,0,2.22-14.07l.08-2a6.7,6.7,0,0,0,0-1l-.06-1.08c-.08-1.43-.12-2.87-.14-4.31-.2-1.53-.38-3.07-.53-4.61l-.11-1.16,0-.58-.11-.61-.45-2.45,119.41-20.06.84,5,.21,1.25.15,1.3.3,2.61c.38,3.47.75,6.95,1.09,10.43a213.94,213.94,0,0,1,.33,21.85,174.15,174.15,0,0,1-7.6,45.47A170.22,170.22,0,0,1,571,3555.92a192.49,192.49,0,0,1-28.54,33.84Z"/><path class="cls-5" d="M445.72,3346.4a194.8,194.8,0,0,0-24.2-39A118,118,0,0,0,391.66,3281l62.88-103.47c5.86,3.6,11.59,7.41,17.1,11.48s10.84,8.36,15.88,12.88a251.11,251.11,0,0,1,27.65,28.78,315,315,0,0,1,39.74,63.45Z"/><path class="cls-6" d="M391.66,3281c-11-6.67-23.26-11.4-37.51-14.49s-30.26-4.43-47.69-4.53l.74-121.08c22.9.16,47.33,1.82,72.59,7.28a255.23,255.23,0,0,1,38,11.29c6.3,2.46,12.55,5.16,18.7,8.17s12.17,6.32,18.06,9.89Z"/><path class="cls-7" d="M306.46,3261.94c-17.46-.12-36.22,1-56.44,2.24-10.13.61-20.63,1.25-31.71,1.65s-22.69.58-35.21,0l5.52-121c7.64.36,16.22.28,25.32-.06s18.73-.9,28.74-1.5c20.06-1.21,41.61-2.6,64.52-2.47Z"/><path class="cls-8" d="M183.1,3265.85a234.16,234.16,0,0,1-40.57-5.15,168.36,168.36,0,0,1-22.65-6.77,144.78,144.78,0,0,1-23.36-11.29,135.85,135.85,0,0,1-21.89-16.42A138,138,0,0,1,56.69,3206a160.81,160.81,0,0,1-21.92-43L149.37,3124a40.6,40.6,0,0,0,5.23,10.84,16.41,16.41,0,0,0,2.1,2.41,14.08,14.08,0,0,0,2.29,1.72,23.92,23.92,0,0,0,3.87,1.82,47.1,47.1,0,0,0,6.33,1.85,113.5,113.5,0,0,0,19.43,2.3Z"/><path class="cls-3" d="M342.08,4045.85c-9.06-2.43-18.65-4.84-28.5-7.34s-19.93-5.08-30.16-7.83C263,4025.15,242,4019,220.68,4011.23L262,3897.43c16.67,6.06,34.4,11.35,52.89,16.34,9.26,2.5,18.73,4.92,28.44,7.38s19.69,5,30.12,7.77Z"/><path class="cls-4" d="M220.68,4011.23c-21.26-7.75-42.86-16.95-64.34-29.17a295.28,295.28,0,0,1-31.88-20.86,236.33,236.33,0,0,1-30.2-26.95l88.21-82.93c8.53,9.11,20.11,17.75,33.71,25.49s29.21,14.58,45.86,20.62Z"/><path class="cls-5" d="M94.26,3934.25a208.37,208.37,0,0,1-26-34,193.13,193.13,0,0,1-18.46-39.76,204.62,204.62,0,0,1-9.1-42c-.32-3.46-.71-7-.9-10.4s-.35-6.88-.42-10.29l0-10.15c.18-3.8.43-7.66.71-11.49l120.58,10.92c0,1.21-.13,2.38-.25,3.61,0,1.67,0,3.33,0,5l.2,4.84c.07,1.59.3,3.11.4,4.67a83.68,83.68,0,0,0,3.65,17.08,72.45,72.45,0,0,0,7,15,86.35,86.35,0,0,0,10.74,14Z"/><path class="cls-6" d="M40.16,3776.18a163.67,163.67,0,0,1,34.93-87.42A196,196,0,0,1,105.65,3658a275,275,0,0,1,32.16-22.39l62,104c-13.12,7.89-23.67,16.4-29.62,24.12a45,45,0,0,0-6.54,11.15,44.38,44.38,0,0,0-2.87,12.2Z"/><path class="cls-7" d="M137.81,3635.61c10.73-6.34,21.38-11.83,31.94-16.85s21-9.35,31.32-13.5,20.54-7.82,30.67-11.38,20.15-6.89,30-10.07L299.1,3699c-9.33,3-18.39,6.06-27.37,9.17s-17.64,6.35-26.08,9.68-16.59,6.8-24.28,10.44-15,7.43-21.6,11.35Z"/><path class="cls-8" d="M261.77,3583.81c19.83-6.43,39.19-12.36,58.09-18.36s37.22-12,54.64-18.45l42,113.55c-20.43,7.57-40.43,14.07-60.05,20.31S317.66,3693,299.1,3699Z"/><path class="cls-3" d="M428.38,4607.87a104.89,104.89,0,0,0-.56-19c-.34-3.15-.95-6.31-1.57-9.5s-1.52-6.4-2.55-9.65c-3.93-13-10.59-26.77-19.31-41.24l103.67-62.55A357.59,357.59,0,0,1,525.35,4498a267.17,267.17,0,0,1,14.13,36.27,227.48,227.48,0,0,1,9.73,81.37Z"/><path class="cls-4" d="M404.39,4528.46c-4.38-7.25-9.25-14.65-14.49-22.25s-10.88-15.41-16.74-23.48-12-16.42-18.15-25.18-12.48-17.91-18.65-27.71l102.37-64.66c4.57,7.28,9.7,14.77,15.16,22.49s11.25,15.66,17.25,23.93c12,16.51,24.78,34.25,36.92,54.31Z"/><path class="cls-5" d="M336.36,4429.84c-6.17-9.8-12.27-20.14-17.9-31.39a261.85,261.85,0,0,1-15.1-36.14c-8.64-25.65-12.79-55.29-10.22-83.68l120.66,10.11c-.2,1.49-.17,2.95-.27,4.42s0,2.91,0,4.37a85.9,85.9,0,0,0,.67,8.74c.32,2.93.94,5.89,1.57,8.9l.57,2.27.28,1.14.34,1.15.66,2.31.76,2.34c4.09,12.53,11.16,26.24,20.39,40.8Z"/><path class="cls-6" d="M293.14,4278.63a220.63,220.63,0,0,1,7.51-41.07c.89-3.29,1.94-6.45,2.94-9.67l.38-1.2.37-1.11.76-2.2c.51-1.46,1-2.93,1.54-4.37,2.08-5.82,4.34-11.45,6.65-17,9.33-22.18,20.29-42.28,30.94-60.69L449,4201.91c-9.55,16.5-17.83,32-24.14,47-1.56,3.75-3.07,7.48-4.38,11.17-.35.93-.65,1.85-1,2.77l-.47,1.38-.24.68-.18.6c-.47,1.61-1.05,3.23-1.46,4.81a98,98,0,0,0-3.4,18.38Z"/><path class="cls-7" d="M344.23,4141.31c5.31-9.2,10.58-18,15.46-26.37s9.43-16.3,13.13-23.53a128.75,128.75,0,0,0,8.11-18.59,40.18,40.18,0,0,0,1.39-5.53c.11-.65.12-1.07.16-1.37,0-.11,0,0,0-.06h0l120.79-8.74c.19,2.51.23,5,.3,7.56s-.05,5.1-.18,7.51a134.53,134.53,0,0,1-1.43,13.67,158.53,158.53,0,0,1-5.71,23.86,244.59,244.59,0,0,1-15.72,37c-5.51,10.72-11,20.28-16.32,29.35s-10.38,17.58-15.17,25.85Z"/><path class="cls-8" d="M382.48,4065.86s0,0,0,0h0s0,0,0,0a.43.43,0,0,1-.11-.2c-.18-.19-.23-.36-.44-.61a32.41,32.41,0,0,0-3.95-4.32c-.94-.9-2.09-1.87-3.31-2.88l-1.94-1.55-1.08-.78-.35-.27a.39.39,0,0,1-.1-.08s0,0,0,0h0l-.94-.42c-1.63-.72-4.2-1.71-7.11-2.71-6-2-13.33-4.14-21.07-6.21l31.41-116.93,6.79,1.85c2.34.67,4.6,1.29,7,2,4.71,1.36,9.68,2.92,14.83,4.65s10.79,3.83,17.07,6.58l2.43,1.1,1.21.56.6.28.71.34c1.93,1,3.86,1.95,5.76,3s3.75,2.14,5.58,3.28,3.6,2.39,5.4,3.59l5.42,4c1.62,1.24,3.24,2.55,4.85,3.83,3.23,2.66,6.47,5.43,9.72,8.5A152.35,152.35,0,0,1,479.93,3994c1.53,2.06,3,4.34,4.46,6.53,1.47,2.36,2.92,4.75,4.3,7.24s2.72,5.09,3.89,7.73l1.76,4c.55,1.34,1.07,2.68,1.58,4a117.57,117.57,0,0,1,7.35,33.69Z"/><path id="Path_38" data-name="Path 38" class="cls-9" d="M421.1,377.64l22.67,90.93,96.64-10.45L513.56,440l50-74.16-66-44.51-50,74.15Z"/><g id="START" class="cls-10"><text class="cls-11" transform="translate(488.8 411.83) rotate(-55)">START</text></g><g id="Rectangle_187" data-name="Rectangle 187"><rect class="cls-1" x="403.24" y="4593.58" width="171.12" height="107.1"/><rect class="cls-12" x="405.09" y="4595.43" width="167.42" height="103.41"/></g><g id="END" class="cls-10"><text class="cls-13" transform="translate(463.92 4654.52)">END</text></g></svg>