<svg id="Layer_1" data-name="Layer 1" xmlns="http://www.w3.org/2000/svg" viewBox="0 0 612 4937.15"><defs><style>.cls-1,.cls-9{fill:#fff;}.cls-2{fill:#f388b2;}.cls-3{fill:#f3714a;}.cls-4{fill:#60a353;}.cls-5{fill:#4f8ecb;}.cls-6{fill:#f1d54b;}.cls-7{fill:#93479b;}.cls-8{fill:#ef4043;}.cls-12,.cls-9{stroke:#707071;}.cls-9{stroke-width:3px;}.cls-10,.cls-11,.cls-13{isolation:isolate;}.cls-11{font-size:17.01px;letter-spacing:0.05em;}.cls-11,.cls-13{font-family:OpenSans-Bold, Open Sans;font-weight:700;}.cls-12{fill:none;stroke-width:3px;}.cls-13{font-size:19.7px;letter-spacing:0.05em;}</style></defs><rect class="cls-1" x="37.09" y="167.45" width="526.5" height="380.34"/><path class="cls-2" d="M528,2402.79l-91,93.71a73.82,73.82,0,0,0-13.44-10.39c-.6-.31-1.2-.64-1.79-1l-.88-.51-.92-.44c-.62-.3-1.23-.6-1.84-.92l-1.91-.83c-1.24-.61-2.63-1-3.95-1.59-.67-.26-1.4-.45-2.09-.7s-1.38-.5-2.14-.68c-11.57-3.51-26.84-5-45.09-4.75l-1.63-130.6c6.3-.11,12.89,0,19.53.2s13.55.67,20.64,1.44a238.89,238.89,0,0,1,44,8.58,202.9,202.9,0,0,1,44.28,19.19A205,205,0,0,1,528,2402.79Z"/><path class="cls-2" d="M259.18,3717.76l-45.53-122.41c11.11-4.15,22.06-7.93,32.88-11.55s21.52-7,32.08-10.37c21.11-6.67,41.66-13,61.47-19.51L381,3678c-21.54,7.1-42.61,13.56-63,20-10.2,3.23-20.26,6.44-30.06,9.72S268.46,3714.29,259.18,3717.76Z"/><path class="cls-2" d="M212.47,1322.72l-77.41-105.2A542.54,542.54,0,0,1,197.9,1178c21.22-11.49,42.56-21.63,63.78-30.87l52.25,119.7c-18.69,8.14-36.69,16.74-53.76,26A411.3,411.3,0,0,0,212.47,1322.72Z"/><path class="cls-3" d="M333.19,873.26c-20.2-3.23-41.32-6-63.17-9s-44.47-6.17-68.27-10.84L227,725.31c18.93,3.73,39.45,6.67,60.71,9.58s43.34,5.77,66.13,9.41Z"/><path class="cls-4" d="M201.75,853.45c-11.91-2.35-24.13-5.09-36.81-8.64a287.19,287.19,0,0,1-39.67-14.07l-5.19-2.37c-1.74-.81-3.53-1.75-5.28-2.63l-2.64-1.34-1.32-.68L109.5,823l-5.36-3.06c-1.77-1-3.6-2.17-5.4-3.32s-3.6-2.3-5.4-3.54-3.64-2.61-5.44-3.94c-.9-.68-1.79-1.32-2.69-2l-2.71-2.22c-1.8-1.49-3.58-3-5.35-4.53s-3.53-3.32-5.26-5c-.87-.86-1.74-1.67-2.59-2.58L66.76,790c-1.67-1.88-3.35-3.7-5-5.67a140.39,140.39,0,0,1-9.1-12.54l-2.1-3.31c-.7-1.1-1.38-2.21-2-3.38q-1.89-3.45-3.69-7l117.12-57.8a.38.38,0,0,1,.13.26c0,.06,0,.1.09.13a.69.69,0,0,1,.11.13c0,.21.36.39.45.69.1.14.32.28.44.44l.19.27c.07.09.23.18.33.28a6.25,6.25,0,0,1,.62.64c.29.22.62.46.9.72s.29.26.43.39.4.27.59.41c.39.27.78.56,1.15.86l1.45.92a15.46,15.46,0,0,0,1.54,1c.59.32,1.16.65,1.73,1l.43.26.51.25,1,.49c.68.34,1.29.69,2,1l2.24,1a158.59,158.59,0,0,0,21.85,7.64c8.29,2.32,17.32,4.38,26.76,6.24Z"/><path class="cls-5" d="M44.93,758.11,44,756.36l-.79-1.79L41.7,751l-1.51-3.61-.72-1.81-.63-1.82c-.83-2.42-1.63-4.86-2.39-7.3l-.57-1.84-.47-1.81-.89-3.63-.84-3.64c-.27-1.21-.57-2.45-.75-3.62q-.6-3.55-1.12-7.12c-.17-1.18-.36-2.39-.49-3.56L31,707.78q-.29-3.45-.51-6.89c-.1-1.18-.09-2.25-.11-3.35l0-3.31,0-3.3v-2.47c0-.27,0-.55,0-.89a144.19,144.19,0,0,1,4.49-30.81c.66-2.49,1.44-4.92,2.21-7.37.39-1.22.77-2.45,1.19-3.65l1.35-3.51c.92-2.31,1.82-4.71,2.85-6.92s2.08-4.41,3.15-6.6l.82-1.63.85-1.55L49,622.44c1.17-2.05,2.34-4.13,3.58-6s2.47-3.82,3.73-5.72,2.56-3.56,3.86-5.33l2-2.64c.66-.85,1.32-1.65,2-2.47l4-4.88a236.48,236.48,0,0,1,33.2-31.12l80.17,103.11a107.31,107.31,0,0,0-14.48,13.33c-.38.49-.76,1-1.16,1.43l-.59.69-.45.66-.94,1.26c-.23.38-.46.76-.72,1.13a17.19,17.19,0,0,0-1.71,3.3,2,2,0,0,1-.15.29,2.4,2.4,0,0,0,0,.24,4.5,4.5,0,0,1-.16.44c0,.26-.16.48-.11.71-.13.2,0,.49-.11.73.06.88,0,2.09,0,3a10.38,10.38,0,0,1,.11,1.24l0,.63c0,.18.08.32.1.48a5.91,5.91,0,0,1,.13.94.76.76,0,0,0,.09.38c0,.11.07.22.1.33s0,.22.05.34,0,.12,0,.17l.07.11a1.2,1.2,0,0,1,.15.45v.12l.06.07a.78.78,0,0,1,.1.15.75.75,0,0,1,0,.16v.09l.06,0Z"/><path class="cls-6" d="M101.37,564.28a356.64,356.64,0,0,1,33-22.58c10.89-6.64,21.66-12.59,32.32-18.14,21.31-11.08,42.19-20.65,62.67-29.76l53,119.38c-19.29,8.57-38,17.19-55.31,26.21-8.65,4.5-16.94,9.11-24.63,13.8a229.28,229.28,0,0,0-20.89,14.2Z"/><path class="cls-7" d="M229.39,493.8c20.48-9.09,40.54-17.64,60-26.22s38.39-17.14,56.13-26.08l58.77,116.64c-21.15,10.64-41.92,20-62.29,29s-40.35,17.49-59.66,26.06Z"/><path class="cls-8" d="M345.55,441.5c8.87-4.47,17.43-9,25.52-13.69s15.7-9.44,22.52-14.26a155.28,155.28,0,0,0,17.61-14.29,65.3,65.3,0,0,0,10.11-12L533,454.92l-3.6,5.6-1.83,2.78-1.88,2.61-3.81,5.18-3.9,4.83-2,2.39-2,2.26L510,485c-1.34,1.45-2.69,2.79-4.05,4.19s-2.72,2.8-4.08,4.06a286.28,286.28,0,0,1-32.94,27c-11,7.75-21.84,14.51-32.6,20.72s-21.44,11.86-32,17.19Z"/><path class="cls-3" d="M30.26,1340.64a284,284,0,0,1,46.4-70.46,376.71,376.71,0,0,1,58.64-52.84l77.34,105.25a247.24,247.24,0,0,0-38.31,34.3A153.37,153.37,0,0,0,149,1395Z"/><path class="cls-4" d="M261.68,1147.16c21.21-9.26,42.35-17.69,63.05-25.68l30.59-11.75c10-3.85,19.83-7.66,29.11-11.46l49.43,120.89c-10.87,4.45-21.35,8.5-31.66,12.47l-30.37,11.66c-19.91,7.69-39.21,15.41-57.9,23.57Z"/><path class="cls-5" d="M384.43,1098.27c2.29-1,4.64-1.9,6.85-2.84l3.35-1.42,3.23-1.42c2.21-.94,4.17-1.88,6.25-2.81l2.91-1.38,1.44-.69,1.34-.68c3.67-1.79,6.73-3.53,8.84-4.83l.77-.48a1.27,1.27,0,0,0,.3-.2l.24-.17.49-.33.12-.08.07,0,.11-.1.48-.37c1.27-1,2.6-1.93,3.86-3a117.64,117.64,0,0,0,26.8-32l112.86,65.74a248,248,0,0,1-56.92,67.33c-2.92,2.42-6,4.7-9,7l-1.15.86-.28.22-.36.25-.72.5-2.87,2-1.45,1c-.48.34-1,.66-1.4.93l-2.68,1.69c-7.14,4.44-13.64,7.93-19.73,10.94l-2.31,1.16-2.24,1.07-4.46,2.12c-2.89,1.31-5.85,2.69-8.64,3.89l-4.25,1.86-4.16,1.77c-2.8,1.19-5.5,2.28-8.23,3.41Z"/><path class="cls-6" d="M451.88,1045.43A142.23,142.23,0,0,0,467.83,1004a129.38,129.38,0,0,0,2.08-43l129.55-16.56a259.44,259.44,0,0,1-3.91,86.84,272.57,272.57,0,0,1-30.81,79.91Z"/><path class="cls-7" d="M469.91,961a97.38,97.38,0,0,0-12.22-37.09l-.56-1-.47-.67c-.3-.45-.59-.91-.87-1.37a10.35,10.35,0,0,0-1-1.34c-.33-.43-.65-.88-1-1.34s-.76-.85-1.13-1.29-.69-.9-1.11-1.33-.86-.85-1.27-1.29a12.58,12.58,0,0,0-1.32-1.31,77.49,77.49,0,0,0-14.14-10.37l66-112.69a208,208,0,0,1,38.17,28.45c1.53,1.38,3,2.92,4.48,4.44l4.4,4.58c1.45,1.55,2.82,3.23,4.22,4.85s2.79,3.26,4.13,5l3.9,5.21c1.28,1.76,2.61,3.46,3.77,5.31l3.55,5.5,1.74,2.76,1.43,2.52a223.3,223.3,0,0,1,18.86,42,234.27,234.27,0,0,1,9.9,44Z"/><path class="cls-8" d="M434.89,902.54c-11.53-6.8-27.2-12.78-44.69-17.53s-36.84-8.51-57-11.75l20.66-129c22.81,3.69,46.33,8.07,70.82,14.74a377.05,377.05,0,0,1,37.48,12.25,269.92,269.92,0,0,1,38.76,18.56Z"/><path class="cls-3" d="M455.07,1892.52a191.46,191.46,0,0,0-.56-24.53,250.32,250.32,0,0,0-3.53-25.56,324.23,324.23,0,0,0-14.8-52.21l122.44-45.44a452.8,452.8,0,0,1,20.68,73.32,381.24,381.24,0,0,1,5.37,39.1,323.27,323.27,0,0,1,.9,40.71Z"/><path class="cls-4" d="M436.18,1790.22c-.81-2.18-1.61-4.36-2.49-6.53l-1.29-3.26c-.21-.53-.43-1.11-.64-1.61l-.64-1.48-2.54-5.92c-.41-1-.88-2-1.34-2.91l-1.37-2.88c-1.75-3.9-3.83-7.53-5.74-11.28l-3.13-5.42c-.53-.89-1-1.82-1.57-2.69l-1.67-2.62L412.1,1741l-.82-1.32-.88-1.26-3.51-5.08c-1.2-1.66-2.46-3.27-3.68-4.91s-2.51-3.23-3.81-4.81c-2.52-3.22-5.31-6.21-8-9.27l-4.25-4.43c-1.4-1.49-2.94-2.86-4.39-4.3l90.16-94.49c2.43,2.37,4.92,4.67,7.27,7.12l7.05,7.36c4.54,5.06,9.11,10.1,13.35,15.42,2.15,2.63,4.31,5.25,6.32,8s4.11,5.4,6.09,8.16l5.78,8.35,1.44,2.09,1.36,2.14,2.71,4.27,2.7,4.28c.9,1.43,1.7,2.89,2.56,4.34,1.68,2.91,3.37,5.81,5,8.73,3.09,5.91,6.33,11.79,9.09,17.81l2.13,4.49c.72,1.5,1.44,3,2.07,4.51l3.89,9.08,1,2.27.87,2.18,1.72,4.33c1.15,2.88,2.24,5.8,3.32,8.73Z"/><path class="cls-5" d="M382.75,1705.62c-23.65-22.76-54.13-40.13-89.38-53.77l47.2-121.78c11.49,4.46,23,9.37,34.48,14.82s22.88,11.46,34.1,18.16a381.32,381.32,0,0,1,33,22,346.44,346.44,0,0,1,30.8,26.1Z"/><path class="cls-6" d="M293.37,1651.85c-17.59-6.85-36.39-12.73-56.06-18.25S197,1623,175.16,1617.27L208.35,1491c20.29,5.33,42,10.65,64.17,16.88s45.06,13.3,68.05,22.24Z"/><path class="cls-7" d="M175.16,1617.27c-10.92-2.87-22.15-5.91-33.88-9.49s-24-7.67-36.94-13.07c-1.59-.63-3.27-1.39-4.93-2.12l-5-2.24-5.1-2.48-2.55-1.26-2.63-1.4-5.24-2.84-5.37-3.2c-.9-.55-1.77-1.05-2.68-1.65l-2.75-1.82-2.73-1.84c-.91-.62-1.81-1.21-2.75-1.93-1.86-1.38-3.71-2.77-5.54-4.19-.89-.66-1.88-1.5-2.85-2.32l-2.9-2.49-2.86-2.52c-1-.91-1.95-1.89-2.92-2.84-1.91-1.93-3.87-3.82-5.67-5.86a128.75,128.75,0,0,1-18.62-26.64l116.16-60.36s-.05,0,0,0l0,0s0,0,0,0a1.14,1.14,0,0,1,.23.15.81.81,0,0,1,.19.18,1,1,0,0,0,.31.26c.33.22.65.47,1,.73a4,4,0,0,0,.59.41l.66.43.65.45c.21.16.53.32.8.48.55.32,1.09.65,1.63,1l1.94,1,1,.54,1.12.53,2.23,1.1,2.47,1.1c.83.37,1.63.74,2.57,1.11,7.11,3,15.54,5.86,24.62,8.63s18.88,5.44,29,8.1Z"/><path class="cls-8" d="M21.27,1525.07a122.72,122.72,0,0,1-11.13-30.52c-.57-2.66-1.14-5.32-1.58-8s-.73-5.39-1-8.09c-.37-3.11-.38-4.41-.5-6.31l-.3-5.39-.28-5.4,0-5.24,0-5.24c0-1.75,0-3.49.06-5.26L6.84,1435c.24-3.54.58-7.1.88-10.64a274.19,274.19,0,0,1,7.68-42.51A256.6,256.6,0,0,1,30.12,1341L149,1395.16a126.53,126.53,0,0,0-7.37,20.43,143.56,143.56,0,0,0-3.89,21.69l-.48,5.63-.21,5.73c-.07.95-.05,1.93,0,2.9l0,2.93v2.92l.17,2.75.14,2.75c0,.82.08,2.25.13,1.83h0s-.09,0,0,0Z"/><path class="cls-3" d="M69.07,2394.78a293.61,293.61,0,0,1-24-34.12l-.67-1.09c-.22-.35-.45-.71-.7-1.16l-1.47-2.56-2.91-5.15c-1.81-3.47-3.62-6.95-5.28-10.47l-2.4-5.3-1.18-2.67-1.08-2.68-2.14-5.37c-.7-1.79-1.3-3.6-1.94-5.4a235.4,235.4,0,0,1-10.71-43.69,262.58,262.58,0,0,1-2.66-43.45l130.57,2.73c-.31,14.86,1.76,29.11,6.09,41.3.27.75.5,1.54.8,2.28l.89,2.21.43,1.11c.16.36.33.71.49,1.06l1,2.14c.66,1.4,1.39,2.73,2.06,4.1l1.13,2,.54,1c.07.15.21.36.35.59l.41.65a163.29,163.29,0,0,0,13.5,19.24Z"/><path class="cls-4" d="M11.89,2231.67a285.39,285.39,0,0,1,14.33-83.05A298.37,298.37,0,0,1,63,2073.75l108,73.5a167.81,167.81,0,0,0-20.59,42,155.43,155.43,0,0,0-7.89,45.17Z"/><path class="cls-5" d="M63,2073.75a284.33,284.33,0,0,1,57.22-62,274.74,274.74,0,0,1,74.06-42.41l46.46,122.06a144.41,144.41,0,0,0-38.81,22.24,153.55,153.55,0,0,0-31,33.66Z"/><path class="cls-6" d="M194.25,1969.29a287.35,287.35,0,0,1,82.29-17.86l5.17-.32c1.73-.11,3.46-.21,5.17-.23l10.3-.23,10.23.15c3.42.06,6.78.31,10.16.47,1.69.1,3.39.16,5.07.31l5,.45c3.34.32,6.71.57,10,1l9.92,1.29,9.79,1.61-22.53,128.65-6.31-1.05-6.28-.81c-2.09-.32-4.15-.43-6.23-.63l-3.11-.3c-1-.09-2.05-.11-3.08-.17-2.05-.08-4.12-.28-6.15-.29l-6.09-.1-6,.14c-1,0-2,.06-3,.14l-3,.19a156.69,156.69,0,0,0-44.9,9.62Z"/><path class="cls-7" d="M357.37,1956c3.29.5,6.47,1.21,9.7,1.84s6.45,1.28,9.6,2.06l9.49,2.27,9.36,2.54,6.19,1.69c1.1.24,2.18.51,3.21.67a37.34,37.34,0,0,0,5.8.55,26.93,26.93,0,0,0,9.65-1.55,31.17,31.17,0,0,0,9.09-5.17l81.91,101.73a162,162,0,0,1-47.59,26.62,157.67,157.67,0,0,1-54.45,9,167.07,167.07,0,0,1-26.68-2.46c-4.34-.72-8.56-1.67-12.76-2.69l-9.56-2.58-6.4-1.75-6.38-1.52c-2.13-.55-4.25-.92-6.37-1.36s-4.24-.92-6.34-1.21Z"/><path class="cls-8" d="M429.46,1960.86a49.08,49.08,0,0,0,9.29-10.23,67.28,67.28,0,0,0,4.3-7.17c.71-1.28,1.33-2.68,2-4s1.26-2.84,1.82-4.36c4.7-12,7.62-26.67,8.2-42.54l130.5,5.39c-.24,6.9-.84,13.89-1.57,20.9-.46,3.52-.83,7-1.42,10.57l-.84,5.3-1,5.33c-.31,1.77-.69,3.55-1.09,5.34s-.76,3.56-1.19,5.34c-.89,3.58-1.75,7.14-2.81,10.72s-2.17,7.16-3.32,10.74-2.48,7.15-3.93,10.73-2.94,7.13-4.5,10.68-3.34,7.09-5.22,10.61a195.91,195.91,0,0,1-12.54,20.77,179.37,179.37,0,0,1-34.78,37.65Z"/><path class="cls-3" d="M299.42,2793.33c10.23-3.37,20.23-6.68,29.86-10s19-6.78,27.75-10.31,17-7.17,24.33-10.92a133.18,133.18,0,0,0,18.53-11.23l78.17,104.64A262.82,262.82,0,0,1,441,2878.27c-12.07,6.19-23.78,11.3-35.19,15.88s-22.55,8.64-33.46,12.45-21.59,7.35-32,10.78Z"/><path class="cls-4" d="M399.89,2750.82a46.3,46.3,0,0,0,9.71-9.28c.2-.3.51-.58.67-.85a5.67,5.67,0,0,1,.45-.8c.09-.13.18-.25.28-.37a1.92,1.92,0,0,0,.15-.37,3.26,3.26,0,0,1,.37-.69l.12-.17c0-.06,0-.12.05-.18a3.57,3.57,0,0,1,.1-.35,3.52,3.52,0,0,1,.34-.67,3.8,3.8,0,0,1,.16-.76c0-.13.09-.25.15-.37s.06-.11.08-.18l0-.23a24.89,24.89,0,0,0,.55-4.24,18.56,18.56,0,0,0,0-2.91,24.55,24.55,0,0,0-.22-3.47c-.08-.64-.15-1.27-.21-1.91l0-.48,0-.25v-.12l0-.33-.42-3.3c-.29-2.2-.54-4.4-.7-6.64s-.37-4.45-.43-6.69a165.32,165.32,0,0,1,1-26.74l129.73,15.11a35.3,35.3,0,0,0-.21,5.86,14.28,14.28,0,0,0,.09,1.45c0,.48.09,1,.16,1.48l1.13,9.82c.52,4,.64,8.5.8,12.82s0,8.88-.18,13.4-.78,9.24-1.35,13.88c-.16,1.17-.31,2.33-.49,3.5l-.7,3.56q-.72,3.55-1.52,7.09l-.4,1.77-.5,1.77-1,3.54q-1.07,3.54-2.2,7-1.32,3.48-2.72,6.91l-1.42,3.43c-.24.57-.48,1.15-.73,1.71l-.81,1.65q-1.64,3.31-3.34,6.58c-.57,1.08-1.12,2.2-1.74,3.24l-1.87,3.1c-1.26,2.06-2.55,4.11-3.85,6.15s-2.72,3.84-4.11,5.75l-2.11,2.83c-.7.93-1.41,1.91-2.14,2.75q-2.19,2.61-4.43,5.18l-2.25,2.56c-.75.84-1.51,1.59-2.27,2.38l-4.62,4.66c-1.55,1.6-3.1,2.93-4.66,4.34l-4.71,4.16c-3.13,2.61-6.28,5.06-9.45,7.52Z"/><path class="cls-5" d="M412,2678.47a178.57,178.57,0,0,1,4.84-25.25,207.67,207.67,0,0,1,7.42-22.51,343.66,343.66,0,0,1,17.19-36.38c5.57-10.42,10.58-19.4,14.34-27a103.91,103.91,0,0,0,7.41-18.27l126.19,33.67a229.7,229.7,0,0,1-16.48,42.4c-5.88,11.88-11.53,21.88-16.2,30.67a221.93,221.93,0,0,0-10.83,22.57,61.31,61.31,0,0,0-4.15,15.25Z"/><path class="cls-6" d="M463.18,2549a34.26,34.26,0,0,0,1-5.5,21.54,21.54,0,0,0,0-4.09,25.35,25.35,0,0,0-.83-4.41,38.32,38.32,0,0,0-2.21-5.9,86.51,86.51,0,0,0-9.69-15.82c-2.13-2.92-4.67-5.94-7.24-9l-2.05-2.3-1-1.15-.52-.58-.42-.44-1.64-1.69a21.31,21.31,0,0,0-1.64-1.65l91-93.71c1.45,1.35,2.8,2.74,4.13,4.13l4,4.2,1,1,.85.94,1.69,1.9,3.37,3.8c4.48,5.24,8.91,10.59,13.23,16.44s8.55,12,12.59,18.58l3,5,2.89,5.28c1,1.73,1.88,3.62,2.8,5.46l1.36,2.77c.45.93.88,1.92,1.31,2.87a167,167,0,0,1,9.05,24.72,155.83,155.83,0,0,1,5.09,27.65,152.49,152.49,0,0,1-.09,28.51,164,164,0,0,1-4.84,26.58Z"/><path class="cls-7" d="M362.92,2474.71c-9.07.1-18.86.62-29.19,1.29L301,2478.24c-5.71.37-11.63.68-17.63,1s-12.19.45-18.56.48-12.85,0-19.45-.27-13.44-.7-20.41-1.46L238.41,2348c3.84.44,8,.65,12.15.87s8.61.23,13.19.17,9.28-.19,14.08-.37,9.82-.48,15-.81l32.44-2.22c11.39-.74,23.34-1.41,36-1.56Z"/><path class="cls-8" d="M225,2477.94c-6.92-.67-14.05-1.73-21.2-3s-14.46-2.93-21.78-5a225.28,225.28,0,0,1-21.86-7.33,216.62,216.62,0,0,1-59.95-36,246.38,246.38,0,0,1-31.11-31.81l101-82.76a115.65,115.65,0,0,0,14.44,14.86,83.59,83.59,0,0,0,15.33,10.4,84.67,84.67,0,0,0,8.29,3.85,94,94,0,0,0,9.09,3c3.13.94,6.55,1.63,10,2.33s7.21,1.18,11.13,1.55Z"/><path class="cls-3" d="M388.61,3284.7a96.05,96.05,0,0,0-8.8-4.71c-3.05-1.43-6.17-2.77-9.46-3.95a134.69,134.69,0,0,0-21.26-5.73c-15.24-2.93-32.74-3.86-51.86-3.56l-2-130.59c12.2-.18,24.82,0,37.89.83,6.53.43,13.15,1,19.87,1.83s13.54,1.86,20.42,3.16a265.1,265.1,0,0,1,41.69,11.35,236.78,236.78,0,0,1,40.64,19.31Z"/><path class="cls-4" d="M297.23,3266.75c-19.18.28-39.89,1.84-62.72,3.11-11.42.61-23.45,1.13-36.35,1.1a290.86,290.86,0,0,1-42-2.88l19.38-129.16a164,164,0,0,0,23.06,1.44c8.87,0,18.6-.36,28.91-.92,20.64-1.11,43.36-2.89,67.73-3.28Z"/><path class="cls-5" d="M156.12,3268.08a192.3,192.3,0,0,1-24-5.1,161.93,161.93,0,0,1-25.73-9.64,141.08,141.08,0,0,1-47.58-36.82,151.55,151.55,0,0,1-16.23-23.85,172.9,172.9,0,0,1-10.83-23.88A206.44,206.44,0,0,1,24.9,3146c-.93-3.73-1.64-7.32-2.39-10.95s-1.32-7.15-1.81-10.62l129.12-19.62c.26,1.92.62,3.66.92,5.47s.7,3.45,1.11,5a75.34,75.34,0,0,0,2.51,8.49,43.39,43.39,0,0,0,2.61,5.84,21.52,21.52,0,0,0,2.06,3.14,9,9,0,0,0,1.48,1.41,10.87,10.87,0,0,0,2.24,1.34,46.19,46.19,0,0,0,12.75,3.4Z"/><path class="cls-6" d="M20.7,3124.45a338.71,338.71,0,0,1-3.53-40.23l-.08-2.43,0-2.57v-10.35c0-1.73,0-3.45.12-5.22l.54-10.55.16-2.64.27-2.67.56-5.36c.62-7.1,2-14.37,3.18-21.56,1.6-7.26,3.11-14.49,5.36-21.73l1.6-5.41c.55-1.81,1.23-3.6,1.85-5.39l1.93-5.38c.64-1.78,1.28-3.57,2.06-5.33q2.23-5.3,4.55-10.56c1.68-3.46,3.42-6.89,5.17-10.31l115.41,61.13c-.69,1.44-1.42,2.85-2.16,4.27s-1.24,3-1.89,4.44a17.86,17.86,0,0,0-.87,2.28l-.82,2.32c-.27.77-.6,1.51-.83,2.31l-.68,2.43c-1,3.14-1.65,6.6-2.49,9.95-.49,3.56-1.28,7-1.54,10.74l-.3,2.76-.16,1.38-.07,1.44-.3,5.75a28.65,28.65,0,0,0-.05,2.94v6c0,.5,0,1,0,1.51l.06,1.65a210.31,210.31,0,0,0,2.11,24.79Z"/><path class="cls-7" d="M44.41,2956.76a236.74,236.74,0,0,1,56.38-69.4,308.15,308.15,0,0,1,33.53-24.69l8.53-5.3,8.55-4.93c1.43-.84,2.85-1.61,4.28-2.37l4.27-2.3c1.43-.75,2.86-1.55,4.28-2.27l4.26-2.15L227.24,2960a249.16,249.16,0,0,0-22.67,12.76,178.92,178.92,0,0,0-19,14l-2.09,1.82c-.68.61-1.44,1.19-2.05,1.83q-1.92,1.88-3.88,3.71-1.75,1.92-3.56,3.79c-.63.61-1.12,1.29-1.67,1.93l-1.63,1.93a101,101,0,0,0-10.83,16.14Z"/><path class="cls-8" d="M168.49,2843.35c11.38-5.73,22.73-10.87,33.93-15.51s22.32-8.94,33.28-12.92c21.89-7.94,43.28-14.86,63.72-21.59l40.85,124.05c-20.91,6.88-40.94,13.39-60,20.3s-37,14.18-53.05,22.33Z"/><path class="cls-3" d="M47.87,3869.11a207.31,207.31,0,0,1-11.41-46.26c-.3-1.94-.46-3.84-.65-5.76l-.52-5.74c-.31-3.82-.41-7.57-.58-11.36s0-7.46,0-11.19v-1.39l.08-1.6.18-3.19.42-6.37a169.07,169.07,0,0,1,12.78-51.45,173.12,173.12,0,0,1,27.56-44.25l99.52,84.58A42.21,42.21,0,0,0,168.3,3776a38.14,38.14,0,0,0-2.82,11.66c0,.59,0,1.18-.1,1.77l-.08.89-.05.44v.64c0,1.71,0,3.47,0,5.14s.11,3.34.25,4.94l.23,2.39a22.22,22.22,0,0,0,.26,2.35,76.64,76.64,0,0,0,4.14,17Z"/><path class="cls-4" d="M75.71,3680.55a213.63,213.63,0,0,1,34.29-32,297.32,297.32,0,0,1,35.29-22.7c23.35-12.72,46.18-22.25,68.36-30.49l45.53,122.41c-18.63,6.89-36,14.38-50.9,22.49a169.64,169.64,0,0,0-19.61,12.54,84.31,84.31,0,0,0-13.44,12.34Z"/><path class="cls-5" d="M340.08,3553.92c19.77-6.53,38.8-13.27,56.31-20.66,8.81-3.66,17.05-7.57,24.82-11.59a192.14,192.14,0,0,0,21.15-12.53l74.13,107.54a321.9,321.9,0,0,1-34.95,20.83c-11.55,6-23,11.35-34.31,16.06-22.61,9.53-44.68,17.26-66.25,24.38Z"/><path class="cls-6" d="M442.36,3509.14A110.5,110.5,0,0,0,458,3496.23a57.62,57.62,0,0,0,9.38-12.09,41.59,41.59,0,0,0,4.53-11.92c.09-.56.19-1.12.31-1.67a9.1,9.1,0,0,0,.3-1.71c.09-1.23.25-2.43.41-3.66,0-1.33,0-2.66.12-4a15.45,15.45,0,0,0-.06-2.13l-.09-2.19,130.42-6.94.24,6c0,2,.19,3.94.09,6q-.15,6.16-.42,12.32c-.37,4.18-.85,8.39-1.34,12.57-.2,2.08-.67,4.23-1,6.34l-1.22,6.35a172.64,172.64,0,0,1-18.53,48.88A188.18,188.18,0,0,1,551,3588a241.62,241.62,0,0,1-34.5,28.7Z"/><path class="cls-7" d="M472.94,3456.86a36.3,36.3,0,0,0-.39-4.6l-.24-2.37-.05-.6-.12-.63-.23-1.27-.88-5.16-1.54-7.22c-2.09-9.58-4.38-19-6.91-28.26a366.31,366.31,0,0,0-18.31-52.15l119.19-53.4a494.84,494.84,0,0,1,25,70.92c3.22,11.76,6.06,23.48,8.61,35.16L599,3416c.07.32.16.84.24,1.28l.25,1.38.49,2.75.94,5.51.47,2.75.22,1.38.17,1.44.64,5.74c.41,3.84.87,7.62,1,11.66Z"/><path class="cls-8" d="M444.27,3354.6a231.94,231.94,0,0,0-11.63-22.71,168.32,168.32,0,0,0-13.23-19.51,127.17,127.17,0,0,0-14.66-15.75c-2.56-2.29-5.18-4.41-7.86-6.42s-5.45-3.8-8.28-5.51l67.1-112.06c6.49,3.91,12.81,8.09,18.87,12.59s11.88,9.25,17.43,14.22a256.81,256.81,0,0,1,29.85,31.93,297.41,297.41,0,0,1,23.45,34.45,360.88,360.88,0,0,1,18.15,35.37Z"/><path class="cls-3" d="M273.81,4290.86c18.29-9.81,35.1-19.46,49.92-29.68a254.66,254.66,0,0,0,20.61-15.71,187.41,187.41,0,0,0,17.22-16.7l97.16,87.29a318.7,318.7,0,0,1-29.59,28.76,390.31,390.31,0,0,1-31.28,23.9c-21.05,14.49-42.14,26.4-62.2,37.18Z"/><path class="cls-4" d="M361.56,4228.77a212.26,212.26,0,0,0,15.2-19.2l3.39-5,3.15-5.1.8-1.28.72-1.29,1.45-2.6,1.47-2.58,1.32-2.63a144,144,0,0,0,14.36-42.37l128.91,21a274,274,0,0,1-27,80.93l-2.38,4.65-2.52,4.53-2.55,4.53-1.29,2.25-1.35,2.2c-1.8,2.93-3.6,5.87-5.44,8.77l-5.75,8.52a343.69,343.69,0,0,1-25.3,32Z"/><path class="cls-5" d="M403.42,4146.71a96.78,96.78,0,0,0-1-38.95,80,80,0,0,0-6.08-16.75,75,75,0,0,0-9.85-15l100.88-83a206.57,206.57,0,0,1,25.76,39.52A210.74,210.74,0,0,1,529.35,4077a227.46,227.46,0,0,1,3,90.71Z"/><path class="cls-6" d="M386.49,4076l-.92-1.18c-.31-.39-.69-.75-1-1.12-.69-.75-1.38-1.5-2.06-2.26a22.69,22.69,0,0,0-2.18-2.21l-2.25-2.2-.55-.56-.62-.52-1.24-1-2.45-2.13c-.81-.72-1.77-1.34-2.64-2l-1.33-1c-.2-.15-.36-.28-.53-.43,0,0,0,0,0,0h0l-.12-.05-.38-.19-1.16-.47-.61-.25-.75-.28-1.51-.57c-4.45-1.61-10.27-3.4-16.49-5.14s-13-3.52-19.9-5.29l-21.34-5.43L338.68,3915l21.5,5.47c7.35,1.89,14.88,3.85,22.82,6.08s16.25,4.71,25.66,8.09l3.66,1.37,1.84.7,1.95.79,3.94,1.64,4.51,2c1.64.75,3.3,1.62,4.93,2.45s3.26,1.71,4.84,2.65c3.23,1.78,6.25,3.89,9.31,5.93l6.54,4.95c1.9,1.48,3.83,2.87,5.69,4.44l5.56,4.76,2.76,2.39,1.38,1.2,1.33,1.28,5.33,5.15c1.77,1.72,3.54,3.44,5.21,5.31l5.05,5.54c.83.94,1.69,1.84,2.49,2.81l2.39,2.93Z"/><path class="cls-7" d="M306.39,4041.6c-21.49-5.47-44-11.46-66.84-18.86s-46.26-16.26-69.79-28.09L228.52,3878c15.38,7.75,32.82,14.48,51.31,20.49S318,3909.78,338.68,3915Z"/><path class="cls-8" d="M169.76,3994.65a336,336,0,0,1-35.18-20.4,261,261,0,0,1-34.08-27c-2.75-2.51-5.41-5.31-8.08-8-1.34-1.34-2.62-2.81-3.93-4.22s-2.6-2.83-3.86-4.32l-3.76-4.49L79,3923.94l-1.8-2.36-3.57-4.72c-1.18-1.59-2.29-3.26-3.43-4.9a205.66,205.66,0,0,1-12.46-20.65c-.93-1.79-1.8-3.63-2.69-5.44s-1.81-3.63-2.59-5.51l-2.38-5.59c-.39-.94-.79-1.87-1.16-2.81l-1.05-2.85,122.28-45.88.34,1c.13.32.28.63.42.95q.42,1,.81,1.92c.23.66.61,1.25.89,1.88s.59,1.26.91,1.88a73.87,73.87,0,0,0,4.42,7.27,84.33,84.33,0,0,0,12.22,14.12,130.19,130.19,0,0,0,17.06,13.46,206.36,206.36,0,0,0,21.3,12.3Z"/><path class="cls-3" d="M399.29,4818.36c.44-3.58.74-7.25.92-10.93s.16-7.36,0-11c0-.9-.11-1.79-.15-2.69s-.09-1.79-.18-2.66l-.23-2.64-.31-2.58-.15-1.29-.2-1.25-.39-2.5-.47-2.41-.23-1.21-.28-1.16-.53-2.32-.62-2.21-.29-1.1-.35-1.05-.66-2.09-.75-2-.35-1-.4-.92c-.27-.61-.53-1.22-.78-1.84l-.84-1.7a43.54,43.54,0,0,0-7.41-10.89l94.92-89.72a174.13,174.13,0,0,1,29.53,42.65c.92,1.87,1.84,3.75,2.72,5.64l2.43,5.66,1.19,2.84,1.07,2.84,2.1,5.69,1.84,5.67.9,2.84.79,2.83,1.55,5.66,1.32,5.63.65,2.82.55,2.8,1.07,5.6.88,5.56.43,2.78.34,2.77.65,5.53.49,5.49c.17,1.84.28,3.66.38,5.48s.22,3.64.28,5.45q.39,10.89-.07,21.66c-.34,7.2-.93,14.37-1.82,21.6Z"/><path class="cls-4" d="M384.68,4749a7.93,7.93,0,0,0-1.05-1c-.36-.34-.69-.7-1-1s-.77-.61-1.13-.93l-.55-.49a6.76,6.76,0,0,0-.61-.44c-.41-.28-.8-.58-1.19-.9l-.3-.23-.33-.2-.67-.4c-.44-.28-.85-.58-1.3-.87s-1-.5-1.45-.77a57.76,57.76,0,0,0-14.4-5.35c-.67-.22-1.48-.32-2.23-.48l-2.28-.46-.57-.12a3.72,3.72,0,0,0-.51-.1l-.78-.12c-.46-.09-1.16-.14-1.78-.23-2.6-.3-6.07-.5-10-.56-7.92-.13-17.64.29-28.16.85l-6.85-130.43c11.21-.57,23.25-1.2,37.1-1,6.94.12,14.36.45,22.57,1.37,2.09.25,4.1.47,6.32.82l3.26.51c.57.08,1,.18,1.49.27l1.43.28,5.73,1.14c1.91.4,3.79.74,5.74,1.27A188.34,188.34,0,0,1,437.61,4627a168.28,168.28,0,0,1,42,32.25Z"/><path class="cls-5" d="M314.34,4735.09c-10.54.55-22,1.24-34.32,1.56a363.75,363.75,0,0,1-39.74-.87,213.14,213.14,0,0,1-46.09-8.61,168,168,0,0,1-24.91-10A150.94,150.94,0,0,1,145,4702.07l79.31-103.77a20.12,20.12,0,0,0,3.39,2.06,37,37,0,0,0,5.38,2.12,83.76,83.76,0,0,0,18,3.14,236.22,236.22,0,0,0,25.52.47c9.48-.24,19.71-.84,30.91-1.43Z"/><path class="cls-6" d="M145,4702.07a149.25,149.25,0,0,1-21.23-19.85,155.68,155.68,0,0,1-16.53-22.57,180.73,180.73,0,0,1-11.72-23.23c-.83-1.94-1.51-3.83-2.26-5.75s-1.47-3.83-2.07-5.7l-1.88-5.67c-.58-1.87-1.1-3.71-1.64-5.58A257.17,257.17,0,0,1,79.5,4571a373.56,373.56,0,0,1-2.12-39.58l130.61-.37a243.45,243.45,0,0,0,1.33,25.6l.15,1.51.2,1.45.39,2.89c.11,1,.29,1.88.44,2.81l.46,2.76.54,2.62c.19.85.32,1.78.55,2.57.42,1.6.76,3.32,1.23,4.78l.65,2.25.7,2.08a19.25,19.25,0,0,0,.72,2c.25.61.45,1.31.71,1.86a49.87,49.87,0,0,0,2.95,5.91,24.11,24.11,0,0,0,2.72,3.75,18,18,0,0,0,2.55,2.43Z"/><path class="cls-7" d="M77.38,4531.44l.07-9.62.19-5.56.11-2.79.19-2.82.42-5.65c.15-1.88.4-3.81.61-5.71.39-3.79,1-7.66,1.63-11.51A203.34,203.34,0,0,1,86,4464.5c1.07-3.89,2.44-7.75,3.75-11.6,1.46-3.83,2.87-7.67,4.56-11.42s3.42-7.47,5.24-11.15c.94-1.82,1.93-3.62,2.91-5.42s2-3.57,3-5.31c2.06-3.54,4.29-6.92,6.53-10.29s4.61-6.6,7-9.7,4.93-6.15,7.45-9.15,5.12-5.81,7.76-8.5,5.29-5.35,8-8,5.39-5,8.11-7.35l85.83,98.45c-1.43,1.2-2.67,2.41-4,3.6s-2.48,2.39-3.57,3.58-2.18,2.38-3.25,3.54-2,2.35-2.85,3.53-1.71,2.34-2.56,3.49-1.55,2.32-2.21,3.5a19.44,19.44,0,0,0-1,1.76c-.31.6-.66,1.18-1,1.77-.57,1.21-1.2,2.39-1.69,3.63s-1,2.49-1.51,3.73-.92,2.56-1.26,3.94a73.5,73.5,0,0,0-1.95,8.52c-.22,1.53-.51,3-.65,4.65-.08.8-.21,1.57-.27,2.4l-.18,2.49c0,.42-.07.83-.09,1.25l0,1.3-.1,2.59,0,6.71Z"/><path class="cls-8" d="M150.34,4366.64c2.72-2.41,5.45-4.62,8.19-6.88s5.48-4.36,8.21-6.37c5.49-4.14,10.95-7.93,16.37-11.55,10.86-7.23,21.52-13.57,31.92-19.46,20.79-11.72,40.52-21.68,58.78-31.52l61.84,115c-20.07,10.79-39.2,20.49-56.33,30.17s-32.1,19.35-43.15,29Z"/><path id="Path_38" data-name="Path 38" class="cls-9" d="M421.1,377.64l22.67,90.93,96.64-10.45L513.56,440l50-74.16-66-44.51-50,74.15Z"/><g id="START" class="cls-10"><text class="cls-11" transform="translate(488.8 411.83) rotate(-55)">START</text></g><g id="Rectangle_187" data-name="Rectangle 187"><rect class="cls-1" x="372.91" y="4804.65" width="171.12" height="107.1"/><rect class="cls-12" x="374.76" y="4806.5" width="167.42" height="103.41"/></g><g id="END" class="cls-10"><text class="cls-13" transform="translate(433.59 4865.59)">END</text></g></svg>