<svg id="Layer_1" data-name="Layer 1" xmlns="http://www.w3.org/2000/svg" viewBox="0 0 1195.52 5532.34"><defs><style>.cls-1,.cls-12{fill:#fff;}.cls-2{fill:#60a353;}.cls-3{fill:#f388b2;}.cls-4{fill:#f3714a;}.cls-5{fill:#4f8ecb;}.cls-6{fill:#f1d54b;}.cls-7{fill:#93479b;}.cls-8{fill:#ef4043;}.cls-9{fill:none;stroke-width:3px;}.cls-12,.cls-9{stroke:#707071;}.cls-10,.cls-11{isolation:isolate;}.cls-11{font-size:16px;font-family:OpenSans-Bold, Open Sans;font-weight:700;letter-spacing:0.05em;}.cls-12{stroke-width:3px;}</style></defs><rect class="cls-1" x="56.73" y="69.92" width="1090.58" height="389.17"/><path class="cls-2" d="M1011.52,3774a220.72,220.72,0,0,0-19.37-14.91c-7.4-5.16-15.49-10.43-24-15.85s-17.52-11-26.88-17-19.09-12.44-29.28-19.9l74.57-101.63c6.76,5,14.57,10.16,22.87,15.49s17.19,10.87,26.36,16.71,18.73,12,28.56,18.88a347.74,347.74,0,0,1,30.47,23.62Z"/><path class="cls-3" d="M912,3706.3c-5.1-3.74-10.31-7.75-15.69-12.27-2.73-2.32-5.32-4.55-8.27-7.31q-2.5-2.44-5-4.93l-2.44-2.51L879.4,3678l-1.1-1.29q-2.22-2.58-4.38-5.21l-2.15-2.64c-.71-.88-1.3-1.76-1.95-2.64q-1.91-2.65-3.76-5.33c-.61-.89-1.28-1.8-1.81-2.68l-1.63-2.63-3.2-5.3-.78-1.33-.69-1.28-1.37-2.57-2.7-5.16c-.83-1.69-1.56-3.31-2.34-5a363.43,363.43,0,0,1-13.84-35.49c-3.56-10.41-6.58-19.41-9.59-27l117.23-46.32c4.71,11.94,8.31,22.89,11.57,32.35s6.17,17.43,8.9,23.26c.34.72.67,1.5,1,2.17l1,1.8.47.92.23.46.23.35c.31.48.6,1,.89,1.44l.42.74a5.62,5.62,0,0,0,.41.57q.42.54.78,1.11a6.31,6.31,0,0,0,.37.54l.37.39a8,8,0,0,1,.67.84l.15.22.18.14c.12.09.23.19.34.29a7.63,7.63,0,0,1,.59.67c.87.84,2.26,2,3.52,3.12,2.67,2.24,5.77,4.65,9.14,7.12Z"/><path class="cls-2" d="M944.52,2341.62l.61-2.57.32-1.29.23-1.33c.31-1.77.64-3.55,1-5.32.44-3.66,1.06-7.27,1.28-11.06.43-3.72.41-7.61.63-11.44l-.05-5.88c0-1,0-1.95,0-2.95l-.17-3c-.12-2-.14-4-.33-6l-.56-6.06-.14-1.52,0-.38-.06-.52-.12-1-.43-3.86-.84-7c-1.14-9.18-2.58-18.21-4.29-27.22l123.84-23.54c2.21,11.63,4.07,23.36,5.52,35l1,8.62.45,4,.2,2,.23,2.4.89,9.63c.29,3.22.38,6.5.57,9.74l.23,4.88c.08,1.63,0,3.29.08,4.93l0,9.88c-.26,6.67-.37,13.29-1.06,20-.46,6.69-1.46,13.47-2.39,20.22l-1.86,10.18-.48,2.54-.59,2.55-1.2,5.1Z"/><path class="cls-4" d="M941.53,2243.17c-6.87-36-18.19-71-34.18-102.15l112.21-57.43c2.86,5.43,5.42,11,8,16.46,1.3,2.76,2.48,5.55,3.72,8.32l1.83,4.17c.6,1.39,1.16,2.8,1.74,4.19,4.7,11.17,8.79,22.48,12.61,33.84a541,541,0,0,1,17.87,69.06Z"/><path class="cls-5" d="M907.35,2141c-1-1.93-2-3.94-3-5.82l-3.16-5.71-.79-1.43-.83-1.4-1.66-2.78-1.66-2.79c-.54-.94-1.1-1.86-1.7-2.75-2.34-3.6-4.59-7.28-7.09-10.72-1.23-1.74-2.4-3.54-3.67-5.24l-3.83-5.08c-.64-.84-1.25-1.71-1.91-2.54l-2-2.44-4-4.91-4.16-4.71c-1.39-1.56-2.73-3.18-4.21-4.64-2.91-3-5.72-6.08-8.79-8.87l-4.49-4.3-4.69-4.07,82.47-95.34,7.18,6.29,6.91,6.57c4.67,4.32,9,9,13.38,13.52,2.23,2.26,4.28,4.66,6.38,7s4.2,4.72,6.26,7.11l6,7.31,3,3.67c1,1.23,1.9,2.49,2.85,3.74l5.64,7.51c1.87,2.52,3.6,5.1,5.39,7.66,3.63,5.09,6.92,10.34,10.28,15.56q1.27,1.95,2.44,3.95l2.38,4,2.37,4,1.18,2,1.12,2,4.46,8.07c1.52,2.69,2.83,5.44,4.25,8.15Z"/><path class="cls-6" d="M845.69,2060.82c-1.54-1.33-3.16-2.84-4.58-3.92s-2.91-2.38-4.44-3.49l-2.26-1.7c-.77-.56-1.56-1.1-2.33-1.65l-2.34-1.64-2.4-1.58a189.43,189.43,0,0,0-20.5-11.6,264.69,264.69,0,0,0-47.76-17.36l32.53-121.78a389.49,389.49,0,0,1,70.45,25.82,315.07,315.07,0,0,1,34.31,19.45l4.17,2.75,4.12,2.88c1.37,1,2.74,1.92,4.1,2.91l4,3c2.71,2,5.33,4.13,8,6.25s5,4.19,7.42,6.29Z"/><path class="cls-7" d="M759.08,2017.88a476.43,476.43,0,0,0-54.5-10.81c-19-2.73-38.68-4.73-58.83-6.39l10.34-125.63c21.72,1.79,43.87,4,66.46,7.25a600.76,600.76,0,0,1,69.06,13.8Z"/><path class="cls-8" d="M645.75,2000.68c-40.35-3.34-82.51-5.24-126.36-9.27L531,1865.89c39.83,3.7,81.66,5.6,125.07,9.16Z"/><path class="cls-2" d="M519.39,1991.41c-21.94-2-44.34-4.63-67.22-8.5-11.44-1.94-23-4.2-34.68-6.92-5.83-1.37-11.69-2.83-17.57-4.44-2.95-.82-5.88-1.6-8.84-2.51l-8.27-2.49L420,1846.09l6.82,2.06c2.06.64,4.21,1.19,6.32,1.79,4.25,1.17,8.58,2.25,13,3.28,8.8,2,17.86,3.83,27.13,5.4,18.55,3.14,37.92,5.42,57.82,7.27Z"/><path class="cls-4" d="M382.81,1966.55c-19.22-5.92-39.5-11.72-60.54-18.27s-42.91-14-65.12-23.35l49.16-116.07c16.49,7,34.4,13.16,53.51,19.09s39.21,11.7,60.14,18.14Z"/><path class="cls-5" d="M257.15,1924.93c-22.19-9.41-44.87-20.8-66.57-35.84l-8.08-5.72-2-1.44-2-1.55-3.94-3.11c-2.63-2.1-5.22-4.13-7.86-6.31l-4.15-3.64c-1.37-1.22-2.76-2.43-4.06-3.7a237.34,237.34,0,0,1-28.57-32.29l101.64-74.56a110.46,110.46,0,0,0,13.12,14.86c.57.58,1.17,1.08,1.76,1.6l1.77,1.57,4.45,3.52,2.23,1.79,1.11.9,1.2.83,4.79,3.38c12.83,9,27.84,16.66,44.31,23.64Z"/><path class="cls-6" d="M129.93,1831.33a238.77,238.77,0,0,1-22.05-36.43,234.36,234.36,0,0,1-15.42-40.33,212.9,212.9,0,0,1-7.36-44.44,180.63,180.63,0,0,1,3.59-47.85L212,1688.49a54.8,54.8,0,0,0-1,14.81,86.78,86.78,0,0,0,3,17.62,113.81,113.81,0,0,0,17.63,35.85Z"/><path class="cls-7" d="M88.69,1662.28c.77-4,2-8.13,3-12.17.52-2,1.27-4,1.91-6s1.33-4,2.1-6l2.41-6,1.24-3,1.39-2.92,2.84-5.81c1-1.92,2.08-3.79,3.14-5.67a162.79,162.79,0,0,1,14.58-21.35c1.33-1.68,2.71-3.22,4.08-4.81s2.75-3.17,4.2-4.64l4.33-4.47c1.47-1.44,3-2.83,4.46-4.23l2.26-2.08,2.29-2c1.53-1.3,3.07-2.62,4.62-3.87,3.1-2.41,6.24-4.9,9.38-7a210,210,0,0,1,18.84-11.89l4.66-2.56c1.54-.83,3.06-1.59,4.6-2.38,3.09-1.62,6.05-3,9.09-4.44l4.44-2,2.22-1,2.17-.93,4.35-1.85,4.25-1.74,47.22,116.88-3,1.24-2.9,1.24-1.45.61-1.37.63-2.74,1.23c-1.69.84-3.51,1.64-5.06,2.48-.8.41-1.64.82-2.4,1.23l-2.24,1.24a83.4,83.4,0,0,0-7.81,4.91c-1.21.79-2.15,1.62-3.23,2.4l-1.41,1.2-.71.58-.62.61-1.27,1.18q-.56.62-1.14,1.2a10.09,10.09,0,0,0-1.08,1.2c-.33.41-.75.8-1,1.19a36.83,36.83,0,0,0-3.14,4.65c-.22.41-.5.78-.7,1.21s-.39.86-.6,1.28l-.34.62-.25.68c-.17.46-.36.9-.56,1.34s-.3,1-.47,1.43a13,13,0,0,0-.48,1.45c-.21,1-.61,2-.76,3.12Z"/><path class="cls-8" d="M211.58,1531.46c1.44-.59,2.83-1.13,4.2-1.67l4.15-1.62,8-3,15.28-5.57c9.73-3.52,18.82-6.83,26.78-10.15,4.08-1.65,7.72-3.33,11.29-5,1.66-.86,3.47-1.67,5-2.53l2.39-1.26,2.23-1.27c.77-.41,1.45-.84,2.13-1.27s1.41-.84,2.06-1.27c1.26-.87,2.58-1.67,3.78-2.59,2.47-1.73,4.95-3.79,7.5-6l83.26,94.64a217.34,217.34,0,0,1-17.13,13.66c-3,2.23-6.12,4.24-9.22,6.3-1.55,1-3.09,1.93-4.64,2.89s-3.1,1.9-4.63,2.75l-4.62,2.62-4.58,2.44c-3.07,1.66-6,3-9.07,4.56-5.94,2.8-11.86,5.47-17.52,7.77-2.89,1.23-5.62,2.27-8.44,3.41l-4.1,1.58-4.05,1.54-7.9,2.93-7.64,2.77-14.33,5.22-6.7,2.52-3.19,1.25c-1.07.41-2.12.83-3.12,1.24Z"/><path class="cls-2" d="M542.47,2828.54c-10.56,1.53-21.2,3.05-32,4.47-5.38.73-10.86,1.4-16.3,2.08s-11,1.32-16.55,1.88q-16.64,1.82-33.81,3c-11.41.81-23,1.3-34.79,1.49l-1.94-126c37-.55,76.3-5.67,117.26-11.62Z"/><path class="cls-4" d="M409,2841.46c-11.74.22-23.65,0-35.64-.59-6-.26-12-.75-18-1.21s-12.06-1.14-18.1-2-12.08-1.7-18.11-2.63c-6-1.1-12-2.11-18-3.44s-11.93-2.67-17.87-4.12l-1.11-.27-1.24-.34-2.49-.7-5-1.42-5-1.44c-1.63-.53-3.23-1.09-4.85-1.64l40-119.53,2.61.91,2.61.73,2.6.75,1.29.38.66.19.8.19c4.27,1,8.53,2.11,12.84,3s8.62,1.66,12.93,2.48c4.36.65,8.69,1.39,13.09,1.89s8.8,1,13.22,1.44,8.89.71,13.4.89c9,.46,18.1.63,27.37.45Z"/><path class="cls-5" d="M263.6,2821.69c-3.22-1.11-6.46-2.2-9.64-3.37l-9.38-3.77c-3.16-1.23-6.16-2.66-9.19-4.05l-4.54-2.1c-1.52-.7-3-1.41-4.48-2.19l-8.8-4.58-2.18-1.15-2.13-1.23-4.26-2.46c-5.74-3.22-11.15-6.81-16.63-10.33a342.17,342.17,0,0,1-30.86-23.27l-3.68-3.09c-1.23-1-2.38-2.13-3.58-3.2l-7.09-6.46c-2.32-2.19-4.57-4.45-6.84-6.69l-3.41-3.37c-1.12-1.12-2.19-2.31-3.29-3.46L224.89,2650c.71.74,1.39,1.52,2.12,2.25l2.21,2.16c1.48,1.44,2.92,2.92,4.41,4.33l4.57,4.15c.77.68,1.5,1.41,2.29,2.06l2.36,2a214.44,214.44,0,0,0,19.42,14.67c3.38,2.12,6.7,4.4,10.15,6.28l2.56,1.5,1.27.75,1.3.67,5.18,2.7c.86.48,1.73.88,2.6,1.26l2.62,1.2c1.74.8,3.46,1.67,5.22,2.31l5.23,2.12c1.75.64,3.5,1.19,5.24,1.81Z"/><path class="cls-6" d="M133.62,2736.92l-6.53-7c-2.13-2.38-4.2-4.81-6.29-7.22l-3.12-3.63c-1-1.21-2-2.48-3-3.72l-6-7.51c-1.92-2.55-3.8-5.15-5.69-7.73l-2.83-3.88c-.92-1.31-1.8-2.66-2.71-4l-5.35-8c-1.72-2.73-3.39-5.49-5.07-8.24l-2.51-4.14-2.38-4.25-4.7-8.52-4.38-8.77c-.72-1.47-1.46-2.92-2.15-4.4l-2-4.51c-1.32-3-2.69-6-4-9.06l-3.6-9.29c-1.24-3.06-2.27-6.27-3.33-9.45l-1.58-4.77c-.53-1.59-1-3.18-1.49-4.82l120.86-35.84a27.84,27.84,0,0,0,.83,2.7l.91,2.7c.6,1.8,1.14,3.62,1.9,5.41l2.08,5.41c.75,1.8,1.59,3.58,2.37,5.38l1.17,2.7c.42.89.89,1.77,1.33,2.66l2.64,5.34,2.93,5.26,1.45,2.64L195,2611l3.17,5.18,3.42,5.08c.57.85,1.11,1.71,1.7,2.54l1.83,2.48,3.63,5,3.86,4.83c.64.8,1.26,1.62,1.93,2.41l2,2.33c1.35,1.56,2.67,3.14,4,4.68l4.23,4.52Z"/><path class="cls-7" d="M55,2604l-2.71-9.79c-.22-.82-.46-1.63-.65-2.46l-.57-2.5-1.11-5c-1.6-6.62-2.57-13.54-3.69-20.37-.43-3.46-.78-7-1.15-10.44-.16-1.75-.39-3.48-.49-5.24l-.27-5.31-.24-5.32c-.07-1.77-.17-3.53-.12-5.33,0-3.59.09-7.17.17-10.76,0-1.78.15-3.59.29-5.4l.42-5.41.46-5.41c.16-1.81.48-3.62.72-5.43.53-3.61,1.05-7.23,1.65-10.83.76-3.6,1.53-7.2,2.34-10.79a214.38,214.38,0,0,1,14.49-41.81l114.27,53.22a88.82,88.82,0,0,0-6.1,17.62c-.31,1.54-.66,3.08-1,4.61s-.43,3.17-.68,4.75c-.11.79-.3,1.56-.35,2.38l-.17,2.44-.21,2.43a16.75,16.75,0,0,0-.13,2.47c0,1.66,0,3.33-.08,5a21.52,21.52,0,0,0,.06,2.53l.13,2.56.09,2.56c0,.86.19,1.73.28,2.6l.54,5.22c.67,3.53,1,7,2,10.62l.59,2.68.28,1.35c.1.44.25.89.37,1.34l1.5,5.4Z"/><path class="cls-8" d="M64.52,2436.4a227.41,227.41,0,0,1,22.1-37.49A246.34,246.34,0,0,1,114.31,2367a282.93,282.93,0,0,1,65.54-47.24l58.84,111.48a157.32,157.32,0,0,0-36.45,26.09,110.45,110.45,0,0,0-23.45,32.31Z"/><path class="cls-2" d="M179.85,2319.74A323,323,0,0,1,291.62,2285l4.9-.56,1.22-.13,1.07-.11,2.09-.19,8.38-.77q8.4-.73,16.89-1.31l8.55,125.76q-7.23.5-14.53,1.13l-7.31.67-1.83.17-.9.09-.73.09-2.93.34a197.13,197.13,0,0,0-23.42,4.25,194.9,194.9,0,0,0-44.38,16.76Z"/><path class="cls-4" d="M326.17,2282a681.08,681.08,0,0,1,69.41-1.42,464.87,464.87,0,0,1,72.45,7.87l-24,123.76a339.79,339.79,0,0,0-52.75-5.65,558.8,558.8,0,0,0-56.56,1.2Z"/><path class="cls-5" d="M468,2288.41a331.41,331.41,0,0,1,74.11,23.19A272.71,272.71,0,0,1,578,2331.19l4.34,2.83,4.26,3,6.8,4.83c3.29,2.42,6.74,4.67,10.19,6.92L535.75,2455c-5.36-3.47-10.69-7-15.88-10.78l-3.86-2.76-2.18-1.53-2.18-1.56-2.26-1.45a146.76,146.76,0,0,0-19.4-10.57,205.6,205.6,0,0,0-46-14.19Z"/><path class="cls-6" d="M700.67,2387.58c9.07,2.16,18.34,4.12,27.75,5.89s19,3.33,28.76,4.79c19.45,2.9,39.45,5.23,59.84,7.36L803.9,2531c-21.39-2.24-43.14-4.75-65.26-8-11-1.65-22.19-3.47-33.41-5.57s-22.53-4.48-33.89-7.19Z"/><path class="cls-3" d="M603.6,2348.77a265.88,265.88,0,0,0,45.32,22.86,391.78,391.78,0,0,0,51.75,15.95l-29.33,122.6a519,519,0,0,1-68.58-21.25,392.73,392.73,0,0,1-67-33.92Z"/><path class="cls-7" d="M817,2405.62q15.32,1.61,30.88,3.09l1,.1.48.05.34,0,1.32.08,2.63.18c.87.06,1.75.15,2.62.19l2.56,0c3.46.16,6.77-.07,10.07-.19a86.53,86.53,0,0,0,34.71-9.59l59.77,111a205.24,205.24,0,0,1-42.21,16.91,219.87,219.87,0,0,1-43.5,7.45c-7.17.39-14.37.7-21.42.47l-5.31-.12c-1.76-.07-3.49-.21-5.24-.32l-5.23-.38-2.61-.19-.65-.05-.49,0-1-.1c-10.51-1-21.14-2.07-31.83-3.19Z"/><path class="cls-8" d="M903.61,2399.58A73.09,73.09,0,0,0,928.94,2377a94.85,94.85,0,0,0,9.19-16.17,115.84,115.84,0,0,0,6.39-19.22L1067,2371.29a240.85,240.85,0,0,1-13.58,40.46,220.31,220.31,0,0,1-21.93,38.51,203.49,203.49,0,0,1-30.4,33.93,194.54,194.54,0,0,1-37.74,26.37Z"/><path class="cls-2" d="M410.6,3040.49c5.57,1.86,10.9,3.81,16.27,5.75l7.9,2.94,7.75,3c10.25,3.94,20.22,7.91,29.8,11.68s19,7.44,28.06,10.75c4.56,1.66,9,3.16,13.57,4.75,2.26.77,4.49,1.61,6.79,2.33l6.89,2.17L489.4,3203.93l-8.13-2.58c-2.71-.85-5.41-1.85-8.11-2.77-5.39-1.88-10.87-3.73-16.18-5.67-10.67-3.9-20.84-7.89-30.8-11.79s-19.52-7.72-28.88-11.32l-7-2.66-6.87-2.56c-4.51-1.61-9-3.29-13.44-4.74Z"/><path class="cls-4" d="M527.63,3083.81c9.12,3,18.49,5.59,27.79,8.29l14.12,3.69c2.35.6,4.69,1.26,7.07,1.81l7.12,1.66,7.12,1.67c2.37.56,4.75,1.12,7.15,1.59l14.34,3c2.39.53,4.79.94,7.2,1.38l7.21,1.32,7.2,1.32c2.41.44,4.83.77,7.24,1.17l-20.25,124.41c-2.77-.45-5.56-.84-8.32-1.34l-8.29-1.52-8.29-1.51c-2.77-.51-5.53-1-8.28-1.6l-16.51-3.43c-2.75-.55-5.49-1.19-8.23-1.84L554.8,3222l-8.22-1.93c-2.74-.63-5.47-1.39-8.2-2.09L522,3213.65c-10.88-3.14-21.77-6.16-32.61-9.72Z"/><path class="cls-5" d="M641.19,3110.7l14.46,2.27,14.5,1.92c2.42.3,4.83.68,7.25.92l7.25.76,7.25.77c2.42.27,4.83.53,7.25.69l14.47,1.15c2.42.22,4.82.31,7.22.44l7.22.37,7.21.37c2.4.1,4.78.11,7.18.18,4.77.08,9.57.25,14.32.27l-.52,126.06c-5.74,0-11.45-.22-17.17-.32-2.86-.08-5.73-.11-8.58-.22l-8.53-.43-8.52-.44c-2.84-.15-5.69-.27-8.5-.52L688,3243.59c-2.83-.2-5.64-.49-8.44-.8l-8.42-.89-8.42-.9c-2.81-.27-5.59-.7-8.38-1.05l-16.75-2.22-16.66-2.62Z"/><path class="cls-6" d="M756.77,3120.81c19,.06,37.78-.89,56-2.63a408.89,408.89,0,0,0,53.71-9.36l30,122.44a534.59,534.59,0,0,1-70.39,12.27,694,694,0,0,1-69.84,3.34Z"/><path class="cls-7" d="M866.5,3108.82a337.22,337.22,0,0,0,50.39-16.43,235.22,235.22,0,0,0,43.58-23.66l72.22,103.32a361.15,361.15,0,0,1-66.91,36.53,463.31,463.31,0,0,1-69.3,22.68Z"/><path class="cls-8" d="M960.47,3068.73a159,159,0,0,0,33.12-30.43,128.91,128.91,0,0,0,20.69-36.71l118.48,43a255.25,255.25,0,0,1-40.91,72.61,284.46,284.46,0,0,1-59.16,54.8Z"/><path class="cls-2" d="M1014.28,3001.59a150.24,150.24,0,0,0,8.55-43.59,209.17,209.17,0,0,0-.13-24.12c-.16-2.07-.22-4.11-.45-6.21l-.61-6.26c-.56-4.22-1-8.43-1.78-12.7l124.46-20c1,6.09,1.8,12.31,2.58,18.51l.92,9.42c.32,3.13.47,6.34.7,9.51a335.6,335.6,0,0,1,.17,38.87,276.18,276.18,0,0,1-15.93,79.6Z"/><path class="cls-4" d="M1019.86,2908.71l-.12-.74v-.1h0s0,0,0,0a.84.84,0,0,1-.07-.24l-.78-2.76c-.29-1-.52-2-.85-2.92l-1.84-5.72c-.61-1.91-1.35-3.7-2-5.56a170.78,170.78,0,0,0-9.33-20.74,127.31,127.31,0,0,0-25.63-33.19l85.22-92.88A246,246,0,0,1,1093,2775a262.67,262.67,0,0,1,22.66,34.84,297,297,0,0,1,16.57,36.65c1.12,3.08,2.32,6.17,3.33,9.26l3,9.28c.51,1.55.9,3.09,1.35,4.64l1.37,4.82,1,3.55.53,1.88.26,1,.16,1,1.1,6.92Z"/><path class="cls-5" d="M979.21,2836.7a131.37,131.37,0,0,0-35.7-23,202.18,202.18,0,0,0-45.89-13.71l22.75-124a327.81,327.81,0,0,1,74.51,22.59,269.79,269.79,0,0,1,36.2,19.54,249.71,249.71,0,0,1,33.35,25.74Z"/><path class="cls-6" d="M897.62,2799.94a342,342,0,0,0-52.86-5.12c-18.39-.46-37.36.21-56.7,1.65l-9.41-125.7c22.57-1.68,45.63-2.55,69.25-2a467.14,467.14,0,0,1,72.47,7.15Z"/><path class="cls-7" d="M788.06,2796.47c-19.34,1.45-39,3.68-59.18,6.32s-40.64,5.73-62.81,8.55l-15.65-125.08c19.51-2.47,40.62-5.65,62.08-8.45s43.6-5.35,66.15-7Z"/><path class="cls-8" d="M666.07,2811.34l-15.75,1.92-15.14,1.92q-15.2,2-30.5,4.21l-62.21,9.15L524.32,2703.8l62.5-9.2c10.57-1.52,21.25-3,31.94-4.4l16.12-2,15.54-1.89Z"/><path class="cls-4" d="M828.11,3572.49a121.32,121.32,0,0,0-9-18.65,57.88,57.88,0,0,0-9.43-11.92,24.42,24.42,0,0,0-2.66-2.4c-.48-.37-.95-.76-1.42-1.15a10.53,10.53,0,0,0-1.46-1.14c-1.09-.7-2.14-1.43-3.18-2.2s-2.41-1.34-3.58-2.06a33.18,33.18,0,0,0-3.91-2,37.14,37.14,0,0,0-4.2-1.93c-1.52-.59-3-1.2-4.54-1.83l-.56-.24-.63-.2-1.26-.39-2.51-.81,38.59-120,5,1.63,2.49.83,1.24.41,1.27.5q5.05,2,10.09,4c3.34,1.27,6.75,3,10.12,4.62s6.73,3.19,10.09,5.22a179.87,179.87,0,0,1,38.37,28.2,185,185,0,0,1,29.73,37.2,245.61,245.61,0,0,1,18.56,38Z"/><path class="cls-5" d="M779.81,3525.58c-13.44-4.35-29.9-7.2-47.5-8.53-.58-.07-1-.05-1.42-.07l-1.32-.05-2.65-.11-2.65-.13c-.44,0-.88-.07-1.33-.06l-1.34,0c-3.58.14-7.14,0-10.8.48-1.83.18-3.64.26-5.48.47l-5.57.82-2.79.38-2.84.59-5.7,1.13-27.55-123,9.76-2,4.89-1,5-.74,10-1.43c3.37-.39,6.81-.63,10.21-.93,6.79-.72,13.75-.74,20.67-.89l2.59,0c.87,0,1.74.05,2.61.08l5.23.21,5.22.23,2.61.13c.85,0,1.79.07,2.51.16l18.4,1.83c6.28.91,12.51,1.76,18.82,2.8l9.6,1.9c3.21.67,6.36,1.22,9.67,2.12,6.55,1.71,13,3.22,19.71,5.54Z"/><path class="cls-6" d="M688.42,3520.55C673.1,3524,657,3529.74,640.25,3537s-34.08,16.22-52.06,25.79l-59.27-111.25c19.11-10.15,39.13-20.55,60.9-30.07s45.37-18.1,71-23.91Z"/><path class="cls-7" d="M588.19,3562.77c-18,9.57-36.73,19.93-56.64,30.09-9.89,5.1-20.28,10.11-30.86,15l-8.11,3.59c-2.73,1.18-5.38,2.4-8.22,3.52-5.62,2.27-11.12,4.6-17,6.68l-43.83-118.19c4-1.4,8.2-3.2,12.33-4.85,2.06-.79,4.17-1.79,6.26-2.69l6.3-2.77c8.49-3.94,17-8,25.82-12.57,17.52-8.93,35.55-18.87,54.67-29.06Z"/><path class="cls-8" d="M467.37,3621.65l-8.71,3.17-9,2.94-4.5,1.45c-1.51.47-3.08.88-4.62,1.33l-9.29,2.58c-1.53.45-3.14.8-4.74,1.17l-4.79,1.1-4.79,1.09-2.4.53c-.8.17-1.63.31-2.45.46-6.59,1.12-13.07,2.44-19.86,3.12-3.36.39-6.72.79-10.1,1.14l-10.26.61-5.14.27c-1.71.1-3.45,0-5.18,0l-10.37-.08c-.87,0-1.72,0-2.61,0l-2.74-.16-5.48-.33c-3.64-.29-7.26-.7-10.89-1.1s-7.21-1-10.77-1.64-7.14-1.28-10.64-2.14l27.6-123c1.6.42,3.21.63,4.8,1s3.21.46,4.8.74,3.19.34,4.79.47l2.38.14,1.2.08c.42,0,.89,0,1.33,0,1.79,0,3.59,0,5.38,0,.9,0,1.79.08,2.7,0l2.73-.17,5.46-.29,5.55-.67c3.68-.28,7.5-1.17,11.27-1.75.48-.09.95-.15,1.42-.25l1.45-.34,2.88-.67,2.89-.65c1-.22,1.93-.41,2.91-.71l5.89-1.65c1-.29,2-.52,3-.84l3-1,6-1.94,6.09-2.24Z"/><path class="cls-2" d="M308.06,3637.17a242.22,242.22,0,0,1-40.68-13.05,261.41,261.41,0,0,1-36.88-19.28,287.53,287.53,0,0,1-61.34-52l94-84.05c20.64,23.18,46.92,39.86,72.55,45.43Z"/><path class="cls-4" d="M169.16,3552.8a306.05,306.05,0,0,1-44.71-65.33c-.79-1.48-1.47-2.93-2.15-4.38l-2.06-4.36c-1.36-2.91-2.75-5.82-4.06-8.74l-3.66-8.85c-1.2-2.95-2.49-5.9-3.51-8.88l-3.22-8.94c-.52-1.5-1.09-3-1.57-4.48l-1.41-4.5-2.79-9c-.93-3-1.65-6-2.48-9l121.78-32.54c.57,2,1.05,4.16,1.68,6.18l1.89,6,.93,3c.32,1,.71,2,1.05,2.95l2.12,5.89c.65,2,1.51,3.85,2.29,5.76l2.34,5.72c.84,1.86,1.74,3.69,2.6,5.54l1.29,2.77c.43.93.86,1.87,1.31,2.69a180,180,0,0,0,26.29,38.4Z"/><path class="cls-5" d="M97.54,3416.32a452.47,452.47,0,0,1-12.91-72A611.61,611.61,0,0,1,82,3274l126,2.24a486.39,486.39,0,0,0,2,55.58,328.33,328.33,0,0,0,9.26,52Z"/><path class="cls-6" d="M82,3274c.17-11.54.72-23,1.38-34.3s1.69-23.32,3.35-35.78A306.79,306.79,0,0,1,94.37,3165a220.14,220.14,0,0,1,15.45-41.29L222.6,3180a95.25,95.25,0,0,0-6.49,17.67,181.46,181.46,0,0,0-4.43,22.91c-1.12,8.36-1.9,17.41-2.49,27s-1,19.21-1.15,28.67Z"/><path class="cls-7" d="M109.82,3123.73a178.23,178.23,0,0,1,27-40,168.87,168.87,0,0,1,17.62-17.08,180.69,180.69,0,0,1,19.34-14.22,204.89,204.89,0,0,1,20.35-11.36,219.74,219.74,0,0,1,20.85-8.65A232.48,232.48,0,0,1,256.9,3022l19.33,124.56c-13.7,2.1-25.83,6.47-34.55,12.13a56.63,56.63,0,0,0-6,4.43,42.32,42.32,0,0,0-5,4.83A52.48,52.48,0,0,0,222.6,3180Z"/><path class="cls-8" d="M256.9,3022c7-1.11,13.9-1.84,20.81-2.35s13.78-.71,20.64-.67,13.67.33,20.46.89c3.4.25,6.79.64,10.18,1l5.08.66,1.26.17,1.21.19,2.39.38a357.67,357.67,0,0,1,37.21,7.81l4.47,1.19c1.49.39,3,.79,4.41,1.23l8.72,2.56c5.67,1.79,11.39,3.57,16.86,5.47L370,3159.84c-4.45-1.56-8.77-2.88-13.11-4.27l-6.4-1.88c-1.08-.32-2.13-.61-3.18-.88l-3.14-.83a228.62,228.62,0,0,0-24.45-5.16l-1.49-.25-.74-.12-.68-.09-2.74-.36c-1.83-.18-3.66-.41-5.5-.54-3.67-.3-7.36-.47-11-.48s-7.29.07-10.85.35-7.09.62-10.5,1.18Z"/><path class="cls-2" d="M135.13,4400.67a246.28,246.28,0,0,1-31.81-28.5A277.65,277.65,0,0,1,77.71,4340a291.51,291.51,0,0,1-20.13-34.34c-1.47-2.92-3-5.84-4.27-8.8s-2.72-5.91-4-8.87L45.63,4279c-1.22-3-2.27-6-3.4-9l118.41-43.24c11.2,30.83,28.9,57.55,49.87,72.86Z"/><path class="cls-4" d="M42.23,4270a354.29,354.29,0,0,1-11.16-36.4c-.82-3.05-1.49-6.12-2.17-9.19s-1.42-6.14-2-9.22L25.18,4206l-1.46-9.28c-.52-3.09-.87-6.2-1.27-9.31s-.8-6.2-1.05-9.32l-.86-9.35-.57-9.37c-.23-3.14-.26-6.17-.37-9.26s-.2-6.14-.19-9.23,0-6.18,0-9.28l.23-9.31,126,4.6-.17,6.44c0,2.15,0,4.32,0,6.48s.06,4.34.13,6.52.09,4.39.26,6.48l.39,6.36.58,6.34c.16,2.12.47,4.22.72,6.33s.49,4.22.86,6.31l1,6.29,1.19,6.23c.35,2.09.88,4.12,1.32,6.18s.89,4.13,1.45,6.14a227.89,227.89,0,0,0,7.3,23.83Z"/><path class="cls-5" d="M19.65,4122.25c.49-12.44,1.52-25,3.17-37.52A360.73,360.73,0,0,1,30,4047c.82-3.14,1.57-6.28,2.47-9.42l2.78-9.39c1-3.12,2.07-6.23,3.11-9.35l.8-2.33.87-2.33,1.76-4.64a297,297,0,0,1,16.91-36.41l110.31,61c-14.44,26.17-22.27,58.48-23.42,92.73Z"/><path class="cls-6" d="M58.74,3973.12A263,263,0,0,1,141,3882.17l4.26-2.89,2.13-1.43,2.18-1.35c2.91-1.8,5.81-3.59,8.74-5.34l8.91-4.94c1.48-.84,3-1.6,4.5-2.34l4.53-2.25,55.34,113.26-2.53,1.25a27.71,27.71,0,0,0-2.48,1.29l-4.88,2.68L217,3983l-1.18.72-1.12.77-2.26,1.54a143.08,143.08,0,0,0-16.85,13.57,144.75,144.75,0,0,0-26.51,34.52Z"/><path class="cls-7" d="M176.22,3861.63c1.52-.74,3-1.5,4.55-2.22l4.59-2,4.6-2,2.3-1,2.31-.92,9.29-3.61c3-1.09,6-2.09,9-3.12a377,377,0,0,1,36.49-10.32,432.37,432.37,0,0,1,73.25-9.79l6.26,125.9a306.6,306.6,0,0,0-51.56,6.8c-8.18,2-16.29,4.09-24.11,6.84l-5.87,2-5.39,2.11-1.35.52-1.31.58-2.61,1.16-2.61,1.14-2.53,1.26Z"/><path class="cls-8" d="M322.64,3826.58c3-.21,6-.27,9-.35l9-.25h8.9c3,0,5.95,0,8.87.08,5.86.16,11.77.24,17.55.58l8.72.44,8.62.6c23,1.66,45.31,4.35,67.08,7.51l-18,124.76c-19.82-2.88-39.22-5.18-58.16-6.54l-7.1-.5-7-.35c-4.71-.29-9.3-.32-13.94-.47-2.32-.09-4.59,0-6.88,0h-6.86l-6.76.2c-2.26.06-4.52.09-6.73.26Z"/><path class="cls-2" d="M460.38,3835.18c43.55,6.32,85,14.33,125,20.53l-19.36,124.56c-43-6.71-84.09-14.61-123.71-20.33Z"/><path class="cls-4" d="M585.43,3855.71c20,3.1,39.66,5.84,58.85,7.64,9.63.93,19,1.65,28.57,2.13s19.22.75,28.9.84l-1.16,126q-17-.15-34.1-1c-11.4-.56-23-1.46-34.27-2.54-22.65-2.14-44.63-5.23-66.15-8.56Z"/><path class="cls-5" d="M701.75,3866.32A832.36,832.36,0,0,0,818.51,3859l16.73,124.94a957.5,957.5,0,0,1-134.65,8.46Z"/><path class="cls-6" d="M818.51,3859c19.31-2.58,38.45-5.85,57.2-9.88a557.6,557.6,0,0,0,54.65-14.52l39,119.88a683.62,683.62,0,0,1-67.12,17.88c-22.33,4.79-44.64,8.59-67,11.58Z"/><path class="cls-7" d="M930.36,3834.57c8.75-2.85,17.29-5.93,25.51-9.25s16.11-6.86,23.46-10.65c3.72-1.87,7.2-3.85,10.63-5.82,1.63-1,3.36-2,4.92-3l2.37-1.52,2.28-1.54c3-2.07,5.81-4.14,8.28-6.21,1.31-1,2.4-2.06,3.58-3.07s2.18-2,3.1-3l90,88.28c-2.71,2.82-5.46,5.37-8.23,7.95s-5.56,5-8.36,7.21c-5.61,4.64-11.25,8.79-16.91,12.7l-4.25,2.88-4.25,2.73c-2.84,1.85-5.67,3.49-8.51,5.22-5.66,3.3-11.34,6.47-17,9.34-11.33,5.83-22.63,10.89-33.89,15.43s-22.51,8.57-33.73,12.23Z"/><path class="cls-8" d="M1014.49,3790.48a50.81,50.81,0,0,0,4.8-5.53c.38-.44.58-.82.87-1.21l.42-.57c0-.05,0,0,0,0l0,0h0s-.16-.17-.22-.26a3.65,3.65,0,0,1-.24-.31l-.59-.67-.58-.68-.68-.72a92.48,92.48,0,0,0-6.76-6.51l83.28-94.63c5.23,4.61,10.54,9.65,15.88,15.39l2,2.17,2,2.28,2,2.31,2.24,2.76c.75.94,1.46,1.81,2.23,2.82l2.35,3.16c1.57,2.11,3,4.29,4.47,6.48,11.53,17.51,18.76,37.69,20.12,58.4a115.26,115.26,0,0,1-2.29,30.94,126.59,126.59,0,0,1-10.25,29.49,148.75,148.75,0,0,1-7.65,13.74l-2.1,3.3-1.83,2.66c-1.23,1.76-2.47,3.57-3.73,5.19a174.67,174.67,0,0,1-15.77,18.3Z"/><path class="cls-7" d="M972.63,4490.8c.33-1.41.77-2.8,1-4.21l.42-2.11c.16-.7.19-1.41.31-2.12l.31-2.11.22-2.71c.14-1.81.35-3.65.47-5.43a122.09,122.09,0,0,0-.62-19.87c-.25-1.48-.48-3-.67-4.47s-.66-2.81-.94-4.23l-.21-1.06-.32-1-.59-2a20.66,20.66,0,0,0-.59-2c-.25-.62-.49-1.25-.72-1.88a64.39,64.39,0,0,0-7.27-14l103.65-71.74a190.38,190.38,0,0,1,21.73,41.73l2,5.51c.67,1.84,1.16,3.7,1.73,5.55l1.63,5.57.8,2.79.64,2.79c.84,3.71,1.7,7.45,2.42,11.16s1.17,7.4,1.71,11.11a246.66,246.66,0,0,1,1.46,43c-.22,3.45-.54,6.84-.83,10.26l-.48,5.15-.77,5.68c-.28,1.9-.51,3.8-.86,5.68l-1.08,5.62c-.68,3.77-1.65,7.45-2.58,11.14Z"/><path class="cls-3" d="M922.06,4558.85c13.17-10.72,24.6-22.15,33.25-33.74a118.13,118.13,0,0,0,10.86-17.31,86.23,86.23,0,0,0,6.46-17l122,31.86a211.82,211.82,0,0,1-15.83,41.82,243.75,243.75,0,0,1-22.47,36.08c-16.55,22.09-35.35,40.3-54.73,56.11Z"/><path class="cls-8" d="M963.4,4421.62a69.74,69.74,0,0,0-11.3-12.7,109,109,0,0,0-15.88-11.73l-2.29-1.37c-.77-.46-1.5-.94-2.34-1.36l-4.88-2.63-5.15-2.49-1.29-.63-1.36-.58-2.7-1.18-2.71-1.18-2.82-1.1c-1.91-.71-3.71-1.52-5.7-2.17l-5.86-2.07-6-1.9L930,4258l9,2.84,9,3.16c3,1,6,2.28,9,3.44l4.51,1.78,4.52,1.94,4.51,2,2.26,1,2.26,1.08,9,4.38,9,4.84c1.5.78,3,1.7,4.48,2.58l4.47,2.68a235,235,0,0,1,34.65,25.77,196.31,196.31,0,0,1,30.34,34.41Z"/><path class="cls-2" d="M893.08,4378.53A353.33,353.33,0,0,0,841,4367.2l-3.41-.51-3.46-.43-6.92-.88c-4.67-.47-9.29-1-14-1.4-9.37-.88-18.91-1.42-28.47-1.86l5.24-125.94c11.42.51,22.87,1.16,34.41,2.24,5.75.45,11.55,1.14,17.34,1.74l8.71,1.1,4.36.56,4.38.64A476.71,476.71,0,0,1,930,4258Z"/><path class="cls-4" d="M784.67,4362.12c-19.18-.76-38.61-.79-58.17-.07s-39.23,2.06-58.88,4L655.19,4240.6c22.16-2.18,44.42-3.76,66.86-4.53s45.05-.81,67.86.11Z"/><path class="cls-5" d="M667.62,4366a990.23,990.23,0,0,0-116.83,18.6l-27.59-123c22-4.93,43.86-9,65.83-12.52q16.49-2.61,33-4.74c11-1.44,22.08-2.67,33.15-3.78Z"/><path class="cls-6" d="M550.79,4384.64c-9.52,2.13-19,4.41-28.18,6.88-4.61,1.23-9.19,2.5-13.67,3.82-2.16.61-4.72,1.39-7.18,2.13l-7.41,2.23c-19.86,6-40.29,12.33-61.47,18.32l-34.34-121.29c19.25-5.44,39-11.53,59.33-17.69l7.68-2.31,7.92-2.35c5.6-1.65,11.14-3.18,16.68-4.67,11.07-3,22.07-5.61,33.05-8.07Z"/><path class="cls-7" d="M432.88,4418c-21.18,6-43.11,11.66-66,16.23a505.47,505.47,0,0,1-71.35,9.42l-6.89-125.87c34.62-1.89,71.41-10.16,109.88-21.07Z"/><path class="cls-8" d="M295.55,4443.67l-4.61.28-4.67.11-9.35.22c-3.1.12-6.27,0-9.41-.06l-9.45-.22-1.18,0h-.6l-.67-.05-2.72-.19-5.43-.41c-1.81-.14-3.62-.28-5.43-.45l-5.46-.73-5.44-.77-2.73-.4-2.71-.53q-5.44-1.08-10.86-2.24a218.13,218.13,0,0,1-79.7-37.52l75.38-101,2,1.44a22,22,0,0,0,2,1.38c1.34.84,2.67,1.72,4,2.59s2.74,1.51,4.09,2.3a21.16,21.16,0,0,0,2.07,1l2.08,1a95.45,95.45,0,0,0,17.33,6.14c1.53.28,3.06.59,4.58.92l1.14.25,1.18.15,2.35.31,2.35.36,2.43.16,2.42.19,1.21.11.31,0h1.17l6.31.13c2.1,0,4.19.16,6.34,0l6.41-.16,3.2-.06,3.25-.21Z"/><path class="cls-2" d="M498.6,4676.77c18.78,3.54,36.85,6.08,53.1,6.67a162.82,162.82,0,0,0,22.57-.6l1.3-.12,1.79-.21,3.58-.44,7.19-.92q7.2-1,14.44-2.08l19.06,124.61q-8.34,1.27-16.76,2.41l-8.44,1.08-4.24.52-2.12.25-2.62.26a285.77,285.77,0,0,1-40.37,1.21c-25.77-1-49.39-4.57-71.89-8.78Z"/><path class="cls-4" d="M602.57,4679.07A966.59,966.59,0,0,0,718,4653.81l34.39,121.28a1092.53,1092.53,0,0,1-130.73,28.59Z"/><path class="cls-5" d="M718,4653.81c37.9-10.78,75-23.76,109.94-39.39l51.61,115c-41.81,18.7-84.26,33.43-127.16,45.66Z"/><path class="cls-6" d="M827.91,4614.42a540.91,540.91,0,0,0,50.17-25.59,351.34,351.34,0,0,0,44-30l79.5,97.82a476,476,0,0,1-60,41.06,663.49,663.49,0,0,1-62,31.7Z"/><path class="cls-2" d="M986.47,5101.41a203.9,203.9,0,0,0-39.21-27.76,220.78,220.78,0,0,0-45.39-18.24L936,4934.07a346.17,346.17,0,0,1,71.3,28.75,329.83,329.83,0,0,1,63.47,44.87Z"/><path class="cls-4" d="M901.87,5055.41c-32.06-9.11-67.52-11.58-103.83-9.27L790,4920.34a491.13,491.13,0,0,1,72.42.56,392.66,392.66,0,0,1,73.6,13.17Z"/><path class="cls-5" d="M798,5046.14l-6.83.47-3.41.23c-1.14.11-2.29.25-3.43.37l-13.75,1.49-13.82,2-3.45.5-3.47.62-6.93,1.27-6.94,1.26c-2.31.43-4.62,1-6.94,1.48-4.63,1-9.26,2-13.89,3.06l-13.9,3.49-3.47.86c-1.16.3-2.32.65-3.47,1l-6.94,2L653,4944.94l8.21-2.32c1.38-.38,2.74-.79,4.12-1.15l4.17-1.05,16.67-4.18c5.59-1.32,11.25-2.48,16.88-3.72,2.83-.6,5.62-1.26,8.47-1.8l8.57-1.56,8.57-1.56,4.29-.77,4.34-.64,17.36-2.53,17.58-1.92,4.4-.46,4.45-.32,8.89-.62Z"/><path class="cls-6" d="M687.4,5066.22c-37,10.38-73.83,24.36-110.09,40.24l-50.83-115.35c40.69-17.83,82.64-33.83,126.53-46.17Z"/><path class="cls-7" d="M577.31,5106.46c-2.27,1-4.55,1.94-6.8,3l-6.77,3.13-13.53,6.25c-4.5,2.12-9,4.36-13.45,6.54s-9,4.32-13.42,6.62L510,5138.87l-6.67,3.44-4.26,2.18c-1.63.82-3.27,1.66-4.91,2.45a249.87,249.87,0,0,1-39.6,14.85l-34.29-121.3a124.59,124.59,0,0,0,19.36-7.2l4.9-2.48,7.33-3.78,14.66-7.57c4.89-2.52,9.89-4.88,14.83-7.32s9.89-4.88,14.89-7.24l15.08-7,7.54-3.48c2.52-1.15,5.09-2.22,7.63-3.34Z"/><path class="cls-8" d="M454.55,5161.79a288,288,0,0,1-39.77,8.16,308.52,308.52,0,0,1-118.07-7.63l32.19-121.87a182.84,182.84,0,0,0,69.44,4.52,162.27,162.27,0,0,0,21.92-4.48Z"/><path class="cls-2" d="M296.71,5162.32a285.5,285.5,0,0,1-74.27-31.11,264.25,264.25,0,0,1-63.3-52.85l95-82.83a137.69,137.69,0,0,0,33.09,27.56,159.39,159.39,0,0,0,41.64,17.36Z"/><path class="cls-4" d="M159.14,5078.36a266.3,266.3,0,0,1-43.66-69.65,296.79,296.79,0,0,1-13.32-37.85,328.58,328.58,0,0,1-8.07-38.25l124.65-18.78a204.67,204.67,0,0,0,4.9,23.39,172.25,172.25,0,0,0,7.58,21.55,139.6,139.6,0,0,0,22.95,36.76Z"/><path class="cls-5" d="M94.09,4932.61c-.44-3.18-1-6.37-1.31-9.53l-1-9.5c-.3-3.16-.51-6.3-.75-9.45-.11-1.57-.26-3.16-.33-4.72l-.21-4.69c-.11-3.12-.32-6.28-.33-9.37L90,4876c0-3.11.1-6.17.14-9.25s.12-6.16.31-9.2l.47-9.15.7-9.06.37-4.53c.14-1.52.33-3.08.49-4.61l1-9.23a362,362,0,0,1,7-38.1l122.4,30.15a235.62,235.62,0,0,0-4.34,23.87l-.71,6.43c-.11,1.08-.26,2.13-.35,3.23l-.26,3.32-.53,6.65-.33,6.58c-.15,2.21-.18,4.38-.22,6.55s-.13,4.36-.1,6.51l.07,6.44c0,2.16.17,4.25.23,6.38l.13,3.18c0,1.06.15,2.09.23,3.14.17,2.08.29,4.18.49,6.25l.68,6.17c.2,2.06.57,4,.84,6.07Z"/><path class="cls-6" d="M100.51,4782.91a253.46,253.46,0,0,1,13.41-40,187.21,187.21,0,0,1,24-40.7,160.7,160.7,0,0,1,37.83-35.11,169.5,169.5,0,0,1,45.9-21l34.87,121.13a43.43,43.43,0,0,0-11.27,5c-.39.23-.7.54-1.06.78s-.75.46-1.07.76-.66.59-1,.86l-.53.4-.48.5c-.32.33-.65.64-1,.94l-.26.23-.23.29-.48.55c-.33.37-.66.72-1,1.07s-.63.86-1,1.28a61.46,61.46,0,0,0-7.78,13.51,127.22,127.22,0,0,0-6.5,19.66Z"/><path class="cls-7" d="M221.67,4646.11a208.26,208.26,0,0,1,44.35-7.47,295.78,295.78,0,0,1,40.06.28c25.37,1.85,48.48,6,70.55,10.46l-25.44,123.47c-19.08-3.93-37.47-7-54-8.19a170.49,170.49,0,0,0-22.92-.23,83.94,83.94,0,0,0-17.7,2.81Z"/><path class="cls-8" d="M376.63,4649.38c22,4.55,43,9.65,63.27,14.45s39.88,9.38,58.7,12.94l-23.41,123.86c-22.47-4.25-43.77-9.27-64.4-14.15s-40.49-9.7-59.6-13.63Z"/><path class="cls-6" d="M997.74,5386c6.39-19.05,12.37-38.09,17.68-57s9.93-37.76,13.49-56.23l123.78,23.88c-4.4,22.79-9.85,44.78-15.88,66.31s-12.66,42.58-19.63,63.37Z"/><path class="cls-7" d="M1028.91,5272.69l1.31-6.91c.46-2.31.76-4.57,1.15-6.85l1.11-6.83.91-6.74.46-3.37c.15-1.12.24-2.22.36-3.32l.71-6.63c.22-2.2.33-4.34.5-6.51s.36-4.35.4-6.44l.28-6.34,0-6.18c.06-2.08-.05-4-.11-6s-.08-4-.26-5.91-.23-3.88-.43-5.75l-.63-5.57-.83-5.35c-.11-.91-.32-1.75-.49-2.6l-.52-2.57,123.22-26.6,1.05,5.15c.34,1.72.71,3.45.95,5.14.54,3.41,1.1,6.82,1.58,10.22l1.14,10.09c.34,3.36.52,6.64.77,10s.34,6.57.45,9.83.22,6.53.17,9.7l-.08,9.58-.38,9.4c-.1,3.16-.34,6.22-.57,9.29s-.43,6.17-.73,9.19l-1,9.05c-.17,1.5-.31,3-.51,4.5l-.59,4.44-1.21,8.88-1.4,8.72c-.49,2.89-.91,5.85-1.47,8.69l-1.61,8.57Z"/><path class="cls-8" d="M1032.86,5172.77a107.86,107.86,0,0,0-5.88-18.88,103.91,103.91,0,0,0-9.32-17.31,165.26,165.26,0,0,0-14-17.88l-2.08-2.33-2.12-2.19-4.22-4.4c-.71-.72-1.38-1.5-2.12-2.19l-2.23-2.05-4.42-4.13,84.3-93.72,7.1,6.61,3.53,3.32c1.18,1.11,2.26,2.3,3.39,3.45l6.69,7,3.33,3.49,3.17,3.56a290.31,290.31,0,0,1,24.71,31.79,230.69,230.69,0,0,1,20.48,38.13,233.81,233.81,0,0,1,12.91,41.17Z"/><path class="cls-2" d="M306.42,1488.25c10.16-8.83,20.95-21.94,32.82-37.79s25-34.47,42.21-53.78l93.94,84.06c-1.34,1.45-2.71,3.11-4.07,4.66s-2.75,3.26-4.16,5c-2.78,3.4-5.64,7.11-8.55,10.91s-5.92,7.84-9,12L440,1526.23l-5.1,6.73c-1.78,2.31-3.51,4.57-5.38,6.92-3.63,4.63-7.55,9.4-11.63,14.19s-8.52,9.64-13.15,14.47-9.65,9.65-15,14.35"/><path class="cls-4" d="M381.45,1396.68c4.27-4.81,8.93-9.67,13.8-14.46s10.19-9.54,15.74-14.15a226.46,226.46,0,0,1,36.42-24.31,237.27,237.27,0,0,1,39.46-16.71,263.82,263.82,0,0,1,40-9.46l19.75,124.49c-15,2.34-28.34,6.68-39.73,12.79a100.47,100.47,0,0,0-15.93,10.6c-2.52,2.12-5.08,4.37-7.68,6.93s-5.25,5.29-7.94,8.34Z"/><path class="cls-5" d="M526.92,1317.59a343.37,343.37,0,0,1,77.05-2.91,486.82,486.82,0,0,1,71.57,10.62l-27.22,123.08a362,362,0,0,0-53-7.94,218.58,218.58,0,0,0-48.65,1.64Z"/><path class="cls-6" d="M675.54,1325.3l8.6,2c2.85.7,5.71,1.37,8.53,2.09l4.24,1.09c1.42.36,2.84.73,4.16,1.1l8.1,2.2c5.45,1.46,10.66,3,16,4.5s10.39,3,15.58,4.56c20.54,6.1,40.21,12.14,59.2,17.34l-33.27,121.58c-21.54-5.9-42-12.22-61.78-18.07-4.89-1.43-9.88-3-14.66-4.29s-9.68-2.81-14.38-4.06l-7.11-1.93c-1.2-.34-2.33-.63-3.46-.92l-3.39-.87-6.77-1.66-6.76-1.55Z"/><path class="cls-7" d="M799.9,1360.15a517.52,517.52,0,0,0,54.79,12.29,254.77,254.77,0,0,0,50.26,3.39l5.14,126a379.1,379.1,0,0,1-75.29-4.87,639.22,639.22,0,0,1-68.17-15.18Z"/><path class="cls-8" d="M905,1375.83l3-.11,1.49,0,.75,0,.63-.06,2.52-.23c.84-.07,1.68-.12,2.53-.26,3.4-.42,6.84-.95,10.29-1.67a134.35,134.35,0,0,0,20.56-6,129.17,129.17,0,0,0,36.41-20.84l80.51,97a255,255,0,0,1-72.34,41.76,261.45,261.45,0,0,1-39.89,11.56c-6.84,1.42-13.79,2.52-20.82,3.36-1.74.25-3.52.4-5.3.56l-5.32.46-1.34.11-1.22.06-2.44.1-4.88.2Z"/><path class="cls-2" d="M983.13,1346.61a90.8,90.8,0,0,0,13.24-13.31,66.94,66.94,0,0,0,8.53-13.59,47.16,47.16,0,0,0,4-12.86c0-.53.09-1,.15-1.58a9.31,9.31,0,0,0,.17-1.58c0-.53,0-1.06.07-1.59l.06-.79c0-.27,0-.55,0-.81-.09-1.1.05-2.14-.14-3.3,0-.57-.1-1.14-.13-1.72s-.18-1.11-.25-1.68l124.71-18.37c.28,2,.63,4.08.83,6.12l.54,6.14c.41,4.06.4,8.28.49,12.44,0,1,0,2.08,0,3.13l-.12,3.14-.31,6.27c-.08,2.1-.38,4.18-.59,6.26l-.76,6.25a172.81,172.81,0,0,1-14.17,47.28,193.08,193.08,0,0,1-24.72,39.75,217,217,0,0,1-31,31.4Z"/><path class="cls-4" d="M1008.75,1293.8a47.35,47.35,0,0,0-3.94-13.27,70.93,70.93,0,0,0-8.54-13.84c-7.45-9.41-18.34-18.9-31.33-27.1l67.39-106.53a271.61,271.61,0,0,1,32.88,24.34,231.07,231.07,0,0,1,30.09,31.3,197.26,197.26,0,0,1,24.32,39.77,173.52,173.52,0,0,1,13.84,47Z"/><path class="cls-5" d="M964.94,1239.59A211.47,211.47,0,0,0,921.35,1219c-2-.68-3.93-1.29-5.89-2l-5.93-1.77-3-.81c-1-.27-1.95-.55-3.13-.82l-6.73-1.66-3.37-.83c-1.12-.28-2.31-.52-3.47-.78l-7-1.55c-2.3-.53-4.74-1-7.14-1.5l-7.22-1.47L893,1082.2l8.21,1.67c2.75.56,5.46,1.09,8.29,1.74l8.4,1.86c1.4.32,2.78.6,4.21,1l4.28,1,8.57,2.12c1.38.33,3,.76,4.49,1.18L944,1094c3.07.89,6.12,1.81,9.16,2.74s6.07,1.94,9.08,3a336.67,336.67,0,0,1,70.06,33.29Z"/><path class="cls-6" d="M868.51,1205.86c-19.5-3.87-40.4-7.42-62.34-11.92s-45.07-10-68.86-18.11l41.17-119.14c16,5.48,33.8,9.84,53,13.77s39.75,7.45,61.47,11.74Z"/><path class="cls-7" d="M737.31,1175.83c-3-1-6-2.19-9-3.3l-4.48-1.67c-1.49-.56-3-1.11-4.49-1.78l-9-3.86-4.49-2c-1.49-.7-3-1.46-4.48-2.19l-8.94-4.46-2.24-1.13c-.74-.39-1.47-.83-2.21-1.24l-4.41-2.53-8.8-5.1c-2.85-1.81-5.67-3.67-8.5-5.52a374.36,374.36,0,0,1-30.47-23c-9.18-7.72-17.64-15.32-25.6-22.54l84.77-93.3c7.59,6.9,14.79,13.33,21.68,19.13a245.38,245.38,0,0,0,19.76,15l4.71,3.07,4.85,2.77,2.41,1.41c.41.23.8.48,1.22.7l1.29.63,5.17,2.56c.86.43,1.7.88,2.58,1.3l2.75,1.16,5.48,2.37c.89.42,1.86.77,2.83,1.12l2.91,1.07,5.82,2.17Z"/><path class="cls-8" d="M569.94,919.36l4.7,1.63c1.57.59,3.15,1.23,4.71,1.85l9.4,3.78,9.33,4.3c1.55.74,3.11,1.44,4.65,2.2l4.59,2.44c3,1.64,6.12,3.26,9.13,5l8.84,5.38c1.5.89,2.88,1.82,4.27,2.75l4.17,2.81c1.37.94,2.79,1.87,4.13,2.82l3.93,2.87c5.34,3.82,10.17,7.7,15.07,11.58l7,5.8c1.19,1,2.28,1.93,3.38,2.88l3.31,2.87,3.3,2.86,3.15,2.81,6.22,5.58L695,1002.24l-84.77,93.3-11.52-10.47-5.51-4.94-2.73-2.43-2.66-2.3-2.64-2.29c-.88-.77-1.77-1.55-2.61-2.23l-5.14-4.27c-3.35-2.63-6.7-5.34-9.91-7.61l-2.43-1.79c-.8-.57-1.59-1.07-2.38-1.61l-2.37-1.6c-.78-.53-1.57-1.09-2.34-1.52q-2.32-1.38-4.62-2.82l-4.73-2.53-2.36-1.28c-.81-.4-1.66-.76-2.48-1.15l-5-2.32-5.23-2.08-2.61-1-2.75-.92"/><polyline class="cls-2" points="421.81 1022.58 390.44 1021.1 374.19 1020.26 365.88 1019.75 361.73 1019.49 357.49 1019.18 349.03 1018.55 340.41 1017.76 336.1 1017.37 331.71 1016.89 322.94 1015.9 314.01 1014.68 309.55 1014.07 305.01 1013.32 295.94 1011.8 286.72 1009.95 312.43 886.55 318.66 887.81 325.13 888.88 328.36 889.42 331.7 889.88 338.39 890.79 345.27 891.56 348.72 891.95 352.25 892.27 359.33 892.91 366.57 893.45 370.2 893.72 373.91 893.95 381.32 894.41 396.55 895.19 428.13 896.68"/><path class="cls-4" d="M286.72,1010l-4.61-.94-4.66-1.12c-3.11-.75-6.21-1.46-9.33-2.28-6.29-1.81-12.53-3.42-18.86-5.66a274,274,0,0,1-37.64-15.56l-9.23-4.88c-1.54-.79-3-1.71-4.54-2.62l-4.5-2.73c-5.91-3.45-12.15-7.89-18.12-12.23a224.36,224.36,0,0,1-32.26-30l94.5-83.43a98.56,98.56,0,0,0,13.77,12.88c2.57,1.76,4.82,3.53,8,5.34l2.23,1.37a21,21,0,0,0,2.27,1.32q2.37,1.22,4.7,2.48A148.34,148.34,0,0,0,289,880.33c3.56,1.32,7.52,2.26,11.31,3.41,2,.51,4,1,6,1.45l3,.73,3.11.63Z"/><path class="cls-5" d="M143,931.92l-3.57-4.13c-1.18-1.38-2.38-2.75-3.46-4.19q-3.33-4.27-6.6-8.6c-2.07-2.93-4.07-5.9-6.09-8.87l-1.5-2.23-1.4-2.27-2.77-4.57-2.74-4.58-2.51-4.67c-1.63-3.13-3.4-6.23-4.83-9.43s-3-6.36-4.43-9.56l-3.95-9.72a270.08,270.08,0,0,1-11.76-39.86,267,267,0,0,1-5.29-41L208,771.84a140.61,140.61,0,0,0,2.76,21.46,143.52,143.52,0,0,0,6.05,20.52q1,2.43,2,4.89l2.21,4.72c.67,1.62,1.58,3.06,2.36,4.59l1.19,2.28,1.33,2.17,1.31,2.18.64,1.09.72,1,2.81,4.13q1.55,1.93,3,3.9a21.76,21.76,0,0,0,1.56,1.87l1.59,1.83Z"/><path class="cls-6" d="M82.07,778.25l-.22-5.17c-.06-1.72-.16-3.44-.13-5.17l.07-10.37c.3-6.92.62-13.84,1.46-20.76l.56-5.19c.23-1.73.52-3.46.78-5.18l.81-5.18.42-2.59.52-2.58,2.18-10.32,2.71-10.26a244.05,244.05,0,0,1,15.39-40.1,222.87,222.87,0,0,1,23.25-37.26l99.82,77a97.43,97.43,0,0,0-10.06,16.11,120,120,0,0,0-7.13,18.67c-.42,1.67-.87,3.32-1.33,5s-.69,3.4-1.06,5.1l-.27,1.27-.19,1.31-.41,2.6c-.13.87-.29,1.73-.41,2.61l-.26,2.64c-.47,3.51-.56,7.09-.77,10.66,0,1.8,0,3.59,0,5.39,0,.9,0,1.8.08,2.7l.11,2.7Z"/><path class="cls-7" d="M129.87,618.12l3.44-4.36,1.73-2.17c.58-.73,1.21-1.41,1.82-2.11q3.69-4.17,7.44-8.3c5-5,9.92-10,15.28-14.66a243.15,243.15,0,0,1,33.8-25.16,274.5,274.5,0,0,1,36.75-19,307.46,307.46,0,0,1,38-12.91l32.49,121.8a181.77,181.77,0,0,0-21.63,7.3,148.13,148.13,0,0,0-19.19,9.91,116.25,116.25,0,0,0-16.69,12.42c-2.65,2.2-5,4.76-7.48,7.13q-1.49,1.76-3.05,3.45c-.26.28-.54.55-.77.85l-.71.93-1.43,1.83Z"/><path class="cls-8" d="M268.15,529.48l9.56-2.42,9.53-2,2.39-.51,2.38-.42,4.75-.84,4.76-.83,4.74-.68c3.15-.42,6.32-.93,9.46-1.25l9.43-1c6.24-.49,12.51-1,18.7-1.24s12.36-.35,18.52-.43,12.25.1,18.31.4,12.09.65,18.11,1.06,12,1,17.89,1.74L402.4,646.27c-4.51-.56-9-.92-13.47-1.33s-8.93-.65-13.34-.77-8.82-.22-13.21-.3c-4.34.08-8.7.07-13,.32s-8.52.52-12.74.83l-6.25.66c-2.08.2-4.09.56-6.15.82l-3.06.43-3,.54-3,.52-1.5.26-1.47.32-5.87,1.25-5.72,1.46Z"/><path class="cls-2" d="M416.68,521c3,.33,5.94.67,8.87,1.09s5.9.78,8.83,1.21c5.85.91,11.71,1.81,17.5,2.89q17.4,3.13,34.44,7.26l4.27,1,4.23,1.09c2.82.74,5.66,1.43,8.47,2.22l8.42,2.34,8.08,2.35c10.68,3.16,21.24,6.43,31.57,9.76l-38.58,120c-9.66-3.12-19.18-6.06-28.64-8.86l-7-2-6.77-1.88c-2.25-.63-4.52-1.18-6.78-1.77l-3.39-.88-3.4-.81c-9.05-2.22-18.14-4.11-27.21-5.74-4.54-.85-9.07-1.53-13.6-2.25l-6.78-.93c-2.26-.33-4.51-.58-6.77-.82Z"/><path class="cls-4" d="M551.36,552.25c41.39,13.33,80.35,27.35,118,38.07L634.73,711.54c-43.19-12.37-83.33-26.9-122-39.28Z"/><path class="cls-5" d="M669.34,590.32c37.59,10.77,73.8,18.13,108.07,18.9l-3,126c-12.46-.24-24.73-1.16-36.81-2.48-6.07-.62-12-1.47-18-2.29l-8.86-1.4c-3-.45-5.84-1-8.77-1.53-23.32-4.23-45.68-9.86-67.3-16Z"/><path class="cls-6" d="M777.41,609.22c2.15.1,4.27.08,6.4.07s4.26,0,6.36-.07l6.31-.2,6.26-.4,1.56-.1,1.3-.16,2.62-.28,2.63-.27,2.61-.43,2.61-.41a25.82,25.82,0,0,0,2.6-.48l5.19-1.11a150.18,150.18,0,0,0,20.39-6.65,152.21,152.21,0,0,0,19.44-9.94l65.62,107.63A264,264,0,0,1,853.2,728L843,730.18c-1.7.39-3.42.67-5.15,1l-5.16.83-5.18.81-5.21.57-5.21.56-2.61.26-2.38.16-9.46.61-9.43.31c-3.15.14-6.27.09-9.4.11s-6.26,0-9.35-.11Z"/><path class="cls-7" d="M863.69,588.79A155.82,155.82,0,0,0,898,560.18a170.7,170.7,0,0,0,25.86-37.91l112.65,56.58a297.13,297.13,0,0,1-45,65.87,281.8,281.8,0,0,1-62.23,51.7Z"/><path class="cls-8" d="M1069.88,427.21a347.79,347.79,0,0,1-1.39,38.68c-.47,6.46-1.45,12.9-2.32,19.35-.2,1.61-.5,3.22-.78,4.82l-.87,4.82c-.6,3.21-1.12,6.43-1.89,9.61l-2.19,9.57c-.75,3.19-1.7,6.34-2.55,9.5l-1.32,4.74c-.43,1.59-1,3.14-1.48,4.71l-3.07,9.38c-1.12,3.1-2.3,6.18-3.46,9.26-.59,1.54-1.16,3.09-1.77,4.62l-1.94,4.56c-1.33,3-2.58,6.08-4,9.08l-4.33,8.94L923.89,522.27l2.55-5.24c.83-1.75,1.54-3.58,2.33-5.36l1.16-2.67,1-2.75,2.07-5.49,1.81-5.6c.29-.94.65-1.85.9-2.81l.77-2.85c.5-1.91,1.11-3.78,1.55-5.71l1.32-5.79c.5-1.92.77-3.9,1.14-5.85l.54-2.94c.18-1,.38-1.95.48-2.95.49-4,1.17-7.9,1.42-11.93a225,225,0,0,0,.89-24.28"/><path class="cls-3" d="M528.26,1038.33c-1.83-.62-3.63-1.28-5.49-1.88l-5.74-1.66c-1-.27-1.89-.6-2.89-.83l-3-.73c-2-.47-4-1-6-1.45-4.18-.82-8.23-1.78-12.6-2.45-2.16-.35-4.26-.77-6.48-1.09l-6.66-.94c-2.19-.34-4.52-.57-6.79-.84s-4.54-.55-6.89-.77c-4.72-.43-9.34-.93-14.21-1.26-9.56-.78-19.57-1.31-29.69-1.85l6.32-125.9c10.86.58,21.83,1.15,33.22,2.08,5.61.39,11.43,1,17.18,1.52,2.88.28,5.85.66,8.77,1s5.84.64,8.84,1.1l8.94,1.26c3,.43,6.05,1,9.06,1.51,6,1,12.21,2.33,18.33,3.58,3.08.67,6.21,1.49,9.31,2.24l4.65,1.15c1.55.38,3.13.88,4.69,1.32l9.39,2.75c3.14,1,6.29,2.11,9.43,3.18Z"/><g id="Rectangle_186" data-name="Rectangle 186"><rect class="cls-1" x="987.96" y="5374.13" width="139" height="87" transform="translate(-14.82 2.91) rotate(-0.16)"/><rect class="cls-9" x="989.46" y="5375.63" width="136" height="84" transform="translate(-14.82 2.91) rotate(-0.16)"/></g><g id="END" class="cls-10"><text class="cls-11" transform="translate(1037.29 5423.73) rotate(-0.16)">END</text></g><path id="Path_34" data-name="Path 34" class="cls-12" d="M940.88,425.21,1006,481.34l66.87-59-29.7.64-1.76-82-73,1.57,1.77,82Z"/><g id="START" class="cls-10"><text class="cls-11" transform="translate(1009.89 415.01) rotate(-90.23)">START</text></g></svg>