<?xml version="1.0" encoding="utf-8"?>
<!-- Generator: Adobe Illustrator 25.1.0, SVG Export Plug-In . SVG Version: 6.00 Build 0)  -->
<svg version="1.1" id="Layer_1" xmlns="http://www.w3.org/2000/svg" xmlns:xlink="http://www.w3.org/1999/xlink" x="0px" y="0px"
	 viewBox="0 0 210.4 161.8" style="enable-background:new 0 0 210.4 161.8;" xml:space="preserve">
<style type="text/css">
	.st0{fill:#FFFFFF;}
	.st1{fill:#FFFFFF;stroke:#F388B2;stroke-miterlimit:10;}
	.st2{fill:#F388B2;}
	.st3{opacity:0.37;fill:#A7A9AC;}
	.st4{fill:#EE7DAA;}
	.st5{fill:#CA242F;}
	.st6{opacity:0.3;fill:#FFFFFF;}
	.st7{fill:#FFFFFF;stroke:#4F8ECB;stroke-miterlimit:10;}
	.st8{fill:#4F8ECB;}
	.st9{fill:#2F79B1;}
	.st10{fill:#FFFFFF;stroke:#93479B;stroke-miterlimit:10;}
	.st11{fill:#93479B;}
	.st12{fill:#733379;}
	.st13{fill:#FFFFFF;stroke:#60A353;stroke-miterlimit:10;}
	.st14{fill:#60A353;}
	.st15{fill:#4E8944;}
	.st16{fill:#FFFFFF;stroke:#F3714A;stroke-miterlimit:10;}
	.st17{fill:#F3714A;}
	.st18{fill:#F0533C;}
	.st19{fill:#FFFFFF;stroke:#F1D54B;stroke-miterlimit:10;}
	.st20{fill:#F1D54B;}
	.st21{fill:#EEBB24;}
	.st22{fill:#FFFFFF;stroke:#EF4043;stroke-width:2.0698;stroke-miterlimit:10;}
	.st23{fill:#EF4043;}
</style>
<g>
	<path class="st0" d="M148.1,36.9l14.7,24.2c0,0,44.8-2.9,44.2-5.9c-0.5-3-7.1-2-9.2-5.1c-3.2-4.8,2.3-8.3,0-13.3
		c-3.1-6.8-9.3-2.5-12.9-7.1c-3.6-4.6,0.4-8-2.2-12.2c-2.6-4.3-8.1,0.2-10.4-3.1s2.8-10.5-1.1-12C167.6,1,148.1,36.9,148.1,36.9z"/>
	<path class="st0" d="M63.8,124.5l-14.7-24.2c0,0-44.8,2.9-44.2,5.9c0.5,3,7.1,2,9.2,5.1c3.2,4.8-2.3,8.3,0,13.3
		c3.1,6.8,9.3,2.5,12.9,7.1c3.6,4.6-0.4,8,2.2,12.2s8.1-0.2,10.4,3.1c2.3,3.3-2.8,10.5,1.1,12S63.8,124.5,63.8,124.5z"/>
</g>
<g>
	<path class="st13" d="M138.7,127.3c-30.1,21.6-69.4,18.3-87.8-7.4S42.1,56,72.2,34.4c8.7-6.2,18.2-10.4,27.7-12.5
		c5.5-1.2,11-1.8,16.3-1.7c17.5,0.3,33.7,7.7,43.7,21.6C178.3,67.5,168.8,105.7,138.7,127.3z"/>
	<path class="st14" d="M110.1,77.9c-1.5,1.1-3,2-4.5,2.9c14.9-13.2,11.9-30.2,5-40.6c-5.8-8.7-15.4-13-21.1-15
		c9.6-3.7,21.5-5,26.9-4.9c2.5,1.8,4.7,4,6.5,6.6C133.8,42.1,128.1,65,110.1,77.9z"/>
	<path class="st14" d="M107.1,76c-0.4,1.6-0.9,3.2-1.5,4.8c2.2-18.1-13-26.2-26.5-27.7c-11.3-1.3-22.3,2.7-28.6,5.4
		c5.1-8.7,13.8-17.6,18.2-21.2c3.4-0.6,6.8-0.8,10.3-0.5C99.4,38.4,112,56,107.1,76z"/>
	<path class="st14" d="M103.5,76.7c0.8,1.3,1.5,2.7,2,4.1C94.7,67.6,76,72,63.4,79.5c-10.5,6.3-17.1,15.9-20.6,21.6
		c-1.8-8.9-0.6-20.2,0.6-25.4c2.5-2.5,5.3-4.8,8.4-6.8C70.6,57.1,93.7,60.5,103.5,76.7z"/>
	<path class="st14" d="M100.8,79.7c1.7,0.2,3.2,0.6,4.8,1.1c-18.7-0.6-30.7,14.8-35.2,27.9c-3.8,10.9-2,21.1-0.5,26.9
		c-8.2-4.1-15.7-11.7-18.6-15.6c0.1-3.2,0.7-6.5,1.7-9.8C59.2,90.3,80.6,76.7,100.8,79.7z"/>
	<path class="st14" d="M100.4,83.7c1.5-1,3-1.9,4.6-2.7c-15.3,12.8-13,30-6.5,40.7c5.4,8.9,14.8,13.6,20.4,15.8
		c-9.7,3.3-21.6,4.3-26.9,4c-2.4-1.9-4.5-4.2-6.2-6.8C75.5,118.9,82,96.1,100.4,83.7z"/>
	<path class="st14" d="M103.3,85.8c0.5-1.6,1-3.2,1.7-4.8c-2.9,18.1,11.9,26.8,25.3,28.8c11.2,1.7,22.2-1.9,28.6-4.4
		c-5.4,8.6-14.4,17.2-18.9,20.7c-3.4,0.5-6.8,0.5-10.2,0.1C109.5,123.8,97.6,105.7,103.3,85.8z"/>
	<path class="st14" d="M107.1,84.6c-0.9-1.3-1.7-2.6-2.3-4c11.6,12.5,30.2,7.3,42.4-0.9c10.2-6.8,17.2-17.1,20.3-23
		c2.3,8.8,1.8,20,0.8,25.2c-2.3,2.6-5.8,5.6-8.9,7.7C141.3,102.4,117.9,100.1,107.1,84.6z"/>
	<path class="st14" d="M109.7,81.5c-1.7-0.2-3.3-0.4-4.9-0.8c18.9-0.4,30.1-16.2,33.9-29.4c3.2-11,0.8-21-1-26.7
		c8.5,3.7,16.5,10.8,19.6,14.6c0.1,3.2-0.3,6.4-1.2,9.8C150.9,68.9,130.1,83.4,109.7,81.5z"/>
	<path class="st3" d="M138.7,127.3c-30.1,21.6-69.4,18.3-87.8-7.4c-11.2-15.7-12-36.1-4.1-54.6c-2.8,14.4-0.3,29,8.3,41
		c18.4,25.6,57.6,29,87.8,7.4c11.7-8.4,20.2-19.2,25.3-30.9C165.1,99.4,154.8,115.7,138.7,127.3z"/>
	<path class="st15" d="M140,126.1c-3.4,0.5-6.8,0.5-10.2,0.1c-2.8-0.3-5.4-1-7.9-1.9c7.2-2.3,14.4-5.9,21-10.7
		c2.3-1.6,4.5-3.4,6.5-5.2c3.7-0.9,7-2.1,9.5-3.1C153.5,114,144.6,122.7,140,126.1z"/>
	<path class="st5" d="M119,137.5c-0.5,0.1-0.9,0.3-1.4,0.5c-0.9,0.3-1.9,0.6-2.8,0.8c-0.4,0.1-0.8,0.2-1.2,0.3
		c-5.8,1.4-11.8,2.2-16.4,2.4c0,0,0,0-0.1,0c-2,0.1-3.8,0.1-5.1,0c-0.1,0-0.1-0.1-0.2-0.1c-2.3-1.9-4.4-4.1-6.1-6.7
		c-1.9-3-3.3-6.2-4.1-9.5c6.8,2.1,14.2,3,21.7,2.6C108.6,132.9,114.8,135.8,119,137.5z"/>
	<path class="st15" d="M119,137.5c-0.5,0.1-0.9,0.3-1.4,0.5c-0.9,0.3-1.9,0.6-2.8,0.8c-0.4,0.1-0.8,0.2-1.2,0.3
		c-5.5,1.5-11,2.3-16.4,2.4c0,0,0,0-0.1,0c-1.8,0-3.5,0-5.2-0.1c-2.3-1.9-4.4-4.1-6.1-6.7c-1.9-3-3.3-6.2-4.1-9.5
		c6.8,2.1,14.2,3,21.7,2.6C108.6,132.9,114.8,135.8,119,137.5z"/>
	<path class="st5" d="M69.8,135.6c-8.2-4.1-15.7-11.7-18.6-15.7c0.1-3.2,0.7-6.5,1.7-9.8c0.5-1.6,1.1-3.1,1.8-4.6
		c0.2,0.2,0.3,0.5,0.5,0.7c3.6,5,8,9.2,13,12.5C67.6,125.6,68.7,131.6,69.8,135.6z"/>
	<path class="st15" d="M69.8,135.6c-8.2-4.1-15.7-11.7-18.6-15.7c0.1-3.2,0.7-6.5,1.7-9.8c0.5-1.6,1.1-3.1,1.8-4.6
		c0.2,0.2,0.3,0.5,0.5,0.7c3.6,5,8,9.2,13,12.5C67.6,125.6,68.7,131.6,69.8,135.6z"/>
	<path class="st15" d="M42.8,101.1c-1.8-8.9-0.6-20.2,0.6-25.4c0.8-0.8,1.6-1.6,2.4-2.3c-0.3,6.7,0.5,13.3,2.5,19.6
		C46,96,44.2,98.9,42.8,101.1z"/>
	<path class="st6" d="M151.9,97c3.9-13.5,2.3-27.6-5.8-38.9c-8.3-11.7-21.9-17.8-36.5-18.1c-4.5-0.1-9.1,0.4-13.7,1.4
		c-7.9,1.8-15.8,5.2-23.1,10.5c-8.9,6.4-15.6,14.5-20,23.3C56.5,63,64.5,51.3,76.5,42.7c7.3-5.2,15.2-8.7,23.1-10.5
		c4.6-1,9.2-1.5,13.7-1.4c14.6,0.3,28.2,6.4,36.5,18.1C159.7,62.8,159.8,81,151.9,97z"/>
</g>
</svg>
