<?xml version="1.0" encoding="utf-8"?>
<!-- Generator: Adobe Illustrator 25.2.1, SVG Export Plug-In . SVG Version: 6.00 Build 0)  -->
<svg version="1.1" xmlns="http://www.w3.org/2000/svg" xmlns:xlink="http://www.w3.org/1999/xlink" x="0px" y="0px"
	 viewBox="0 0 612 599" style="enable-background:new 0 0 612 599;" xml:space="preserve">
<style type="text/css">
	.st0{fill:#8A5527;stroke:#5A3707;stroke-width:4;stroke-miterlimit:10;}
	.st1{fill:none;stroke:#5A3707;stroke-width:4;stroke-miterlimit:10;}
</style>
<g id="Layer_1">
</g>
<g id="Layer_2">
	<g>
		<path class="st0" d="M295.9,451c3,33.5,6,67.1,6,100.7c0,8.8,0.2,18.6,6.3,24.9c6.2,6.3,16.1,6.7,25,6.6c4.6,0,10.1-0.5,12.6-4.4
			c1.4-2.1,1.5-4.8,1.6-7.4c2.6-68.3-2.7-136.9-15.9-203.9c-13.5,0-27-0.1-40.4-0.1c-0.5,0,0.1,26.5,0.1,29.7c0,5.5,0.8,11,1.3,16.5
			c0.5,5.9,1.1,11.7,1.6,17.6C294.7,437.9,295.3,444.4,295.9,451z"/>
		<path class="st1" d="M317.6,384c-0.4,13.7-2.3,14.7-1.7,27.4c0.7,12.7,2.7,25.4,3.5,38.1c0.7,11.7,0.3,23.4,1.4,35.1
			c0.9,9.4,2.7,18.6,4.5,27.8c2.4,12.3,4.8,24.7,7.2,37c0.5,2.6,1.2,5.1,2.4,7.4c3.4,6.7,7.6,15.3,10.9,22"/>
		<path class="st1" d="M337.2,399.5c-3.1,25.2-2.9,51.5-2.3,76.7c0.2,8.6,0.4,17.3,2.5,25.7c1.1,4.3,2.6,8.4,4.1,12.5
			c1.8,4.7,4.8,11.4,6.5,16.2"/>
	</g>
	<path class="st0" d="M530.2,398.4c0,8.3,0.1,18.7,1.1,25.7c1.7,11.5,5.6,22.7,6.2,34.4c0.5,11.7-3.5,25-12.7,29.1
		c-2,0.9-4.2,1.3-6.3,1.7c-37.6,6.8-75.2,13.7-112.8,20.5c-17.1,3.1-34.1,6.2-51.3,8.7c-52.6,7.7-105.6,9.7-158.6,11.6
		c-10.3,0.4-20.7,0.8-31.1,0.1c-19.1-1.1-37.9-5.7-56.7-10.2c-6.9-1.7-14.5-3.8-18.6-10.7c-3.3-5.6-3.6-12.9-3.7-19.8
		c-0.1-7.2,2.3-24.5-2-52.3c-2.5-15.9,8-38.6,7.1-57.5c-0.3-7.1-9.9-42-10.2-49.1c-2.6-56.3-5.4-80.5-5.6-93.7
		c-0.1-5.9-0.2-12,1.6-17.5c0.8-2.5,2-4.9,2.9-7.4c5.4-16-4-33.8-2.5-51c1.5-17.7,14.7-31.4,28.8-36.5c14.2-5.1,29.3-1.4,44-2
		c57-2.4,106.9-14.5,162.1-18.6c44.2-3.3,81.4,2.7,127.3-2.6c11.5-1.3,30.8-1.3,42.1-3.4c7.4-1.4,18-1.3,22.2,7.7
		c3,6.3,2.5,15.1,4.5,21.9c3.7,12.7,6.8,25.6,8.9,38.8c2.3,14.7,3.5,29.6,3.6,44.6c0,1.2,1.5,30.9,3.4,66.7c0.2,4.6-5.3,34.3-5,39
		C520.1,337.6,530.2,397.2,530.2,398.4"/>
	<path class="st1" d="M519,181c-12.9-2.1-27.9-2.7-40.9-1.8c-1.8,0.1-3.7,0.3-5.5-0.3c-1.8-0.6-3.5-2.1-4-4.2
		c-0.1-0.5-0.1-1,0.1-1.5c0.2-0.3,0.6-0.5,0.9-0.6c15.4-5.2,31.4-7.9,47.4-8"/>
	<path class="st1" d="M513.4,153.6c-15.3-0.3-30.5,1.7-45.7,3.6c-7,0.9-14,1.8-21,2.7c-12.5,1.6-25.2,3.2-37.1,8.4
		c-3.3,1.4-6.7,3.3-8.8,6.6c-2.1,3.4-2.6,8.6-0.1,11.6c1.7,2,4.3,2.5,6.7,2.9c37.9,5.8,74.5,6.5,112.5,1.9"/>
	<path class="st1" d="M508.8,135c-30.8,2.1-61.5,5.6-92,10.5c-11.3,1.8-22.7,3.9-33.5,8.6c-10.8,4.7-20.9,12.3-27.7,23.4
		c-0.6,1.1-1.3,2.2-1.5,3.5c-0.6,3.4,1.9,6.5,4.6,7.9c2.6,1.4,5.6,1.9,8,3.8c1.8,1.4,3.1,3.6,4.8,5.1c2.7,2.3,6.2,2.9,9.6,3.3
		c46.7,6.4,92,11.1,138.9,6.6"/>
	<path class="st1" d="M306.3,104.5c-26.1,22.7-92.1,37-120.5,34.7c-28.4-2.3-54.8-10.3-83.2-13.1"/>
	<path class="st1" d="M506.1,114.7c-70.4-1.8-142.3,15-211.7,29.7C240.2,156,184.8,162.2,129.9,156c-16.4-2.4-26.7-3.1-49.2-8.3"/>
	<path class="st1" d="M523.7,260.8c-20.1,9.8-44.8,12.7-66.4,10.6s-42.9-7.3-64.5-9.8c-13.8-1.7-27.8-2.2-41.6-3.6
		c-20.4-2-40.6-5.8-60.6-11.3C228.5,229.5,163.5,229,99.9,226c-7.6-0.4-16,0-24.8,1.5"/>
	<path class="st1" d="M523.7,285.3c-19.1-1.6-37.6-0.1-56.1,5.7c-11.7,3.7-23.2,8.8-35.1,11.6c-14.5,3.4-29.3,3.3-44.1,4.2
		c-35.6,2.3-70.8,10.6-105.8,18.9c-22.1,5.3-38.4,14.3-60.4,20.3c-10.6,2.9-27.5,2.6-38.5,5.8c-7.6,2.2-36.3,11.7-97.4,5.5"/>
	<path class="st1" d="M519,316.7c-37.9-1.9-83.9-2.6-121.3,5.1c-9.1,1.9-17.6,5.7-26.8,8.1c-22.8,6.1-45.8-0.8-77.5,26.5"/>
	<path class="st1" d="M79.3,304c9-0.6,23.1-0.5,31.8,2.2c7.4,2.3,21.9,4.7,21.9,7.7c0,3.1-36.5,1.7-53.2,0"/>
	<path class="st1" d="M80.7,327.1c11.7-0.3,22.2-2.2,33.7-0.4c4,0.6,17.5,2.3,21.6,2.4c5.3,0.2,10.6-0.8,15.9-1.8
		c8.4-1.6,16.7-3.2,25.1-4.8c23.2-4.4,46.7-8.9,68-20.8c-0.8-3.2-4.4-3.8-7.2-3.8c-31.1,0.3-62.2-1.9-93.1-6.3
		c-19.8-2.8-50.4-5.9-66.2-1"/>
	<path class="st1" d="M82.9,340.1c68.7,6.4,151.7-11.1,217.9-33.8c8.6-3,17.5-3.7,25.6-8.2c2.3-1.3,4.9-3.9,3.9-6.6
		c-1.3-4.4-80.8-8-121.3-10c-17.5-0.8-35-1.7-52.2-5.6c-6.6-1.5-13.1-3.4-19.7-4.4c-6-0.8-12-0.9-18-0.7c-12.9,0.4-29.8,2-42.5,4.3"
		/>
	<path class="st1" d="M519.8,238.1c-49.5,8.3-100.3,5.1-148.9-9.3c-10.7-3.2-21.2-6.9-31.8-10.4c-36.1-12.2-49.4-12-86.1-21.3
		c-9.5-2.4-42.2-5.6-51.9-5.6c-11.9,0-33.9,3-45.9,2.6c-26.9-1-46.2-11.9-74.6-8.4"/>
	<path class="st1" d="M294,356.1c-23.4,6.7-47.8,10.3-72.1,10.7c-8.7,0.1-17.5-0.1-26.1,1.3c-6.2,1-12.2,2.9-18.2,4.6
		c-28.8,8.1-54.6,13.7-84.5,11.3"/>
	<path class="st1" d="M520.2,332.5c-33.1-8-67.9,1.1-99.7,13.3s-62.8,27.7-96.4,33.2c-14.7,2.4-29.6,2.9-44.2,5.8
		c-14.6,2.9-29.2,8.6-39.2,19.6c-0.8,0.9-1.7,1.9-2.1,3.1c-1.5,4.1,2.7,8.5,7.1,9.1c4.4,0.6,8.7-1.2,12.9-2.3
		c15.9-4.1,32.6,0.8,48.4,5.2c31.5,8.7,64.8,15.1,96.5,7.6c13.1-3.1,25.6-8.5,38.7-11.3c28.6-6.2,59.1,0.2,87.1-8.1"/>
	<path class="st1" d="M530.5,396.6c-14.7,7.9-32.2,8.4-48.8,7c-16.6-1.4-33.2-4.7-49.9-3.7c-18.4,1.1-36.1,7.4-54.4,10.1
		c-18.3,2.6-50.4,1.1-52.3-11.5c0-10,22.5-9.9,35-11.9c27.6-4.2,51.3-22.2,78.3-29.5c13.4-3.6,27.3-4.5,41.1-5.4
		c13.9-0.9,27.8-1.7,41.7-2.6"/>
	<path class="st1" d="M528.3,381.6c-21.8,0.3-43.7,0.7-65.5,1c-8.4,0.1-13.5,4-24.5,0.1c-0.8-0.3-10.5-2.6-10.5-6.8
		c0-2.2,36.1-11.8,38.3-12.2c26.5-4.8,32.5,6.3,58.7,0"/>
	<path class="st1" d="M85.6,414.9c46.6-20,98.8-9.7,146.1-27.9c7.6-2.9,14.9-6.5,22.3-10.1c16.7-8.2,34.8-14.3,50-28.5"/>
	<path class="st1" d="M83.7,439.1c42.1-8.5,85.6-17.1,127.7-8.6c11.2,2.2,22.1,5.7,33.4,7.1c11.7,1.5,23.7,0.8,35.5,1.2
		c41.7,1.4,82.8,16.4,124.3,11.8c12.9-1.4,25.7-2.5,38.4-5.4c28.7-6.5,57.9-11,87.2-13.4"/>
	<path class="st1" d="M87.1,479.1c24.9-0.7,49.9-1.3,74.6,2.1c15,2.1,30,5.7,45.1,4.9c17.5-0.9,34-7.7,50.9-12.2
		c24.9-6.7,51.1-8.5,76.6-5.3c32.3,4,66.2,15.7,96.4,3.3c33.2-13.7,72.9-1.2,105.9-15.5"/>
	<path class="st1" d="M103.4,518.8c15.5,3.8,30.4,2.3,45.8-1.6s29.9-10.7,45.2-15.2c27.6-8.3,57.4-8.9,85.2-1.8
		c26.9,6.8,52,19.4,79.7,17.6"/>
	<path class="st1" d="M179.7,530.6c22,0.9,42.6-14.1,64.7-14c17.6,0.1,34.5,10,52,8.3"/>
</g>
</svg>
