<?xml version="1.0" encoding="utf-8"?>
<!-- Generator: Adobe Illustrator 25.2.1, SVG Export Plug-In . SVG Version: 6.00 Build 0)  -->
<svg version="1.1" xmlns="http://www.w3.org/2000/svg" xmlns:xlink="http://www.w3.org/1999/xlink" x="0px" y="0px"
	 viewBox="0 0 612 792" style="enable-background:new 0 0 612 792;" xml:space="preserve">
<style type="text/css">
	.st0{fill:#8A5527;stroke:#5A3707;stroke-width:4;stroke-miterlimit:10;}
	.st1{fill:none;stroke:#5A3707;stroke-width:4;stroke-miterlimit:10;}
</style>
<g id="Layer_1">
</g>
<g id="Layer_2">
	<path class="st0" d="M295.9,541.4c3,33.5,6,67.1,6,100.7c0,8.8,0.2,18.6,6.3,24.9c6.2,6.3,16.1,6.7,25,6.6c4.6,0,10.1-0.5,12.6-4.4
		c1.4-2.1,1.5-4.8,1.6-7.4c2.6-68.3-2.7-136.9-15.9-203.9c-13.5,0-27-0.1-40.4-0.1c-0.5,0,0.1,26.5,0.1,29.7c0,5.5,0.8,11,1.3,16.5
		c0.5,5.9,1.1,11.7,1.6,17.6C294.7,528.3,295.3,534.8,295.9,541.4z"/>
	<path class="st0" d="M82.4,375.1c0-8.3-0.1-18.7-1.1-25.7c-1.7-11.5-5.6-22.7-6.2-34.4c-0.5-11.7,3.5-25,12.7-29.1
		c2-0.9,4.2-1.3,6.3-1.7c37.6-6.8,75.2-13.7,112.8-20.5c17.1-3.1,34.1-6.2,51.3-8.7c52.6-7.7,105.6-9.7,158.6-11.6
		c10.3-0.4,20.7-0.8,31.1-0.1c19.1,1.1,37.9,5.7,56.7,10.2c6.9,1.7,14.5,3.8,18.6,10.7c3.3,5.6,3.6,12.9,3.7,19.8
		c0.4,26.6,0.8,53.2,1.3,79.7c0.1,5.9,0.2,12-1.6,17.5c-0.8,2.5-2,4.9-2.9,7.4c-5.4,16,4,33.8,2.5,51c-1.5,17.7-14.7,31.4-28.8,36.5
		c-14.2,5.1-29.3,3.4-44.1,2c-99.3-9.4-199.6-3.6-297.7,17.3c-11.3,2.4-22.5,5.2-33.8,7.4c-7.4,1.4-18,1.3-22.2-7.7
		c-3-6.3-2.5-15.1-4.5-21.9c-3.7-12.7-6.8-25.6-8.9-38.8c-2.3-14.7-3.5-29.6-3.6-44.6c0-3-0.3-6.3-0.1-9.4
		C82.3,378.6,82.4,376.9,82.4,375.1"/>
	<path class="st1" d="M84.1,419.6c12.9,2.1,27.9,2.7,40.9,1.8c1.8-0.1,3.7-0.3,5.5,0.3c1.8,0.6,3.5,2.1,4,4.2c0.1,0.5,0.1,1-0.1,1.5
		c-0.2,0.3-0.6,0.5-0.9,0.6c-15.4,5.2-31.4,7.9-47.4,8"/>
	<path class="st1" d="M89.7,447c15.3,0.3,30.5-1.7,45.7-3.6c7-0.9,14-1.8,21-2.7c12.5-1.6,25.2-3.2,37.1-8.4
		c3.3-1.4,6.7-3.3,8.8-6.6c2.1-3.4,2.6-8.6,0.1-11.6c-1.7-2-4.3-2.5-6.7-2.9c-37.9-5.8-74.5-6.5-112.5-1.9"/>
	<path class="st1" d="M94.4,465.6c30.8-2.1,61.5-5.6,92-10.5c11.3-1.8,22.7-3.9,33.5-8.6c10.8-4.7,20.9-12.3,27.7-23.4
		c0.6-1.1,1.3-2.2,1.5-3.5c0.6-3.4-1.9-6.5-4.6-7.9s-5.6-1.9-8-3.8c-1.8-1.4-3.1-3.6-4.8-5.1c-2.7-2.3-6.2-2.9-9.6-3.3
		c-46.7-6.4-92-11.1-138.9-6.6"/>
	<path class="st1" d="M330.4,474.1c26.6-12.3,58.5-14.9,86.9-12.6c28.4,2.3,54.8,10.3,83.2,13.1"/>
	<path class="st1" d="M97,485.9c70.4,1.8,142.3-15,211.7-29.7c54.3-11.5,109.6-17.8,164.5-11.5c16.4,2.4,26.7,3.1,49.2,8.3"/>
	<path class="st1" d="M79.4,339.8c20.1-9.8,44.8-12.7,66.4-10.6s42.9,7.3,64.5,9.8c13.8,1.7,27.8,2.2,41.6,3.6
		c20.4,2,40.6,5.8,60.6,11.3c62.1,17.1,127.1,17.7,190.7,20.7c7.6,0.4,16,0,24.8-1.5"/>
	<path class="st1" d="M75.1,315c19.1,1.6,41.9,0.4,60.5-5.4c11.7-3.7,23.2-8.8,35.1-11.6c14.5-3.4,29.3-3.3,44.1-4.2
		c35.6-2.3,70.8-10.6,105.8-18.9c22.1-5.3,38.4-14.3,60.4-20.3c10.6-2.9,27.5-2.6,38.5-5.8c7.6-2.2,16.7-5.5,28.4-5.5"/>
	<path class="st1" d="M89.5,285.3c37.9,1.9,78.6,1.2,116-6.5c9.1-1.9,18.2-4,26.8-8.1c9.3-4.4,25.2-13.4,34.7-16.9"/>
	<path class="st1" d="M526.4,296.4c-9,0.6-25.8,0.6-34.5-2.1c-7.4-2.3-21.9-4.7-21.9-7.7c0-3.1,39.7-1.3,56.4,0.4"/>
	<path class="st1" d="M526.4,273.4c-11.7,0.3-26.1,2.4-37.7,0.6c-4-0.6-17.5-2.3-21.6-2.4c-5.3-0.2-10.6,0.8-15.9,1.8
		c-8.4,1.6-16.7,3.2-25.1,4.8c-23.2,4.4-46.7,8.9-68,20.8c0.8,3.2,4.4,3.8,7.2,3.8c31.1-0.3,62.2,1.9,93.1,6.3
		c19.8,2.8,52.8,6.8,68.8,0.1"/>
	<path class="st1" d="M520.2,260.5c-68.7-6.4-151.7,11.1-217.9,33.8c-8.6,3-17.5,3.7-25.6,8.2c-2.3,1.3-4.9,3.9-3.9,6.6
		c1.3,4.4,80.8,8,121.3,10c17.5,0.8,35,1.7,52.2,5.6c6.6,1.5,13.1,3.4,19.7,4.4c6,0.8,12,0.9,18,0.7c12.9-0.4,29.8-2,42.5-4.3"/>
	<path class="st1" d="M83.3,362.5c49.5-8.3,100.3-5.1,148.9,9.3c10.7,3.2,21.2,6.9,31.8,10.4c36.1,12.2,49.4,12,86.1,21.3
		c9.5,2.4,42.2,5.6,51.9,5.6c11.9,0,33.9-3,45.9-2.6c26.9,1,46.2,11.9,74.6,8.4"/>
	<path class="st1" d="M317.6,474.4c-0.4,13.7-2.3,14.7-1.7,27.4c0.7,12.7,2.7,25.4,3.5,38.1c0.7,11.7,0.3,23.4,1.4,35.1
		c0.9,9.4,2.7,18.6,4.5,27.8c2.4,12.3,4.8,24.7,7.2,37c0.5,2.6,1.2,5.1,2.4,7.4c3.4,6.7,7.6,15.3,10.9,22"/>
	<path class="st1" d="M337.2,490c-3.1,25.2-2.9,51.5-2.3,76.7c0.2,8.6,0.4,17.3,2.5,25.7c1.1,4.3,2.6,8.4,4.1,12.5
		c1.8,4.7,4.8,11.4,6.5,16.2"/>
</g>
</svg>
